<?xml version="1.0" standalone="no"?>
<!DOCTYPE svg PUBLIC "-//W3C//DTD SVG 1.1//EN" "http://www.w3.org/Graphics/SVG/1.1/DTD/svg11.dtd" >
<svg xmlns="http://www.w3.org/2000/svg" xmlns:xlink="http://www.w3.org/1999/xlink" version="1.1">
<metadata>
Created by FontForge 20201107 at Sun Jan 28 22:30:43 2024
 By 
Copyright (c) 2023 by Caron twice Fonts. All rights reserved.
</metadata>
<defs>
<font id="LigaturessSerifTrial-Semibold" horiz-adv-x="0" >
  <font-face 
    font-family="Ligaturess Serif Trial Semibold"
    font-weight="600"
    font-stretch="normal"
    units-per-em="2048"
    panose-1="0 0 7 0 0 0 0 0 0 0"
    ascent="1638"
    descent="-410"
    x-height="995"
    cap-height="1434"
    bbox="-1016 -504 5528 1925"
    underline-thickness="102"
    underline-position="-204"
    unicode-range="U+0020-FB02"
  />
<missing-glyph horiz-adv-x="1425" 
d="M1243 1434v-1434h-1061v1434h1061zM453 109h520v1216h-520v-1216z" />
    <glyph glyph-name="fi" unicode="fi" horiz-adv-x="1206" 
d="M1044 102l132 -51v-51h-514v51l131 51v762l-142 27h-221v-789l131 -51v-51h-514v51l131 51v789h-149v104h149v92q0 91 27 166.5t71 124.5t100.5 83.5t114 49.5t113.5 15q105 0 196.5 -26t151.5 -78.5t60 -121.5q0 -64 -37 -97.5t-103 -33.5q-67 0 -104.5 36t-50.5 87
q-6 23 -13 40t-21 39t-38.5 34t-56.5 12q-83 0 -134.5 -62.5t-39.5 -207.5l12 -152h512l90 25l16 -2v-916z" />
    <glyph glyph-name="fl" unicode="fl" horiz-adv-x="1204" 
d="M1044 102l132 -51v-51h-514v51l131 51v1012q-4 101 -65 168.5t-138 67.5q-81 0 -131 -68t-41 -182l8 -105h244v-104h-240v-789l131 -51v-51h-514v51l131 51v789h-149v104h149v45q0 93 40 173.5t104 133t140 82t150 29.5q103 0 195 -20l221 88l16 -2v-1422z" />
    <glyph glyph-name="A_A.liga" unicode="AA" horiz-adv-x="2648" 
d="M2509 104l129 -53v-51h-602v51l178 53l-170 410h-539l-125 -311l43 -105l129 -47v-51h-602v51l178 53l-170 410h-538l-156 -387l203 -76v-51h-467v51l141 66l539 1317h190l451 -1086l444 1086h193zM465 625h448l-227 546zM1550 625h449l-227 546z" />
    <glyph glyph-name="A_V.liga" unicode="AV" horiz-adv-x="2027" 
d="M2028 1434v-52l-144 -82l-522 -1300h-191l-213 514h-538l-156 -387l203 -76v-51h-467v51l141 66l539 1317h190l484 -1170l407 1034l-241 84v52h508zM465 625h448l-227 546z" />
    <glyph glyph-name="A_W.liga" unicode="AW" horiz-adv-x="2686" 
d="M2677 1434v-52l-131 -77l-406 -1305h-203l-321 952l-322 -952h-204l-181 514h-489l-156 -387l203 -76v-51h-467v51l141 66l539 1317h190l408 -1143l281 831l-66 201l-125 59v52h600v-52l-188 -65l340 -1012l307 991l-217 86v52h467zM465 625h407l-188 538z" />
    <glyph glyph-name="A_W_A.liga" unicode="AWA" horiz-adv-x="3424" 
d="M3283 104l131 -53v-51h-604v51l178 53l-170 410h-494l-184 -514h-203l-321 952l-322 -952h-204l-181 514h-489l-156 -387l203 -76v-51h-467v51l141 66l539 1317h190l408 -1143l281 831l-66 201l-125 59v52h600v-52l-188 -65l348 -1032l412 1149h192zM465 625h407
l-188 538zM2363 625h410l-221 530z" />
    <glyph glyph-name="A_Wacute.liga" unicode="A&#x1e82;" horiz-adv-x="2686" 
d="M2083 1712l-604 -186l-41 49l344 332h4l297 -185v-10zM2677 1434v-52l-131 -77l-406 -1305h-203l-321 952l-322 -952h-204l-181 514h-489l-156 -387l203 -76v-51h-467v51l141 66l539 1317h190l408 -1143l281 831l-66 201l-125 59v52h600v-52l-188 -65l340 -1012l307 991
l-217 86v52h467zM465 625h407l-188 538z" />
    <glyph glyph-name="A_Wcircumflex.liga" unicode="A&#x174;" horiz-adv-x="2686" 
d="M1655 1704l-316 -178l-49 37l226 323h294l222 -321l-50 -39zM2677 1434v-52l-131 -77l-406 -1305h-203l-321 952l-322 -952h-204l-181 514h-489l-156 -387l203 -76v-51h-467v51l141 66l539 1317h190l408 -1143l281 831l-66 201l-125 59v52h600v-52l-188 -65l340 -1012
l307 991l-217 86v52h467zM465 625h407l-188 538z" />
    <glyph glyph-name="A_Wdieresis.liga" unicode="A&#x1e84;" horiz-adv-x="2686" 
d="M1454 1579q-68 0 -114 45t-46 109t46 108.5t114 44.5q67 0 113.5 -45t46.5 -108t-46.5 -108.5t-113.5 -45.5zM1876 1579q-67 0 -113.5 45.5t-46.5 108.5t46.5 108t113.5 45q68 0 114 -44.5t46 -108.5t-46 -109t-114 -45zM2677 1434v-52l-131 -77l-406 -1305h-203
l-321 952l-322 -952h-204l-181 514h-489l-156 -387l203 -76v-51h-467v51l141 66l539 1317h190l408 -1143l281 831l-66 201l-125 59v52h600v-52l-188 -65l340 -1012l307 991l-217 86v52h467zM465 625h407l-188 538z" />
    <glyph glyph-name="A_Wgrave.liga" unicode="A&#x1e80;" horiz-adv-x="2686" 
d="M1878 1581l-33 -55l-575 160v8l241 213h5zM2677 1434v-52l-131 -77l-406 -1305h-203l-321 952l-322 -952h-204l-181 514h-489l-156 -387l203 -76v-51h-467v51l141 66l539 1317h190l408 -1143l281 831l-66 201l-125 59v52h600v-52l-188 -65l340 -1012l307 991l-217 86v52
h467zM465 625h407l-188 538z" />
    <glyph glyph-name="A_X.liga" unicode="AX" horiz-adv-x="2646" 
d="M2486 109l140 -58v-51h-613v51l154 45l-352 510l-361 -479l176 -76v-51h-680v51l178 53l-170 410h-538l-156 -387l203 -76v-51h-467v51l141 66l539 1317h190l506 -1223l373 491l-428 623l-141 57v52h612v-52l-152 -45l299 -434l314 404l-174 75v52h473v-52l-156 -73
l-391 -500zM465 625h448l-227 546z" />
    <glyph glyph-name="Aacute_V.liga" unicode="&#xc1;V" horiz-adv-x="2027" 
d="M1184 1712l-604 -186l-41 49l344 332h4l297 -185v-10zM2028 1434v-52l-144 -82l-522 -1300h-191l-213 514h-538l-156 -387l203 -76v-51h-467v51l141 66l539 1317h190l484 -1170l407 1034l-241 84v52h508zM465 625h448l-227 546z" />
    <glyph glyph-name="Aacute_W.liga" unicode="&#xc1;W" horiz-adv-x="2686" 
d="M1184 1712l-604 -186l-41 49l344 332h4l297 -185v-10zM2677 1434v-52l-131 -77l-406 -1305h-203l-321 952l-322 -952h-204l-181 514h-489l-156 -387l203 -76v-51h-467v51l141 66l539 1317h190l408 -1143l281 831l-66 201l-125 59v52h600v-52l-188 -65l340 -1012l307 991
l-217 86v52h467zM465 625h407l-188 538z" />
    <glyph glyph-name="Aacute_X.liga" unicode="&#xc1;X" horiz-adv-x="2646" 
d="M1184 1712l-604 -186l-41 49l344 332h4l297 -185v-10zM2486 109l140 -58v-51h-613v51l154 45l-352 510l-361 -479l176 -76v-51h-680v51l178 53l-170 410h-538l-156 -387l203 -76v-51h-467v51l141 66l539 1317h190l506 -1223l373 491l-428 623l-141 57v52h612v-52
l-152 -45l299 -434l314 404l-174 75v52h473v-52l-156 -73l-391 -500zM465 625h448l-227 546z" />
    <glyph glyph-name="Abreve_V.liga" unicode="&#x102;V" horiz-adv-x="2027" 
d="M766 1536q-60 0 -113 18t-99 55.5t-72.5 105.5t-26.5 159l71 2q25 -57 90.5 -99t149.5 -42t149.5 42t92.5 99l71 -2q0 -91 -26.5 -159t-72.5 -106t-99.5 -55.5t-114.5 -17.5zM2028 1434v-52l-144 -82l-522 -1300h-191l-213 514h-538l-156 -387l203 -76v-51h-467v51
l141 66l539 1317h190l484 -1170l407 1034l-241 84v52h508zM465 625h448l-227 546z" />
    <glyph glyph-name="Abreve_W.liga" unicode="&#x102;W" horiz-adv-x="2686" 
d="M766 1536q-60 0 -113 18t-99 55.5t-72.5 105.5t-26.5 159l71 2q25 -57 90.5 -99t149.5 -42t149.5 42t92.5 99l71 -2q0 -91 -26.5 -159t-72.5 -106t-99.5 -55.5t-114.5 -17.5zM2677 1434v-52l-131 -77l-406 -1305h-203l-321 952l-322 -952h-204l-181 514h-489l-156 -387
l203 -76v-51h-467v51l141 66l539 1317h190l408 -1143l281 831l-66 201l-125 59v52h600v-52l-188 -65l340 -1012l307 991l-217 86v52h467zM465 625h407l-188 538z" />
    <glyph glyph-name="Abreve_X.liga" unicode="&#x102;X" horiz-adv-x="2646" 
d="M766 1536q-60 0 -113 18t-99 55.5t-72.5 105.5t-26.5 159l71 2q25 -57 90.5 -99t149.5 -42t149.5 42t92.5 99l71 -2q0 -91 -26.5 -159t-72.5 -106t-99.5 -55.5t-114.5 -17.5zM2486 109l140 -58v-51h-613v51l154 45l-352 510l-361 -479l176 -76v-51h-680v51l178 53
l-170 410h-538l-156 -387l203 -76v-51h-467v51l141 66l539 1317h190l506 -1223l373 491l-428 623l-141 57v52h612v-52l-152 -45l299 -434l314 404l-174 75v52h473v-52l-156 -73l-391 -500zM465 625h448l-227 546z" />
    <glyph glyph-name="Acircumflex_V.liga" unicode="&#xc2;V" horiz-adv-x="2027" 
d="M756 1704l-316 -178l-49 37l225 323h295l222 -321l-50 -39zM2028 1434v-52l-144 -82l-522 -1300h-191l-213 514h-538l-156 -387l203 -76v-51h-467v51l141 66l539 1317h190l484 -1170l407 1034l-241 84v52h508zM465 625h448l-227 546z" />
    <glyph glyph-name="Acircumflex_W.liga" unicode="&#xc2;W" horiz-adv-x="2686" 
d="M756 1704l-316 -178l-49 37l225 323h295l222 -321l-50 -39zM2677 1434v-52l-131 -77l-406 -1305h-203l-321 952l-322 -952h-204l-181 514h-489l-156 -387l203 -76v-51h-467v51l141 66l539 1317h190l408 -1143l281 831l-66 201l-125 59v52h600v-52l-188 -65l340 -1012
l307 991l-217 86v52h467zM465 625h407l-188 538z" />
    <glyph glyph-name="Acircumflex_X.liga" unicode="&#xc2;X" horiz-adv-x="2646" 
d="M756 1704l-316 -178l-49 37l225 323h295l222 -321l-50 -39zM2486 109l140 -58v-51h-613v51l154 45l-352 510l-361 -479l176 -76v-51h-680v51l178 53l-170 410h-538l-156 -387l203 -76v-51h-467v51l141 66l539 1317h190l506 -1223l373 491l-428 623l-141 57v52h612v-52
l-152 -45l299 -434l314 404l-174 75v52h473v-52l-156 -73l-391 -500zM465 625h448l-227 546z" />
    <glyph glyph-name="Adieresis_V.liga" unicode="&#xc4;V" horiz-adv-x="2027" 
d="M557 1579q-68 0 -114 45t-46 109t46 108.5t114 44.5q67 0 113.5 -45t46.5 -108t-46.5 -108.5t-113.5 -45.5zM979 1579q-67 0 -113.5 45.5t-46.5 108.5t46.5 108t113.5 45q68 0 114 -44.5t46 -108.5t-46 -109t-114 -45zM2028 1434v-52l-144 -82l-522 -1300h-191l-213 514
h-538l-156 -387l203 -76v-51h-467v51l141 66l539 1317h190l484 -1170l407 1034l-241 84v52h508zM465 625h448l-227 546z" />
    <glyph glyph-name="Adieresis_W.liga" unicode="&#xc4;W" horiz-adv-x="2686" 
d="M557 1579q-68 0 -114 45t-46 109t46 108.5t114 44.5q67 0 113.5 -45t46.5 -108t-46.5 -108.5t-113.5 -45.5zM979 1579q-67 0 -113.5 45.5t-46.5 108.5t46.5 108t113.5 45q68 0 114 -44.5t46 -108.5t-46 -109t-114 -45zM2677 1434v-52l-131 -77l-406 -1305h-203l-321 952
l-322 -952h-204l-181 514h-489l-156 -387l203 -76v-51h-467v51l141 66l539 1317h190l408 -1143l281 831l-66 201l-125 59v52h600v-52l-188 -65l340 -1012l307 991l-217 86v52h467zM465 625h407l-188 538z" />
    <glyph glyph-name="Adieresis_X.liga" unicode="&#xc4;X" horiz-adv-x="2646" 
d="M557 1579q-68 0 -114 45t-46 109t46 108.5t114 44.5q67 0 113.5 -45t46.5 -108t-46.5 -108.5t-113.5 -45.5zM979 1579q-67 0 -113.5 45.5t-46.5 108.5t46.5 108t113.5 45q68 0 114 -44.5t46 -108.5t-46 -109t-114 -45zM2486 109l140 -58v-51h-613v51l154 45l-352 510
l-361 -479l176 -76v-51h-680v51l178 53l-170 410h-538l-156 -387l203 -76v-51h-467v51l141 66l539 1317h190l506 -1223l373 491l-428 623l-141 57v52h612v-52l-152 -45l299 -434l314 404l-174 75v52h473v-52l-156 -73l-391 -500zM465 625h448l-227 546z" />
    <glyph glyph-name="Agrave_V.liga" unicode="&#xc0;V" horiz-adv-x="2027" 
d="M979 1581l-33 -55l-575 160v8l241 213h4zM2028 1434v-52l-144 -82l-522 -1300h-191l-213 514h-538l-156 -387l203 -76v-51h-467v51l141 66l539 1317h190l484 -1170l407 1034l-241 84v52h508zM465 625h448l-227 546z" />
    <glyph glyph-name="Agrave_W.liga" unicode="&#xc0;W" horiz-adv-x="2686" 
d="M979 1581l-33 -55l-575 160v8l241 213h4zM2677 1434v-52l-131 -77l-406 -1305h-203l-321 952l-322 -952h-204l-181 514h-489l-156 -387l203 -76v-51h-467v51l141 66l539 1317h190l408 -1143l281 831l-66 201l-125 59v52h600v-52l-188 -65l340 -1012l307 991l-217 86v52
h467zM465 625h407l-188 538z" />
    <glyph glyph-name="Agrave_X.liga" unicode="&#xc0;X" horiz-adv-x="2646" 
d="M979 1581l-33 -55l-575 160v8l241 213h4zM2486 109l140 -58v-51h-613v51l154 45l-352 510l-361 -479l176 -76v-51h-680v51l178 53l-170 410h-538l-156 -387l203 -76v-51h-467v51l141 66l539 1317h190l506 -1223l373 491l-428 623l-141 57v52h612v-52l-152 -45l299 -434
l314 404l-174 75v52h473v-52l-156 -73l-391 -500zM465 625h448l-227 546z" />
    <glyph glyph-name="Amacron_V.liga" unicode="&#x100;V" horiz-adv-x="2027" 
d="M1053 1786v-164h-572v164h572zM2028 1434v-52l-144 -82l-522 -1300h-191l-213 514h-538l-156 -387l203 -76v-51h-467v51l141 66l539 1317h190l484 -1170l407 1034l-241 84v52h508zM465 625h448l-227 546z" />
    <glyph glyph-name="Amacron_W.liga" unicode="&#x100;W" horiz-adv-x="2686" 
d="M1053 1786v-164h-572v164h572zM2677 1434v-52l-131 -77l-406 -1305h-203l-321 952l-322 -952h-204l-181 514h-489l-156 -387l203 -76v-51h-467v51l141 66l539 1317h190l408 -1143l281 831l-66 201l-125 59v52h600v-52l-188 -65l340 -1012l307 991l-217 86v52h467z
M465 625h407l-188 538z" />
    <glyph glyph-name="Amacron_X.liga" unicode="&#x100;X" horiz-adv-x="2646" 
d="M1053 1786v-164h-572v164h572zM2486 109l140 -58v-51h-613v51l154 45l-352 510l-361 -479l176 -76v-51h-680v51l178 53l-170 410h-538l-156 -387l203 -76v-51h-467v51l141 66l539 1317h190l506 -1223l373 491l-428 623l-141 57v52h612v-52l-152 -45l299 -434l314 404
l-174 75v52h473v-52l-156 -73l-391 -500zM465 625h448l-227 546z" />
    <glyph glyph-name="Aring_V.liga" unicode="&#xc5;V" horiz-adv-x="2027" 
d="M766 1495q-111 0 -181.5 55t-70.5 148q0 42 15 81.5t44 72.5t78.5 53t112.5 20q112 0 183 -54.5t71 -148.5q0 -92 -64 -159.5t-188 -67.5zM664 1778q-21 -24 -21 -60q0 -51 37 -79.5t98 -28.5q44 0 86 28q25 29 25 64q0 52 -36 80t-97 28q-54 0 -92 -32zM2028 1434v-52
l-144 -82l-522 -1300h-191l-213 514h-538l-156 -387l203 -76v-51h-467v51l141 66l539 1317h190l484 -1170l407 1034l-241 84v52h508zM465 625h448l-227 546z" />
    <glyph glyph-name="Aring_W.liga" unicode="&#xc5;W" horiz-adv-x="2686" 
d="M766 1495q-111 0 -181.5 55t-70.5 148q0 42 15 81.5t44 72.5t78.5 53t112.5 20q112 0 183 -54.5t71 -148.5q0 -92 -64 -159.5t-188 -67.5zM664 1778q-21 -24 -21 -60q0 -51 37 -79.5t98 -28.5q44 0 86 28q25 29 25 64q0 52 -36 80t-97 28q-54 0 -92 -32zM2677 1434v-52
l-131 -77l-406 -1305h-203l-321 952l-322 -952h-204l-181 514h-489l-156 -387l203 -76v-51h-467v51l141 66l539 1317h190l408 -1143l281 831l-66 201l-125 59v52h600v-52l-188 -65l340 -1012l307 991l-217 86v52h467zM465 625h407l-188 538z" />
    <glyph glyph-name="Aring_X.liga" unicode="&#xc5;X" horiz-adv-x="2646" 
d="M766 1495q-111 0 -181.5 55t-70.5 148q0 42 15 81.5t44 72.5t78.5 53t112.5 20q112 0 183 -54.5t71 -148.5q0 -92 -64 -159.5t-188 -67.5zM664 1778q-21 -24 -21 -60q0 -51 37 -79.5t98 -28.5q44 0 86 28q25 29 25 64q0 52 -36 80t-97 28q-54 0 -92 -32zM2486 109
l140 -58v-51h-613v51l154 45l-352 510l-361 -479l176 -76v-51h-680v51l178 53l-170 410h-538l-156 -387l203 -76v-51h-467v51l141 66l539 1317h190l506 -1223l373 491l-428 623l-141 57v52h612v-52l-152 -45l299 -434l314 404l-174 75v52h473v-52l-156 -73l-391 -500z
M465 625h448l-227 546z" />
    <glyph glyph-name="Atilde_V.liga" unicode="&#xc3;V" horiz-adv-x="2027" 
d="M588 1673q-22 0 -39 -6t-31 -20.5t-21.5 -24t-20.5 -32.5t-17 -29l-64 20q29 135 90 214t148 79q47 0 96 -19t82.5 -42.5t72 -42.5t66.5 -19q21 0 38 6t30.5 20.5t21 24.5t20 32.5t17.5 29.5l64 -21q-29 -134 -91 -213.5t-147 -79.5q-47 0 -96 19t-83 42.5t-71.5 42.5
t-64.5 19zM2028 1434v-52l-144 -82l-522 -1300h-191l-213 514h-538l-156 -387l203 -76v-51h-467v51l141 66l539 1317h190l484 -1170l407 1034l-241 84v52h508zM465 625h448l-227 546z" />
    <glyph glyph-name="Atilde_W.liga" unicode="&#xc3;W" horiz-adv-x="2686" 
d="M588 1673q-22 0 -39 -6t-31 -20.5t-21.5 -24t-20.5 -32.5t-17 -29l-64 20q29 135 90 214t148 79q47 0 96 -19t82.5 -42.5t72 -42.5t66.5 -19q21 0 38 6t30.5 20.5t21 24.5t20 32.5t17.5 29.5l64 -21q-29 -134 -91 -213.5t-147 -79.5q-47 0 -96 19t-83 42.5t-71.5 42.5
t-64.5 19zM2677 1434v-52l-131 -77l-406 -1305h-203l-321 952l-322 -952h-204l-181 514h-489l-156 -387l203 -76v-51h-467v51l141 66l539 1317h190l408 -1143l281 831l-66 201l-125 59v52h600v-52l-188 -65l340 -1012l307 991l-217 86v52h467zM465 625h407l-188 538z" />
    <glyph glyph-name="Atilde_X.liga" unicode="&#xc3;X" horiz-adv-x="2646" 
d="M588 1673q-22 0 -39 -6t-31 -20.5t-21.5 -24t-20.5 -32.5t-17 -29l-64 20q29 135 90 214t148 79q47 0 96 -19t82.5 -42.5t72 -42.5t66.5 -19q21 0 38 6t30.5 20.5t21 24.5t20 32.5t17.5 29.5l64 -21q-29 -134 -91 -213.5t-147 -79.5q-47 0 -96 19t-83 42.5t-71.5 42.5
t-64.5 19zM2486 109l140 -58v-51h-613v51l154 45l-352 510l-361 -479l176 -76v-51h-680v51l178 53l-170 410h-538l-156 -387l203 -76v-51h-467v51l141 66l539 1317h190l506 -1223l373 491l-428 623l-141 57v52h612v-52l-152 -45l299 -434l314 404l-174 75v52h473v-52
l-156 -73l-391 -500zM465 625h448l-227 546z" />
    <glyph glyph-name="C_A.liga" unicode="CA" horiz-adv-x="2588" 
d="M2447 104l131 -53v-51h-602v51l178 53l-169 410h-537l-62 -152q-159 -387 -581 -387q-171 0 -309 53.5t-228.5 149t-139 228.5t-48.5 292q0 107 33.5 215.5t99.5 206t154.5 173.5t207.5 120.5t250 44.5q125 0 246 -44.5t197 -113.5v-385h-74q-60 181 -175 289.5
t-261 108.5q-154 0 -287 -111q-125 -191 -125 -407q0 -175 74 -330t200.5 -247.5t270.5 -92.5q277 0 395 283l420 1026h190zM1493 625h446l-227 546z" />
    <glyph glyph-name="C_Aacute.liga" unicode="C&#xc1;" horiz-adv-x="2588" 
d="M2210 1712l-604 -186l-41 49l344 332h4l297 -185v-10zM2447 104l131 -53v-51h-602v51l178 53l-169 410h-537l-62 -152q-159 -387 -581 -387q-171 0 -309 53.5t-228.5 149t-139 228.5t-48.5 292q0 107 33.5 215.5t99.5 206t154.5 173.5t207.5 120.5t250 44.5
q125 0 246 -44.5t197 -113.5v-385h-74q-60 181 -175 289.5t-261 108.5q-154 0 -287 -111q-125 -191 -125 -407q0 -175 74 -330t200.5 -247.5t270.5 -92.5q277 0 395 283l420 1026h190zM1493 625h446l-227 546z" />
    <glyph glyph-name="C_Abreve.liga" unicode="C&#x102;" horiz-adv-x="2588" 
d="M1792 1536q-60 0 -113 18t-99 55.5t-72.5 105.5t-26.5 159l71 2q25 -57 90.5 -99t149.5 -42t149.5 42t92.5 99l71 -2q0 -91 -26.5 -159t-72.5 -106t-99.5 -55.5t-114.5 -17.5zM2447 104l131 -53v-51h-602v51l178 53l-169 410h-537l-62 -152q-159 -387 -581 -387
q-171 0 -309 53.5t-228.5 149t-139 228.5t-48.5 292q0 107 33.5 215.5t99.5 206t154.5 173.5t207.5 120.5t250 44.5q125 0 246 -44.5t197 -113.5v-385h-74q-60 181 -175 289.5t-261 108.5q-154 0 -287 -111q-125 -191 -125 -407q0 -175 74 -330t200.5 -247.5t270.5 -92.5
q277 0 395 283l420 1026h190zM1493 625h446l-227 546z" />
    <glyph glyph-name="C_Acircumflex.liga" unicode="C&#xc2;" horiz-adv-x="2588" 
d="M1782 1704l-316 -178l-49 37l225 323h295l222 -321l-50 -39zM2447 104l131 -53v-51h-602v51l178 53l-169 410h-537l-62 -152q-159 -387 -581 -387q-171 0 -309 53.5t-228.5 149t-139 228.5t-48.5 292q0 107 33.5 215.5t99.5 206t154.5 173.5t207.5 120.5t250 44.5
q125 0 246 -44.5t197 -113.5v-385h-74q-60 181 -175 289.5t-261 108.5q-154 0 -287 -111q-125 -191 -125 -407q0 -175 74 -330t200.5 -247.5t270.5 -92.5q277 0 395 283l420 1026h190zM1493 625h446l-227 546z" />
    <glyph glyph-name="C_Adieresis.liga" unicode="C&#xc4;" horiz-adv-x="2588" 
d="M1583 1579q-68 0 -114 45t-46 109t46 108.5t114 44.5q67 0 113.5 -45t46.5 -108t-46.5 -108.5t-113.5 -45.5zM2005 1579q-67 0 -113.5 45.5t-46.5 108.5t46.5 108t113.5 45q68 0 114 -44.5t46 -108.5t-46 -109t-114 -45zM2447 104l131 -53v-51h-602v51l178 53l-169 410
h-537l-62 -152q-159 -387 -581 -387q-171 0 -309 53.5t-228.5 149t-139 228.5t-48.5 292q0 107 33.5 215.5t99.5 206t154.5 173.5t207.5 120.5t250 44.5q125 0 246 -44.5t197 -113.5v-385h-74q-60 181 -175 289.5t-261 108.5q-154 0 -287 -111q-125 -191 -125 -407
q0 -175 74 -330t200.5 -247.5t270.5 -92.5q277 0 395 283l420 1026h190zM1493 625h446l-227 546z" />
    <glyph glyph-name="C_Agrave.liga" unicode="C&#xc0;" horiz-adv-x="2588" 
d="M2005 1581l-33 -55l-575 160v8l241 213h4zM2447 104l131 -53v-51h-602v51l178 53l-169 410h-537l-62 -152q-159 -387 -581 -387q-171 0 -309 53.5t-228.5 149t-139 228.5t-48.5 292q0 107 33.5 215.5t99.5 206t154.5 173.5t207.5 120.5t250 44.5q125 0 246 -44.5
t197 -113.5v-385h-74q-60 181 -175 289.5t-261 108.5q-154 0 -287 -111q-125 -191 -125 -407q0 -175 74 -330t200.5 -247.5t270.5 -92.5q277 0 395 283l420 1026h190zM1493 625h446l-227 546z" />
    <glyph glyph-name="C_Amacron.liga" unicode="C&#x100;" horiz-adv-x="2588" 
d="M2079 1786v-164h-572v164h572zM2447 104l131 -53v-51h-602v51l178 53l-169 410h-537l-62 -152q-159 -387 -581 -387q-171 0 -309 53.5t-228.5 149t-139 228.5t-48.5 292q0 107 33.5 215.5t99.5 206t154.5 173.5t207.5 120.5t250 44.5q125 0 246 -44.5t197 -113.5v-385
h-74q-60 181 -175 289.5t-261 108.5q-154 0 -287 -111q-125 -191 -125 -407q0 -175 74 -330t200.5 -247.5t270.5 -92.5q277 0 395 283l420 1026h190zM1493 625h446l-227 546z" />
    <glyph glyph-name="C_Aogonek.liga" unicode="C&#x104;" horiz-adv-x="2588" 
d="M2447 104l131 -53v-51h-196q-88 -146 -88 -270q0 -67 45 -99.5t108 -13.5v-61q-53 -32 -120.5 -40t-126 7.5t-98.5 59t-40 106.5q0 40 14.5 77.5t32 64t55.5 61.5t61 53t73 55h-322v51l178 53l-169 410h-537l-62 -152q-159 -387 -581 -387q-171 0 -309 53.5t-228.5 149
t-139 228.5t-48.5 292q0 107 33.5 215.5t99.5 206t154.5 173.5t207.5 120.5t250 44.5q125 0 246 -44.5t197 -113.5v-385h-74q-60 181 -175 289.5t-261 108.5q-154 0 -287 -111q-125 -191 -125 -407q0 -175 74 -330t200.5 -247.5t270.5 -92.5q277 0 395 283l420 1026h190z
M1493 625h446l-227 546z" />
    <glyph glyph-name="C_Aring.liga" unicode="C&#xc5;" horiz-adv-x="2588" 
d="M1792 1495q-111 0 -181.5 55t-70.5 148q0 42 15 81.5t44 72.5t78.5 53t112.5 20q112 0 183 -54.5t71 -148.5q0 -92 -64 -159.5t-188 -67.5zM1690 1778q-21 -24 -21 -60q0 -51 37 -79.5t98 -28.5q44 0 86 28q25 29 25 64q0 52 -36 80t-97 28q-54 0 -92 -32zM2447 104
l131 -53v-51h-602v51l178 53l-169 410h-537l-62 -152q-159 -387 -581 -387q-171 0 -309 53.5t-228.5 149t-139 228.5t-48.5 292q0 107 33.5 215.5t99.5 206t154.5 173.5t207.5 120.5t250 44.5q125 0 246 -44.5t197 -113.5v-385h-74q-60 181 -175 289.5t-261 108.5
q-154 0 -287 -111q-125 -191 -125 -407q0 -175 74 -330t200.5 -247.5t270.5 -92.5q277 0 395 283l420 1026h190zM1493 625h446l-227 546z" />
    <glyph glyph-name="C_Atilde.liga" unicode="C&#xc3;" horiz-adv-x="2588" 
d="M1614 1673q-22 0 -39 -6t-31 -20.5t-21.5 -24t-20.5 -32.5t-17 -29l-64 20q29 135 90 214t148 79q47 0 96 -19t82.5 -42.5t72 -42.5t66.5 -19q21 0 38 6t30.5 20.5t21 24.5t20 32.5t17.5 29.5l64 -21q-29 -134 -91 -213.5t-147 -79.5q-47 0 -96 19t-83 42.5t-71.5 42.5
t-64.5 19zM2447 104l131 -53v-51h-602v51l178 53l-169 410h-537l-62 -152q-159 -387 -581 -387q-171 0 -309 53.5t-228.5 149t-139 228.5t-48.5 292q0 107 33.5 215.5t99.5 206t154.5 173.5t207.5 120.5t250 44.5q125 0 246 -44.5t197 -113.5v-385h-74q-60 181 -175 289.5
t-261 108.5q-154 0 -287 -111q-125 -191 -125 -407q0 -175 74 -330t200.5 -247.5t270.5 -92.5q277 0 395 283l420 1026h190zM1493 625h446l-227 546z" />
    <glyph glyph-name="Cacute_A.liga" unicode="&#x106;A" horiz-adv-x="2588" 
d="M1243 1712l-604 -186l-41 49l344 332h4l297 -185v-10zM2447 104l131 -53v-51h-602v51l178 53l-169 410h-537l-62 -152q-159 -387 -581 -387q-171 0 -309 53.5t-228.5 149t-139 228.5t-48.5 292q0 107 33.5 215.5t99.5 206t154.5 173.5t207.5 120.5t250 44.5
q125 0 246 -44.5t197 -113.5v-385h-74q-60 181 -175 289.5t-261 108.5q-154 0 -287 -111q-125 -191 -125 -407q0 -175 74 -330t200.5 -247.5t270.5 -92.5q277 0 395 283l420 1026h190zM1493 625h446l-227 546z" />
    <glyph glyph-name="Ccaron_A.liga" unicode="&#x10c;A" horiz-adv-x="2588" 
d="M680 1546l-223 322l49 39l328 -178l315 178l49 -37l-223 -324h-295zM2447 104l131 -53v-51h-602v51l178 53l-169 410h-537l-62 -152q-159 -387 -581 -387q-171 0 -309 53.5t-228.5 149t-139 228.5t-48.5 292q0 107 33.5 215.5t99.5 206t154.5 173.5t207.5 120.5t250 44.5
q125 0 246 -44.5t197 -113.5v-385h-74q-60 181 -175 289.5t-261 108.5q-154 0 -287 -111q-125 -191 -125 -407q0 -175 74 -330t200.5 -247.5t270.5 -92.5q277 0 395 283l420 1026h190zM1493 625h446l-227 546z" />
    <glyph glyph-name="Ccaron_Aacute.liga" unicode="&#x10c;&#xc1;" horiz-adv-x="2588" 
d="M680 1546l-223 322l49 39l328 -178l315 178l49 -37l-223 -324h-295zM2210 1712l-604 -186l-41 49l344 332h4l297 -185v-10zM2447 104l131 -53v-51h-602v51l178 53l-169 410h-537l-62 -152q-159 -387 -581 -387q-171 0 -309 53.5t-228.5 149t-139 228.5t-48.5 292
q0 107 33.5 215.5t99.5 206t154.5 173.5t207.5 120.5t250 44.5q125 0 246 -44.5t197 -113.5v-385h-74q-60 181 -175 289.5t-261 108.5q-154 0 -287 -111q-125 -191 -125 -407q0 -175 74 -330t200.5 -247.5t270.5 -92.5q277 0 395 283l420 1026h190zM1493 625h446l-227 546z
" />
    <glyph glyph-name="Ccedilla_A.liga" unicode="&#xc7;A" horiz-adv-x="2588" 
d="M2447 104l131 -53v-51h-602v51l178 53l-169 410h-537l-62 -152q-159 -387 -581 -387h-25l-41 -59q203 -54 203 -199q0 -74 -60.5 -128t-150 -69t-192.5 5v63q42 -2 70.5 1t54.5 12.5t38.5 31t12.5 54.5q0 67 -76 84l-84 14l-2 4l125 195q-284 36 -441 229t-157 485
q0 107 33.5 215.5t99.5 206t154.5 173.5t207.5 120.5t250 44.5q125 0 246 -44.5t197 -113.5v-385h-74q-60 181 -175 289.5t-261 108.5q-154 0 -287 -111q-125 -191 -125 -407q0 -175 74 -330t200.5 -247.5t270.5 -92.5q277 0 395 283l420 1026h190zM1493 625h446l-227 546z
" />
    <glyph glyph-name="Ccircumflex_A.liga" unicode="&#x108;A" horiz-adv-x="2588" 
d="M815 1704l-315 -178l-49 37l225 323h295l221 -321l-49 -39zM2447 104l131 -53v-51h-602v51l178 53l-169 410h-537l-62 -152q-159 -387 -581 -387q-171 0 -309 53.5t-228.5 149t-139 228.5t-48.5 292q0 107 33.5 215.5t99.5 206t154.5 173.5t207.5 120.5t250 44.5
q125 0 246 -44.5t197 -113.5v-385h-74q-60 181 -175 289.5t-261 108.5q-154 0 -287 -111q-125 -191 -125 -407q0 -175 74 -330t200.5 -247.5t270.5 -92.5q277 0 395 283l420 1026h190zM1493 625h446l-227 546z" />
    <glyph glyph-name="Cdotaccent_A.liga" unicode="&#x10a;A" horiz-adv-x="2588" 
d="M827 1571q-73 0 -120.5 47.5t-47.5 114.5t47 114t121 47q75 0 122.5 -46.5t47.5 -114.5t-47.5 -115t-122.5 -47zM2447 104l131 -53v-51h-602v51l178 53l-169 410h-537l-62 -152q-159 -387 -581 -387q-171 0 -309 53.5t-228.5 149t-139 228.5t-48.5 292q0 107 33.5 215.5
t99.5 206t154.5 173.5t207.5 120.5t250 44.5q125 0 246 -44.5t197 -113.5v-385h-74q-60 181 -175 289.5t-261 108.5q-154 0 -287 -111q-125 -191 -125 -407q0 -175 74 -330t200.5 -247.5t270.5 -92.5q277 0 395 283l420 1026h190zM1493 625h446l-227 546z" />
    <glyph glyph-name="D_C.liga" unicode="DC" horiz-adv-x="2465" 
d="M2359 365l72 -43q-58 -158 -214 -252.5t-335 -94.5q-221 0 -377.5 86.5t-240.5 243.5q-100 -143 -267 -224t-401 -81h-557v51l156 60v1212l-156 59v52h684q207 0 359.5 -74.5t234.5 -214.5q101 143 251 228t335 85q125 0 245.5 -44.5t196.5 -113.5v-385h-74
q-60 181 -175 289.5t-261 108.5q-152 0 -289 -111q-123 -192 -123 -407q0 -131 44 -254.5t117 -214.5t174 -146t210 -55q100 0 213 63t178 177zM582 106q139 3 249 52.5t177 131.5t102 185.5t35 220.5q0 87 -17.5 173t-58.5 169.5t-101 147t-152 102.5t-204 39h-147v-1221
h117z" />
    <glyph glyph-name="D_Cacute.liga" unicode="D&#x106;" horiz-adv-x="2465" 
d="M2320 1712l-604 -186l-41 49l344 332h4l297 -185v-10zM2359 365l72 -43q-58 -158 -214 -252.5t-335 -94.5q-221 0 -377.5 86.5t-240.5 243.5q-100 -143 -267 -224t-401 -81h-557v51l156 60v1212l-156 59v52h684q207 0 359.5 -74.5t234.5 -214.5q101 143 251 228t335 85
q125 0 245.5 -44.5t196.5 -113.5v-385h-74q-60 181 -175 289.5t-261 108.5q-152 0 -289 -111q-123 -192 -123 -407q0 -131 44 -254.5t117 -214.5t174 -146t210 -55q100 0 213 63t178 177zM582 106q139 3 249 52.5t177 131.5t102 185.5t35 220.5q0 87 -17.5 173t-58.5 169.5
t-101 147t-152 102.5t-204 39h-147v-1221h117z" />
    <glyph glyph-name="D_Ccaron.liga" unicode="D&#x10c;" horiz-adv-x="2465" 
d="M1757 1546l-223 322l49 39l328 -178l315 178l49 -37l-223 -324h-295zM2359 365l72 -43q-58 -158 -214 -252.5t-335 -94.5q-221 0 -377.5 86.5t-240.5 243.5q-100 -143 -267 -224t-401 -81h-557v51l156 60v1212l-156 59v52h684q207 0 359.5 -74.5t234.5 -214.5
q101 143 251 228t335 85q125 0 245.5 -44.5t196.5 -113.5v-385h-74q-60 181 -175 289.5t-261 108.5q-152 0 -289 -111q-123 -192 -123 -407q0 -131 44 -254.5t117 -214.5t174 -146t210 -55q100 0 213 63t178 177zM582 106q139 3 249 52.5t177 131.5t102 185.5t35 220.5
q0 87 -17.5 173t-58.5 169.5t-101 147t-152 102.5t-204 39h-147v-1221h117z" />
    <glyph glyph-name="D_Ccedilla.liga" unicode="D&#xc7;" horiz-adv-x="2465" 
d="M1882 -25h-24l-41 -59q202 -54 202 -199q0 -74 -60.5 -128t-150 -69t-192.5 5v63q42 -2 70.5 1t54.5 12.5t38.5 31t12.5 54.5q0 67 -76 84l-84 14l-2 4l125 195q-172 23 -296.5 105.5t-194.5 215.5q-100 -143 -267 -224t-401 -81h-557v51l156 60v1212l-156 59v52h684
q207 0 359.5 -74.5t234.5 -214.5q101 143 251 228t335 85q125 0 245.5 -44.5t196.5 -113.5v-385h-74q-60 181 -175 289.5t-261 108.5q-152 0 -289 -111q-123 -192 -123 -407q0 -131 44 -254.5t117 -214.5t174 -146t210 -55q100 0 213 63t178 177l72 -43
q-58 -158 -214 -252.5t-335 -94.5zM582 106q139 3 249 52.5t177 131.5t102 185.5t35 220.5q0 87 -17.5 173t-58.5 169.5t-101 147t-152 102.5t-204 39h-147v-1221h117z" />
    <glyph glyph-name="D_Ccircumflex.liga" unicode="D&#x108;" horiz-adv-x="2465" 
d="M1892 1704l-315 -178l-49 37l225 323h295l221 -321l-49 -39zM2359 365l72 -43q-58 -158 -214 -252.5t-335 -94.5q-221 0 -377.5 86.5t-240.5 243.5q-100 -143 -267 -224t-401 -81h-557v51l156 60v1212l-156 59v52h684q207 0 359.5 -74.5t234.5 -214.5q101 143 251 228
t335 85q125 0 245.5 -44.5t196.5 -113.5v-385h-74q-60 181 -175 289.5t-261 108.5q-152 0 -289 -111q-123 -192 -123 -407q0 -131 44 -254.5t117 -214.5t174 -146t210 -55q100 0 213 63t178 177zM582 106q139 3 249 52.5t177 131.5t102 185.5t35 220.5q0 87 -17.5 173
t-58.5 169.5t-101 147t-152 102.5t-204 39h-147v-1221h117z" />
    <glyph glyph-name="D_Cdotaccent.liga" unicode="D&#x10a;" horiz-adv-x="2465" 
d="M1905 1571q-73 0 -120.5 47.5t-47.5 114.5t47 114t121 47q75 0 122.5 -46.5t47.5 -114.5t-47.5 -115t-122.5 -47zM2359 365l72 -43q-58 -158 -214 -252.5t-335 -94.5q-221 0 -377.5 86.5t-240.5 243.5q-100 -143 -267 -224t-401 -81h-557v51l156 60v1212l-156 59v52h684
q207 0 359.5 -74.5t234.5 -214.5q101 143 251 228t335 85q125 0 245.5 -44.5t196.5 -113.5v-385h-74q-60 181 -175 289.5t-261 108.5q-152 0 -289 -111q-123 -192 -123 -407q0 -131 44 -254.5t117 -214.5t174 -146t210 -55q100 0 213 63t178 177zM582 106q139 3 249 52.5
t177 131.5t102 185.5t35 220.5q0 87 -17.5 173t-58.5 169.5t-101 147t-152 102.5t-204 39h-147v-1221h117z" />
    <glyph glyph-name="D_O.liga" unicode="DO" horiz-adv-x="2635" 
d="M1868 1458q102 0 198.5 -25t186 -79.5t156.5 -133t107 -194t40 -254.5q0 -161 -53.5 -306.5t-147 -254t-228.5 -172.5t-290 -64q-181 0 -338.5 80t-245.5 236q-100 -137 -264 -214t-393 -77h-557v51l156 60v1212l-156 59v52h684q201 0 352 -71t236 -204q94 139 237 219
t320 80zM582 106q139 3 249 52.5t177 131.5t102 185.5t35 220.5q0 87 -17.5 173t-58.5 169.5t-101 147t-152 102.5t-204 39h-147v-1221h117zM2152 213q132 217 132 420q0 152 -39.5 280.5t-105.5 214t-153.5 132.5t-183.5 47q-148 0 -252 -86q-131 -215 -131 -420
q0 -153 39.5 -281t106 -213.5t154 -132.5t184.5 -47q145 0 249 86z" />
    <glyph glyph-name="Eth_C.liga" unicode="&#xd0;C" horiz-adv-x="2465" 
d="M2359 365l72 -43q-58 -158 -214 -252.5t-335 -94.5q-221 0 -377.5 86.5t-240.5 243.5q-100 -143 -267 -224t-401 -81h-557v51l156 60v573h-156v111h156v528l-156 59v52h684q207 0 359.5 -74.5t234.5 -214.5q101 143 251 228t335 85q125 0 245.5 -44.5t196.5 -113.5v-385
h-74q-60 181 -175 289.5t-261 108.5q-152 0 -289 -111q-123 -192 -123 -407q0 -131 44 -254.5t117 -214.5t174 -146t210 -55q100 0 213 63t178 177zM582 106q139 3 249 52.5t177 131.5t102 185.5t35 220.5q0 87 -17.5 173t-58.5 169.5t-101 147t-152 102.5t-204 39h-147
v-532h289v-111h-289v-578h117z" />
    <glyph glyph-name="Dcaron_C.liga" unicode="&#x10e;C" horiz-adv-x="2465" 
d="M549 1546l-223 322l49 39l327 -178l316 178l49 -37l-223 -324h-295zM2359 365l72 -43q-58 -158 -214 -252.5t-335 -94.5q-221 0 -377.5 86.5t-240.5 243.5q-100 -143 -267 -224t-401 -81h-557v51l156 60v1212l-156 59v52h684q207 0 359.5 -74.5t234.5 -214.5
q101 143 251 228t335 85q125 0 245.5 -44.5t196.5 -113.5v-385h-74q-60 181 -175 289.5t-261 108.5q-152 0 -289 -111q-123 -192 -123 -407q0 -131 44 -254.5t117 -214.5t174 -146t210 -55q100 0 213 63t178 177zM582 106q139 3 249 52.5t177 131.5t102 185.5t35 220.5
q0 87 -17.5 173t-58.5 169.5t-101 147t-152 102.5t-204 39h-147v-1221h117z" />
    <glyph glyph-name="Dcroat_C.liga" unicode="&#x110;C" horiz-adv-x="2465" 
d="M2359 365l72 -43q-58 -158 -214 -252.5t-335 -94.5q-221 0 -377.5 86.5t-240.5 243.5q-100 -143 -267 -224t-401 -81h-557v51l156 60v573h-156v111h156v528l-156 59v52h684q207 0 359.5 -74.5t234.5 -214.5q101 143 251 228t335 85q125 0 245.5 -44.5t196.5 -113.5v-385
h-74q-60 181 -175 289.5t-261 108.5q-152 0 -289 -111q-123 -192 -123 -407q0 -131 44 -254.5t117 -214.5t174 -146t210 -55q100 0 213 63t178 177zM582 106q139 3 249 52.5t177 131.5t102 185.5t35 220.5q0 87 -17.5 173t-58.5 169.5t-101 147t-152 102.5t-204 39h-147
v-532h289v-111h-289v-578h117z" />
    <glyph glyph-name="E_A.liga" unicode="EA" horiz-adv-x="2568" 
d="M2427 104l131 -53v-51h-602v51l178 53l-170 410h-537l-30 -74q-94 -228 -225 -334t-320 -106h-813v51l156 60v1212l-156 59v52h1165v-383h-53l-162 274h-524v-534h364l95 186h53v-479h-53l-93 182h-366v-571h387q153 0 258.5 89t183.5 285l392 951h190zM1470 625h447
l-225 544z" />
    <glyph glyph-name="E_Aacute.liga" unicode="E&#xc1;" horiz-adv-x="2568" 
d="M2189 1712l-604 -186l-41 49l344 332h4l297 -185v-10zM2427 104l131 -53v-51h-602v51l178 53l-170 410h-537l-30 -74q-94 -228 -225 -334t-320 -106h-813v51l156 60v1212l-156 59v52h1165v-383h-53l-162 274h-524v-534h364l95 186h53v-479h-53l-93 182h-366v-571h387
q153 0 258.5 89t183.5 285l392 951h190zM1470 625h447l-225 544z" />
    <glyph glyph-name="E_Abreve.liga" unicode="E&#x102;" horiz-adv-x="2568" 
d="M1772 1536q-48 0 -91 10.5t-84 35.5t-71 63t-48 96.5t-18 132.5l72 2q25 -57 90.5 -99t149.5 -42t149 42t92 99l72 -2q0 -91 -26.5 -159t-72.5 -106t-99.5 -55.5t-114.5 -17.5zM2427 104l131 -53v-51h-602v51l178 53l-170 410h-537l-30 -74q-94 -228 -225 -334t-320 -106
h-813v51l156 60v1212l-156 59v52h1165v-383h-53l-162 274h-524v-534h364l95 186h53v-479h-53l-93 182h-366v-571h387q153 0 258.5 89t183.5 285l392 951h190zM1470 625h447l-225 544z" />
    <glyph glyph-name="E_Acircumflex.liga" unicode="E&#xc2;" horiz-adv-x="2568" 
d="M1761 1704l-315 -178l-49 37l225 323h295l221 -321l-49 -39zM2427 104l131 -53v-51h-602v51l178 53l-170 410h-537l-30 -74q-94 -228 -225 -334t-320 -106h-813v51l156 60v1212l-156 59v52h1165v-383h-53l-162 274h-524v-534h364l95 186h53v-479h-53l-93 182h-366v-571
h387q153 0 258.5 89t183.5 285l392 951h190zM1470 625h447l-225 544z" />
    <glyph glyph-name="E_Adieresis.liga" unicode="E&#xc4;" horiz-adv-x="2568" 
d="M1563 1579q-68 0 -114 45t-46 109t46 108.5t114 44.5q67 0 113 -45t46 -108q0 -64 -46 -109t-113 -45zM1985 1579q-67 0 -113.5 45.5t-46.5 108.5t46.5 108t113.5 45q68 0 113.5 -44.5t45.5 -108.5t-45.5 -109t-113.5 -45zM2427 104l131 -53v-51h-602v51l178 53l-170 410
h-537l-30 -74q-94 -228 -225 -334t-320 -106h-813v51l156 60v1212l-156 59v52h1165v-383h-53l-162 274h-524v-534h364l95 186h53v-479h-53l-93 182h-366v-571h387q153 0 258.5 89t183.5 285l392 951h190zM1470 625h447l-225 544z" />
    <glyph glyph-name="E_Agrave.liga" unicode="E&#xc0;" horiz-adv-x="2568" 
d="M1985 1581l-33 -55l-576 160v8l242 213h4zM2427 104l131 -53v-51h-602v51l178 53l-170 410h-537l-30 -74q-94 -228 -225 -334t-320 -106h-813v51l156 60v1212l-156 59v52h1165v-383h-53l-162 274h-524v-534h364l95 186h53v-479h-53l-93 182h-366v-571h387q153 0 258.5 89
t183.5 285l392 951h190zM1470 625h447l-225 544z" />
    <glyph glyph-name="E_Amacron.liga" unicode="E&#x100;" horiz-adv-x="2568" 
d="M2058 1786v-164h-571v164h571zM2427 104l131 -53v-51h-602v51l178 53l-170 410h-537l-30 -74q-94 -228 -225 -334t-320 -106h-813v51l156 60v1212l-156 59v52h1165v-383h-53l-162 274h-524v-534h364l95 186h53v-479h-53l-93 182h-366v-571h387q153 0 258.5 89t183.5 285
l392 951h190zM1470 625h447l-225 544z" />
    <glyph glyph-name="E_Aogonek.liga" unicode="E&#x104;" horiz-adv-x="2568" 
d="M2427 104l131 -53v-51h-197q-88 -146 -88 -270q0 -67 45 -99.5t109 -13.5v-61q-53 -32 -120.5 -40t-126 7.5t-98.5 59t-40 106.5q0 40 14.5 77.5t32 64t55 61.5t61 53.5t72.5 54.5h-321v51l178 53l-170 410h-537l-30 -74q-94 -228 -225 -334t-320 -106h-813v51l156 60
v1212l-156 59v52h1165v-383h-53l-162 274h-524v-534h364l95 186h53v-479h-53l-93 182h-366v-571h387q153 0 258.5 89t183.5 285l392 951h190zM1470 625h447l-225 544z" />
    <glyph glyph-name="E_Aring.liga" unicode="E&#xc5;" horiz-adv-x="2568" 
d="M1772 1495q-111 0 -181.5 55t-70.5 148q0 43 14.5 82t43.5 72t78.5 53t112.5 20q112 0 183 -54.5t71 -148.5q0 -92 -63.5 -159.5t-187.5 -67.5zM1669 1778q-20 -23 -20 -60q0 -51 37 -79.5t98 -28.5q44 0 86 28q24 27 24 64q0 52 -36 80t-97 28q-54 0 -92 -32zM2427 104
l131 -53v-51h-602v51l178 53l-170 410h-537l-30 -74q-94 -228 -225 -334t-320 -106h-813v51l156 60v1212l-156 59v52h1165v-383h-53l-162 274h-524v-534h364l95 186h53v-479h-53l-93 182h-366v-571h387q153 0 258.5 89t183.5 285l392 951h190zM1470 625h447l-225 544z" />
    <glyph glyph-name="E_Atilde.liga" unicode="E&#xc3;" horiz-adv-x="2568" 
d="M1593 1673q-22 0 -39 -6t-31 -20.5t-21.5 -24t-20.5 -32.5t-17 -29l-63 20q29 135 89.5 214t147.5 79q47 0 96 -19t83 -42.5t72.5 -42.5t66.5 -19q21 0 38 6t30.5 20.5t21 24.5t20 32.5t17.5 29.5l63 -21q-29 -135 -90.5 -214t-146.5 -79q-59 0 -121 31t-112 61.5
t-83 30.5zM2427 104l131 -53v-51h-602v51l178 53l-170 410h-537l-30 -74q-94 -228 -225 -334t-320 -106h-813v51l156 60v1212l-156 59v52h1165v-383h-53l-162 274h-524v-534h364l95 186h53v-479h-53l-93 182h-366v-571h387q153 0 258.5 89t183.5 285l392 951h190zM1470 625
h447l-225 544z" />
    <glyph glyph-name="Eacute_A.liga" unicode="&#xc9;A" horiz-adv-x="2568" 
d="M1102 1712l-604 -186l-41 49l344 332h4l297 -185v-10zM2427 104l131 -53v-51h-602v51l178 53l-170 410h-537l-30 -74q-94 -228 -225 -334t-320 -106h-813v51l156 60v1212l-156 59v52h1165v-383h-53l-162 274h-524v-534h364l95 186h53v-479h-53l-93 182h-366v-571h387
q153 0 258.5 89t183.5 285l392 951h190zM1470 625h447l-225 544z" />
    <glyph glyph-name="Ebreve_A.liga" unicode="&#x114;A" horiz-adv-x="2568" 
d="M684 1536q-60 0 -113 18t-99 55.5t-72.5 105.5t-26.5 159l71 2q25 -57 90.5 -99t149.5 -42t149.5 42t92.5 99l71 -2q0 -91 -26.5 -159t-72.5 -106t-99.5 -55.5t-114.5 -17.5zM2427 104l131 -53v-51h-602v51l178 53l-170 410h-537l-30 -74q-94 -228 -225 -334t-320 -106
h-813v51l156 60v1212l-156 59v52h1165v-383h-53l-162 274h-524v-534h364l95 186h53v-479h-53l-93 182h-366v-571h387q153 0 258.5 89t183.5 285l392 951h190zM1470 625h447l-225 544z" />
    <glyph glyph-name="Ecaron_A.liga" unicode="&#x11a;A" horiz-adv-x="2568" 
d="M539 1546l-224 322l50 39l327 -178l316 178l49 -37l-223 -324h-295zM2427 104l131 -53v-51h-602v51l178 53l-170 410h-537l-30 -74q-94 -228 -225 -334t-320 -106h-813v51l156 60v1212l-156 59v52h1165v-383h-53l-162 274h-524v-534h364l95 186h53v-479h-53l-93 182h-366
v-571h387q153 0 258.5 89t183.5 285l392 951h190zM1470 625h447l-225 544z" />
    <glyph glyph-name="Ecircumflex_A.liga" unicode="&#xca;A" horiz-adv-x="2568" 
d="M674 1704l-316 -178l-49 37l226 323h294l222 -321l-50 -39zM2427 104l131 -53v-51h-602v51l178 53l-170 410h-537l-30 -74q-94 -228 -225 -334t-320 -106h-813v51l156 60v1212l-156 59v52h1165v-383h-53l-162 274h-524v-534h364l95 186h53v-479h-53l-93 182h-366v-571
h387q153 0 258.5 89t183.5 285l392 951h190zM1470 625h447l-225 544z" />
    <glyph glyph-name="Edieresis_A.liga" unicode="&#xcb;A" horiz-adv-x="2568" 
d="M475 1579q-68 0 -114 45t-46 109t46 108.5t114 44.5q67 0 113.5 -45t46.5 -108t-46.5 -108.5t-113.5 -45.5zM897 1579q-67 0 -113.5 45.5t-46.5 108.5t46.5 108t113.5 45q68 0 114 -44.5t46 -108.5t-46 -109t-114 -45zM2427 104l131 -53v-51h-602v51l178 53l-170 410
h-537l-30 -74q-94 -228 -225 -334t-320 -106h-813v51l156 60v1212l-156 59v52h1165v-383h-53l-162 274h-524v-534h364l95 186h53v-479h-53l-93 182h-366v-571h387q153 0 258.5 89t183.5 285l392 951h190zM1470 625h447l-225 544z" />
    <glyph glyph-name="Edotaccent_A.liga" unicode="&#x116;A" horiz-adv-x="2568" 
d="M686 1571q-74 0 -121 47.5t-47 114.5t47 114t121 47q75 0 122.5 -46.5t47.5 -114.5t-47.5 -115t-122.5 -47zM2427 104l131 -53v-51h-602v51l178 53l-170 410h-537l-30 -74q-94 -228 -225 -334t-320 -106h-813v51l156 60v1212l-156 59v52h1165v-383h-53l-162 274h-524
v-534h364l95 186h53v-479h-53l-93 182h-366v-571h387q153 0 258.5 89t183.5 285l392 951h190zM1470 625h447l-225 544z" />
    <glyph glyph-name="Egrave_A.liga" unicode="&#xc8;A" horiz-adv-x="2568" 
d="M897 1581l-33 -55l-575 160v8l241 213h5zM2427 104l131 -53v-51h-602v51l178 53l-170 410h-537l-30 -74q-94 -228 -225 -334t-320 -106h-813v51l156 60v1212l-156 59v52h1165v-383h-53l-162 274h-524v-534h364l95 186h53v-479h-53l-93 182h-366v-571h387q153 0 258.5 89
t183.5 285l392 951h190zM1470 625h447l-225 544z" />
    <glyph glyph-name="Emacron_A.liga" unicode="&#x112;A" horiz-adv-x="2568" 
d="M971 1786v-164h-572v164h572zM2427 104l131 -53v-51h-602v51l178 53l-170 410h-537l-30 -74q-94 -228 -225 -334t-320 -106h-813v51l156 60v1212l-156 59v52h1165v-383h-53l-162 274h-524v-534h364l95 186h53v-479h-53l-93 182h-366v-571h387q153 0 258.5 89t183.5 285
l392 951h190zM1470 625h447l-225 544z" />
    <glyph glyph-name="F_E.liga" unicode="FE" horiz-adv-x="2392" 
d="M2290 395h53l-57 -395h-1182v51l153 60v1214h-792v-534h385l94 186h53v-479h-53l-92 182h-387v-569l156 -60v-51h-582v51l156 60v1212l-156 59v52h2230v-383h-53l-164 274h-524v-534h364l97 186h53v-479h-53l-95 182h-366v-571h553z" />
    <glyph glyph-name="F_Eacute.liga" unicode="F&#xc9;" horiz-adv-x="2392" 
d="M2167 1712l-604 -186l-41 49l344 332h4l297 -185v-10zM2290 395h53l-57 -395h-1182v51l153 60v1214h-792v-534h385l94 186h53v-479h-53l-92 182h-387v-569l156 -60v-51h-582v51l156 60v1212l-156 59v52h2230v-383h-53l-164 274h-524v-534h364l97 186h53v-479h-53l-95 182
h-366v-571h553z" />
    <glyph glyph-name="F_Ebreve.liga" unicode="F&#x114;" horiz-adv-x="2392" 
d="M1749 1536q-60 0 -113 18t-99 55.5t-72.5 105.5t-26.5 159l71 2q25 -57 90.5 -99t149.5 -42t149.5 42t92.5 99l71 -2q0 -91 -26.5 -159t-72.5 -106t-99.5 -55.5t-114.5 -17.5zM2290 395h53l-57 -395h-1182v51l153 60v1214h-792v-534h385l94 186h53v-479h-53l-92 182h-387
v-569l156 -60v-51h-582v51l156 60v1212l-156 59v52h2230v-383h-53l-164 274h-524v-534h364l97 186h53v-479h-53l-95 182h-366v-571h553z" />
    <glyph glyph-name="F_Ecaron.liga" unicode="F&#x11a;" horiz-adv-x="2392" 
d="M1604 1546l-224 322l50 39l327 -178l316 178l49 -37l-224 -324h-294zM2290 395h53l-57 -395h-1182v51l153 60v1214h-792v-534h385l94 186h53v-479h-53l-92 182h-387v-569l156 -60v-51h-582v51l156 60v1212l-156 59v52h2230v-383h-53l-164 274h-524v-534h364l97 186h53
v-479h-53l-95 182h-366v-571h553z" />
    <glyph glyph-name="F_Ecircumflex.liga" unicode="F&#xca;" horiz-adv-x="2392" 
d="M1739 1704l-316 -178l-49 37l225 323h295l222 -321l-50 -39zM2290 395h53l-57 -395h-1182v51l153 60v1214h-792v-534h385l94 186h53v-479h-53l-92 182h-387v-569l156 -60v-51h-582v51l156 60v1212l-156 59v52h2230v-383h-53l-164 274h-524v-534h364l97 186h53v-479h-53
l-95 182h-366v-571h553z" />
    <glyph glyph-name="F_Edieresis.liga" unicode="F&#xcb;" horiz-adv-x="2392" 
d="M1538 1579q-68 0 -114 45t-46 109t46 108.5t114 44.5q67 0 113.5 -45t46.5 -108t-46.5 -108.5t-113.5 -45.5zM1960 1579q-67 0 -113.5 45.5t-46.5 108.5t46.5 108t113.5 45q68 0 114 -44.5t46 -108.5t-46 -109t-114 -45zM2290 395h53l-57 -395h-1182v51l153 60v1214h-792
v-534h385l94 186h53v-479h-53l-92 182h-387v-569l156 -60v-51h-582v51l156 60v1212l-156 59v52h2230v-383h-53l-164 274h-524v-534h364l97 186h53v-479h-53l-95 182h-366v-571h553z" />
    <glyph glyph-name="F_Edotaccent.liga" unicode="F&#x116;" horiz-adv-x="2392" 
d="M1749 1571q-73 0 -120.5 47.5t-47.5 114.5t47 114t121 47q75 0 122.5 -46.5t47.5 -114.5t-47.5 -115t-122.5 -47zM2290 395h53l-57 -395h-1182v51l153 60v1214h-792v-534h385l94 186h53v-479h-53l-92 182h-387v-569l156 -60v-51h-582v51l156 60v1212l-156 59v52h2230
v-383h-53l-164 274h-524v-534h364l97 186h53v-479h-53l-95 182h-366v-571h553z" />
    <glyph glyph-name="F_Egrave.liga" unicode="F&#xc8;" horiz-adv-x="2392" 
d="M1962 1581l-33 -55l-575 160v8l241 213h4zM2290 395h53l-57 -395h-1182v51l153 60v1214h-792v-534h385l94 186h53v-479h-53l-92 182h-387v-569l156 -60v-51h-582v51l156 60v1212l-156 59v52h2230v-383h-53l-164 274h-524v-534h364l97 186h53v-479h-53l-95 182h-366v-571
h553z" />
    <glyph glyph-name="F_Emacron.liga" unicode="F&#x112;" horiz-adv-x="2392" 
d="M2036 1786v-164h-572v164h572zM2290 395h53l-57 -395h-1182v51l153 60v1214h-792v-534h385l94 186h53v-479h-53l-92 182h-387v-569l156 -60v-51h-582v51l156 60v1212l-156 59v52h2230v-383h-53l-164 274h-524v-534h364l97 186h53v-479h-53l-95 182h-366v-571h553z" />
    <glyph glyph-name="F_Eogonek.liga" unicode="F&#x118;" horiz-adv-x="2392" 
d="M2198 -270q0 -67 45 -99.5t108 -13.5v-61q-53 -32 -120.5 -40t-126 7.5t-98.5 59t-40 106.5q0 40 14.5 77.5t32 64t55.5 61.5t61 53t73 55h-1098v51l153 60v1214h-792v-534h385l94 186h53v-479h-53l-92 182h-387v-569l156 -60v-51h-582v51l156 60v1212l-156 59v52h2230
v-383h-53l-164 274h-524v-534h364l97 186h53v-479h-53l-95 182h-366v-571h553l209 286h53l-57 -395q-88 -146 -88 -270z" />
    <glyph glyph-name="F_F.liga" unicode="FF" horiz-adv-x="2293" 
d="M2269 1434v-383h-53l-164 274h-524v-534h385l96 186h53v-479h-53l-94 182h-387v-569l155 -60v-51h-579v51l153 60v1214h-792v-534h385l94 186h53v-479h-53l-92 182h-387v-569l156 -60v-51h-582v51l156 60v1212l-156 59v52h2230z" />
    <glyph glyph-name="F_T.liga" unicode="FT" horiz-adv-x="2129" 
d="M1841 1325h-268v-1214l156 -60v-51h-582v51l156 60v1214h-838v-534h385l94 186h53v-479h-53l-92 182h-387v-569l156 -60v-51h-582v51l156 60v1212l-156 59v52h2019l62 -400h-56z" />
    <glyph glyph-name="F_Tbar.liga" unicode="F&#x166;" horiz-adv-x="2129" 
d="M1841 1325h-268v-530h233v-111h-233v-573l156 -60v-51h-582v51l156 60v573h-234v111h234v530h-838v-534h385l94 186h53v-479h-53l-92 182h-387v-569l156 -60v-51h-582v51l156 60v1212l-156 59v52h2019l62 -400h-56z" />
    <glyph glyph-name="F_Tcaron.liga" unicode="F&#x164;" horiz-adv-x="2129" 
d="M1288 1546l-223 322l49 39l328 -178l315 178l49 -37l-223 -324h-295zM1841 1325h-268v-1214l156 -60v-51h-582v51l156 60v1214h-838v-534h385l94 186h53v-479h-53l-92 182h-387v-569l156 -60v-51h-582v51l156 60v1212l-156 59v52h2019l62 -400h-56z" />
    <glyph glyph-name="uni00460162.liga" unicode="F&#x162;" horiz-adv-x="2129" 
d="M1841 1325h-268v-1214l156 -60v-51h-238l-55 -84q202 -54 202 -199q0 -74 -60.5 -128t-150 -69t-192.5 5v63q42 -2 70.5 1t54.5 12.5t38.5 31t12.5 54.5q0 67 -76 84l-84 14l-2 4l135 211h-237v51l156 60v1214h-838v-534h385l94 186h53v-479h-53l-92 182h-387v-569
l156 -60v-51h-582v51l156 60v1212l-156 59v52h2019l62 -400h-56z" />
    <glyph glyph-name="uni0046021A.liga" unicode="F&#x21a;" horiz-adv-x="2129" 
d="M1841 1325h-268v-1214l156 -60v-51h-582v51l156 60v1214h-838v-534h385l94 186h53v-479h-53l-92 182h-387v-569l156 -60v-51h-582v51l156 60v1212l-156 59v52h2019l62 -400h-56zM1507 -72q53 -50 71.5 -114t2.5 -125t-75.5 -114t-153.5 -79l-45 33q53 49 47 153t-68 166
v2z" />
    <glyph glyph-name="H_E.liga" unicode="HE" horiz-adv-x="2222" 
d="M2120 395h53l-57 -395h-1182v51l153 60v569h-622v-569l156 -60v-51h-582v51l156 60v1212l-156 59v52h582v-52l-156 -59v-532h622v532l-153 59v52h1165v-383h-53l-164 274h-524v-534h364l97 186h53v-479h-53l-95 182h-366v-571h553z" />
    <glyph glyph-name="H_Eacute.liga" unicode="H&#xc9;" horiz-adv-x="2222" 
d="M1997 1712l-604 -186l-41 49l344 332h4l297 -185v-10zM2120 395h53l-57 -395h-1182v51l153 60v569h-622v-569l156 -60v-51h-582v51l156 60v1212l-156 59v52h582v-52l-156 -59v-532h622v532l-153 59v52h1165v-383h-53l-164 274h-524v-534h364l97 186h53v-479h-53l-95 182
h-366v-571h553z" />
    <glyph glyph-name="H_Ebreve.liga" unicode="H&#x114;" horiz-adv-x="2222" 
d="M1579 1536q-60 0 -113 18t-99 55.5t-72.5 105.5t-26.5 159l71 2q25 -57 90.5 -99t149.5 -42t149.5 42t92.5 99l71 -2q0 -91 -26.5 -159t-72.5 -106t-99.5 -55.5t-114.5 -17.5zM2120 395h53l-57 -395h-1182v51l153 60v569h-622v-569l156 -60v-51h-582v51l156 60v1212
l-156 59v52h582v-52l-156 -59v-532h622v532l-153 59v52h1165v-383h-53l-164 274h-524v-534h364l97 186h53v-479h-53l-95 182h-366v-571h553z" />
    <glyph glyph-name="H_Ecaron.liga" unicode="H&#x11a;" horiz-adv-x="2222" 
d="M1434 1546l-224 322l50 39l327 -178l316 178l49 -37l-223 -324h-295zM2120 395h53l-57 -395h-1182v51l153 60v569h-622v-569l156 -60v-51h-582v51l156 60v1212l-156 59v52h582v-52l-156 -59v-532h622v532l-153 59v52h1165v-383h-53l-164 274h-524v-534h364l97 186h53
v-479h-53l-95 182h-366v-571h553z" />
    <glyph glyph-name="H_Ecircumflex.liga" unicode="H&#xca;" horiz-adv-x="2222" 
d="M1569 1704l-316 -178l-49 37l226 323h294l222 -321l-50 -39zM2120 395h53l-57 -395h-1182v51l153 60v569h-622v-569l156 -60v-51h-582v51l156 60v1212l-156 59v52h582v-52l-156 -59v-532h622v532l-153 59v52h1165v-383h-53l-164 274h-524v-534h364l97 186h53v-479h-53
l-95 182h-366v-571h553z" />
    <glyph glyph-name="H_Edieresis.liga" unicode="H&#xcb;" horiz-adv-x="2222" 
d="M1368 1579q-68 0 -114 45t-46 109t46 108.5t114 44.5q67 0 113.5 -45t46.5 -108t-46.5 -108.5t-113.5 -45.5zM1790 1579q-67 0 -113.5 45.5t-46.5 108.5t46.5 108t113.5 45q68 0 114 -44.5t46 -108.5t-46 -109t-114 -45zM2120 395h53l-57 -395h-1182v51l153 60v569h-622
v-569l156 -60v-51h-582v51l156 60v1212l-156 59v52h582v-52l-156 -59v-532h622v532l-153 59v52h1165v-383h-53l-164 274h-524v-534h364l97 186h53v-479h-53l-95 182h-366v-571h553z" />
    <glyph glyph-name="H_Edotaccent.liga" unicode="H&#x116;" horiz-adv-x="2222" 
d="M1579 1571q-73 0 -120.5 47.5t-47.5 114.5t47 114t121 47q75 0 122.5 -46.5t47.5 -114.5t-47.5 -115t-122.5 -47zM2120 395h53l-57 -395h-1182v51l153 60v569h-622v-569l156 -60v-51h-582v51l156 60v1212l-156 59v52h582v-52l-156 -59v-532h622v532l-153 59v52h1165v-383
h-53l-164 274h-524v-534h364l97 186h53v-479h-53l-95 182h-366v-571h553z" />
    <glyph glyph-name="H_Egrave.liga" unicode="H&#xc8;" horiz-adv-x="2222" 
d="M1792 1581l-33 -55l-575 160v8l241 213h5zM2120 395h53l-57 -395h-1182v51l153 60v569h-622v-569l156 -60v-51h-582v51l156 60v1212l-156 59v52h582v-52l-156 -59v-532h622v532l-153 59v52h1165v-383h-53l-164 274h-524v-534h364l97 186h53v-479h-53l-95 182h-366v-571
h553z" />
    <glyph glyph-name="H_Emacron.liga" unicode="H&#x112;" horiz-adv-x="2222" 
d="M1866 1786v-164h-572v164h572zM2120 395h53l-57 -395h-1182v51l153 60v569h-622v-569l156 -60v-51h-582v51l156 60v1212l-156 59v52h582v-52l-156 -59v-532h622v532l-153 59v52h1165v-383h-53l-164 274h-524v-534h364l97 186h53v-479h-53l-95 182h-366v-571h553z" />
    <glyph glyph-name="H_Eogonek.liga" unicode="H&#x118;" horiz-adv-x="2222" 
d="M2028 -270q0 -67 45 -99.5t108 -13.5v-61q-53 -32 -120.5 -40t-126 7.5t-98.5 59t-40 106.5q0 40 14.5 77.5t32 64t55.5 61.5t61 53t73 55h-1098v51l153 60v569h-622v-569l156 -60v-51h-582v51l156 60v1212l-156 59v52h582v-52l-156 -59v-532h622v532l-153 59v52h1165
v-383h-53l-164 274h-524v-534h364l97 186h53v-479h-53l-95 182h-366v-571h553l209 286h53l-57 -395q-88 -146 -88 -270z" />
    <glyph glyph-name="H_H.liga" unicode="HH" horiz-adv-x="2447" 
d="M2408 1382l-155 -59v-1212l155 -60v-51h-581v51l155 60v569h-624v-569l155 -60v-51h-579v51l153 60v569h-622v-569l156 -60v-51h-582v51l156 60v1212l-156 59v52h582v-52l-156 -59v-532h622v532l-153 59v52h579v-52l-155 -59v-532h624v532l-155 59v52h581v-52z" />
    <glyph glyph-name="H_L.liga" unicode="HL" horiz-adv-x="2119" 
d="M2032 395h53l-57 -395h-1094v51l153 60v569h-622v-569l156 -60v-51h-582v51l156 60v1212l-156 59v52h582v-52l-156 -59v-532h622v532l-153 59v52h579v-52l-155 -59v-1214h461z" />
    <glyph glyph-name="H_Lacute.liga" unicode="H&#x139;" horiz-adv-x="2119" 
d="M1638 1712l-604 -186l-41 49l344 332h4l297 -185v-10zM2032 395h53l-57 -395h-1094v51l153 60v569h-622v-569l156 -60v-51h-582v51l156 60v1212l-156 59v52h582v-52l-156 -59v-532h622v532l-153 59v52h579v-52l-155 -59v-1214h461z" />
    <glyph glyph-name="H_Lcaron.liga" unicode="H&#x13d;" horiz-adv-x="2119" 
d="M1597 995q28 50 39 97t-3 119t-62 153v4l203 78q66 -80 78.5 -169t-40.5 -173t-170 -133zM2032 395h53l-57 -395h-1094v51l153 60v569h-622v-569l156 -60v-51h-582v51l156 60v1212l-156 59v52h582v-52l-156 -59v-532h622v532l-153 59v52h579v-52l-155 -59v-1214h461z" />
    <glyph glyph-name="H_Lcommaaccent.liga" unicode="H&#x13b;" horiz-adv-x="2119" 
d="M2032 395h53l-57 -395h-1094v51l153 60v569h-622v-569l156 -60v-51h-582v51l156 60v1212l-156 59v52h582v-52l-156 -59v-532h622v532l-153 59v52h579v-52l-155 -59v-1214h461zM1559 -72q53 -50 71.5 -114t2.5 -125t-76 -114t-154 -79l-45 33q53 49 47 153t-68 166v2z" />
    <glyph glyph-name="H_Ldot.liga" unicode="H&#x13f;" horiz-adv-x="2119" 
d="M2032 395h53l-57 -395h-1094v51l153 60v569h-622v-569l156 -60v-51h-582v51l156 60v1212l-156 59v52h582v-52l-156 -59v-532h622v532l-153 59v52h579v-52l-155 -59v-1214h461zM1837 561q-75 0 -128.5 53t-51.5 125q0 73 53 126t127 53q73 0 124.5 -53t51.5 -126
t-51.5 -125.5t-124.5 -52.5z" />
    <glyph glyph-name="H_R.liga" unicode="HR" horiz-adv-x="2279" 
d="M2132 106l137 -55v-51h-391l-426 668h-94v-557l155 -60v-51h-579v51l153 60v569h-622v-569l156 -60v-51h-582v51l156 60v1212l-156 59v52h582v-52l-156 -59v-532h622v532l-153 59v52h655q234 8 372 -83t138 -259q0 -128 -93 -238t-255 -154zM1358 1325v-549h94
q186 6 272 87.5t86 197.5q0 101 -77 182.5t-201 81.5h-174z" />
    <glyph glyph-name="H_Racute.liga" unicode="H&#x154;" horiz-adv-x="2279" 
d="M1950 1712l-604 -186l-41 49l344 332h4l297 -185v-10zM2132 106l137 -55v-51h-391l-426 668h-94v-557l155 -60v-51h-579v51l153 60v569h-622v-569l156 -60v-51h-582v51l156 60v1212l-156 59v52h582v-52l-156 -59v-532h622v532l-153 59v52h655q234 8 372 -83t138 -259
q0 -128 -93 -238t-255 -154zM1358 1325v-549h94q186 6 272 87.5t86 197.5q0 101 -77 182.5t-201 81.5h-174z" />
    <glyph glyph-name="H_Rcaron.liga" unicode="H&#x158;" horiz-adv-x="2279" 
d="M1386 1546l-223 322l49 39l328 -178l315 178l50 -37l-224 -324h-295zM2132 106l137 -55v-51h-391l-426 668h-94v-557l155 -60v-51h-579v51l153 60v569h-622v-569l156 -60v-51h-582v51l156 60v1212l-156 59v52h582v-52l-156 -59v-532h622v532l-153 59v52h655
q234 8 372 -83t138 -259q0 -128 -93 -238t-255 -154zM1358 1325v-549h94q186 6 272 87.5t86 197.5q0 101 -77 182.5t-201 81.5h-174z" />
    <glyph glyph-name="H_Rcommaaccent.liga" unicode="H&#x156;" horiz-adv-x="2279" 
d="M2132 106l137 -55v-51h-391l-426 668h-94v-557l155 -60v-51h-579v51l153 60v569h-622v-569l156 -60v-51h-582v51l156 60v1212l-156 59v52h582v-52l-156 -59v-532h622v532l-153 59v52h655q234 8 372 -83t138 -259q0 -128 -93 -238t-255 -154zM1358 1325v-549h94
q186 6 272 87.5t86 197.5q0 101 -77 182.5t-201 81.5h-174zM1683 -72q53 -50 71.5 -114t2.5 -125t-75.5 -114t-153.5 -79l-45 33q53 49 47 153t-68 166v2z" />
    <glyph glyph-name="H_U.liga" unicode="HU" horiz-adv-x="2396" 
d="M2351 1434v-52l-133 -82v-829q0 -122 -44 -218.5t-121 -156t-174.5 -90.5t-209.5 -31q-90 0 -171 15.5t-157.5 52.5t-131.5 93t-88.5 143t-33.5 196v205h-622v-569l156 -60v-51h-582v51l156 60v1212l-156 59v52h582v-52l-156 -59v-532h622v532l-153 59v52h579v-52
l-155 -59v-807q0 -84 25 -152.5t65 -111.5t92.5 -72t105 -41t105.5 -12q93 0 172.5 41.5t130.5 127t51 198.5v806l-182 82v52h428z" />
    <glyph glyph-name="H_U_M.liga" unicode="HUM" horiz-adv-x="3784" 
d="M3746 1382l-156 -59v-1212l156 -60v-51h-580v51l154 60v1151l-496 -1262h-53l-553 1253v-782q0 -122 -44 -218.5t-121 -156t-174.5 -90.5t-209.5 -31q-90 0 -171 15.5t-157.5 52.5t-131.5 93t-88.5 143t-33.5 196v205h-622v-569l156 -60v-51h-582v51l156 60v1212l-156 59
v52h582v-52l-156 -59v-532h622v532l-153 59v52h579v-52l-155 -59v-807q0 -84 25 -152.5t65 -111.5t92.5 -72t105 -41t105.5 -12q93 0 172.5 41.5t130.5 127t51 198.5v806l-182 82v52h510l442 -1002l394 1002h477v-52z" />
    <glyph glyph-name="H_Uacute.liga" unicode="H&#xda;" horiz-adv-x="2396" 
d="M2128 1712l-604 -186l-41 49l344 332h4l297 -185v-10zM2351 1434v-52l-133 -82v-829q0 -122 -44 -218.5t-121 -156t-174.5 -90.5t-209.5 -31q-90 0 -171 15.5t-157.5 52.5t-131.5 93t-88.5 143t-33.5 196v205h-622v-569l156 -60v-51h-582v51l156 60v1212l-156 59v52h582
v-52l-156 -59v-532h622v532l-153 59v52h579v-52l-155 -59v-807q0 -84 25 -152.5t65 -111.5t92.5 -72t105 -41t105.5 -12q93 0 172.5 41.5t130.5 127t51 198.5v806l-182 82v52h428z" />
    <glyph glyph-name="H_Ubreve.liga" unicode="H&#x16c;" horiz-adv-x="2396" 
d="M1710 1536q-60 0 -113 18t-99 55.5t-72.5 105.5t-26.5 159l71 2q25 -57 90.5 -99t149.5 -42t149.5 42t92.5 99l71 -2q0 -91 -26.5 -159t-72.5 -106t-99.5 -55.5t-114.5 -17.5zM2351 1434v-52l-133 -82v-829q0 -122 -44 -218.5t-121 -156t-174.5 -90.5t-209.5 -31
q-90 0 -171 15.5t-157.5 52.5t-131.5 93t-88.5 143t-33.5 196v205h-622v-569l156 -60v-51h-582v51l156 60v1212l-156 59v52h582v-52l-156 -59v-532h622v532l-153 59v52h579v-52l-155 -59v-807q0 -84 25 -152.5t65 -111.5t92.5 -72t105 -41t105.5 -12q93 0 172.5 41.5
t130.5 127t51 198.5v806l-182 82v52h428z" />
    <glyph glyph-name="H_Ucircumflex.liga" unicode="H&#xdb;" horiz-adv-x="2396" 
d="M1700 1704l-316 -178l-49 37l226 323h294l222 -321l-49 -39zM2351 1434v-52l-133 -82v-829q0 -122 -44 -218.5t-121 -156t-174.5 -90.5t-209.5 -31q-90 0 -171 15.5t-157.5 52.5t-131.5 93t-88.5 143t-33.5 196v205h-622v-569l156 -60v-51h-582v51l156 60v1212l-156 59
v52h582v-52l-156 -59v-532h622v532l-153 59v52h579v-52l-155 -59v-807q0 -84 25 -152.5t65 -111.5t92.5 -72t105 -41t105.5 -12q93 0 172.5 41.5t130.5 127t51 198.5v806l-182 82v52h428z" />
    <glyph glyph-name="H_Udieresis.liga" unicode="H&#xdc;" horiz-adv-x="2396" 
d="M1501 1579q-68 0 -114 45t-46 109t46 108.5t114 44.5q67 0 113.5 -45t46.5 -108t-46.5 -108.5t-113.5 -45.5zM1923 1579q-67 0 -113.5 45.5t-46.5 108.5t46.5 108t113.5 45q68 0 114 -44.5t46 -108.5t-46 -109t-114 -45zM2351 1434v-52l-133 -82v-829q0 -122 -44 -218.5
t-121 -156t-174.5 -90.5t-209.5 -31q-90 0 -171 15.5t-157.5 52.5t-131.5 93t-88.5 143t-33.5 196v205h-622v-569l156 -60v-51h-582v51l156 60v1212l-156 59v52h582v-52l-156 -59v-532h622v532l-153 59v52h579v-52l-155 -59v-807q0 -84 25 -152.5t65 -111.5t92.5 -72
t105 -41t105.5 -12q93 0 172.5 41.5t130.5 127t51 198.5v806l-182 82v52h428z" />
    <glyph glyph-name="H_Ugrave.liga" unicode="H&#xd9;" horiz-adv-x="2396" 
d="M1923 1581l-33 -55l-575 160v8l241 213h5zM2351 1434v-52l-133 -82v-829q0 -122 -44 -218.5t-121 -156t-174.5 -90.5t-209.5 -31q-90 0 -171 15.5t-157.5 52.5t-131.5 93t-88.5 143t-33.5 196v205h-622v-569l156 -60v-51h-582v51l156 60v1212l-156 59v52h582v-52
l-156 -59v-532h622v532l-153 59v52h579v-52l-155 -59v-807q0 -84 25 -152.5t65 -111.5t92.5 -72t105 -41t105.5 -12q93 0 172.5 41.5t130.5 127t51 198.5v806l-182 82v52h428z" />
    <glyph glyph-name="H_Uhungarumlaut.liga" unicode="H&#x170;" horiz-adv-x="2396" 
d="M1868 1821l-463 -295l-49 35l164 342h4l344 -70v-12zM1798 1528l-51 41l264 334h4l320 -103v-10zM2351 1434v-52l-133 -82v-829q0 -122 -44 -218.5t-121 -156t-174.5 -90.5t-209.5 -31q-90 0 -171 15.5t-157.5 52.5t-131.5 93t-88.5 143t-33.5 196v205h-622v-569l156 -60
v-51h-582v51l156 60v1212l-156 59v52h582v-52l-156 -59v-532h622v532l-153 59v52h579v-52l-155 -59v-807q0 -84 25 -152.5t65 -111.5t92.5 -72t105 -41t105.5 -12q93 0 172.5 41.5t130.5 127t51 198.5v806l-182 82v52h428z" />
    <glyph glyph-name="H_Umacron.liga" unicode="H&#x16a;" horiz-adv-x="2396" 
d="M1997 1786v-164h-572v164h572zM2351 1434v-52l-133 -82v-829q0 -122 -44 -218.5t-121 -156t-174.5 -90.5t-209.5 -31q-90 0 -171 15.5t-157.5 52.5t-131.5 93t-88.5 143t-33.5 196v205h-622v-569l156 -60v-51h-582v51l156 60v1212l-156 59v52h582v-52l-156 -59v-532h622
v532l-153 59v52h579v-52l-155 -59v-807q0 -84 25 -152.5t65 -111.5t92.5 -72t105 -41t105.5 -12q93 0 172.5 41.5t130.5 127t51 198.5v806l-182 82v52h428z" />
    <glyph glyph-name="H_Uogonek.liga" unicode="H&#x172;" horiz-adv-x="2396" 
d="M2351 1434v-52l-133 -82v-829q0 -107 -34 -194.5t-94 -146.5t-139 -96t-173 -50q-76 -136 -76 -254q0 -67 45 -99.5t108 -13.5v-61q-53 -32 -120.5 -40t-126 7.5t-98.5 59t-40 106.5q0 36 13.5 71t30 59t52.5 56.5t57 49t67 50.5h-21q-90 0 -171 15.5t-157.5 52.5
t-131.5 93t-88.5 143t-33.5 196v205h-622v-569l156 -60v-51h-582v51l156 60v1212l-156 59v52h582v-52l-156 -59v-532h622v532l-153 59v52h579v-52l-155 -59v-807q0 -84 25 -152.5t65 -111.5t92.5 -72t105 -41t105.5 -12q93 0 172.5 41.5t130.5 127t51 198.5v806l-182 82v52
h428z" />
    <glyph glyph-name="H_Uring.liga" unicode="H&#x16e;" horiz-adv-x="2396" 
d="M1710 1495q-111 0 -181.5 55t-70.5 148q0 42 15 81.5t44 72.5t78.5 53t112.5 20q112 0 183 -54.5t71 -148.5q0 -92 -64 -159.5t-188 -67.5zM1608 1778q-21 -24 -21 -60q0 -51 37 -79.5t98 -28.5q44 0 86 28q25 29 25 64q0 52 -36 80t-97 28q-54 0 -92 -32zM2351 1434v-52
l-133 -82v-829q0 -122 -44 -218.5t-121 -156t-174.5 -90.5t-209.5 -31q-90 0 -171 15.5t-157.5 52.5t-131.5 93t-88.5 143t-33.5 196v205h-622v-569l156 -60v-51h-582v51l156 60v1212l-156 59v52h582v-52l-156 -59v-532h622v532l-153 59v52h579v-52l-155 -59v-807
q0 -84 25 -152.5t65 -111.5t92.5 -72t105 -41t105.5 -12q93 0 172.5 41.5t130.5 127t51 198.5v806l-182 82v52h428z" />
    <glyph glyph-name="H_Utilde.liga" unicode="H&#x168;" horiz-adv-x="2396" 
d="M1532 1673q-22 0 -39 -6t-31 -20.5t-21.5 -24t-20.5 -32.5t-17 -29l-64 20q29 135 90 214t148 79q47 0 96 -19t82.5 -42.5t72 -42.5t66.5 -19q21 0 38 6t30.5 20.5t21 24.5t20 32.5t17.5 29.5l64 -21q-29 -134 -91 -213.5t-147 -79.5q-47 0 -96 19t-83 42.5t-71.5 42.5
t-64.5 19zM2351 1434v-52l-133 -82v-829q0 -122 -44 -218.5t-121 -156t-174.5 -90.5t-209.5 -31q-90 0 -171 15.5t-157.5 52.5t-131.5 93t-88.5 143t-33.5 196v205h-622v-569l156 -60v-51h-582v51l156 60v1212l-156 59v52h582v-52l-156 -59v-532h622v532l-153 59v52h579v-52
l-155 -59v-807q0 -84 25 -152.5t65 -111.5t92.5 -72t105 -41t105.5 -12q93 0 172.5 41.5t130.5 127t51 198.5v806l-182 82v52h428z" />
    <glyph glyph-name="Hbar_E.liga" unicode="&#x126;E" horiz-adv-x="2222" 
d="M2120 395h53l-57 -395h-1182v51l153 60v569h-622v-569l156 -60v-51h-582v51l156 60v852h-207v110h207v250l-156 59v52h582v-52l-156 -59v-250h622v250l-153 59v52h1165v-383h-53l-164 274h-524v-252h190v-110h-190v-172h364l97 186h53v-479h-53l-95 182h-366v-571h553z
M465 791h622v172h-622v-172z" />
    <glyph glyph-name="Hbar_L.liga" unicode="&#x126;L" horiz-adv-x="2119" 
d="M2032 395h53l-57 -395h-1094v51l153 60v569h-622v-569l156 -60v-51h-582v51l156 60v852h-207v110h207v250l-156 59v52h582v-52l-156 -59v-250h622v250l-153 59v52h579v-52l-155 -59v-250h190v-110h-190v-854h461zM465 791h622v172h-622v-172z" />
    <glyph glyph-name="Hbar_R.liga" unicode="&#x126;R" horiz-adv-x="2279" 
d="M2132 106l137 -55v-51h-391l-426 668h-94v-557l155 -60v-51h-579v51l153 60v569h-622v-569l156 -60v-51h-582v51l156 60v852h-207v110h207v250l-156 59v52h582v-52l-156 -59v-250h622v250l-153 59v52h655q234 8 372 -83t138 -259q0 -128 -93 -238t-255 -154zM1358 963
v-187h94q186 6 272 87.5t86 197.5q0 101 -77 182.5t-201 81.5h-174v-252h190v-110h-190zM465 791h622v172h-622v-172z" />
    <glyph glyph-name="Hbar_U.liga" unicode="&#x126;U" horiz-adv-x="2396" 
d="M2351 1434v-52l-133 -82v-829q0 -122 -44 -218.5t-121 -156t-174.5 -90.5t-209.5 -31q-90 0 -171 15.5t-157.5 52.5t-131.5 93t-88.5 143t-33.5 196v205h-622v-569l156 -60v-51h-582v51l156 60v852h-207v110h207v250l-156 59v52h582v-52l-156 -59v-250h622v250l-153 59
v52h579v-52l-155 -59v-250h190v-110h-190v-447q0 -84 25 -152.5t65 -111.5t92.5 -72t105 -41t105.5 -12q93 0 172.5 41.5t130.5 127t51 198.5v806l-182 82v52h428zM465 791h622v172h-622v-172z" />
    <glyph glyph-name="Hcircumflex_E.liga" unicode="&#x124;E" horiz-adv-x="2222" 
d="M786 1704l-315 -178l-49 37l225 323h295l221 -321l-49 -39zM2120 395h53l-57 -395h-1182v51l153 60v569h-622v-569l156 -60v-51h-582v51l156 60v1212l-156 59v52h582v-52l-156 -59v-532h622v532l-153 59v52h1165v-383h-53l-164 274h-524v-534h364l97 186h53v-479h-53
l-95 182h-366v-571h553z" />
    <glyph glyph-name="Hcircumflex_L.liga" unicode="&#x124;L" horiz-adv-x="2119" 
d="M786 1704l-315 -178l-49 37l225 323h295l221 -321l-49 -39zM2032 395h53l-57 -395h-1094v51l153 60v569h-622v-569l156 -60v-51h-582v51l156 60v1212l-156 59v52h582v-52l-156 -59v-532h622v532l-153 59v52h579v-52l-155 -59v-1214h461z" />
    <glyph glyph-name="Hcircumflex_R.liga" unicode="&#x124;R" horiz-adv-x="2279" 
d="M786 1704l-315 -178l-49 37l225 323h295l221 -321l-49 -39zM2132 106l137 -55v-51h-391l-426 668h-94v-557l155 -60v-51h-579v51l153 60v569h-622v-569l156 -60v-51h-582v51l156 60v1212l-156 59v52h582v-52l-156 -59v-532h622v532l-153 59v52h655q234 8 372 -83
t138 -259q0 -128 -93 -238t-255 -154zM1358 1325v-549h94q186 6 272 87.5t86 197.5q0 101 -77 182.5t-201 81.5h-174z" />
    <glyph glyph-name="Hcircumflex_U.liga" unicode="&#x124;U" horiz-adv-x="2396" 
d="M786 1704l-315 -178l-49 37l225 323h295l221 -321l-49 -39zM2351 1434v-52l-133 -82v-829q0 -122 -44 -218.5t-121 -156t-174.5 -90.5t-209.5 -31q-90 0 -171 15.5t-157.5 52.5t-131.5 93t-88.5 143t-33.5 196v205h-622v-569l156 -60v-51h-582v51l156 60v1212l-156 59v52
h582v-52l-156 -59v-532h622v532l-153 59v52h579v-52l-155 -59v-807q0 -84 25 -152.5t65 -111.5t92.5 -72t105 -41t105.5 -12q93 0 172.5 41.5t130.5 127t51 198.5v806l-182 82v52h428z" />
    <glyph glyph-name="I_T.liga" unicode="IT" horiz-adv-x="1740" 
d="M1452 1325h-268v-1214l155 -60v-51h-581v51l155 60v1214h-378l-224 -291h-53l61 400h1350l62 -400h-54zM29 754v51h581v-51l-155 -60v-583l155 -60v-51h-581v51l155 60v583z" />
    <glyph glyph-name="I_T_H.liga" unicode="ITH" horiz-adv-x="3008" 
d="M1190 1325v-1214l156 -60v-51h-582v51l156 60v1214h-379l-224 -291h-53l62 400h1509l61 -400h-53l-223 291h-430zM2970 1382l-156 -59v-1212l156 -60v-51h-582v51l156 60v569h-625v-569l156 -60v-51h-580v51l154 60v680h895v532l-156 59v52h582v-52zM35 754v51h581v-51
l-155 -60v-583l155 -60v-51h-581v51l155 60v583z" />
    <glyph glyph-name="I_Tbar.liga" unicode="I&#x166;" horiz-adv-x="1740" 
d="M1452 1325h-268v-530h233v-111h-233v-573l155 -60v-51h-581v51l155 60v573h-233v111h233v530h-378l-224 -291h-53l61 400h1350l62 -400h-54zM29 754v51h581v-51l-155 -60v-583l155 -60v-51h-581v51l155 60v583z" />
    <glyph glyph-name="I_Tcaron.liga" unicode="I&#x164;" horiz-adv-x="1740" 
d="M901 1546l-223 322l49 39l328 -178l315 178l49 -37l-223 -324h-295zM1452 1325h-268v-1214l155 -60v-51h-581v51l155 60v1214h-378l-224 -291h-53l61 400h1350l62 -400h-54zM29 754v51h581v-51l-155 -60v-583l155 -60v-51h-581v51l155 60v583z" />
    <glyph glyph-name="uni00490162.liga" unicode="I&#x162;" horiz-adv-x="1740" 
d="M1452 1325h-268v-1214l155 -60v-51h-237l-55 -84q202 -54 202 -199q0 -74 -60.5 -128t-150 -69t-192.5 5v63q42 -2 70.5 1t54.5 12.5t38.5 31t12.5 54.5q0 67 -76 84l-84 14l-2 4l135 211h-237v51l155 60v1214h-378l-224 -291h-53l61 400h1350l62 -400h-54zM29 754v51
h581v-51l-155 -60v-583l155 -60v-51h-581v51l155 60v583z" />
    <glyph glyph-name="uni0049021A.liga" unicode="I&#x21a;" horiz-adv-x="1740" 
d="M1452 1325h-268v-1214l155 -60v-51h-581v51l155 60v1214h-378l-224 -291h-53l61 400h1350l62 -400h-54zM29 754v51h581v-51l-155 -60v-583l155 -60v-51h-581v51l155 60v583zM1118 -72q53 -50 71.5 -114t2.5 -125t-75.5 -114t-153.5 -79l-45 33q53 49 47 153t-68 166v2z
" />
    <glyph glyph-name="Iogonek_T.liga" unicode="&#x12e;T" horiz-adv-x="1740" 
d="M1452 1325h-268v-1214l155 -60v-51h-581v51l155 60v1214h-378l-224 -291h-53l61 400h1350l62 -400h-54zM29 754v51h581v-51l-155 -60v-583l155 -60v-51h-145q-88 -146 -88 -270q0 -67 45 -99.5t108 -13.5v-61q-53 -32 -120.5 -40t-126 7.5t-98.5 59t-40 106.5
q0 40 14.5 77.5t32 64t55.5 61.5t61 53t73 55h-352v51l155 60v583z" />
    <glyph glyph-name="K_A.liga" unicode="KA" horiz-adv-x="2770" 
d="M2630 104l131 -53v-51h-602v51l176 53l-170 410h-537l-155 -387l202 -76v-51h-649l-453 694l-108 -102v-481l156 -60v-51h-582v51l156 60v1212l-156 59v52h582v-52l-156 -59v-584l622 578l-180 65v52h502v-52l-168 -71l-465 -430l514 -791l56 27l540 1317h193zM1673 625
h447l-226 544z" />
    <glyph glyph-name="K_Aacute.liga" unicode="K&#xc1;" horiz-adv-x="2770" 
d="M2392 1712l-604 -186l-41 49l344 332h4l297 -185v-10zM2630 104l131 -53v-51h-602v51l176 53l-170 410h-537l-155 -387l202 -76v-51h-649l-453 694l-108 -102v-481l156 -60v-51h-582v51l156 60v1212l-156 59v52h582v-52l-156 -59v-584l622 578l-180 65v52h502v-52
l-168 -71l-465 -430l514 -791l56 27l540 1317h193zM1673 625h447l-226 544z" />
    <glyph glyph-name="K_Abreve.liga" unicode="K&#x102;" horiz-adv-x="2770" 
d="M1974 1536q-60 0 -113 18t-99 55.5t-72.5 105.5t-26.5 159l72 2q25 -57 90 -99t149 -42t149.5 42t92.5 99l72 -2q0 -91 -27 -159t-73 -106t-99.5 -55.5t-114.5 -17.5zM2630 104l131 -53v-51h-602v51l176 53l-170 410h-537l-155 -387l202 -76v-51h-649l-453 694l-108 -102
v-481l156 -60v-51h-582v51l156 60v1212l-156 59v52h582v-52l-156 -59v-584l622 578l-180 65v52h502v-52l-168 -71l-465 -430l514 -791l56 27l540 1317h193zM1673 625h447l-226 544z" />
    <glyph glyph-name="K_Acircumflex.liga" unicode="K&#xc2;" horiz-adv-x="2770" 
d="M1964 1704l-315 -178l-50 37l226 323h295l221 -321l-49 -39zM2630 104l131 -53v-51h-602v51l176 53l-170 410h-537l-155 -387l202 -76v-51h-649l-453 694l-108 -102v-481l156 -60v-51h-582v51l156 60v1212l-156 59v52h582v-52l-156 -59v-584l622 578l-180 65v52h502v-52
l-168 -71l-465 -430l514 -791l56 27l540 1317h193zM1673 625h447l-226 544z" />
    <glyph glyph-name="K_Adieresis.liga" unicode="K&#xc4;" horiz-adv-x="2770" 
d="M1763 1579q-68 0 -113.5 45t-45.5 109t45.5 108.5t113.5 44.5q67 0 113.5 -45t46.5 -108t-46.5 -108.5t-113.5 -45.5zM2185 1579q-67 0 -113.5 45.5t-46.5 108.5t46.5 108t113.5 45q68 0 114 -44.5t46 -108.5t-46 -109t-114 -45zM2630 104l131 -53v-51h-602v51l176 53
l-170 410h-537l-155 -387l202 -76v-51h-649l-453 694l-108 -102v-481l156 -60v-51h-582v51l156 60v1212l-156 59v52h582v-52l-156 -59v-584l622 578l-180 65v52h502v-52l-168 -71l-465 -430l514 -791l56 27l540 1317h193zM1673 625h447l-226 544z" />
    <glyph glyph-name="K_Agrave.liga" unicode="K&#xc0;" horiz-adv-x="2770" 
d="M2187 1581l-33 -55l-575 160v8l242 213h4zM2630 104l131 -53v-51h-602v51l176 53l-170 410h-537l-155 -387l202 -76v-51h-649l-453 694l-108 -102v-481l156 -60v-51h-582v51l156 60v1212l-156 59v52h582v-52l-156 -59v-584l622 578l-180 65v52h502v-52l-168 -71
l-465 -430l514 -791l56 27l540 1317h193zM1673 625h447l-226 544z" />
    <glyph glyph-name="K_Amacron.liga" unicode="K&#x100;" horiz-adv-x="2770" 
d="M2261 1786v-164h-571v164h571zM2630 104l131 -53v-51h-602v51l176 53l-170 410h-537l-155 -387l202 -76v-51h-649l-453 694l-108 -102v-481l156 -60v-51h-582v51l156 60v1212l-156 59v52h582v-52l-156 -59v-584l622 578l-180 65v52h502v-52l-168 -71l-465 -430l514 -791
l56 27l540 1317h193zM1673 625h447l-226 544z" />
    <glyph glyph-name="K_Aogonek.liga" unicode="K&#x104;" horiz-adv-x="2770" 
d="M2630 104l131 -53v-51h-197q-88 -146 -88 -270q0 -67 45 -99.5t109 -13.5v-61q-53 -32 -120.5 -40t-126 7.5t-98.5 59t-40 106.5q0 40 14.5 77.5t32 64t55 61.5t61 53.5t72.5 54.5h-321v51l176 53l-170 410h-537l-155 -387l202 -76v-51h-649l-453 694l-108 -102v-481
l156 -60v-51h-582v51l156 60v1212l-156 59v52h582v-52l-156 -59v-584l622 578l-180 65v52h502v-52l-168 -71l-465 -430l514 -791l56 27l540 1317h193zM1673 625h447l-226 544z" />
    <glyph glyph-name="K_Aring.liga" unicode="K&#xc5;" horiz-adv-x="2770" 
d="M1974 1495q-111 0 -181.5 55t-70.5 148q0 42 15 81.5t44 72.5t78.5 53t112.5 20q112 0 183 -54.5t71 -148.5q0 -92 -64 -159.5t-188 -67.5zM1872 1778q-21 -24 -21 -60q0 -51 37 -79.5t99 -28.5q44 0 86 28q24 27 24 64q0 52 -36 80t-97 28q-54 0 -92 -32zM2630 104
l131 -53v-51h-602v51l176 53l-170 410h-537l-155 -387l202 -76v-51h-649l-453 694l-108 -102v-481l156 -60v-51h-582v51l156 60v1212l-156 59v52h582v-52l-156 -59v-584l622 578l-180 65v52h502v-52l-168 -71l-465 -430l514 -791l56 27l540 1317h193zM1673 625h447l-226 544
z" />
    <glyph glyph-name="K_Atilde.liga" unicode="K&#xc3;" horiz-adv-x="2770" 
d="M1796 1673q-22 0 -39 -6t-31 -20.5t-21.5 -24t-20.5 -32.5t-17 -29l-63 20q29 135 89.5 214t147.5 79q47 0 96 -19t83 -42.5t72.5 -42.5t66.5 -19q21 0 38 6t30.5 20.5t21 24.5t20 32.5t17.5 29.5l63 -21q-29 -134 -91 -213.5t-147 -79.5q-47 0 -96 19t-83 42.5
t-71.5 42.5t-64.5 19zM2630 104l131 -53v-51h-602v51l176 53l-170 410h-537l-155 -387l202 -76v-51h-649l-453 694l-108 -102v-481l156 -60v-51h-582v51l156 60v1212l-156 59v52h582v-52l-156 -59v-584l622 578l-180 65v52h502v-52l-168 -71l-465 -430l514 -791l56 27
l540 1317h193zM1673 625h447l-226 544z" />
    <glyph glyph-name="K_I.liga" unicode="KI" horiz-adv-x="1953" 
d="M1894 1382l-153 -59v-598l153 -59v-52h-579v52l155 59v598l-106 41l-123 -53l-465 -430l225 -351q130 -202 255.5 -298t262 -91.5t289.5 115.5l43 -41q-65 -90 -160 -150.5t-208 -79.5t-227 3t-227 103t-200 214l-256 389l-108 -102v-481l156 -60v-51h-582v51l156 60
v1212l-156 59v52h582v-52l-156 -59v-584l622 578l-180 65v52h987v-52z" />
    <glyph glyph-name="K_Iacute.liga" unicode="K&#xcd;" horiz-adv-x="1953" 
d="M1722 1907l297 -185v-10l-604 -186l-41 49l344 332h4zM1894 1434v-52l-153 -59v-598l153 -59v-52h-579v52l155 59v598l-106 41l-123 -53l-465 -430l225 -351q130 -202 255.5 -298t262 -91.5t289.5 115.5l43 -41q-65 -90 -160 -150.5t-208 -79.5t-227 3t-227 103t-200 214
l-256 389l-108 -102v-481l156 -60v-51h-582v51l156 60v1212l-156 59v52h582v-52l-156 -59v-584l622 578l-180 65v52h987z" />
    <glyph glyph-name="K_Ibreve.liga" unicode="K&#x12c;" horiz-adv-x="1953" 
d="M1602 1536q-48 0 -91 10.5t-84 35.5t-71 63t-48 96.5t-18 132.5l72 2q25 -57 90.5 -99t149.5 -42t149 42t92 99l72 -2q0 -91 -26.5 -159t-72.5 -106t-99.5 -55.5t-114.5 -17.5zM1894 1434v-52l-153 -59v-598l153 -59v-52h-579v52l155 59v598l-106 41l-123 -53l-465 -430
l225 -351q130 -202 255.5 -298t262 -91.5t289.5 115.5l43 -41q-65 -90 -160 -150.5t-208 -79.5t-227 3t-227 103t-200 214l-256 389l-108 -102v-481l156 -60v-51h-582v51l156 60v1212l-156 59v52h582v-52l-156 -59v-584l622 578l-180 65v52h987z" />
    <glyph glyph-name="K_Icircumflex.liga" unicode="K&#xce;" horiz-adv-x="1953" 
d="M1747 1886l221 -321l-49 -39l-328 178l-315 -178l-49 37l225 323h295zM1894 1434v-52l-153 -59v-598l153 -59v-52h-579v52l155 59v598l-106 41l-123 -53l-465 -430l225 -351q130 -202 255.5 -298t262 -91.5t289.5 115.5l43 -41q-65 -90 -160 -150.5t-208 -79.5t-227 3
t-227 103t-200 214l-256 389l-108 -102v-481l156 -60v-51h-582v51l156 60v1212l-156 59v52h582v-52l-156 -59v-584l622 578l-180 65v52h987z" />
    <glyph glyph-name="K_Idieresis.liga" unicode="K&#xcf;" horiz-adv-x="1953" 
d="M1393 1579q-68 0 -114 45t-46 109t46 108.5t114 44.5q67 0 113 -45t46 -108q0 -64 -46 -109t-113 -45zM1815 1886q68 0 113.5 -44.5t45.5 -108.5t-45.5 -109t-113.5 -45q-67 0 -113.5 45.5t-46.5 108.5t46.5 108t113.5 45zM1894 1434v-52l-153 -59v-598l153 -59v-52h-579
v52l155 59v598l-106 41l-123 -53l-465 -430l225 -351q130 -202 255.5 -298t262 -91.5t289.5 115.5l43 -41q-65 -90 -160 -150.5t-208 -79.5t-227 3t-227 103t-200 214l-256 389l-108 -102v-481l156 -60v-51h-582v51l156 60v1212l-156 59v52h582v-52l-156 -59v-584l622 578
l-180 65v52h987z" />
    <glyph glyph-name="K_Idotaccent.liga" unicode="K&#x130;" horiz-adv-x="1953" 
d="M1604 1571q-74 0 -121 47.5t-47 114.5t47 114t121 47q75 0 122.5 -46.5t47.5 -114.5t-47.5 -115t-122.5 -47zM1894 1382l-153 -59v-598l153 -59v-52h-579v52l155 59v598l-106 41l-123 -53l-465 -430l225 -351q130 -202 255.5 -298t262 -91.5t289.5 115.5l43 -41
q-65 -90 -160 -150.5t-208 -79.5t-227 3t-227 103t-200 214l-256 389l-108 -102v-481l156 -60v-51h-582v51l156 60v1212l-156 59v52h582v-52l-156 -59v-584l622 578l-180 65v52h987v-52z" />
    <glyph glyph-name="K_Igrave.liga" unicode="K&#xcc;" horiz-adv-x="1953" 
d="M1815 1581l-33 -55l-576 160v8l242 213h4zM1894 1382l-153 -59v-598l153 -59v-52h-579v52l155 59v598l-106 41l-123 -53l-465 -430l225 -351q130 -202 255.5 -298t262 -91.5t289.5 115.5l43 -41q-65 -90 -160 -150.5t-208 -79.5t-227 3t-227 103t-200 214l-256 389
l-108 -102v-481l156 -60v-51h-582v51l156 60v1212l-156 59v52h582v-52l-156 -59v-584l622 578l-180 65v52h987v-52z" />
    <glyph glyph-name="K_Imacron.liga" unicode="K&#x12a;" horiz-adv-x="1953" 
d="M1888 1786v-164h-571v164h571zM1894 1382l-153 -59v-598l153 -59v-52h-579v52l155 59v598l-106 41l-123 -53l-465 -430l225 -351q130 -202 255.5 -298t262 -91.5t289.5 115.5l43 -41q-65 -90 -160 -150.5t-208 -79.5t-227 3t-227 103t-200 214l-256 389l-108 -102v-481
l156 -60v-51h-582v51l156 60v1212l-156 59v52h582v-52l-156 -59v-584l622 578l-180 65v52h987v-52z" />
    <glyph glyph-name="K_Itilde.liga" unicode="K&#x128;" horiz-adv-x="1953" 
d="M1423 1673q-22 0 -39 -6t-31 -20.5t-21.5 -24t-20.5 -32.5t-17 -29l-63 20q29 135 89.5 214t147.5 79q47 0 96 -19t83 -42.5t72.5 -42.5t66.5 -19q21 0 38 6t30.5 20.5t21 24.5t20 32.5t17.5 29.5l63 -21q-29 -135 -90.5 -214t-146.5 -79q-59 0 -121 31t-112 61.5
t-83 30.5zM1894 1434v-52l-153 -59v-598l153 -59v-52h-579v52l155 59v598l-106 41l-123 -53l-465 -430l225 -351q130 -202 255.5 -298t262 -91.5t289.5 115.5l43 -41q-65 -90 -160 -150.5t-208 -79.5t-227 3t-227 103t-200 214l-256 389l-108 -102v-481l156 -60v-51h-582v51
l156 60v1212l-156 59v52h582v-52l-156 -59v-584l622 578l-180 65v52h987z" />
    <glyph glyph-name="K_T.liga" unicode="KT" horiz-adv-x="2506" 
d="M2220 1325h-268v-1214l153 -60v-51h-579v51l155 60v1214h-407l-33 -14l-465 -430l508 -781l143 -49v-51h-401l-453 694l-108 -102v-481l156 -60v-51h-582v51l156 60v1212l-156 59v52h582v-52l-156 -59v-584l622 578l-180 65v52h1528l62 -400h-54z" />
    <glyph glyph-name="K_Tbar.liga" unicode="K&#x166;" horiz-adv-x="2506" 
d="M2220 1325h-268v-530h231v-111h-231v-573l153 -60v-51h-579v51l155 60v573h-233v111h233v530h-407l-33 -14l-465 -430l508 -781l143 -49v-51h-401l-453 694l-108 -102v-481l156 -60v-51h-582v51l156 60v1212l-156 59v52h582v-52l-156 -59v-584l622 578l-180 65v52h1528
l62 -400h-54z" />
    <glyph glyph-name="K_Tcaron.liga" unicode="K&#x164;" horiz-adv-x="2506" 
d="M1667 1546l-223 322l49 39l328 -178l315 178l49 -37l-223 -324h-295zM2220 1325h-268v-1214l153 -60v-51h-579v51l155 60v1214h-407l-33 -14l-465 -430l508 -781l143 -49v-51h-401l-453 694l-108 -102v-481l156 -60v-51h-582v51l156 60v1212l-156 59v52h582v-52l-156 -59
v-584l622 578l-180 65v52h1528l62 -400h-54z" />
    <glyph glyph-name="uni004B0162.liga" unicode="K&#x162;" horiz-adv-x="2506" 
d="M2220 1325h-268v-1214l153 -60v-51h-235l-55 -84q202 -54 202 -199q0 -74 -60.5 -128t-150 -69t-192.5 5v63q42 -2 70.5 1t54.5 12.5t38.5 31t12.5 54.5q0 67 -76 84l-84 14l-2 4l135 211h-237v51l155 60v1214h-407l-33 -14l-465 -430l508 -781l143 -49v-51h-401
l-453 694l-108 -102v-481l156 -60v-51h-582v51l156 60v1212l-156 59v52h582v-52l-156 -59v-584l622 578l-180 65v52h1528l62 -400h-54z" />
    <glyph glyph-name="uni004B021A.liga" unicode="K&#x21a;" horiz-adv-x="2506" 
d="M2220 1325h-268v-1214l153 -60v-51h-579v51l155 60v1214h-407l-33 -14l-465 -430l508 -781l143 -49v-51h-401l-453 694l-108 -102v-481l156 -60v-51h-582v51l156 60v1212l-156 59v52h582v-52l-156 -59v-584l622 578l-180 65v52h1528l62 -400h-54zM1886 -72
q53 -50 71.5 -114t2.5 -125t-75.5 -114t-153.5 -79l-45 33q53 49 47 153t-68 166v2z" />
    <glyph glyph-name="K_V.liga" unicode="KV" horiz-adv-x="2824" 
d="M2824 1434v-52l-145 -82l-520 -1300h-193l-532 1319l-82 39l-111 -47l-465 -430l508 -781l143 -49v-51h-401l-453 694l-108 -102v-481l156 -60v-51h-582v51l156 60v1212l-156 59v52h582v-52l-156 -59v-584l622 578l-180 65v52h1035v-52l-218 -61l426 -1055l408 1032
l-242 84v52h508z" />
    <glyph glyph-name="K_V_A.liga" unicode="KVA" horiz-adv-x="3502" 
d="M3361 104l131 -53v-51h-602v51l178 53l-170 410h-535l-204 -514h-193l-532 1319l-82 39l-111 -47l-465 -430l508 -781l143 -49v-51h-401l-453 694l-108 -102v-481l156 -60v-51h-582v51l156 60v1212l-156 59v52h582v-52l-156 -59v-584l622 578l-180 65v52h1035v-52
l-218 -61l426 -1055l461 1168h199zM2408 625h443l-225 542z" />
    <glyph glyph-name="K_W.liga" unicode="KW" horiz-adv-x="3467" 
d="M3457 1434v-52l-131 -77l-406 -1305h-204l-320 952l-323 -952h-205l-434 1323l-78 37l-115 -49l-465 -430l508 -781l143 -49v-51h-401l-453 694l-108 -102v-481l156 -60v-51h-582v51l156 60v1212l-156 59v52h582v-52l-156 -59v-584l622 578l-180 65v52h1002v-52l-189 -65
l336 -1024l283 833l-66 197l-127 59v52h600v-52l-188 -65l340 -1012l307 991l-215 86v52h467z" />
    <glyph glyph-name="K_Wacute.liga" unicode="K&#x1e82;" horiz-adv-x="3467" 
d="M2861 1712l-604 -186l-41 49l344 332h4l297 -185v-10zM3457 1434v-52l-131 -77l-406 -1305h-204l-320 952l-323 -952h-205l-434 1323l-78 37l-115 -49l-465 -430l508 -781l143 -49v-51h-401l-453 694l-108 -102v-481l156 -60v-51h-582v51l156 60v1212l-156 59v52h582v-52
l-156 -59v-584l622 578l-180 65v52h1002v-52l-189 -65l336 -1024l283 833l-66 197l-127 59v52h600v-52l-188 -65l340 -1012l307 991l-215 86v52h467z" />
    <glyph glyph-name="K_Wcircumflex.liga" unicode="K&#x174;" horiz-adv-x="3467" 
d="M2433 1704l-315 -178l-50 37l226 323h295l221 -321l-49 -39zM3457 1434v-52l-131 -77l-406 -1305h-204l-320 952l-323 -952h-205l-434 1323l-78 37l-115 -49l-465 -430l508 -781l143 -49v-51h-401l-453 694l-108 -102v-481l156 -60v-51h-582v51l156 60v1212l-156 59v52
h582v-52l-156 -59v-584l622 578l-180 65v52h1002v-52l-189 -65l336 -1024l283 833l-66 197l-127 59v52h600v-52l-188 -65l340 -1012l307 991l-215 86v52h467z" />
    <glyph glyph-name="K_Wdieresis.liga" unicode="K&#x1e84;" horiz-adv-x="3467" 
d="M2234 1579q-68 0 -113.5 45t-45.5 109t45.5 108.5t113.5 44.5q67 0 113.5 -45t46.5 -108t-46.5 -108.5t-113.5 -45.5zM2656 1579q-67 0 -113 45t-46 109q0 63 46 108t113 45q68 0 114 -44.5t46 -108.5t-46 -109t-114 -45zM3457 1434v-52l-131 -77l-406 -1305h-204
l-320 952l-323 -952h-205l-434 1323l-78 37l-115 -49l-465 -430l508 -781l143 -49v-51h-401l-453 694l-108 -102v-481l156 -60v-51h-582v51l156 60v1212l-156 59v52h582v-52l-156 -59v-584l622 578l-180 65v52h1002v-52l-189 -65l336 -1024l283 833l-66 197l-127 59v52h600
v-52l-188 -65l340 -1012l307 991l-215 86v52h467z" />
    <glyph glyph-name="K_Wgrave.liga" unicode="K&#x1e80;" horiz-adv-x="3467" 
d="M2656 1581l-33 -55l-575 160v8l242 213h4zM3457 1434v-52l-131 -77l-406 -1305h-204l-320 952l-323 -952h-205l-434 1323l-78 37l-115 -49l-465 -430l508 -781l143 -49v-51h-401l-453 694l-108 -102v-481l156 -60v-51h-582v51l156 60v1212l-156 59v52h582v-52l-156 -59
v-584l622 578l-180 65v52h1002v-52l-189 -65l336 -1024l283 833l-66 197l-127 59v52h600v-52l-188 -65l340 -1012l307 991l-215 86v52h467z" />
    <glyph glyph-name="K_Y.liga" unicode="KY" horiz-adv-x="2684" 
d="M2550 1305l-430 -689v-505l155 -60v-51h-581v51l155 60v499l-469 719l-49 21l-90 -39l-465 -430l508 -781l143 -49v-51h-401l-453 694l-108 -102v-481l156 -60v-51h-582v51l156 60v1212l-156 59v52h582v-52l-156 -59v-584l622 578l-180 65v52h957v-52l-164 -49l375 -585
l346 561l-195 73v52h469v-52z" />
    <glyph glyph-name="K_Yacute.liga" unicode="K&#xdd;" horiz-adv-x="2684" 
d="M2429 1712l-604 -186l-41 49l344 332h4l297 -185v-10zM2550 1305l-430 -689v-505l155 -60v-51h-581v51l155 60v499l-469 719l-49 21l-90 -39l-465 -430l508 -781l143 -49v-51h-401l-453 694l-108 -102v-481l156 -60v-51h-582v51l156 60v1212l-156 59v52h582v-52l-156 -59
v-584l622 578l-180 65v52h957v-52l-164 -49l375 -585l346 561l-195 73v52h469v-52z" />
    <glyph glyph-name="K_Ycircumflex.liga" unicode="K&#x176;" horiz-adv-x="2684" 
d="M2001 1704l-315 -178l-50 37l226 323h295l221 -321l-49 -39zM2550 1305l-430 -689v-505l155 -60v-51h-581v51l155 60v499l-469 719l-49 21l-90 -39l-465 -430l508 -781l143 -49v-51h-401l-453 694l-108 -102v-481l156 -60v-51h-582v51l156 60v1212l-156 59v52h582v-52
l-156 -59v-584l622 578l-180 65v52h957v-52l-164 -49l375 -585l346 561l-195 73v52h469v-52z" />
    <glyph glyph-name="K_Ydieresis.liga" unicode="K&#x178;" horiz-adv-x="2684" 
d="M1802 1579q-68 0 -114 45t-46 109t46 108.5t114 44.5q67 0 113.5 -45t46.5 -108t-46.5 -108.5t-113.5 -45.5zM2224 1579q-67 0 -113.5 45.5t-46.5 108.5t46.5 108t113.5 45q68 0 114 -44.5t46 -108.5t-46 -109t-114 -45zM2550 1305l-430 -689v-505l155 -60v-51h-581v51
l155 60v499l-469 719l-49 21l-90 -39l-465 -430l508 -781l143 -49v-51h-401l-453 694l-108 -102v-481l156 -60v-51h-582v51l156 60v1212l-156 59v52h582v-52l-156 -59v-584l622 578l-180 65v52h957v-52l-164 -49l375 -585l346 561l-195 73v52h469v-52z" />
    <glyph glyph-name="K_Ygrave.liga" unicode="K&#x1ef2;" horiz-adv-x="2684" 
d="M2224 1581l-33 -55l-575 160v8l242 213h4zM2550 1305l-430 -689v-505l155 -60v-51h-581v51l155 60v499l-469 719l-49 21l-90 -39l-465 -430l508 -781l143 -49v-51h-401l-453 694l-108 -102v-481l156 -60v-51h-582v51l156 60v1212l-156 59v52h582v-52l-156 -59v-584
l622 578l-180 65v52h957v-52l-164 -49l375 -585l346 561l-195 73v52h469v-52z" />
    <glyph glyph-name="Kcommaaccent_A.liga" unicode="&#x136;A" horiz-adv-x="2770" 
d="M2630 104l131 -53v-51h-602v51l176 53l-170 410h-537l-155 -387l202 -76v-51h-649l-453 694l-108 -102v-481l156 -60v-51h-582v51l156 60v1212l-156 59v52h582v-52l-156 -59v-584l622 578l-180 65v52h502v-52l-168 -71l-465 -430l514 -791l56 27l540 1317h193zM1673 625
h447l-226 544zM836 -72q53 -50 71.5 -114t2.5 -125t-76 -114t-154 -79l-45 33q53 49 47 153t-68 166v2z" />
    <glyph glyph-name="Kcommaaccent_I.liga" unicode="&#x136;I" horiz-adv-x="1953" 
d="M1894 1382l-153 -59v-598l153 -59v-52h-579v52l155 59v598l-106 41l-123 -53l-465 -430l225 -351q130 -202 255.5 -298t262 -91.5t289.5 115.5l43 -41q-65 -90 -160 -150.5t-208 -79.5t-227 3t-227 103t-200 214l-256 389l-108 -102v-481l156 -60v-51h-582v51l156 60
v1212l-156 59v52h582v-52l-156 -59v-584l622 578l-180 65v52h987v-52zM836 -72q53 -50 71.5 -114t2.5 -125t-76 -114t-154 -79l-45 33q53 49 47 153t-68 166v2z" />
    <glyph glyph-name="Kcommaaccent_T.liga" unicode="&#x136;T" horiz-adv-x="2506" 
d="M2220 1325h-268v-1214l153 -60v-51h-579v51l155 60v1214h-407l-33 -14l-465 -430l508 -781l143 -49v-51h-401l-453 694l-108 -102v-481l156 -60v-51h-582v51l156 60v1212l-156 59v52h582v-52l-156 -59v-584l622 578l-180 65v52h1528l62 -400h-54zM836 -72
q53 -50 71.5 -114t2.5 -125t-76 -114t-154 -79l-45 33q53 49 47 153t-68 166v2z" />
    <glyph glyph-name="Kcommaaccent_V.liga" unicode="&#x136;V" horiz-adv-x="2824" 
d="M2824 1434v-52l-145 -82l-520 -1300h-193l-532 1319l-82 39l-111 -47l-465 -430l508 -781l143 -49v-51h-401l-453 694l-108 -102v-481l156 -60v-51h-582v51l156 60v1212l-156 59v52h582v-52l-156 -59v-584l622 578l-180 65v52h1035v-52l-218 -61l426 -1055l408 1032
l-242 84v52h508zM836 -72q53 -50 71.5 -114t2.5 -125t-76 -114t-154 -79l-45 33q53 49 47 153t-68 166v2z" />
    <glyph glyph-name="Kcommaaccent_W.liga" unicode="&#x136;W" horiz-adv-x="3467" 
d="M3457 1434v-52l-131 -77l-406 -1305h-204l-320 952l-323 -952h-205l-434 1323l-78 37l-115 -49l-465 -430l508 -781l143 -49v-51h-401l-453 694l-108 -102v-481l156 -60v-51h-582v51l156 60v1212l-156 59v52h582v-52l-156 -59v-584l622 578l-180 65v52h1002v-52l-189 -65
l336 -1024l283 833l-66 197l-127 59v52h600v-52l-188 -65l340 -1012l307 991l-215 86v52h467zM836 -72q53 -50 71.5 -114t2.5 -125t-76 -114t-154 -79l-45 33q53 49 47 153t-68 166v2z" />
    <glyph glyph-name="Kcommaaccent_Y.liga" unicode="&#x136;Y" horiz-adv-x="2684" 
d="M2550 1305l-430 -689v-505l155 -60v-51h-581v51l155 60v499l-469 719l-49 21l-90 -39l-465 -430l508 -781l143 -49v-51h-401l-453 694l-108 -102v-481l156 -60v-51h-582v51l156 60v1212l-156 59v52h582v-52l-156 -59v-584l622 578l-180 65v52h957v-52l-164 -49l375 -585
l346 561l-195 73v52h469v-52zM836 -72q53 -50 71.5 -114t2.5 -125t-76 -114t-154 -79l-45 33q53 49 47 153t-68 166v2z" />
    <glyph glyph-name="L_A.liga" unicode="LA" horiz-adv-x="2054" 
d="M1913 104l131 -53v-51h-602v51l178 53l-170 410h-539l-163 -405h178l211 286h53l-57 -395h-1094v51l156 60v1212l-156 59v52h582v-52l-156 -59v-1214h164l542 1325h191zM956 625h449l-227 546z" />
    <glyph glyph-name="L_Aacute.liga" unicode="L&#xc1;" horiz-adv-x="2054" 
d="M1675 1712l-604 -186l-41 49l344 332h4l297 -185v-10zM1913 104l131 -53v-51h-602v51l178 53l-170 410h-539l-163 -405h178l211 286h53l-57 -395h-1094v51l156 60v1212l-156 59v52h582v-52l-156 -59v-1214h164l542 1325h191zM956 625h449l-227 546z" />
    <glyph glyph-name="L_Abreve.liga" unicode="L&#x102;" horiz-adv-x="2054" 
d="M1257 1536q-60 0 -113 18t-99 55.5t-72.5 105.5t-26.5 159l72 2q25 -57 90 -99t149 -42t149.5 42t92.5 99l72 -2q0 -91 -27 -159t-73 -106t-99.5 -55.5t-114.5 -17.5zM1913 104l131 -53v-51h-602v51l178 53l-170 410h-539l-163 -405h178l211 286h53l-57 -395h-1094v51
l156 60v1212l-156 59v52h582v-52l-156 -59v-1214h164l542 1325h191zM956 625h449l-227 546z" />
    <glyph glyph-name="L_Acircumflex.liga" unicode="L&#xc2;" horiz-adv-x="2054" 
d="M1247 1704l-315 -178l-49 37l225 323h295l221 -321l-49 -39zM1913 104l131 -53v-51h-602v51l178 53l-170 410h-539l-163 -405h178l211 286h53l-57 -395h-1094v51l156 60v1212l-156 59v52h582v-52l-156 -59v-1214h164l542 1325h191zM956 625h449l-227 546z" />
    <glyph glyph-name="L_Adieresis.liga" unicode="L&#xc4;" horiz-adv-x="2054" 
d="M1049 1579q-68 0 -114 45t-46 109t46 108.5t114 44.5q67 0 113 -45t46 -108q0 -64 -46 -109t-113 -45zM1470 1579q-67 0 -113 45t-46 109q0 63 46 108t113 45q68 0 114 -44.5t46 -108.5t-46 -109t-114 -45zM1913 104l131 -53v-51h-602v51l178 53l-170 410h-539l-163 -405
h178l211 286h53l-57 -395h-1094v51l156 60v1212l-156 59v52h582v-52l-156 -59v-1214h164l542 1325h191zM956 625h449l-227 546z" />
    <glyph glyph-name="L_Agrave.liga" unicode="L&#xc0;" horiz-adv-x="2054" 
d="M1470 1581l-32 -55l-576 160v8l242 213h4zM1913 104l131 -53v-51h-602v51l178 53l-170 410h-539l-163 -405h178l211 286h53l-57 -395h-1094v51l156 60v1212l-156 59v52h582v-52l-156 -59v-1214h164l542 1325h191zM956 625h449l-227 546z" />
    <glyph glyph-name="L_Amacron.liga" unicode="L&#x100;" horiz-adv-x="2054" 
d="M1544 1786v-164h-571v164h571zM1913 104l131 -53v-51h-602v51l178 53l-170 410h-539l-163 -405h178l211 286h53l-57 -395h-1094v51l156 60v1212l-156 59v52h582v-52l-156 -59v-1214h164l542 1325h191zM956 625h449l-227 546z" />
    <glyph glyph-name="L_Aogonek.liga" unicode="L&#x104;" horiz-adv-x="2054" 
d="M1913 104l131 -53v-51h-197q-88 -146 -88 -270q0 -67 45 -99.5t109 -13.5v-61q-53 -32 -120.5 -40t-126 7.5t-98.5 59t-40 106.5q0 40 14.5 77.5t32 64t55 61.5t61 53.5t72.5 54.5h-321v51l178 53l-170 410h-539l-163 -405h178l211 286h53l-57 -395h-1094v51l156 60v1212
l-156 59v52h582v-52l-156 -59v-1214h164l542 1325h191zM956 625h449l-227 546z" />
    <glyph glyph-name="L_Aring.liga" unicode="L&#xc5;" horiz-adv-x="2054" 
d="M1257 1495q-111 0 -181 54.5t-70 148.5q0 43 14.5 82t43.5 72t78.5 53t112.5 20q112 0 183 -54.5t71 -148.5q0 -92 -64 -159.5t-188 -67.5zM1155 1778q-20 -23 -20 -60q0 -51 37 -79.5t98 -28.5q44 0 86 28q24 27 24 64q0 52 -36 80t-97 28q-54 0 -92 -32zM1913 104
l131 -53v-51h-602v51l178 53l-170 410h-539l-163 -405h178l211 286h53l-57 -395h-1094v51l156 60v1212l-156 59v52h582v-52l-156 -59v-1214h164l542 1325h191zM956 625h449l-227 546z" />
    <glyph glyph-name="L_Atilde.liga" unicode="L&#xc3;" horiz-adv-x="2054" 
d="M1079 1673q-22 0 -39 -6t-31 -20.5t-21.5 -24t-20.5 -32.5t-17 -29l-63 20q29 135 89.5 214t147.5 79q47 0 96 -19t83 -42.5t72.5 -42.5t66.5 -19q21 0 38 6t30.5 20.5t21 24.5t20 32.5t17.5 29.5l63 -21q-29 -135 -90.5 -214t-146.5 -79q-59 0 -121 31t-112 61.5
t-83 30.5zM1913 104l131 -53v-51h-602v51l178 53l-170 410h-539l-163 -405h178l211 286h53l-57 -395h-1094v51l156 60v1212l-156 59v52h582v-52l-156 -59v-1214h164l542 1325h191zM956 625h449l-227 546z" />
    <glyph glyph-name="L_I.liga" unicode="LI" horiz-adv-x="1421" 
d="M926 109l211 286h53l-57 -395h-1094v51l156 60v1212l-156 59v52h582v-52l-156 -59v-1214h461zM1362 1382l-156 -59v-598l156 -59v-52h-582v52l156 59v598l-156 59v52h582v-52z" />
    <glyph glyph-name="L_Iacute.liga" unicode="L&#xcd;" horiz-adv-x="1421" 
d="M1188 1907l297 -185v-10l-604 -186l-41 49l344 332h4zM926 109l211 286h53l-57 -395h-1094v51l156 60v1212l-156 59v52h582v-52l-156 -59v-1214h461zM780 1382v52h582v-52l-156 -59v-598l156 -59v-52h-582v52l156 59v598z" />
    <glyph glyph-name="L_Ibreve.liga" unicode="L&#x12c;" horiz-adv-x="1421" 
d="M1067 1536q-60 0 -113 18t-99 55.5t-72.5 105.5t-26.5 159l71 2q25 -57 90.5 -99t149.5 -42t149.5 42t92.5 99l71 -2q0 -91 -26.5 -159t-72.5 -106t-99.5 -55.5t-114.5 -17.5zM926 109l211 286h53l-57 -395h-1094v51l156 60v1212l-156 59v52h582v-52l-156 -59v-1214h461z
M780 1382v52h582v-52l-156 -59v-598l156 -59v-52h-582v52l156 59v598z" />
    <glyph glyph-name="L_Icircumflex.liga" unicode="L&#xce;" horiz-adv-x="1421" 
d="M1212 1886l222 -321l-50 -39l-327 178l-316 -178l-49 37l226 323h294zM926 109l211 286h53l-57 -395h-1094v51l156 60v1212l-156 59v52h582v-52l-156 -59v-1214h461zM780 1382v52h582v-52l-156 -59v-598l156 -59v-52h-582v52l156 59v598z" />
    <glyph glyph-name="L_Idieresis.liga" unicode="L&#xcf;" horiz-adv-x="1421" 
d="M858 1579q-68 0 -114 45t-46 109t46 108.5t114 44.5q67 0 113.5 -45t46.5 -108t-46.5 -108.5t-113.5 -45.5zM1280 1886q68 0 114 -44.5t46 -108.5t-46 -109t-114 -45q-67 0 -113.5 45.5t-46.5 108.5t46.5 108t113.5 45zM926 109l211 286h53l-57 -395h-1094v51l156 60
v1212l-156 59v52h582v-52l-156 -59v-1214h461zM780 1382v52h582v-52l-156 -59v-598l156 -59v-52h-582v52l156 59v598z" />
    <glyph glyph-name="L_Idotaccent.liga" unicode="L&#x130;" horiz-adv-x="1421" 
d="M1069 1571q-73 0 -120.5 47.5t-47.5 114.5t47 114t121 47q75 0 122.5 -46.5t47.5 -114.5t-47.5 -115t-122.5 -47zM926 109l211 286h53l-57 -395h-1094v51l156 60v1212l-156 59v52h582v-52l-156 -59v-1214h461zM1362 1382l-156 -59v-598l156 -59v-52h-582v52l156 59v598
l-156 59v52h582v-52z" />
    <glyph glyph-name="L_Igrave.liga" unicode="L&#xcc;" horiz-adv-x="1421" 
d="M1280 1581l-33 -55l-575 160v8l241 213h5zM926 109l211 286h53l-57 -395h-1094v51l156 60v1212l-156 59v52h582v-52l-156 -59v-1214h461zM1362 1382l-156 -59v-598l156 -59v-52h-582v52l156 59v598l-156 59v52h582v-52z" />
    <glyph glyph-name="L_Imacron.liga" unicode="L&#x12a;" horiz-adv-x="1421" 
d="M1354 1786v-164h-572v164h572zM926 109l211 286h53l-57 -395h-1094v51l156 60v1212l-156 59v52h582v-52l-156 -59v-1214h461zM1362 1382l-156 -59v-598l156 -59v-52h-582v52l156 59v598l-156 59v52h582v-52z" />
    <glyph glyph-name="L_Itilde.liga" unicode="L&#x128;" horiz-adv-x="1421" 
d="M889 1673q-22 0 -39 -6t-31 -20.5t-21.5 -24t-20.5 -32.5t-17 -29l-64 20q29 135 90 214t148 79q47 0 96 -19t82.5 -42.5t72 -42.5t66.5 -19q21 0 38 6t30.5 20.5t21 24.5t20 32.5t17.5 29.5l64 -21q-29 -134 -91 -213.5t-147 -79.5q-60 0 -121 31t-111 61.5t-83 30.5z
M926 109l211 286h53l-57 -395h-1094v51l156 60v1212l-156 59v52h582v-52l-156 -59v-1214h461zM780 1382v52h582v-52l-156 -59v-598l156 -59v-52h-582v52l156 59v598z" />
    <glyph glyph-name="L_L.liga" unicode="LL" horiz-adv-x="1863" 
d="M926 109l211 286h53l-57 -395h-1094v51l156 60v1212l-156 59v52h582v-52l-156 -59v-1214h461zM1796 1010h53l-57 -396h-1012v52l156 59v598l-156 59v52h582v-52l-156 -59v-600h379z" />
    <glyph glyph-name="L_T.liga" unicode="LT" horiz-adv-x="1843" 
d="M1014 109l211 286h53l-57 -395h-1182v51l156 60v1212l-156 59v52h582v-52l-156 -59v-1214h549zM1554 1325h-124v-600l155 -59v-52h-581v52l155 59v600h-127l-223 -291h-53l61 400h955l61 -400h-55z" />
    <glyph glyph-name="L_Tbar.liga" unicode="L&#x166;" horiz-adv-x="1843" 
d="M1014 109l211 286h53l-57 -395h-1182v51l156 60v1212l-156 59v52h582v-52l-156 -59v-1214h549zM1554 1325h-124v-285h212v-110h-212v-205l155 -59v-52h-581v52l155 59v205h-213v110h213v285h-127l-223 -291h-53l61 400h955l61 -400h-55z" />
    <glyph glyph-name="L_Tcaron.liga" unicode="L&#x164;" horiz-adv-x="1843" 
d="M1145 1546l-223 322l49 39l327 -178l316 178l49 -37l-223 -324h-295zM1014 109l211 286h53l-57 -395h-1182v51l156 60v1212l-156 59v52h582v-52l-156 -59v-1214h549zM1554 1325h-124v-600l155 -59v-52h-581v52l155 59v600h-127l-223 -291h-53l61 400h955l61 -400h-55z
" />
    <glyph glyph-name="Lacute_A.liga" unicode="&#x139;A" horiz-adv-x="2054" 
d="M743 1712l-604 -186l-41 49l344 332h4l297 -185v-10zM1913 104l131 -53v-51h-602v51l178 53l-170 410h-539l-163 -405h178l211 286h53l-57 -395h-1094v51l156 60v1212l-156 59v52h582v-52l-156 -59v-1214h164l542 1325h191zM956 625h449l-227 546z" />
    <glyph glyph-name="Lacute_I.liga" unicode="&#x139;I" horiz-adv-x="1421" 
d="M743 1712l-604 -186l-41 49l344 332h4l297 -185v-10zM926 109l211 286h53l-57 -395h-1094v51l156 60v1212l-156 59v52h582v-52l-156 -59v-1214h461zM1362 1382l-156 -59v-598l156 -59v-52h-582v52l156 59v598l-156 59v52h582v-52z" />
    <glyph glyph-name="Lacute_T.liga" unicode="&#x139;T" horiz-adv-x="1843" 
d="M743 1712l-604 -186l-41 49l344 332h4l297 -185v-10zM1014 109l211 286h53l-57 -395h-1182v51l156 60v1212l-156 59v52h582v-52l-156 -59v-1214h549zM1554 1325h-124v-600l155 -59v-52h-581v52l155 59v600h-127l-223 -291h-53l61 400h955l61 -400h-55z" />
    <glyph glyph-name="Lcaron_A.liga" unicode="&#x13d;A" horiz-adv-x="2054" 
d="M690 995q28 50 39 97t-3 119t-62 153v4l202 78q49 -59 68 -126t7 -131.5t-65 -122.5t-141 -95zM1913 104l131 -53v-51h-602v51l178 53l-170 410h-539l-163 -405h178l211 286h53l-57 -395h-1094v51l156 60v1212l-156 59v52h582v-52l-156 -59v-1214h164l542 1325h191z
M956 625h449l-227 546z" />
    <glyph glyph-name="Lcommaaccent_A.liga" unicode="&#x13b;A" horiz-adv-x="2054" 
d="M1913 104l131 -53v-51h-602v51l178 53l-170 410h-539l-163 -405h178l211 286h53l-57 -395h-1094v51l156 60v1212l-156 59v52h582v-52l-156 -59v-1214h164l542 1325h191zM956 625h449l-227 546zM666 -72q53 -50 71.5 -114t2.5 -125t-76 -114t-154 -79l-45 33q53 49 47 153
t-68 166v2z" />
    <glyph glyph-name="Lcommaaccent_I.liga" unicode="&#x13b;I" horiz-adv-x="1421" 
d="M926 109l211 286h53l-57 -395h-1094v51l156 60v1212l-156 59v52h582v-52l-156 -59v-1214h461zM1362 1382l-156 -59v-598l156 -59v-52h-582v52l156 59v598l-156 59v52h582v-52zM666 -72q53 -50 71.5 -114t2.5 -125t-76 -114t-154 -79l-45 33q53 49 47 153t-68 166v2z" />
    <glyph glyph-name="Lcommaaccent_T.liga" unicode="&#x13b;T" horiz-adv-x="1843" 
d="M1014 109l211 286h53l-57 -395h-1182v51l156 60v1212l-156 59v52h582v-52l-156 -59v-1214h549zM1554 1325h-124v-600l155 -59v-52h-581v52l155 59v600h-127l-223 -291h-53l61 400h955l61 -400h-55zM666 -72q53 -50 71.5 -114t2.5 -125t-76 -114t-154 -79l-45 33
q53 49 47 153t-68 166v2z" />
    <glyph glyph-name="Lslash_A.liga" unicode="&#x141;A" horiz-adv-x="2054" 
d="M1913 104l131 -53v-51h-602v51l178 53l-170 410h-539l-163 -405h178l211 286h53l-57 -395h-1094v51l156 60v526l-164 -68l-41 103l205 84v567l-156 59v52h582v-52l-156 -59v-457l287 117l41 -102l-328 -133v-639h164l542 1325h191zM956 625h449l-227 546z" />
    <glyph glyph-name="Lslash_I.liga" unicode="&#x141;I" horiz-adv-x="1421" 
d="M926 109l211 286h53l-57 -395h-1094v51l156 60v526l-164 -68l-41 103l205 84v567l-156 59v52h582v-52l-156 -59v-457l287 117l41 -102l-328 -133v-639h461zM1362 1382l-156 -59v-598l156 -59v-52h-582v52l156 59v598l-156 59v52h582v-52z" />
    <glyph glyph-name="Lslash_T.liga" unicode="&#x141;T" horiz-adv-x="1843" 
d="M1014 109l211 286h53l-57 -395h-1182v51l156 60v526l-164 -68l-41 103l205 84v567l-156 59v52h582v-52l-156 -59v-457l287 117l41 -102l-328 -133v-639h549zM1554 1325h-124v-600l155 -59v-52h-581v52l155 59v600h-127l-223 -291h-53l61 400h955l61 -400h-55z" />
    <glyph glyph-name="M_E.liga" unicode="ME" horiz-adv-x="2541" 
d="M2439 395h53l-57 -395h-1182v51l156 60v1157l-498 -1268h-53l-551 1249v-1118l205 -80v-51h-473v51l154 74v1198l-154 59v52h481l445 -1002l393 1002h1061v-383h-54l-161 274h-525v-534h365l94 186h53v-479h-53l-92 182h-367v-571h551z" />
    <glyph glyph-name="M_Eacute.liga" unicode="M&#xc9;" horiz-adv-x="2541" 
d="M2316 1712l-604 -186l-41 49l344 332h4l297 -185v-10zM2439 395h53l-57 -395h-1182v51l156 60v1157l-498 -1268h-53l-551 1249v-1118l205 -80v-51h-473v51l154 74v1198l-154 59v52h481l445 -1002l393 1002h1061v-383h-54l-161 274h-525v-534h365l94 186h53v-479h-53
l-92 182h-367v-571h551z" />
    <glyph glyph-name="M_Ebreve.liga" unicode="M&#x114;" horiz-adv-x="2541" 
d="M1898 1536q-60 0 -113 18t-99 55.5t-72.5 105.5t-26.5 159l72 2q25 -57 90 -99t149 -42t149.5 42t92.5 99l72 -2q0 -91 -27 -159t-73 -106t-99.5 -55.5t-114.5 -17.5zM2439 395h53l-57 -395h-1182v51l156 60v1157l-498 -1268h-53l-551 1249v-1118l205 -80v-51h-473v51
l154 74v1198l-154 59v52h481l445 -1002l393 1002h1061v-383h-54l-161 274h-525v-534h365l94 186h53v-479h-53l-92 182h-367v-571h551z" />
    <glyph glyph-name="M_Ecaron.liga" unicode="M&#x11a;" horiz-adv-x="2541" 
d="M1753 1546l-223 322l49 39l328 -178l315 178l49 -37l-223 -324h-295zM2439 395h53l-57 -395h-1182v51l156 60v1157l-498 -1268h-53l-551 1249v-1118l205 -80v-51h-473v51l154 74v1198l-154 59v52h481l445 -1002l393 1002h1061v-383h-54l-161 274h-525v-534h365l94 186h53
v-479h-53l-92 182h-367v-571h551z" />
    <glyph glyph-name="M_Ecircumflex.liga" unicode="M&#xca;" horiz-adv-x="2541" 
d="M1888 1704l-315 -178l-49 37l225 323h295l221 -321l-49 -39zM2439 395h53l-57 -395h-1182v51l156 60v1157l-498 -1268h-53l-551 1249v-1118l205 -80v-51h-473v51l154 74v1198l-154 59v52h481l445 -1002l393 1002h1061v-383h-54l-161 274h-525v-534h365l94 186h53v-479
h-53l-92 182h-367v-571h551z" />
    <glyph glyph-name="M_Edieresis.liga" unicode="M&#xcb;" horiz-adv-x="2541" 
d="M1690 1579q-68 0 -114 45t-46 109t46 108.5t114 44.5q67 0 113 -45t46 -108q0 -64 -46 -109t-113 -45zM2111 1579q-67 0 -113 45t-46 109q0 63 46 108t113 45q68 0 114 -44.5t46 -108.5t-46 -109t-114 -45zM2439 395h53l-57 -395h-1182v51l156 60v1157l-498 -1268h-53
l-551 1249v-1118l205 -80v-51h-473v51l154 74v1198l-154 59v52h481l445 -1002l393 1002h1061v-383h-54l-161 274h-525v-534h365l94 186h53v-479h-53l-92 182h-367v-571h551z" />
    <glyph glyph-name="M_Edotaccent.liga" unicode="M&#x116;" horiz-adv-x="2541" 
d="M1901 1571q-73 0 -120.5 47.5t-47.5 114.5t47 114t121 47q75 0 122.5 -46.5t47.5 -114.5t-47.5 -115t-122.5 -47zM2439 395h53l-57 -395h-1182v51l156 60v1157l-498 -1268h-53l-551 1249v-1118l205 -80v-51h-473v51l154 74v1198l-154 59v52h481l445 -1002l393 1002h1061
v-383h-54l-161 274h-525v-534h365l94 186h53v-479h-53l-92 182h-367v-571h551z" />
    <glyph glyph-name="M_Egrave.liga" unicode="M&#xc8;" horiz-adv-x="2541" 
d="M2111 1581l-32 -55l-576 160v8l242 213h4zM2439 395h53l-57 -395h-1182v51l156 60v1157l-498 -1268h-53l-551 1249v-1118l205 -80v-51h-473v51l154 74v1198l-154 59v52h481l445 -1002l393 1002h1061v-383h-54l-161 274h-525v-534h365l94 186h53v-479h-53l-92 182h-367
v-571h551z" />
    <glyph glyph-name="M_Emacron.liga" unicode="M&#x112;" horiz-adv-x="2541" 
d="M2185 1786v-164h-571v164h571zM2439 395h53l-57 -395h-1182v51l156 60v1157l-498 -1268h-53l-551 1249v-1118l205 -80v-51h-473v51l154 74v1198l-154 59v52h481l445 -1002l393 1002h1061v-383h-54l-161 274h-525v-534h365l94 186h53v-479h-53l-92 182h-367v-571h551z" />
    <glyph glyph-name="M_Eogonek.liga" unicode="M&#x118;" horiz-adv-x="2541" 
d="M2349 -270q0 -67 45 -99.5t109 -13.5v-61q-53 -32 -120.5 -40t-126 7.5t-98.5 59t-40 106.5q0 40 14.5 77.5t32 64t55 61.5t61 53.5t72.5 54.5h-1100v51l156 60v1157l-498 -1268h-53l-551 1249v-1118l205 -80v-51h-473v51l154 74v1198l-154 59v52h481l445 -1002l393 1002
h1061v-383h-54l-161 274h-525v-534h365l94 186h53v-479h-53l-92 182h-367v-571h551l209 286h53l-57 -395h2q-88 -146 -88 -270z" />
    <glyph glyph-name="M_L.liga" unicode="ML" horiz-adv-x="2439" 
d="M2351 395h53l-57 -395h-1094v51l156 60v1157l-498 -1268h-53l-551 1249v-1118l205 -80v-51h-473v51l154 74v1198l-154 59v52h481l445 -1002l393 1002h477v-52l-156 -59v-1214h461z" />
    <glyph glyph-name="M_Lacute.liga" unicode="M&#x139;" horiz-adv-x="2439" 
d="M1958 1712l-604 -186l-41 49l344 332h4l297 -185v-10zM2351 395h53l-57 -395h-1094v51l156 60v1157l-498 -1268h-53l-551 1249v-1118l205 -80v-51h-473v51l154 74v1198l-154 59v52h481l445 -1002l393 1002h477v-52l-156 -59v-1214h461z" />
    <glyph glyph-name="M_Lcommaaccent.liga" unicode="M&#x13b;" horiz-adv-x="2439" 
d="M2351 395h53l-57 -395h-1094v51l156 60v1157l-498 -1268h-53l-551 1249v-1118l205 -80v-51h-473v51l154 74v1198l-154 59v52h481l445 -1002l393 1002h477v-52l-156 -59v-1214h461zM1880 -72q53 -50 71.5 -114t2.5 -125t-76 -114t-154 -79l-45 33q53 49 47.5 153
t-67.5 166v2z" />
    <glyph glyph-name="M_Ldot.liga" unicode="M&#x13f;" horiz-adv-x="2439" 
d="M2351 395h53l-57 -395h-1094v51l156 60v1157l-498 -1268h-53l-551 1249v-1118l205 -80v-51h-473v51l154 74v1198l-154 59v52h481l445 -1002l393 1002h477v-52l-156 -59v-1214h461zM2159 561q-75 0 -129 53t-52 125q0 73 53 126t128 53q73 0 124.5 -53t51.5 -126
t-51.5 -125.5t-124.5 -52.5z" />
    <glyph glyph-name="M_Lslash.liga" unicode="M&#x141;" horiz-adv-x="2439" 
d="M2351 395h53l-57 -395h-1094v51l156 60v526l-164 -68l-39 103l203 84v512l-498 -1268h-53l-551 1249v-1118l205 -80v-51h-473v51l154 74v1198l-154 59v52h481l445 -1002l393 1002h477v-52l-156 -59v-457l287 117l41 -102l-328 -133v-639h461z" />
    <glyph glyph-name="M_R.liga" unicode="MR" horiz-adv-x="2600" 
d="M2454 106l137 -55v-51h-391l-426 668h-95v-557l156 -60v-51h-582v51l156 60v1157l-498 -1268h-53l-551 1249v-1118l205 -80v-51h-473v51l154 74v1198l-154 59v52h481l445 -1002l393 1002h553q234 8 372 -83t138 -259q0 -128 -93.5 -238t-256.5 -154zM1679 1325v-549h95
q185 6 271.5 87.5t86.5 197.5q0 101 -78.5 182.5t-200.5 81.5h-174z" />
    <glyph glyph-name="M_Racute.liga" unicode="M&#x154;" horiz-adv-x="2600" 
d="M2269 1712l-604 -186l-41 49l344 332h4l297 -185v-10zM2454 106l137 -55v-51h-391l-426 668h-95v-557l156 -60v-51h-582v51l156 60v1157l-498 -1268h-53l-551 1249v-1118l205 -80v-51h-473v51l154 74v1198l-154 59v52h481l445 -1002l393 1002h553q234 8 372 -83t138 -259
q0 -128 -93.5 -238t-256.5 -154zM1679 1325v-549h95q185 6 271.5 87.5t86.5 197.5q0 101 -78.5 182.5t-200.5 81.5h-174z" />
    <glyph glyph-name="M_Rcaron.liga" unicode="M&#x158;" horiz-adv-x="2600" 
d="M1706 1546l-223 322l49 39l328 -178l315 178l49 -37l-223 -324h-295zM2454 106l137 -55v-51h-391l-426 668h-95v-557l156 -60v-51h-582v51l156 60v1157l-498 -1268h-53l-551 1249v-1118l205 -80v-51h-473v51l154 74v1198l-154 59v52h481l445 -1002l393 1002h553
q234 8 372 -83t138 -259q0 -128 -93.5 -238t-256.5 -154zM1679 1325v-549h95q185 6 271.5 87.5t86.5 197.5q0 101 -78.5 182.5t-200.5 81.5h-174z" />
    <glyph glyph-name="M_Rcommaaccent.liga" unicode="M&#x156;" horiz-adv-x="2600" 
d="M2454 106l137 -55v-51h-391l-426 668h-95v-557l156 -60v-51h-582v51l156 60v1157l-498 -1268h-53l-551 1249v-1118l205 -80v-51h-473v51l154 74v1198l-154 59v52h481l445 -1002l393 1002h553q234 8 372 -83t138 -259q0 -128 -93.5 -238t-256.5 -154zM1679 1325v-549h95
q185 6 271.5 87.5t86.5 197.5q0 101 -78.5 182.5t-200.5 81.5h-174zM2005 -72q53 -50 71.5 -114t2.5 -125t-76 -114t-154 -79l-45 33q53 49 47.5 153t-67.5 166v2z" />
    <glyph glyph-name="M_U.liga" unicode="MU" horiz-adv-x="2717" 
d="M2673 1434v-52l-136 -82v-829q0 -122 -44 -218.5t-120 -156t-173.5 -90.5t-208.5 -31q-90 0 -171 15.5t-157.5 52.5t-131.5 93t-88.5 143t-33.5 196v793l-498 -1268h-53l-551 1249v-1118l205 -80v-51h-473v51l154 74v1198l-154 59v52h481l445 -1002l393 1002h477v-52
l-156 -59v-807q0 -84 25 -152.5t65 -111.5t93 -72t105.5 -41t105.5 -12q93 0 172.5 41.5t130.5 127t51 198.5v806l-182 82v52h428z" />
    <glyph glyph-name="M_Uacute.liga" unicode="M&#xda;" horiz-adv-x="2717" 
d="M2447 1712l-604 -186l-41 49l344 332h4l297 -185v-10zM2673 1434v-52l-136 -82v-829q0 -122 -44 -218.5t-120 -156t-173.5 -90.5t-208.5 -31q-90 0 -171 15.5t-157.5 52.5t-131.5 93t-88.5 143t-33.5 196v793l-498 -1268h-53l-551 1249v-1118l205 -80v-51h-473v51l154 74
v1198l-154 59v52h481l445 -1002l393 1002h477v-52l-156 -59v-807q0 -84 25 -152.5t65 -111.5t93 -72t105.5 -41t105.5 -12q93 0 172.5 41.5t130.5 127t51 198.5v806l-182 82v52h428z" />
    <glyph glyph-name="M_Ubreve.liga" unicode="M&#x16c;" horiz-adv-x="2717" 
d="M2032 1536q-48 0 -91 10.5t-84 35.5t-71 63t-48 96.5t-18 132.5l72 2q25 -57 90.5 -99t149.5 -42t149 42t92 99l72 -2q0 -91 -26.5 -159t-72.5 -106t-99.5 -55.5t-114.5 -17.5zM2673 1434v-52l-136 -82v-829q0 -122 -44 -218.5t-120 -156t-173.5 -90.5t-208.5 -31
q-90 0 -171 15.5t-157.5 52.5t-131.5 93t-88.5 143t-33.5 196v793l-498 -1268h-53l-551 1249v-1118l205 -80v-51h-473v51l154 74v1198l-154 59v52h481l445 -1002l393 1002h477v-52l-156 -59v-807q0 -84 25 -152.5t65 -111.5t93 -72t105.5 -41t105.5 -12q93 0 172.5 41.5
t130.5 127t51 198.5v806l-182 82v52h428z" />
    <glyph glyph-name="M_Ucircumflex.liga" unicode="M&#xdb;" horiz-adv-x="2717" 
d="M2021 1704l-315 -178l-49 37l225 323h295l221 -321l-49 -39zM2673 1434v-52l-136 -82v-829q0 -122 -44 -218.5t-120 -156t-173.5 -90.5t-208.5 -31q-90 0 -171 15.5t-157.5 52.5t-131.5 93t-88.5 143t-33.5 196v793l-498 -1268h-53l-551 1249v-1118l205 -80v-51h-473v51
l154 74v1198l-154 59v52h481l445 -1002l393 1002h477v-52l-156 -59v-807q0 -84 25 -152.5t65 -111.5t93 -72t105.5 -41t105.5 -12q93 0 172.5 41.5t130.5 127t51 198.5v806l-182 82v52h428z" />
    <glyph glyph-name="M_Udieresis.liga" unicode="M&#xdc;" horiz-adv-x="2717" 
d="M1821 1579q-68 0 -114 45t-46 109t46 108.5t114 44.5q67 0 113 -45t46 -108q0 -64 -46 -109t-113 -45zM2243 1579q-67 0 -113.5 45.5t-46.5 108.5t46.5 108t113.5 45q68 0 113.5 -44.5t45.5 -108.5t-45.5 -109t-113.5 -45zM2673 1434v-52l-136 -82v-829
q0 -122 -44 -218.5t-120 -156t-173.5 -90.5t-208.5 -31q-90 0 -171 15.5t-157.5 52.5t-131.5 93t-88.5 143t-33.5 196v793l-498 -1268h-53l-551 1249v-1118l205 -80v-51h-473v51l154 74v1198l-154 59v52h481l445 -1002l393 1002h477v-52l-156 -59v-807q0 -84 25 -152.5
t65 -111.5t93 -72t105.5 -41t105.5 -12q93 0 172.5 41.5t130.5 127t51 198.5v806l-182 82v52h428z" />
    <glyph glyph-name="M_Ugrave.liga" unicode="M&#xd9;" horiz-adv-x="2717" 
d="M2243 1581l-33 -55l-576 160v8l242 213h4zM2673 1434v-52l-136 -82v-829q0 -122 -44 -218.5t-120 -156t-173.5 -90.5t-208.5 -31q-90 0 -171 15.5t-157.5 52.5t-131.5 93t-88.5 143t-33.5 196v793l-498 -1268h-53l-551 1249v-1118l205 -80v-51h-473v51l154 74v1198
l-154 59v52h481l445 -1002l393 1002h477v-52l-156 -59v-807q0 -84 25 -152.5t65 -111.5t93 -72t105.5 -41t105.5 -12q93 0 172.5 41.5t130.5 127t51 198.5v806l-182 82v52h428z" />
    <glyph glyph-name="M_Uhungarumlaut.liga" unicode="M&#x170;" horiz-adv-x="2717" 
d="M2187 1821l-463 -295l-49 35l164 342h4l344 -70v-12zM2118 1528l-52 41l265 334h4l319 -103v-10zM2673 1434v-52l-136 -82v-829q0 -122 -44 -218.5t-120 -156t-173.5 -90.5t-208.5 -31q-90 0 -171 15.5t-157.5 52.5t-131.5 93t-88.5 143t-33.5 196v793l-498 -1268h-53
l-551 1249v-1118l205 -80v-51h-473v51l154 74v1198l-154 59v52h481l445 -1002l393 1002h477v-52l-156 -59v-807q0 -84 25 -152.5t65 -111.5t93 -72t105.5 -41t105.5 -12q93 0 172.5 41.5t130.5 127t51 198.5v806l-182 82v52h428z" />
    <glyph glyph-name="M_Umacron.liga" unicode="M&#x16a;" horiz-adv-x="2717" 
d="M2318 1786v-164h-571v164h571zM2673 1434v-52l-136 -82v-829q0 -122 -44 -218.5t-120 -156t-173.5 -90.5t-208.5 -31q-90 0 -171 15.5t-157.5 52.5t-131.5 93t-88.5 143t-33.5 196v793l-498 -1268h-53l-551 1249v-1118l205 -80v-51h-473v51l154 74v1198l-154 59v52h481
l445 -1002l393 1002h477v-52l-156 -59v-807q0 -84 25 -152.5t65 -111.5t93 -72t105.5 -41t105.5 -12q93 0 172.5 41.5t130.5 127t51 198.5v806l-182 82v52h428z" />
    <glyph glyph-name="M_Uogonek.liga" unicode="M&#x172;" horiz-adv-x="2717" 
d="M2673 1434v-52l-136 -82v-829q0 -210 -122 -334.5t-316 -152.5q-78 -139 -78 -254q0 -67 45 -99.5t109 -13.5v-61q-53 -32 -120.5 -40t-126 7.5t-98.5 59t-40 106.5q0 36 13.5 70.5t30 59.5t51.5 57t57 49t67 50h-18q-90 0 -171 15.5t-157.5 52.5t-131.5 93t-88.5 143
t-33.5 196v793l-498 -1268h-53l-551 1249v-1118l205 -80v-51h-473v51l154 74v1198l-154 59v52h481l445 -1002l393 1002h477v-52l-156 -59v-807q0 -84 25 -152.5t65 -111.5t93 -72t105.5 -41t105.5 -12q93 0 172.5 41.5t130.5 127t51 198.5v806l-182 82v52h428z" />
    <glyph glyph-name="M_Uring.liga" unicode="M&#x16e;" horiz-adv-x="2717" 
d="M2032 1495q-111 0 -181.5 55t-70.5 148q0 42 15 81.5t44 72.5t78.5 53t112.5 20q112 0 183 -54.5t71 -148.5q0 -92 -64 -159.5t-188 -67.5zM1929 1778q-20 -23 -20 -60q0 -51 37 -79.5t98 -28.5q44 0 86 28q24 27 24 64q0 52 -36 80t-97 28q-54 0 -92 -32zM2673 1434v-52
l-136 -82v-829q0 -122 -44 -218.5t-120 -156t-173.5 -90.5t-208.5 -31q-90 0 -171 15.5t-157.5 52.5t-131.5 93t-88.5 143t-33.5 196v793l-498 -1268h-53l-551 1249v-1118l205 -80v-51h-473v51l154 74v1198l-154 59v52h481l445 -1002l393 1002h477v-52l-156 -59v-807
q0 -84 25 -152.5t65 -111.5t93 -72t105.5 -41t105.5 -12q93 0 172.5 41.5t130.5 127t51 198.5v806l-182 82v52h428z" />
    <glyph glyph-name="M_Utilde.liga" unicode="M&#x168;" horiz-adv-x="2717" 
d="M1853 1673q-22 0 -39 -6t-31 -20.5t-21.5 -24t-20.5 -32.5t-17 -29l-63 20q29 135 89.5 214t147.5 79q47 0 96 -19t83 -42.5t72.5 -42.5t66.5 -19q21 0 38 6t30.5 20.5t21 24.5t20 32.5t17.5 29.5l63 -21q-29 -135 -90.5 -214t-146.5 -79q-59 0 -121 31t-112 61.5
t-83 30.5zM2673 1434v-52l-136 -82v-829q0 -122 -44 -218.5t-120 -156t-173.5 -90.5t-208.5 -31q-90 0 -171 15.5t-157.5 52.5t-131.5 93t-88.5 143t-33.5 196v793l-498 -1268h-53l-551 1249v-1118l205 -80v-51h-473v51l154 74v1198l-154 59v52h481l445 -1002l393 1002h477
v-52l-156 -59v-807q0 -84 25 -152.5t65 -111.5t93 -72t105.5 -41t105.5 -12q93 0 172.5 41.5t130.5 127t51 198.5v806l-182 82v52h428z" />
    <glyph glyph-name="N_N.liga" unicode="NN" horiz-adv-x="2514" 
d="M2486 1434v-52l-155 -73v-1309h-72l-940 1210v-1210h-72l-940 1212v-1081l205 -80v-51h-473v51l156 74v1198l-156 59v52h430l735 -930v819l-153 59v52h430l735 -930v801l-201 77v52h471z" />
    <glyph glyph-name="O_C.liga" unicode="OC" horiz-adv-x="2527" 
d="M2421 365l71 -43q-58 -158 -213.5 -252.5t-334.5 -94.5q-215 0 -369.5 82t-241.5 232q-93 -147 -239 -230.5t-326 -83.5q-102 0 -198.5 25t-186 79.5t-156.5 133t-107 194.5t-40 255q0 215 90.5 396.5t256.5 290.5t372 109q179 0 335 -78.5t244 -232.5
q99 142 249.5 226.5t336.5 84.5q125 0 245.5 -44.5t196.5 -113.5v-385h-73q-60 181 -176 289.5t-261 108.5q-151 0 -288 -111q-125 -195 -125 -407q0 -131 44 -254.5t117.5 -214.5t175 -146t210.5 -55q100 0 213 63t178 177zM1085 213q129 218 129 420q0 152 -39 280.5
t-105.5 214t-153.5 132.5t-183 47q-145 0 -252 -86q-129 -218 -129 -420q0 -152 39.5 -280.5t105.5 -214t153.5 -132.5t183.5 -47q144 0 251 86z" />
    <glyph glyph-name="O_C_A.liga" unicode="OCA" horiz-adv-x="3727" 
d="M3586 104l131 -53v-51h-602v51l176 53l-170 410h-536l-62 -152q-154 -387 -579 -387q-215 0 -369.5 82t-241.5 232q-93 -147 -239 -230.5t-326 -83.5q-102 0 -198.5 25t-186 79.5t-156.5 133t-107 194.5t-40 255q0 215 90.5 396.5t256.5 290.5t372 109q179 0 335 -78.5
t244 -232.5q99 142 249.5 226.5t336.5 84.5q125 0 245.5 -44.5t196.5 -113.5v-385h-73q-60 181 -176 289.5t-261 108.5q-151 0 -288 -111q-125 -195 -125 -407q0 -131 44 -254.5t117.5 -214.5t175 -146t210.5 -55q278 0 393 283l420 1026h192zM1085 213q129 218 129 420
q0 152 -39 280.5t-105.5 214t-153.5 132.5t-183 47q-145 0 -252 -86q-129 -218 -129 -420q0 -152 39.5 -280.5t105.5 -214t153.5 -132.5t183.5 -47q144 0 251 86zM2630 625h446l-225 544z" />
    <glyph glyph-name="O_Cacute.liga" unicode="O&#x106;" horiz-adv-x="2527" 
d="M2380 1712l-604 -186l-41 49l344 332h4l297 -185v-10zM2421 365l71 -43q-58 -158 -213.5 -252.5t-334.5 -94.5q-215 0 -369.5 82t-241.5 232q-93 -147 -239 -230.5t-326 -83.5q-102 0 -198.5 25t-186 79.5t-156.5 133t-107 194.5t-40 255q0 215 90.5 396.5t256.5 290.5
t372 109q179 0 335 -78.5t244 -232.5q99 142 249.5 226.5t336.5 84.5q125 0 245.5 -44.5t196.5 -113.5v-385h-73q-60 181 -176 289.5t-261 108.5q-151 0 -288 -111q-125 -195 -125 -407q0 -131 44 -254.5t117.5 -214.5t175 -146t210.5 -55q100 0 213 63t178 177zM1085 213
q129 218 129 420q0 152 -39 280.5t-105.5 214t-153.5 132.5t-183 47q-145 0 -252 -86q-129 -218 -129 -420q0 -152 39.5 -280.5t105.5 -214t153.5 -132.5t183.5 -47q144 0 251 86z" />
    <glyph glyph-name="O_Ccaron.liga" unicode="O&#x10c;" horiz-adv-x="2527" 
d="M1819 1546l-224 322l50 39l327 -178l316 178l49 -37l-223 -324h-295zM2421 365l71 -43q-58 -158 -213.5 -252.5t-334.5 -94.5q-215 0 -369.5 82t-241.5 232q-93 -147 -239 -230.5t-326 -83.5q-102 0 -198.5 25t-186 79.5t-156.5 133t-107 194.5t-40 255q0 215 90.5 396.5
t256.5 290.5t372 109q179 0 335 -78.5t244 -232.5q99 142 249.5 226.5t336.5 84.5q125 0 245.5 -44.5t196.5 -113.5v-385h-73q-60 181 -176 289.5t-261 108.5q-151 0 -288 -111q-125 -195 -125 -407q0 -131 44 -254.5t117.5 -214.5t175 -146t210.5 -55q100 0 213 63t178 177
zM1085 213q129 218 129 420q0 152 -39 280.5t-105.5 214t-153.5 132.5t-183 47q-145 0 -252 -86q-129 -218 -129 -420q0 -152 39.5 -280.5t105.5 -214t153.5 -132.5t183.5 -47q144 0 251 86z" />
    <glyph glyph-name="O_Ccedilla.liga" unicode="O&#xc7;" horiz-adv-x="2527" 
d="M1944 -25h-25l-41 -59q203 -54 203 -199q0 -74 -60.5 -128t-150.5 -69t-193 5v63q42 -2 70.5 1t54.5 12.5t38.5 31t12.5 54.5q0 68 -75 84l-84 14l-2 4l125 195q-332 43 -484 305q-93 -147 -239 -230.5t-326 -83.5q-102 0 -198.5 25t-186 79.5t-156.5 133t-107 194.5
t-40 255q0 215 90.5 396.5t256.5 290.5t372 109q179 0 335 -78.5t244 -232.5q99 142 249.5 226.5t336.5 84.5q125 0 245.5 -44.5t196.5 -113.5v-385h-73q-60 181 -176 289.5t-261 108.5q-151 0 -288 -111q-125 -195 -125 -407q0 -131 44 -254.5t117.5 -214.5t175 -146
t210.5 -55q100 0 213 63t178 177l71 -43q-58 -158 -213.5 -252.5t-334.5 -94.5zM1085 213q129 218 129 420q0 152 -39 280.5t-105.5 214t-153.5 132.5t-183 47q-145 0 -252 -86q-129 -218 -129 -420q0 -152 39.5 -280.5t105.5 -214t153.5 -132.5t183.5 -47q144 0 251 86z
" />
    <glyph glyph-name="O_Ccircumflex.liga" unicode="O&#x108;" horiz-adv-x="2527" 
d="M1954 1704l-316 -178l-49 37l226 323h294l222 -321l-50 -39zM2421 365l71 -43q-58 -158 -213.5 -252.5t-334.5 -94.5q-215 0 -369.5 82t-241.5 232q-93 -147 -239 -230.5t-326 -83.5q-102 0 -198.5 25t-186 79.5t-156.5 133t-107 194.5t-40 255q0 215 90.5 396.5
t256.5 290.5t372 109q179 0 335 -78.5t244 -232.5q99 142 249.5 226.5t336.5 84.5q125 0 245.5 -44.5t196.5 -113.5v-385h-73q-60 181 -176 289.5t-261 108.5q-151 0 -288 -111q-125 -195 -125 -407q0 -131 44 -254.5t117.5 -214.5t175 -146t210.5 -55q100 0 213 63t178 177
zM1085 213q129 218 129 420q0 152 -39 280.5t-105.5 214t-153.5 132.5t-183 47q-145 0 -252 -86q-129 -218 -129 -420q0 -152 39.5 -280.5t105.5 -214t153.5 -132.5t183.5 -47q144 0 251 86z" />
    <glyph glyph-name="O_Cdotaccent.liga" unicode="O&#x10a;" horiz-adv-x="2527" 
d="M1964 1571q-74 0 -121 47.5t-47 114.5t47 114t121 47q75 0 122.5 -46.5t47.5 -114.5t-47.5 -115t-122.5 -47zM2421 365l71 -43q-58 -158 -213.5 -252.5t-334.5 -94.5q-215 0 -369.5 82t-241.5 232q-93 -147 -239 -230.5t-326 -83.5q-102 0 -198.5 25t-186 79.5
t-156.5 133t-107 194.5t-40 255q0 215 90.5 396.5t256.5 290.5t372 109q179 0 335 -78.5t244 -232.5q99 142 249.5 226.5t336.5 84.5q125 0 245.5 -44.5t196.5 -113.5v-385h-73q-60 181 -176 289.5t-261 108.5q-151 0 -288 -111q-125 -195 -125 -407q0 -131 44 -254.5
t117.5 -214.5t175 -146t210.5 -55q100 0 213 63t178 177zM1085 213q129 218 129 420q0 152 -39 280.5t-105.5 214t-153.5 132.5t-183 47q-145 0 -252 -86q-129 -218 -129 -420q0 -152 39.5 -280.5t105.5 -214t153.5 -132.5t183.5 -47q144 0 251 86z" />
    <glyph glyph-name="O_G.liga" unicode="OG" horiz-adv-x="2660" 
d="M2640 739v-51l-131 -70v-618h-60l-133 147q-78 -81 -181 -126.5t-218 -45.5q-210 0 -357.5 82t-228.5 228q-94 -144 -239.5 -227t-323.5 -83q-102 0 -198.5 25t-186 79.5t-156.5 133t-107 194.5t-40 255q0 215 90.5 396.5t256.5 290.5t372 109q179 0 336 -79t245 -234
q97 144 249.5 228.5t346.5 84.5q149 0 282.5 -40.5t207.5 -106.5v-365h-76q-64 175 -194 271t-293 96q-169 0 -306 -127q-110 -168 -110 -402q0 -127 41.5 -248t111 -212t165.5 -146t200 -55q134 0 244 76v407l-258 82v51h649zM1085 213q129 218 129 420q0 152 -39 280.5
t-105.5 214t-153.5 132.5t-183 47q-145 0 -252 -86q-129 -218 -129 -420q0 -152 39.5 -280.5t105.5 -214t153.5 -132.5t183.5 -47q144 0 251 86z" />
    <glyph glyph-name="O_Gbreve.liga" unicode="O&#x11e;" horiz-adv-x="2660" 
d="M1958 1536q-60 0 -113 18t-99 55.5t-72.5 105.5t-26.5 159l71 2q25 -57 90.5 -99t149.5 -42t149.5 42t92.5 99l71 -2q0 -91 -26.5 -159t-72.5 -106t-99.5 -55.5t-114.5 -17.5zM2640 739v-51l-131 -70v-618h-60l-133 147q-78 -81 -181 -126.5t-218 -45.5q-210 0 -357.5 82
t-228.5 228q-94 -144 -239.5 -227t-323.5 -83q-102 0 -198.5 25t-186 79.5t-156.5 133t-107 194.5t-40 255q0 215 90.5 396.5t256.5 290.5t372 109q179 0 336 -79t245 -234q97 144 249.5 228.5t346.5 84.5q149 0 282.5 -40.5t207.5 -106.5v-365h-76q-64 175 -194 271
t-293 96q-169 0 -306 -127q-110 -168 -110 -402q0 -127 41.5 -248t111 -212t165.5 -146t200 -55q134 0 244 76v407l-258 82v51h649zM1085 213q129 218 129 420q0 152 -39 280.5t-105.5 214t-153.5 132.5t-183 47q-145 0 -252 -86q-129 -218 -129 -420q0 -152 39.5 -280.5
t105.5 -214t153.5 -132.5t183.5 -47q144 0 251 86z" />
    <glyph glyph-name="O_Gcircumflex.liga" unicode="O&#x11c;" horiz-adv-x="2660" 
d="M1948 1704l-316 -178l-49 37l225 323h295l221 -321l-49 -39zM2640 739v-51l-131 -70v-618h-60l-133 147q-78 -81 -181 -126.5t-218 -45.5q-210 0 -357.5 82t-228.5 228q-94 -144 -239.5 -227t-323.5 -83q-102 0 -198.5 25t-186 79.5t-156.5 133t-107 194.5t-40 255
q0 215 90.5 396.5t256.5 290.5t372 109q179 0 336 -79t245 -234q97 144 249.5 228.5t346.5 84.5q149 0 282.5 -40.5t207.5 -106.5v-365h-76q-64 175 -194 271t-293 96q-169 0 -306 -127q-110 -168 -110 -402q0 -127 41.5 -248t111 -212t165.5 -146t200 -55q134 0 244 76v407
l-258 82v51h649zM1085 213q129 218 129 420q0 152 -39 280.5t-105.5 214t-153.5 132.5t-183 47q-145 0 -252 -86q-129 -218 -129 -420q0 -152 39.5 -280.5t105.5 -214t153.5 -132.5t183.5 -47q144 0 251 86z" />
    <glyph glyph-name="O_Gcommaaccent.liga" unicode="O&#x122;" horiz-adv-x="2660" 
d="M2640 739v-51l-131 -70v-618h-60l-133 147q-78 -81 -181 -126.5t-218 -45.5q-210 0 -357.5 82t-228.5 228q-94 -144 -239.5 -227t-323.5 -83q-102 0 -198.5 25t-186 79.5t-156.5 133t-107 194.5t-40 255q0 215 90.5 396.5t256.5 290.5t372 109q179 0 336 -79t245 -234
q97 144 249.5 228.5t346.5 84.5q149 0 282.5 -40.5t207.5 -106.5v-365h-76q-64 175 -194 271t-293 96q-169 0 -306 -127q-110 -168 -110 -402q0 -127 41.5 -248t111 -212t165.5 -146t200 -55q134 0 244 76v407l-258 82v51h649zM1085 213q129 218 129 420q0 152 -39 280.5
t-105.5 214t-153.5 132.5t-183 47q-145 0 -252 -86q-129 -218 -129 -420q0 -152 39.5 -280.5t105.5 -214t153.5 -132.5t183.5 -47q144 0 251 86zM2009 -72q53 -50 71.5 -114t2.5 -125t-76 -114t-154 -79l-45 33q53 49 47.5 153t-67.5 166v2z" />
    <glyph glyph-name="O_Gdotaccent.liga" unicode="O&#x120;" horiz-adv-x="2660" 
d="M1960 1571q-74 0 -121 47.5t-47 114.5t47 114t121 47q75 0 122.5 -46.5t47.5 -114.5t-47.5 -115t-122.5 -47zM2640 739v-51l-131 -70v-618h-60l-133 147q-78 -81 -181 -126.5t-218 -45.5q-210 0 -357.5 82t-228.5 228q-94 -144 -239.5 -227t-323.5 -83q-102 0 -198.5 25
t-186 79.5t-156.5 133t-107 194.5t-40 255q0 215 90.5 396.5t256.5 290.5t372 109q179 0 336 -79t245 -234q97 144 249.5 228.5t346.5 84.5q149 0 282.5 -40.5t207.5 -106.5v-365h-76q-64 175 -194 271t-293 96q-169 0 -306 -127q-110 -168 -110 -402q0 -127 41.5 -248
t111 -212t165.5 -146t200 -55q134 0 244 76v407l-258 82v51h649zM1085 213q129 218 129 420q0 152 -39 280.5t-105.5 214t-153.5 132.5t-183 47q-145 0 -252 -86q-129 -218 -129 -420q0 -152 39.5 -280.5t105.5 -214t153.5 -132.5t183.5 -47q144 0 251 86z" />
    <glyph glyph-name="O_O.liga" unicode="OO" horiz-adv-x="2701" 
d="M1933 1458q102 0 199.5 -25t187 -79.5t156.5 -133t107 -194t40 -254.5q0 -161 -53.5 -306.5t-147 -254t-229 -172.5t-290.5 -64q-177 0 -331.5 77t-242.5 227q-95 -141 -240 -222.5t-321 -81.5q-102 0 -198.5 25t-186 79.5t-156.5 133t-107 194.5t-40 255
q0 215 90.5 396.5t256.5 290.5t372 109q177 0 331 -76.5t244 -226.5q95 142 238.5 222.5t320.5 80.5zM1085 213q129 218 129 420q0 152 -39 280.5t-105.5 214t-153.5 132.5t-183 47q-145 0 -252 -86q-129 -218 -129 -420q0 -152 39.5 -280.5t105.5 -214t153.5 -132.5
t183.5 -47q144 0 251 86zM2220 213q131 215 131 420q0 153 -39 281t-105.5 213.5t-154 132.5t-184.5 47q-145 0 -252 -86q-129 -218 -129 -420q0 -152 39 -280.5t105.5 -214t153.5 -132.5t183 -47q145 0 252 86z" />
    <glyph glyph-name="O_Q.liga" unicode="OQ" horiz-adv-x="2701" 
d="M2097 2q100 -133 232.5 -195t273.5 -18l20 -55q-167 -76 -321.5 -69t-283 79t-224.5 199l-35 47q-136 26 -248.5 98.5t-181.5 190.5q-95 -141 -240 -222.5t-321 -81.5q-102 0 -198.5 25t-186 79.5t-156.5 133t-107 194.5t-40 255q0 215 90.5 396.5t256.5 290.5t372 109
q177 0 331 -76.5t244 -226.5q95 142 238.5 222.5t320.5 80.5q102 0 199.5 -25t187 -79.5t156.5 -133t107 -194t40 -254.5q0 -273 -145 -487t-381 -283zM1085 213q129 218 129 420q0 152 -39 280.5t-105.5 214t-153.5 132.5t-183 47q-145 0 -252 -86q-129 -218 -129 -420
q0 -152 39.5 -280.5t105.5 -214t153.5 -132.5t183.5 -47q144 0 251 86zM1487 801q0 -152 39 -280.5t105.5 -214t153.5 -132.5t183 -47q145 0 252 86q131 215 131 420q0 153 -39 281t-105.5 213.5t-154 132.5t-184.5 47q-145 0 -252 -86q-129 -218 -129 -420z" />
    <glyph glyph-name="Oacute_C.liga" unicode="&#xd3;C" horiz-adv-x="2527" 
d="M1219 1712l-605 -186l-41 49l345 332h4l297 -185v-10zM2421 365l71 -43q-58 -158 -213.5 -252.5t-334.5 -94.5q-215 0 -369.5 82t-241.5 232q-93 -147 -239 -230.5t-326 -83.5q-102 0 -198.5 25t-186 79.5t-156.5 133t-107 194.5t-40 255q0 215 90.5 396.5t256.5 290.5
t372 109q179 0 335 -78.5t244 -232.5q99 142 249.5 226.5t336.5 84.5q125 0 245.5 -44.5t196.5 -113.5v-385h-73q-60 181 -176 289.5t-261 108.5q-151 0 -288 -111q-125 -195 -125 -407q0 -131 44 -254.5t117.5 -214.5t175 -146t210.5 -55q100 0 213 63t178 177zM1085 213
q129 218 129 420q0 152 -39 280.5t-105.5 214t-153.5 132.5t-183 47q-145 0 -252 -86q-129 -218 -129 -420q0 -152 39.5 -280.5t105.5 -214t153.5 -132.5t183.5 -47q144 0 251 86z" />
    <glyph glyph-name="Oacute_G.liga" unicode="&#xd3;G" horiz-adv-x="2660" 
d="M1219 1712l-605 -186l-41 49l345 332h4l297 -185v-10zM2640 739v-51l-131 -70v-618h-60l-133 147q-78 -81 -181 -126.5t-218 -45.5q-210 0 -357.5 82t-228.5 228q-94 -144 -239.5 -227t-323.5 -83q-102 0 -198.5 25t-186 79.5t-156.5 133t-107 194.5t-40 255
q0 215 90.5 396.5t256.5 290.5t372 109q179 0 336 -79t245 -234q97 144 249.5 228.5t346.5 84.5q149 0 282.5 -40.5t207.5 -106.5v-365h-76q-64 175 -194 271t-293 96q-169 0 -306 -127q-110 -168 -110 -402q0 -127 41.5 -248t111 -212t165.5 -146t200 -55q134 0 244 76v407
l-258 82v51h649zM1085 213q129 218 129 420q0 152 -39 280.5t-105.5 214t-153.5 132.5t-183 47q-145 0 -252 -86q-129 -218 -129 -420q0 -152 39.5 -280.5t105.5 -214t153.5 -132.5t183.5 -47q144 0 251 86z" />
    <glyph glyph-name="Obreve_C.liga" unicode="&#x14e;C" horiz-adv-x="2527" 
d="M801 1536q-48 0 -91 10.5t-84 35.5t-71 63t-48 96.5t-18 132.5l72 2q25 -57 90.5 -99t149.5 -42t149 42t92 99l72 -2q0 -91 -26.5 -159t-72.5 -106t-99.5 -55.5t-114.5 -17.5zM2421 365l71 -43q-58 -158 -213.5 -252.5t-334.5 -94.5q-215 0 -369.5 82t-241.5 232
q-93 -147 -239 -230.5t-326 -83.5q-102 0 -198.5 25t-186 79.5t-156.5 133t-107 194.5t-40 255q0 215 90.5 396.5t256.5 290.5t372 109q179 0 335 -78.5t244 -232.5q99 142 249.5 226.5t336.5 84.5q125 0 245.5 -44.5t196.5 -113.5v-385h-73q-60 181 -176 289.5t-261 108.5
q-151 0 -288 -111q-125 -195 -125 -407q0 -131 44 -254.5t117.5 -214.5t175 -146t210.5 -55q100 0 213 63t178 177zM1085 213q129 218 129 420q0 152 -39 280.5t-105.5 214t-153.5 132.5t-183 47q-145 0 -252 -86q-129 -218 -129 -420q0 -152 39.5 -280.5t105.5 -214
t153.5 -132.5t183.5 -47q144 0 251 86z" />
    <glyph glyph-name="Obreve_G.liga" unicode="&#x14e;G" horiz-adv-x="2660" 
d="M801 1536q-48 0 -91 10.5t-84 35.5t-71 63t-48 96.5t-18 132.5l72 2q25 -57 90.5 -99t149.5 -42t149 42t92 99l72 -2q0 -91 -26.5 -159t-72.5 -106t-99.5 -55.5t-114.5 -17.5zM2640 739v-51l-131 -70v-618h-60l-133 147q-78 -81 -181 -126.5t-218 -45.5q-210 0 -357.5 82
t-228.5 228q-94 -144 -239.5 -227t-323.5 -83q-102 0 -198.5 25t-186 79.5t-156.5 133t-107 194.5t-40 255q0 215 90.5 396.5t256.5 290.5t372 109q179 0 336 -79t245 -234q97 144 249.5 228.5t346.5 84.5q149 0 282.5 -40.5t207.5 -106.5v-365h-76q-64 175 -194 271
t-293 96q-169 0 -306 -127q-110 -168 -110 -402q0 -127 41.5 -248t111 -212t165.5 -146t200 -55q134 0 244 76v407l-258 82v51h649zM1085 213q129 218 129 420q0 152 -39 280.5t-105.5 214t-153.5 132.5t-183 47q-145 0 -252 -86q-129 -218 -129 -420q0 -152 39.5 -280.5
t105.5 -214t153.5 -132.5t183.5 -47q144 0 251 86z" />
    <glyph glyph-name="Ocircumflex_C.liga" unicode="&#xd4;C" horiz-adv-x="2527" 
d="M791 1704l-316 -178l-49 37l225 323h295l221 -321l-49 -39zM2421 365l71 -43q-58 -158 -213.5 -252.5t-334.5 -94.5q-215 0 -369.5 82t-241.5 232q-93 -147 -239 -230.5t-326 -83.5q-102 0 -198.5 25t-186 79.5t-156.5 133t-107 194.5t-40 255q0 215 90.5 396.5
t256.5 290.5t372 109q179 0 335 -78.5t244 -232.5q99 142 249.5 226.5t336.5 84.5q125 0 245.5 -44.5t196.5 -113.5v-385h-73q-60 181 -176 289.5t-261 108.5q-151 0 -288 -111q-125 -195 -125 -407q0 -131 44 -254.5t117.5 -214.5t175 -146t210.5 -55q100 0 213 63t178 177
zM1085 213q129 218 129 420q0 152 -39 280.5t-105.5 214t-153.5 132.5t-183 47q-145 0 -252 -86q-129 -218 -129 -420q0 -152 39.5 -280.5t105.5 -214t153.5 -132.5t183.5 -47q144 0 251 86z" />
    <glyph glyph-name="Ocircumflex_G.liga" unicode="&#xd4;G" horiz-adv-x="2660" 
d="M791 1704l-316 -178l-49 37l225 323h295l221 -321l-49 -39zM2640 739v-51l-131 -70v-618h-60l-133 147q-78 -81 -181 -126.5t-218 -45.5q-210 0 -357.5 82t-228.5 228q-94 -144 -239.5 -227t-323.5 -83q-102 0 -198.5 25t-186 79.5t-156.5 133t-107 194.5t-40 255
q0 215 90.5 396.5t256.5 290.5t372 109q179 0 336 -79t245 -234q97 144 249.5 228.5t346.5 84.5q149 0 282.5 -40.5t207.5 -106.5v-365h-76q-64 175 -194 271t-293 96q-169 0 -306 -127q-110 -168 -110 -402q0 -127 41.5 -248t111 -212t165.5 -146t200 -55q134 0 244 76v407
l-258 82v51h649zM1085 213q129 218 129 420q0 152 -39 280.5t-105.5 214t-153.5 132.5t-183 47q-145 0 -252 -86q-129 -218 -129 -420q0 -152 39.5 -280.5t105.5 -214t153.5 -132.5t183.5 -47q144 0 251 86z" />
    <glyph glyph-name="Odieresis_C.liga" unicode="&#xd6;C" horiz-adv-x="2527" 
d="M592 1579q-68 0 -114 45t-46 109t46 108.5t114 44.5q67 0 113.5 -45t46.5 -108t-46.5 -108.5t-113.5 -45.5zM1014 1579q-67 0 -113.5 45.5t-46.5 108.5t46.5 108t113.5 45q68 0 114 -44.5t46 -108.5t-46 -109t-114 -45zM2421 365l71 -43q-58 -158 -213.5 -252.5
t-334.5 -94.5q-215 0 -369.5 82t-241.5 232q-93 -147 -239 -230.5t-326 -83.5q-102 0 -198.5 25t-186 79.5t-156.5 133t-107 194.5t-40 255q0 215 90.5 396.5t256.5 290.5t372 109q179 0 335 -78.5t244 -232.5q99 142 249.5 226.5t336.5 84.5q125 0 245.5 -44.5
t196.5 -113.5v-385h-73q-60 181 -176 289.5t-261 108.5q-151 0 -288 -111q-125 -195 -125 -407q0 -131 44 -254.5t117.5 -214.5t175 -146t210.5 -55q100 0 213 63t178 177zM1085 213q129 218 129 420q0 152 -39 280.5t-105.5 214t-153.5 132.5t-183 47q-145 0 -252 -86
q-129 -218 -129 -420q0 -152 39.5 -280.5t105.5 -214t153.5 -132.5t183.5 -47q144 0 251 86z" />
    <glyph glyph-name="Odieresis_G.liga" unicode="&#xd6;G" horiz-adv-x="2660" 
d="M592 1579q-68 0 -114 45t-46 109t46 108.5t114 44.5q67 0 113.5 -45t46.5 -108t-46.5 -108.5t-113.5 -45.5zM1014 1579q-67 0 -113.5 45.5t-46.5 108.5t46.5 108t113.5 45q68 0 114 -44.5t46 -108.5t-46 -109t-114 -45zM2640 739v-51l-131 -70v-618h-60l-133 147
q-78 -81 -181 -126.5t-218 -45.5q-210 0 -357.5 82t-228.5 228q-94 -144 -239.5 -227t-323.5 -83q-102 0 -198.5 25t-186 79.5t-156.5 133t-107 194.5t-40 255q0 215 90.5 396.5t256.5 290.5t372 109q179 0 336 -79t245 -234q97 144 249.5 228.5t346.5 84.5
q149 0 282.5 -40.5t207.5 -106.5v-365h-76q-64 175 -194 271t-293 96q-169 0 -306 -127q-110 -168 -110 -402q0 -127 41.5 -248t111 -212t165.5 -146t200 -55q134 0 244 76v407l-258 82v51h649zM1085 213q129 218 129 420q0 152 -39 280.5t-105.5 214t-153.5 132.5t-183 47
q-145 0 -252 -86q-129 -218 -129 -420q0 -152 39.5 -280.5t105.5 -214t153.5 -132.5t183.5 -47q144 0 251 86z" />
    <glyph glyph-name="Ograve_C.liga" unicode="&#xd2;C" horiz-adv-x="2527" 
d="M1014 1581l-33 -55l-575 160v8l241 213h4zM2421 365l71 -43q-58 -158 -213.5 -252.5t-334.5 -94.5q-215 0 -369.5 82t-241.5 232q-93 -147 -239 -230.5t-326 -83.5q-102 0 -198.5 25t-186 79.5t-156.5 133t-107 194.5t-40 255q0 215 90.5 396.5t256.5 290.5t372 109
q179 0 335 -78.5t244 -232.5q99 142 249.5 226.5t336.5 84.5q125 0 245.5 -44.5t196.5 -113.5v-385h-73q-60 181 -176 289.5t-261 108.5q-151 0 -288 -111q-125 -195 -125 -407q0 -131 44 -254.5t117.5 -214.5t175 -146t210.5 -55q100 0 213 63t178 177zM1085 213
q129 218 129 420q0 152 -39 280.5t-105.5 214t-153.5 132.5t-183 47q-145 0 -252 -86q-129 -218 -129 -420q0 -152 39.5 -280.5t105.5 -214t153.5 -132.5t183.5 -47q144 0 251 86z" />
    <glyph glyph-name="Ograve_G.liga" unicode="&#xd2;G" horiz-adv-x="2660" 
d="M1014 1581l-33 -55l-575 160v8l241 213h4zM2640 739v-51l-131 -70v-618h-60l-133 147q-78 -81 -181 -126.5t-218 -45.5q-210 0 -357.5 82t-228.5 228q-94 -144 -239.5 -227t-323.5 -83q-102 0 -198.5 25t-186 79.5t-156.5 133t-107 194.5t-40 255q0 215 90.5 396.5
t256.5 290.5t372 109q179 0 336 -79t245 -234q97 144 249.5 228.5t346.5 84.5q149 0 282.5 -40.5t207.5 -106.5v-365h-76q-64 175 -194 271t-293 96q-169 0 -306 -127q-110 -168 -110 -402q0 -127 41.5 -248t111 -212t165.5 -146t200 -55q134 0 244 76v407l-258 82v51h649z
M1085 213q129 218 129 420q0 152 -39 280.5t-105.5 214t-153.5 132.5t-183 47q-145 0 -252 -86q-129 -218 -129 -420q0 -152 39.5 -280.5t105.5 -214t153.5 -132.5t183.5 -47q144 0 251 86z" />
    <glyph glyph-name="Ohungarumlaut_C.liga" unicode="&#x150;C" horiz-adv-x="2527" 
d="M958 1821l-462 -295l-50 35l164 342h4l344 -70v-12zM889 1528l-51 41l264 334h4l319 -103v-10zM2421 365l71 -43q-58 -158 -213.5 -252.5t-334.5 -94.5q-215 0 -369.5 82t-241.5 232q-93 -147 -239 -230.5t-326 -83.5q-102 0 -198.5 25t-186 79.5t-156.5 133t-107 194.5
t-40 255q0 215 90.5 396.5t256.5 290.5t372 109q179 0 335 -78.5t244 -232.5q99 142 249.5 226.5t336.5 84.5q125 0 245.5 -44.5t196.5 -113.5v-385h-73q-60 181 -176 289.5t-261 108.5q-151 0 -288 -111q-125 -195 -125 -407q0 -131 44 -254.5t117.5 -214.5t175 -146
t210.5 -55q100 0 213 63t178 177zM1085 213q129 218 129 420q0 152 -39 280.5t-105.5 214t-153.5 132.5t-183 47q-145 0 -252 -86q-129 -218 -129 -420q0 -152 39.5 -280.5t105.5 -214t153.5 -132.5t183.5 -47q144 0 251 86z" />
    <glyph glyph-name="Ohungarumlaut_G.liga" unicode="&#x150;G" horiz-adv-x="2660" 
d="M958 1821l-462 -295l-50 35l164 342h4l344 -70v-12zM889 1528l-51 41l264 334h4l319 -103v-10zM2640 739v-51l-131 -70v-618h-60l-133 147q-78 -81 -181 -126.5t-218 -45.5q-210 0 -357.5 82t-228.5 228q-94 -144 -239.5 -227t-323.5 -83q-102 0 -198.5 25t-186 79.5
t-156.5 133t-107 194.5t-40 255q0 215 90.5 396.5t256.5 290.5t372 109q179 0 336 -79t245 -234q97 144 249.5 228.5t346.5 84.5q149 0 282.5 -40.5t207.5 -106.5v-365h-76q-64 175 -194 271t-293 96q-169 0 -306 -127q-110 -168 -110 -402q0 -127 41.5 -248t111 -212
t165.5 -146t200 -55q134 0 244 76v407l-258 82v51h649zM1085 213q129 218 129 420q0 152 -39 280.5t-105.5 214t-153.5 132.5t-183 47q-145 0 -252 -86q-129 -218 -129 -420q0 -152 39.5 -280.5t105.5 -214t153.5 -132.5t183.5 -47q144 0 251 86z" />
    <glyph glyph-name="Omacron_C.liga" unicode="&#x14c;C" horiz-adv-x="2527" 
d="M1087 1786v-164h-571v164h571zM2421 365l71 -43q-58 -158 -213.5 -252.5t-334.5 -94.5q-215 0 -369.5 82t-241.5 232q-93 -147 -239 -230.5t-326 -83.5q-102 0 -198.5 25t-186 79.5t-156.5 133t-107 194.5t-40 255q0 215 90.5 396.5t256.5 290.5t372 109q179 0 335 -78.5
t244 -232.5q99 142 249.5 226.5t336.5 84.5q125 0 245.5 -44.5t196.5 -113.5v-385h-73q-60 181 -176 289.5t-261 108.5q-151 0 -288 -111q-125 -195 -125 -407q0 -131 44 -254.5t117.5 -214.5t175 -146t210.5 -55q100 0 213 63t178 177zM1085 213q129 218 129 420
q0 152 -39 280.5t-105.5 214t-153.5 132.5t-183 47q-145 0 -252 -86q-129 -218 -129 -420q0 -152 39.5 -280.5t105.5 -214t153.5 -132.5t183.5 -47q144 0 251 86z" />
    <glyph glyph-name="Omacron_G.liga" unicode="&#x14c;G" horiz-adv-x="2660" 
d="M1087 1786v-164h-571v164h571zM2640 739v-51l-131 -70v-618h-60l-133 147q-78 -81 -181 -126.5t-218 -45.5q-210 0 -357.5 82t-228.5 228q-94 -144 -239.5 -227t-323.5 -83q-102 0 -198.5 25t-186 79.5t-156.5 133t-107 194.5t-40 255q0 215 90.5 396.5t256.5 290.5
t372 109q179 0 336 -79t245 -234q97 144 249.5 228.5t346.5 84.5q149 0 282.5 -40.5t207.5 -106.5v-365h-76q-64 175 -194 271t-293 96q-169 0 -306 -127q-110 -168 -110 -402q0 -127 41.5 -248t111 -212t165.5 -146t200 -55q134 0 244 76v407l-258 82v51h649zM1085 213
q129 218 129 420q0 152 -39 280.5t-105.5 214t-153.5 132.5t-183 47q-145 0 -252 -86q-129 -218 -129 -420q0 -152 39.5 -280.5t105.5 -214t153.5 -132.5t183.5 -47q144 0 251 86z" />
    <glyph glyph-name="Oslash_C.liga" unicode="&#xd8;C" horiz-adv-x="2527" 
d="M2421 365l71 -43q-58 -158 -213.5 -252.5t-334.5 -94.5q-215 0 -369.5 82t-241.5 232q-93 -147 -239 -230.5t-326 -83.5q-223 0 -397 111l-142 -186l-88 63l144 189q-205 188 -205 510q0 215 90.5 396.5t256.5 290.5t372 109q221 0 393 -112l141 186l88 -64l-145 -190
q56 -53 102 -131q99 142 249.5 226.5t336.5 84.5q125 0 245.5 -44.5t196.5 -113.5v-385h-73q-60 181 -176 289.5t-261 108.5q-151 0 -288 -111q-125 -195 -125 -407q0 -131 44 -254.5t117.5 -214.5t175 -146t210.5 -55q100 0 213 63t178 177zM352 801q0 -244 101 -428
l594 782q-133 152 -314 152q-145 0 -252 -86q-129 -218 -129 -420zM1085 213q129 218 129 420q0 248 -102 428l-594 -780q132 -154 316 -154q144 0 251 86z" />
    <glyph glyph-name="Oslash_G.liga" unicode="&#xd8;G" horiz-adv-x="2660" 
d="M2640 739v-51l-131 -70v-618h-60l-133 147q-78 -81 -181 -126.5t-218 -45.5q-210 0 -357.5 82t-228.5 228q-94 -144 -239.5 -227t-323.5 -83q-223 0 -397 111l-142 -186l-88 63l144 189q-205 188 -205 510q0 215 90.5 396.5t256.5 290.5t372 109q221 0 393 -112l141 186
l88 -64l-145 -190q58 -53 104 -133q97 144 249.5 228.5t346.5 84.5q149 0 282.5 -40.5t207.5 -106.5v-365h-76q-64 175 -194 271t-293 96q-169 0 -306 -127q-110 -168 -110 -402q0 -127 41.5 -248t111 -212t165.5 -146t200 -55q134 0 244 76v407l-258 82v51h649zM352 801
q0 -244 101 -428l594 782q-133 152 -314 152q-145 0 -252 -86q-129 -218 -129 -420zM1085 213q129 218 129 420q0 248 -102 428l-594 -780q132 -154 316 -154q144 0 251 86z" />
    <glyph glyph-name="Otilde_C.liga" unicode="&#xd5;C" horiz-adv-x="2527" 
d="M623 1673q-22 0 -39 -6t-31 -20.5t-21.5 -24t-20.5 -32.5t-17 -29l-64 20q29 135 90 214t148 79q47 0 96 -19t82.5 -42.5t72 -42.5t66.5 -19q21 0 38 6t30.5 20.5t21 24.5t20 32.5t17.5 29.5l64 -21q-29 -134 -91 -213.5t-147 -79.5q-47 0 -96 19t-83 42.5t-71.5 42.5
t-64.5 19zM2421 365l71 -43q-58 -158 -213.5 -252.5t-334.5 -94.5q-215 0 -369.5 82t-241.5 232q-93 -147 -239 -230.5t-326 -83.5q-102 0 -198.5 25t-186 79.5t-156.5 133t-107 194.5t-40 255q0 215 90.5 396.5t256.5 290.5t372 109q179 0 335 -78.5t244 -232.5
q99 142 249.5 226.5t336.5 84.5q125 0 245.5 -44.5t196.5 -113.5v-385h-73q-60 181 -176 289.5t-261 108.5q-151 0 -288 -111q-125 -195 -125 -407q0 -131 44 -254.5t117.5 -214.5t175 -146t210.5 -55q100 0 213 63t178 177zM1085 213q129 218 129 420q0 152 -39 280.5
t-105.5 214t-153.5 132.5t-183 47q-145 0 -252 -86q-129 -218 -129 -420q0 -152 39.5 -280.5t105.5 -214t153.5 -132.5t183.5 -47q144 0 251 86z" />
    <glyph glyph-name="Otilde_G.liga" unicode="&#xd5;G" horiz-adv-x="2660" 
d="M623 1673q-22 0 -39 -6t-31 -20.5t-21.5 -24t-20.5 -32.5t-17 -29l-64 20q29 135 90 214t148 79q47 0 96 -19t82.5 -42.5t72 -42.5t66.5 -19q21 0 38 6t30.5 20.5t21 24.5t20 32.5t17.5 29.5l64 -21q-29 -134 -91 -213.5t-147 -79.5q-47 0 -96 19t-83 42.5t-71.5 42.5
t-64.5 19zM2640 739v-51l-131 -70v-618h-60l-133 147q-78 -81 -181 -126.5t-218 -45.5q-210 0 -357.5 82t-228.5 228q-94 -144 -239.5 -227t-323.5 -83q-102 0 -198.5 25t-186 79.5t-156.5 133t-107 194.5t-40 255q0 215 90.5 396.5t256.5 290.5t372 109q179 0 336 -79
t245 -234q97 144 249.5 228.5t346.5 84.5q149 0 282.5 -40.5t207.5 -106.5v-365h-76q-64 175 -194 271t-293 96q-169 0 -306 -127q-110 -168 -110 -402q0 -127 41.5 -248t111 -212t165.5 -146t200 -55q134 0 244 76v407l-258 82v51h649zM1085 213q129 218 129 420
q0 152 -39 280.5t-105.5 214t-153.5 132.5t-183 47q-145 0 -252 -86q-129 -218 -129 -420q0 -152 39.5 -280.5t105.5 -214t153.5 -132.5t183.5 -47q144 0 251 86z" />
    <glyph glyph-name="P_P.liga" unicode="PP" horiz-adv-x="1947" 
d="M1391 1434q244 0 381 -88t137 -269q0 -87 -28 -160.5t-86 -133t-146.5 -96.5t-208.5 -50.5t-273 4.5v-530l156 -60v-51h-580v51l154 60v563q-174 -66 -432 -33v-530l156 -60v-51h-582v51l156 60v1212l-156 59v52h1352zM465 752q227 -15 340 52.5t113 225.5q0 129 -83 212
t-212 83h-158v-573zM1167 752q228 -15 340.5 52.5t112.5 225.5q0 129 -82 212t-211 83h-160v-573z" />
    <glyph glyph-name="P_T.liga" unicode="PT" horiz-adv-x="2322" 
d="M2034 1325h-269v-1214l156 -60v-51h-582v51l156 60v1214h-416q127 -85 127 -248q0 -109 -45 -197t-133.5 -150t-232.5 -86t-330 -3v-530l156 -60v-51h-582v51l156 60v1212l-156 59v52h2212l61 -400h-53zM465 752q227 -15 340 52.5t113 225.5q0 129 -83 212t-212 83h-158
v-573z" />
    <glyph glyph-name="P_Tbar.liga" unicode="P&#x166;" horiz-adv-x="2322" 
d="M2034 1325h-269v-530h234v-111h-234v-573l156 -60v-51h-582v51l156 60v573h-231v111h231v530h-416q127 -85 127 -248q0 -109 -45 -197t-133.5 -150t-232.5 -86t-330 -3v-530l156 -60v-51h-582v51l156 60v1212l-156 59v52h2212l61 -400h-53zM465 752q227 -15 340 52.5
t113 225.5q0 129 -83 212t-212 83h-158v-573z" />
    <glyph glyph-name="P_Tcaron.liga" unicode="P&#x164;" horiz-adv-x="2322" 
d="M1483 1546l-223 322l49 39l327 -178l316 178l49 -37l-223 -324h-295zM2034 1325h-269v-1214l156 -60v-51h-582v51l156 60v1214h-416q127 -85 127 -248q0 -109 -45 -197t-133.5 -150t-232.5 -86t-330 -3v-530l156 -60v-51h-582v51l156 60v1212l-156 59v52h2212l61 -400
h-53zM465 752q227 -15 340 52.5t113 225.5q0 129 -83 212t-212 83h-158v-573z" />
    <glyph glyph-name="uni00500162.liga" unicode="P&#x162;" horiz-adv-x="2322" 
d="M2034 1325h-269v-1214l156 -60v-51h-235l-56 -84q203 -54 203 -199q0 -74 -60.5 -128t-150 -69t-192.5 5v63q42 -2 70.5 1t54.5 12.5t38.5 31t12.5 54.5q0 67 -76 84l-84 14l-2 4l135 211h-240v51l156 60v1214h-416q127 -85 127 -248q0 -109 -45 -197t-133.5 -150
t-232.5 -86t-330 -3v-530l156 -60v-51h-582v51l156 60v1212l-156 59v52h2212l61 -400h-53zM465 752q227 -15 340 52.5t113 225.5q0 129 -83 212t-212 83h-158v-573z" />
    <glyph glyph-name="uni0050021A.liga" unicode="P&#x21a;" horiz-adv-x="2322" 
d="M2034 1325h-269v-1214l156 -60v-51h-582v51l156 60v1214h-416q127 -85 127 -248q0 -109 -45 -197t-133.5 -150t-232.5 -86t-330 -3v-530l156 -60v-51h-582v51l156 60v1212l-156 59v52h2212l61 -400h-53zM465 752q227 -15 340 52.5t113 225.5q0 129 -83 212t-212 83h-158
v-573zM1700 -72q53 -50 71.5 -114t2.5 -125t-76 -114t-154 -79l-45 33q53 49 47.5 153t-67.5 166v2z" />
    <glyph glyph-name="R_A.liga" unicode="RA" horiz-adv-x="2727" 
d="M2587 104l131 -53v-51h-602v51l178 53l-170 410h-539l-155 -387l202 -76v-51h-647l-428 668h-92v-557l156 -60v-51h-582v51l156 60v1212l-156 59v52h657q234 8 372 -83t138 -259q0 -128 -93.5 -238t-256.5 -154l393 -610l58 27l538 1317h191zM465 1325v-549h94
q185 6 272 87.5t87 197.5q0 101 -78.5 182.5t-200.5 81.5h-174zM1630 625h449l-228 546z" />
    <glyph glyph-name="R_A_W.liga" unicode="RAW" horiz-adv-x="3852" 
d="M3842 1434v-52l-131 -77l-406 -1305h-202l-322 952l-321 -952h-205l-180 514h-490l-155 -387l202 -76v-51h-647l-428 668h-92v-557l156 -60v-51h-582v51l156 60v1212l-156 59v52h657q234 8 372 -83t138 -259q0 -128 -93.5 -238t-256.5 -154l393 -610l58 27l538 1317h191
l407 -1143l281 831l-66 201l-125 59v52h600v-52l-188 -65l340 -1012l307 991l-217 86v52h467zM465 1325v-549h94q185 6 272 87.5t87 197.5q0 101 -78.5 182.5t-200.5 81.5h-174zM1630 625h408l-189 538z" />
    <glyph glyph-name="R_Aacute.liga" unicode="R&#xc1;" horiz-adv-x="2727" 
d="M2349 1712l-604 -186l-41 49l344 332h4l297 -185v-10zM2587 104l131 -53v-51h-602v51l178 53l-170 410h-539l-155 -387l202 -76v-51h-647l-428 668h-92v-557l156 -60v-51h-582v51l156 60v1212l-156 59v52h657q234 8 372 -83t138 -259q0 -128 -93.5 -238t-256.5 -154
l393 -610l58 27l538 1317h191zM465 1325v-549h94q185 6 272 87.5t87 197.5q0 101 -78.5 182.5t-200.5 81.5h-174zM1630 625h449l-228 546z" />
    <glyph glyph-name="R_Abreve.liga" unicode="R&#x102;" horiz-adv-x="2727" 
d="M1931 1536q-60 0 -113 18t-99 55.5t-72.5 105.5t-26.5 159l72 2q25 -57 90 -99t149 -42t149.5 42t92.5 99l72 -2q0 -91 -27 -159t-73 -106t-99.5 -55.5t-114.5 -17.5zM2587 104l131 -53v-51h-602v51l178 53l-170 410h-539l-155 -387l202 -76v-51h-647l-428 668h-92v-557
l156 -60v-51h-582v51l156 60v1212l-156 59v52h657q234 8 372 -83t138 -259q0 -128 -93.5 -238t-256.5 -154l393 -610l58 27l538 1317h191zM465 1325v-549h94q185 6 272 87.5t87 197.5q0 101 -78.5 182.5t-200.5 81.5h-174zM1630 625h449l-228 546z" />
    <glyph glyph-name="R_Acircumflex.liga" unicode="R&#xc2;" horiz-adv-x="2727" 
d="M1921 1704l-315 -178l-50 37l226 323h295l221 -321l-49 -39zM2587 104l131 -53v-51h-602v51l178 53l-170 410h-539l-155 -387l202 -76v-51h-647l-428 668h-92v-557l156 -60v-51h-582v51l156 60v1212l-156 59v52h657q234 8 372 -83t138 -259q0 -128 -93.5 -238
t-256.5 -154l393 -610l58 27l538 1317h191zM465 1325v-549h94q185 6 272 87.5t87 197.5q0 101 -78.5 182.5t-200.5 81.5h-174zM1630 625h449l-228 546z" />
    <glyph glyph-name="R_Adieresis.liga" unicode="R&#xc4;" horiz-adv-x="2727" 
d="M1722 1579q-68 0 -113.5 45t-45.5 109t45.5 108.5t113.5 44.5q67 0 113.5 -45t46.5 -108t-46.5 -108.5t-113.5 -45.5zM2144 1579q-67 0 -113 45t-46 109q0 63 46 108t113 45q68 0 114 -44.5t46 -108.5t-46 -109t-114 -45zM2587 104l131 -53v-51h-602v51l178 53l-170 410
h-539l-155 -387l202 -76v-51h-647l-428 668h-92v-557l156 -60v-51h-582v51l156 60v1212l-156 59v52h657q234 8 372 -83t138 -259q0 -128 -93.5 -238t-256.5 -154l393 -610l58 27l538 1317h191zM465 1325v-549h94q185 6 272 87.5t87 197.5q0 101 -78.5 182.5t-200.5 81.5
h-174zM1630 625h449l-228 546z" />
    <glyph glyph-name="R_Agrave.liga" unicode="R&#xc0;" horiz-adv-x="2727" 
d="M2144 1581l-33 -55l-575 160v8l242 213h4zM2587 104l131 -53v-51h-602v51l178 53l-170 410h-539l-155 -387l202 -76v-51h-647l-428 668h-92v-557l156 -60v-51h-582v51l156 60v1212l-156 59v52h657q234 8 372 -83t138 -259q0 -128 -93.5 -238t-256.5 -154l393 -610l58 27
l538 1317h191zM465 1325v-549h94q185 6 272 87.5t87 197.5q0 101 -78.5 182.5t-200.5 81.5h-174zM1630 625h449l-228 546z" />
    <glyph glyph-name="R_Amacron.liga" unicode="R&#x100;" horiz-adv-x="2727" 
d="M2218 1786v-164h-571v164h571zM2587 104l131 -53v-51h-602v51l178 53l-170 410h-539l-155 -387l202 -76v-51h-647l-428 668h-92v-557l156 -60v-51h-582v51l156 60v1212l-156 59v52h657q234 8 372 -83t138 -259q0 -128 -93.5 -238t-256.5 -154l393 -610l58 27l538 1317
h191zM465 1325v-549h94q185 6 272 87.5t87 197.5q0 101 -78.5 182.5t-200.5 81.5h-174zM1630 625h449l-228 546z" />
    <glyph glyph-name="R_Aogonek.liga" unicode="R&#x104;" horiz-adv-x="2727" 
d="M2587 104l131 -53v-51h-197q-88 -146 -88 -270q0 -67 45 -99.5t109 -13.5v-61q-53 -32 -120.5 -40t-126 7.5t-98.5 59t-40 106.5q0 40 14.5 77.5t32 64t55 61.5t61 53.5t72.5 54.5h-321v51l178 53l-170 410h-539l-155 -387l202 -76v-51h-647l-428 668h-92v-557l156 -60
v-51h-582v51l156 60v1212l-156 59v52h657q234 8 372 -83t138 -259q0 -128 -93.5 -238t-256.5 -154l393 -610l58 27l538 1317h191zM465 1325v-549h94q185 6 272 87.5t87 197.5q0 101 -78.5 182.5t-200.5 81.5h-174zM1630 625h449l-228 546z" />
    <glyph glyph-name="R_Aring.liga" unicode="R&#xc5;" horiz-adv-x="2727" 
d="M1931 1495q-111 0 -181.5 55t-70.5 148q0 42 15 81.5t44 72.5t78.5 53t112.5 20q112 0 183 -54.5t71 -148.5q0 -92 -64 -159.5t-188 -67.5zM1829 1778q-21 -24 -21 -60q0 -51 37 -79.5t99 -28.5q44 0 86 28q24 27 24 64q0 52 -36 80t-97 28q-54 0 -92 -32zM2587 104
l131 -53v-51h-602v51l178 53l-170 410h-539l-155 -387l202 -76v-51h-647l-428 668h-92v-557l156 -60v-51h-582v51l156 60v1212l-156 59v52h657q234 8 372 -83t138 -259q0 -128 -93.5 -238t-256.5 -154l393 -610l58 27l538 1317h191zM465 1325v-549h94q185 6 272 87.5
t87 197.5q0 101 -78.5 182.5t-200.5 81.5h-174zM1630 625h449l-228 546z" />
    <glyph glyph-name="R_Atilde.liga" unicode="R&#xc3;" horiz-adv-x="2727" 
d="M1753 1673q-22 0 -39 -6t-31 -20.5t-21.5 -24t-20.5 -32.5t-17 -29l-63 20q29 135 89.5 214t147.5 79q47 0 96 -19t83 -42.5t72.5 -42.5t66.5 -19q21 0 38 6t30.5 20.5t21 24.5t20 32.5t17.5 29.5l63 -21q-29 -134 -91 -213.5t-147 -79.5q-60 0 -121 31t-111 61.5
t-83 30.5zM2587 104l131 -53v-51h-602v51l178 53l-170 410h-539l-155 -387l202 -76v-51h-647l-428 668h-92v-557l156 -60v-51h-582v51l156 60v1212l-156 59v52h657q234 8 372 -83t138 -259q0 -128 -93.5 -238t-256.5 -154l393 -610l58 27l538 1317h191zM465 1325v-549h94
q185 6 272 87.5t87 197.5q0 101 -78.5 182.5t-200.5 81.5h-174zM1630 625h449l-228 546z" />
    <glyph glyph-name="R_I.liga" unicode="RI" horiz-adv-x="1945" 
d="M965 530q193 -305 388 -372t427 98l43 -41q-65 -90 -161.5 -150.5t-211 -79.5t-230.5 3t-230 103t-199 214l-234 363h-92v-557l156 -60v-51h-582v51l156 60v1212l-156 59v52h657q234 8 372 -83t138 -259q0 -128 -93.5 -238t-256.5 -154zM1886 1382l-155 -59v-598l155 -59
v-52h-581v52l155 59v598l-155 59v52h581v-52zM465 1325v-549h94q185 6 272 87.5t87 197.5q0 101 -78.5 182.5t-200.5 81.5h-174z" />
    <glyph glyph-name="R_Iacute.liga" unicode="R&#xcd;" horiz-adv-x="1945" 
d="M1714 1907l297 -185v-10l-604 -186l-41 49l344 332h4zM965 530q193 -305 388 -372t427 98l43 -41q-65 -90 -161.5 -150.5t-211 -79.5t-230.5 3t-230 103t-199 214l-234 363h-92v-557l156 -60v-51h-582v51l156 60v1212l-156 59v52h657q234 8 372 -83t138 -259
q0 -128 -93.5 -238t-256.5 -154zM1305 1382v52h581v-52l-155 -59v-598l155 -59v-52h-581v52l155 59v598zM465 1325v-549h94q185 6 272 87.5t87 197.5q0 101 -78.5 182.5t-200.5 81.5h-174z" />
    <glyph glyph-name="R_Ibreve.liga" unicode="R&#x12c;" horiz-adv-x="1945" 
d="M1593 1536q-60 0 -113 18t-99 55.5t-72.5 105.5t-26.5 159l72 2q25 -57 90 -99t149 -42t149.5 42t92.5 99l72 -2q0 -91 -27 -159t-73 -106t-99.5 -55.5t-114.5 -17.5zM965 530q193 -305 388 -372t427 98l43 -41q-65 -90 -161.5 -150.5t-211 -79.5t-230.5 3t-230 103
t-199 214l-234 363h-92v-557l156 -60v-51h-582v51l156 60v1212l-156 59v52h657q234 8 372 -83t138 -259q0 -128 -93.5 -238t-256.5 -154zM1305 1382v52h581v-52l-155 -59v-598l155 -59v-52h-581v52l155 59v598zM465 1325v-549h94q185 6 272 87.5t87 197.5q0 101 -78.5 182.5
t-200.5 81.5h-174z" />
    <glyph glyph-name="R_Icircumflex.liga" unicode="R&#xce;" horiz-adv-x="1945" 
d="M1739 1886l221 -321l-49 -39l-328 178l-315 -178l-49 37l225 323h295zM965 530q193 -305 388 -372t427 98l43 -41q-65 -90 -161.5 -150.5t-211 -79.5t-230.5 3t-230 103t-199 214l-234 363h-92v-557l156 -60v-51h-582v51l156 60v1212l-156 59v52h657q234 8 372 -83
t138 -259q0 -128 -93.5 -238t-256.5 -154zM1305 1382v52h581v-52l-155 -59v-598l155 -59v-52h-581v52l155 59v598zM465 1325v-549h94q185 6 272 87.5t87 197.5q0 101 -78.5 182.5t-200.5 81.5h-174z" />
    <glyph glyph-name="R_Idieresis.liga" unicode="R&#xcf;" horiz-adv-x="1945" 
d="M1382 1579q-68 0 -113.5 45t-45.5 109t45.5 108.5t113.5 44.5q67 0 113.5 -45t46.5 -108t-46.5 -108.5t-113.5 -45.5zM1804 1886q68 0 114 -44.5t46 -108.5t-46 -109t-114 -45q-67 0 -113 45t-46 109q0 63 46 108t113 45zM965 530q193 -305 388 -372t427 98l43 -41
q-65 -90 -161.5 -150.5t-211 -79.5t-230.5 3t-230 103t-199 214l-234 363h-92v-557l156 -60v-51h-582v51l156 60v1212l-156 59v52h657q234 8 372 -83t138 -259q0 -128 -93.5 -238t-256.5 -154zM1305 1382v52h581v-52l-155 -59v-598l155 -59v-52h-581v52l155 59v598z
M465 1325v-549h94q185 6 272 87.5t87 197.5q0 101 -78.5 182.5t-200.5 81.5h-174z" />
    <glyph glyph-name="R_Idotaccent.liga" unicode="R&#x130;" horiz-adv-x="1945" 
d="M1593 1571q-73 0 -120.5 47.5t-47.5 114.5t47 114t121 47q75 0 122.5 -46.5t47.5 -114.5t-47.5 -115t-122.5 -47zM965 530q193 -305 388 -372t427 98l43 -41q-65 -90 -161.5 -150.5t-211 -79.5t-230.5 3t-230 103t-199 214l-234 363h-92v-557l156 -60v-51h-582v51l156 60
v1212l-156 59v52h657q234 8 372 -83t138 -259q0 -128 -93.5 -238t-256.5 -154zM1886 1382l-155 -59v-598l155 -59v-52h-581v52l155 59v598l-155 59v52h581v-52zM465 1325v-549h94q185 6 272 87.5t87 197.5q0 101 -78.5 182.5t-200.5 81.5h-174z" />
    <glyph glyph-name="R_Igrave.liga" unicode="R&#xcc;" horiz-adv-x="1945" 
d="M1806 1581l-32 -55l-576 160v8l242 213h4zM965 530q193 -305 388 -372t427 98l43 -41q-65 -90 -161.5 -150.5t-211 -79.5t-230.5 3t-230 103t-199 214l-234 363h-92v-557l156 -60v-51h-582v51l156 60v1212l-156 59v52h657q234 8 372 -83t138 -259q0 -128 -93.5 -238
t-256.5 -154zM1886 1382l-155 -59v-598l155 -59v-52h-581v52l155 59v598l-155 59v52h581v-52zM465 1325v-549h94q185 6 272 87.5t87 197.5q0 101 -78.5 182.5t-200.5 81.5h-174z" />
    <glyph glyph-name="R_Imacron.liga" unicode="R&#x12a;" horiz-adv-x="1945" 
d="M1880 1786v-164h-571v164h571zM965 530q193 -305 388 -372t427 98l43 -41q-65 -90 -161.5 -150.5t-211 -79.5t-230.5 3t-230 103t-199 214l-234 363h-92v-557l156 -60v-51h-582v51l156 60v1212l-156 59v52h657q234 8 372 -83t138 -259q0 -128 -93.5 -238t-256.5 -154z
M1886 1382l-155 -59v-598l155 -59v-52h-581v52l155 59v598l-155 59v52h581v-52zM465 1325v-549h94q185 6 272 87.5t87 197.5q0 101 -78.5 182.5t-200.5 81.5h-174z" />
    <glyph glyph-name="R_Itilde.liga" unicode="R&#x128;" horiz-adv-x="1945" 
d="M1415 1673q-22 0 -39 -6t-31 -20.5t-21.5 -24t-20.5 -32.5t-17 -29l-63 20q29 135 89.5 214t147.5 79q47 0 96 -19t83 -42.5t72.5 -42.5t66.5 -19q21 0 38 6t30.5 20.5t21 24.5t20 32.5t17.5 29.5l63 -21q-29 -135 -90.5 -214t-146.5 -79q-59 0 -121 31t-112 61.5
t-83 30.5zM965 530q193 -305 388 -372t427 98l43 -41q-65 -90 -161.5 -150.5t-211 -79.5t-230.5 3t-230 103t-199 214l-234 363h-92v-557l156 -60v-51h-582v51l156 60v1212l-156 59v52h657q234 8 372 -83t138 -259q0 -128 -93.5 -238t-256.5 -154zM1305 1382v52h581v-52
l-155 -59v-598l155 -59v-52h-581v52l155 59v598zM465 1325v-549h94q185 6 272 87.5t87 197.5q0 101 -78.5 182.5t-200.5 81.5h-174z" />
    <glyph glyph-name="R_T.liga" unicode="RT" horiz-adv-x="2476" 
d="M2187 1325h-268v-1214l156 -60v-51h-582v51l156 60v1214h-557q114 -82 114 -233q0 -128 -93.5 -238t-256.5 -154l383 -594l135 -55v-51h-389l-428 668h-92v-557l156 -60v-51h-582v51l156 60v1212l-156 59v52h2365l62 -400h-56zM559 776q185 6 272 87.5t87 197.5
q0 101 -78.5 182.5t-200.5 81.5h-174v-549h94z" />
    <glyph glyph-name="R_T_H.liga" unicode="RTH" horiz-adv-x="3737" 
d="M1919 1325v-1214l156 -60v-51h-582v51l156 60v1214h-547q104 -87 104 -233q0 -128 -93.5 -238t-256.5 -154l383 -594l135 -55v-51h-389l-428 668h-92v-557l156 -60v-51h-582v51l156 60v1212l-156 59v52h657h70h1798l62 -400h-54l-225 291h-428zM3699 1382l-156 -59v-1212
l156 -60v-51h-582v51l156 60v569h-625v-569l156 -60v-51h-582v51l156 60v680h895v532l-156 59v52h582v-52zM559 776q185 6 272 87.5t87 197.5q0 101 -78.5 182.5t-200.5 81.5h-174v-549h94z" />
    <glyph glyph-name="R_Tbar.liga" unicode="R&#x166;" horiz-adv-x="2476" 
d="M2187 1325h-268v-530h233v-111h-233v-573l156 -60v-51h-582v51l156 60v573h-234v111h234v530h-557q114 -82 114 -233q0 -128 -93.5 -238t-256.5 -154l383 -594l135 -55v-51h-389l-428 668h-92v-557l156 -60v-51h-582v51l156 60v1212l-156 59v52h2365l62 -400h-56z
M559 776q185 6 272 87.5t87 197.5q0 101 -78.5 182.5t-200.5 81.5h-174v-549h94z" />
    <glyph glyph-name="R_Tcaron.liga" unicode="R&#x164;" horiz-adv-x="2476" 
d="M1634 1546l-223 322l49 39l328 -178l315 178l49 -37l-223 -324h-295zM2187 1325h-268v-1214l156 -60v-51h-582v51l156 60v1214h-557q114 -82 114 -233q0 -128 -93.5 -238t-256.5 -154l383 -594l135 -55v-51h-389l-428 668h-92v-557l156 -60v-51h-582v51l156 60v1212
l-156 59v52h2365l62 -400h-56zM559 776q185 6 272 87.5t87 197.5q0 101 -78.5 182.5t-200.5 81.5h-174v-549h94z" />
    <glyph glyph-name="uni00520162.liga" unicode="R&#x162;" horiz-adv-x="2476" 
d="M2187 1325h-268v-1214l156 -60v-51h-238l-55 -84q203 -54 203 -199q0 -74 -60.5 -128t-150.5 -69t-193 5v63q42 -2 70.5 1t54.5 12.5t38.5 31t12.5 54.5q0 67 -76 84l-84 14l-2 4l136 211h-238v51l156 60v1214h-557q114 -82 114 -233q0 -128 -93.5 -238t-256.5 -154
l383 -594l135 -55v-51h-389l-428 668h-92v-557l156 -60v-51h-582v51l156 60v1212l-156 59v52h2365l62 -400h-56zM559 776q185 6 272 87.5t87 197.5q0 101 -78.5 182.5t-200.5 81.5h-174v-549h94z" />
    <glyph glyph-name="uni0052021A.liga" unicode="R&#x21a;" horiz-adv-x="2476" 
d="M2187 1325h-268v-1214l156 -60v-51h-582v51l156 60v1214h-557q114 -82 114 -233q0 -128 -93.5 -238t-256.5 -154l383 -594l135 -55v-51h-389l-428 668h-92v-557l156 -60v-51h-582v51l156 60v1212l-156 59v52h2365l62 -400h-56zM559 776q185 6 272 87.5t87 197.5
q0 101 -78.5 182.5t-200.5 81.5h-174v-549h94zM1853 -72q53 -50 71.5 -114t2.5 -125t-75.5 -114t-153.5 -79l-45 33q53 49 47 153t-68 166v2z" />
    <glyph glyph-name="Racute_A.liga" unicode="&#x154;A" horiz-adv-x="2727" 
d="M1055 1712l-604 -186l-41 49l344 332h4l297 -185v-10zM2587 104l131 -53v-51h-602v51l178 53l-170 410h-539l-155 -387l202 -76v-51h-647l-428 668h-92v-557l156 -60v-51h-582v51l156 60v1212l-156 59v52h657q234 8 372 -83t138 -259q0 -128 -93.5 -238t-256.5 -154
l393 -610l58 27l538 1317h191zM465 1325v-549h94q185 6 272 87.5t87 197.5q0 101 -78.5 182.5t-200.5 81.5h-174zM1630 625h449l-228 546z" />
    <glyph glyph-name="Racute_I.liga" unicode="&#x154;I" horiz-adv-x="1945" 
d="M1055 1712l-604 -186l-41 49l344 332h4l297 -185v-10zM965 530q193 -305 388 -372t427 98l43 -41q-65 -90 -161.5 -150.5t-211 -79.5t-230.5 3t-230 103t-199 214l-234 363h-92v-557l156 -60v-51h-582v51l156 60v1212l-156 59v52h657q234 8 372 -83t138 -259
q0 -128 -93.5 -238t-256.5 -154zM1886 1382l-155 -59v-598l155 -59v-52h-581v52l155 59v598l-155 59v52h581v-52zM465 1325v-549h94q185 6 272 87.5t87 197.5q0 101 -78.5 182.5t-200.5 81.5h-174z" />
    <glyph glyph-name="Racute_T.liga" unicode="&#x154;T" horiz-adv-x="2476" 
d="M1055 1712l-604 -186l-41 49l344 332h4l297 -185v-10zM2187 1325h-268v-1214l156 -60v-51h-582v51l156 60v1214h-557q114 -82 114 -233q0 -128 -93.5 -238t-256.5 -154l383 -594l135 -55v-51h-389l-428 668h-92v-557l156 -60v-51h-582v51l156 60v1212l-156 59v52h2365
l62 -400h-56zM559 776q185 6 272 87.5t87 197.5q0 101 -78.5 182.5t-200.5 81.5h-174v-549h94z" />
    <glyph glyph-name="Rcaron_A.liga" unicode="&#x158;A" horiz-adv-x="2727" 
d="M492 1546l-224 322l49 39l328 -178l316 178l49 -37l-224 -324h-294zM2587 104l131 -53v-51h-602v51l178 53l-170 410h-539l-155 -387l202 -76v-51h-647l-428 668h-92v-557l156 -60v-51h-582v51l156 60v1212l-156 59v52h657q234 8 372 -83t138 -259q0 -128 -93.5 -238
t-256.5 -154l393 -610l58 27l538 1317h191zM465 1325v-549h94q185 6 272 87.5t87 197.5q0 101 -78.5 182.5t-200.5 81.5h-174zM1630 625h449l-228 546z" />
    <glyph glyph-name="Rcaron_Aacute.liga" unicode="&#x158;&#xc1;" horiz-adv-x="2727" 
d="M492 1546l-224 322l49 39l328 -178l316 178l49 -37l-224 -324h-294zM2347 1712l-602 -186l-41 49l344 332h4l295 -185v-10zM2587 104l131 -53v-51h-602v51l178 53l-170 410h-539l-155 -387l202 -76v-51h-647l-428 668h-92v-557l156 -60v-51h-582v51l156 60v1212l-156 59
v52h657q234 8 372 -83t138 -259q0 -128 -93.5 -238t-256.5 -154l393 -610l58 27l538 1317h191zM465 1325v-549h94q185 6 272 87.5t87 197.5q0 101 -78.5 182.5t-200.5 81.5h-174zM1630 625h449l-228 546z" />
    <glyph glyph-name="Rcaron_I.liga" unicode="&#x158;I" horiz-adv-x="1945" 
d="M492 1546l-224 322l49 39l328 -178l316 178l49 -37l-224 -324h-294zM965 530q193 -305 388 -372t427 98l43 -41q-65 -90 -161.5 -150.5t-211 -79.5t-230.5 3t-230 103t-199 214l-234 363h-92v-557l156 -60v-51h-582v51l156 60v1212l-156 59v52h657q234 8 372 -83
t138 -259q0 -128 -93.5 -238t-256.5 -154zM1886 1382l-155 -59v-598l155 -59v-52h-581v52l155 59v598l-155 59v52h581v-52zM465 1325v-549h94q185 6 272 87.5t87 197.5q0 101 -78.5 182.5t-200.5 81.5h-174z" />
    <glyph glyph-name="Rcaron_Iacute.liga" unicode="&#x158;&#xcd;" horiz-adv-x="1945" 
d="M492 1546l-224 322l49 39l328 -178l316 178l49 -37l-224 -324h-294zM1714 1907l295 -185v-10l-604 -186l-41 49l346 332h4zM965 530q193 -305 388 -372t427 98l43 -41q-65 -90 -161.5 -150.5t-211 -79.5t-230.5 3t-230 103t-199 214l-234 363h-92v-557l156 -60v-51h-582
v51l156 60v1212l-156 59v52h657q234 8 372 -83t138 -259q0 -128 -93.5 -238t-256.5 -154zM1305 1382v52h581v-52l-155 -59v-598l155 -59v-52h-581v52l155 59v598zM465 1325v-549h94q185 6 272 87.5t87 197.5q0 101 -78.5 182.5t-200.5 81.5h-174z" />
    <glyph glyph-name="Rcaron_T.liga" unicode="&#x158;T" horiz-adv-x="2476" 
d="M492 1546l-224 322l49 39l328 -178l316 178l49 -37l-224 -324h-294zM2187 1325h-268v-1214l156 -60v-51h-582v51l156 60v1214h-557q114 -82 114 -233q0 -128 -93.5 -238t-256.5 -154l383 -594l135 -55v-51h-389l-428 668h-92v-557l156 -60v-51h-582v51l156 60v1212
l-156 59v52h2365l62 -400h-56zM559 776q185 6 272 87.5t87 197.5q0 101 -78.5 182.5t-200.5 81.5h-174v-549h94z" />
    <glyph glyph-name="Rcommaaccent_A.liga" unicode="&#x156;A" horiz-adv-x="2727" 
d="M2587 104l131 -53v-51h-602v51l178 53l-170 410h-539l-155 -387l202 -76v-51h-647l-428 668h-92v-557l156 -60v-51h-582v51l156 60v1212l-156 59v52h657q234 8 372 -83t138 -259q0 -128 -93.5 -238t-256.5 -154l393 -610l58 27l538 1317h191zM465 1325v-549h94
q185 6 272 87.5t87 197.5q0 101 -78.5 182.5t-200.5 81.5h-174zM1630 625h449l-228 546zM791 -72q53 -50 71.5 -114t2.5 -125t-76 -114t-154 -79l-45 33q53 49 47 153t-68 166v2z" />
    <glyph glyph-name="Rcommaaccent_I.liga" unicode="&#x156;I" horiz-adv-x="1945" 
d="M965 530q193 -305 388 -372t427 98l43 -41q-65 -90 -161.5 -150.5t-211 -79.5t-230.5 3t-230 103t-199 214l-234 363h-92v-557l156 -60v-51h-582v51l156 60v1212l-156 59v52h657q234 8 372 -83t138 -259q0 -128 -93.5 -238t-256.5 -154zM1886 1382l-155 -59v-598l155 -59
v-52h-581v52l155 59v598l-155 59v52h581v-52zM465 1325v-549h94q185 6 272 87.5t87 197.5q0 101 -78.5 182.5t-200.5 81.5h-174zM791 -72q53 -50 71.5 -114t2.5 -125t-76 -114t-154 -79l-45 33q53 49 47 153t-68 166v2z" />
    <glyph glyph-name="Rcommaaccent_T.liga" unicode="&#x156;T" horiz-adv-x="2476" 
d="M2187 1325h-268v-1214l156 -60v-51h-582v51l156 60v1214h-557q114 -82 114 -233q0 -128 -93.5 -238t-256.5 -154l383 -594l135 -55v-51h-389l-428 668h-92v-557l156 -60v-51h-582v51l156 60v1212l-156 59v52h2365l62 -400h-56zM559 776q185 6 272 87.5t87 197.5
q0 101 -78.5 182.5t-200.5 81.5h-174v-549h94zM791 -72q53 -50 71.5 -114t2.5 -125t-76 -114t-154 -79l-45 33q53 49 47 153t-68 166v2z" />
    <glyph glyph-name="S_S.liga" unicode="SS" horiz-adv-x="2486" 
d="M1542 1133q0 -64 29.5 -108t79.5 -68t115 -40t136.5 -29.5t143 -29.5t136.5 -47t115 -76.5t79.5 -122.5t29.5 -180q0 -91 -41.5 -174t-114 -146t-180 -100t-231.5 -37q-91 0 -156.5 22.5t-128 83.5t-117.5 151t-130 243l-269 537q-75 153 -197.5 233t-254.5 80
q-94 0 -201 -41q-90 -66 -90 -151q0 -64 29.5 -108t79.5 -68t115 -40t136.5 -29.5t143 -29.5t136.5 -47t115 -76.5t79.5 -122.5t29.5 -180q0 -91 -41.5 -174t-114 -146t-180 -100t-231.5 -37q-293 0 -459 127l-63 408h53q100 -176 230.5 -284.5t275.5 -108.5q160 0 227 47
q94 83 94 174q0 72 -29 122t-78 78t-112.5 46.5t-133.5 32t-140 29.5t-133.5 44t-112.5 70t-78 114t-29 170q0 117 68.5 212t187 148.5t263.5 53.5q177 0 295 -93t225 -310l270 -545q93 -187 206 -290t257 -103q151 0 221 41q101 86 101 180q0 72 -29 122t-78 78
t-112.5 46.5t-133.5 32t-140 29.5t-133.5 44t-112.5 70t-78 114t-29 170q0 117 68 212t186.5 148.5t263.5 53.5q142 0 260 -35.5t190 -89.5v-321h-53q-72 137 -191.5 225t-242.5 88q-94 0 -201 -41q-90 -66 -90 -151z" />
    <glyph glyph-name="S_Scaron.liga" unicode="S&#x160;" horiz-adv-x="2486" 
d="M1724 1546l-223 322l49 39l328 -178l315 178l50 -37l-224 -324h-295zM1542 1133q0 -64 29.5 -108t79.5 -68t115 -40t136.5 -29.5t143 -29.5t136.5 -47t115 -76.5t79.5 -122.5t29.5 -180q0 -91 -41.5 -174t-114 -146t-180 -100t-231.5 -37q-91 0 -156.5 22.5t-128 83.5
t-117.5 151t-130 243l-269 537q-75 153 -197.5 233t-254.5 80q-94 0 -201 -41q-90 -66 -90 -151q0 -64 29.5 -108t79.5 -68t115 -40t136.5 -29.5t143 -29.5t136.5 -47t115 -76.5t79.5 -122.5t29.5 -180q0 -91 -41.5 -174t-114 -146t-180 -100t-231.5 -37q-293 0 -459 127
l-63 408h53q100 -176 230.5 -284.5t275.5 -108.5q160 0 227 47q94 83 94 174q0 72 -29 122t-78 78t-112.5 46.5t-133.5 32t-140 29.5t-133.5 44t-112.5 70t-78 114t-29 170q0 117 68.5 212t187 148.5t263.5 53.5q177 0 295 -93t225 -310l270 -545q93 -187 206 -290t257 -103
q151 0 221 41q101 86 101 180q0 72 -29 122t-78 78t-112.5 46.5t-133.5 32t-140 29.5t-133.5 44t-112.5 70t-78 114t-29 170q0 117 68 212t186.5 148.5t263.5 53.5q142 0 260 -35.5t190 -89.5v-321h-53q-72 137 -191.5 225t-242.5 88q-94 0 -201 -41q-90 -66 -90 -151z" />
    <glyph glyph-name="S_T.liga" unicode="ST" horiz-adv-x="2222" 
d="M1933 1325h-268v-1214l156 -60v-51h-580v51l154 60v1214h-809q-94 0 -201 -41q-90 -66 -90 -151q0 -61 29.5 -102.5t79.5 -63.5t115 -36.5t136.5 -27.5t143 -29.5t136.5 -48.5t115 -79.5t79.5 -127t29.5 -186.5q0 -91 -41.5 -174t-114 -146t-180 -100t-231.5 -37
q-293 0 -459 127l-63 408h53q100 -176 230.5 -284.5t275.5 -108.5q160 0 227 47q94 83 94 174q0 75 -29 128t-78 82.5t-112.5 49.5t-133.5 33.5t-140 29t-133.5 42.5t-112.5 67.5t-78 110t-29 163.5q0 177 138 283.5t360 106.5h1548l62 -400h-53z" />
    <glyph glyph-name="S_T_Y.liga" unicode="STY" horiz-adv-x="3313" 
d="M3176 1305l-430 -689v-505l156 -60v-51h-582v51l156 60v499l-467 715h-344v-1214l156 -60v-51h-580v51l154 60v1214h-809q-94 0 -201 -41q-90 -66 -90 -151q0 -61 29.5 -102.5t79.5 -63.5t115 -36.5t136.5 -27.5t143 -29.5t136.5 -48.5t115 -79.5t79.5 -127t29.5 -186.5
q0 -91 -41.5 -174t-114 -146t-180 -100t-231.5 -37q-293 0 -459 127l-63 408h53q100 -176 230.5 -284.5t275.5 -108.5q160 0 227 47q94 83 94 174q0 75 -29 128t-78 82.5t-112.5 49.5t-133.5 33.5t-140 29t-133.5 42.5t-112.5 67.5t-78 110t-29 163.5q0 177 138 283.5
t360 106.5h1888v-52l-161 -49l372 -585l346 561l-194 73v52h471v-52z" />
    <glyph glyph-name="S_Tbar.liga" unicode="S&#x166;" horiz-adv-x="2222" 
d="M1933 1325h-268v-530h233v-111h-233v-573l156 -60v-51h-580v51l154 60v573h-232v111h232v530h-809q-94 0 -201 -41q-90 -66 -90 -151q0 -61 29.5 -102.5t79.5 -63.5t115 -36.5t136.5 -27.5t143 -29.5t136.5 -48.5t115 -79.5t79.5 -127t29.5 -186.5q0 -91 -41.5 -174
t-114 -146t-180 -100t-231.5 -37q-293 0 -459 127l-63 408h53q100 -176 230.5 -284.5t275.5 -108.5q160 0 227 47q94 83 94 174q0 75 -29 128t-78 82.5t-112.5 49.5t-133.5 33.5t-140 29t-133.5 42.5t-112.5 67.5t-78 110t-29 163.5q0 177 138 283.5t360 106.5h1548l62 -400
h-53z" />
    <glyph glyph-name="S_Tcaron.liga" unicode="S&#x164;" horiz-adv-x="2222" 
d="M1382 1546l-223 322l49 39l328 -178l315 178l50 -37l-224 -324h-295zM1933 1325h-268v-1214l156 -60v-51h-580v51l154 60v1214h-809q-94 0 -201 -41q-90 -66 -90 -151q0 -61 29.5 -102.5t79.5 -63.5t115 -36.5t136.5 -27.5t143 -29.5t136.5 -48.5t115 -79.5t79.5 -127
t29.5 -186.5q0 -91 -41.5 -174t-114 -146t-180 -100t-231.5 -37q-293 0 -459 127l-63 408h53q100 -176 230.5 -284.5t275.5 -108.5q160 0 227 47q94 83 94 174q0 75 -29 128t-78 82.5t-112.5 49.5t-133.5 33.5t-140 29t-133.5 42.5t-112.5 67.5t-78 110t-29 163.5
q0 177 138 283.5t360 106.5h1548l62 -400h-53z" />
    <glyph glyph-name="uni00530162.liga" unicode="S&#x162;" horiz-adv-x="2222" 
d="M1933 1325h-268v-1214l156 -60v-51h-234l-55 -84q203 -54 203 -199q0 -74 -60.5 -128t-150.5 -69t-193 5v63q42 -2 70.5 1t54.5 12.5t38.5 31t12.5 54.5q0 68 -75 84l-84 14l-2 4l135 211h-240v51l154 60v1214h-809q-94 0 -201 -41q-90 -66 -90 -151q0 -61 29.5 -102.5
t79.5 -63.5t115 -36.5t136.5 -27.5t143 -29.5t136.5 -48.5t115 -79.5t79.5 -127t29.5 -186.5q0 -91 -41.5 -174t-114 -146t-180 -100t-231.5 -37q-293 0 -459 127l-63 408h53q100 -176 230.5 -284.5t275.5 -108.5q160 0 227 47q94 83 94 174q0 75 -29 128t-78 82.5
t-112.5 49.5t-133.5 33.5t-140 29t-133.5 42.5t-112.5 67.5t-78 110t-29 163.5q0 177 138 283.5t360 106.5h1548l62 -400h-53z" />
    <glyph glyph-name="uni0053021A.liga" unicode="S&#x21a;" horiz-adv-x="2222" 
d="M1933 1325h-268v-1214l156 -60v-51h-580v51l154 60v1214h-809q-94 0 -201 -41q-90 -66 -90 -151q0 -61 29.5 -102.5t79.5 -63.5t115 -36.5t136.5 -27.5t143 -29.5t136.5 -48.5t115 -79.5t79.5 -127t29.5 -186.5q0 -91 -41.5 -174t-114 -146t-180 -100t-231.5 -37
q-293 0 -459 127l-63 408h53q100 -176 230.5 -284.5t275.5 -108.5q160 0 227 47q94 83 94 174q0 75 -29 128t-78 82.5t-112.5 49.5t-133.5 33.5t-140 29t-133.5 42.5t-112.5 67.5t-78 110t-29 163.5q0 177 138 283.5t360 106.5h1548l62 -400h-53zM1602 -72q53 -50 71.5 -114
t2.5 -125t-76 -114t-154 -79l-45 33q53 49 47 153t-68 166v2z" />
    <glyph glyph-name="Sacute_T.liga" unicode="&#x15a;T" horiz-adv-x="2222" 
d="M1040 1712l-604 -186l-41 49l344 332h4l297 -185v-10zM1933 1325h-268v-1214l156 -60v-51h-580v51l154 60v1214h-809q-94 0 -201 -41q-90 -66 -90 -151q0 -61 29.5 -102.5t79.5 -63.5t115 -36.5t136.5 -27.5t143 -29.5t136.5 -48.5t115 -79.5t79.5 -127t29.5 -186.5
q0 -91 -41.5 -174t-114 -146t-180 -100t-231.5 -37q-293 0 -459 127l-63 408h53q100 -176 230.5 -284.5t275.5 -108.5q160 0 227 47q94 83 94 174q0 75 -29 128t-78 82.5t-112.5 49.5t-133.5 33.5t-140 29t-133.5 42.5t-112.5 67.5t-78 110t-29 163.5q0 177 138 283.5
t360 106.5h1548l62 -400h-53z" />
    <glyph glyph-name="Scaron_S.liga" unicode="&#x160;S" horiz-adv-x="2486" 
d="M477 1546l-223 322l49 39l328 -178l315 178l49 -37l-223 -324h-295zM1542 1133q0 -64 29.5 -108t79.5 -68t115 -40t136.5 -29.5t143 -29.5t136.5 -47t115 -76.5t79.5 -122.5t29.5 -180q0 -91 -41.5 -174t-114 -146t-180 -100t-231.5 -37q-91 0 -156.5 22.5t-128 83.5
t-117.5 151t-130 243l-269 537q-75 153 -197.5 233t-254.5 80q-94 0 -201 -41q-90 -66 -90 -151q0 -64 29.5 -108t79.5 -68t115 -40t136.5 -29.5t143 -29.5t136.5 -47t115 -76.5t79.5 -122.5t29.5 -180q0 -91 -41.5 -174t-114 -146t-180 -100t-231.5 -37q-293 0 -459 127
l-63 408h53q100 -176 230.5 -284.5t275.5 -108.5q160 0 227 47q94 83 94 174q0 72 -29 122t-78 78t-112.5 46.5t-133.5 32t-140 29.5t-133.5 44t-112.5 70t-78 114t-29 170q0 117 68.5 212t187 148.5t263.5 53.5q177 0 295 -93t225 -310l270 -545q93 -187 206 -290t257 -103
q151 0 221 41q101 86 101 180q0 72 -29 122t-78 78t-112.5 46.5t-133.5 32t-140 29.5t-133.5 44t-112.5 70t-78 114t-29 170q0 117 68 212t186.5 148.5t263.5 53.5q142 0 260 -35.5t190 -89.5v-321h-53q-72 137 -191.5 225t-242.5 88q-94 0 -201 -41q-90 -66 -90 -151z" />
    <glyph glyph-name="Scaron_Scaron.liga" unicode="&#x160;&#x160;" horiz-adv-x="2486" 
d="M477 1546l-223 322l49 39l328 -178l315 178l49 -37l-223 -324h-295zM1724 1546l-223 322l49 39l328 -178l317 178l50 -37l-226 -324h-295zM1542 1133q0 -64 29.5 -108t79.5 -68t115 -40t136.5 -29.5t143 -29.5t136.5 -47t115 -76.5t79.5 -122.5t29.5 -180
q0 -91 -41.5 -174t-114 -146t-180 -100t-231.5 -37q-91 0 -156.5 22.5t-128 83.5t-117.5 151t-130 243l-269 537q-75 153 -197.5 233t-254.5 80q-94 0 -201 -41q-90 -66 -90 -151q0 -64 29.5 -108t79.5 -68t115 -40t136.5 -29.5t143 -29.5t136.5 -47t115 -76.5t79.5 -122.5
t29.5 -180q0 -91 -41.5 -174t-114 -146t-180 -100t-231.5 -37q-293 0 -459 127l-63 408h53q100 -176 230.5 -284.5t275.5 -108.5q160 0 227 47q94 83 94 174q0 72 -29 122t-78 78t-112.5 46.5t-133.5 32t-140 29.5t-133.5 44t-112.5 70t-78 114t-29 170q0 117 68.5 212
t187 148.5t263.5 53.5q177 0 295 -93t225 -310l270 -545q93 -187 206 -290t257 -103q151 0 221 41q101 86 101 180q0 72 -29 122t-78 78t-112.5 46.5t-133.5 32t-140 29.5t-133.5 44t-112.5 70t-78 114t-29 170q0 117 68 212t186.5 148.5t263.5 53.5q142 0 260 -35.5
t190 -89.5v-321h-53q-72 137 -191.5 225t-242.5 88q-94 0 -201 -41q-90 -66 -90 -151z" />
    <glyph glyph-name="Scaron_T.liga" unicode="&#x160;T" horiz-adv-x="2222" 
d="M477 1546l-223 322l49 39l328 -178l315 178l49 -37l-223 -324h-295zM1933 1325h-268v-1214l156 -60v-51h-580v51l154 60v1214h-809q-94 0 -201 -41q-90 -66 -90 -151q0 -61 29.5 -102.5t79.5 -63.5t115 -36.5t136.5 -27.5t143 -29.5t136.5 -48.5t115 -79.5t79.5 -127
t29.5 -186.5q0 -91 -41.5 -174t-114 -146t-180 -100t-231.5 -37q-293 0 -459 127l-63 408h53q100 -176 230.5 -284.5t275.5 -108.5q160 0 227 47q94 83 94 174q0 75 -29 128t-78 82.5t-112.5 49.5t-133.5 33.5t-140 29t-133.5 42.5t-112.5 67.5t-78 110t-29 163.5
q0 177 138 283.5t360 106.5h1548l62 -400h-53z" />
    <glyph glyph-name="Scedilla_T.liga" unicode="&#x15e;T" horiz-adv-x="2222" 
d="M1933 1325h-268v-1214l156 -60v-51h-580v51l154 60v1214h-809q-94 0 -201 -41q-90 -66 -90 -151q0 -61 29.5 -102.5t79.5 -63.5t115 -36.5t136.5 -27.5t143 -29.5t136.5 -48.5t115 -79.5t79.5 -127t29.5 -186.5q0 -87 -38 -167.5t-105.5 -142.5t-167 -101t-215.5 -44
l-41 -61q203 -54 203 -199q0 -74 -60.5 -128t-150.5 -69t-193 5v63q42 -2 70.5 1t54.5 12.5t38.5 31t12.5 54.5q0 68 -75 84l-84 14l-2 4l120 188q-243 11 -393 125l-63 408h53q100 -176 230.5 -284.5t275.5 -108.5q160 0 227 47q94 83 94 174q0 75 -29 128t-78 82.5
t-112.5 49.5t-133.5 33.5t-140 29t-133.5 42.5t-112.5 67.5t-78 110t-29 163.5q0 177 138 283.5t360 106.5h1548l62 -400h-53z" />
    <glyph glyph-name="Scircumflex_T.liga" unicode="&#x15c;T" horiz-adv-x="2222" 
d="M612 1704l-315 -178l-49 37l225 323h295l221 -321l-49 -39zM1933 1325h-268v-1214l156 -60v-51h-580v51l154 60v1214h-809q-94 0 -201 -41q-90 -66 -90 -151q0 -61 29.5 -102.5t79.5 -63.5t115 -36.5t136.5 -27.5t143 -29.5t136.5 -48.5t115 -79.5t79.5 -127t29.5 -186.5
q0 -91 -41.5 -174t-114 -146t-180 -100t-231.5 -37q-293 0 -459 127l-63 408h53q100 -176 230.5 -284.5t275.5 -108.5q160 0 227 47q94 83 94 174q0 75 -29 128t-78 82.5t-112.5 49.5t-133.5 33.5t-140 29t-133.5 42.5t-112.5 67.5t-78 110t-29 163.5q0 177 138 283.5
t360 106.5h1548l62 -400h-53z" />
    <glyph glyph-name="Scommaaccent_T.liga" unicode="&#x218;T" horiz-adv-x="2222" 
d="M1933 1325h-268v-1214l156 -60v-51h-580v51l154 60v1214h-809q-94 0 -201 -41q-90 -66 -90 -151q0 -61 29.5 -102.5t79.5 -63.5t115 -36.5t136.5 -27.5t143 -29.5t136.5 -48.5t115 -79.5t79.5 -127t29.5 -186.5q0 -91 -41.5 -174t-114 -146t-180 -100t-231.5 -37
q-293 0 -459 127l-63 408h53q100 -176 230.5 -284.5t275.5 -108.5q160 0 227 47q94 83 94 174q0 75 -29 128t-78 82.5t-112.5 49.5t-133.5 33.5t-140 29t-133.5 42.5t-112.5 67.5t-78 110t-29 163.5q0 177 138 283.5t360 106.5h1548l62 -400h-53zM664 -72q53 -50 71.5 -114
t2.5 -125t-76 -114t-154 -79l-45 33q53 49 47 153t-68 166v2z" />
    <glyph glyph-name="T_H.liga" unicode="TH" horiz-adv-x="2643" 
d="M827 1325v-1214l156 -60v-51h-582v51l156 60v1214h-270l-224 -291h-53l62 400h1401l61 -400h-53l-226 291h-428zM2607 1382l-156 -59v-1212l156 -60v-51h-582v51l156 60v569h-625v-569l156 -60v-51h-582v51l156 60v680h895v532l-156 59v52h582v-52z" />
    <glyph glyph-name="T_H_E.liga" unicode="THE" horiz-adv-x="3313" 
d="M827 1325v-1214l156 -60v-51h-582v51l156 60v1214h-270l-224 -291h-53l62 400h1349l62 -400h-53l-224 291h-379zM3211 395h54l-58 -395h-1182v51l156 60v569h-625v-569l156 -60v-51h-582v51l156 60v680h895v532l-156 59v52h1166v-383h-53l-162 274h-525v-534h365l94 186
h53v-479h-53l-92 182h-367v-571h551z" />
    <glyph glyph-name="T_Hbar.liga" unicode="T&#x126;" horiz-adv-x="2643" 
d="M2642 963h-191v-852l156 -60v-51h-582v51l156 60v569h-625v-569l156 -60v-51h-582v51l156 60v680h895v172h-1102v110h371l-195 252h-428v-1214l156 -60v-51h-582v51l156 60v1214h-270l-224 -291h-53l62 400h1401l55 -361h653v250l-156 59v52h582v-52l-156 -59v-250h191
v-110z" />
    <glyph glyph-name="T_Hcircumflex.liga" unicode="T&#x124;" horiz-adv-x="2643" 
d="M1880 1704l-315 -178l-49 37l225 323h295l221 -321l-49 -39zM827 1325v-1214l156 -60v-51h-582v51l156 60v1214h-270l-224 -291h-53l62 400h1401l61 -400h-53l-226 291h-428zM2607 1382l-156 -59v-1212l156 -60v-51h-582v51l156 60v569h-625v-569l156 -60v-51h-582v51
l156 60v680h895v532l-156 59v52h582v-52z" />
    <glyph glyph-name="T_I.liga" unicode="TI" horiz-adv-x="1740" 
d="M827 1325v-1214l156 -60v-51h-582v51l156 60v1214h-270l-224 -291h-53l62 400h1349l62 -400h-53l-224 291h-379zM1712 754l-156 -60v-583l156 -60v-51h-582v51l156 60v583l-156 60v51h582v-51z" />
    <glyph glyph-name="T_Iogonek.liga" unicode="T&#x12e;" horiz-adv-x="1740" 
d="M827 1325v-1214l156 -60v-51h-582v51l156 60v1214h-270l-224 -291h-53l62 400h1349l62 -400h-53l-224 291h-379zM1712 754l-156 -60v-583l156 -60v-51h-156q-88 -146 -88 -270q0 -67 45 -99.5t109 -13.5v-61q-53 -32 -120.5 -40t-126 7.5t-98.5 59t-40 106.5
q0 40 14.5 77.5t32 64t55.5 61.5t61 53t73 55h-343v51l156 60v583l-156 60v51h582v-51z" />
    <glyph glyph-name="T_L.liga" unicode="TL" horiz-adv-x="2234" 
d="M827 1325v-1214l156 -60v-51h-582v51l156 60v1214h-270l-224 -291h-53l62 400h1349l62 -400h-53l-224 291h-379zM2146 395h56l-58 -395h-1014v51l156 60v598l-156 59v51h582v-51l-156 -59v-600h379z" />
    <glyph glyph-name="T_L_A.liga" unicode="TLA" horiz-adv-x="3147" 
d="M827 1325v-1214l156 -60v-51h-582v51l156 60v1214h-270l-224 -291h-53l62 400h1349l62 -400h-53l-224 291h-379zM3006 104l132 -53v-51h-605v51l179 53l-170 410h-537l-164 -405h176l211 286h56l-58 -395h-1096v51l156 60v598l-156 59v51h582v-51l-156 -59v-600h164
l543 1325h193zM2050 625h447l-226 544z" />
    <glyph glyph-name="T_L_I.liga" unicode="TLI" horiz-adv-x="2482" 
d="M827 1325v-1214l156 -60v-51h-582v51l156 60v1214h-270l-224 -291h-53l62 400h1349l62 -400h-53l-224 291h-379zM2423 1382l-156 -59v-598l156 -59v-52h-582v52l156 59v598l-156 59v52h582v-52zM1987 109l211 286h53l-58 -395h-1063v51l156 60v598l-156 59v51h582v-51
l-156 -59v-600h431z" />
    <glyph glyph-name="T_Lcommaaccent.liga" unicode="T&#x13b;" horiz-adv-x="2234" 
d="M827 1325v-1214l156 -60v-51h-582v51l156 60v1214h-270l-224 -291h-53l62 400h1349l62 -400h-53l-224 291h-379zM2146 395h56l-58 -395h-1014v51l156 60v598l-156 59v51h582v-51l-156 -59v-600h379zM1714 -72q53 -50 71.5 -114t2.5 -125t-75.5 -114t-153.5 -79l-46 33
q53 49 47.5 153t-67.5 166v2z" />
    <glyph glyph-name="T_T.liga" unicode="TT" horiz-adv-x="2148" 
d="M1860 1325h-269v-1214l156 -60v-51h-580v51l154 60v1214h-494v-1214l156 -60v-51h-582v51l156 60v1214h-270l-224 -291h-53l62 400h2005l61 -400h-53z" />
    <glyph glyph-name="T_U.liga" unicode="TU" horiz-adv-x="2570" 
d="M827 1325v-1214l156 -60v-51h-582v51l156 60v1214h-270l-224 -291h-53l62 400h1325l61 -400h-53l-225 291h-353zM2525 1434v-52l-135 -82v-829q0 -122 -44 -218.5t-121 -156t-174.5 -90.5t-209.5 -31q-89 0 -170 15.5t-157 52.5t-131 93t-88 143t-33 196v316h270v-275
q0 -84 25 -152.5t64.5 -111.5t92 -72t104.5 -41t105 -12q146 0 251 99t105 268v806l-184 82v52h430z" />
    <glyph glyph-name="T_Uacute.liga" unicode="T&#xda;" horiz-adv-x="2570" 
d="M2300 1712l-604 -186l-41 49l344 332h4l297 -185v-10zM827 1325v-1214l156 -60v-51h-582v51l156 60v1214h-270l-224 -291h-53l62 400h1325l61 -400h-53l-225 291h-353zM2525 1434v-52l-135 -82v-829q0 -122 -44 -218.5t-121 -156t-174.5 -90.5t-209.5 -31
q-89 0 -170 15.5t-157 52.5t-131 93t-88 143t-33 196v316h270v-275q0 -84 25 -152.5t64.5 -111.5t92 -72t104.5 -41t105 -12q146 0 251 99t105 268v806l-184 82v52h430z" />
    <glyph glyph-name="T_Ubreve.liga" unicode="T&#x16c;" horiz-adv-x="2570" 
d="M1882 1536q-60 0 -113 18t-99 55.5t-72.5 105.5t-26.5 159l71 2q25 -57 90.5 -99t149.5 -42t149.5 42t92.5 99l71 -2q0 -91 -26.5 -159t-72.5 -106t-99.5 -55.5t-114.5 -17.5zM827 1325v-1214l156 -60v-51h-582v51l156 60v1214h-270l-224 -291h-53l62 400h1325l61 -400
h-53l-225 291h-353zM2525 1434v-52l-135 -82v-829q0 -122 -44 -218.5t-121 -156t-174.5 -90.5t-209.5 -31q-89 0 -170 15.5t-157 52.5t-131 93t-88 143t-33 196v316h270v-275q0 -84 25 -152.5t64.5 -111.5t92 -72t104.5 -41t105 -12q146 0 251 99t105 268v806l-184 82v52
h430z" />
    <glyph glyph-name="T_Ucircumflex.liga" unicode="T&#xdb;" horiz-adv-x="2570" 
d="M1872 1704l-316 -178l-49 37l226 323h295l221 -321l-49 -39zM827 1325v-1214l156 -60v-51h-582v51l156 60v1214h-270l-224 -291h-53l62 400h1325l61 -400h-53l-225 291h-353zM2525 1434v-52l-135 -82v-829q0 -122 -44 -218.5t-121 -156t-174.5 -90.5t-209.5 -31
q-89 0 -170 15.5t-157 52.5t-131 93t-88 143t-33 196v316h270v-275q0 -84 25 -152.5t64.5 -111.5t92 -72t104.5 -41t105 -12q146 0 251 99t105 268v806l-184 82v52h430z" />
    <glyph glyph-name="T_Udieresis.liga" unicode="T&#xdc;" horiz-adv-x="2570" 
d="M1673 1579q-68 0 -114 45t-46 109t46 108.5t114 44.5q67 0 113.5 -45t46.5 -108t-46.5 -108.5t-113.5 -45.5zM2095 1579q-67 0 -113.5 45.5t-46.5 108.5t46.5 108t113.5 45q68 0 114 -44.5t46 -108.5t-46 -109t-114 -45zM827 1325v-1214l156 -60v-51h-582v51l156 60v1214
h-270l-224 -291h-53l62 400h1325l61 -400h-53l-225 291h-353zM2525 1434v-52l-135 -82v-829q0 -122 -44 -218.5t-121 -156t-174.5 -90.5t-209.5 -31q-89 0 -170 15.5t-157 52.5t-131 93t-88 143t-33 196v316h270v-275q0 -84 25 -152.5t64.5 -111.5t92 -72t104.5 -41t105 -12
q146 0 251 99t105 268v806l-184 82v52h430z" />
    <glyph glyph-name="T_Ugrave.liga" unicode="T&#xd9;" horiz-adv-x="2570" 
d="M2095 1581l-33 -55l-575 160v8l242 213h4zM827 1325v-1214l156 -60v-51h-582v51l156 60v1214h-270l-224 -291h-53l62 400h1325l61 -400h-53l-225 291h-353zM2525 1434v-52l-135 -82v-829q0 -122 -44 -218.5t-121 -156t-174.5 -90.5t-209.5 -31q-89 0 -170 15.5t-157 52.5
t-131 93t-88 143t-33 196v316h270v-275q0 -84 25 -152.5t64.5 -111.5t92 -72t104.5 -41t105 -12q146 0 251 99t105 268v806l-184 82v52h430z" />
    <glyph glyph-name="T_Uhungarumlaut.liga" unicode="T&#x170;" horiz-adv-x="2570" 
d="M2040 1821l-463 -295l-49 35l164 342h4l344 -70v-12zM1970 1528l-51 41l264 334h4l320 -103v-10zM827 1325v-1214l156 -60v-51h-582v51l156 60v1214h-270l-224 -291h-53l62 400h1325l61 -400h-53l-225 291h-353zM2525 1434v-52l-135 -82v-829q0 -122 -44 -218.5
t-121 -156t-174.5 -90.5t-209.5 -31q-89 0 -170 15.5t-157 52.5t-131 93t-88 143t-33 196v316h270v-275q0 -84 25 -152.5t64.5 -111.5t92 -72t104.5 -41t105 -12q146 0 251 99t105 268v806l-184 82v52h430z" />
    <glyph glyph-name="T_Umacron.liga" unicode="T&#x16a;" horiz-adv-x="2570" 
d="M2169 1786v-164h-572v164h572zM827 1325v-1214l156 -60v-51h-582v51l156 60v1214h-270l-224 -291h-53l62 400h1325l61 -400h-53l-225 291h-353zM2525 1434v-52l-135 -82v-829q0 -122 -44 -218.5t-121 -156t-174.5 -90.5t-209.5 -31q-89 0 -170 15.5t-157 52.5t-131 93
t-88 143t-33 196v316h270v-275q0 -84 25 -152.5t64.5 -111.5t92 -72t104.5 -41t105 -12q146 0 251 99t105 268v806l-184 82v52h430z" />
    <glyph glyph-name="T_Uogonek.liga" unicode="T&#x172;" horiz-adv-x="2570" 
d="M827 1325v-1214l156 -60v-51h-582v51l156 60v1214h-270l-224 -291h-53l62 400h1325l61 -400h-53l-225 291h-353zM2525 1434v-52l-135 -82v-829q0 -107 -34 -194t-94 -146t-138 -96t-172 -51q-78 -139 -78 -254q0 -67 45 -99.5t109 -13.5v-61q-53 -32 -120.5 -40t-126 7.5
t-99 59t-40.5 106.5q0 36 13.5 71t30 59t52.5 56.5t57 49t67 50.5h-21q-89 0 -170 15.5t-157 52.5t-131 93t-88 143t-33 196v316h270v-275q0 -84 25 -152.5t64.5 -111.5t92 -72t104.5 -41t105 -12q146 0 251 99t105 268v806l-184 82v52h430z" />
    <glyph glyph-name="T_Uring.liga" unicode="T&#x16e;" horiz-adv-x="2570" 
d="M1882 1495q-111 0 -181.5 55t-70.5 148q0 42 15 81.5t44 72.5t78.5 53t112.5 20q112 0 183 -54.5t71 -148.5q0 -92 -64 -159.5t-188 -67.5zM1780 1778q-21 -24 -21 -60q0 -51 37 -79.5t98 -28.5q44 0 86 28q25 29 25 64q0 52 -36 80t-97 28q-54 0 -92 -32zM827 1325
v-1214l156 -60v-51h-582v51l156 60v1214h-270l-224 -291h-53l62 400h1325l61 -400h-53l-225 291h-353zM2525 1434v-52l-135 -82v-829q0 -122 -44 -218.5t-121 -156t-174.5 -90.5t-209.5 -31q-89 0 -170 15.5t-157 52.5t-131 93t-88 143t-33 196v316h270v-275
q0 -84 25 -152.5t64.5 -111.5t92 -72t104.5 -41t105 -12q146 0 251 99t105 268v806l-184 82v52h430z" />
    <glyph glyph-name="T_Utilde.liga" unicode="T&#x168;" horiz-adv-x="2570" 
d="M1704 1673q-22 0 -39 -6t-31 -20.5t-21.5 -24t-20.5 -32.5t-17 -29l-64 20q29 135 90 214t148 79q47 0 96 -19t82.5 -42.5t72 -42.5t66.5 -19q21 0 38 6t30.5 20.5t21 24.5t20 32.5t17.5 29.5l64 -21q-29 -134 -91 -213.5t-147 -79.5q-47 0 -96 19t-83 42.5t-71.5 42.5
t-64.5 19zM827 1325v-1214l156 -60v-51h-582v51l156 60v1214h-270l-224 -291h-53l62 400h1325l61 -400h-53l-225 291h-353zM2525 1434v-52l-135 -82v-829q0 -122 -44 -218.5t-121 -156t-174.5 -90.5t-209.5 -31q-89 0 -170 15.5t-157 52.5t-131 93t-88 143t-33 196v316h270
v-275q0 -84 25 -152.5t64.5 -111.5t92 -72t104.5 -41t105 -12q146 0 251 99t105 268v806l-184 82v52h430z" />
    <glyph glyph-name="T_V.liga" unicode="TV" horiz-adv-x="2594" 
d="M2595 1434v-52l-146 -82l-520 -1300h-192l-533 1319l-14 6h-363v-1214l156 -60v-51h-582v51l156 60v1214h-270l-224 -291h-53l62 400h1640v-52l-217 -61l426 -1055l408 1032l-242 84v52h508z" />
    <glyph glyph-name="T_W.liga" unicode="TW" horiz-adv-x="3237" 
d="M3228 1434v-52l-131 -77l-406 -1305h-205l-319 952l-324 -952h-205l-434 1323l-4 2h-373v-1214l156 -60v-51h-582v51l156 60v1214h-270l-224 -291h-53l62 400h1607v-52l-188 -65l336 -1024l282 833l-65 197l-127 59v52h600v-52l-188 -65l340 -1012l307 991l-215 86v52
h467z" />
    <glyph glyph-name="T_Wacute.liga" unicode="T&#x1e82;" horiz-adv-x="3237" 
d="M2632 1712l-604 -186l-41 49l344 332h4l297 -185v-10zM3228 1434v-52l-131 -77l-406 -1305h-205l-319 952l-324 -952h-205l-434 1323l-4 2h-373v-1214l156 -60v-51h-582v51l156 60v1214h-270l-224 -291h-53l62 400h1607v-52l-188 -65l336 -1024l282 833l-65 197l-127 59
v52h600v-52l-188 -65l340 -1012l307 991l-215 86v52h467z" />
    <glyph glyph-name="T_Wcircumflex.liga" unicode="T&#x174;" horiz-adv-x="3237" 
d="M2204 1704l-316 -178l-49 37l225 323h295l221 -321l-49 -39zM3228 1434v-52l-131 -77l-406 -1305h-205l-319 952l-324 -952h-205l-434 1323l-4 2h-373v-1214l156 -60v-51h-582v51l156 60v1214h-270l-224 -291h-53l62 400h1607v-52l-188 -65l336 -1024l282 833l-65 197
l-127 59v52h600v-52l-188 -65l340 -1012l307 991l-215 86v52h467z" />
    <glyph glyph-name="T_Wdieresis.liga" unicode="T&#x1e84;" horiz-adv-x="3237" 
d="M2005 1579q-68 0 -114 45t-46 109t46 108.5t114 44.5q67 0 113.5 -45t46.5 -108t-46.5 -108.5t-113.5 -45.5zM2427 1579q-67 0 -113.5 45.5t-46.5 108.5t46.5 108t113.5 45q68 0 114 -44.5t46 -108.5t-46 -109t-114 -45zM3228 1434v-52l-131 -77l-406 -1305h-205
l-319 952l-324 -952h-205l-434 1323l-4 2h-373v-1214l156 -60v-51h-582v51l156 60v1214h-270l-224 -291h-53l62 400h1607v-52l-188 -65l336 -1024l282 833l-65 197l-127 59v52h600v-52l-188 -65l340 -1012l307 991l-215 86v52h467z" />
    <glyph glyph-name="T_Wgrave.liga" unicode="T&#x1e80;" horiz-adv-x="3237" 
d="M2427 1581l-33 -55l-575 160v8l241 213h4zM3228 1434v-52l-131 -77l-406 -1305h-205l-319 952l-324 -952h-205l-434 1323l-4 2h-373v-1214l156 -60v-51h-582v51l156 60v1214h-270l-224 -291h-53l62 400h1607v-52l-188 -65l336 -1024l282 833l-65 197l-127 59v52h600v-52
l-188 -65l340 -1012l307 991l-215 86v52h467z" />
    <glyph glyph-name="T_Y.liga" unicode="TY" horiz-adv-x="2473" 
d="M2337 1305l-430 -689v-505l155 -60v-51h-581v51l155 60v499l-467 715h-342v-1214l156 -60v-51h-582v51l156 60v1214h-270l-224 -291h-53l62 400h1581v-52l-164 -49l373 -585l346 561l-193 73v52h469v-52z" />
    <glyph glyph-name="T_Yacute.liga" unicode="T&#xdd;" horiz-adv-x="2473" 
d="M2218 1712l-604 -186l-41 49l344 332h4l297 -185v-10zM2337 1305l-430 -689v-505l155 -60v-51h-581v51l155 60v499l-467 715h-342v-1214l156 -60v-51h-582v51l156 60v1214h-270l-224 -291h-53l62 400h1581v-52l-164 -49l373 -585l346 561l-193 73v52h469v-52z" />
    <glyph glyph-name="T_Ycircumflex.liga" unicode="T&#x176;" horiz-adv-x="2473" 
d="M1790 1704l-315 -178l-50 37l226 323h295l221 -321l-49 -39zM2337 1305l-430 -689v-505l155 -60v-51h-581v51l155 60v499l-467 715h-342v-1214l156 -60v-51h-582v51l156 60v1214h-270l-224 -291h-53l62 400h1581v-52l-164 -49l373 -585l346 561l-193 73v52h469v-52z" />
    <glyph glyph-name="T_Ydieresis.liga" unicode="T&#x178;" horiz-adv-x="2473" 
d="M1589 1579q-68 0 -113.5 45t-45.5 109t45.5 108.5t113.5 44.5q67 0 113.5 -45t46.5 -108t-46.5 -108.5t-113.5 -45.5zM2011 1579q-67 0 -113.5 45.5t-46.5 108.5t46.5 108t113.5 45q68 0 114 -44.5t46 -108.5t-46 -109t-114 -45zM2337 1305l-430 -689v-505l155 -60v-51
h-581v51l155 60v499l-467 715h-342v-1214l156 -60v-51h-582v51l156 60v1214h-270l-224 -291h-53l62 400h1581v-52l-164 -49l373 -585l346 561l-193 73v52h469v-52z" />
    <glyph glyph-name="T_Ygrave.liga" unicode="T&#x1ef2;" horiz-adv-x="2473" 
d="M2013 1581l-33 -55l-575 160v8l242 213h4zM2337 1305l-430 -689v-505l155 -60v-51h-581v51l155 60v499l-467 715h-342v-1214l156 -60v-51h-582v51l156 60v1214h-270l-224 -291h-53l62 400h1581v-52l-164 -49l373 -585l346 561l-193 73v52h469v-52z" />
    <glyph glyph-name="T_b.liga" unicode="Tb" horiz-adv-x="2234" 
d="M1782 1020q172 0 272 -132.5t100 -348.5q0 -155 -55 -282t-162.5 -204.5t-248.5 -77.5q-128 0 -246 35t-201 88v1227h-414v-1214l152 -60v-51h-580v51l156 60h2v1214h-270l-224 -291h-53l62 400h1165l240 92l16 -2v-686q50 75 127 128.5t162 53.5zM1634 100q52 0 97 19
t83 58.5t60 110.5t22 165q0 108 -20.5 187.5t-55 120.5t-72 60t-79.5 19q-39 0 -90 -32.5t-86 -84.5v-598q77 -25 141 -25z" />
    <glyph glyph-name="T_h.liga" unicode="Th" horiz-adv-x="2277" 
d="M2120 102l129 -51v-51h-512v51l129 51v523q0 98 -37.5 153.5t-114.5 55.5q-110 0 -221 -119v-613l131 -51v-51h-514v51l131 51v1223h-414v-1214l156 -60v-51h-582v51l156 60v1214h-270l-224 -291h-53l62 400h1165l240 92l16 -2v-705q77 107 166.5 154t175.5 47
q138 0 211.5 -92t73.5 -264v-562z" />
    <glyph glyph-name="T_hbar.liga" unicode="T&#x127;" horiz-adv-x="2277" 
d="M2120 102l129 -51v-51h-512v51l129 51v512q0 98 -37.5 153.5t-114.5 55.5q-111 0 -221 -118v-603l131 -51v-51h-514v51l131 51v1012h-135v105h135v106h-414v-1214l156 -60v-51h-582v51l156 60v1214h-270l-224 -291h-53l62 400h1165l240 92l16 -2v-305h266v-105h-266v-305
q77 107 166.5 154t175.5 47q138 0 211.5 -92.5t73.5 -264.5v-551z" />
    <glyph glyph-name="T_k.liga" unicode="Tk" horiz-adv-x="2263" 
d="M2132 100l119 -49v-51h-353l-294 492l-111 -93v-297l131 -51v-51h-514v51l131 51v1223h-414v-1214l156 -60v-51h-582v51l156 60v1214h-270l-224 -291h-53l62 400h1165l240 92l16 -2v-992l414 347l-154 65v51h463v-51l-143 -61l-271 -226z" />
    <glyph glyph-name="T_l.liga" unicode="Tl" horiz-adv-x="1652" 
d="M1493 102l131 -51v-51h-514v51l131 51v1223h-414v-1214l156 -60v-51h-582v51l156 60v1214h-270l-224 -291h-53l62 400h1165l240 92l16 -2v-1422z" />
    <glyph glyph-name="T_lcaron.liga" unicode="T&#x13e;" horiz-adv-x="1652" 
d="M1761 1552q49 -59 68 -126t7 -131.5t-65 -122.5t-141 -95l-45 25q28 50 39 97t-3 118.5t-62 152.5v5zM1493 1524v-1422l131 -51v-51h-514v51l131 51v1223h-414v-1214l156 -60v-51h-582v51l156 60v1214h-270l-224 -291h-53l62 400h1165l240 92z" />
    <glyph glyph-name="Tbar_H.liga" unicode="&#x166;H" horiz-adv-x="2643" 
d="M827 1325v-530h232v-111h-232v-573l156 -60v-51h-582v51l156 60v573h-233v111h233v530h-270l-224 -291h-53l62 400h1401l61 -400h-53l-226 291h-428zM2607 1382l-156 -59v-1212l156 -60v-51h-582v51l156 60v569h-625v-569l156 -60v-51h-582v51l156 60v680h895v532
l-156 59v52h582v-52z" />
    <glyph glyph-name="Tbar_I.liga" unicode="&#x166;I" horiz-adv-x="1740" 
d="M827 1325v-530h232v-111h-232v-573l156 -60v-51h-582v51l156 60v573h-233v111h233v530h-270l-224 -291h-53l62 400h1349l62 -400h-53l-224 291h-379zM1712 754l-156 -60v-583l156 -60v-51h-582v51l156 60v583l-156 60v51h582v-51z" />
    <glyph glyph-name="Tbar_L.liga" unicode="&#x166;L" horiz-adv-x="2234" 
d="M827 1325v-530h232v-111h-232v-573l156 -60v-51h-582v51l156 60v573h-233v111h233v530h-270l-224 -291h-53l62 400h1349l62 -400h-53l-224 291h-379zM2146 395h56l-58 -395h-1014v51l156 60v598l-156 59v51h582v-51l-156 -59v-600h379z" />
    <glyph glyph-name="Tbar_U.liga" unicode="&#x166;U" horiz-adv-x="2570" 
d="M827 1325v-530h232v-111h-232v-573l156 -60v-51h-582v51l156 60v573h-233v111h233v530h-270l-224 -291h-53l62 400h1325l61 -400h-53l-225 291h-353zM2525 1434v-52l-135 -82v-829q0 -122 -44 -218.5t-121 -156t-174.5 -90.5t-209.5 -31q-89 0 -170 15.5t-157 52.5
t-131 93t-88 143t-33 196v316h270v-275q0 -84 25 -152.5t64.5 -111.5t92 -72t104.5 -41t105 -12q146 0 251 99t105 268v806l-184 82v52h430z" />
    <glyph glyph-name="Tbar_V.liga" unicode="&#x166;V" horiz-adv-x="2594" 
d="M2595 1434v-52l-146 -82l-520 -1300h-192l-533 1319l-14 6h-363v-530h232v-111h-232v-573l156 -60v-51h-582v51l156 60v573h-233v111h233v530h-270l-224 -291h-53l62 400h1640v-52l-217 -61l426 -1055l408 1032l-242 84v52h508z" />
    <glyph glyph-name="Tbar_W.liga" unicode="&#x166;W" horiz-adv-x="3237" 
d="M3228 1434v-52l-131 -77l-406 -1305h-205l-319 952l-324 -952h-205l-434 1323l-4 2h-373v-530h232v-111h-232v-573l156 -60v-51h-582v51l156 60v573h-233v111h233v530h-270l-224 -291h-53l62 400h1607v-52l-188 -65l336 -1024l282 833l-65 197l-127 59v52h600v-52
l-188 -65l340 -1012l307 991l-215 86v52h467z" />
    <glyph glyph-name="Tbar_Y.liga" unicode="&#x166;Y" horiz-adv-x="2473" 
d="M2337 1305l-430 -689v-505l155 -60v-51h-581v51l155 60v499l-467 715h-342v-530h232v-111h-232v-573l156 -60v-51h-582v51l156 60v573h-233v111h233v530h-270l-224 -291h-53l62 400h1581v-52l-164 -49l373 -585l346 561l-193 73v52h469v-52z" />
    <glyph glyph-name="Tcaron_H.liga" unicode="&#x164;H" horiz-adv-x="2643" 
d="M543 1546l-224 322l50 39l327 -178l316 178l49 -37l-223 -324h-295zM827 1325v-1214l156 -60v-51h-582v51l156 60v1214h-270l-224 -291h-53l62 400h1401l61 -400h-53l-226 291h-428zM2607 1382l-156 -59v-1212l156 -60v-51h-582v51l156 60v569h-625v-569l156 -60v-51
h-582v51l156 60v680h895v532l-156 59v52h582v-52z" />
    <glyph glyph-name="Tcaron_I.liga" unicode="&#x164;I" horiz-adv-x="1740" 
d="M543 1546l-224 322l50 39l327 -178l316 178l49 -37l-223 -324h-295zM827 1325v-1214l156 -60v-51h-582v51l156 60v1214h-270l-224 -291h-53l62 400h1349l62 -400h-53l-224 291h-379zM1712 754l-156 -60v-583l156 -60v-51h-582v51l156 60v583l-156 60v51h582v-51z" />
    <glyph glyph-name="Tcaron_L.liga" unicode="&#x164;L" horiz-adv-x="2234" 
d="M543 1546l-224 322l50 39l327 -178l316 178l49 -37l-223 -324h-295zM827 1325v-1214l156 -60v-51h-582v51l156 60v1214h-270l-224 -291h-53l62 400h1349l62 -400h-53l-224 291h-379zM2146 395h56l-58 -395h-1014v51l156 60v598l-156 59v51h582v-51l-156 -59v-600h379z
" />
    <glyph glyph-name="Tcaron_T.liga" unicode="&#x164;T" horiz-adv-x="2148" 
d="M543 1546l-224 322l50 39l327 -178l316 178l49 -37l-223 -324h-295zM1860 1325h-269v-1214l156 -60v-51h-580v51l154 60v1214h-494v-1214l156 -60v-51h-582v51l156 60v1214h-270l-224 -291h-53l62 400h2005l61 -400h-53z" />
    <glyph glyph-name="Tcaron_U.liga" unicode="&#x164;U" horiz-adv-x="2570" 
d="M543 1546l-224 322l50 39l327 -178l316 178l49 -37l-223 -324h-295zM827 1325v-1214l156 -60v-51h-582v51l156 60v1214h-270l-224 -291h-53l62 400h1325l61 -400h-53l-225 291h-353zM2525 1434v-52l-135 -82v-829q0 -122 -44 -218.5t-121 -156t-174.5 -90.5t-209.5 -31
q-89 0 -170 15.5t-157 52.5t-131 93t-88 143t-33 196v316h270v-275q0 -84 25 -152.5t64.5 -111.5t92 -72t104.5 -41t105 -12q146 0 251 99t105 268v806l-184 82v52h430z" />
    <glyph glyph-name="Tcaron_V.liga" unicode="&#x164;V" horiz-adv-x="2594" 
d="M543 1546l-224 322l50 39l327 -178l316 178l49 -37l-223 -324h-295zM2595 1434v-52l-146 -82l-520 -1300h-192l-533 1319l-14 6h-363v-1214l156 -60v-51h-582v51l156 60v1214h-270l-224 -291h-53l62 400h1640v-52l-217 -61l426 -1055l408 1032l-242 84v52h508z" />
    <glyph glyph-name="Tcaron_W.liga" unicode="&#x164;W" horiz-adv-x="3237" 
d="M543 1546l-224 322l50 39l327 -178l316 178l49 -37l-223 -324h-295zM3228 1434v-52l-131 -77l-406 -1305h-205l-319 952l-324 -952h-205l-434 1323l-4 2h-373v-1214l156 -60v-51h-582v51l156 60v1214h-270l-224 -291h-53l62 400h1607v-52l-188 -65l336 -1024l282 833
l-65 197l-127 59v52h600v-52l-188 -65l340 -1012l307 991l-215 86v52h467z" />
    <glyph glyph-name="Tcaron_Y.liga" unicode="&#x164;Y" horiz-adv-x="2473" 
d="M543 1546l-224 322l50 39l327 -178l316 178l49 -37l-223 -324h-295zM2337 1305l-430 -689v-505l155 -60v-51h-581v51l155 60v499l-467 715h-342v-1214l156 -60v-51h-582v51l156 60v1214h-270l-224 -291h-53l62 400h1581v-52l-164 -49l373 -585l346 561l-193 73v52h469
v-52z" />
    <glyph glyph-name="uni01620048.liga" unicode="&#x162;H" horiz-adv-x="2643" 
d="M827 1325v-1214l156 -60v-51h-238l-55 -84q203 -54 203 -199q0 -74 -60.5 -128t-150.5 -69t-193 5v63q42 -2 70.5 1t54.5 12.5t39 31t13 54.5q0 67 -76 84l-84 14l-2 4l135 211h-238v51l156 60v1214h-270l-224 -291h-53l62 400h1401l61 -400h-53l-226 291h-428z
M2607 1382l-156 -59v-1212l156 -60v-51h-582v51l156 60v569h-625v-569l156 -60v-51h-582v51l156 60v680h895v532l-156 59v52h582v-52z" />
    <glyph glyph-name="uni01620049.liga" unicode="&#x162;I" horiz-adv-x="1740" 
d="M827 1325v-1214l156 -60v-51h-238l-55 -84q203 -54 203 -199q0 -74 -60.5 -128t-150.5 -69t-193 5v63q42 -2 70.5 1t54.5 12.5t39 31t13 54.5q0 67 -76 84l-84 14l-2 4l135 211h-238v51l156 60v1214h-270l-224 -291h-53l62 400h1349l62 -400h-53l-224 291h-379zM1712 754
l-156 -60v-583l156 -60v-51h-582v51l156 60v583l-156 60v51h582v-51z" />
    <glyph glyph-name="uni0162004C.liga" unicode="&#x162;L" horiz-adv-x="2234" 
d="M827 1325v-1214l156 -60v-51h-238l-55 -84q203 -54 203 -199q0 -74 -60.5 -128t-150.5 -69t-193 5v63q42 -2 70.5 1t54.5 12.5t39 31t13 54.5q0 67 -76 84l-84 14l-2 4l135 211h-238v51l156 60v1214h-270l-224 -291h-53l62 400h1349l62 -400h-53l-224 291h-379zM2146 395
h56l-58 -395h-1014v51l156 60v598l-156 59v51h582v-51l-156 -59v-600h379z" />
    <glyph glyph-name="uni01620055.liga" unicode="&#x162;U" horiz-adv-x="2570" 
d="M827 1325v-1214l156 -60v-51h-238l-55 -84q203 -54 203 -199q0 -74 -60.5 -128t-150.5 -69t-193 5v63q42 -2 70.5 1t54.5 12.5t39 31t13 54.5q0 67 -76 84l-84 14l-2 4l135 211h-238v51l156 60v1214h-270l-224 -291h-53l62 400h1325l61 -400h-53l-225 291h-353z
M2525 1434v-52l-135 -82v-829q0 -122 -44 -218.5t-121 -156t-174.5 -90.5t-209.5 -31q-89 0 -170 15.5t-157 52.5t-131 93t-88 143t-33 196v316h270v-275q0 -84 25 -152.5t64.5 -111.5t92 -72t104.5 -41t105 -12q146 0 251 99t105 268v806l-184 82v52h430z" />
    <glyph glyph-name="uni01620056.liga" unicode="&#x162;V" horiz-adv-x="2594" 
d="M2595 1434v-52l-146 -82l-520 -1300h-192l-533 1319l-14 6h-363v-1214l156 -60v-51h-238l-55 -84q203 -54 203 -199q0 -74 -60.5 -128t-150.5 -69t-193 5v63q42 -2 70.5 1t54.5 12.5t39 31t13 54.5q0 67 -76 84l-84 14l-2 4l135 211h-238v51l156 60v1214h-270l-224 -291
h-53l62 400h1640v-52l-217 -61l426 -1055l408 1032l-242 84v52h508z" />
    <glyph glyph-name="uni01620057.liga" unicode="&#x162;W" horiz-adv-x="3237" 
d="M3228 1434v-52l-131 -77l-406 -1305h-205l-319 952l-324 -952h-205l-434 1323l-4 2h-373v-1214l156 -60v-51h-238l-55 -84q203 -54 203 -199q0 -74 -60.5 -128t-150.5 -69t-193 5v63q42 -2 70.5 1t54.5 12.5t39 31t13 54.5q0 67 -76 84l-84 14l-2 4l135 211h-238v51
l156 60v1214h-270l-224 -291h-53l62 400h1607v-52l-188 -65l336 -1024l282 833l-65 197l-127 59v52h600v-52l-188 -65l340 -1012l307 991l-215 86v52h467z" />
    <glyph glyph-name="uni01620059.liga" unicode="&#x162;Y" horiz-adv-x="2473" 
d="M2337 1305l-430 -689v-505l155 -60v-51h-581v51l155 60v499l-467 715h-342v-1214l156 -60v-51h-238l-55 -84q203 -54 203 -199q0 -74 -60.5 -128t-150.5 -69t-193 5v63q42 -2 70.5 1t54.5 12.5t39 31t13 54.5q0 67 -76 84l-84 14l-2 4l135 211h-238v51l156 60v1214h-270
l-224 -291h-53l62 400h1581v-52l-164 -49l373 -585l346 561l-193 73v52h469v-52z" />
    <glyph glyph-name="uni021A0048.liga" unicode="&#x21a;H" horiz-adv-x="2643" 
d="M827 1325v-1214l156 -60v-51h-582v51l156 60v1214h-270l-224 -291h-53l62 400h1401l61 -400h-53l-226 291h-428zM2607 1382l-156 -59v-1212l156 -60v-51h-582v51l156 60v569h-625v-569l156 -60v-51h-582v51l156 60v680h895v532l-156 59v52h582v-52zM762 -72
q53 -50 71.5 -114t2.5 -125t-76 -114t-154 -79l-45 33q53 49 47.5 153t-67.5 166v2z" />
    <glyph glyph-name="uni021A0049.liga" unicode="&#x21a;I" horiz-adv-x="1740" 
d="M827 1325v-1214l156 -60v-51h-582v51l156 60v1214h-270l-224 -291h-53l62 400h1349l62 -400h-53l-224 291h-379zM1712 754l-156 -60v-583l156 -60v-51h-582v51l156 60v583l-156 60v51h582v-51zM762 -72q53 -50 71.5 -114t2.5 -125t-76 -114t-154 -79l-45 33
q53 49 47.5 153t-67.5 166v2z" />
    <glyph glyph-name="uni021A004C.liga" unicode="&#x21a;L" horiz-adv-x="2234" 
d="M827 1325v-1214l156 -60v-51h-582v51l156 60v1214h-270l-224 -291h-53l62 400h1349l62 -400h-53l-224 291h-379zM2146 395h56l-58 -395h-1014v51l156 60v598l-156 59v51h582v-51l-156 -59v-600h379zM762 -72q53 -50 71.5 -114t2.5 -125t-76 -114t-154 -79l-45 33
q53 49 47.5 153t-67.5 166v2z" />
    <glyph glyph-name="uni021A0055.liga" unicode="&#x21a;U" horiz-adv-x="2570" 
d="M827 1325v-1214l156 -60v-51h-582v51l156 60v1214h-270l-224 -291h-53l62 400h1325l61 -400h-53l-225 291h-353zM2525 1434v-52l-135 -82v-829q0 -122 -44 -218.5t-121 -156t-174.5 -90.5t-209.5 -31q-89 0 -170 15.5t-157 52.5t-131 93t-88 143t-33 196v316h270v-275
q0 -84 25 -152.5t64.5 -111.5t92 -72t104.5 -41t105 -12q146 0 251 99t105 268v806l-184 82v52h430zM762 -72q53 -50 71.5 -114t2.5 -125t-76 -114t-154 -79l-45 33q53 49 47.5 153t-67.5 166v2z" />
    <glyph glyph-name="uni021A0056.liga" unicode="&#x21a;V" horiz-adv-x="2594" 
d="M2595 1434v-52l-146 -82l-520 -1300h-192l-533 1319l-14 6h-363v-1214l156 -60v-51h-582v51l156 60v1214h-270l-224 -291h-53l62 400h1640v-52l-217 -61l426 -1055l408 1032l-242 84v52h508zM762 -72q53 -50 71.5 -114t2.5 -125t-76 -114t-154 -79l-45 33q53 49 47.5 153
t-67.5 166v2z" />
    <glyph glyph-name="uni021A0057.liga" unicode="&#x21a;W" horiz-adv-x="3237" 
d="M3228 1434v-52l-131 -77l-406 -1305h-205l-319 952l-324 -952h-205l-434 1323l-4 2h-373v-1214l156 -60v-51h-582v51l156 60v1214h-270l-224 -291h-53l62 400h1607v-52l-188 -65l336 -1024l282 833l-65 197l-127 59v52h600v-52l-188 -65l340 -1012l307 991l-215 86v52
h467zM762 -72q53 -50 71.5 -114t2.5 -125t-76 -114t-154 -79l-45 33q53 49 47.5 153t-67.5 166v2z" />
    <glyph glyph-name="uni021A0059.liga" unicode="&#x21a;Y" horiz-adv-x="2473" 
d="M2337 1305l-430 -689v-505l155 -60v-51h-581v51l155 60v499l-467 715h-342v-1214l156 -60v-51h-582v51l156 60v1214h-270l-224 -291h-53l62 400h1581v-52l-164 -49l373 -585l346 561l-193 73v52h469v-52zM762 -72q53 -50 71.5 -114t2.5 -125t-76 -114t-154 -79l-45 33
q53 49 47.5 153t-67.5 166v2z" />
    <glyph glyph-name="U_M.liga" unicode="UM" horiz-adv-x="2887" 
d="M2849 1382l-156 -59v-1212l156 -60v-51h-582v51l156 60v1157l-498 -1268h-53l-553 1253v-782q0 -122 -44 -218.5t-121 -156t-174.5 -90.5t-209.5 -31q-89 0 -170 15.5t-157 52.5t-131 93t-88.5 143t-33.5 196v848l-155 59v52h581v-52l-155 -59v-807q0 -84 25 -152.5
t64.5 -111.5t92 -72t104.5 -41t105 -12q146 0 251 99t105 268v806l-184 82v52h510l444 -1002l394 1002h477v-52z" />
    <glyph glyph-name="U_N.liga" unicode="UN" horiz-adv-x="2514" 
d="M2488 1434v-52l-157 -73v-1309h-72l-940 1212v-741q0 -122 -44 -218.5t-121 -156t-174.5 -90.5t-209.5 -31q-89 0 -170 15.5t-157 52.5t-131 93t-88.5 143t-33.5 196v848l-155 59v52h581v-52l-155 -59v-807q0 -84 25 -152.5t64.5 -111.5t92 -72t104.5 -41t105 -12
q146 0 251 99t105 268v806l-184 82v52h459l733 -930v801l-201 77v52h473z" />
    <glyph glyph-name="U_Nacute.liga" unicode="U&#x143;" horiz-adv-x="2514" 
d="M2193 1712l-604 -186l-41 49l344 332h4l297 -185v-10zM2488 1434v-52l-157 -73v-1309h-72l-940 1212v-741q0 -122 -44 -218.5t-121 -156t-174.5 -90.5t-209.5 -31q-89 0 -170 15.5t-157 52.5t-131 93t-88.5 143t-33.5 196v848l-155 59v52h581v-52l-155 -59v-807
q0 -84 25 -152.5t64.5 -111.5t92 -72t104.5 -41t105 -12q146 0 251 99t105 268v806l-184 82v52h459l733 -930v801l-201 77v52h473z" />
    <glyph glyph-name="U_Ncaron.liga" unicode="U&#x147;" horiz-adv-x="2514" 
d="M1630 1546l-223 322l49 39l328 -178l315 178l49 -37l-223 -324h-295zM2488 1434v-52l-157 -73v-1309h-72l-940 1212v-741q0 -122 -44 -218.5t-121 -156t-174.5 -90.5t-209.5 -31q-89 0 -170 15.5t-157 52.5t-131 93t-88.5 143t-33.5 196v848l-155 59v52h581v-52l-155 -59
v-807q0 -84 25 -152.5t64.5 -111.5t92 -72t104.5 -41t105 -12q146 0 251 99t105 268v806l-184 82v52h459l733 -930v801l-201 77v52h473z" />
    <glyph glyph-name="U_Ncommaaccent.liga" unicode="U&#x145;" horiz-adv-x="2514" 
d="M2488 1434v-52l-157 -73v-1309h-72l-940 1212v-741q0 -122 -44 -218.5t-121 -156t-174.5 -90.5t-209.5 -31q-89 0 -170 15.5t-157 52.5t-131 93t-88.5 143t-33.5 196v848l-155 59v52h581v-52l-155 -59v-807q0 -84 25 -152.5t64.5 -111.5t92 -72t104.5 -41t105 -12
q146 0 251 99t105 268v806l-184 82v52h459l733 -930v801l-201 77v52h473zM1833 -72q53 -50 71.5 -114t2.5 -125t-76 -114t-154 -79l-45 33q53 49 47.5 153t-67.5 166v2z" />
    <glyph glyph-name="U_Eng.liga" unicode="U&#x14a;" horiz-adv-x="2514" 
d="M2488 1434v-52l-157 -73v-1346q0 -79 -33.5 -156t-92 -138t-144.5 -98t-183 -36v57q99 27 148 114.5t49 213.5v318l-756 974v-741q0 -122 -44 -218.5t-121 -156t-174.5 -90.5t-209.5 -31q-89 0 -170 15.5t-157 52.5t-131 93t-88.5 143t-33.5 196v848l-155 59v52h581v-52
l-155 -59v-807q0 -84 25 -152.5t64.5 -111.5t92 -72t104.5 -41t105 -12q146 0 251 99t105 268v806l-184 82v52h459l733 -930v801l-201 77v52h473z" />
    <glyph glyph-name="U_Ntilde.liga" unicode="U&#xd1;" horiz-adv-x="2514" 
d="M1597 1673q-22 0 -39 -6t-31 -20.5t-21.5 -24t-20.5 -32.5t-17 -29l-63 20q29 135 89.5 214t147.5 79q47 0 96 -19t83 -42.5t72.5 -42.5t66.5 -19q21 0 38 6t30.5 20.5t21 24.5t20 32.5t17.5 29.5l63 -21q-29 -135 -90.5 -214t-146.5 -79q-59 0 -121 31t-112 61.5
t-83 30.5zM2488 1434v-52l-157 -73v-1309h-72l-940 1212v-741q0 -122 -44 -218.5t-121 -156t-174.5 -90.5t-209.5 -31q-89 0 -170 15.5t-157 52.5t-131 93t-88.5 143t-33.5 196v848l-155 59v52h581v-52l-155 -59v-807q0 -84 25 -152.5t64.5 -111.5t92 -72t104.5 -41t105 -12
q146 0 251 99t105 268v806l-184 82v52h459l733 -930v801l-201 77v52h473z" />
    <glyph glyph-name="Uacute_M.liga" unicode="&#xda;M" horiz-adv-x="2887" 
d="M1229 1712l-604 -186l-41 49l344 332h4l297 -185v-10zM2849 1382l-156 -59v-1212l156 -60v-51h-582v51l156 60v1157l-498 -1268h-53l-553 1253v-782q0 -122 -44 -218.5t-121 -156t-174.5 -90.5t-209.5 -31q-89 0 -170 15.5t-157 52.5t-131 93t-88.5 143t-33.5 196v848
l-155 59v52h581v-52l-155 -59v-807q0 -84 25 -152.5t64.5 -111.5t92 -72t104.5 -41t105 -12q146 0 251 99t105 268v806l-184 82v52h510l444 -1002l394 1002h477v-52z" />
    <glyph glyph-name="Uacute_N.liga" unicode="&#xda;N" horiz-adv-x="2514" 
d="M1229 1712l-604 -186l-41 49l344 332h4l297 -185v-10zM2488 1434v-52l-157 -73v-1309h-72l-940 1212v-741q0 -122 -44 -218.5t-121 -156t-174.5 -90.5t-209.5 -31q-89 0 -170 15.5t-157 52.5t-131 93t-88.5 143t-33.5 196v848l-155 59v52h581v-52l-155 -59v-807
q0 -84 25 -152.5t64.5 -111.5t92 -72t104.5 -41t105 -12q146 0 251 99t105 268v806l-184 82v52h459l733 -930v801l-201 77v52h473z" />
    <glyph glyph-name="Ubreve_M.liga" unicode="&#x16c;M" horiz-adv-x="2887" 
d="M811 1536q-60 0 -113 18t-99 55.5t-72.5 105.5t-26.5 159l71 2q25 -57 90.5 -99t149.5 -42t149.5 42t92.5 99l71 -2q0 -91 -26.5 -159t-72.5 -106t-99.5 -55.5t-114.5 -17.5zM2849 1382l-156 -59v-1212l156 -60v-51h-582v51l156 60v1157l-498 -1268h-53l-553 1253v-782
q0 -122 -44 -218.5t-121 -156t-174.5 -90.5t-209.5 -31q-89 0 -170 15.5t-157 52.5t-131 93t-88.5 143t-33.5 196v848l-155 59v52h581v-52l-155 -59v-807q0 -84 25 -152.5t64.5 -111.5t92 -72t104.5 -41t105 -12q146 0 251 99t105 268v806l-184 82v52h510l444 -1002
l394 1002h477v-52z" />
    <glyph glyph-name="Ubreve_N.liga" unicode="&#x16c;N" horiz-adv-x="2514" 
d="M811 1536q-60 0 -113 18t-99 55.5t-72.5 105.5t-26.5 159l71 2q25 -57 90.5 -99t149.5 -42t149.5 42t92.5 99l71 -2q0 -91 -26.5 -159t-72.5 -106t-99.5 -55.5t-114.5 -17.5zM2488 1434v-52l-157 -73v-1309h-72l-940 1212v-741q0 -122 -44 -218.5t-121 -156t-174.5 -90.5
t-209.5 -31q-89 0 -170 15.5t-157 52.5t-131 93t-88.5 143t-33.5 196v848l-155 59v52h581v-52l-155 -59v-807q0 -84 25 -152.5t64.5 -111.5t92 -72t104.5 -41t105 -12q146 0 251 99t105 268v806l-184 82v52h459l733 -930v801l-201 77v52h473z" />
    <glyph glyph-name="Ucircumflex_M.liga" unicode="&#xdb;M" horiz-adv-x="2887" 
d="M801 1704l-316 -178l-49 37l226 323h294l222 -321l-50 -39zM2849 1382l-156 -59v-1212l156 -60v-51h-582v51l156 60v1157l-498 -1268h-53l-553 1253v-782q0 -122 -44 -218.5t-121 -156t-174.5 -90.5t-209.5 -31q-89 0 -170 15.5t-157 52.5t-131 93t-88.5 143t-33.5 196
v848l-155 59v52h581v-52l-155 -59v-807q0 -84 25 -152.5t64.5 -111.5t92 -72t104.5 -41t105 -12q146 0 251 99t105 268v806l-184 82v52h510l444 -1002l394 1002h477v-52z" />
    </font>
</defs>
</svg>
