<?xml version="1.0" standalone="no"?>
<!DOCTYPE svg PUBLIC "-//W3C//DTD SVG 1.1//EN" "http://www.w3.org/Graphics/SVG/1.1/DTD/svg11.dtd" >
<svg xmlns="http://www.w3.org/2000/svg" xmlns:xlink="http://www.w3.org/1999/xlink" version="1.1">
<metadata>
Created by FontForge 20201107 at Sun Jan 28 22:30:42 2024
 By 
Copyright (c) 2023 by Caron twice Fonts. All rights reserved.
</metadata>
<defs>
<font id="LigaturessSerifTrial-Medium" horiz-adv-x="0" >
  <font-face 
    font-family="Ligaturess Serif Trial Medium"
    font-weight="500"
    font-stretch="normal"
    units-per-em="2048"
    panose-1="0 0 6 0 0 0 0 0 0 0"
    ascent="1638"
    descent="-410"
    x-height="989"
    cap-height="1434"
    bbox="-1001 -504 5472 1929"
    underline-thickness="102"
    underline-position="-204"
    unicode-range="U+0020-FB02"
  />
<missing-glyph horiz-adv-x="1425" 
d="M1229 1434v-1434h-1032v1434h1032zM424 100h577v1233h-577v-1233z" />
    <glyph glyph-name="fi" unicode="fi" horiz-adv-x="1185" 
d="M1018 102l137 -55v-47h-489v47l139 55v762l-139 27h-267v-789l138 -55v-47h-490v47l137 55v789h-149v98h149v105q0 93 26.5 169t69 123.5t97.5 80t108.5 46t106.5 13.5q94 0 183 -25.5t150.5 -76.5t61.5 -115q0 -55 -32 -87t-85 -32q-106 0 -137 119q-13 43 -53.5 79.5
t-99.5 36.5q-30 0 -57.5 -7t-56.5 -26t-49 -49t-30.5 -80.5t-5.5 -115.5l14 -158h520l93 25l10 -2v-910z" />
    <glyph glyph-name="fl" unicode="fl" horiz-adv-x="1191" 
d="M1018 102l137 -55v-47h-489v47l139 55v1024q-10 119 -77 175.5t-153 56.5q-37 0 -72 -16t-63 -46.5t-43 -81.5t-10 -114l8 -111h260v-98h-256v-789l138 -55v-47h-490v47l137 55v789h-149v98h149v58q0 96 40 177t102 130.5t132.5 76.5t137.5 27q109 0 190 -20l222 88
l10 -2v-1422z" />
    <glyph glyph-name="A_A.liga" unicode="AA" horiz-adv-x="2590" 
d="M2443 100l137 -53v-47h-569v47l187 53l-175 418h-548l-127 -315l45 -109l135 -47v-47h-572v47l187 53l-174 418h-547l-160 -397l211 -74v-47h-473v47l145 68l541 1319h152l454 -1096l449 1096h151zM1516 621h466l-235 569zM463 621h465l-236 565z" />
    <glyph glyph-name="A_V.liga" unicode="AV" horiz-adv-x="2011" 
d="M2011 1434v-48l-149 -75l-527 -1311h-151l-215 518h-547l-160 -397l211 -74v-47h-473v47l145 68l541 1319h152l491 -1186l418 1059l-250 79v48h514zM463 621h465l-236 565z" />
    <glyph glyph-name="A_W.liga" unicode="AW" horiz-adv-x="2672" 
d="M2662 1434v-48l-135 -71l-413 -1315h-156l-354 1004l-344 -1004h-158l-180 518h-500l-160 -397l211 -74v-47h-473v47l145 68l541 1319h152l411 -1153l301 876l-61 172l-131 57v48h569v-48l-194 -61l364 -1034l320 1012l-228 83v48h473zM463 621h422l-195 559z" />
    <glyph glyph-name="A_W_A.liga" unicode="AWA" horiz-adv-x="3364" 
d="M3217 100l138 -53v-47h-572v47l187 53l-174 418h-500l-182 -518h-156l-354 1004l-344 -1004h-158l-180 518h-500l-160 -397l211 -74v-47h-473v47l145 68l541 1319h152l411 -1153l301 876l-61 172l-131 57v48h569v-48l-194 -61l370 -1051l410 1160h153zM463 621h422
l-195 559zM2331 621h424l-230 550z" />
    <glyph glyph-name="A_Wacute.liga" unicode="A&#x1e82;" horiz-adv-x="2672" 
d="M2038 1712l-576 -180l-41 47l375 328h4l238 -185v-10zM2662 1434v-48l-135 -71l-413 -1315h-156l-354 1004l-344 -1004h-158l-180 518h-500l-160 -397l211 -74v-47h-473v47l145 68l541 1319h152l411 -1153l301 876l-61 172l-131 57v48h569v-48l-194 -61l364 -1034
l320 1012l-228 83v48h473zM463 621h422l-195 559z" />
    <glyph glyph-name="A_Wcircumflex.liga" unicode="A&#x174;" horiz-adv-x="2672" 
d="M1626 1710l-311 -178l-47 37l239 317h252l238 -315l-47 -39zM2662 1434v-48l-135 -71l-413 -1315h-156l-354 1004l-344 -1004h-158l-180 518h-500l-160 -397l211 -74v-47h-473v47l145 68l541 1319h152l411 -1153l301 876l-61 172l-131 57v48h569v-48l-194 -61l364 -1034
l320 1012l-228 83v48h473zM463 621h422l-195 559z" />
    <glyph glyph-name="A_Wdieresis.liga" unicode="A&#x1e84;" horiz-adv-x="2672" 
d="M1434 1597q-59 0 -100.5 41t-41.5 99q0 57 41.5 97t100.5 40q60 0 100.5 -40t40.5 -97q0 -59 -40.5 -99.5t-100.5 -40.5zM1839 1597q-60 0 -100.5 40.5t-40.5 99.5q0 57 40.5 97t100.5 40q59 0 100 -40t41 -97q0 -58 -41 -99t-100 -41zM2662 1434v-48l-135 -71
l-413 -1315h-156l-354 1004l-344 -1004h-158l-180 518h-500l-160 -397l211 -74v-47h-473v47l145 68l541 1319h152l411 -1153l301 876l-61 172l-131 57v48h569v-48l-194 -61l364 -1034l320 1012l-228 83v48h473zM463 621h422l-195 559z" />
    <glyph glyph-name="A_Wgrave.liga" unicode="A&#x1e80;" horiz-adv-x="2672" 
d="M1833 1585l-33 -53l-547 154v8l199 213h4zM2662 1434v-48l-135 -71l-413 -1315h-156l-354 1004l-344 -1004h-158l-180 518h-500l-160 -397l211 -74v-47h-473v47l145 68l541 1319h152l411 -1153l301 876l-61 172l-131 57v48h569v-48l-194 -61l364 -1034l320 1012l-228 83
v48h473zM463 621h422l-195 559z" />
    <glyph glyph-name="A_X.liga" unicode="AX" horiz-adv-x="2605" 
d="M2437 104l148 -57v-47h-576v47l160 47l-373 537l-366 -506l188 -78v-47h-662v47l187 53l-174 418h-547l-160 -397l211 -74v-47h-473v47l145 68l541 1319h152l514 -1239l383 524l-424 610l-146 57v48h576v-48l-160 -47l320 -460l321 430l-186 77v48h475v-48l-154 -67
l-395 -528zM463 621h465l-236 565z" />
    <glyph glyph-name="Aacute_V.liga" unicode="&#xc1;V" horiz-adv-x="2011" 
d="M1155 1712l-575 -180l-41 47l374 328h5l237 -185v-10zM2011 1434v-48l-149 -75l-527 -1311h-151l-215 518h-547l-160 -397l211 -74v-47h-473v47l145 68l541 1319h152l491 -1186l418 1059l-250 79v48h514zM463 621h465l-236 565z" />
    <glyph glyph-name="Aacute_W.liga" unicode="&#xc1;W" horiz-adv-x="2672" 
d="M1155 1712l-575 -180l-41 47l374 328h5l237 -185v-10zM2662 1434v-48l-135 -71l-413 -1315h-156l-354 1004l-344 -1004h-158l-180 518h-500l-160 -397l211 -74v-47h-473v47l145 68l541 1319h152l411 -1153l301 876l-61 172l-131 57v48h569v-48l-194 -61l364 -1034
l320 1012l-228 83v48h473zM463 621h422l-195 559z" />
    <glyph glyph-name="Aacute_X.liga" unicode="&#xc1;X" horiz-adv-x="2605" 
d="M1155 1712l-575 -180l-41 47l374 328h5l237 -185v-10zM2437 104l148 -57v-47h-576v47l160 47l-373 537l-366 -506l188 -78v-47h-662v47l187 53l-174 418h-547l-160 -397l211 -74v-47h-473v47l145 68l541 1319h152l514 -1239l383 524l-424 610l-146 57v48h576v-48
l-160 -47l320 -460l321 430l-186 77v48h475v-48l-154 -67l-395 -528zM463 621h465l-236 565z" />
    <glyph glyph-name="Abreve_V.liga" unicode="&#x102;V" horiz-adv-x="2011" 
d="M754 1542q-42 0 -82.5 10t-81.5 34t-71.5 61t-50 95.5t-19.5 131.5l69 2q25 -61 88 -104t148 -43q84 0 147 42.5t90 104.5l70 -2q0 -90 -29 -158t-76 -104t-98 -53t-104 -17zM2011 1434v-48l-149 -75l-527 -1311h-151l-215 518h-547l-160 -397l211 -74v-47h-473v47
l145 68l541 1319h152l491 -1186l418 1059l-250 79v48h514zM463 621h465l-236 565z" />
    <glyph glyph-name="Abreve_W.liga" unicode="&#x102;W" horiz-adv-x="2672" 
d="M754 1542q-42 0 -82.5 10t-81.5 34t-71.5 61t-50 95.5t-19.5 131.5l69 2q25 -61 88 -104t148 -43q84 0 147 42.5t90 104.5l70 -2q0 -90 -29 -158t-76 -104t-98 -53t-104 -17zM2662 1434v-48l-135 -71l-413 -1315h-156l-354 1004l-344 -1004h-158l-180 518h-500l-160 -397
l211 -74v-47h-473v47l145 68l541 1319h152l411 -1153l301 876l-61 172l-131 57v48h569v-48l-194 -61l364 -1034l320 1012l-228 83v48h473zM463 621h422l-195 559z" />
    <glyph glyph-name="Abreve_X.liga" unicode="&#x102;X" horiz-adv-x="2605" 
d="M754 1542q-42 0 -82.5 10t-81.5 34t-71.5 61t-50 95.5t-19.5 131.5l69 2q25 -61 88 -104t148 -43q84 0 147 42.5t90 104.5l70 -2q0 -90 -29 -158t-76 -104t-98 -53t-104 -17zM2437 104l148 -57v-47h-576v47l160 47l-373 537l-366 -506l188 -78v-47h-662v47l187 53
l-174 418h-547l-160 -397l211 -74v-47h-473v47l145 68l541 1319h152l514 -1239l383 524l-424 610l-146 57v48h576v-48l-160 -47l320 -460l321 430l-186 77v48h475v-48l-154 -67l-395 -528zM463 621h465l-236 565z" />
    <glyph glyph-name="Acircumflex_V.liga" unicode="&#xc2;V" horiz-adv-x="2011" 
d="M743 1710l-311 -178l-47 37l240 317h252l237 -315l-47 -39zM2011 1434v-48l-149 -75l-527 -1311h-151l-215 518h-547l-160 -397l211 -74v-47h-473v47l145 68l541 1319h152l491 -1186l418 1059l-250 79v48h514zM463 621h465l-236 565z" />
    <glyph glyph-name="Acircumflex_W.liga" unicode="&#xc2;W" horiz-adv-x="2672" 
d="M743 1710l-311 -178l-47 37l240 317h252l237 -315l-47 -39zM2662 1434v-48l-135 -71l-413 -1315h-156l-354 1004l-344 -1004h-158l-180 518h-500l-160 -397l211 -74v-47h-473v47l145 68l541 1319h152l411 -1153l301 876l-61 172l-131 57v48h569v-48l-194 -61l364 -1034
l320 1012l-228 83v48h473zM463 621h422l-195 559z" />
    <glyph glyph-name="Acircumflex_X.liga" unicode="&#xc2;X" horiz-adv-x="2605" 
d="M743 1710l-311 -178l-47 37l240 317h252l237 -315l-47 -39zM2437 104l148 -57v-47h-576v47l160 47l-373 537l-366 -506l188 -78v-47h-662v47l187 53l-174 418h-547l-160 -397l211 -74v-47h-473v47l145 68l541 1319h152l514 -1239l383 524l-424 610l-146 57v48h576v-48
l-160 -47l320 -460l321 430l-186 77v48h475v-48l-154 -67l-395 -528zM463 621h465l-236 565z" />
    <glyph glyph-name="Adieresis_V.liga" unicode="&#xc4;V" horiz-adv-x="2011" 
d="M551 1597q-59 0 -100 41t-41 99q0 57 41 97t100 40q60 0 100.5 -40t40.5 -97q0 -59 -40.5 -99.5t-100.5 -40.5zM956 1597q-60 0 -100.5 40.5t-40.5 99.5q0 57 40.5 97t100.5 40q59 0 100.5 -40t41.5 -97q0 -58 -41.5 -99t-100.5 -41zM2011 1434v-48l-149 -75l-527 -1311
h-151l-215 518h-547l-160 -397l211 -74v-47h-473v47l145 68l541 1319h152l491 -1186l418 1059l-250 79v48h514zM463 621h465l-236 565z" />
    <glyph glyph-name="Adieresis_W.liga" unicode="&#xc4;W" horiz-adv-x="2672" 
d="M551 1597q-59 0 -100 41t-41 99q0 57 41 97t100 40q60 0 100.5 -40t40.5 -97q0 -59 -40.5 -99.5t-100.5 -40.5zM956 1597q-60 0 -100.5 40.5t-40.5 99.5q0 57 40.5 97t100.5 40q59 0 100.5 -40t41.5 -97q0 -58 -41.5 -99t-100.5 -41zM2662 1434v-48l-135 -71l-413 -1315
h-156l-354 1004l-344 -1004h-158l-180 518h-500l-160 -397l211 -74v-47h-473v47l145 68l541 1319h152l411 -1153l301 876l-61 172l-131 57v48h569v-48l-194 -61l364 -1034l320 1012l-228 83v48h473zM463 621h422l-195 559z" />
    <glyph glyph-name="Adieresis_X.liga" unicode="&#xc4;X" horiz-adv-x="2605" 
d="M551 1597q-59 0 -100 41t-41 99q0 57 41 97t100 40q60 0 100.5 -40t40.5 -97q0 -59 -40.5 -99.5t-100.5 -40.5zM956 1597q-60 0 -100.5 40.5t-40.5 99.5q0 57 40.5 97t100.5 40q59 0 100.5 -40t41.5 -97q0 -58 -41.5 -99t-100.5 -41zM2437 104l148 -57v-47h-576v47
l160 47l-373 537l-366 -506l188 -78v-47h-662v47l187 53l-174 418h-547l-160 -397l211 -74v-47h-473v47l145 68l541 1319h152l514 -1239l383 524l-424 610l-146 57v48h576v-48l-160 -47l320 -460l321 430l-186 77v48h475v-48l-154 -67l-395 -528zM463 621h465l-236 565z" />
    <glyph glyph-name="Agrave_V.liga" unicode="&#xc0;V" horiz-adv-x="2011" 
d="M950 1585l-32 -53l-547 154v8l198 213h4zM2011 1434v-48l-149 -75l-527 -1311h-151l-215 518h-547l-160 -397l211 -74v-47h-473v47l145 68l541 1319h152l491 -1186l418 1059l-250 79v48h514zM463 621h465l-236 565z" />
    <glyph glyph-name="Agrave_W.liga" unicode="&#xc0;W" horiz-adv-x="2672" 
d="M950 1585l-32 -53l-547 154v8l198 213h4zM2662 1434v-48l-135 -71l-413 -1315h-156l-354 1004l-344 -1004h-158l-180 518h-500l-160 -397l211 -74v-47h-473v47l145 68l541 1319h152l411 -1153l301 876l-61 172l-131 57v48h569v-48l-194 -61l364 -1034l320 1012l-228 83
v48h473zM463 621h422l-195 559z" />
    <glyph glyph-name="Agrave_X.liga" unicode="&#xc0;X" horiz-adv-x="2605" 
d="M950 1585l-32 -53l-547 154v8l198 213h4zM2437 104l148 -57v-47h-576v47l160 47l-373 537l-366 -506l188 -78v-47h-662v47l187 53l-174 418h-547l-160 -397l211 -74v-47h-473v47l145 68l541 1319h152l514 -1239l383 524l-424 610l-146 57v48h576v-48l-160 -47l320 -460
l321 430l-186 77v48h475v-48l-154 -67l-395 -528zM463 621h465l-236 565z" />
    <glyph glyph-name="Amacron_V.liga" unicode="&#x100;V" horiz-adv-x="2011" 
d="M1034 1784v-154h-559v154h559zM2011 1434v-48l-149 -75l-527 -1311h-151l-215 518h-547l-160 -397l211 -74v-47h-473v47l145 68l541 1319h152l491 -1186l418 1059l-250 79v48h514zM463 621h465l-236 565z" />
    <glyph glyph-name="Amacron_W.liga" unicode="&#x100;W" horiz-adv-x="2672" 
d="M1034 1784v-154h-559v154h559zM2662 1434v-48l-135 -71l-413 -1315h-156l-354 1004l-344 -1004h-158l-180 518h-500l-160 -397l211 -74v-47h-473v47l145 68l541 1319h152l411 -1153l301 876l-61 172l-131 57v48h569v-48l-194 -61l364 -1034l320 1012l-228 83v48h473z
M463 621h422l-195 559z" />
    <glyph glyph-name="Amacron_X.liga" unicode="&#x100;X" horiz-adv-x="2605" 
d="M1034 1784v-154h-559v154h559zM2437 104l148 -57v-47h-576v47l160 47l-373 537l-366 -506l188 -78v-47h-662v47l187 53l-174 418h-547l-160 -397l211 -74v-47h-473v47l145 68l541 1319h152l514 -1239l383 524l-424 610l-146 57v48h576v-48l-160 -47l320 -460l321 430
l-186 77v48h475v-48l-154 -67l-395 -528zM463 621h465l-236 565z" />
    <glyph glyph-name="Aring_V.liga" unicode="&#xc5;V" horiz-adv-x="2011" 
d="M754 1499q-104 0 -173 55t-69 148q0 91 62 159t178 68q105 0 174 -55t69 -148q0 -91 -62 -159t-179 -68zM653 1788q-22 -26 -22 -66q0 -57 36.5 -86.5t98.5 -29.5q44 0 86 28q25 29 25 72q0 56 -36 85.5t-98 29.5q-51 0 -90 -33zM2011 1434v-48l-149 -75l-527 -1311h-151
l-215 518h-547l-160 -397l211 -74v-47h-473v47l145 68l541 1319h152l491 -1186l418 1059l-250 79v48h514zM463 621h465l-236 565z" />
    <glyph glyph-name="Aring_W.liga" unicode="&#xc5;W" horiz-adv-x="2672" 
d="M754 1499q-104 0 -173 55t-69 148q0 91 62 159t178 68q105 0 174 -55t69 -148q0 -91 -62 -159t-179 -68zM653 1788q-22 -26 -22 -66q0 -57 36.5 -86.5t98.5 -29.5q44 0 86 28q25 29 25 72q0 56 -36 85.5t-98 29.5q-51 0 -90 -33zM2662 1434v-48l-135 -71l-413 -1315h-156
l-354 1004l-344 -1004h-158l-180 518h-500l-160 -397l211 -74v-47h-473v47l145 68l541 1319h152l411 -1153l301 876l-61 172l-131 57v48h569v-48l-194 -61l364 -1034l320 1012l-228 83v48h473zM463 621h422l-195 559z" />
    <glyph glyph-name="Aring_X.liga" unicode="&#xc5;X" horiz-adv-x="2605" 
d="M754 1499q-104 0 -173 55t-69 148q0 91 62 159t178 68q105 0 174 -55t69 -148q0 -91 -62 -159t-179 -68zM653 1788q-22 -26 -22 -66q0 -57 36.5 -86.5t98.5 -29.5q44 0 86 28q25 29 25 72q0 56 -36 85.5t-98 29.5q-51 0 -90 -33zM2437 104l148 -57v-47h-576v47l160 47
l-373 537l-366 -506l188 -78v-47h-662v47l187 53l-174 418h-547l-160 -397l211 -74v-47h-473v47l145 68l541 1319h152l514 -1239l383 524l-424 610l-146 57v48h576v-48l-160 -47l320 -460l321 430l-186 77v48h475v-48l-154 -67l-395 -528zM463 621h465l-236 565z" />
    <glyph glyph-name="Atilde_V.liga" unicode="&#xc3;V" horiz-adv-x="2011" 
d="M586 1683q-11 0 -21.5 -2t-18.5 -4t-16.5 -8.5t-14 -9.5t-13.5 -13t-10.5 -13t-10.5 -16.5t-9.5 -15.5t-9.5 -17.5t-9 -16.5l-60 20q29 134 90 210.5t148 76.5q47 0 93 -20t75.5 -43.5t65 -43.5t63.5 -20q15 0 28 2.5t25.5 12t19 13.5t17.5 21t13.5 20t14.5 25t13 23
l59 -21q-28 -134 -89.5 -210.5t-147.5 -76.5q-47 0 -93 20t-76 43.5t-64.5 43.5t-61.5 20zM2011 1434v-48l-149 -75l-527 -1311h-151l-215 518h-547l-160 -397l211 -74v-47h-473v47l145 68l541 1319h152l491 -1186l418 1059l-250 79v48h514zM463 621h465l-236 565z" />
    <glyph glyph-name="Atilde_W.liga" unicode="&#xc3;W" horiz-adv-x="2672" 
d="M586 1683q-11 0 -21.5 -2t-18.5 -4t-16.5 -8.5t-14 -9.5t-13.5 -13t-10.5 -13t-10.5 -16.5t-9.5 -15.5t-9.5 -17.5t-9 -16.5l-60 20q29 134 90 210.5t148 76.5q47 0 93 -20t75.5 -43.5t65 -43.5t63.5 -20q15 0 28 2.5t25.5 12t19 13.5t17.5 21t13.5 20t14.5 25t13 23
l59 -21q-28 -134 -89.5 -210.5t-147.5 -76.5q-47 0 -93 20t-76 43.5t-64.5 43.5t-61.5 20zM2662 1434v-48l-135 -71l-413 -1315h-156l-354 1004l-344 -1004h-158l-180 518h-500l-160 -397l211 -74v-47h-473v47l145 68l541 1319h152l411 -1153l301 876l-61 172l-131 57v48
h569v-48l-194 -61l364 -1034l320 1012l-228 83v48h473zM463 621h422l-195 559z" />
    <glyph glyph-name="Atilde_X.liga" unicode="&#xc3;X" horiz-adv-x="2605" 
d="M586 1683q-11 0 -21.5 -2t-18.5 -4t-16.5 -8.5t-14 -9.5t-13.5 -13t-10.5 -13t-10.5 -16.5t-9.5 -15.5t-9.5 -17.5t-9 -16.5l-60 20q29 134 90 210.5t148 76.5q47 0 93 -20t75.5 -43.5t65 -43.5t63.5 -20q15 0 28 2.5t25.5 12t19 13.5t17.5 21t13.5 20t14.5 25t13 23
l59 -21q-28 -134 -89.5 -210.5t-147.5 -76.5q-47 0 -93 20t-76 43.5t-64.5 43.5t-61.5 20zM2437 104l148 -57v-47h-576v47l160 47l-373 537l-366 -506l188 -78v-47h-662v47l187 53l-174 418h-547l-160 -397l211 -74v-47h-473v47l145 68l541 1319h152l514 -1239l383 524
l-424 610l-146 57v48h576v-48l-160 -47l320 -460l321 430l-186 77v48h475v-48l-154 -67l-395 -528zM463 621h465l-236 565z" />
    <glyph glyph-name="C_A.liga" unicode="CA" horiz-adv-x="2560" 
d="M2413 100l137 -53v-47h-572v47l189 53l-174 418h-549l-66 -162q-77 -190 -224 -285.5t-353 -95.5q-171 0 -307.5 53t-225 149.5t-135.5 228.5t-47 292q0 107 33.5 215.5t98.5 206t152.5 173.5t205 120.5t245.5 44.5q121 0 243 -45t198 -113v-378h-72q-60 188 -172 293.5
t-264 105.5q-181 0 -324 -139q-121 -188 -121 -387q0 -180 76 -336t210 -249t292 -93q130 0 234.5 68t164.5 214l424 1035h152zM1485 621h465l-236 567z" />
    <glyph glyph-name="C_Aacute.liga" unicode="C&#xc1;" horiz-adv-x="2560" 
d="M2177 1712l-575 -180l-41 47l374 328h4l238 -185v-10zM2413 100l137 -53v-47h-572v47l189 53l-174 418h-549l-66 -162q-77 -190 -224 -285.5t-353 -95.5q-171 0 -307.5 53t-225 149.5t-135.5 228.5t-47 292q0 107 33.5 215.5t98.5 206t152.5 173.5t205 120.5t245.5 44.5
q121 0 243 -45t198 -113v-378h-72q-60 188 -172 293.5t-264 105.5q-181 0 -324 -139q-121 -188 -121 -387q0 -180 76 -336t210 -249t292 -93q130 0 234.5 68t164.5 214l424 1035h152zM1485 621h465l-236 567z" />
    <glyph glyph-name="C_Abreve.liga" unicode="C&#x102;" horiz-adv-x="2560" 
d="M1776 1542q-42 0 -82.5 10t-81.5 34t-72 61t-50.5 95.5t-19.5 131.5l70 2q25 -61 88 -104t148 -43q84 0 147 42.5t90 104.5l70 -2q0 -90 -29 -158t-76 -104t-98 -53t-104 -17zM2413 100l137 -53v-47h-572v47l189 53l-174 418h-549l-66 -162q-77 -190 -224 -285.5
t-353 -95.5q-171 0 -307.5 53t-225 149.5t-135.5 228.5t-47 292q0 107 33.5 215.5t98.5 206t152.5 173.5t205 120.5t245.5 44.5q121 0 243 -45t198 -113v-378h-72q-60 188 -172 293.5t-264 105.5q-181 0 -324 -139q-121 -188 -121 -387q0 -180 76 -336t210 -249t292 -93
q130 0 234.5 68t164.5 214l424 1035h152zM1485 621h465l-236 567z" />
    <glyph glyph-name="C_Acircumflex.liga" unicode="C&#xc2;" horiz-adv-x="2560" 
d="M1765 1710l-311 -178l-47 37l240 317h251l238 -315l-47 -39zM2413 100l137 -53v-47h-572v47l189 53l-174 418h-549l-66 -162q-77 -190 -224 -285.5t-353 -95.5q-171 0 -307.5 53t-225 149.5t-135.5 228.5t-47 292q0 107 33.5 215.5t98.5 206t152.5 173.5t205 120.5
t245.5 44.5q121 0 243 -45t198 -113v-378h-72q-60 188 -172 293.5t-264 105.5q-181 0 -324 -139q-121 -188 -121 -387q0 -180 76 -336t210 -249t292 -93q130 0 234.5 68t164.5 214l424 1035h152zM1485 621h465l-236 567z" />
    <glyph glyph-name="C_Adieresis.liga" unicode="C&#xc4;" horiz-adv-x="2560" 
d="M1575 1597q-59 0 -100 41t-41 99q0 57 41 97t100 40q60 0 100.5 -40t40.5 -97q0 -59 -40.5 -99.5t-100.5 -40.5zM1980 1597q-60 0 -100.5 40.5t-40.5 99.5q0 57 40.5 97t100.5 40q59 0 100.5 -40t41.5 -97q0 -58 -41.5 -99t-100.5 -41zM2413 100l137 -53v-47h-572v47
l189 53l-174 418h-549l-66 -162q-77 -190 -224 -285.5t-353 -95.5q-171 0 -307.5 53t-225 149.5t-135.5 228.5t-47 292q0 107 33.5 215.5t98.5 206t152.5 173.5t205 120.5t245.5 44.5q121 0 243 -45t198 -113v-378h-72q-60 188 -172 293.5t-264 105.5q-181 0 -324 -139
q-121 -188 -121 -387q0 -180 76 -336t210 -249t292 -93q130 0 234.5 68t164.5 214l424 1035h152zM1485 621h465l-236 567z" />
    <glyph glyph-name="C_Agrave.liga" unicode="C&#xc0;" horiz-adv-x="2560" 
d="M1972 1585l-33 -53l-546 154v8l198 213h4zM2413 100l137 -53v-47h-572v47l189 53l-174 418h-549l-66 -162q-77 -190 -224 -285.5t-353 -95.5q-171 0 -307.5 53t-225 149.5t-135.5 228.5t-47 292q0 107 33.5 215.5t98.5 206t152.5 173.5t205 120.5t245.5 44.5
q121 0 243 -45t198 -113v-378h-72q-60 188 -172 293.5t-264 105.5q-181 0 -324 -139q-121 -188 -121 -387q0 -180 76 -336t210 -249t292 -93q130 0 234.5 68t164.5 214l424 1035h152zM1485 621h465l-236 567z" />
    <glyph glyph-name="C_Amacron.liga" unicode="C&#x100;" horiz-adv-x="2560" 
d="M2056 1784v-154h-559v154h559zM2413 100l137 -53v-47h-572v47l189 53l-174 418h-549l-66 -162q-77 -190 -224 -285.5t-353 -95.5q-171 0 -307.5 53t-225 149.5t-135.5 228.5t-47 292q0 107 33.5 215.5t98.5 206t152.5 173.5t205 120.5t245.5 44.5q121 0 243 -45t198 -113
v-378h-72q-60 188 -172 293.5t-264 105.5q-181 0 -324 -139q-121 -188 -121 -387q0 -180 76 -336t210 -249t292 -93q130 0 234.5 68t164.5 214l424 1035h152zM1485 621h465l-236 567z" />
    <glyph glyph-name="C_Aogonek.liga" unicode="C&#x104;" horiz-adv-x="2560" 
d="M2413 100l137 -53v-47h-195q-90 -149 -90 -270q0 -69 48 -102.5t112 -14.5v-57q-53 -32 -117.5 -40t-119.5 7.5t-92.5 59t-37.5 106.5q0 44 17.5 86t53 83.5t67 71t81.5 70.5h-299v47l189 53l-174 418h-549l-66 -162q-77 -190 -224 -285.5t-353 -95.5q-171 0 -307.5 53
t-225 149.5t-135.5 228.5t-47 292q0 107 33.5 215.5t98.5 206t152.5 173.5t205 120.5t245.5 44.5q121 0 243 -45t198 -113v-378h-72q-60 188 -172 293.5t-264 105.5q-181 0 -324 -139q-121 -188 -121 -387q0 -180 76 -336t210 -249t292 -93q130 0 234.5 68t164.5 214
l424 1035h152zM1485 621h465l-236 567z" />
    <glyph glyph-name="C_Aring.liga" unicode="C&#xc5;" horiz-adv-x="2560" 
d="M1776 1499q-104 0 -173 55t-69 148q0 91 62 159t178 68q105 0 174 -55t69 -148q0 -91 -62 -159t-179 -68zM1675 1788q-22 -26 -22 -66q0 -57 36.5 -86.5t98.5 -29.5q44 0 86 28q24 27 24 72q0 56 -36 85.5t-97 29.5q-51 0 -90 -33zM2413 100l137 -53v-47h-572v47l189 53
l-174 418h-549l-66 -162q-77 -190 -224 -285.5t-353 -95.5q-171 0 -307.5 53t-225 149.5t-135.5 228.5t-47 292q0 107 33.5 215.5t98.5 206t152.5 173.5t205 120.5t245.5 44.5q121 0 243 -45t198 -113v-378h-72q-60 188 -172 293.5t-264 105.5q-181 0 -324 -139
q-121 -188 -121 -387q0 -180 76 -336t210 -249t292 -93q130 0 234.5 68t164.5 214l424 1035h152zM1485 621h465l-236 567z" />
    <glyph glyph-name="C_Atilde.liga" unicode="C&#xc3;" horiz-adv-x="2560" 
d="M1608 1683q-11 0 -21.5 -2t-18.5 -4t-16.5 -8.5t-14 -9.5t-13.5 -13t-10.5 -13t-10.5 -16.5t-9.5 -15.5t-9.5 -17.5t-9 -16.5l-60 20q29 134 90 210.5t148 76.5q47 0 93 -20t75.5 -43.5t65 -43.5t63.5 -20q15 0 28 2.5t25.5 12t19 13.5t17.5 21t13.5 20t14.5 25t13 23
l59 -21q-28 -134 -89.5 -210.5t-147.5 -76.5q-47 0 -93 20t-76 43.5t-64.5 43.5t-61.5 20zM2413 100l137 -53v-47h-572v47l189 53l-174 418h-549l-66 -162q-77 -190 -224 -285.5t-353 -95.5q-171 0 -307.5 53t-225 149.5t-135.5 228.5t-47 292q0 107 33.5 215.5t98.5 206
t152.5 173.5t205 120.5t245.5 44.5q121 0 243 -45t198 -113v-378h-72q-60 188 -172 293.5t-264 105.5q-181 0 -324 -139q-121 -188 -121 -387q0 -180 76 -336t210 -249t292 -93q130 0 234.5 68t164.5 214l424 1035h152zM1485 621h465l-236 567z" />
    <glyph glyph-name="Cacute_A.liga" unicode="&#x106;A" horiz-adv-x="2560" 
d="M1221 1712l-576 -180l-41 47l375 328h4l238 -185v-10zM2413 100l137 -53v-47h-572v47l189 53l-174 418h-549l-66 -162q-77 -190 -224 -285.5t-353 -95.5q-171 0 -307.5 53t-225 149.5t-135.5 228.5t-47 292q0 107 33.5 215.5t98.5 206t152.5 173.5t205 120.5t245.5 44.5
q121 0 243 -45t198 -113v-378h-72q-60 188 -172 293.5t-264 105.5q-181 0 -324 -139q-121 -188 -121 -387q0 -180 76 -336t210 -249t292 -93q130 0 234.5 68t164.5 214l424 1035h152zM1485 621h465l-236 567z" />
    <glyph glyph-name="Ccaron_A.liga" unicode="&#x10c;A" horiz-adv-x="2560" 
d="M694 1552l-237 316l47 39l323 -178l312 178l47 -37l-240 -318h-252zM2413 100l137 -53v-47h-572v47l189 53l-174 418h-549l-66 -162q-77 -190 -224 -285.5t-353 -95.5q-171 0 -307.5 53t-225 149.5t-135.5 228.5t-47 292q0 107 33.5 215.5t98.5 206t152.5 173.5
t205 120.5t245.5 44.5q121 0 243 -45t198 -113v-378h-72q-60 188 -172 293.5t-264 105.5q-181 0 -324 -139q-121 -188 -121 -387q0 -180 76 -336t210 -249t292 -93q130 0 234.5 68t164.5 214l424 1035h152zM1485 621h465l-236 567z" />
    <glyph glyph-name="Ccaron_Aacute.liga" unicode="&#x10c;&#xc1;" horiz-adv-x="2560" 
d="M694 1552l-237 316l47 39l323 -178l312 178l47 -37l-240 -318h-252zM2177 1712l-573 -180l-41 47l372 328h4l238 -185v-10zM2413 100l137 -53v-47h-572v47l189 53l-174 418h-549l-66 -162q-77 -190 -224 -285.5t-353 -95.5q-171 0 -307.5 53t-225 149.5t-135.5 228.5
t-47 292q0 107 33.5 215.5t98.5 206t152.5 173.5t205 120.5t245.5 44.5q121 0 243 -45t198 -113v-378h-72q-60 188 -172 293.5t-264 105.5q-181 0 -324 -139q-121 -188 -121 -387q0 -180 76 -336t210 -249t292 -93q130 0 234.5 68t164.5 214l424 1035h152zM1485 621h465
l-236 567z" />
    <glyph glyph-name="Ccedilla_A.liga" unicode="&#xc7;A" horiz-adv-x="2560" 
d="M2413 100l137 -53v-47h-572v47l189 53l-174 418h-549l-66 -162q-77 -190 -224 -285.5t-353 -95.5h-29l-47 -71q95 -23 147 -73.5t52 -119.5q0 -71 -57 -123.5t-142.5 -67.5t-185.5 5v59q89 -3 133.5 19t44.5 84q0 77 -80 92l-76 14l-2 4l119 187q-285 36 -438.5 227.5
t-153.5 486.5q0 107 33.5 215.5t98.5 206t152.5 173.5t205 120.5t245.5 44.5q121 0 243 -45t198 -113v-378h-72q-60 188 -172 293.5t-264 105.5q-181 0 -324 -139q-121 -188 -121 -387q0 -180 76 -336t210 -249t292 -93q130 0 234.5 68t164.5 214l424 1035h152zM1485 621
h465l-236 567z" />
    <glyph glyph-name="Ccircumflex_A.liga" unicode="&#x108;A" horiz-adv-x="2560" 
d="M809 1710l-311 -178l-47 37l239 317h252l238 -315l-47 -39zM2413 100l137 -53v-47h-572v47l189 53l-174 418h-549l-66 -162q-77 -190 -224 -285.5t-353 -95.5q-171 0 -307.5 53t-225 149.5t-135.5 228.5t-47 292q0 107 33.5 215.5t98.5 206t152.5 173.5t205 120.5
t245.5 44.5q121 0 243 -45t198 -113v-378h-72q-60 188 -172 293.5t-264 105.5q-181 0 -324 -139q-121 -188 -121 -387q0 -180 76 -336t210 -249t292 -93q130 0 234.5 68t164.5 214l424 1035h152zM1485 621h465l-236 567z" />
    <glyph glyph-name="Cdotaccent_A.liga" unicode="&#x10a;A" horiz-adv-x="2560" 
d="M819 1591q-62 0 -104.5 42.5t-42.5 103.5q0 59 42.5 101t104.5 42t105 -42t43 -101q0 -61 -42.5 -103.5t-105.5 -42.5zM2413 100l137 -53v-47h-572v47l189 53l-174 418h-549l-66 -162q-77 -190 -224 -285.5t-353 -95.5q-171 0 -307.5 53t-225 149.5t-135.5 228.5t-47 292
q0 107 33.5 215.5t98.5 206t152.5 173.5t205 120.5t245.5 44.5q121 0 243 -45t198 -113v-378h-72q-60 188 -172 293.5t-264 105.5q-181 0 -324 -139q-121 -188 -121 -387q0 -180 76 -336t210 -249t292 -93q130 0 234.5 68t164.5 214l424 1035h152zM1485 621h465l-236 567z
" />
    <glyph glyph-name="D_C.liga" unicode="DC" horiz-adv-x="2476" 
d="M2370 358l67 -43q-59 -154 -213 -247t-332 -93q-231 0 -390.5 94.5t-237.5 266.5q-97 -157 -270.5 -246.5t-420.5 -89.5h-528v47l164 59v1221l-164 59v48h655q217 0 376 -82.5t239 -235.5q98 155 252 248.5t346 93.5q121 0 241.5 -45t196.5 -113v-378h-70
q-60 188 -172.5 293.5t-263.5 105.5q-180 0 -323 -139q-121 -188 -121 -387q0 -180 76 -336t209.5 -249t291.5 -93q64 0 134.5 25t142 81.5t115.5 134.5zM567 98q152 3 269 52.5t187.5 133t106 187.5t35.5 225q0 90 -17.5 177t-60.5 172t-106 148.5t-162 102.5t-221 39h-162
v-1237h131z" />
    <glyph glyph-name="D_Cacute.liga" unicode="D&#x106;" horiz-adv-x="2476" 
d="M2312 1712l-575 -180l-41 47l375 328h4l237 -185v-10zM2370 358l67 -43q-59 -154 -213 -247t-332 -93q-231 0 -390.5 94.5t-237.5 266.5q-97 -157 -270.5 -246.5t-420.5 -89.5h-528v47l164 59v1221l-164 59v48h655q217 0 376 -82.5t239 -235.5q98 155 252 248.5t346 93.5
q121 0 241.5 -45t196.5 -113v-378h-70q-60 188 -172.5 293.5t-263.5 105.5q-180 0 -323 -139q-121 -188 -121 -387q0 -180 76 -336t209.5 -249t291.5 -93q64 0 134.5 25t142 81.5t115.5 134.5zM567 98q152 3 269 52.5t187.5 133t106 187.5t35.5 225q0 90 -17.5 177
t-60.5 172t-106 148.5t-162 102.5t-221 39h-162v-1237h131z" />
    <glyph glyph-name="D_Ccaron.liga" unicode="D&#x10c;" horiz-adv-x="2476" 
d="M1784 1552l-238 316l47 39l324 -178l311 178l47 -37l-239 -318h-252zM2370 358l67 -43q-59 -154 -213 -247t-332 -93q-231 0 -390.5 94.5t-237.5 266.5q-97 -157 -270.5 -246.5t-420.5 -89.5h-528v47l164 59v1221l-164 59v48h655q217 0 376 -82.5t239 -235.5
q98 155 252 248.5t346 93.5q121 0 241.5 -45t196.5 -113v-378h-70q-60 188 -172.5 293.5t-263.5 105.5q-180 0 -323 -139q-121 -188 -121 -387q0 -180 76 -336t209.5 -249t291.5 -93q64 0 134.5 25t142 81.5t115.5 134.5zM567 98q152 3 269 52.5t187.5 133t106 187.5
t35.5 225q0 90 -17.5 177t-60.5 172t-106 148.5t-162 102.5t-221 39h-162v-1237h131z" />
    <glyph glyph-name="D_Ccedilla.liga" unicode="D&#xc7;" horiz-adv-x="2476" 
d="M1892 -25h-28l-47 -71q95 -23 146.5 -73.5t51.5 -119.5q0 -71 -57 -123.5t-142.5 -67.5t-185.5 5v59q89 -3 133.5 19t44.5 84q0 77 -79 92l-76 14l-2 4l118 187q-183 23 -310.5 113.5t-194.5 238.5q-97 -157 -270.5 -246.5t-420.5 -89.5h-528v47l164 59v1221l-164 59v48
h655q217 0 376 -82.5t239 -235.5q98 155 252 248.5t346 93.5q121 0 241.5 -45t196.5 -113v-378h-70q-60 188 -172.5 293.5t-263.5 105.5q-180 0 -323 -139q-121 -188 -121 -387q0 -180 76 -336t209.5 -249t291.5 -93q64 0 134.5 25t142 81.5t115.5 134.5l67 -43
q-59 -154 -213 -247t-332 -93zM567 98q152 3 269 52.5t187.5 133t106 187.5t35.5 225q0 90 -17.5 177t-60.5 172t-106 148.5t-162 102.5t-221 39h-162v-1237h131z" />
    <glyph glyph-name="D_Ccircumflex.liga" unicode="D&#x108;" horiz-adv-x="2476" 
d="M1898 1710l-311 -178l-47 37l240 317h252l237 -315l-47 -39zM2370 358l67 -43q-59 -154 -213 -247t-332 -93q-231 0 -390.5 94.5t-237.5 266.5q-97 -157 -270.5 -246.5t-420.5 -89.5h-528v47l164 59v1221l-164 59v48h655q217 0 376 -82.5t239 -235.5q98 155 252 248.5
t346 93.5q121 0 241.5 -45t196.5 -113v-378h-70q-60 188 -172.5 293.5t-263.5 105.5q-180 0 -323 -139q-121 -188 -121 -387q0 -180 76 -336t209.5 -249t291.5 -93q64 0 134.5 25t142 81.5t115.5 134.5zM567 98q152 3 269 52.5t187.5 133t106 187.5t35.5 225q0 90 -17.5 177
t-60.5 172t-106 148.5t-162 102.5t-221 39h-162v-1237h131z" />
    <glyph glyph-name="D_Cdotaccent.liga" unicode="D&#x10a;" horiz-adv-x="2476" 
d="M1911 1591q-63 0 -105.5 42.5t-42.5 103.5q0 59 43 101t105 42t104.5 -42t42.5 -101q0 -61 -42.5 -103.5t-104.5 -42.5zM2370 358l67 -43q-59 -154 -213 -247t-332 -93q-231 0 -390.5 94.5t-237.5 266.5q-97 -157 -270.5 -246.5t-420.5 -89.5h-528v47l164 59v1221
l-164 59v48h655q217 0 376 -82.5t239 -235.5q98 155 252 248.5t346 93.5q121 0 241.5 -45t196.5 -113v-378h-70q-60 188 -172.5 293.5t-263.5 105.5q-180 0 -323 -139q-121 -188 -121 -387q0 -180 76 -336t209.5 -249t291.5 -93q64 0 134.5 25t142 81.5t115.5 134.5zM567 98
q152 3 269 52.5t187.5 133t106 187.5t35.5 225q0 90 -17.5 177t-60.5 172t-106 148.5t-162 102.5t-221 39h-162v-1237h131z" />
    <glyph glyph-name="D_O.liga" unicode="DO" horiz-adv-x="2646" 
d="M1878 1458q100 0 195.5 -25t184.5 -79.5t155.5 -132.5t106.5 -194t40 -255q0 -215 -90.5 -397t-255 -291t-367.5 -109q-185 0 -346.5 88t-245.5 259q-101 -150 -271.5 -236t-410.5 -86h-528v47l164 59v1221l-164 59v48h655q213 0 370 -79t239 -227q93 154 240.5 242
t328.5 88zM567 98q152 3 269 52.5t187.5 133t106 187.5t35.5 225q0 90 -17.5 177t-60.5 172t-106 148.5t-162 102.5t-221 39h-162v-1237h131zM2204 229q127 210 127 404q0 153 -41 282t-111 216t-165 135.5t-202 48.5q-164 0 -288 -111q-127 -210 -127 -403
q0 -306 148.5 -494t367.5 -188q168 0 291 110z" />
    <glyph glyph-name="Eth_C.liga" unicode="&#xd0;C" horiz-adv-x="2476" 
d="M2370 358l67 -43q-59 -154 -213 -247t-332 -93q-231 0 -390.5 94.5t-237.5 266.5q-97 -157 -270.5 -246.5t-420.5 -89.5h-528v47l164 59v582h-164v103h164v536l-164 59v48h655q217 0 376 -82.5t239 -235.5q98 155 252 248.5t346 93.5q121 0 241.5 -45t196.5 -113v-378
h-70q-60 188 -172.5 293.5t-263.5 105.5q-180 0 -323 -139q-121 -188 -121 -387q0 -180 76 -336t209.5 -249t291.5 -93q64 0 134.5 25t142 81.5t115.5 134.5zM567 98q152 3 269 52.5t187.5 133t106 187.5t35.5 225q0 90 -17.5 177t-60.5 172t-106 148.5t-162 102.5t-221 39
h-162v-544h312v-103h-312v-590h131z" />
    <glyph glyph-name="Dcaron_C.liga" unicode="&#x10e;C" horiz-adv-x="2476" 
d="M561 1552l-237 316l47 39l323 -178l312 178l47 -37l-240 -318h-252zM2370 358l67 -43q-59 -154 -213 -247t-332 -93q-231 0 -390.5 94.5t-237.5 266.5q-97 -157 -270.5 -246.5t-420.5 -89.5h-528v47l164 59v1221l-164 59v48h655q217 0 376 -82.5t239 -235.5
q98 155 252 248.5t346 93.5q121 0 241.5 -45t196.5 -113v-378h-70q-60 188 -172.5 293.5t-263.5 105.5q-180 0 -323 -139q-121 -188 -121 -387q0 -180 76 -336t209.5 -249t291.5 -93q64 0 134.5 25t142 81.5t115.5 134.5zM567 98q152 3 269 52.5t187.5 133t106 187.5
t35.5 225q0 90 -17.5 177t-60.5 172t-106 148.5t-162 102.5t-221 39h-162v-1237h131z" />
    <glyph glyph-name="Dcroat_C.liga" unicode="&#x110;C" horiz-adv-x="2476" 
d="M2370 358l67 -43q-59 -154 -213 -247t-332 -93q-231 0 -390.5 94.5t-237.5 266.5q-97 -157 -270.5 -246.5t-420.5 -89.5h-528v47l164 59v582h-164v103h164v536l-164 59v48h655q217 0 376 -82.5t239 -235.5q98 155 252 248.5t346 93.5q121 0 241.5 -45t196.5 -113v-378
h-70q-60 188 -172.5 293.5t-263.5 105.5q-180 0 -323 -139q-121 -188 -121 -387q0 -180 76 -336t209.5 -249t291.5 -93q64 0 134.5 25t142 81.5t115.5 134.5zM567 98q152 3 269 52.5t187.5 133t106 187.5t35.5 225q0 90 -17.5 177t-60.5 172t-106 148.5t-162 102.5t-221 39
h-162v-544h312v-103h-312v-590h131z" />
    <glyph glyph-name="E_A.liga" unicode="EA" horiz-adv-x="2535" 
d="M2386 100l139 -53v-47h-571v47l186 53l-174 418h-549l-31 -78q-92 -228 -222.5 -334t-319.5 -106h-799v47l164 59v1221l-164 59v48h1153v-383h-51l-156 282h-555v-547h398l86 197h51v-491h-51l-84 192h-400v-584h408q154 0 262 92.5t188 290.5l389 951h152zM1460 621h465
l-235 569z" />
    <glyph glyph-name="E_Aacute.liga" unicode="E&#xc1;" horiz-adv-x="2535" 
d="M2152 1712l-575 -180l-41 47l375 328h4l237 -185v-10zM2386 100l139 -53v-47h-571v47l186 53l-174 418h-549l-31 -78q-92 -228 -222.5 -334t-319.5 -106h-799v47l164 59v1221l-164 59v48h1153v-383h-51l-156 282h-555v-547h398l86 197h51v-491h-51l-84 192h-400v-584h408
q154 0 262 92.5t188 290.5l389 951h152zM1460 621h465l-235 569z" />
    <glyph glyph-name="E_Abreve.liga" unicode="E&#x102;" horiz-adv-x="2535" 
d="M1751 1542q-42 0 -82.5 10t-81.5 34t-71.5 61t-50 95.5t-19.5 131.5l70 2q25 -62 88 -104.5t147 -42.5t147.5 42.5t90.5 104.5l69 -2q0 -90 -29 -158t-76 -104t-98 -53t-104 -17zM2386 100l139 -53v-47h-571v47l186 53l-174 418h-549l-31 -78q-92 -228 -222.5 -334
t-319.5 -106h-799v47l164 59v1221l-164 59v48h1153v-383h-51l-156 282h-555v-547h398l86 197h51v-491h-51l-84 192h-400v-584h408q154 0 262 92.5t188 290.5l389 951h152zM1460 621h465l-235 569z" />
    <glyph glyph-name="E_Acircumflex.liga" unicode="E&#xc2;" horiz-adv-x="2535" 
d="M1741 1710l-311 -178l-48 37l240 317h252l237 -315l-47 -39zM2386 100l139 -53v-47h-571v47l186 53l-174 418h-549l-31 -78q-92 -228 -222.5 -334t-319.5 -106h-799v47l164 59v1221l-164 59v48h1153v-383h-51l-156 282h-555v-547h398l86 197h51v-491h-51l-84 192h-400
v-584h408q154 0 262 92.5t188 290.5l389 951h152zM1460 621h465l-235 569z" />
    <glyph glyph-name="E_Adieresis.liga" unicode="E&#xc4;" horiz-adv-x="2535" 
d="M1548 1597q-59 0 -100 41t-41 99q0 57 41 97t100 40q60 0 101 -40t41 -97q0 -59 -41 -99.5t-101 -40.5zM1954 1597q-60 0 -101 40.5t-41 99.5q0 57 41 97t101 40q59 0 100 -40t41 -97q0 -58 -41 -99t-100 -41zM2386 100l139 -53v-47h-571v47l186 53l-174 418h-549
l-31 -78q-92 -228 -222.5 -334t-319.5 -106h-799v47l164 59v1221l-164 59v48h1153v-383h-51l-156 282h-555v-547h398l86 197h51v-491h-51l-84 192h-400v-584h408q154 0 262 92.5t188 290.5l389 951h152zM1460 621h465l-235 569z" />
    <glyph glyph-name="E_Agrave.liga" unicode="E&#xc0;" horiz-adv-x="2535" 
d="M1948 1585l-33 -53l-547 154v8l199 213h4zM2386 100l139 -53v-47h-571v47l186 53l-174 418h-549l-31 -78q-92 -228 -222.5 -334t-319.5 -106h-799v47l164 59v1221l-164 59v48h1153v-383h-51l-156 282h-555v-547h398l86 197h51v-491h-51l-84 192h-400v-584h408
q154 0 262 92.5t188 290.5l389 951h152zM1460 621h465l-235 569z" />
    <glyph glyph-name="E_Amacron.liga" unicode="E&#x100;" horiz-adv-x="2535" 
d="M2032 1784v-154h-559v154h559zM2386 100l139 -53v-47h-571v47l186 53l-174 418h-549l-31 -78q-92 -228 -222.5 -334t-319.5 -106h-799v47l164 59v1221l-164 59v48h1153v-383h-51l-156 282h-555v-547h398l86 197h51v-491h-51l-84 192h-400v-584h408q154 0 262 92.5
t188 290.5l389 951h152zM1460 621h465l-235 569z" />
    <glyph glyph-name="E_Aogonek.liga" unicode="E&#x104;" horiz-adv-x="2535" 
d="M2386 100l139 -53v-47h-194q-90 -149 -90 -270q0 -69 47.5 -102.5t111.5 -14.5v-57q-53 -32 -117.5 -40t-119.5 7.5t-92 59t-37 106.5q0 44 17.5 86t53 83.5t67 71t81.5 70.5h-299v47l186 53l-174 418h-549l-31 -78q-92 -228 -222.5 -334t-319.5 -106h-799v47l164 59
v1221l-164 59v48h1153v-383h-51l-156 282h-555v-547h398l86 197h51v-491h-51l-84 192h-400v-584h408q154 0 262 92.5t188 290.5l389 951h152zM1460 621h465l-235 569z" />
    <glyph glyph-name="E_Aring.liga" unicode="E&#xc5;" horiz-adv-x="2535" 
d="M1751 1499q-104 0 -173 55t-69 148q0 91 62 159t178 68q106 0 175 -55t69 -148q0 -91 -62.5 -159t-179.5 -68zM1651 1788q-23 -27 -23 -66q0 -57 36.5 -86.5t98.5 -29.5q44 0 86 28q25 29 25 72q0 56 -36 85.5t-97 29.5q-51 0 -90 -33zM2386 100l139 -53v-47h-571v47
l186 53l-174 418h-549l-31 -78q-92 -228 -222.5 -334t-319.5 -106h-799v47l164 59v1221l-164 59v48h1153v-383h-51l-156 282h-555v-547h398l86 197h51v-491h-51l-84 192h-400v-584h408q154 0 262 92.5t188 290.5l389 951h152zM1460 621h465l-235 569z" />
    <glyph glyph-name="E_Atilde.liga" unicode="E&#xc3;" horiz-adv-x="2535" 
d="M1583 1683q-11 0 -21.5 -2t-18.5 -4t-16.5 -8.5t-14 -9.5t-13.5 -13t-10.5 -13t-10.5 -16.5t-9.5 -15.5t-9.5 -17.5t-9 -16.5l-59 20q29 134 89.5 210.5t147.5 76.5q47 0 93 -20t75.5 -43.5t65 -43.5t63.5 -20q15 0 28 2.5t25.5 12t19 13.5t17.5 21t13.5 20t14.5 25
t13 23l60 -21q-28 -133 -90 -210t-148 -77q-47 0 -93 20t-76 43.5t-64.5 43.5t-61.5 20zM2386 100l139 -53v-47h-571v47l186 53l-174 418h-549l-31 -78q-92 -228 -222.5 -334t-319.5 -106h-799v47l164 59v1221l-164 59v48h1153v-383h-51l-156 282h-555v-547h398l86 197h51
v-491h-51l-84 192h-400v-584h408q154 0 262 92.5t188 290.5l389 951h152zM1460 621h465l-235 569z" />
    <glyph glyph-name="Eacute_A.liga" unicode="&#xc9;A" horiz-adv-x="2535" 
d="M1083 1712l-575 -180l-41 47l375 328h4l237 -185v-10zM2386 100l139 -53v-47h-571v47l186 53l-174 418h-549l-31 -78q-92 -228 -222.5 -334t-319.5 -106h-799v47l164 59v1221l-164 59v48h1153v-383h-51l-156 282h-555v-547h398l86 197h51v-491h-51l-84 192h-400v-584h408
q154 0 262 92.5t188 290.5l389 951h152zM1460 621h465l-235 569z" />
    <glyph glyph-name="Ebreve_A.liga" unicode="&#x114;A" horiz-adv-x="2535" 
d="M680 1542q-42 0 -82.5 10t-81.5 34t-71.5 61t-50 95.5t-19.5 131.5l69 2q25 -61 88 -104t148 -43q84 0 147.5 42.5t90.5 104.5l69 -2q0 -90 -29 -158t-76 -104t-98 -53t-104 -17zM2386 100l139 -53v-47h-571v47l186 53l-174 418h-549l-31 -78q-92 -228 -222.5 -334
t-319.5 -106h-799v47l164 59v1221l-164 59v48h1153v-383h-51l-156 282h-555v-547h398l86 197h51v-491h-51l-84 192h-400v-584h408q154 0 262 92.5t188 290.5l389 951h152zM1460 621h465l-235 569z" />
    <glyph glyph-name="Ecaron_A.liga" unicode="&#x11a;A" horiz-adv-x="2535" 
d="M555 1552l-238 316l48 39l323 -178l311 178l48 -37l-240 -318h-252zM2386 100l139 -53v-47h-571v47l186 53l-174 418h-549l-31 -78q-92 -228 -222.5 -334t-319.5 -106h-799v47l164 59v1221l-164 59v48h1153v-383h-51l-156 282h-555v-547h398l86 197h51v-491h-51l-84 192
h-400v-584h408q154 0 262 92.5t188 290.5l389 951h152zM1460 621h465l-235 569z" />
    <glyph glyph-name="Ecircumflex_A.liga" unicode="&#xca;A" horiz-adv-x="2535" 
d="M670 1710l-312 -178l-47 37l240 317h252l237 -315l-47 -39zM2386 100l139 -53v-47h-571v47l186 53l-174 418h-549l-31 -78q-92 -228 -222.5 -334t-319.5 -106h-799v47l164 59v1221l-164 59v48h1153v-383h-51l-156 282h-555v-547h398l86 197h51v-491h-51l-84 192h-400
v-584h408q154 0 262 92.5t188 290.5l389 951h152zM1460 621h465l-235 569z" />
    <glyph glyph-name="Edieresis_A.liga" unicode="&#xcb;A" horiz-adv-x="2535" 
d="M479 1597q-59 0 -100 41t-41 99q0 57 41 97t100 40q60 0 101 -40t41 -97q0 -59 -41 -99.5t-101 -40.5zM885 1597q-60 0 -101 40.5t-41 99.5q0 57 41 97t101 40q59 0 100 -40t41 -97q0 -58 -41 -99t-100 -41zM2386 100l139 -53v-47h-571v47l186 53l-174 418h-549l-31 -78
q-92 -228 -222.5 -334t-319.5 -106h-799v47l164 59v1221l-164 59v48h1153v-383h-51l-156 282h-555v-547h398l86 197h51v-491h-51l-84 192h-400v-584h408q154 0 262 92.5t188 290.5l389 951h152zM1460 621h465l-235 569z" />
    <glyph glyph-name="Edotaccent_A.liga" unicode="&#x116;A" horiz-adv-x="2535" 
d="M682 1591q-62 0 -104.5 42.5t-42.5 103.5q0 59 42.5 101t104.5 42t104.5 -42t42.5 -101q0 -61 -42.5 -103.5t-104.5 -42.5zM2386 100l139 -53v-47h-571v47l186 53l-174 418h-549l-31 -78q-92 -228 -222.5 -334t-319.5 -106h-799v47l164 59v1221l-164 59v48h1153v-383h-51
l-156 282h-555v-547h398l86 197h51v-491h-51l-84 192h-400v-584h408q154 0 262 92.5t188 290.5l389 951h152zM1460 621h465l-235 569z" />
    <glyph glyph-name="Egrave_A.liga" unicode="&#xc8;A" horiz-adv-x="2535" 
d="M879 1585l-33 -53l-547 154v8l199 213h4zM2386 100l139 -53v-47h-571v47l186 53l-174 418h-549l-31 -78q-92 -228 -222.5 -334t-319.5 -106h-799v47l164 59v1221l-164 59v48h1153v-383h-51l-156 282h-555v-547h398l86 197h51v-491h-51l-84 192h-400v-584h408
q154 0 262 92.5t188 290.5l389 951h152zM1460 621h465l-235 569z" />
    <glyph glyph-name="Emacron_A.liga" unicode="&#x112;A" horiz-adv-x="2535" 
d="M961 1784v-154h-560v154h560zM2386 100l139 -53v-47h-571v47l186 53l-174 418h-549l-31 -78q-92 -228 -222.5 -334t-319.5 -106h-799v47l164 59v1221l-164 59v48h1153v-383h-51l-156 282h-555v-547h398l86 197h51v-491h-51l-84 192h-400v-584h408q154 0 262 92.5
t188 290.5l389 951h152zM1460 621h465l-235 569z" />
    <glyph glyph-name="F_E.liga" unicode="FE" horiz-adv-x="2363" 
d="M2257 395h49l-57 -395h-1168v47l162 59v1227h-807v-547h418l86 197h51v-491h-51l-84 192h-420v-578l162 -59v-47h-553v47l164 59v1221l-164 59v48h2187v-383h-49l-155 282h-558v-547h400l86 197h49v-491h-49l-84 192h-402v-584h584z" />
    <glyph glyph-name="F_Eacute.liga" unicode="F&#xc9;" horiz-adv-x="2363" 
d="M2118 1712l-576 -180l-41 47l375 328h4l238 -185v-10zM2257 395h49l-57 -395h-1168v47l162 59v1227h-807v-547h418l86 197h51v-491h-51l-84 192h-420v-578l162 -59v-47h-553v47l164 59v1221l-164 59v48h2187v-383h-49l-155 282h-558v-547h400l86 197h49v-491h-49l-84 192
h-402v-584h584z" />
    <glyph glyph-name="F_Ebreve.liga" unicode="F&#x114;" horiz-adv-x="2363" 
d="M1716 1542q-42 0 -82.5 10t-81.5 34t-71.5 61t-50 95.5t-19.5 131.5l70 2q25 -62 88 -104.5t147 -42.5t147.5 42.5t90.5 104.5l69 -2q0 -90 -29 -158t-76 -104t-98 -53t-104 -17zM2257 395h49l-57 -395h-1168v47l162 59v1227h-807v-547h418l86 197h51v-491h-51l-84 192
h-420v-578l162 -59v-47h-553v47l164 59v1221l-164 59v48h2187v-383h-49l-155 282h-558v-547h400l86 197h49v-491h-49l-84 192h-402v-584h584z" />
    <glyph glyph-name="F_Ecaron.liga" unicode="F&#x11a;" horiz-adv-x="2363" 
d="M1591 1552l-237 316l47 39l323 -178l312 178l47 -37l-240 -318h-252zM2257 395h49l-57 -395h-1168v47l162 59v1227h-807v-547h418l86 197h51v-491h-51l-84 192h-420v-578l162 -59v-47h-553v47l164 59v1221l-164 59v48h2187v-383h-49l-155 282h-558v-547h400l86 197h49
v-491h-49l-84 192h-402v-584h584z" />
    <glyph glyph-name="F_Ecircumflex.liga" unicode="F&#xca;" horiz-adv-x="2363" 
d="M1706 1710l-311 -178l-47 37l239 317h252l238 -315l-47 -39zM2257 395h49l-57 -395h-1168v47l162 59v1227h-807v-547h418l86 197h51v-491h-51l-84 192h-420v-578l162 -59v-47h-553v47l164 59v1221l-164 59v48h2187v-383h-49l-155 282h-558v-547h400l86 197h49v-491h-49
l-84 192h-402v-584h584z" />
    <glyph glyph-name="F_Edieresis.liga" unicode="F&#xcb;" horiz-adv-x="2363" 
d="M1516 1597q-59 0 -100.5 41t-41.5 99q0 57 41.5 97t100.5 40q60 0 100.5 -40t40.5 -97q0 -59 -40.5 -99.5t-100.5 -40.5zM1921 1597q-60 0 -100.5 40.5t-40.5 99.5q0 57 40.5 97t100.5 40q59 0 100 -40t41 -97q0 -58 -41 -99t-100 -41zM2257 395h49l-57 -395h-1168v47
l162 59v1227h-807v-547h418l86 197h51v-491h-51l-84 192h-420v-578l162 -59v-47h-553v47l164 59v1221l-164 59v48h2187v-383h-49l-155 282h-558v-547h400l86 197h49v-491h-49l-84 192h-402v-584h584z" />
    <glyph glyph-name="F_Edotaccent.liga" unicode="F&#x116;" horiz-adv-x="2363" 
d="M1718 1591q-62 0 -104.5 42.5t-42.5 103.5q0 59 42.5 101t104.5 42t105 -42t43 -101q0 -61 -43 -103.5t-105 -42.5zM2257 395h49l-57 -395h-1168v47l162 59v1227h-807v-547h418l86 197h51v-491h-51l-84 192h-420v-578l162 -59v-47h-553v47l164 59v1221l-164 59v48h2187
v-383h-49l-155 282h-558v-547h400l86 197h49v-491h-49l-84 192h-402v-584h584z" />
    <glyph glyph-name="F_Egrave.liga" unicode="F&#xc8;" horiz-adv-x="2363" 
d="M1913 1585l-33 -53l-547 154v8l199 213h4zM2257 395h49l-57 -395h-1168v47l162 59v1227h-807v-547h418l86 197h51v-491h-51l-84 192h-420v-578l162 -59v-47h-553v47l164 59v1221l-164 59v48h2187v-383h-49l-155 282h-558v-547h400l86 197h49v-491h-49l-84 192h-402v-584
h584z" />
    <glyph glyph-name="F_Emacron.liga" unicode="F&#x112;" horiz-adv-x="2363" 
d="M1997 1784v-154h-559v154h559zM2257 395h49l-57 -395h-1168v47l162 59v1227h-807v-547h418l86 197h51v-491h-51l-84 192h-420v-578l162 -59v-47h-553v47l164 59v1221l-164 59v48h2187v-383h-49l-155 282h-558v-547h400l86 197h49v-491h-49l-84 192h-402v-584h584z" />
    <glyph glyph-name="F_Eogonek.liga" unicode="F&#x118;" horiz-adv-x="2363" 
d="M2161 -270q0 -69 47.5 -102.5t111.5 -14.5v-57q-53 -32 -117.5 -40t-119.5 7.5t-92 59t-37 106.5q0 44 17.5 86t53 83.5t67 71t81.5 70.5h-1092v47l162 59v1227h-807v-547h418l86 197h51v-491h-51l-84 192h-420v-578l162 -59v-47h-553v47l164 59v1221l-164 59v48h2187
v-383h-49l-155 282h-558v-547h400l86 197h49v-491h-49l-84 192h-402v-584h584l203 295h49l-57 -395h2q-90 -149 -90 -270z" />
    <glyph glyph-name="F_F.liga" unicode="FF" horiz-adv-x="2260" 
d="M2232 1434v-383h-49l-155 282h-558v-547h420l86 197h49v-491h-49l-84 192h-422v-578l164 -59v-47h-553v47l162 59v1227h-807v-547h418l86 197h51v-491h-51l-84 192h-420v-578l162 -59v-47h-553v47l164 59v1221l-164 59v48h2187z" />
    <glyph glyph-name="F_T.liga" unicode="FT" horiz-adv-x="2107" 
d="M1833 1333h-297v-1227l164 -59v-47h-553v47l162 59v1227h-873v-547h418l86 197h51v-491h-51l-84 192h-420v-578l162 -59v-47h-553v47l164 59v1221l-164 59v48h1991l61 -400h-49z" />
    <glyph glyph-name="F_Tbar.liga" unicode="F&#x166;" horiz-adv-x="2107" 
d="M1833 1333h-297v-542h248v-103h-248v-582l164 -59v-47h-553v47l162 59v582h-246v103h246v542h-873v-547h418l86 197h51v-491h-51l-84 192h-420v-578l162 -59v-47h-553v47l164 59v1221l-164 59v48h1991l61 -400h-49z" />
    <glyph glyph-name="F_Tcaron.liga" unicode="F&#x164;" horiz-adv-x="2107" 
d="M1294 1552l-237 316l47 39l323 -178l312 178l47 -37l-240 -318h-252zM1833 1333h-297v-1227l164 -59v-47h-553v47l162 59v1227h-873v-547h418l86 197h51v-491h-51l-84 192h-420v-578l162 -59v-47h-553v47l164 59v1221l-164 59v48h1991l61 -400h-49z" />
    <glyph glyph-name="uni00460162.liga" unicode="F&#x162;" horiz-adv-x="2107" 
d="M1833 1333h-297v-1227l164 -59v-47h-223l-62 -96q95 -23 147 -73.5t52 -119.5q0 -71 -57 -123.5t-142.5 -67.5t-185.5 5v59q89 -3 133.5 19t44.5 84q0 77 -80 92l-76 14l-2 4l129 203h-231v47l162 59v1227h-873v-547h418l86 197h51v-491h-51l-84 192h-420v-578l162 -59
v-47h-553v47l164 59v1221l-164 59v48h1991l61 -400h-49z" />
    <glyph glyph-name="uni0046021A.liga" unicode="F&#x21a;" horiz-adv-x="2107" 
d="M1833 1333h-297v-1227l164 -59v-47h-553v47l162 59v1227h-873v-547h418l86 197h51v-491h-51l-84 192h-420v-578l162 -59v-47h-553v47l164 59v1221l-164 59v48h1991l61 -400h-49zM1483 -78q68 -66 78.5 -151t-44.5 -161.5t-165 -113.5l-41 33q50 52 44 152.5t-65 162.5v2z
" />
    <glyph glyph-name="H_E.liga" unicode="HE" horiz-adv-x="2236" 
d="M2130 395h49l-57 -395h-1168v47l162 59v578h-680v-578l162 -59v-47h-553v47l164 59v1221l-164 59v48h553v-48l-162 -59v-541h680v541l-162 59v48h1151v-383h-49l-155 282h-558v-547h400l86 197h49v-491h-49l-84 192h-402v-584h584z" />
    <glyph glyph-name="H_Eacute.liga" unicode="H&#xc9;" horiz-adv-x="2236" 
d="M1991 1712l-576 -180l-41 47l375 328h4l238 -185v-10zM2130 395h49l-57 -395h-1168v47l162 59v578h-680v-578l162 -59v-47h-553v47l164 59v1221l-164 59v48h553v-48l-162 -59v-541h680v541l-162 59v48h1151v-383h-49l-155 282h-558v-547h400l86 197h49v-491h-49l-84 192
h-402v-584h584z" />
    <glyph glyph-name="H_Ebreve.liga" unicode="H&#x114;" horiz-adv-x="2236" 
d="M1589 1542q-42 0 -82.5 10t-81.5 34t-71.5 61t-50 95.5t-19.5 131.5l70 2q25 -62 88 -104.5t147 -42.5t147.5 42.5t90.5 104.5l69 -2q0 -90 -29 -158t-76 -104t-98 -53t-104 -17zM2130 395h49l-57 -395h-1168v47l162 59v578h-680v-578l162 -59v-47h-553v47l164 59v1221
l-164 59v48h553v-48l-162 -59v-541h680v541l-162 59v48h1151v-383h-49l-155 282h-558v-547h400l86 197h49v-491h-49l-84 192h-402v-584h584z" />
    <glyph glyph-name="H_Ecaron.liga" unicode="H&#x11a;" horiz-adv-x="2236" 
d="M1464 1552l-237 316l47 39l323 -178l312 178l47 -37l-240 -318h-252zM2130 395h49l-57 -395h-1168v47l162 59v578h-680v-578l162 -59v-47h-553v47l164 59v1221l-164 59v48h553v-48l-162 -59v-541h680v541l-162 59v48h1151v-383h-49l-155 282h-558v-547h400l86 197h49
v-491h-49l-84 192h-402v-584h584z" />
    <glyph glyph-name="H_Ecircumflex.liga" unicode="H&#xca;" horiz-adv-x="2236" 
d="M1579 1710l-311 -178l-47 37l239 317h252l238 -315l-47 -39zM2130 395h49l-57 -395h-1168v47l162 59v578h-680v-578l162 -59v-47h-553v47l164 59v1221l-164 59v48h553v-48l-162 -59v-541h680v541l-162 59v48h1151v-383h-49l-155 282h-558v-547h400l86 197h49v-491h-49
l-84 192h-402v-584h584z" />
    <glyph glyph-name="H_Edieresis.liga" unicode="H&#xcb;" horiz-adv-x="2236" 
d="M1389 1597q-59 0 -100.5 41t-41.5 99q0 57 41.5 97t100.5 40q60 0 100.5 -40t40.5 -97q0 -59 -40.5 -99.5t-100.5 -40.5zM1794 1597q-60 0 -100.5 40.5t-40.5 99.5q0 57 40.5 97t100.5 40q59 0 100 -40t41 -97q0 -58 -41 -99t-100 -41zM2130 395h49l-57 -395h-1168v47
l162 59v578h-680v-578l162 -59v-47h-553v47l164 59v1221l-164 59v48h553v-48l-162 -59v-541h680v541l-162 59v48h1151v-383h-49l-155 282h-558v-547h400l86 197h49v-491h-49l-84 192h-402v-584h584z" />
    <glyph glyph-name="H_Edotaccent.liga" unicode="H&#x116;" horiz-adv-x="2236" 
d="M1591 1591q-62 0 -104.5 42.5t-42.5 103.5q0 59 42.5 101t104.5 42t105 -42t43 -101q0 -61 -42.5 -103.5t-105.5 -42.5zM2130 395h49l-57 -395h-1168v47l162 59v578h-680v-578l162 -59v-47h-553v47l164 59v1221l-164 59v48h553v-48l-162 -59v-541h680v541l-162 59v48
h1151v-383h-49l-155 282h-558v-547h400l86 197h49v-491h-49l-84 192h-402v-584h584z" />
    <glyph glyph-name="H_Egrave.liga" unicode="H&#xc8;" horiz-adv-x="2236" 
d="M1786 1585l-33 -53l-547 154v8l199 213h4zM2130 395h49l-57 -395h-1168v47l162 59v578h-680v-578l162 -59v-47h-553v47l164 59v1221l-164 59v48h553v-48l-162 -59v-541h680v541l-162 59v48h1151v-383h-49l-155 282h-558v-547h400l86 197h49v-491h-49l-84 192h-402v-584
h584z" />
    <glyph glyph-name="H_Emacron.liga" unicode="H&#x112;" horiz-adv-x="2236" 
d="M1870 1784v-154h-559v154h559zM2130 395h49l-57 -395h-1168v47l162 59v578h-680v-578l162 -59v-47h-553v47l164 59v1221l-164 59v48h553v-48l-162 -59v-541h680v541l-162 59v48h1151v-383h-49l-155 282h-558v-547h400l86 197h49v-491h-49l-84 192h-402v-584h584z" />
    <glyph glyph-name="H_Eogonek.liga" unicode="H&#x118;" horiz-adv-x="2236" 
d="M2034 -270q0 -69 47.5 -102.5t111.5 -14.5v-57q-53 -32 -117.5 -40t-119.5 7.5t-92 59t-37 106.5q0 44 17.5 86t53 83.5t67 71t81.5 70.5h-1092v47l162 59v578h-680v-578l162 -59v-47h-553v47l164 59v1221l-164 59v48h553v-48l-162 -59v-541h680v541l-162 59v48h1151
v-383h-49l-155 282h-558v-547h400l86 197h49v-491h-49l-84 192h-402v-584h584l203 295h49l-57 -395h2q-90 -149 -90 -270z" />
    <glyph glyph-name="H_H.liga" unicode="HH" horiz-adv-x="2461" 
d="M2415 1386l-162 -59v-1221l162 -59v-47h-551v47l161 59v578h-682v-578l164 -59v-47h-553v47l162 59v578h-680v-578l162 -59v-47h-553v47l164 59v1221l-164 59v48h553v-48l-162 -59v-541h680v541l-162 59v48h553v-48l-164 -59v-541h682v541l-161 59v48h551v-48z" />
    <glyph glyph-name="H_L.liga" unicode="HL" horiz-adv-x="2129" 
d="M2042 395h49l-57 -395h-1080v47l162 59v578h-680v-578l162 -59v-47h-553v47l164 59v1221l-164 59v48h553v-48l-162 -59v-541h680v541l-162 59v48h553v-48l-164 -59v-1227h492z" />
    <glyph glyph-name="H_Lacute.liga" unicode="H&#x139;" horiz-adv-x="2129" 
d="M1630 1712l-575 -180l-41 47l375 328h4l237 -185v-10zM2042 395h49l-57 -395h-1080v47l162 59v578h-680v-578l162 -59v-47h-553v47l164 59v1221l-164 59v48h553v-48l-162 -59v-541h680v541l-162 59v48h553v-48l-164 -59v-1227h492z" />
    <glyph glyph-name="H_Lcaron.liga" unicode="H&#x13d;" horiz-adv-x="2129" 
d="M1597 1001q30 50 41.5 97.5t-3 120t-64.5 155.5v4l182 74q66 -81 79 -167.5t-35.5 -168.5t-158.5 -139zM2042 395h49l-57 -395h-1080v47l162 59v578h-680v-578l162 -59v-47h-553v47l164 59v1221l-164 59v48h553v-48l-162 -59v-541h680v541l-162 59v48h553v-48l-164 -59
v-1227h492z" />
    <glyph glyph-name="H_Lcommaaccent.liga" unicode="H&#x13b;" horiz-adv-x="2129" 
d="M2042 395h49l-57 -395h-1080v47l162 59v578h-680v-578l162 -59v-47h-553v47l164 59v1221l-164 59v48h553v-48l-162 -59v-541h680v541l-162 59v48h553v-48l-164 -59v-1227h492zM1556 -78q68 -66 78.5 -151t-44.5 -161.5t-165 -113.5l-41 33q50 52 44.5 152.5t-64.5 162.5
v2z" />
    <glyph glyph-name="H_Ldot.liga" unicode="H&#x13f;" horiz-adv-x="2129" 
d="M2042 395h49l-57 -395h-1080v47l162 59v578h-680v-578l162 -59v-47h-553v47l164 59v1221l-164 59v48h553v-48l-162 -59v-541h680v541l-162 59v48h553v-48l-164 -59v-1227h492zM1843 588q-63 0 -108 44.5t-45 106.5q2 62 46.5 107t106.5 45q63 0 107.5 -45t44.5 -107
t-44.5 -106.5t-107.5 -44.5z" />
    <glyph glyph-name="H_R.liga" unicode="HR" horiz-adv-x="2279" 
d="M2124 102l145 -55v-47h-352l-449 668h-125v-562l164 -59v-47h-553v47l162 59v578h-680v-578l162 -59v-47h-553v47l164 59v1221l-164 59v48h553v-48l-162 -59v-541h680v541l-162 59v48h621q240 8 379 -82.5t139 -259.5q0 -132 -98.5 -244.5t-270.5 -153.5zM1343 1333v-565
h103q206 6 303.5 89t97.5 204q0 107 -89 189.5t-232 82.5h-183z" />
    <glyph glyph-name="H_Racute.liga" unicode="H&#x154;" horiz-adv-x="2279" 
d="M1942 1712l-576 -180l-41 47l375 328h4l238 -185v-10zM2124 102l145 -55v-47h-352l-449 668h-125v-562l164 -59v-47h-553v47l162 59v578h-680v-578l162 -59v-47h-553v47l164 59v1221l-164 59v48h553v-48l-162 -59v-541h680v541l-162 59v48h621q240 8 379 -82.5
t139 -259.5q0 -132 -98.5 -244.5t-270.5 -153.5zM1343 1333v-565h103q206 6 303.5 89t97.5 204q0 107 -89 189.5t-232 82.5h-183z" />
    <glyph glyph-name="H_Rcaron.liga" unicode="H&#x158;" horiz-adv-x="2279" 
d="M1413 1552l-237 316l47 39l323 -178l312 178l47 -37l-240 -318h-252zM2124 102l145 -55v-47h-352l-449 668h-125v-562l164 -59v-47h-553v47l162 59v578h-680v-578l162 -59v-47h-553v47l164 59v1221l-164 59v48h553v-48l-162 -59v-541h680v541l-162 59v48h621
q240 8 379 -82.5t139 -259.5q0 -132 -98.5 -244.5t-270.5 -153.5zM1343 1333v-565h103q206 6 303.5 89t97.5 204q0 107 -89 189.5t-232 82.5h-183z" />
    <glyph glyph-name="H_Rcommaaccent.liga" unicode="H&#x156;" horiz-adv-x="2279" 
d="M2124 102l145 -55v-47h-352l-449 668h-125v-562l164 -59v-47h-553v47l162 59v578h-680v-578l162 -59v-47h-553v47l164 59v1221l-164 59v48h553v-48l-162 -59v-541h680v541l-162 59v48h621q240 8 379 -82.5t139 -259.5q0 -132 -98.5 -244.5t-270.5 -153.5zM1343 1333v-565
h103q206 6 303.5 89t97.5 204q0 107 -89 189.5t-232 82.5h-183zM1681 -78q68 -66 78.5 -151t-44.5 -161.5t-165 -113.5l-41 33q50 52 44.5 152.5t-64.5 162.5v2z" />
    <glyph glyph-name="H_U.liga" unicode="HU" horiz-adv-x="2414" 
d="M2365 1434v-48l-141 -77v-838q0 -122 -44 -218.5t-120.5 -156t-173 -90.5t-207.5 -31q-84 0 -161.5 15.5t-152 52.5t-129 92.5t-87.5 143t-33 196.5v209h-680v-578l162 -59v-47h-553v47l164 59v1221l-164 59v48h553v-48l-162 -59v-541h680v541l-162 59v48h553v-48
l-164 -59v-811q0 -87 25 -156.5t66 -113.5t96.5 -73.5t112.5 -41.5t118 -12q96 0 177 42t132.5 129t51.5 204v813l-189 79v48h432z" />
    <glyph glyph-name="H_U_M.liga" unicode="HUM" horiz-adv-x="3786" 
d="M3742 1386l-162 -59v-1221l162 -59v-47h-553v47l164 59v1201l-523 -1307h-49l-557 1288v-817q0 -122 -44 -218.5t-120.5 -156t-173 -90.5t-207.5 -31q-84 0 -161.5 15.5t-152 52.5t-129 92.5t-87.5 143t-33 196.5v209h-680v-578l162 -59v-47h-553v47l164 59v1221l-164 59
v48h553v-48l-162 -59v-541h680v541l-162 59v48h553v-48l-164 -59v-811q0 -87 25 -156.5t66 -113.5t96.5 -73.5t112.5 -41.5t118 -12q96 0 177 42t132.5 129t51.5 204v813l-189 79v48h473l465 -1061l424 1061h447v-48z" />
    <glyph glyph-name="H_Uacute.liga" unicode="H&#xda;" horiz-adv-x="2414" 
d="M2122 1712l-576 -180l-41 47l375 328h4l238 -185v-10zM2365 1434v-48l-141 -77v-838q0 -122 -44 -218.5t-120.5 -156t-173 -90.5t-207.5 -31q-84 0 -161.5 15.5t-152 52.5t-129 92.5t-87.5 143t-33 196.5v209h-680v-578l162 -59v-47h-553v47l164 59v1221l-164 59v48h553
v-48l-162 -59v-541h680v541l-162 59v48h553v-48l-164 -59v-811q0 -87 25 -156.5t66 -113.5t96.5 -73.5t112.5 -41.5t118 -12q96 0 177 42t132.5 129t51.5 204v813l-189 79v48h432z" />
    <glyph glyph-name="H_Ubreve.liga" unicode="H&#x16c;" horiz-adv-x="2414" 
d="M1720 1542q-42 0 -82.5 10t-81.5 34t-71.5 61t-50 95.5t-19.5 131.5l70 2q25 -62 88 -104.5t147 -42.5t147.5 42.5t90.5 104.5l70 -2q0 -73 -19.5 -131.5t-51 -95.5t-73 -61t-82 -34t-82.5 -10zM2365 1434v-48l-141 -77v-838q0 -122 -44 -218.5t-120.5 -156t-173 -90.5
t-207.5 -31q-84 0 -161.5 15.5t-152 52.5t-129 92.5t-87.5 143t-33 196.5v209h-680v-578l162 -59v-47h-553v47l164 59v1221l-164 59v48h553v-48l-162 -59v-541h680v541l-162 59v48h553v-48l-164 -59v-811q0 -87 25 -156.5t66 -113.5t96.5 -73.5t112.5 -41.5t118 -12
q96 0 177 42t132.5 129t51.5 204v813l-189 79v48h432z" />
    <glyph glyph-name="H_Ucircumflex.liga" unicode="H&#xdb;" horiz-adv-x="2414" 
d="M1710 1710l-311 -178l-47 37l239 317h252l238 -315l-47 -39zM2365 1434v-48l-141 -77v-838q0 -122 -44 -218.5t-120.5 -156t-173 -90.5t-207.5 -31q-84 0 -161.5 15.5t-152 52.5t-129 92.5t-87.5 143t-33 196.5v209h-680v-578l162 -59v-47h-553v47l164 59v1221l-164 59
v48h553v-48l-162 -59v-541h680v541l-162 59v48h553v-48l-164 -59v-811q0 -87 25 -156.5t66 -113.5t96.5 -73.5t112.5 -41.5t118 -12q96 0 177 42t132.5 129t51.5 204v813l-189 79v48h432z" />
    <glyph glyph-name="H_Udieresis.liga" unicode="H&#xdc;" horiz-adv-x="2414" 
d="M1518 1597q-59 0 -100.5 41t-41.5 99q0 57 41.5 97t100.5 40q60 0 100.5 -40t40.5 -97q0 -59 -40.5 -99.5t-100.5 -40.5zM1923 1597q-60 0 -100.5 40.5t-40.5 99.5q0 57 40.5 97t100.5 40q59 0 100 -40t41 -97q0 -58 -41 -99t-100 -41zM2365 1434v-48l-141 -77v-838
q0 -122 -44 -218.5t-120.5 -156t-173 -90.5t-207.5 -31q-84 0 -161.5 15.5t-152 52.5t-129 92.5t-87.5 143t-33 196.5v209h-680v-578l162 -59v-47h-553v47l164 59v1221l-164 59v48h553v-48l-162 -59v-541h680v541l-162 59v48h553v-48l-164 -59v-811q0 -87 25 -156.5
t66 -113.5t96.5 -73.5t112.5 -41.5t118 -12q96 0 177 42t132.5 129t51.5 204v813l-189 79v48h432z" />
    <glyph glyph-name="H_Ugrave.liga" unicode="H&#xd9;" horiz-adv-x="2414" 
d="M1917 1585l-33 -53l-547 154v8l199 213h4zM2365 1434v-48l-141 -77v-838q0 -122 -44 -218.5t-120.5 -156t-173 -90.5t-207.5 -31q-84 0 -161.5 15.5t-152 52.5t-129 92.5t-87.5 143t-33 196.5v209h-680v-578l162 -59v-47h-553v47l164 59v1221l-164 59v48h553v-48
l-162 -59v-541h680v541l-162 59v48h553v-48l-164 -59v-811q0 -87 25 -156.5t66 -113.5t96.5 -73.5t112.5 -41.5t118 -12q96 0 177 42t132.5 129t51.5 204v813l-189 79v48h432z" />
    <glyph glyph-name="H_Uhungarumlaut.liga" unicode="H&#x170;" horiz-adv-x="2414" 
d="M1870 1821l-449 -289l-49 33l184 338h5l309 -70v-12zM1800 1534l-51 39l285 330h4l284 -103v-10zM2365 1434v-48l-141 -77v-838q0 -122 -44 -218.5t-120.5 -156t-173 -90.5t-207.5 -31q-84 0 -161.5 15.5t-152 52.5t-129 92.5t-87.5 143t-33 196.5v209h-680v-578l162 -59
v-47h-553v47l164 59v1221l-164 59v48h553v-48l-162 -59v-541h680v541l-162 59v48h553v-48l-164 -59v-811q0 -87 25 -156.5t66 -113.5t96.5 -73.5t112.5 -41.5t118 -12q96 0 177 42t132.5 129t51.5 204v813l-189 79v48h432z" />
    <glyph glyph-name="H_Umacron.liga" unicode="H&#x16a;" horiz-adv-x="2414" 
d="M2001 1784v-154h-559v154h559zM2365 1434v-48l-141 -77v-838q0 -122 -44 -218.5t-120.5 -156t-173 -90.5t-207.5 -31q-84 0 -161.5 15.5t-152 52.5t-129 92.5t-87.5 143t-33 196.5v209h-680v-578l162 -59v-47h-553v47l164 59v1221l-164 59v48h553v-48l-162 -59v-541h680
v541l-162 59v48h553v-48l-164 -59v-811q0 -87 25 -156.5t66 -113.5t96.5 -73.5t112.5 -41.5t118 -12q96 0 177 42t132.5 129t51.5 204v813l-189 79v48h432z" />
    <glyph glyph-name="H_Uogonek.liga" unicode="H&#x172;" horiz-adv-x="2414" 
d="M2365 1434v-48l-141 -77v-838q0 -109 -35 -197.5t-97 -148t-142.5 -95.5t-175.5 -48q-80 -140 -80 -252q0 -69 47.5 -102.5t111.5 -14.5v-57q-53 -32 -117.5 -40t-119.5 7.5t-92 59t-37 106.5q0 40 16 78.5t51 77.5t61.5 63.5t76.5 66.5h-13q-84 0 -161.5 15.5t-152 52.5
t-129 92.5t-87.5 143t-33 196.5v209h-680v-578l162 -59v-47h-553v47l164 59v1221l-164 59v48h553v-48l-162 -59v-541h680v541l-162 59v48h553v-48l-164 -59v-811q0 -87 25 -156.5t66 -113.5t96.5 -73.5t112.5 -41.5t118 -12q96 0 177 42t132.5 129t51.5 204v813l-189 79v48
h432z" />
    <glyph glyph-name="H_Uring.liga" unicode="H&#x16e;" horiz-adv-x="2414" 
d="M1720 1499q-104 0 -172.5 55t-68.5 148q0 91 61.5 159t177.5 68q106 0 175 -55t69 -148q0 -91 -62.5 -159t-179.5 -68zM1620 1788q-23 -27 -23 -66q0 -57 37 -86.5t99 -29.5q44 0 86 28q24 27 24 72q0 56 -36 85.5t-97 29.5q-51 0 -90 -33zM2365 1434v-48l-141 -77v-838
q0 -122 -44 -218.5t-120.5 -156t-173 -90.5t-207.5 -31q-84 0 -161.5 15.5t-152 52.5t-129 92.5t-87.5 143t-33 196.5v209h-680v-578l162 -59v-47h-553v47l164 59v1221l-164 59v48h553v-48l-162 -59v-541h680v541l-162 59v48h553v-48l-164 -59v-811q0 -87 25 -156.5
t66 -113.5t96.5 -73.5t112.5 -41.5t118 -12q96 0 177 42t132.5 129t51.5 204v813l-189 79v48h432z" />
    <glyph glyph-name="H_Utilde.liga" unicode="H&#x168;" horiz-adv-x="2414" 
d="M1552 1683q-11 0 -21.5 -2t-18.5 -4t-16.5 -8.5t-14 -9.5t-13.5 -13t-10.5 -13t-10.5 -16.5t-9.5 -15.5t-9.5 -17.5t-9 -16.5l-59 20q29 134 89.5 210.5t147.5 76.5q47 0 93 -20t75.5 -43.5t65 -43.5t63.5 -20q15 0 28 2.5t25.5 12t19 13.5t17.5 21t13.5 20t14.5 25
t13 23l60 -21q-28 -133 -90 -210t-148 -77q-47 0 -93 20t-76 43.5t-64.5 43.5t-61.5 20zM2365 1434v-48l-141 -77v-838q0 -122 -44 -218.5t-120.5 -156t-173 -90.5t-207.5 -31q-84 0 -161.5 15.5t-152 52.5t-129 92.5t-87.5 143t-33 196.5v209h-680v-578l162 -59v-47h-553
v47l164 59v1221l-164 59v48h553v-48l-162 -59v-541h680v541l-162 59v48h553v-48l-164 -59v-811q0 -87 25 -156.5t66 -113.5t96.5 -73.5t112.5 -41.5t118 -12q96 0 177 42t132.5 129t51.5 204v813l-189 79v48h432z" />
    <glyph glyph-name="Hbar_E.liga" unicode="&#x126;E" horiz-adv-x="2236" 
d="M2130 395h49l-57 -395h-1168v47l162 59v578h-680v-578l162 -59v-47h-553v47l164 59v861h-215v102h215v258l-164 59v48h553v-48l-162 -59v-258h680v258l-162 59v48h1151v-383h-49l-155 282h-558v-264h199v-102h-199v-181h400l86 197h49v-491h-49l-84 192h-402v-584h584z
M436 786h680v181h-680v-181z" />
    <glyph glyph-name="Hbar_L.liga" unicode="&#x126;L" horiz-adv-x="2129" 
d="M2042 395h49l-57 -395h-1080v47l162 59v578h-680v-578l162 -59v-47h-553v47l164 59v861h-215v102h215v258l-164 59v48h553v-48l-162 -59v-258h680v258l-162 59v48h553v-48l-164 -59v-258h199v-102h-199v-867h492zM436 786h680v181h-680v-181z" />
    <glyph glyph-name="Hbar_R.liga" unicode="&#x126;R" horiz-adv-x="2279" 
d="M2124 102l145 -55v-47h-352l-449 668h-125v-562l164 -59v-47h-553v47l162 59v578h-680v-578l162 -59v-47h-553v47l164 59v861h-215v102h215v258l-164 59v48h553v-48l-162 -59v-258h680v258l-162 59v48h621q240 8 379 -82.5t139 -259.5q0 -132 -98.5 -244.5t-270.5 -153.5
zM1343 967v-199h103q206 6 303.5 89t97.5 204q0 107 -89 189.5t-232 82.5h-183v-264h199v-102h-199zM436 786h680v181h-680v-181z" />
    <glyph glyph-name="Hbar_U.liga" unicode="&#x126;U" horiz-adv-x="2414" 
d="M2365 1434v-48l-141 -77v-838q0 -122 -44 -218.5t-120.5 -156t-173 -90.5t-207.5 -31q-84 0 -161.5 15.5t-152 52.5t-129 92.5t-87.5 143t-33 196.5v209h-680v-578l162 -59v-47h-553v47l164 59v861h-215v102h215v258l-164 59v48h553v-48l-162 -59v-258h680v258l-162 59
v48h553v-48l-164 -59v-258h199v-102h-199v-451q0 -87 25 -156.5t66 -113.5t96.5 -73.5t112.5 -41.5t118 -12q96 0 177 42t132.5 129t51.5 204v813l-189 79v48h432zM436 786h680v181h-680v-181z" />
    <glyph glyph-name="Hcircumflex_E.liga" unicode="&#x124;E" horiz-adv-x="2236" 
d="M780 1710l-311 -178l-47 37l240 317h251l238 -315l-47 -39zM2130 395h49l-57 -395h-1168v47l162 59v578h-680v-578l162 -59v-47h-553v47l164 59v1221l-164 59v48h553v-48l-162 -59v-541h680v541l-162 59v48h1151v-383h-49l-155 282h-558v-547h400l86 197h49v-491h-49
l-84 192h-402v-584h584z" />
    <glyph glyph-name="Hcircumflex_L.liga" unicode="&#x124;L" horiz-adv-x="2129" 
d="M780 1710l-311 -178l-47 37l240 317h251l238 -315l-47 -39zM2042 395h49l-57 -395h-1080v47l162 59v578h-680v-578l162 -59v-47h-553v47l164 59v1221l-164 59v48h553v-48l-162 -59v-541h680v541l-162 59v48h553v-48l-164 -59v-1227h492z" />
    <glyph glyph-name="Hcircumflex_R.liga" unicode="&#x124;R" horiz-adv-x="2279" 
d="M780 1710l-311 -178l-47 37l240 317h251l238 -315l-47 -39zM2124 102l145 -55v-47h-352l-449 668h-125v-562l164 -59v-47h-553v47l162 59v578h-680v-578l162 -59v-47h-553v47l164 59v1221l-164 59v48h553v-48l-162 -59v-541h680v541l-162 59v48h621q240 8 379 -82.5
t139 -259.5q0 -132 -98.5 -244.5t-270.5 -153.5zM1343 1333v-565h103q206 6 303.5 89t97.5 204q0 107 -89 189.5t-232 82.5h-183z" />
    <glyph glyph-name="Hcircumflex_U.liga" unicode="&#x124;U" horiz-adv-x="2414" 
d="M780 1710l-311 -178l-47 37l240 317h251l238 -315l-47 -39zM2365 1434v-48l-141 -77v-838q0 -122 -44 -218.5t-120.5 -156t-173 -90.5t-207.5 -31q-84 0 -161.5 15.5t-152 52.5t-129 92.5t-87.5 143t-33 196.5v209h-680v-578l162 -59v-47h-553v47l164 59v1221l-164 59v48
h553v-48l-162 -59v-541h680v541l-162 59v48h553v-48l-164 -59v-811q0 -87 25 -156.5t66 -113.5t96.5 -73.5t112.5 -41.5t118 -12q96 0 177 42t132.5 129t51.5 204v813l-189 79v48h432z" />
    <glyph glyph-name="I_T.liga" unicode="IT" horiz-adv-x="1712" 
d="M1436 1333h-295v-1227l162 -59v-47h-551v47l161 59v1227h-415l-213 -299h-49l61 400h1343l62 -400h-51zM35 743v50h553v-50l-162 -59v-578l162 -59v-47h-553v47l164 59v578z" />
    <glyph glyph-name="I_T_H.liga" unicode="ITH" horiz-adv-x="2975" 
d="M1143 1333v-1227l164 -59v-47h-553v47l161 59v1227h-413l-213 -299h-51l61 400h1483l61 -400h-49l-215 299h-436zM2931 1386l-164 -59v-1221l164 -59v-47h-553v47l162 59v578h-680v-578l161 -59v-47h-553v47l164 59v680h908v541l-162 59v48h553v-48zM39 743v50h551v-50
l-162 -59v-578l162 -59v-47h-551v47l162 59v578z" />
    <glyph glyph-name="I_Tbar.liga" unicode="I&#x166;" horiz-adv-x="1712" 
d="M1436 1333h-295v-542h248v-103h-248v-582l162 -59v-47h-551v47l161 59v582h-247v103h247v542h-415l-213 -299h-49l61 400h1343l62 -400h-51zM35 743v50h553v-50l-162 -59v-578l162 -59v-47h-553v47l164 59v578z" />
    <glyph glyph-name="I_Tcaron.liga" unicode="I&#x164;" horiz-adv-x="1712" 
d="M899 1552l-237 316l47 39l323 -178l311 178l48 -37l-240 -318h-252zM1436 1333h-295v-1227l162 -59v-47h-551v47l161 59v1227h-415l-213 -299h-49l61 400h1343l62 -400h-51zM35 743v50h553v-50l-162 -59v-578l162 -59v-47h-553v47l164 59v578z" />
    <glyph glyph-name="uni00490162.liga" unicode="I&#x162;" horiz-adv-x="1712" 
d="M1436 1333h-295v-1227l162 -59v-47h-222l-61 -96q95 -23 147 -73.5t52 -119.5q0 -71 -57 -123.5t-142.5 -67.5t-185.5 5v59q89 -3 133.5 19t44.5 84q0 77 -80 92l-76 14l-2 4l129 203h-231v47l161 59v1227h-415l-213 -299h-49l61 400h1343l62 -400h-51zM35 743v50h553
v-50l-162 -59v-578l162 -59v-47h-553v47l164 59v578z" />
    <glyph glyph-name="uni0049021A.liga" unicode="I&#x21a;" horiz-adv-x="1712" 
d="M1436 1333h-295v-1227l162 -59v-47h-551v47l161 59v1227h-415l-213 -299h-49l61 400h1343l62 -400h-51zM35 743v50h553v-50l-162 -59v-578l162 -59v-47h-553v47l164 59v578zM1085 -78q68 -66 78.5 -151t-44.5 -161.5t-165 -113.5l-41 33q50 52 44.5 152.5t-64.5 162.5v2z
" />
    <glyph glyph-name="Iogonek_T.liga" unicode="&#x12e;T" horiz-adv-x="1712" 
d="M1436 1333h-295v-1227l162 -59v-47h-551v47l161 59v1227h-415l-213 -299h-49l61 400h1343l62 -400h-51zM35 743v50h553v-50l-162 -59v-578l162 -59v-47h-152q-90 -149 -90 -270q0 -69 48 -102.5t112 -14.5v-57q-53 -32 -117.5 -40t-119.5 7.5t-92.5 59t-37.5 106.5
q0 44 17.5 86t53 83.5t67 71t81.5 70.5h-323v47l164 59v578z" />
    <glyph glyph-name="K_A.liga" unicode="KA" horiz-adv-x="2727" 
d="M2580 100l138 -53v-47h-570v47l187 53l-174 418h-549l-160 -397l213 -74v-47h-604l-486 705l-139 -132v-467l162 -59v-47h-553v47l164 59v1221l-164 59v48h553v-48l-162 -59v-616l651 608l-190 67v48h506v-48l-168 -69l-487 -455l528 -776l61 29l541 1319h152zM1653 621
h467l-236 569z" />
    <glyph glyph-name="K_Aacute.liga" unicode="K&#xc1;" horiz-adv-x="2727" 
d="M2347 1712l-575 -180l-41 47l374 328h4l238 -185v-10zM2580 100l138 -53v-47h-570v47l187 53l-174 418h-549l-160 -397l213 -74v-47h-604l-486 705l-139 -132v-467l162 -59v-47h-553v47l164 59v1221l-164 59v48h553v-48l-162 -59v-616l651 608l-190 67v48h506v-48
l-168 -69l-487 -455l528 -776l61 29l541 1319h152zM1653 621h467l-236 569z" />
    <glyph glyph-name="K_Abreve.liga" unicode="K&#x102;" horiz-adv-x="2727" 
d="M1946 1542q-42 0 -82.5 10t-81.5 34t-72 61t-50.5 95.5t-19.5 131.5l70 2q25 -61 88 -104t148 -43q84 0 147 42.5t90 104.5l70 -2q0 -90 -29 -158t-76 -104t-98 -53t-104 -17zM2580 100l138 -53v-47h-570v47l187 53l-174 418h-549l-160 -397l213 -74v-47h-604l-486 705
l-139 -132v-467l162 -59v-47h-553v47l164 59v1221l-164 59v48h553v-48l-162 -59v-616l651 608l-190 67v48h506v-48l-168 -69l-487 -455l528 -776l61 29l541 1319h152zM1653 621h467l-236 569z" />
    <glyph glyph-name="K_Acircumflex.liga" unicode="K&#xc2;" horiz-adv-x="2727" 
d="M1935 1710l-311 -178l-47 37l240 317h251l238 -315l-47 -39zM2580 100l138 -53v-47h-570v47l187 53l-174 418h-549l-160 -397l213 -74v-47h-604l-486 705l-139 -132v-467l162 -59v-47h-553v47l164 59v1221l-164 59v48h553v-48l-162 -59v-616l651 608l-190 67v48h506v-48
l-168 -69l-487 -455l528 -776l61 29l541 1319h152zM1653 621h467l-236 569z" />
    <glyph glyph-name="K_Adieresis.liga" unicode="K&#xc4;" horiz-adv-x="2727" 
d="M1743 1597q-59 0 -100 41t-41 99q0 57 41 97t100 40q60 0 100.5 -40t40.5 -97q0 -59 -40.5 -99.5t-100.5 -40.5zM2148 1597q-60 0 -100.5 40.5t-40.5 99.5q0 57 40.5 97t100.5 40q59 0 100.5 -40t41.5 -97q0 -58 -41.5 -99t-100.5 -41zM2580 100l138 -53v-47h-570v47
l187 53l-174 418h-549l-160 -397l213 -74v-47h-604l-486 705l-139 -132v-467l162 -59v-47h-553v47l164 59v1221l-164 59v48h553v-48l-162 -59v-616l651 608l-190 67v48h506v-48l-168 -69l-487 -455l528 -776l61 29l541 1319h152zM1653 621h467l-236 569z" />
    <glyph glyph-name="K_Agrave.liga" unicode="K&#xc0;" horiz-adv-x="2727" 
d="M2142 1585l-33 -53l-546 154v8l198 213h4zM2580 100l138 -53v-47h-570v47l187 53l-174 418h-549l-160 -397l213 -74v-47h-604l-486 705l-139 -132v-467l162 -59v-47h-553v47l164 59v1221l-164 59v48h553v-48l-162 -59v-616l651 608l-190 67v48h506v-48l-168 -69
l-487 -455l528 -776l61 29l541 1319h152zM1653 621h467l-236 569z" />
    <glyph glyph-name="K_Amacron.liga" unicode="K&#x100;" horiz-adv-x="2727" 
d="M2226 1784v-154h-559v154h559zM2580 100l138 -53v-47h-570v47l187 53l-174 418h-549l-160 -397l213 -74v-47h-604l-486 705l-139 -132v-467l162 -59v-47h-553v47l164 59v1221l-164 59v48h553v-48l-162 -59v-616l651 608l-190 67v48h506v-48l-168 -69l-487 -455l528 -776
l61 29l541 1319h152zM1653 621h467l-236 569z" />
    <glyph glyph-name="K_Aogonek.liga" unicode="K&#x104;" horiz-adv-x="2727" 
d="M2580 100l138 -53v-47h-193q-90 -149 -90 -270q0 -69 48 -102.5t112 -14.5v-57q-53 -32 -117.5 -40t-119.5 7.5t-92.5 59t-37.5 106.5q0 44 17.5 86t53 83.5t67 71t81.5 70.5h-299v47l187 53l-174 418h-549l-160 -397l213 -74v-47h-604l-486 705l-139 -132v-467l162 -59
v-47h-553v47l164 59v1221l-164 59v48h553v-48l-162 -59v-616l651 608l-190 67v48h506v-48l-168 -69l-487 -455l528 -776l61 29l541 1319h152zM1653 621h467l-236 569z" />
    <glyph glyph-name="K_Aring.liga" unicode="K&#xc5;" horiz-adv-x="2727" 
d="M1946 1499q-104 0 -173 55t-69 148q0 91 62 159t178 68q105 0 174 -55t69 -148q0 -91 -62 -159t-179 -68zM1845 1788q-22 -26 -22 -66q0 -57 36.5 -86.5t98.5 -29.5q44 0 86 28q24 27 24 72q0 56 -36 85.5t-97 29.5q-51 0 -90 -33zM2580 100l138 -53v-47h-570v47l187 53
l-174 418h-549l-160 -397l213 -74v-47h-604l-486 705l-139 -132v-467l162 -59v-47h-553v47l164 59v1221l-164 59v48h553v-48l-162 -59v-616l651 608l-190 67v48h506v-48l-168 -69l-487 -455l528 -776l61 29l541 1319h152zM1653 621h467l-236 569z" />
    <glyph glyph-name="K_Atilde.liga" unicode="K&#xc3;" horiz-adv-x="2727" 
d="M1778 1683q-11 0 -21.5 -2t-18.5 -4t-16.5 -8.5t-14 -9.5t-13.5 -13t-10.5 -13t-10.5 -16.5t-9.5 -15.5t-9.5 -17.5t-9 -16.5l-60 20q29 134 90 210.5t148 76.5q47 0 93 -20t75.5 -43.5t65 -43.5t63.5 -20q15 0 28 2.5t25.5 12t19 13.5t17.5 21t13.5 20t14.5 25t13 23
l59 -21q-28 -134 -89.5 -210.5t-147.5 -76.5q-47 0 -93 20t-76 43.5t-64.5 43.5t-61.5 20zM2580 100l138 -53v-47h-570v47l187 53l-174 418h-549l-160 -397l213 -74v-47h-604l-486 705l-139 -132v-467l162 -59v-47h-553v47l164 59v1221l-164 59v48h553v-48l-162 -59v-616
l651 608l-190 67v48h506v-48l-168 -69l-487 -455l528 -776l61 29l541 1319h152zM1653 621h467l-236 569z" />
    <glyph glyph-name="K_I.liga" unicode="KI" horiz-adv-x="1925" 
d="M1860 1386l-164 -59v-606l164 -59v-48h-553v48l161 59v606l-110 41l-123 -51l-490 -455l226 -332q143 -210 267.5 -309t257 -96.5t280.5 117.5l43 -37q-63 -89 -151 -146.5t-192 -74.5t-210.5 6.5t-215 104t-198.5 210.5l-277 400l-139 -132v-467l162 -59v-47h-553v47
l164 59v1221l-164 59v48h553v-48l-162 -59v-616l651 608l-190 67v48h963v-48z" />
    <glyph glyph-name="K_Iacute.liga" unicode="K&#xcd;" horiz-adv-x="1925" 
d="M1745 1907l237 -185v-10l-575 -180l-41 47l375 328h4zM1860 1434v-48l-164 -59v-606l164 -59v-48h-553v48l161 59v606l-110 41l-123 -51l-490 -455l226 -332q143 -210 267.5 -309t257 -96.5t280.5 117.5l43 -37q-63 -89 -151 -146.5t-192 -74.5t-210.5 6.5t-215 104
t-198.5 210.5l-277 400l-139 -132v-467l162 -59v-47h-553v47l164 59v1221l-164 59v48h553v-48l-162 -59v-616l651 608l-190 67v48h963z" />
    <glyph glyph-name="K_Ibreve.liga" unicode="K&#x12c;" horiz-adv-x="1925" 
d="M1579 1542q-42 0 -82.5 10t-81.5 34t-71.5 61t-50 95.5t-19.5 131.5l69 2q25 -61 88 -104t148 -43q84 0 147.5 42.5t90.5 104.5l69 -2q0 -90 -29 -158t-76 -104t-98 -53t-104 -17zM1860 1434v-48l-164 -59v-606l164 -59v-48h-553v48l161 59v606l-110 41l-123 -51
l-490 -455l226 -332q143 -210 267.5 -309t257 -96.5t280.5 117.5l43 -37q-63 -89 -151 -146.5t-192 -74.5t-210.5 6.5t-215 104t-198.5 210.5l-277 400l-139 -132v-467l162 -59v-47h-553v47l164 59v1221l-164 59v48h553v-48l-162 -59v-616l651 608l-190 67v48h963z" />
    <glyph glyph-name="K_Icircumflex.liga" unicode="K&#xce;" horiz-adv-x="1925" 
d="M1702 1886l237 -315l-47 -39l-323 178l-312 -178l-47 37l240 317h252zM1860 1434v-48l-164 -59v-606l164 -59v-48h-553v48l161 59v606l-110 41l-123 -51l-490 -455l226 -332q143 -210 267.5 -309t257 -96.5t280.5 117.5l43 -37q-63 -89 -151 -146.5t-192 -74.5
t-210.5 6.5t-215 104t-198.5 210.5l-277 400l-139 -132v-467l162 -59v-47h-553v47l164 59v1221l-164 59v48h553v-48l-162 -59v-616l651 608l-190 67v48h963z" />
    <glyph glyph-name="K_Idieresis.liga" unicode="K&#xcf;" horiz-adv-x="1925" 
d="M1378 1597q-59 0 -100 41t-41 99q0 57 41 97t100 40q60 0 101 -40t41 -97q0 -59 -41 -99.5t-101 -40.5zM1784 1874q59 0 100 -40t41 -97q0 -58 -41 -99t-100 -41q-60 0 -101 40.5t-41 99.5q0 57 41 97t101 40zM1860 1434v-48l-164 -59v-606l164 -59v-48h-553v48l161 59
v606l-110 41l-123 -51l-490 -455l226 -332q143 -210 267.5 -309t257 -96.5t280.5 117.5l43 -37q-63 -89 -151 -146.5t-192 -74.5t-210.5 6.5t-215 104t-198.5 210.5l-277 400l-139 -132v-467l162 -59v-47h-553v47l164 59v1221l-164 59v48h553v-48l-162 -59v-616l651 608
l-190 67v48h963z" />
    <glyph glyph-name="K_Idotaccent.liga" unicode="K&#x130;" horiz-adv-x="1925" 
d="M1581 1591q-62 0 -104.5 42.5t-42.5 103.5q0 59 42.5 101t104.5 42t105 -42t43 -101q0 -61 -42.5 -103.5t-105.5 -42.5zM1860 1386l-164 -59v-606l164 -59v-48h-553v48l161 59v606l-110 41l-123 -51l-490 -455l226 -332q143 -210 267.5 -309t257 -96.5t280.5 117.5
l43 -37q-63 -89 -151 -146.5t-192 -74.5t-210.5 6.5t-215 104t-198.5 210.5l-277 400l-139 -132v-467l162 -59v-47h-553v47l164 59v1221l-164 59v48h553v-48l-162 -59v-616l651 608l-190 67v48h963v-48z" />
    <glyph glyph-name="K_Igrave.liga" unicode="K&#xcc;" horiz-adv-x="1925" 
d="M1778 1585l-33 -53l-547 154v8l199 213h4zM1860 1386l-164 -59v-606l164 -59v-48h-553v48l161 59v606l-110 41l-123 -51l-490 -455l226 -332q143 -210 267.5 -309t257 -96.5t280.5 117.5l43 -37q-63 -89 -151 -146.5t-192 -74.5t-210.5 6.5t-215 104t-198.5 210.5
l-277 400l-139 -132v-467l162 -59v-47h-553v47l164 59v1221l-164 59v48h553v-48l-162 -59v-616l651 608l-190 67v48h963v-48z" />
    <glyph glyph-name="K_Imacron.liga" unicode="K&#x12a;" horiz-adv-x="1925" 
d="M1300 1784h560v-154h-560v154zM1860 1434v-48l-164 -59v-606l164 -59v-48h-553v48l161 59v606l-110 41l-123 -51l-490 -455l226 -332q143 -210 267.5 -309t257 -96.5t280.5 117.5l43 -37q-63 -89 -151 -146.5t-192 -74.5t-210.5 6.5t-215 104t-198.5 210.5l-277 400
l-139 -132v-467l162 -59v-47h-553v47l164 59v1221l-164 59v48h553v-48l-162 -59v-616l651 608l-190 67v48h963z" />
    <glyph glyph-name="K_Itilde.liga" unicode="K&#x128;" horiz-adv-x="1925" 
d="M1411 1683q-11 0 -21.5 -2t-18.5 -4t-16.5 -8.5t-14 -9.5t-13.5 -13t-10.5 -13t-10.5 -16.5t-9.5 -15.5t-9.5 -17.5t-9 -16.5l-59 20q29 134 89.5 210.5t147.5 76.5q47 0 93 -20t75.5 -43.5t65 -43.5t63.5 -20q15 0 28 2.5t25.5 12t19 13.5t17.5 21t13.5 20t14.5 25
t13 23l60 -21q-28 -133 -90 -210t-148 -77q-47 0 -93 20t-76 43.5t-64.5 43.5t-61.5 20zM1860 1434v-48l-164 -59v-606l164 -59v-48h-553v48l161 59v606l-110 41l-123 -51l-490 -455l226 -332q143 -210 267.5 -309t257 -96.5t280.5 117.5l43 -37q-63 -89 -151 -146.5
t-192 -74.5t-210.5 6.5t-215 104t-198.5 210.5l-277 400l-139 -132v-467l162 -59v-47h-553v47l164 59v1221l-164 59v48h553v-48l-162 -59v-616l651 608l-190 67v48h963z" />
    <glyph glyph-name="K_T.liga" unicode="KT" horiz-adv-x="2500" 
d="M2224 1333h-295v-1227l162 -59v-47h-551v47l162 59v1227h-428l-39 -16l-487 -455l520 -764l159 -51v-47h-366l-486 705l-139 -132v-467l162 -59v-47h-553v47l164 59v1221l-164 59v48h553v-48l-162 -59v-616l651 608l-190 67v48h1532l61 -400h-51z" />
    <glyph glyph-name="K_Tbar.liga" unicode="K&#x166;" horiz-adv-x="2500" 
d="M2224 1333h-295v-542h248v-103h-248v-582l162 -59v-47h-551v47l162 59v582h-248v103h248v542h-428l-39 -16l-487 -455l520 -764l159 -51v-47h-366l-486 705l-139 -132v-467l162 -59v-47h-553v47l164 59v1221l-164 59v48h553v-48l-162 -59v-616l651 608l-190 67v48h1532
l61 -400h-51z" />
    <glyph glyph-name="K_Tcaron.liga" unicode="K&#x164;" horiz-adv-x="2500" 
d="M1688 1552l-238 316l47 39l324 -178l311 178l47 -37l-240 -318h-251zM2224 1333h-295v-1227l162 -59v-47h-551v47l162 59v1227h-428l-39 -16l-487 -455l520 -764l159 -51v-47h-366l-486 705l-139 -132v-467l162 -59v-47h-553v47l164 59v1221l-164 59v48h553v-48l-162 -59
v-616l651 608l-190 67v48h1532l61 -400h-51z" />
    <glyph glyph-name="uni004B0162.liga" unicode="K&#x162;" horiz-adv-x="2500" 
d="M2224 1333h-295v-1227l162 -59v-47h-221l-62 -96q95 -23 147 -73.5t52 -119.5q0 -71 -57 -123.5t-142.5 -67.5t-185.5 5v59q89 -3 133.5 19t44.5 84q0 77 -80 92l-75 14l-3 4l130 203h-232v47l162 59v1227h-428l-39 -16l-487 -455l520 -764l159 -51v-47h-366l-486 705
l-139 -132v-467l162 -59v-47h-553v47l164 59v1221l-164 59v48h553v-48l-162 -59v-616l651 608l-190 67v48h1532l61 -400h-51z" />
    <glyph glyph-name="uni004B021A.liga" unicode="K&#x21a;" horiz-adv-x="2500" 
d="M2224 1333h-295v-1227l162 -59v-47h-551v47l162 59v1227h-428l-39 -16l-487 -455l520 -764l159 -51v-47h-366l-486 705l-139 -132v-467l162 -59v-47h-553v47l164 59v1221l-164 59v48h553v-48l-162 -59v-616l651 608l-190 67v48h1532l61 -400h-51zM1874 -78
q68 -66 78.5 -151t-44.5 -161.5t-165 -113.5l-41 33q50 52 44 152.5t-65 162.5v2z" />
    <glyph glyph-name="K_V.liga" unicode="KV" horiz-adv-x="2779" 
d="M2779 1434v-48l-149 -75l-527 -1311h-151l-539 1327l-76 33l-102 -43l-487 -455l520 -764l159 -51v-47h-366l-486 705l-139 -132v-467l162 -59v-47h-553v47l164 59v1221l-164 59v48h553v-48l-162 -59v-616l651 608l-190 67v48h989v-48l-225 -59l436 -1077l418 1057
l-250 79v48h514z" />
    <glyph glyph-name="K_V_A.liga" unicode="KVA" horiz-adv-x="3426" 
d="M3277 100l139 -53v-47h-571v47l186 53l-174 418h-545l-209 -518h-151l-539 1327l-76 33l-102 -43l-487 -455l520 -764l159 -51v-47h-366l-486 705l-139 -132v-467l162 -59v-47h-553v47l164 59v1221l-164 59v48h553v-48l-162 -59v-616l651 608l-190 67v48h989v-48
l-225 -59l436 -1077l469 1184h160zM2353 621h463l-236 567z" />
    <glyph glyph-name="K_W.liga" unicode="KW" horiz-adv-x="3428" 
d="M3418 1434v-48l-135 -71l-414 -1315h-157l-353 1004l-344 -1004h-157l-443 1331l-72 31l-108 -45l-487 -455l520 -764l159 -51v-47h-366l-486 705l-139 -132v-467l162 -59v-47h-553v47l164 59v1221l-164 59v48h553v-48l-162 -59v-616l651 608l-190 67v48h958v-48
l-196 -61l346 -1040l301 872l-61 172l-131 57v48h569v-48l-197 -61l367 -1034l319 1012l-227 83v48h473z" />
    <glyph glyph-name="K_Wacute.liga" unicode="K&#x1e82;" horiz-adv-x="3428" 
d="M2793 1712l-575 -180l-41 47l375 328h4l237 -185v-10zM3418 1434v-48l-135 -71l-414 -1315h-157l-353 1004l-344 -1004h-157l-443 1331l-72 31l-108 -45l-487 -455l520 -764l159 -51v-47h-366l-486 705l-139 -132v-467l162 -59v-47h-553v47l164 59v1221l-164 59v48h553
v-48l-162 -59v-616l651 608l-190 67v48h958v-48l-196 -61l346 -1040l301 872l-61 172l-131 57v48h569v-48l-197 -61l367 -1034l319 1012l-227 83v48h473z" />
    <glyph glyph-name="K_Wcircumflex.liga" unicode="K&#x174;" horiz-adv-x="3428" 
d="M2380 1710l-312 -178l-47 37l240 317h252l237 -315l-47 -39zM3418 1434v-48l-135 -71l-414 -1315h-157l-353 1004l-344 -1004h-157l-443 1331l-72 31l-108 -45l-487 -455l520 -764l159 -51v-47h-366l-486 705l-139 -132v-467l162 -59v-47h-553v47l164 59v1221l-164 59v48
h553v-48l-162 -59v-616l651 608l-190 67v48h958v-48l-196 -61l346 -1040l301 872l-61 172l-131 57v48h569v-48l-197 -61l367 -1034l319 1012l-227 83v48h473z" />
    <glyph glyph-name="K_Wdieresis.liga" unicode="K&#x1e84;" horiz-adv-x="3428" 
d="M2189 1597q-59 0 -100 41t-41 99q0 57 41 97t100 40q60 0 101 -40t41 -97q0 -59 -41 -99.5t-101 -40.5zM2595 1597q-60 0 -100.5 40.5t-40.5 99.5q0 57 40.5 97t100.5 40q59 0 100 -40t41 -97q0 -58 -41 -99t-100 -41zM3418 1434v-48l-135 -71l-414 -1315h-157l-353 1004
l-344 -1004h-157l-443 1331l-72 31l-108 -45l-487 -455l520 -764l159 -51v-47h-366l-486 705l-139 -132v-467l162 -59v-47h-553v47l164 59v1221l-164 59v48h553v-48l-162 -59v-616l651 608l-190 67v48h958v-48l-196 -61l346 -1040l301 872l-61 172l-131 57v48h569v-48
l-197 -61l367 -1034l319 1012l-227 83v48h473z" />
    <glyph glyph-name="K_Wgrave.liga" unicode="K&#x1e80;" horiz-adv-x="3428" 
d="M2589 1585l-33 -53l-547 154v8l199 213h4zM3418 1434v-48l-135 -71l-414 -1315h-157l-353 1004l-344 -1004h-157l-443 1331l-72 31l-108 -45l-487 -455l520 -764l159 -51v-47h-366l-486 705l-139 -132v-467l162 -59v-47h-553v47l164 59v1221l-164 59v48h553v-48l-162 -59
v-616l651 608l-190 67v48h958v-48l-196 -61l346 -1040l301 872l-61 172l-131 57v48h569v-48l-197 -61l367 -1034l319 1012l-227 83v48h473z" />
    <glyph glyph-name="K_Y.liga" unicode="KY" horiz-adv-x="2670" 
d="M2531 1311l-440 -695v-510l162 -59v-47h-553v47l164 59v504l-480 723l-57 23l-92 -39l-487 -455l520 -764l159 -51v-47h-366l-486 705l-139 -132v-467l162 -59v-47h-553v47l164 59v1221l-164 59v48h553v-48l-162 -59v-616l651 608l-190 67v48h928v-48l-170 -49l393 -604
l362 580l-202 73v48h473v-48z" />
    <glyph glyph-name="K_Yacute.liga" unicode="K&#xdd;" horiz-adv-x="2670" 
d="M2406 1712l-575 -180l-41 47l375 328h4l237 -185v-10zM2531 1311l-440 -695v-510l162 -59v-47h-553v47l164 59v504l-480 723l-57 23l-92 -39l-487 -455l520 -764l159 -51v-47h-366l-486 705l-139 -132v-467l162 -59v-47h-553v47l164 59v1221l-164 59v48h553v-48l-162 -59
v-616l651 608l-190 67v48h928v-48l-170 -49l393 -604l362 580l-202 73v48h473v-48z" />
    <glyph glyph-name="K_Ycircumflex.liga" unicode="K&#x176;" horiz-adv-x="2670" 
d="M1995 1710l-312 -178l-47 37l240 317h252l237 -315l-47 -39zM2531 1311l-440 -695v-510l162 -59v-47h-553v47l164 59v504l-480 723l-57 23l-92 -39l-487 -455l520 -764l159 -51v-47h-366l-486 705l-139 -132v-467l162 -59v-47h-553v47l164 59v1221l-164 59v48h553v-48
l-162 -59v-616l651 608l-190 67v48h928v-48l-170 -49l393 -604l362 580l-202 73v48h473v-48z" />
    <glyph glyph-name="K_Ydieresis.liga" unicode="K&#x178;" horiz-adv-x="2670" 
d="M1802 1597q-59 0 -100 41t-41 99q0 57 41 97t100 40q60 0 101 -40t41 -97q0 -59 -41 -99.5t-101 -40.5zM2208 1597q-60 0 -101 40.5t-41 99.5q0 57 41 97t101 40q59 0 100 -40t41 -97q0 -58 -41 -99t-100 -41zM2531 1311l-440 -695v-510l162 -59v-47h-553v47l164 59v504
l-480 723l-57 23l-92 -39l-487 -455l520 -764l159 -51v-47h-366l-486 705l-139 -132v-467l162 -59v-47h-553v47l164 59v1221l-164 59v48h553v-48l-162 -59v-616l651 608l-190 67v48h928v-48l-170 -49l393 -604l362 580l-202 73v48h473v-48z" />
    <glyph glyph-name="K_Ygrave.liga" unicode="K&#x1ef2;" horiz-adv-x="2670" 
d="M2202 1585l-33 -53l-547 154v8l199 213h4zM2531 1311l-440 -695v-510l162 -59v-47h-553v47l164 59v504l-480 723l-57 23l-92 -39l-487 -455l520 -764l159 -51v-47h-366l-486 705l-139 -132v-467l162 -59v-47h-553v47l164 59v1221l-164 59v48h553v-48l-162 -59v-616
l651 608l-190 67v48h928v-48l-170 -49l393 -604l362 580l-202 73v48h473v-48z" />
    <glyph glyph-name="Kcommaaccent_A.liga" unicode="&#x136;A" horiz-adv-x="2727" 
d="M2580 100l138 -53v-47h-570v47l187 53l-174 418h-549l-160 -397l213 -74v-47h-604l-486 705l-139 -132v-467l162 -59v-47h-553v47l164 59v1221l-164 59v48h553v-48l-162 -59v-616l651 608l-190 67v48h506v-48l-168 -69l-487 -455l528 -776l61 29l541 1319h152zM1653 621
h467l-236 569zM817 -78q68 -66 78.5 -151t-44.5 -161.5t-165 -113.5l-41 33q50 52 44.5 152.5t-64.5 162.5v2z" />
    <glyph glyph-name="Kcommaaccent_I.liga" unicode="&#x136;I" horiz-adv-x="1925" 
d="M1860 1386l-164 -59v-606l164 -59v-48h-553v48l161 59v606l-110 41l-123 -51l-490 -455l226 -332q143 -210 267.5 -309t257 -96.5t280.5 117.5l43 -37q-63 -89 -151 -146.5t-192 -74.5t-210.5 6.5t-215 104t-198.5 210.5l-277 400l-139 -132v-467l162 -59v-47h-553v47
l164 59v1221l-164 59v48h553v-48l-162 -59v-616l651 608l-190 67v48h963v-48zM817 -78q68 -66 78.5 -151t-44.5 -161.5t-165 -113.5l-41 33q50 52 44.5 152.5t-64.5 162.5v2z" />
    <glyph glyph-name="Kcommaaccent_T.liga" unicode="&#x136;T" horiz-adv-x="2500" 
d="M2224 1333h-295v-1227l162 -59v-47h-551v47l162 59v1227h-428l-39 -16l-487 -455l520 -764l159 -51v-47h-366l-486 705l-139 -132v-467l162 -59v-47h-553v47l164 59v1221l-164 59v48h553v-48l-162 -59v-616l651 608l-190 67v48h1532l61 -400h-51zM817 -78
q68 -66 78.5 -151t-44.5 -161.5t-165 -113.5l-41 33q50 52 44.5 152.5t-64.5 162.5v2z" />
    <glyph glyph-name="Kcommaaccent_V.liga" unicode="&#x136;V" horiz-adv-x="2779" 
d="M2779 1434v-48l-149 -75l-527 -1311h-151l-539 1327l-76 33l-102 -43l-487 -455l520 -764l159 -51v-47h-366l-486 705l-139 -132v-467l162 -59v-47h-553v47l164 59v1221l-164 59v48h553v-48l-162 -59v-616l651 608l-190 67v48h989v-48l-225 -59l436 -1077l418 1057
l-250 79v48h514zM817 -78q68 -66 78.5 -151t-44.5 -161.5t-165 -113.5l-41 33q50 52 44.5 152.5t-64.5 162.5v2z" />
    <glyph glyph-name="Kcommaaccent_W.liga" unicode="&#x136;W" horiz-adv-x="3428" 
d="M3418 1434v-48l-135 -71l-414 -1315h-157l-353 1004l-344 -1004h-157l-443 1331l-72 31l-108 -45l-487 -455l520 -764l159 -51v-47h-366l-486 705l-139 -132v-467l162 -59v-47h-553v47l164 59v1221l-164 59v48h553v-48l-162 -59v-616l651 608l-190 67v48h958v-48
l-196 -61l346 -1040l301 872l-61 172l-131 57v48h569v-48l-197 -61l367 -1034l319 1012l-227 83v48h473zM817 -78q68 -66 78.5 -151t-44.5 -161.5t-165 -113.5l-41 33q50 52 44.5 152.5t-64.5 162.5v2z" />
    <glyph glyph-name="Kcommaaccent_Y.liga" unicode="&#x136;Y" horiz-adv-x="2670" 
d="M2531 1311l-440 -695v-510l162 -59v-47h-553v47l164 59v504l-480 723l-57 23l-92 -39l-487 -455l520 -764l159 -51v-47h-366l-486 705l-139 -132v-467l162 -59v-47h-553v47l164 59v1221l-164 59v48h553v-48l-162 -59v-616l651 608l-190 67v48h928v-48l-170 -49l393 -604
l362 580l-202 73v48h473v-48zM817 -78q68 -66 78.5 -151t-44.5 -161.5t-165 -113.5l-41 33q50 52 44.5 152.5t-64.5 162.5v2z" />
    <glyph glyph-name="L_A.liga" unicode="LA" horiz-adv-x="2029" 
d="M1880 100l139 -53v-47h-571v47l186 53l-174 418h-547l-168 -418h181l207 295h51l-58 -395h-1081v47l164 59v1221l-164 59v48h553v-48l-162 -59v-1227h195l547 1334h151zM954 621h465l-235 565z" />
    <glyph glyph-name="L_Aacute.liga" unicode="L&#xc1;" horiz-adv-x="2029" 
d="M1647 1712l-576 -180l-41 47l375 328h4l238 -185v-10zM1880 100l139 -53v-47h-571v47l186 53l-174 418h-547l-168 -418h181l207 295h51l-58 -395h-1081v47l164 59v1221l-164 59v48h553v-48l-162 -59v-1227h195l547 1334h151zM954 621h465l-235 565z" />
    <glyph glyph-name="L_Abreve.liga" unicode="L&#x102;" horiz-adv-x="2029" 
d="M1245 1542q-42 0 -82.5 10t-81.5 34t-71.5 61t-50 95.5t-19.5 131.5l70 2q25 -62 88 -104.5t147 -42.5t147.5 42.5t90.5 104.5l69 -2q0 -90 -29 -158t-76 -104t-98 -53t-104 -17zM1880 100l139 -53v-47h-571v47l186 53l-174 418h-547l-168 -418h181l207 295h51l-58 -395
h-1081v47l164 59v1221l-164 59v48h553v-48l-162 -59v-1227h195l547 1334h151zM954 621h465l-235 565z" />
    <glyph glyph-name="L_Acircumflex.liga" unicode="L&#xc2;" horiz-adv-x="2029" 
d="M1235 1710l-311 -178l-47 37l239 317h252l238 -315l-47 -39zM1880 100l139 -53v-47h-571v47l186 53l-174 418h-547l-168 -418h181l207 295h51l-58 -395h-1081v47l164 59v1221l-164 59v48h553v-48l-162 -59v-1227h195l547 1334h151zM954 621h465l-235 565z" />
    <glyph glyph-name="L_Adieresis.liga" unicode="L&#xc4;" horiz-adv-x="2029" 
d="M1042 1597q-59 0 -100 41t-41 99q0 57 41 97t100 40q60 0 101 -40t41 -97q0 -59 -41 -99.5t-101 -40.5zM1448 1597q-60 0 -100.5 40.5t-40.5 99.5q0 57 40.5 97t100.5 40q59 0 100 -40t41 -97q0 -58 -41 -99t-100 -41zM1880 100l139 -53v-47h-571v47l186 53l-174 418
h-547l-168 -418h181l207 295h51l-58 -395h-1081v47l164 59v1221l-164 59v48h553v-48l-162 -59v-1227h195l547 1334h151zM954 621h465l-235 565z" />
    <glyph glyph-name="L_Agrave.liga" unicode="L&#xc0;" horiz-adv-x="2029" 
d="M1442 1585l-33 -53l-547 154v8l199 213h4zM1880 100l139 -53v-47h-571v47l186 53l-174 418h-547l-168 -418h181l207 295h51l-58 -395h-1081v47l164 59v1221l-164 59v48h553v-48l-162 -59v-1227h195l547 1334h151zM954 621h465l-235 565z" />
    <glyph glyph-name="L_Amacron.liga" unicode="L&#x100;" horiz-adv-x="2029" 
d="M1526 1784v-154h-559v154h559zM1880 100l139 -53v-47h-571v47l186 53l-174 418h-547l-168 -418h181l207 295h51l-58 -395h-1081v47l164 59v1221l-164 59v48h553v-48l-162 -59v-1227h195l547 1334h151zM954 621h465l-235 565z" />
    <glyph glyph-name="L_Aogonek.liga" unicode="L&#x104;" horiz-adv-x="2029" 
d="M1880 100l139 -53v-47h-194q-90 -149 -90 -270q0 -69 47.5 -102.5t111.5 -14.5v-57q-53 -32 -117.5 -40t-119.5 7.5t-92 59t-37 106.5q0 44 17.5 86t53 83.5t67 71t81.5 70.5h-299v47l186 53l-174 418h-547l-168 -418h181l207 295h51l-58 -395h-1081v47l164 59v1221
l-164 59v48h553v-48l-162 -59v-1227h195l547 1334h151zM954 621h465l-235 565z" />
    <glyph glyph-name="L_Aring.liga" unicode="L&#xc5;" horiz-adv-x="2029" 
d="M1245 1499q-104 0 -172.5 55t-68.5 148q0 91 61.5 159t177.5 68q106 0 175 -55t69 -148q0 -91 -62.5 -159t-179.5 -68zM1145 1788q-23 -27 -23 -66q0 -57 36.5 -86.5t98.5 -29.5q44 0 86 28q25 29 25 72q0 56 -36 85.5t-97 29.5q-51 0 -90 -33zM1880 100l139 -53v-47
h-571v47l186 53l-174 418h-547l-168 -418h181l207 295h51l-58 -395h-1081v47l164 59v1221l-164 59v48h553v-48l-162 -59v-1227h195l547 1334h151zM954 621h465l-235 565z" />
    <glyph glyph-name="L_Atilde.liga" unicode="L&#xc3;" horiz-adv-x="2029" 
d="M1077 1683q-11 0 -21.5 -2t-18.5 -4t-16.5 -8.5t-14 -9.5t-13.5 -13t-10.5 -13t-10.5 -16.5t-9.5 -15.5t-9.5 -17.5t-9 -16.5l-59 20q29 134 89.5 210.5t147.5 76.5q47 0 93 -20t75.5 -43.5t65 -43.5t63.5 -20q15 0 28 2.5t25.5 12t19 13.5t17.5 21t13.5 20t14.5 25
t13 23l60 -21q-28 -133 -90 -210t-148 -77q-47 0 -93 20t-76 43.5t-64.5 43.5t-61.5 20zM1880 100l139 -53v-47h-571v47l186 53l-174 418h-547l-168 -418h181l207 295h51l-58 -395h-1081v47l164 59v1221l-164 59v48h553v-48l-162 -59v-1227h195l547 1334h151zM954 621h465
l-235 565z" />
    <glyph glyph-name="L_I.liga" unicode="LI" horiz-adv-x="1411" 
d="M926 100l207 295h51l-58 -395h-1081v47l164 59v1221l-164 59v48h553v-48l-162 -59v-1227h490zM1343 1386l-161 -59v-606l161 -59v-48h-550v48l161 59v606l-161 59v48h550v-48z" />
    <glyph glyph-name="L_Iacute.liga" unicode="L&#xcd;" horiz-adv-x="1411" 
d="M1229 1907l237 -185v-10l-575 -180l-41 47l375 328h4zM926 100l207 295h51l-58 -395h-1081v47l164 59v1221l-164 59v48h553v-48l-162 -59v-1227h490zM793 1386v48h550v-48l-161 -59v-606l161 -59v-48h-550v48l161 59v606z" />
    <glyph glyph-name="L_Ibreve.liga" unicode="L&#x12c;" horiz-adv-x="1411" 
d="M1065 1542q-42 0 -82.5 10t-81.5 34t-71.5 61t-50 95.5t-19.5 131.5l69 2q25 -61 88 -104t148 -43q84 0 147.5 42.5t90.5 104.5l69 -2q0 -90 -29 -158t-76 -104t-98 -53t-104 -17zM926 100l207 295h51l-58 -395h-1081v47l164 59v1221l-164 59v48h553v-48l-162 -59v-1227
h490zM793 1386v48h550v-48l-161 -59v-606l161 -59v-48h-550v48l161 59v606z" />
    <glyph glyph-name="L_Icircumflex.liga" unicode="L&#xce;" horiz-adv-x="1411" 
d="M1188 1886l237 -315l-47 -39l-323 178l-312 -178l-47 37l240 317h252zM926 100l207 295h51l-58 -395h-1081v47l164 59v1221l-164 59v48h553v-48l-162 -59v-1227h490zM793 1386v48h550v-48l-161 -59v-606l161 -59v-48h-550v48l161 59v606z" />
    <glyph glyph-name="L_Idieresis.liga" unicode="L&#xcf;" horiz-adv-x="1411" 
d="M864 1597q-59 0 -100 41t-41 99q0 57 41 97t100 40q60 0 101 -40t41 -97q0 -59 -41 -99.5t-101 -40.5zM1270 1874q59 0 100 -40t41 -97q0 -58 -41 -99t-100 -41q-60 0 -101 40.5t-41 99.5q0 57 41 97t101 40zM926 100l207 295h51l-58 -395h-1081v47l164 59v1221l-164 59
v48h553v-48l-162 -59v-1227h490zM793 1386v48h550v-48l-161 -59v-606l161 -59v-48h-550v48l161 59v606z" />
    <glyph glyph-name="L_Idotaccent.liga" unicode="L&#x130;" horiz-adv-x="1411" 
d="M1067 1591q-62 0 -104.5 42.5t-42.5 103.5q0 59 42.5 101t104.5 42t104.5 -42t42.5 -101q0 -61 -42.5 -103.5t-104.5 -42.5zM926 100l207 295h51l-58 -395h-1081v47l164 59v1221l-164 59v48h553v-48l-162 -59v-1227h490zM1343 1386l-161 -59v-606l161 -59v-48h-550v48
l161 59v606l-161 59v48h550v-48z" />
    <glyph glyph-name="L_Igrave.liga" unicode="L&#xcc;" horiz-adv-x="1411" 
d="M1262 1585l-33 -53l-547 154v8l199 213h4zM926 100l207 295h51l-58 -395h-1081v47l164 59v1221l-164 59v48h553v-48l-162 -59v-1227h490zM1343 1386l-161 -59v-606l161 -59v-48h-550v48l161 59v606l-161 59v48h550v-48z" />
    <glyph glyph-name="L_Imacron.liga" unicode="L&#x12a;" horiz-adv-x="1411" 
d="M786 1784h560v-154h-560v154zM926 100l207 295h51l-58 -395h-1081v47l164 59v1221l-164 59v48h553v-48l-162 -59v-1227h490zM793 1386v48h550v-48l-161 -59v-606l161 -59v-48h-550v48l161 59v606z" />
    <glyph glyph-name="L_Itilde.liga" unicode="L&#x128;" horiz-adv-x="1411" 
d="M897 1683q-11 0 -21.5 -2t-18.5 -4t-16.5 -8.5t-14 -9.5t-13.5 -13t-10.5 -13t-10.5 -16.5t-9.5 -15.5t-9.5 -17.5t-9 -16.5l-59 20q29 134 89.5 210.5t147.5 76.5q47 0 93 -20t75.5 -43.5t65 -43.5t63.5 -20q15 0 28 2.5t25.5 12t19 13.5t17.5 21t13.5 20t14.5 25t13 23
l60 -21q-28 -133 -90 -210t-148 -77q-47 0 -93 20t-76 43.5t-64.5 43.5t-61.5 20zM926 100l207 295h51l-58 -395h-1081v47l164 59v1221l-164 59v48h553v-48l-162 -59v-1227h490zM793 1386v48h550v-48l-161 -59v-606l161 -59v-48h-550v48l161 59v606z" />
    <glyph glyph-name="L_L.liga" unicode="LL" horiz-adv-x="1865" 
d="M926 100l207 295h51l-58 -395h-1081v47l164 59v1221l-164 59v48h553v-48l-162 -59v-1227h490zM1798 1010h49l-57 -396h-997v48l161 59v606l-161 59v48h550v-48l-161 -59v-612h409z" />
    <glyph glyph-name="L_T.liga" unicode="LT" horiz-adv-x="1810" 
d="M965 100l206 295h50l-58 -395h-1118v47l164 59v1221l-164 59v48h553v-48l-162 -59v-1227h529zM1536 1333h-152v-612l162 -59v-48h-553v48l164 59v612h-156l-213 -299h-49l62 400h938l61 -400h-49z" />
    <glyph glyph-name="L_Tbar.liga" unicode="L&#x166;" horiz-adv-x="1810" 
d="M965 100l206 295h50l-58 -395h-1118v47l164 59v1221l-164 59v48h553v-48l-162 -59v-1227h529zM1536 1333h-152v-297h226v-102h-226v-213l162 -59v-48h-553v48l164 59v213h-227v102h227v297h-156l-213 -299h-49l62 400h938l61 -400h-49z" />
    <glyph glyph-name="L_Tcaron.liga" unicode="L&#x164;" horiz-adv-x="1810" 
d="M1143 1552l-238 316l47 39l324 -178l311 178l47 -37l-239 -318h-252zM965 100l206 295h50l-58 -395h-1118v47l164 59v1221l-164 59v48h553v-48l-162 -59v-1227h529zM1536 1333h-152v-612l162 -59v-48h-553v48l164 59v612h-156l-213 -299h-49l62 400h938l61 -400h-49z" />
    <glyph glyph-name="Lacute_A.liga" unicode="&#x139;A" horiz-adv-x="2029" 
d="M721 1712l-576 -180l-41 47l375 328h4l238 -185v-10zM1880 100l139 -53v-47h-571v47l186 53l-174 418h-547l-168 -418h181l207 295h51l-58 -395h-1081v47l164 59v1221l-164 59v48h553v-48l-162 -59v-1227h195l547 1334h151zM954 621h465l-235 565z" />
    <glyph glyph-name="Lacute_I.liga" unicode="&#x139;I" horiz-adv-x="1411" 
d="M721 1712l-576 -180l-41 47l375 328h4l238 -185v-10zM926 100l207 295h51l-58 -395h-1081v47l164 59v1221l-164 59v48h553v-48l-162 -59v-1227h490zM1343 1386l-161 -59v-606l161 -59v-48h-550v48l161 59v606l-161 59v48h550v-48z" />
    <glyph glyph-name="Lacute_T.liga" unicode="&#x139;T" horiz-adv-x="1810" 
d="M721 1712l-576 -180l-41 47l375 328h4l238 -185v-10zM965 100l206 295h50l-58 -395h-1118v47l164 59v1221l-164 59v48h553v-48l-162 -59v-1227h529zM1536 1333h-152v-612l162 -59v-48h-553v48l164 59v612h-156l-213 -299h-49l62 400h938l61 -400h-49z" />
    <glyph glyph-name="Lcaron_A.liga" unicode="&#x13d;A" horiz-adv-x="2029" 
d="M684 1001q22 36 33 71.5t13 81t-16.5 101.5t-56.5 119v4l183 74q66 -81 79 -167.5t-35.5 -168.5t-158.5 -139zM1880 100l139 -53v-47h-571v47l186 53l-174 418h-547l-168 -418h181l207 295h51l-58 -395h-1081v47l164 59v1221l-164 59v48h553v-48l-162 -59v-1227h195
l547 1334h151zM954 621h465l-235 565z" />
    <glyph glyph-name="Lcommaaccent_A.liga" unicode="&#x13b;A" horiz-adv-x="2029" 
d="M1880 100l139 -53v-47h-571v47l186 53l-174 418h-547l-168 -418h181l207 295h51l-58 -395h-1081v47l164 59v1221l-164 59v48h553v-48l-162 -59v-1227h195l547 1334h151zM954 621h465l-235 565zM647 -78q68 -66 78.5 -151t-44.5 -161.5t-165 -113.5l-41 33
q50 52 44.5 152.5t-64.5 162.5v2z" />
    <glyph glyph-name="Lcommaaccent_I.liga" unicode="&#x13b;I" horiz-adv-x="1411" 
d="M926 100l207 295h51l-58 -395h-1081v47l164 59v1221l-164 59v48h553v-48l-162 -59v-1227h490zM1343 1386l-161 -59v-606l161 -59v-48h-550v48l161 59v606l-161 59v48h550v-48zM647 -78q68 -66 78.5 -151t-44.5 -161.5t-165 -113.5l-41 33q50 52 44.5 152.5t-64.5 162.5v2
z" />
    <glyph glyph-name="Lcommaaccent_T.liga" unicode="&#x13b;T" horiz-adv-x="1810" 
d="M965 100l206 295h50l-58 -395h-1118v47l164 59v1221l-164 59v48h553v-48l-162 -59v-1227h529zM1536 1333h-152v-612l162 -59v-48h-553v48l164 59v612h-156l-213 -299h-49l62 400h938l61 -400h-49zM647 -78q68 -66 78.5 -151t-44.5 -161.5t-165 -113.5l-41 33
q50 52 44.5 152.5t-64.5 162.5v2z" />
    <glyph glyph-name="Lslash_A.liga" unicode="&#x141;A" horiz-adv-x="2029" 
d="M1880 100l139 -53v-47h-571v47l186 53l-174 418h-547l-168 -418h181l207 295h51l-58 -395h-1081v47l164 59v541l-174 -69l-37 92l211 86v571l-164 59v48h553v-48l-162 -59v-479l312 127l36 -94l-348 -142v-639h195l547 1334h151zM954 621h465l-235 565z" />
    <glyph glyph-name="Lslash_I.liga" unicode="&#x141;I" horiz-adv-x="1411" 
d="M926 100l207 295h51l-58 -395h-1081v47l164 59v541l-174 -69l-37 92l211 86v571l-164 59v48h553v-48l-162 -59v-479l312 127l36 -94l-348 -142v-639h490zM1343 1386l-161 -59v-606l161 -59v-48h-550v48l161 59v606l-161 59v48h550v-48z" />
    <glyph glyph-name="Lslash_T.liga" unicode="&#x141;T" horiz-adv-x="1810" 
d="M965 100l206 295h50l-58 -395h-1118v47l164 59v541l-174 -69l-37 92l211 86v571l-164 59v48h553v-48l-162 -59v-479l312 127l36 -94l-348 -142v-639h529zM1536 1333h-152v-612l162 -59v-48h-553v48l164 59v612h-156l-213 -299h-49l62 400h938l61 -400h-49z" />
    <glyph glyph-name="M_E.liga" unicode="ME" horiz-adv-x="2555" 
d="M2449 395h52l-58 -395h-1169v47l164 59v1201l-523 -1307h-49l-555 1282v-1157l211 -78v-47h-477v47l162 72v1208l-162 59v48h447l464 -1061l424 1061h1047v-383h-51l-156 282h-555v-547h397l86 197h52v-491h-52l-84 192h-399v-584h582z" />
    <glyph glyph-name="M_Eacute.liga" unicode="M&#xc9;" horiz-adv-x="2555" 
d="M2312 1712l-575 -180l-41 47l375 328h4l237 -185v-10zM2449 395h52l-58 -395h-1169v47l164 59v1201l-523 -1307h-49l-555 1282v-1157l211 -78v-47h-477v47l162 72v1208l-162 59v48h447l464 -1061l424 1061h1047v-383h-51l-156 282h-555v-547h397l86 197h52v-491h-52
l-84 192h-399v-584h582z" />
    <glyph glyph-name="M_Ebreve.liga" unicode="M&#x114;" horiz-adv-x="2555" 
d="M1909 1542q-42 0 -82.5 10t-81.5 34t-71.5 61t-50 95.5t-19.5 131.5l69 2q25 -61 88 -104t148 -43q84 0 147 42.5t90 104.5l70 -2q0 -90 -29 -158t-76 -104t-98 -53t-104 -17zM2449 395h52l-58 -395h-1169v47l164 59v1201l-523 -1307h-49l-555 1282v-1157l211 -78v-47
h-477v47l162 72v1208l-162 59v48h447l464 -1061l424 1061h1047v-383h-51l-156 282h-555v-547h397l86 197h52v-491h-52l-84 192h-399v-584h582z" />
    <glyph glyph-name="M_Ecaron.liga" unicode="M&#x11a;" horiz-adv-x="2555" 
d="M1784 1552l-238 316l47 39l324 -178l311 178l47 -37l-239 -318h-252zM2449 395h52l-58 -395h-1169v47l164 59v1201l-523 -1307h-49l-555 1282v-1157l211 -78v-47h-477v47l162 72v1208l-162 59v48h447l464 -1061l424 1061h1047v-383h-51l-156 282h-555v-547h397l86 197h52
v-491h-52l-84 192h-399v-584h582z" />
    <glyph glyph-name="M_Ecircumflex.liga" unicode="M&#xca;" horiz-adv-x="2555" 
d="M1898 1710l-311 -178l-47 37l240 317h252l237 -315l-47 -39zM2449 395h52l-58 -395h-1169v47l164 59v1201l-523 -1307h-49l-555 1282v-1157l211 -78v-47h-477v47l162 72v1208l-162 59v48h447l464 -1061l424 1061h1047v-383h-51l-156 282h-555v-547h397l86 197h52v-491
h-52l-84 192h-399v-584h582z" />
    <glyph glyph-name="M_Edieresis.liga" unicode="M&#xcb;" horiz-adv-x="2555" 
d="M1708 1597q-59 0 -100 41t-41 99q0 57 41 97t100 40q60 0 100.5 -40t40.5 -97q0 -59 -40.5 -99.5t-100.5 -40.5zM2114 1597q-60 0 -101 40.5t-41 99.5q0 57 41 97t101 40q59 0 100 -40t41 -97q0 -58 -41 -99t-100 -41zM2449 395h52l-58 -395h-1169v47l164 59v1201
l-523 -1307h-49l-555 1282v-1157l211 -78v-47h-477v47l162 72v1208l-162 59v48h447l464 -1061l424 1061h1047v-383h-51l-156 282h-555v-547h397l86 197h52v-491h-52l-84 192h-399v-584h582z" />
    <glyph glyph-name="M_Edotaccent.liga" unicode="M&#x116;" horiz-adv-x="2555" 
d="M1911 1591q-63 0 -105.5 42.5t-42.5 103.5q0 59 43 101t105 42t104.5 -42t42.5 -101q0 -61 -42.5 -103.5t-104.5 -42.5zM2449 395h52l-58 -395h-1169v47l164 59v1201l-523 -1307h-49l-555 1282v-1157l211 -78v-47h-477v47l162 72v1208l-162 59v48h447l464 -1061l424 1061
h1047v-383h-51l-156 282h-555v-547h397l86 197h52v-491h-52l-84 192h-399v-584h582z" />
    <glyph glyph-name="M_Egrave.liga" unicode="M&#xc8;" horiz-adv-x="2555" 
d="M2107 1585l-32 -53l-547 154v8l198 213h5zM2449 395h52l-58 -395h-1169v47l164 59v1201l-523 -1307h-49l-555 1282v-1157l211 -78v-47h-477v47l162 72v1208l-162 59v48h447l464 -1061l424 1061h1047v-383h-51l-156 282h-555v-547h397l86 197h52v-491h-52l-84 192h-399
v-584h582z" />
    <glyph glyph-name="M_Emacron.liga" unicode="M&#x112;" horiz-adv-x="2555" 
d="M2189 1784v-154h-559v154h559zM2449 395h52l-58 -395h-1169v47l164 59v1201l-523 -1307h-49l-555 1282v-1157l211 -78v-47h-477v47l162 72v1208l-162 59v48h447l464 -1061l424 1061h1047v-383h-51l-156 282h-555v-547h397l86 197h52v-491h-52l-84 192h-399v-584h582z" />
    <glyph glyph-name="M_Eogonek.liga" unicode="M&#x118;" horiz-adv-x="2555" 
d="M2353 -270q0 -69 48 -102.5t112 -14.5v-57q-53 -32 -117.5 -40t-119.5 7.5t-92.5 59t-37.5 106.5q0 44 17.5 86t53 83.5t67 71t81.5 70.5h-1091v47l164 59v1201l-523 -1307h-49l-555 1282v-1157l211 -78v-47h-477v47l162 72v1208l-162 59v48h447l464 -1061l424 1061h1047
v-383h-51l-156 282h-555v-547h397l86 197h52v-491h-52l-84 192h-399v-584h582l202 295h52l-58 -395q-90 -149 -90 -270z" />
    <glyph glyph-name="M_L.liga" unicode="ML" horiz-adv-x="2449" 
d="M2361 395h52l-58 -395h-1081v47l164 59v1201l-523 -1307h-49l-555 1282v-1157l211 -78v-47h-477v47l162 72v1208l-162 59v48h447l464 -1061l424 1061h447v-48l-162 -59v-1227h489z" />
    <glyph glyph-name="M_Lacute.liga" unicode="M&#x139;" horiz-adv-x="2449" 
d="M1950 1712l-576 -180l-41 47l375 328h4l238 -185v-10zM2361 395h52l-58 -395h-1081v47l164 59v1201l-523 -1307h-49l-555 1282v-1157l211 -78v-47h-477v47l162 72v1208l-162 59v48h447l464 -1061l424 1061h447v-48l-162 -59v-1227h489z" />
    <glyph glyph-name="M_Lcommaaccent.liga" unicode="M&#x13b;" horiz-adv-x="2449" 
d="M2361 395h52l-58 -395h-1081v47l164 59v1201l-523 -1307h-49l-555 1282v-1157l211 -78v-47h-477v47l162 72v1208l-162 59v48h447l464 -1061l424 1061h447v-48l-162 -59v-1227h489zM1876 -78q68 -66 78.5 -151t-44.5 -161.5t-165 -113.5l-41 33q50 52 44 152.5t-65 162.5
v2z" />
    <glyph glyph-name="M_Ldot.liga" unicode="M&#x13f;" horiz-adv-x="2449" 
d="M2361 395h52l-58 -395h-1081v47l164 59v1201l-523 -1307h-49l-555 1282v-1157l211 -78v-47h-477v47l162 72v1208l-162 59v48h447l464 -1061l424 1061h447v-48l-162 -59v-1227h489zM2163 588q-63 0 -108.5 44.5t-45.5 106.5q2 62 46.5 107t107.5 45t107 -45t44 -107
t-44 -106.5t-107 -44.5z" />
    <glyph glyph-name="M_Lslash.liga" unicode="M&#x141;" horiz-adv-x="2449" 
d="M2361 395h52l-58 -395h-1081v47l164 59v541l-174 -69l-37 92l211 86v551l-523 -1307h-49l-555 1282v-1157l211 -78v-47h-477v47l162 72v1208l-162 59v48h447l464 -1061l424 1061h447v-48l-162 -59v-479l311 127l37 -94l-348 -142v-639h489z" />
    <glyph glyph-name="M_R.liga" unicode="MR" horiz-adv-x="2598" 
d="M2443 102l146 -55v-47h-353l-446 668h-125v-562l162 -59v-47h-553v47l164 59v1201l-523 -1307h-49l-555 1282v-1157l211 -78v-47h-477v47l162 72v1208l-162 59v48h447l464 -1061l424 1061h516q239 8 378 -82.5t139 -259.5q0 -132 -98.5 -244.5t-270.5 -153.5zM1665 1333
v-565h100q206 6 304 89t98 204q0 106 -89 189t-233 83h-180z" />
    <glyph glyph-name="M_Racute.liga" unicode="M&#x154;" horiz-adv-x="2598" 
d="M2261 1712l-575 -180l-41 47l374 328h4l238 -185v-10zM2443 102l146 -55v-47h-353l-446 668h-125v-562l162 -59v-47h-553v47l164 59v1201l-523 -1307h-49l-555 1282v-1157l211 -78v-47h-477v47l162 72v1208l-162 59v48h447l464 -1061l424 1061h516q239 8 378 -82.5
t139 -259.5q0 -132 -98.5 -244.5t-270.5 -153.5zM1665 1333v-565h100q206 6 304 89t98 204q0 106 -89 189t-233 83h-180z" />
    <glyph glyph-name="M_Rcaron.liga" unicode="M&#x158;" horiz-adv-x="2598" 
d="M1735 1552l-238 316l47 39l324 -178l311 178l47 -37l-239 -318h-252zM2443 102l146 -55v-47h-353l-446 668h-125v-562l162 -59v-47h-553v47l164 59v1201l-523 -1307h-49l-555 1282v-1157l211 -78v-47h-477v47l162 72v1208l-162 59v48h447l464 -1061l424 1061h516
q239 8 378 -82.5t139 -259.5q0 -132 -98.5 -244.5t-270.5 -153.5zM1665 1333v-565h100q206 6 304 89t98 204q0 106 -89 189t-233 83h-180z" />
    <glyph glyph-name="M_Rcommaaccent.liga" unicode="M&#x156;" horiz-adv-x="2598" 
d="M2443 102l146 -55v-47h-353l-446 668h-125v-562l162 -59v-47h-553v47l164 59v1201l-523 -1307h-49l-555 1282v-1157l211 -78v-47h-477v47l162 72v1208l-162 59v48h447l464 -1061l424 1061h516q239 8 378 -82.5t139 -259.5q0 -132 -98.5 -244.5t-270.5 -153.5zM1665 1333
v-565h100q206 6 304 89t98 204q0 106 -89 189t-233 83h-180zM2001 -78q68 -66 78.5 -151t-44.5 -161.5t-165 -113.5l-41 33q50 52 44 152.5t-65 162.5v2z" />
    <glyph glyph-name="M_U.liga" unicode="MU" horiz-adv-x="2734" 
d="M2685 1434v-48l-139 -75v-840q0 -122 -44 -218.5t-120.5 -156t-174 -90.5t-208.5 -31q-84 0 -161 15.5t-151 52.5t-128.5 92.5t-87.5 143t-33 196.5v832l-523 -1307h-49l-555 1282v-1157l211 -78v-47h-477v47l162 72v1208l-162 59v48h447l464 -1061l424 1061h447v-48
l-162 -59v-811q0 -87 25.5 -156.5t66 -113.5t96 -73.5t112 -41.5t116.5 -12q71 0 135.5 25t115 71t80 118t29.5 161v813l-188 79v48h432z" />
    <glyph glyph-name="M_Uacute.liga" unicode="M&#xda;" horiz-adv-x="2734" 
d="M2441 1712l-575 -180l-41 47l375 328h4l237 -185v-10zM2685 1434v-48l-139 -75v-840q0 -122 -44 -218.5t-120.5 -156t-174 -90.5t-208.5 -31q-84 0 -161 15.5t-151 52.5t-128.5 92.5t-87.5 143t-33 196.5v832l-523 -1307h-49l-555 1282v-1157l211 -78v-47h-477v47l162 72
v1208l-162 59v48h447l464 -1061l424 1061h447v-48l-162 -59v-811q0 -87 25.5 -156.5t66 -113.5t96 -73.5t112 -41.5t116.5 -12q71 0 135.5 25t115 71t80 118t29.5 161v813l-188 79v48h432z" />
    <glyph glyph-name="M_Ubreve.liga" unicode="M&#x16c;" horiz-adv-x="2734" 
d="M2040 1542q-42 0 -82.5 10t-81.5 34t-71.5 61t-50 95.5t-19.5 131.5l69 2q25 -61 88 -104t148 -43q84 0 147 42.5t90 104.5l70 -2q0 -90 -29 -158t-76 -104t-98 -53t-104 -17zM2685 1434v-48l-139 -75v-840q0 -122 -44 -218.5t-120.5 -156t-174 -90.5t-208.5 -31
q-84 0 -161 15.5t-151 52.5t-128.5 92.5t-87.5 143t-33 196.5v832l-523 -1307h-49l-555 1282v-1157l211 -78v-47h-477v47l162 72v1208l-162 59v48h447l464 -1061l424 1061h447v-48l-162 -59v-811q0 -87 25.5 -156.5t66 -113.5t96 -73.5t112 -41.5t116.5 -12q71 0 135.5 25
t115 71t80 118t29.5 161v813l-188 79v48h432z" />
    <glyph glyph-name="M_Ucircumflex.liga" unicode="M&#xdb;" horiz-adv-x="2734" 
d="M2030 1710l-312 -178l-47 37l240 317h252l237 -315l-47 -39zM2685 1434v-48l-139 -75v-840q0 -122 -44 -218.5t-120.5 -156t-174 -90.5t-208.5 -31q-84 0 -161 15.5t-151 52.5t-128.5 92.5t-87.5 143t-33 196.5v832l-523 -1307h-49l-555 1282v-1157l211 -78v-47h-477v47
l162 72v1208l-162 59v48h447l464 -1061l424 1061h447v-48l-162 -59v-811q0 -87 25.5 -156.5t66 -113.5t96 -73.5t112 -41.5t116.5 -12q71 0 135.5 25t115 71t80 118t29.5 161v813l-188 79v48h432z" />
    <glyph glyph-name="M_Udieresis.liga" unicode="M&#xdc;" horiz-adv-x="2734" 
d="M1837 1597q-59 0 -100 41t-41 99q0 57 41 97t100 40q60 0 100.5 -40t40.5 -97q0 -59 -40.5 -99.5t-100.5 -40.5zM2243 1597q-60 0 -101 40.5t-41 99.5q0 57 41 97t101 40q59 0 100 -40t41 -97q0 -58 -41 -99t-100 -41zM2685 1434v-48l-139 -75v-840q0 -122 -44 -218.5
t-120.5 -156t-174 -90.5t-208.5 -31q-84 0 -161 15.5t-151 52.5t-128.5 92.5t-87.5 143t-33 196.5v832l-523 -1307h-49l-555 1282v-1157l211 -78v-47h-477v47l162 72v1208l-162 59v48h447l464 -1061l424 1061h447v-48l-162 -59v-811q0 -87 25.5 -156.5t66 -113.5t96 -73.5
t112 -41.5t116.5 -12q71 0 135.5 25t115 71t80 118t29.5 161v813l-188 79v48h432z" />
    <glyph glyph-name="M_Ugrave.liga" unicode="M&#xd9;" horiz-adv-x="2734" 
d="M2236 1585l-32 -53l-547 154v8l198 213h5zM2685 1434v-48l-139 -75v-840q0 -122 -44 -218.5t-120.5 -156t-174 -90.5t-208.5 -31q-84 0 -161 15.5t-151 52.5t-128.5 92.5t-87.5 143t-33 196.5v832l-523 -1307h-49l-555 1282v-1157l211 -78v-47h-477v47l162 72v1208
l-162 59v48h447l464 -1061l424 1061h447v-48l-162 -59v-811q0 -87 25.5 -156.5t66 -113.5t96 -73.5t112 -41.5t116.5 -12q71 0 135.5 25t115 71t80 118t29.5 161v813l-188 79v48h432z" />
    <glyph glyph-name="M_Uhungarumlaut.liga" unicode="M&#x170;" horiz-adv-x="2734" 
d="M2189 1821l-448 -289l-49 33l184 338h4l309 -70v-12zM2120 1534l-52 39l285 330h4l285 -103v-10zM2685 1434v-48l-139 -75v-840q0 -122 -44 -218.5t-120.5 -156t-174 -90.5t-208.5 -31q-84 0 -161 15.5t-151 52.5t-128.5 92.5t-87.5 143t-33 196.5v832l-523 -1307h-49
l-555 1282v-1157l211 -78v-47h-477v47l162 72v1208l-162 59v48h447l464 -1061l424 1061h447v-48l-162 -59v-811q0 -87 25.5 -156.5t66 -113.5t96 -73.5t112 -41.5t116.5 -12q71 0 135.5 25t115 71t80 118t29.5 161v813l-188 79v48h432z" />
    <glyph glyph-name="M_Umacron.liga" unicode="M&#x16a;" horiz-adv-x="2734" 
d="M2320 1784v-154h-559v154h559zM2685 1434v-48l-139 -75v-840q0 -122 -44 -218.5t-120.5 -156t-174 -90.5t-208.5 -31q-84 0 -161 15.5t-151 52.5t-128.5 92.5t-87.5 143t-33 196.5v832l-523 -1307h-49l-555 1282v-1157l211 -78v-47h-477v47l162 72v1208l-162 59v48h447
l464 -1061l424 1061h447v-48l-162 -59v-811q0 -87 25.5 -156.5t66 -113.5t96 -73.5t112 -41.5t116.5 -12q71 0 135.5 25t115 71t80 118t29.5 161v813l-188 79v48h432z" />
    <glyph glyph-name="M_Uogonek.liga" unicode="M&#x172;" horiz-adv-x="2734" 
d="M2685 1434v-48l-139 -75v-840q0 -109 -35.5 -197.5t-98 -148t-143 -95.5t-176.5 -48q-80 -140 -80 -252q0 -69 49 -102.5t113 -14.5v-57q-53 -32 -117.5 -40t-119.5 7.5t-92.5 59t-37.5 106.5q0 40 16 78.5t50 77t61.5 64t75.5 66.5h-12q-84 0 -161 15.5t-151 52.5
t-128.5 92.5t-87.5 143t-33 196.5v832l-523 -1307h-49l-555 1282v-1157l211 -78v-47h-477v47l162 72v1208l-162 59v48h447l464 -1061l424 1061h447v-48l-162 -59v-811q0 -87 25.5 -156.5t66 -113.5t96 -73.5t112 -41.5t116.5 -12q71 0 135.5 25t115 71t80 118t29.5 161v813
l-188 79v48h432z" />
    <glyph glyph-name="M_Uring.liga" unicode="M&#x16e;" horiz-adv-x="2734" 
d="M2040 1499q-104 0 -173 55t-69 148q0 91 62 159t178 68q105 0 174 -55t69 -148q0 -91 -62 -159t-179 -68zM1939 1788q-22 -26 -22 -66q0 -57 36.5 -86.5t98.5 -29.5q44 0 86 28q25 29 25 72q0 56 -36 85.5t-97 29.5q-52 0 -91 -33zM2685 1434v-48l-139 -75v-840
q0 -122 -44 -218.5t-120.5 -156t-174 -90.5t-208.5 -31q-84 0 -161 15.5t-151 52.5t-128.5 92.5t-87.5 143t-33 196.5v832l-523 -1307h-49l-555 1282v-1157l211 -78v-47h-477v47l162 72v1208l-162 59v48h447l464 -1061l424 1061h447v-48l-162 -59v-811q0 -87 25.5 -156.5
t66 -113.5t96 -73.5t112 -41.5t116.5 -12q71 0 135.5 25t115 71t80 118t29.5 161v813l-188 79v48h432z" />
    <glyph glyph-name="M_Utilde.liga" unicode="M&#x168;" horiz-adv-x="2734" 
d="M1872 1683q-11 0 -21.5 -2t-18.5 -4t-16.5 -8.5t-14 -9.5t-13.5 -13t-10.5 -13t-10.5 -16.5t-9.5 -15.5t-9.5 -17.5t-9 -16.5l-60 20q29 134 90 210.5t148 76.5q47 0 93 -20t75.5 -43.5t65 -43.5t63.5 -20q15 0 28 2.5t25.5 12t19 13.5t17.5 21t13.5 20t14.5 25t13 23
l59 -21q-28 -134 -89.5 -210.5t-147.5 -76.5q-47 0 -93 20t-76 43.5t-64.5 43.5t-61.5 20zM2685 1434v-48l-139 -75v-840q0 -122 -44 -218.5t-120.5 -156t-174 -90.5t-208.5 -31q-84 0 -161 15.5t-151 52.5t-128.5 92.5t-87.5 143t-33 196.5v832l-523 -1307h-49l-555 1282
v-1157l211 -78v-47h-477v47l162 72v1208l-162 59v48h447l464 -1061l424 1061h447v-48l-162 -59v-811q0 -87 25.5 -156.5t66 -113.5t96 -73.5t112 -41.5t116.5 -12q71 0 135.5 25t115 71t80 118t29.5 161v813l-188 79v48h432z" />
    <glyph glyph-name="N_N.liga" unicode="NN" horiz-adv-x="2529" 
d="M2494 1434v-48l-163 -73v-1313h-68l-940 1235v-1235h-70l-940 1235v-1110l211 -78v-47h-479v47l164 72v1208l-164 59v48h397l775 -1002v895l-162 59v48h397l774 -1004v881l-209 75v48h477z" />
    <glyph glyph-name="O_C.liga" unicode="OC" horiz-adv-x="2553" 
d="M2447 358l68 -43q-59 -154 -213 -247t-332 -93q-226 0 -383 90t-237 254q-93 -160 -244 -252t-338 -92q-100 0 -195.5 25t-184.5 79.5t-155.5 133t-106.5 194.5t-40 255q0 160 53.5 306t146.5 254t226.5 172t286.5 64q120 0 230.5 -35.5t208.5 -114.5t155 -194
q96 156 250.5 250t347.5 94q121 0 241.5 -45t196.5 -113v-378h-70q-60 188 -172.5 293.5t-263.5 105.5q-179 0 -326 -139q-118 -188 -118 -387q0 -180 76 -336t209.5 -249t291.5 -93q64 0 134.5 25t141.5 81.5t115 134.5zM1122 229q129 213 129 404q0 153 -41 282t-111 216
t-164.5 135.5t-201.5 48.5q-168 0 -289 -111q-129 -213 -129 -403q0 -153 41 -282.5t111.5 -216t165 -135t201.5 -48.5q168 0 288 110z" />
    <glyph glyph-name="O_C_A.liga" unicode="OCA" horiz-adv-x="3727" 
d="M3580 100l137 -53v-47h-569v47l186 53l-174 418h-549l-65 -162q-76 -190 -223 -285.5t-353 -95.5q-226 0 -383 90t-237 254q-93 -160 -244 -252t-338 -92q-100 0 -195.5 25t-184.5 79.5t-155.5 133t-106.5 194.5t-40 255q0 160 53.5 306t146.5 254t226.5 172t286.5 64
q120 0 230.5 -35.5t208.5 -114.5t155 -194q96 156 250.5 250t347.5 94q121 0 241.5 -45t196.5 -113v-378h-70q-60 188 -172.5 293.5t-263.5 105.5q-179 0 -326 -139q-118 -188 -118 -387q0 -180 76 -336t209.5 -249t291.5 -93q130 0 234.5 68t165.5 214l421 1035h152z
M1122 229q129 213 129 404q0 153 -41 282t-111 216t-164.5 135.5t-201.5 48.5q-168 0 -289 -111q-129 -213 -129 -403q0 -153 41 -282.5t111.5 -216t165 -135t201.5 -48.5q168 0 288 110zM2652 621h467l-235 569z" />
    <glyph glyph-name="O_Cacute.liga" unicode="O&#x106;" horiz-adv-x="2553" 
d="M2390 1712l-575 -180l-41 47l374 328h4l238 -185v-10zM2447 358l68 -43q-59 -154 -213 -247t-332 -93q-226 0 -383 90t-237 254q-93 -160 -244 -252t-338 -92q-100 0 -195.5 25t-184.5 79.5t-155.5 133t-106.5 194.5t-40 255q0 160 53.5 306t146.5 254t226.5 172
t286.5 64q120 0 230.5 -35.5t208.5 -114.5t155 -194q96 156 250.5 250t347.5 94q121 0 241.5 -45t196.5 -113v-378h-70q-60 188 -172.5 293.5t-263.5 105.5q-179 0 -326 -139q-118 -188 -118 -387q0 -180 76 -336t209.5 -249t291.5 -93q64 0 134.5 25t141.5 81.5t115 134.5z
M1122 229q129 213 129 404q0 153 -41 282t-111 216t-164.5 135.5t-201.5 48.5q-168 0 -289 -111q-129 -213 -129 -403q0 -153 41 -282.5t111.5 -216t165 -135t201.5 -48.5q168 0 288 110z" />
    <glyph glyph-name="O_Ccaron.liga" unicode="O&#x10c;" horiz-adv-x="2553" 
d="M1862 1552l-238 316l47 39l324 -178l311 178l47 -37l-239 -318h-252zM2447 358l68 -43q-59 -154 -213 -247t-332 -93q-226 0 -383 90t-237 254q-93 -160 -244 -252t-338 -92q-100 0 -195.5 25t-184.5 79.5t-155.5 133t-106.5 194.5t-40 255q0 160 53.5 306t146.5 254
t226.5 172t286.5 64q120 0 230.5 -35.5t208.5 -114.5t155 -194q96 156 250.5 250t347.5 94q121 0 241.5 -45t196.5 -113v-378h-70q-60 188 -172.5 293.5t-263.5 105.5q-179 0 -326 -139q-118 -188 -118 -387q0 -180 76 -336t209.5 -249t291.5 -93q64 0 134.5 25t141.5 81.5
t115 134.5zM1122 229q129 213 129 404q0 153 -41 282t-111 216t-164.5 135.5t-201.5 48.5q-168 0 -289 -111q-129 -213 -129 -403q0 -153 41 -282.5t111.5 -216t165 -135t201.5 -48.5q168 0 288 110z" />
    <glyph glyph-name="O_Ccedilla.liga" unicode="O&#xc7;" horiz-adv-x="2553" 
d="M1970 -25h-28l-48 -71q95 -23 147 -73.5t52 -119.5q0 -71 -57 -123.5t-142.5 -67.5t-185.5 5v59q89 -3 133.5 19t44.5 84q0 77 -80 92l-75 14l-2 4l118 187q-178 23 -303 109t-194 226q-93 -160 -244 -252t-338 -92q-100 0 -195.5 25t-184.5 79.5t-155.5 133
t-106.5 194.5t-40 255q0 160 53.5 306t146.5 254t226.5 172t286.5 64q120 0 230.5 -35.5t208.5 -114.5t155 -194q96 156 250.5 250t347.5 94q121 0 241.5 -45t196.5 -113v-378h-70q-60 188 -172.5 293.5t-263.5 105.5q-179 0 -326 -139q-118 -188 -118 -387q0 -180 76 -336
t209.5 -249t291.5 -93q64 0 134.5 25t141.5 81.5t115 134.5l68 -43q-59 -154 -213 -247t-332 -93zM1122 229q129 213 129 404q0 153 -41 282t-111 216t-164.5 135.5t-201.5 48.5q-168 0 -289 -111q-129 -213 -129 -403q0 -153 41 -282.5t111.5 -216t165 -135t201.5 -48.5
q168 0 288 110z" />
    <glyph glyph-name="O_Ccircumflex.liga" unicode="O&#x108;" horiz-adv-x="2553" 
d="M1976 1710l-311 -178l-47 37l240 317h251l238 -315l-47 -39zM2447 358l68 -43q-59 -154 -213 -247t-332 -93q-226 0 -383 90t-237 254q-93 -160 -244 -252t-338 -92q-100 0 -195.5 25t-184.5 79.5t-155.5 133t-106.5 194.5t-40 255q0 160 53.5 306t146.5 254t226.5 172
t286.5 64q120 0 230.5 -35.5t208.5 -114.5t155 -194q96 156 250.5 250t347.5 94q121 0 241.5 -45t196.5 -113v-378h-70q-60 188 -172.5 293.5t-263.5 105.5q-179 0 -326 -139q-118 -188 -118 -387q0 -180 76 -336t209.5 -249t291.5 -93q64 0 134.5 25t141.5 81.5t115 134.5z
M1122 229q129 213 129 404q0 153 -41 282t-111 216t-164.5 135.5t-201.5 48.5q-168 0 -289 -111q-129 -213 -129 -403q0 -153 41 -282.5t111.5 -216t165 -135t201.5 -48.5q168 0 288 110z" />
    <glyph glyph-name="O_Cdotaccent.liga" unicode="O&#x10a;" horiz-adv-x="2553" 
d="M1989 1591q-63 0 -105.5 42.5t-42.5 103.5q0 59 43 101t105 42t104.5 -42t42.5 -101q0 -61 -42.5 -103.5t-104.5 -42.5zM2447 358l68 -43q-59 -154 -213 -247t-332 -93q-226 0 -383 90t-237 254q-93 -160 -244 -252t-338 -92q-100 0 -195.5 25t-184.5 79.5t-155.5 133
t-106.5 194.5t-40 255q0 160 53.5 306t146.5 254t226.5 172t286.5 64q120 0 230.5 -35.5t208.5 -114.5t155 -194q96 156 250.5 250t347.5 94q121 0 241.5 -45t196.5 -113v-378h-70q-60 188 -172.5 293.5t-263.5 105.5q-179 0 -326 -139q-118 -188 -118 -387q0 -180 76 -336
t209.5 -249t291.5 -93q64 0 134.5 25t141.5 81.5t115 134.5zM1122 229q129 213 129 404q0 153 -41 282t-111 216t-164.5 135.5t-201.5 48.5q-168 0 -289 -111q-129 -213 -129 -403q0 -153 41 -282.5t111.5 -216t165 -135t201.5 -48.5q168 0 288 110z" />
    <glyph glyph-name="O_G.liga" unicode="OG" horiz-adv-x="2689" 
d="M2669 739v-47l-140 -69v-623h-53l-111 166q-80 -90 -188.5 -140.5t-230.5 -50.5q-221 0 -371.5 90.5t-226.5 251.5q-93 -158 -243.5 -250t-336.5 -92q-100 0 -195.5 25t-184.5 79.5t-155.5 133t-106.5 194.5t-40 255q0 160 53.5 306t146.5 254t226.5 172t286.5 64
q120 0 230.5 -35.5t208.5 -114.5t155 -194q98 157 254.5 250.5t357.5 93.5q139 0 273.5 -40.5t207.5 -106.5v-359h-69q-63 181 -190 275t-292 94q-188 0 -333 -137q-121 -168 -121 -400q0 -131 42.5 -253t115 -213.5t176 -147t219.5 -55.5q158 0 278 108v387l-264 82v47h621
zM1122 229q129 213 129 404q0 153 -41 282t-111 216t-164.5 135.5t-201.5 48.5q-168 0 -289 -111q-129 -213 -129 -403q0 -153 41 -282.5t111.5 -216t165 -135t201.5 -48.5q168 0 288 110z" />
    <glyph glyph-name="O_Gbreve.liga" unicode="O&#x11e;" horiz-adv-x="2689" 
d="M1987 1542q-42 0 -82.5 10t-81.5 34t-72 61t-50.5 95.5t-19.5 131.5l70 2q25 -61 88 -104t148 -43q84 0 147 42.5t90 104.5l70 -2q0 -90 -29 -158t-76 -104t-98 -53t-104 -17zM2669 739v-47l-140 -69v-623h-53l-111 166q-80 -90 -188.5 -140.5t-230.5 -50.5
q-221 0 -371.5 90.5t-226.5 251.5q-93 -158 -243.5 -250t-336.5 -92q-100 0 -195.5 25t-184.5 79.5t-155.5 133t-106.5 194.5t-40 255q0 160 53.5 306t146.5 254t226.5 172t286.5 64q120 0 230.5 -35.5t208.5 -114.5t155 -194q98 157 254.5 250.5t357.5 93.5
q139 0 273.5 -40.5t207.5 -106.5v-359h-69q-63 181 -190 275t-292 94q-188 0 -333 -137q-121 -168 -121 -400q0 -131 42.5 -253t115 -213.5t176 -147t219.5 -55.5q158 0 278 108v387l-264 82v47h621zM1122 229q129 213 129 404q0 153 -41 282t-111 216t-164.5 135.5
t-201.5 48.5q-168 0 -289 -111q-129 -213 -129 -403q0 -153 41 -282.5t111.5 -216t165 -135t201.5 -48.5q168 0 288 110z" />
    <glyph glyph-name="O_Gcircumflex.liga" unicode="O&#x11c;" horiz-adv-x="2689" 
d="M1976 1710l-311 -178l-47 37l240 317h251l238 -315l-47 -39zM2669 739v-47l-140 -69v-623h-53l-111 166q-80 -90 -188.5 -140.5t-230.5 -50.5q-221 0 -371.5 90.5t-226.5 251.5q-93 -158 -243.5 -250t-336.5 -92q-100 0 -195.5 25t-184.5 79.5t-155.5 133t-106.5 194.5
t-40 255q0 160 53.5 306t146.5 254t226.5 172t286.5 64q120 0 230.5 -35.5t208.5 -114.5t155 -194q98 157 254.5 250.5t357.5 93.5q139 0 273.5 -40.5t207.5 -106.5v-359h-69q-63 181 -190 275t-292 94q-188 0 -333 -137q-121 -168 -121 -400q0 -131 42.5 -253t115 -213.5
t176 -147t219.5 -55.5q158 0 278 108v387l-264 82v47h621zM1122 229q129 213 129 404q0 153 -41 282t-111 216t-164.5 135.5t-201.5 48.5q-168 0 -289 -111q-129 -213 -129 -403q0 -153 41 -282.5t111.5 -216t165 -135t201.5 -48.5q168 0 288 110z" />
    <glyph glyph-name="O_Gcommaaccent.liga" unicode="O&#x122;" horiz-adv-x="2689" 
d="M2669 739v-47l-140 -69v-623h-53l-111 166q-80 -90 -188.5 -140.5t-230.5 -50.5q-221 0 -371.5 90.5t-226.5 251.5q-93 -158 -243.5 -250t-336.5 -92q-100 0 -195.5 25t-184.5 79.5t-155.5 133t-106.5 194.5t-40 255q0 160 53.5 306t146.5 254t226.5 172t286.5 64
q120 0 230.5 -35.5t208.5 -114.5t155 -194q98 157 254.5 250.5t357.5 93.5q139 0 273.5 -40.5t207.5 -106.5v-359h-69q-63 181 -190 275t-292 94q-188 0 -333 -137q-121 -168 -121 -400q0 -131 42.5 -253t115 -213.5t176 -147t219.5 -55.5q158 0 278 108v387l-264 82v47h621
zM1122 229q129 213 129 404q0 153 -41 282t-111 216t-164.5 135.5t-201.5 48.5q-168 0 -289 -111q-129 -213 -129 -403q0 -153 41 -282.5t111.5 -216t165 -135t201.5 -48.5q168 0 288 110zM2028 -78q68 -66 78.5 -151t-45 -161.5t-165.5 -113.5l-41 33q50 52 44.5 152.5
t-64.5 162.5v2z" />
    <glyph glyph-name="O_Gdotaccent.liga" unicode="O&#x120;" horiz-adv-x="2689" 
d="M1989 1591q-63 0 -105.5 42.5t-42.5 103.5q0 59 43 101t105 42t104.5 -42t42.5 -101q0 -61 -42.5 -103.5t-104.5 -42.5zM2669 739v-47l-140 -69v-623h-53l-111 166q-80 -90 -188.5 -140.5t-230.5 -50.5q-221 0 -371.5 90.5t-226.5 251.5q-93 -158 -243.5 -250t-336.5 -92
q-100 0 -195.5 25t-184.5 79.5t-155.5 133t-106.5 194.5t-40 255q0 160 53.5 306t146.5 254t226.5 172t286.5 64q120 0 230.5 -35.5t208.5 -114.5t155 -194q98 157 254.5 250.5t357.5 93.5q139 0 273.5 -40.5t207.5 -106.5v-359h-69q-63 181 -190 275t-292 94
q-188 0 -333 -137q-121 -168 -121 -400q0 -131 42.5 -253t115 -213.5t176 -147t219.5 -55.5q158 0 278 108v387l-264 82v47h621zM1122 229q129 213 129 404q0 153 -41 282t-111 216t-164.5 135.5t-201.5 48.5q-168 0 -289 -111q-129 -213 -129 -403q0 -153 41 -282.5
t111.5 -216t165 -135t201.5 -48.5q168 0 288 110z" />
    <glyph glyph-name="O_O.liga" unicode="OO" horiz-adv-x="2729" 
d="M1962 1458q100 0 195.5 -25t184.5 -79.5t155.5 -132.5t106.5 -194t40 -255q0 -215 -90.5 -397t-255 -291t-367.5 -109q-181 0 -341 85.5t-247 250.5q-93 -157 -242 -246.5t-333 -89.5q-100 0 -195.5 25t-184.5 79.5t-155.5 133t-106.5 194.5t-40 255q0 160 53.5 306
t146.5 254t226.5 172t286.5 64q182 0 342.5 -85.5t247.5 -250.5q93 156 241.5 246t331.5 90zM1122 229q129 213 129 404q0 153 -41 282t-111 216t-164.5 135.5t-201.5 48.5q-168 0 -289 -111q-129 -213 -129 -403q0 -153 41 -282.5t111.5 -216t165 -135t201.5 -48.5
q168 0 288 110zM2286 229q129 207 129 404q0 153 -41 282t-111 216t-165 135.5t-202 48.5q-167 0 -288 -111q-127 -210 -127 -403q0 -306 148.5 -494t367.5 -188q169 0 289 110z" />
    <glyph glyph-name="O_Q.liga" unicode="OQ" horiz-adv-x="2729" 
d="M2097 -4q101 -134 235 -193.5t294 -17.5l18 -51q-159 -75 -308 -69.5t-276.5 77.5t-220.5 201l-31 43q-148 25 -271.5 107t-193.5 218q-93 -157 -242 -246.5t-333 -89.5q-100 0 -195.5 25t-184.5 79.5t-155.5 133t-106.5 194.5t-40 255q0 160 53.5 306t146.5 254
t226.5 172t286.5 64q182 0 342.5 -85.5t247.5 -250.5q93 156 241.5 246t331.5 90q100 0 195.5 -25t184.5 -79.5t155.5 -132.5t106.5 -194t40 -255q0 -282 -151.5 -498.5t-395.5 -277.5zM1122 229q129 213 129 404q0 153 -41 282t-111 216t-164.5 135.5t-201.5 48.5
q-168 0 -289 -111q-129 -213 -129 -403q0 -153 41 -282.5t111.5 -216t165 -135t201.5 -48.5q168 0 288 110zM1481 801q0 -306 148.5 -494t367.5 -188q169 0 289 110q129 207 129 404q0 153 -41 282t-111 216t-165 135.5t-202 48.5q-167 0 -288 -111q-127 -210 -127 -403z
" />
    <glyph glyph-name="Oacute_C.liga" unicode="&#xd3;C" horiz-adv-x="2553" 
d="M1202 1712l-575 -180l-41 47l375 328h4l237 -185v-10zM2447 358l68 -43q-59 -154 -213 -247t-332 -93q-226 0 -383 90t-237 254q-93 -160 -244 -252t-338 -92q-100 0 -195.5 25t-184.5 79.5t-155.5 133t-106.5 194.5t-40 255q0 160 53.5 306t146.5 254t226.5 172
t286.5 64q120 0 230.5 -35.5t208.5 -114.5t155 -194q96 156 250.5 250t347.5 94q121 0 241.5 -45t196.5 -113v-378h-70q-60 188 -172.5 293.5t-263.5 105.5q-179 0 -326 -139q-118 -188 -118 -387q0 -180 76 -336t209.5 -249t291.5 -93q64 0 134.5 25t141.5 81.5t115 134.5z
M1122 229q129 213 129 404q0 153 -41 282t-111 216t-164.5 135.5t-201.5 48.5q-168 0 -289 -111q-129 -213 -129 -403q0 -153 41 -282.5t111.5 -216t165 -135t201.5 -48.5q168 0 288 110z" />
    <glyph glyph-name="Oacute_G.liga" unicode="&#xd3;G" horiz-adv-x="2689" 
d="M1202 1712l-575 -180l-41 47l375 328h4l237 -185v-10zM2669 739v-47l-140 -69v-623h-53l-111 166q-80 -90 -188.5 -140.5t-230.5 -50.5q-221 0 -371.5 90.5t-226.5 251.5q-93 -158 -243.5 -250t-336.5 -92q-100 0 -195.5 25t-184.5 79.5t-155.5 133t-106.5 194.5t-40 255
q0 160 53.5 306t146.5 254t226.5 172t286.5 64q120 0 230.5 -35.5t208.5 -114.5t155 -194q98 157 254.5 250.5t357.5 93.5q139 0 273.5 -40.5t207.5 -106.5v-359h-69q-63 181 -190 275t-292 94q-188 0 -333 -137q-121 -168 -121 -400q0 -131 42.5 -253t115 -213.5t176 -147
t219.5 -55.5q158 0 278 108v387l-264 82v47h621zM1122 229q129 213 129 404q0 153 -41 282t-111 216t-164.5 135.5t-201.5 48.5q-168 0 -289 -111q-129 -213 -129 -403q0 -153 41 -282.5t111.5 -216t165 -135t201.5 -48.5q168 0 288 110z" />
    <glyph glyph-name="Obreve_C.liga" unicode="&#x14e;C" horiz-adv-x="2553" 
d="M801 1542q-42 0 -82.5 10t-81.5 34t-71.5 61t-50 95.5t-19.5 131.5l69 2q25 -61 88 -104t148 -43q84 0 147 42.5t90 104.5l70 -2q0 -90 -29 -158t-76 -104t-98 -53t-104 -17zM2447 358l68 -43q-59 -154 -213 -247t-332 -93q-226 0 -383 90t-237 254q-93 -160 -244 -252
t-338 -92q-100 0 -195.5 25t-184.5 79.5t-155.5 133t-106.5 194.5t-40 255q0 160 53.5 306t146.5 254t226.5 172t286.5 64q120 0 230.5 -35.5t208.5 -114.5t155 -194q96 156 250.5 250t347.5 94q121 0 241.5 -45t196.5 -113v-378h-70q-60 188 -172.5 293.5t-263.5 105.5
q-179 0 -326 -139q-118 -188 -118 -387q0 -180 76 -336t209.5 -249t291.5 -93q64 0 134.5 25t141.5 81.5t115 134.5zM1122 229q129 213 129 404q0 153 -41 282t-111 216t-164.5 135.5t-201.5 48.5q-168 0 -289 -111q-129 -213 -129 -403q0 -153 41 -282.5t111.5 -216
t165 -135t201.5 -48.5q168 0 288 110z" />
    <glyph glyph-name="Obreve_G.liga" unicode="&#x14e;G" horiz-adv-x="2689" 
d="M801 1542q-42 0 -82.5 10t-81.5 34t-71.5 61t-50 95.5t-19.5 131.5l69 2q25 -61 88 -104t148 -43q84 0 147 42.5t90 104.5l70 -2q0 -90 -29 -158t-76 -104t-98 -53t-104 -17zM2669 739v-47l-140 -69v-623h-53l-111 166q-80 -90 -188.5 -140.5t-230.5 -50.5
q-221 0 -371.5 90.5t-226.5 251.5q-93 -158 -243.5 -250t-336.5 -92q-100 0 -195.5 25t-184.5 79.5t-155.5 133t-106.5 194.5t-40 255q0 160 53.5 306t146.5 254t226.5 172t286.5 64q120 0 230.5 -35.5t208.5 -114.5t155 -194q98 157 254.5 250.5t357.5 93.5
q139 0 273.5 -40.5t207.5 -106.5v-359h-69q-63 181 -190 275t-292 94q-188 0 -333 -137q-121 -168 -121 -400q0 -131 42.5 -253t115 -213.5t176 -147t219.5 -55.5q158 0 278 108v387l-264 82v47h621zM1122 229q129 213 129 404q0 153 -41 282t-111 216t-164.5 135.5
t-201.5 48.5q-168 0 -289 -111q-129 -213 -129 -403q0 -153 41 -282.5t111.5 -216t165 -135t201.5 -48.5q168 0 288 110z" />
    <glyph glyph-name="Ocircumflex_C.liga" unicode="&#xd4;C" horiz-adv-x="2553" 
d="M791 1710l-312 -178l-47 37l240 317h252l237 -315l-47 -39zM2447 358l68 -43q-59 -154 -213 -247t-332 -93q-226 0 -383 90t-237 254q-93 -160 -244 -252t-338 -92q-100 0 -195.5 25t-184.5 79.5t-155.5 133t-106.5 194.5t-40 255q0 160 53.5 306t146.5 254t226.5 172
t286.5 64q120 0 230.5 -35.5t208.5 -114.5t155 -194q96 156 250.5 250t347.5 94q121 0 241.5 -45t196.5 -113v-378h-70q-60 188 -172.5 293.5t-263.5 105.5q-179 0 -326 -139q-118 -188 -118 -387q0 -180 76 -336t209.5 -249t291.5 -93q64 0 134.5 25t141.5 81.5t115 134.5z
M1122 229q129 213 129 404q0 153 -41 282t-111 216t-164.5 135.5t-201.5 48.5q-168 0 -289 -111q-129 -213 -129 -403q0 -153 41 -282.5t111.5 -216t165 -135t201.5 -48.5q168 0 288 110z" />
    <glyph glyph-name="Ocircumflex_G.liga" unicode="&#xd4;G" horiz-adv-x="2689" 
d="M791 1710l-312 -178l-47 37l240 317h252l237 -315l-47 -39zM2669 739v-47l-140 -69v-623h-53l-111 166q-80 -90 -188.5 -140.5t-230.5 -50.5q-221 0 -371.5 90.5t-226.5 251.5q-93 -158 -243.5 -250t-336.5 -92q-100 0 -195.5 25t-184.5 79.5t-155.5 133t-106.5 194.5
t-40 255q0 160 53.5 306t146.5 254t226.5 172t286.5 64q120 0 230.5 -35.5t208.5 -114.5t155 -194q98 157 254.5 250.5t357.5 93.5q139 0 273.5 -40.5t207.5 -106.5v-359h-69q-63 181 -190 275t-292 94q-188 0 -333 -137q-121 -168 -121 -400q0 -131 42.5 -253t115 -213.5
t176 -147t219.5 -55.5q158 0 278 108v387l-264 82v47h621zM1122 229q129 213 129 404q0 153 -41 282t-111 216t-164.5 135.5t-201.5 48.5q-168 0 -289 -111q-129 -213 -129 -403q0 -153 41 -282.5t111.5 -216t165 -135t201.5 -48.5q168 0 288 110z" />
    <glyph glyph-name="Odieresis_C.liga" unicode="&#xd6;C" horiz-adv-x="2553" 
d="M600 1597q-59 0 -100 41t-41 99q0 57 41 97t100 40q60 0 100.5 -40t40.5 -97q0 -59 -40.5 -99.5t-100.5 -40.5zM1006 1597q-60 0 -101 40.5t-41 99.5q0 57 41 97t101 40q59 0 100 -40t41 -97q0 -58 -41 -99t-100 -41zM2447 358l68 -43q-59 -154 -213 -247t-332 -93
q-226 0 -383 90t-237 254q-93 -160 -244 -252t-338 -92q-100 0 -195.5 25t-184.5 79.5t-155.5 133t-106.5 194.5t-40 255q0 160 53.5 306t146.5 254t226.5 172t286.5 64q120 0 230.5 -35.5t208.5 -114.5t155 -194q96 156 250.5 250t347.5 94q121 0 241.5 -45t196.5 -113
v-378h-70q-60 188 -172.5 293.5t-263.5 105.5q-179 0 -326 -139q-118 -188 -118 -387q0 -180 76 -336t209.5 -249t291.5 -93q64 0 134.5 25t141.5 81.5t115 134.5zM1122 229q129 213 129 404q0 153 -41 282t-111 216t-164.5 135.5t-201.5 48.5q-168 0 -289 -111
q-129 -213 -129 -403q0 -153 41 -282.5t111.5 -216t165 -135t201.5 -48.5q168 0 288 110z" />
    <glyph glyph-name="Odieresis_G.liga" unicode="&#xd6;G" horiz-adv-x="2689" 
d="M600 1597q-59 0 -100 41t-41 99q0 57 41 97t100 40q60 0 100.5 -40t40.5 -97q0 -59 -40.5 -99.5t-100.5 -40.5zM1006 1597q-60 0 -101 40.5t-41 99.5q0 57 41 97t101 40q59 0 100 -40t41 -97q0 -58 -41 -99t-100 -41zM2669 739v-47l-140 -69v-623h-53l-111 166
q-80 -90 -188.5 -140.5t-230.5 -50.5q-221 0 -371.5 90.5t-226.5 251.5q-93 -158 -243.5 -250t-336.5 -92q-100 0 -195.5 25t-184.5 79.5t-155.5 133t-106.5 194.5t-40 255q0 160 53.5 306t146.5 254t226.5 172t286.5 64q120 0 230.5 -35.5t208.5 -114.5t155 -194
q98 157 254.5 250.5t357.5 93.5q139 0 273.5 -40.5t207.5 -106.5v-359h-69q-63 181 -190 275t-292 94q-188 0 -333 -137q-121 -168 -121 -400q0 -131 42.5 -253t115 -213.5t176 -147t219.5 -55.5q158 0 278 108v387l-264 82v47h621zM1122 229q129 213 129 404q0 153 -41 282
t-111 216t-164.5 135.5t-201.5 48.5q-168 0 -289 -111q-129 -213 -129 -403q0 -153 41 -282.5t111.5 -216t165 -135t201.5 -48.5q168 0 288 110z" />
    <glyph glyph-name="Ograve_C.liga" unicode="&#xd2;C" horiz-adv-x="2553" 
d="M997 1585l-32 -53l-547 154v8l198 213h5zM2447 358l68 -43q-59 -154 -213 -247t-332 -93q-226 0 -383 90t-237 254q-93 -160 -244 -252t-338 -92q-100 0 -195.5 25t-184.5 79.5t-155.5 133t-106.5 194.5t-40 255q0 160 53.5 306t146.5 254t226.5 172t286.5 64
q120 0 230.5 -35.5t208.5 -114.5t155 -194q96 156 250.5 250t347.5 94q121 0 241.5 -45t196.5 -113v-378h-70q-60 188 -172.5 293.5t-263.5 105.5q-179 0 -326 -139q-118 -188 -118 -387q0 -180 76 -336t209.5 -249t291.5 -93q64 0 134.5 25t141.5 81.5t115 134.5zM1122 229
q129 213 129 404q0 153 -41 282t-111 216t-164.5 135.5t-201.5 48.5q-168 0 -289 -111q-129 -213 -129 -403q0 -153 41 -282.5t111.5 -216t165 -135t201.5 -48.5q168 0 288 110z" />
    <glyph glyph-name="Ograve_G.liga" unicode="&#xd2;G" horiz-adv-x="2689" 
d="M997 1585l-32 -53l-547 154v8l198 213h5zM2669 739v-47l-140 -69v-623h-53l-111 166q-80 -90 -188.5 -140.5t-230.5 -50.5q-221 0 -371.5 90.5t-226.5 251.5q-93 -158 -243.5 -250t-336.5 -92q-100 0 -195.5 25t-184.5 79.5t-155.5 133t-106.5 194.5t-40 255
q0 160 53.5 306t146.5 254t226.5 172t286.5 64q120 0 230.5 -35.5t208.5 -114.5t155 -194q98 157 254.5 250.5t357.5 93.5q139 0 273.5 -40.5t207.5 -106.5v-359h-69q-63 181 -190 275t-292 94q-188 0 -333 -137q-121 -168 -121 -400q0 -131 42.5 -253t115 -213.5t176 -147
t219.5 -55.5q158 0 278 108v387l-264 82v47h621zM1122 229q129 213 129 404q0 153 -41 282t-111 216t-164.5 135.5t-201.5 48.5q-168 0 -289 -111q-129 -213 -129 -403q0 -153 41 -282.5t111.5 -216t165 -135t201.5 -48.5q168 0 288 110z" />
    <glyph glyph-name="Ohungarumlaut_C.liga" unicode="&#x150;C" horiz-adv-x="2553" 
d="M950 1821l-448 -289l-49 33l184 338h4l309 -70v-12zM881 1534l-52 39l285 330h4l285 -103v-10zM2447 358l68 -43q-59 -154 -213 -247t-332 -93q-226 0 -383 90t-237 254q-93 -160 -244 -252t-338 -92q-100 0 -195.5 25t-184.5 79.5t-155.5 133t-106.5 194.5t-40 255
q0 160 53.5 306t146.5 254t226.5 172t286.5 64q120 0 230.5 -35.5t208.5 -114.5t155 -194q96 156 250.5 250t347.5 94q121 0 241.5 -45t196.5 -113v-378h-70q-60 188 -172.5 293.5t-263.5 105.5q-179 0 -326 -139q-118 -188 -118 -387q0 -180 76 -336t209.5 -249t291.5 -93
q64 0 134.5 25t141.5 81.5t115 134.5zM1122 229q129 213 129 404q0 153 -41 282t-111 216t-164.5 135.5t-201.5 48.5q-168 0 -289 -111q-129 -213 -129 -403q0 -153 41 -282.5t111.5 -216t165 -135t201.5 -48.5q168 0 288 110z" />
    <glyph glyph-name="Ohungarumlaut_G.liga" unicode="&#x150;G" horiz-adv-x="2689" 
d="M950 1821l-448 -289l-49 33l184 338h4l309 -70v-12zM881 1534l-52 39l285 330h4l285 -103v-10zM2669 739v-47l-140 -69v-623h-53l-111 166q-80 -90 -188.5 -140.5t-230.5 -50.5q-221 0 -371.5 90.5t-226.5 251.5q-93 -158 -243.5 -250t-336.5 -92q-100 0 -195.5 25
t-184.5 79.5t-155.5 133t-106.5 194.5t-40 255q0 160 53.5 306t146.5 254t226.5 172t286.5 64q120 0 230.5 -35.5t208.5 -114.5t155 -194q98 157 254.5 250.5t357.5 93.5q139 0 273.5 -40.5t207.5 -106.5v-359h-69q-63 181 -190 275t-292 94q-188 0 -333 -137
q-121 -168 -121 -400q0 -131 42.5 -253t115 -213.5t176 -147t219.5 -55.5q158 0 278 108v387l-264 82v47h621zM1122 229q129 213 129 404q0 153 -41 282t-111 216t-164.5 135.5t-201.5 48.5q-168 0 -289 -111q-129 -213 -129 -403q0 -153 41 -282.5t111.5 -216t165 -135
t201.5 -48.5q168 0 288 110z" />
    <glyph glyph-name="Omacron_C.liga" unicode="&#x14c;C" horiz-adv-x="2553" 
d="M1081 1784v-154h-559v154h559zM2447 358l68 -43q-59 -154 -213 -247t-332 -93q-226 0 -383 90t-237 254q-93 -160 -244 -252t-338 -92q-100 0 -195.5 25t-184.5 79.5t-155.5 133t-106.5 194.5t-40 255q0 160 53.5 306t146.5 254t226.5 172t286.5 64q120 0 230.5 -35.5
t208.5 -114.5t155 -194q96 156 250.5 250t347.5 94q121 0 241.5 -45t196.5 -113v-378h-70q-60 188 -172.5 293.5t-263.5 105.5q-179 0 -326 -139q-118 -188 -118 -387q0 -180 76 -336t209.5 -249t291.5 -93q64 0 134.5 25t141.5 81.5t115 134.5zM1122 229q129 213 129 404
q0 153 -41 282t-111 216t-164.5 135.5t-201.5 48.5q-168 0 -289 -111q-129 -213 -129 -403q0 -153 41 -282.5t111.5 -216t165 -135t201.5 -48.5q168 0 288 110z" />
    <glyph glyph-name="Omacron_G.liga" unicode="&#x14c;G" horiz-adv-x="2689" 
d="M1081 1784v-154h-559v154h559zM2669 739v-47l-140 -69v-623h-53l-111 166q-80 -90 -188.5 -140.5t-230.5 -50.5q-221 0 -371.5 90.5t-226.5 251.5q-93 -158 -243.5 -250t-336.5 -92q-100 0 -195.5 25t-184.5 79.5t-155.5 133t-106.5 194.5t-40 255q0 160 53.5 306
t146.5 254t226.5 172t286.5 64q120 0 230.5 -35.5t208.5 -114.5t155 -194q98 157 254.5 250.5t357.5 93.5q139 0 273.5 -40.5t207.5 -106.5v-359h-69q-63 181 -190 275t-292 94q-188 0 -333 -137q-121 -168 -121 -400q0 -131 42.5 -253t115 -213.5t176 -147t219.5 -55.5
q158 0 278 108v387l-264 82v47h621zM1122 229q129 213 129 404q0 153 -41 282t-111 216t-164.5 135.5t-201.5 48.5q-168 0 -289 -111q-129 -213 -129 -403q0 -153 41 -282.5t111.5 -216t165 -135t201.5 -48.5q168 0 288 110z" />
    <glyph glyph-name="Oslash_C.liga" unicode="&#xd8;C" horiz-adv-x="2553" 
d="M2447 358l68 -43q-59 -154 -213 -247t-332 -93q-226 0 -383 90t-237 254q-93 -160 -244 -252t-338 -92q-222 0 -397 115l-146 -190l-84 59l148 195q-203 186 -203 508q0 160 53.5 306t146.5 254t226.5 172t286.5 64q224 0 395 -117l143 191l84 -59l-147 -195
q70 -70 119 -164q96 156 250.5 250t347.5 94q121 0 241.5 -45t196.5 -113v-378h-70q-60 188 -172.5 293.5t-263.5 105.5q-179 0 -326 -139q-118 -188 -118 -387q0 -180 76 -336t209.5 -249t291.5 -93q64 0 134.5 25t141.5 81.5t115 134.5zM315 801q0 -269 121 -455l627 825
q-141 144 -330 144q-168 0 -289 -111q-129 -213 -129 -403zM1122 229q129 213 129 404q0 273 -123 457l-626 -826q139 -145 332 -145q168 0 288 110z" />
    <glyph glyph-name="Oslash_G.liga" unicode="&#xd8;G" horiz-adv-x="2689" 
d="M2669 739v-47l-140 -69v-623h-53l-111 166q-80 -90 -188.5 -140.5t-230.5 -50.5q-221 0 -371.5 90.5t-226.5 251.5q-93 -158 -243.5 -250t-336.5 -92q-222 0 -397 115l-146 -190l-84 59l148 195q-203 186 -203 508q0 160 53.5 306t146.5 254t226.5 172t286.5 64
q224 0 395 -117l143 191l84 -59l-147 -195q75 -75 119 -164q98 157 254.5 250.5t357.5 93.5q139 0 273.5 -40.5t207.5 -106.5v-359h-69q-63 181 -190 275t-292 94q-188 0 -333 -137q-121 -168 -121 -400q0 -131 42.5 -253t115 -213.5t176 -147t219.5 -55.5q158 0 278 108
v387l-264 82v47h621zM315 801q0 -269 121 -455l627 825q-141 144 -330 144q-168 0 -289 -111q-129 -213 -129 -403zM1122 229q129 213 129 404q0 273 -123 457l-626 -826q139 -145 332 -145q168 0 288 110z" />
    <glyph glyph-name="Otilde_C.liga" unicode="&#xd5;C" horiz-adv-x="2553" 
d="M633 1683q-11 0 -21.5 -2t-18.5 -4t-16.5 -8.5t-14 -9.5t-13.5 -13t-10.5 -13t-10.5 -16.5t-9.5 -15.5t-9.5 -17.5t-9 -16.5l-60 20q29 134 90 210.5t148 76.5q47 0 93 -20t75.5 -43.5t65 -43.5t63.5 -20q15 0 28 2.5t25.5 12t19 13.5t17.5 21t13.5 20t14.5 25t13 23
l59 -21q-28 -134 -89.5 -210.5t-147.5 -76.5q-47 0 -93 20t-76 43.5t-64.5 43.5t-61.5 20zM2447 358l68 -43q-59 -154 -213 -247t-332 -93q-226 0 -383 90t-237 254q-93 -160 -244 -252t-338 -92q-100 0 -195.5 25t-184.5 79.5t-155.5 133t-106.5 194.5t-40 255
q0 160 53.5 306t146.5 254t226.5 172t286.5 64q120 0 230.5 -35.5t208.5 -114.5t155 -194q96 156 250.5 250t347.5 94q121 0 241.5 -45t196.5 -113v-378h-70q-60 188 -172.5 293.5t-263.5 105.5q-179 0 -326 -139q-118 -188 -118 -387q0 -180 76 -336t209.5 -249t291.5 -93
q64 0 134.5 25t141.5 81.5t115 134.5zM1122 229q129 213 129 404q0 153 -41 282t-111 216t-164.5 135.5t-201.5 48.5q-168 0 -289 -111q-129 -213 -129 -403q0 -153 41 -282.5t111.5 -216t165 -135t201.5 -48.5q168 0 288 110z" />
    <glyph glyph-name="Otilde_G.liga" unicode="&#xd5;G" horiz-adv-x="2689" 
d="M633 1683q-11 0 -21.5 -2t-18.5 -4t-16.5 -8.5t-14 -9.5t-13.5 -13t-10.5 -13t-10.5 -16.5t-9.5 -15.5t-9.5 -17.5t-9 -16.5l-60 20q29 134 90 210.5t148 76.5q47 0 93 -20t75.5 -43.5t65 -43.5t63.5 -20q15 0 28 2.5t25.5 12t19 13.5t17.5 21t13.5 20t14.5 25t13 23
l59 -21q-28 -134 -89.5 -210.5t-147.5 -76.5q-47 0 -93 20t-76 43.5t-64.5 43.5t-61.5 20zM2669 739v-47l-140 -69v-623h-53l-111 166q-80 -90 -188.5 -140.5t-230.5 -50.5q-221 0 -371.5 90.5t-226.5 251.5q-93 -158 -243.5 -250t-336.5 -92q-100 0 -195.5 25t-184.5 79.5
t-155.5 133t-106.5 194.5t-40 255q0 160 53.5 306t146.5 254t226.5 172t286.5 64q120 0 230.5 -35.5t208.5 -114.5t155 -194q98 157 254.5 250.5t357.5 93.5q139 0 273.5 -40.5t207.5 -106.5v-359h-69q-63 181 -190 275t-292 94q-188 0 -333 -137q-121 -168 -121 -400
q0 -131 42.5 -253t115 -213.5t176 -147t219.5 -55.5q158 0 278 108v387l-264 82v47h621zM1122 229q129 213 129 404q0 153 -41 282t-111 216t-164.5 135.5t-201.5 48.5q-168 0 -289 -111q-129 -213 -129 -403q0 -153 41 -282.5t111.5 -216t165 -135t201.5 -48.5
q168 0 288 110z" />
    <glyph glyph-name="P_P.liga" unicode="PP" horiz-adv-x="1943" 
d="M1380 1434q244 0 381 -88t137 -269q0 -109 -45 -197t-134 -150t-234.5 -86t-333.5 -3v-535l162 -59v-47h-553v47l164 59v588q-185 -89 -488 -53v-535l162 -59v-47h-553v47l164 59v1221l-164 59v48h1335zM436 743q254 -15 378 54t124 233q0 135 -92.5 219t-237.5 84h-172
v-590zM1151 743q254 -15 378 54t124 233q0 135 -92.5 219t-237.5 84h-172v-590z" />
    <glyph glyph-name="P_T.liga" unicode="PT" horiz-adv-x="2285" 
d="M2011 1333h-295v-1227l162 -59v-47h-553v47l164 59v1227h-440q135 -83 135 -256q0 -109 -45 -197t-134.5 -150t-235 -86t-333.5 -3v-535l162 -59v-47h-553v47l164 59v1221l-164 59v48h2169l61 -400h-49zM436 743q254 -15 378 54t124 233q0 135 -92.5 219t-237.5 84h-172
v-590z" />
    <glyph glyph-name="P_Tbar.liga" unicode="P&#x166;" horiz-adv-x="2285" 
d="M2011 1333h-295v-542h246v-103h-246v-582l162 -59v-47h-553v47l164 59v582h-248v103h248v542h-440q135 -83 135 -256q0 -109 -45 -197t-134.5 -150t-235 -86t-333.5 -3v-535l162 -59v-47h-553v47l164 59v1221l-164 59v48h2169l61 -400h-49zM436 743q254 -15 378 54
t124 233q0 135 -92.5 219t-237.5 84h-172v-590z" />
    <glyph glyph-name="P_Tcaron.liga" unicode="P&#x164;" horiz-adv-x="2285" 
d="M1475 1552l-238 316l47 39l324 -178l311 178l47 -37l-240 -318h-251zM2011 1333h-295v-1227l162 -59v-47h-553v47l164 59v1227h-440q135 -83 135 -256q0 -109 -45 -197t-134.5 -150t-235 -86t-333.5 -3v-535l162 -59v-47h-553v47l164 59v1221l-164 59v48h2169l61 -400
h-49zM436 743q254 -15 378 54t124 233q0 135 -92.5 219t-237.5 84h-172v-590z" />
    <glyph glyph-name="uni00500162.liga" unicode="P&#x162;" horiz-adv-x="2285" 
d="M2011 1333h-295v-1227l162 -59v-47h-223l-62 -96q95 -23 147 -73.5t52 -119.5q0 -71 -57 -123.5t-142.5 -67.5t-185.5 5v59q89 -3 133.5 19t44.5 84q0 77 -80 92l-75 14l-3 4l129 203h-231v47l164 59v1227h-440q135 -83 135 -256q0 -109 -45 -197t-134.5 -150t-235 -86
t-333.5 -3v-535l162 -59v-47h-553v47l164 59v1221l-164 59v48h2169l61 -400h-49zM436 743q254 -15 378 54t124 233q0 135 -92.5 219t-237.5 84h-172v-590z" />
    <glyph glyph-name="uni0050021A.liga" unicode="P&#x21a;" horiz-adv-x="2285" 
d="M2011 1333h-295v-1227l162 -59v-47h-553v47l164 59v1227h-440q135 -83 135 -256q0 -109 -45 -197t-134.5 -150t-235 -86t-333.5 -3v-535l162 -59v-47h-553v47l164 59v1221l-164 59v48h2169l61 -400h-49zM436 743q254 -15 378 54t124 233q0 135 -92.5 219t-237.5 84h-172
v-590zM1661 -78q68 -66 78.5 -151t-44.5 -161.5t-165 -113.5l-41 33q50 52 44 152.5t-65 162.5v2z" />
    <glyph glyph-name="R_A.liga" unicode="RA" horiz-adv-x="2678" 
d="M2529 100l140 -53v-47h-572v47l187 53l-175 418h-546l-160 -397l211 -74v-47h-606l-447 668h-125v-562l162 -59v-47h-553v47l164 59v1221l-164 59v48h623q238 8 377 -82.5t139 -259.5q0 -132 -98.5 -244.5t-270.5 -153.5l410 -608l61 29l541 1319h151zM436 1333v-565h101
q206 6 303.5 89t97.5 204q0 106 -89 189t-233 83h-180zM1604 621h464l-235 565z" />
    <glyph glyph-name="R_A_W.liga" unicode="RAW" horiz-adv-x="3813" 
d="M3803 1434v-48l-135 -71l-414 -1315h-155l-355 1004l-344 -1004h-157l-181 518h-499l-160 -397l211 -74v-47h-606l-447 668h-125v-562l162 -59v-47h-553v47l164 59v1221l-164 59v48h623q238 8 377 -82.5t139 -259.5q0 -132 -98.5 -244.5t-270.5 -153.5l410 -608l61 29
l541 1319h151l412 -1153l301 876l-61 172l-131 57v48h569v-48l-195 -61l365 -1034l319 1012l-225 83v48h471zM436 1333v-565h101q206 6 303.5 89t97.5 204q0 106 -89 189t-233 83h-180zM1604 621h421l-194 559z" />
    <glyph glyph-name="R_Aacute.liga" unicode="R&#xc1;" horiz-adv-x="2678" 
d="M2296 1712l-576 -180l-41 47l375 328h4l238 -185v-10zM2529 100l140 -53v-47h-572v47l187 53l-175 418h-546l-160 -397l211 -74v-47h-606l-447 668h-125v-562l162 -59v-47h-553v47l164 59v1221l-164 59v48h623q238 8 377 -82.5t139 -259.5q0 -132 -98.5 -244.5
t-270.5 -153.5l410 -608l61 29l541 1319h151zM436 1333v-565h101q206 6 303.5 89t97.5 204q0 106 -89 189t-233 83h-180zM1604 621h464l-235 565z" />
    <glyph glyph-name="R_Abreve.liga" unicode="R&#x102;" horiz-adv-x="2678" 
d="M1894 1542q-42 0 -82.5 10t-81.5 34t-71.5 61t-50 95.5t-19.5 131.5l70 2q25 -62 88 -104.5t147 -42.5t147.5 42.5t90.5 104.5l70 -2q0 -73 -19.5 -131.5t-51 -95.5t-73 -61t-82 -34t-82.5 -10zM2529 100l140 -53v-47h-572v47l187 53l-175 418h-546l-160 -397l211 -74
v-47h-606l-447 668h-125v-562l162 -59v-47h-553v47l164 59v1221l-164 59v48h623q238 8 377 -82.5t139 -259.5q0 -132 -98.5 -244.5t-270.5 -153.5l410 -608l61 29l541 1319h151zM436 1333v-565h101q206 6 303.5 89t97.5 204q0 106 -89 189t-233 83h-180zM1604 621h464
l-235 565z" />
    <glyph glyph-name="R_Acircumflex.liga" unicode="R&#xc2;" horiz-adv-x="2678" 
d="M1884 1710l-311 -178l-47 37l239 317h252l238 -315l-47 -39zM2529 100l140 -53v-47h-572v47l187 53l-175 418h-546l-160 -397l211 -74v-47h-606l-447 668h-125v-562l162 -59v-47h-553v47l164 59v1221l-164 59v48h623q238 8 377 -82.5t139 -259.5q0 -132 -98.5 -244.5
t-270.5 -153.5l410 -608l61 29l541 1319h151zM436 1333v-565h101q206 6 303.5 89t97.5 204q0 106 -89 189t-233 83h-180zM1604 621h464l-235 565z" />
    <glyph glyph-name="R_Adieresis.liga" unicode="R&#xc4;" horiz-adv-x="2678" 
d="M1692 1597q-59 0 -100.5 41t-41.5 99q0 57 41.5 97t100.5 40q60 0 100.5 -40t40.5 -97q0 -59 -40.5 -99.5t-100.5 -40.5zM2097 1597q-60 0 -100.5 40.5t-40.5 99.5q0 57 40.5 97t100.5 40q59 0 100 -40t41 -97q0 -58 -41 -99t-100 -41zM2529 100l140 -53v-47h-572v47
l187 53l-175 418h-546l-160 -397l211 -74v-47h-606l-447 668h-125v-562l162 -59v-47h-553v47l164 59v1221l-164 59v48h623q238 8 377 -82.5t139 -259.5q0 -132 -98.5 -244.5t-270.5 -153.5l410 -608l61 29l541 1319h151zM436 1333v-565h101q206 6 303.5 89t97.5 204
q0 106 -89 189t-233 83h-180zM1604 621h464l-235 565z" />
    <glyph glyph-name="R_Agrave.liga" unicode="R&#xc0;" horiz-adv-x="2678" 
d="M2091 1585l-33 -53l-547 154v8l199 213h4zM2529 100l140 -53v-47h-572v47l187 53l-175 418h-546l-160 -397l211 -74v-47h-606l-447 668h-125v-562l162 -59v-47h-553v47l164 59v1221l-164 59v48h623q238 8 377 -82.5t139 -259.5q0 -132 -98.5 -244.5t-270.5 -153.5
l410 -608l61 29l541 1319h151zM436 1333v-565h101q206 6 303.5 89t97.5 204q0 106 -89 189t-233 83h-180zM1604 621h464l-235 565z" />
    <glyph glyph-name="R_Amacron.liga" unicode="R&#x100;" horiz-adv-x="2678" 
d="M2175 1784v-154h-559v154h559zM2529 100l140 -53v-47h-572v47l187 53l-175 418h-546l-160 -397l211 -74v-47h-606l-447 668h-125v-562l162 -59v-47h-553v47l164 59v1221l-164 59v48h623q238 8 377 -82.5t139 -259.5q0 -132 -98.5 -244.5t-270.5 -153.5l410 -608l61 29
l541 1319h151zM436 1333v-565h101q206 6 303.5 89t97.5 204q0 106 -89 189t-233 83h-180zM1604 621h464l-235 565z" />
    <glyph glyph-name="R_Aogonek.liga" unicode="R&#x104;" horiz-adv-x="2678" 
d="M2529 100l140 -53v-47h-195q-90 -149 -90 -270q0 -69 48 -102.5t112 -14.5v-57q-53 -32 -117.5 -40t-119.5 7.5t-92.5 59t-37.5 106.5q0 44 17.5 86t53 83.5t67 71t81.5 70.5h-299v47l187 53l-175 418h-546l-160 -397l211 -74v-47h-606l-447 668h-125v-562l162 -59v-47
h-553v47l164 59v1221l-164 59v48h623q238 8 377 -82.5t139 -259.5q0 -132 -98.5 -244.5t-270.5 -153.5l410 -608l61 29l541 1319h151zM436 1333v-565h101q206 6 303.5 89t97.5 204q0 106 -89 189t-233 83h-180zM1604 621h464l-235 565z" />
    <glyph glyph-name="R_Aring.liga" unicode="R&#xc5;" horiz-adv-x="2678" 
d="M1894 1499q-104 0 -172.5 55t-68.5 148q0 91 61.5 159t177.5 68q106 0 175 -55t69 -148q0 -91 -62.5 -159t-179.5 -68zM1794 1788q-22 -26 -22 -66q0 -57 36.5 -86.5t98.5 -29.5q44 0 86 28q24 27 24 72q0 56 -36 85.5t-97 29.5q-51 0 -90 -33zM2529 100l140 -53v-47
h-572v47l187 53l-175 418h-546l-160 -397l211 -74v-47h-606l-447 668h-125v-562l162 -59v-47h-553v47l164 59v1221l-164 59v48h623q238 8 377 -82.5t139 -259.5q0 -132 -98.5 -244.5t-270.5 -153.5l410 -608l61 29l541 1319h151zM436 1333v-565h101q206 6 303.5 89t97.5 204
q0 106 -89 189t-233 83h-180zM1604 621h464l-235 565z" />
    <glyph glyph-name="R_Atilde.liga" unicode="R&#xc3;" horiz-adv-x="2678" 
d="M1726 1683q-11 0 -21.5 -2t-18.5 -4t-16.5 -8.5t-14 -9.5t-13.5 -13t-10.5 -13t-10.5 -16.5t-9.5 -15.5t-9.5 -17.5t-9 -16.5l-59 20q29 134 90 210.5t148 76.5q47 0 92.5 -20t75.5 -43.5t65 -43.5t63 -20q14 0 26 3.5t21 6.5t19.5 13t15.5 14.5t14.5 19t12 18.5t12.5 22
t11 20l59 -21q-28 -133 -90 -210t-148 -77q-47 0 -93 20t-76 43.5t-64.5 43.5t-61.5 20zM2529 100l140 -53v-47h-572v47l187 53l-175 418h-546l-160 -397l211 -74v-47h-606l-447 668h-125v-562l162 -59v-47h-553v47l164 59v1221l-164 59v48h623q238 8 377 -82.5t139 -259.5
q0 -132 -98.5 -244.5t-270.5 -153.5l410 -608l61 29l541 1319h151zM436 1333v-565h101q206 6 303.5 89t97.5 204q0 106 -89 189t-233 83h-180zM1604 621h464l-235 565z" />
    <glyph glyph-name="R_I.liga" unicode="RI" horiz-adv-x="1908" 
d="M926 530q140 -210 268.5 -310t264.5 -96.5t286 118.5l41 -37q-63 -88 -153 -146t-196.5 -75t-215.5 6.5t-219 104t-197 210.5l-244 363h-125v-562l162 -59v-47h-553v47l164 59v1221l-164 59v48h623q238 8 377 -82.5t139 -259.5q0 -132 -98.5 -244.5t-270.5 -153.5z
M1843 1386l-162 -59v-606l162 -59v-48h-553v48l164 59v606l-164 59v48h553v-48zM436 1333v-565h101q206 6 303.5 89t97.5 204q0 106 -89 189t-233 83h-180z" />
    <glyph glyph-name="R_Iacute.liga" unicode="R&#xcd;" horiz-adv-x="1908" 
d="M1729 1907l237 -185v-10l-575 -180l-41 47l374 328h5zM926 530q140 -210 268.5 -310t264.5 -96.5t286 118.5l41 -37q-63 -88 -153 -146t-196.5 -75t-215.5 6.5t-219 104t-197 210.5l-244 363h-125v-562l162 -59v-47h-553v47l164 59v1221l-164 59v48h623q238 8 377 -82.5
t139 -259.5q0 -132 -98.5 -244.5t-270.5 -153.5zM1290 1386v48h553v-48l-162 -59v-606l162 -59v-48h-553v48l164 59v606zM436 1333v-565h101q206 6 303.5 89t97.5 204q0 106 -89 189t-233 83h-180z" />
    <glyph glyph-name="R_Ibreve.liga" unicode="R&#x12c;" horiz-adv-x="1908" 
d="M1565 1542q-42 0 -82.5 10t-81.5 34t-71.5 61t-50 95.5t-19.5 131.5l69 2q25 -61 88 -104t148 -43q84 0 147 42.5t90 104.5l70 -2q0 -90 -29 -158t-76 -104t-98 -53t-104 -17zM926 530q140 -210 268.5 -310t264.5 -96.5t286 118.5l41 -37q-63 -88 -153 -146t-196.5 -75
t-215.5 6.5t-219 104t-197 210.5l-244 363h-125v-562l162 -59v-47h-553v47l164 59v1221l-164 59v48h623q238 8 377 -82.5t139 -259.5q0 -132 -98.5 -244.5t-270.5 -153.5zM1290 1386v48h553v-48l-162 -59v-606l162 -59v-48h-553v48l164 59v606zM436 1333v-565h101
q206 6 303.5 89t97.5 204q0 106 -89 189t-233 83h-180z" />
    <glyph glyph-name="R_Icircumflex.liga" unicode="R&#xce;" horiz-adv-x="1908" 
d="M1688 1886l237 -315l-47 -39l-324 178l-311 -178l-47 37l240 317h252zM926 530q140 -210 268.5 -310t264.5 -96.5t286 118.5l41 -37q-63 -88 -153 -146t-196.5 -75t-215.5 6.5t-219 104t-197 210.5l-244 363h-125v-562l162 -59v-47h-553v47l164 59v1221l-164 59v48h623
q238 8 377 -82.5t139 -259.5q0 -132 -98.5 -244.5t-270.5 -153.5zM1290 1386v48h553v-48l-162 -59v-606l162 -59v-48h-553v48l164 59v606zM436 1333v-565h101q206 6 303.5 89t97.5 204q0 106 -89 189t-233 83h-180z" />
    <glyph glyph-name="R_Idieresis.liga" unicode="R&#xcf;" horiz-adv-x="1908" 
d="M1362 1597q-59 0 -100 41t-41 99q0 57 41 97t100 40q60 0 100.5 -40t40.5 -97q0 -59 -40.5 -99.5t-100.5 -40.5zM1767 1874q59 0 100.5 -40t41.5 -97q0 -58 -41.5 -99t-100.5 -41q-60 0 -100.5 40.5t-40.5 99.5q0 57 40.5 97t100.5 40zM926 530q140 -210 268.5 -310
t264.5 -96.5t286 118.5l41 -37q-63 -88 -153 -146t-196.5 -75t-215.5 6.5t-219 104t-197 210.5l-244 363h-125v-562l162 -59v-47h-553v47l164 59v1221l-164 59v48h623q238 8 377 -82.5t139 -259.5q0 -132 -98.5 -244.5t-270.5 -153.5zM1290 1386v48h553v-48l-162 -59v-606
l162 -59v-48h-553v48l164 59v606zM436 1333v-565h101q206 6 303.5 89t97.5 204q0 106 -89 189t-233 83h-180z" />
    <glyph glyph-name="R_Idotaccent.liga" unicode="R&#x130;" horiz-adv-x="1908" 
d="M1565 1591q-63 0 -105.5 42.5t-42.5 103.5q0 59 43 101t105 42t104.5 -42t42.5 -101q0 -61 -42.5 -103.5t-104.5 -42.5zM926 530q140 -210 268.5 -310t264.5 -96.5t286 118.5l41 -37q-63 -88 -153 -146t-196.5 -75t-215.5 6.5t-219 104t-197 210.5l-244 363h-125v-562
l162 -59v-47h-553v47l164 59v1221l-164 59v48h623q238 8 377 -82.5t139 -259.5q0 -132 -98.5 -244.5t-270.5 -153.5zM1843 1386l-162 -59v-606l162 -59v-48h-553v48l164 59v606l-164 59v48h553v-48zM436 1333v-565h101q206 6 303.5 89t97.5 204q0 106 -89 189t-233 83h-180z
" />
    <glyph glyph-name="R_Igrave.liga" unicode="R&#xcc;" horiz-adv-x="1908" 
d="M1761 1585l-32 -53l-547 154v8l198 213h4zM926 530q140 -210 268.5 -310t264.5 -96.5t286 118.5l41 -37q-63 -88 -153 -146t-196.5 -75t-215.5 6.5t-219 104t-197 210.5l-244 363h-125v-562l162 -59v-47h-553v47l164 59v1221l-164 59v48h623q238 8 377 -82.5t139 -259.5
q0 -132 -98.5 -244.5t-270.5 -153.5zM1843 1386l-162 -59v-606l162 -59v-48h-553v48l164 59v606l-164 59v48h553v-48zM436 1333v-565h101q206 6 303.5 89t97.5 204q0 106 -89 189t-233 83h-180z" />
    <glyph glyph-name="R_Imacron.liga" unicode="R&#x12a;" horiz-adv-x="1908" 
d="M1286 1784h559v-154h-559v154zM926 530q140 -210 268.5 -310t264.5 -96.5t286 118.5l41 -37q-63 -88 -153 -146t-196.5 -75t-215.5 6.5t-219 104t-197 210.5l-244 363h-125v-562l162 -59v-47h-553v47l164 59v1221l-164 59v48h623q238 8 377 -82.5t139 -259.5
q0 -132 -98.5 -244.5t-270.5 -153.5zM1290 1386v48h553v-48l-162 -59v-606l162 -59v-48h-553v48l164 59v606zM436 1333v-565h101q206 6 303.5 89t97.5 204q0 106 -89 189t-233 83h-180z" />
    <glyph glyph-name="R_Itilde.liga" unicode="R&#x128;" horiz-adv-x="1908" 
d="M1397 1683q-11 0 -21.5 -2t-18.5 -4t-16.5 -8.5t-14 -9.5t-13.5 -13t-10.5 -13t-10.5 -16.5t-9.5 -15.5t-9.5 -17.5t-9 -16.5l-60 20q29 134 90 210.5t148 76.5q47 0 93 -20t75.5 -43.5t65 -43.5t63.5 -20q15 0 28 2.5t25.5 12t19 13.5t17.5 21t13.5 20t14.5 25t13 23
l59 -21q-28 -134 -89.5 -210.5t-147.5 -76.5q-47 0 -93 20t-76 43.5t-64.5 43.5t-61.5 20zM926 530q140 -210 268.5 -310t264.5 -96.5t286 118.5l41 -37q-63 -88 -153 -146t-196.5 -75t-215.5 6.5t-219 104t-197 210.5l-244 363h-125v-562l162 -59v-47h-553v47l164 59v1221
l-164 59v48h623q238 8 377 -82.5t139 -259.5q0 -132 -98.5 -244.5t-270.5 -153.5zM1290 1386v48h553v-48l-162 -59v-606l162 -59v-48h-553v48l164 59v606zM436 1333v-565h101q206 6 303.5 89t97.5 204q0 106 -89 189t-233 83h-180z" />
    <glyph glyph-name="R_T.liga" unicode="RT" horiz-adv-x="2453" 
d="M2179 1333h-297v-1227l164 -59v-47h-553v47l162 59v1227h-598q127 -82 127 -241q0 -132 -98.5 -244.5t-270.5 -153.5l399 -592l146 -55v-47h-352l-447 668h-125v-562l162 -59v-47h-553v47l164 59v1221l-164 59v48h2337l61 -400h-49zM537 768q206 6 303.5 89t97.5 204
q0 106 -89 189t-233 83h-180v-565h101z" />
    <glyph glyph-name="R_T_H.liga" unicode="RTH" horiz-adv-x="3715" 
d="M1882 1333v-1227l164 -59v-47h-553v47l162 59v1227h-586q115 -89 115 -241q0 -132 -98.5 -244.5t-270.5 -153.5l399 -592l146 -55v-47h-352l-447 668h-125v-562l162 -59v-47h-553v47l164 59v1221l-164 59v48h623h69h1784l62 -400h-50l-215 299h-436zM3670 1386l-164 -59
v-1221l164 -59v-47h-553v47l162 59v578h-680v-578l162 -59v-47h-553v47l164 59v680h907v541l-162 59v48h553v-48zM537 768q206 6 303.5 89t97.5 204q0 106 -89 189t-233 83h-180v-565h101z" />
    <glyph glyph-name="R_Tbar.liga" unicode="R&#x166;" horiz-adv-x="2453" 
d="M2179 1333h-297v-542h248v-103h-248v-582l164 -59v-47h-553v47l162 59v582h-246v103h246v542h-598q127 -82 127 -241q0 -132 -98.5 -244.5t-270.5 -153.5l399 -592l146 -55v-47h-352l-447 668h-125v-562l162 -59v-47h-553v47l164 59v1221l-164 59v48h2337l61 -400h-49z
M537 768q206 6 303.5 89t97.5 204q0 106 -89 189t-233 83h-180v-565h101z" />
    <glyph glyph-name="R_Tcaron.liga" unicode="R&#x164;" horiz-adv-x="2453" 
d="M1640 1552l-237 316l47 39l324 -178l311 178l47 -37l-240 -318h-252zM2179 1333h-297v-1227l164 -59v-47h-553v47l162 59v1227h-598q127 -82 127 -241q0 -132 -98.5 -244.5t-270.5 -153.5l399 -592l146 -55v-47h-352l-447 668h-125v-562l162 -59v-47h-553v47l164 59v1221
l-164 59v48h2337l61 -400h-49zM537 768q206 6 303.5 89t97.5 204q0 106 -89 189t-233 83h-180v-565h101z" />
    <glyph glyph-name="uni00520162.liga" unicode="R&#x162;" horiz-adv-x="2453" 
d="M2179 1333h-297v-1227l164 -59v-47h-223l-62 -96q95 -23 147 -73.5t52 -119.5q0 -71 -57 -123.5t-142.5 -67.5t-185.5 5v59q89 -3 133.5 19t44.5 84q0 77 -80 92l-76 14l-2 4l129 203h-231v47l162 59v1227h-598q127 -82 127 -241q0 -132 -98.5 -244.5t-270.5 -153.5
l399 -592l146 -55v-47h-352l-447 668h-125v-562l162 -59v-47h-553v47l164 59v1221l-164 59v48h2337l61 -400h-49zM537 768q206 6 303.5 89t97.5 204q0 106 -89 189t-233 83h-180v-565h101z" />
    <glyph glyph-name="uni0052021A.liga" unicode="R&#x21a;" horiz-adv-x="2453" 
d="M2179 1333h-297v-1227l164 -59v-47h-553v47l162 59v1227h-598q127 -82 127 -241q0 -132 -98.5 -244.5t-270.5 -153.5l399 -592l146 -55v-47h-352l-447 668h-125v-562l162 -59v-47h-553v47l164 59v1221l-164 59v48h2337l61 -400h-49zM537 768q206 6 303.5 89t97.5 204
q0 106 -89 189t-233 83h-180v-565h101zM1829 -78q68 -66 78.5 -151t-44.5 -161.5t-165 -113.5l-41 33q50 52 44 152.5t-65 162.5v2z" />
    <glyph glyph-name="Racute_A.liga" unicode="&#x154;A" horiz-adv-x="2678" 
d="M1032 1712l-575 -180l-41 47l375 328h4l237 -185v-10zM2529 100l140 -53v-47h-572v47l187 53l-175 418h-546l-160 -397l211 -74v-47h-606l-447 668h-125v-562l162 -59v-47h-553v47l164 59v1221l-164 59v48h623q238 8 377 -82.5t139 -259.5q0 -132 -98.5 -244.5
t-270.5 -153.5l410 -608l61 29l541 1319h151zM436 1333v-565h101q206 6 303.5 89t97.5 204q0 106 -89 189t-233 83h-180zM1604 621h464l-235 565z" />
    <glyph glyph-name="Racute_I.liga" unicode="&#x154;I" horiz-adv-x="1908" 
d="M1032 1712l-575 -180l-41 47l375 328h4l237 -185v-10zM926 530q140 -210 268.5 -310t264.5 -96.5t286 118.5l41 -37q-63 -88 -153 -146t-196.5 -75t-215.5 6.5t-219 104t-197 210.5l-244 363h-125v-562l162 -59v-47h-553v47l164 59v1221l-164 59v48h623q238 8 377 -82.5
t139 -259.5q0 -132 -98.5 -244.5t-270.5 -153.5zM1843 1386l-162 -59v-606l162 -59v-48h-553v48l164 59v606l-164 59v48h553v-48zM436 1333v-565h101q206 6 303.5 89t97.5 204q0 106 -89 189t-233 83h-180z" />
    <glyph glyph-name="Racute_T.liga" unicode="&#x154;T" horiz-adv-x="2453" 
d="M1032 1712l-575 -180l-41 47l375 328h4l237 -185v-10zM2179 1333h-297v-1227l164 -59v-47h-553v47l162 59v1227h-598q127 -82 127 -241q0 -132 -98.5 -244.5t-270.5 -153.5l399 -592l146 -55v-47h-352l-447 668h-125v-562l162 -59v-47h-553v47l164 59v1221l-164 59v48
h2337l61 -400h-49zM537 768q206 6 303.5 89t97.5 204q0 106 -89 189t-233 83h-180v-565h101z" />
    <glyph glyph-name="Rcaron_A.liga" unicode="&#x158;A" horiz-adv-x="2678" 
d="M506 1552l-238 316l47 39l324 -178l311 178l47 -37l-239 -318h-252zM2529 100l140 -53v-47h-572v47l187 53l-175 418h-546l-160 -397l211 -74v-47h-606l-447 668h-125v-562l162 -59v-47h-553v47l164 59v1221l-164 59v48h623q238 8 377 -82.5t139 -259.5
q0 -132 -98.5 -244.5t-270.5 -153.5l410 -608l61 29l541 1319h151zM436 1333v-565h101q206 6 303.5 89t97.5 204q0 106 -89 189t-233 83h-180zM1604 621h464l-235 565z" />
    <glyph glyph-name="Rcaron_Aacute.liga" unicode="&#x158;&#xc1;" horiz-adv-x="2678" 
d="M506 1552l-238 316l47 39l324 -178l311 178l47 -37l-239 -318h-252zM2296 1712l-574 -180l-41 47l373 328h4l238 -185v-10zM2529 100l140 -53v-47h-572v47l187 53l-175 418h-546l-160 -397l211 -74v-47h-606l-447 668h-125v-562l162 -59v-47h-553v47l164 59v1221l-164 59
v48h623q238 8 377 -82.5t139 -259.5q0 -132 -98.5 -244.5t-270.5 -153.5l410 -608l61 29l541 1319h151zM436 1333v-565h101q206 6 303.5 89t97.5 204q0 106 -89 189t-233 83h-180zM1604 621h464l-235 565z" />
    <glyph glyph-name="Rcaron_I.liga" unicode="&#x158;I" horiz-adv-x="1908" 
d="M506 1552l-238 316l47 39l324 -178l311 178l47 -37l-239 -318h-252zM926 530q140 -210 268.5 -310t264.5 -96.5t286 118.5l41 -37q-63 -88 -153 -146t-196.5 -75t-215.5 6.5t-219 104t-197 210.5l-244 363h-125v-562l162 -59v-47h-553v47l164 59v1221l-164 59v48h623
q238 8 377 -82.5t139 -259.5q0 -132 -98.5 -244.5t-270.5 -153.5zM1843 1386l-162 -59v-606l162 -59v-48h-553v48l164 59v606l-164 59v48h553v-48zM436 1333v-565h101q206 6 303.5 89t97.5 204q0 106 -89 189t-233 83h-180z" />
    <glyph glyph-name="Rcaron_Iacute.liga" unicode="&#x158;&#xcd;" horiz-adv-x="1908" 
d="M506 1552l-238 316l47 39l324 -178l311 178l47 -37l-239 -318h-252zM1729 1907l237 -185v-10l-575 -180l-41 47l374 328h5zM926 530q140 -210 268.5 -310t264.5 -96.5t286 118.5l41 -37q-63 -88 -153 -146t-196.5 -75t-215.5 6.5t-219 104t-197 210.5l-244 363h-125v-562
l162 -59v-47h-553v47l164 59v1221l-164 59v48h623q238 8 377 -82.5t139 -259.5q0 -132 -98.5 -244.5t-270.5 -153.5zM1290 1386v48h553v-48l-162 -59v-606l162 -59v-48h-553v48l164 59v606zM436 1333v-565h101q206 6 303.5 89t97.5 204q0 106 -89 189t-233 83h-180z" />
    <glyph glyph-name="Rcaron_T.liga" unicode="&#x158;T" horiz-adv-x="2453" 
d="M506 1552l-238 316l47 39l324 -178l311 178l47 -37l-239 -318h-252zM2179 1333h-297v-1227l164 -59v-47h-553v47l162 59v1227h-598q127 -82 127 -241q0 -132 -98.5 -244.5t-270.5 -153.5l399 -592l146 -55v-47h-352l-447 668h-125v-562l162 -59v-47h-553v47l164 59v1221
l-164 59v48h2337l61 -400h-49zM537 768q206 6 303.5 89t97.5 204q0 106 -89 189t-233 83h-180v-565h101z" />
    <glyph glyph-name="Rcommaaccent_A.liga" unicode="&#x156;A" horiz-adv-x="2678" 
d="M2529 100l140 -53v-47h-572v47l187 53l-175 418h-546l-160 -397l211 -74v-47h-606l-447 668h-125v-562l162 -59v-47h-553v47l164 59v1221l-164 59v48h623q238 8 377 -82.5t139 -259.5q0 -132 -98.5 -244.5t-270.5 -153.5l410 -608l61 29l541 1319h151zM436 1333v-565h101
q206 6 303.5 89t97.5 204q0 106 -89 189t-233 83h-180zM1604 621h464l-235 565zM772 -78q68 -66 78.5 -151t-44.5 -161.5t-165 -113.5l-41 33q50 52 44.5 152.5t-64.5 162.5v2z" />
    <glyph glyph-name="Rcommaaccent_I.liga" unicode="&#x156;I" horiz-adv-x="1908" 
d="M926 530q140 -210 268.5 -310t264.5 -96.5t286 118.5l41 -37q-63 -88 -153 -146t-196.5 -75t-215.5 6.5t-219 104t-197 210.5l-244 363h-125v-562l162 -59v-47h-553v47l164 59v1221l-164 59v48h623q238 8 377 -82.5t139 -259.5q0 -132 -98.5 -244.5t-270.5 -153.5z
M1843 1386l-162 -59v-606l162 -59v-48h-553v48l164 59v606l-164 59v48h553v-48zM436 1333v-565h101q206 6 303.5 89t97.5 204q0 106 -89 189t-233 83h-180zM772 -78q68 -66 78.5 -151t-44.5 -161.5t-165 -113.5l-41 33q50 52 44.5 152.5t-64.5 162.5v2z" />
    <glyph glyph-name="Rcommaaccent_T.liga" unicode="&#x156;T" horiz-adv-x="2453" 
d="M2179 1333h-297v-1227l164 -59v-47h-553v47l162 59v1227h-598q127 -82 127 -241q0 -132 -98.5 -244.5t-270.5 -153.5l399 -592l146 -55v-47h-352l-447 668h-125v-562l162 -59v-47h-553v47l164 59v1221l-164 59v48h2337l61 -400h-49zM537 768q206 6 303.5 89t97.5 204
q0 106 -89 189t-233 83h-180v-565h101zM772 -78q68 -66 78.5 -151t-44.5 -161.5t-165 -113.5l-41 33q50 52 44.5 152.5t-64.5 162.5v2z" />
    <glyph glyph-name="S_S.liga" unicode="SS" horiz-adv-x="2451" 
d="M1499 1128q0 -68 29.5 -115t79.5 -72.5t115 -42t136.5 -29t143 -28t136.5 -45t115 -73.5t79.5 -119.5t29.5 -177.5q0 -91 -41 -173.5t-112.5 -143.5t-175 -97.5t-222.5 -36.5q-69 0 -123 17t-99 48.5t-93 95t-91.5 138.5t-107.5 197l-276 541q-78 152 -195 236.5
t-247 84.5q-115 0 -211 -41q-97 -69 -97 -164q0 -68 29.5 -115t79.5 -72.5t115 -42t136.5 -29t143.5 -28t137 -45t115 -73.5t79.5 -119.5t29.5 -177.5q0 -91 -41 -173.5t-112.5 -143.5t-175 -97.5t-222.5 -36.5q-281 0 -447 127l-63 408h51q221 -401 496 -401q160 0 229 43
q106 91 106 190q0 75 -29 128t-78 82.5t-112.5 48.5t-134 32.5t-140.5 28.5t-133.5 42.5t-112.5 68t-78 111.5t-29 167q0 117 67.5 210.5t183 145t254.5 51.5q110 0 197 -43.5t158.5 -130.5t144.5 -231l281 -543q48 -95 91.5 -161.5t98 -124t120 -86.5t142.5 -29
q167 0 234 47q102 83 102 186q0 75 -29 128t-78 82.5t-112.5 48.5t-133.5 32.5t-140 28.5t-133.5 42.5t-112.5 68t-78 111.5t-29 167q0 176 146 291.5t358 115.5q131 0 247 -36t187 -89v-321h-49q-73 144 -185 232.5t-237 88.5q-115 0 -211 -41q-96 -68 -96 -164z" />
    <glyph glyph-name="S_Scaron.liga" unicode="S&#x160;" horiz-adv-x="2451" 
d="M1718 1552l-237 316l47 39l323 -178l312 178l47 -37l-240 -318h-252zM1499 1128q0 -68 29.5 -115t79.5 -72.5t115 -42t136.5 -29t143 -28t136.5 -45t115 -73.5t79.5 -119.5t29.5 -177.5q0 -91 -41 -173.5t-112.5 -143.5t-175 -97.5t-222.5 -36.5q-69 0 -123 17t-99 48.5
t-93 95t-91.5 138.5t-107.5 197l-276 541q-78 152 -195 236.5t-247 84.5q-115 0 -211 -41q-97 -69 -97 -164q0 -68 29.5 -115t79.5 -72.5t115 -42t136.5 -29t143.5 -28t137 -45t115 -73.5t79.5 -119.5t29.5 -177.5q0 -91 -41 -173.5t-112.5 -143.5t-175 -97.5t-222.5 -36.5
q-281 0 -447 127l-63 408h51q221 -401 496 -401q160 0 229 43q106 91 106 190q0 75 -29 128t-78 82.5t-112.5 48.5t-134 32.5t-140.5 28.5t-133.5 42.5t-112.5 68t-78 111.5t-29 167q0 117 67.5 210.5t183 145t254.5 51.5q110 0 197 -43.5t158.5 -130.5t144.5 -231l281 -543
q48 -95 91.5 -161.5t98 -124t120 -86.5t142.5 -29q167 0 234 47q102 83 102 186q0 75 -29 128t-78 82.5t-112.5 48.5t-133.5 32.5t-140 28.5t-133.5 42.5t-112.5 68t-78 111.5t-29 167q0 176 146 291.5t358 115.5q131 0 247 -36t187 -89v-321h-49q-73 144 -185 232.5
t-237 88.5q-115 0 -211 -41q-96 -68 -96 -164z" />
    <glyph glyph-name="S_T.liga" unicode="ST" horiz-adv-x="2179" 
d="M1905 1333h-297v-1227l164 -59v-47h-553v47l161 59v1227h-800q-115 0 -211 -41q-97 -69 -97 -164q0 -59 24 -101t65.5 -65t97 -40.5t118 -26.5t128 -24t128 -31t118 -49.5t97 -78t65.5 -118t24 -168.5q0 -91 -41 -173.5t-112.5 -143.5t-175 -97.5t-222.5 -36.5
q-281 0 -447 127l-63 408h51q221 -401 496 -401q160 0 229 43q106 91 106 190q0 79 -29 134.5t-78 86.5t-112.5 51.5t-134 34.5t-140.5 28.5t-133.5 40.5t-112.5 65t-78 107t-29 161q0 176 135.5 279.5t349.5 103.5h1511l62 -400h-49z" />
    <glyph glyph-name="S_T_Y.liga" unicode="STY" horiz-adv-x="3248" 
d="M3109 1311l-443 -695v-510l164 -59v-47h-553v47l162 59v504l-477 723h-354v-1227l164 -59v-47h-553v47l161 59v1227h-800q-115 0 -211 -41q-97 -69 -97 -164q0 -59 24 -101t65.5 -65t97 -40.5t118 -26.5t128 -24t128 -31t118 -49.5t97 -78t65.5 -118t24 -168.5
q0 -91 -41 -173.5t-112.5 -143.5t-175 -97.5t-222.5 -36.5q-281 0 -447 127l-63 408h51q221 -401 496 -401q160 0 229 43q106 91 106 190q0 79 -29 134.5t-78 86.5t-112.5 51.5t-134 34.5t-140.5 28.5t-133.5 40.5t-112.5 65t-78 107t-29 161q0 176 135.5 279.5t349.5 103.5
h1806v-48l-170 -49l394 -604l362 580l-203 73v48h473v-48z" />
    <glyph glyph-name="S_Tbar.liga" unicode="S&#x166;" horiz-adv-x="2179" 
d="M1905 1333h-297v-542h247v-103h-247v-582l164 -59v-47h-553v47l161 59v582h-245v103h245v542h-800q-115 0 -211 -41q-97 -69 -97 -164q0 -59 24 -101t65.5 -65t97 -40.5t118 -26.5t128 -24t128 -31t118 -49.5t97 -78t65.5 -118t24 -168.5q0 -91 -41 -173.5t-112.5 -143.5
t-175 -97.5t-222.5 -36.5q-281 0 -447 127l-63 408h51q221 -401 496 -401q160 0 229 43q106 91 106 190q0 79 -29 134.5t-78 86.5t-112.5 51.5t-134 34.5t-140.5 28.5t-133.5 40.5t-112.5 65t-78 107t-29 161q0 176 135.5 279.5t349.5 103.5h1511l62 -400h-49z" />
    <glyph glyph-name="S_Tcaron.liga" unicode="S&#x164;" horiz-adv-x="2179" 
d="M1366 1552l-238 316l48 39l323 -178l311 178l48 -37l-240 -318h-252zM1905 1333h-297v-1227l164 -59v-47h-553v47l161 59v1227h-800q-115 0 -211 -41q-97 -69 -97 -164q0 -59 24 -101t65.5 -65t97 -40.5t118 -26.5t128 -24t128 -31t118 -49.5t97 -78t65.5 -118t24 -168.5
q0 -91 -41 -173.5t-112.5 -143.5t-175 -97.5t-222.5 -36.5q-281 0 -447 127l-63 408h51q221 -401 496 -401q160 0 229 43q106 91 106 190q0 79 -29 134.5t-78 86.5t-112.5 51.5t-134 34.5t-140.5 28.5t-133.5 40.5t-112.5 65t-78 107t-29 161q0 176 135.5 279.5t349.5 103.5
h1511l62 -400h-49z" />
    <glyph glyph-name="uni00530162.liga" unicode="S&#x162;" horiz-adv-x="2179" 
d="M1905 1333h-297v-1227l164 -59v-47h-222l-61 -96q95 -23 147 -73.5t52 -119.5q0 -71 -57 -123.5t-142.5 -67.5t-185.5 5v59q89 -3 133.5 19t44.5 84q0 77 -80 92l-76 14l-2 4l129 203h-233v47l161 59v1227h-800q-115 0 -211 -41q-97 -69 -97 -164q0 -59 24 -101t65.5 -65
t97 -40.5t118 -26.5t128 -24t128 -31t118 -49.5t97 -78t65.5 -118t24 -168.5q0 -91 -41 -173.5t-112.5 -143.5t-175 -97.5t-222.5 -36.5q-281 0 -447 127l-63 408h51q221 -401 496 -401q160 0 229 43q106 91 106 190q0 79 -29 134.5t-78 86.5t-112.5 51.5t-134 34.5
t-140.5 28.5t-133.5 40.5t-112.5 65t-78 107t-29 161q0 176 135.5 279.5t349.5 103.5h1511l62 -400h-49z" />
    <glyph glyph-name="uni0053021A.liga" unicode="S&#x21a;" horiz-adv-x="2179" 
d="M1905 1333h-297v-1227l164 -59v-47h-553v47l161 59v1227h-800q-115 0 -211 -41q-97 -69 -97 -164q0 -59 24 -101t65.5 -65t97 -40.5t118 -26.5t128 -24t128 -31t118 -49.5t97 -78t65.5 -118t24 -168.5q0 -91 -41 -173.5t-112.5 -143.5t-175 -97.5t-222.5 -36.5
q-281 0 -447 127l-63 408h51q221 -401 496 -401q160 0 229 43q106 91 106 190q0 79 -29 134.5t-78 86.5t-112.5 51.5t-134 34.5t-140.5 28.5t-133.5 40.5t-112.5 65t-78 107t-29 161q0 176 135.5 279.5t349.5 103.5h1511l62 -400h-49zM1556 -78q68 -66 78.5 -151
t-44.5 -161.5t-165 -113.5l-41 33q50 52 44.5 152.5t-64.5 162.5v2z" />
    <glyph glyph-name="Sacute_T.liga" unicode="&#x15a;T" horiz-adv-x="2179" 
d="M1018 1712l-576 -180l-41 47l375 328h4l238 -185v-10zM1905 1333h-297v-1227l164 -59v-47h-553v47l161 59v1227h-800q-115 0 -211 -41q-97 -69 -97 -164q0 -59 24 -101t65.5 -65t97 -40.5t118 -26.5t128 -24t128 -31t118 -49.5t97 -78t65.5 -118t24 -168.5
q0 -91 -41 -173.5t-112.5 -143.5t-175 -97.5t-222.5 -36.5q-281 0 -447 127l-63 408h51q221 -401 496 -401q160 0 229 43q106 91 106 190q0 79 -29 134.5t-78 86.5t-112.5 51.5t-134 34.5t-140.5 28.5t-133.5 40.5t-112.5 65t-78 107t-29 161q0 176 135.5 279.5t349.5 103.5
h1511l62 -400h-49z" />
    <glyph glyph-name="Scaron_S.liga" unicode="&#x160;S" horiz-adv-x="2451" 
d="M492 1552l-238 316l47 39l324 -178l311 178l47 -37l-240 -318h-251zM1499 1128q0 -68 29.5 -115t79.5 -72.5t115 -42t136.5 -29t143 -28t136.5 -45t115 -73.5t79.5 -119.5t29.5 -177.5q0 -91 -41 -173.5t-112.5 -143.5t-175 -97.5t-222.5 -36.5q-69 0 -123 17t-99 48.5
t-93 95t-91.5 138.5t-107.5 197l-276 541q-78 152 -195 236.5t-247 84.5q-115 0 -211 -41q-97 -69 -97 -164q0 -68 29.5 -115t79.5 -72.5t115 -42t136.5 -29t143.5 -28t137 -45t115 -73.5t79.5 -119.5t29.5 -177.5q0 -91 -41 -173.5t-112.5 -143.5t-175 -97.5t-222.5 -36.5
q-281 0 -447 127l-63 408h51q221 -401 496 -401q160 0 229 43q106 91 106 190q0 75 -29 128t-78 82.5t-112.5 48.5t-134 32.5t-140.5 28.5t-133.5 42.5t-112.5 68t-78 111.5t-29 167q0 117 67.5 210.5t183 145t254.5 51.5q110 0 197 -43.5t158.5 -130.5t144.5 -231l281 -543
q48 -95 91.5 -161.5t98 -124t120 -86.5t142.5 -29q167 0 234 47q102 83 102 186q0 75 -29 128t-78 82.5t-112.5 48.5t-133.5 32.5t-140 28.5t-133.5 42.5t-112.5 68t-78 111.5t-29 167q0 176 146 291.5t358 115.5q131 0 247 -36t187 -89v-321h-49q-73 144 -185 232.5
t-237 88.5q-115 0 -211 -41q-96 -68 -96 -164z" />
    <glyph glyph-name="Scaron_Scaron.liga" unicode="&#x160;&#x160;" horiz-adv-x="2451" 
d="M492 1552l-238 316l47 39l324 -178l311 178l47 -37l-240 -318h-251zM1718 1552l-237 316l47 39l323 -178l312 178l47 -37l-240 -318h-252zM1499 1128q0 -68 29.5 -115t79.5 -72.5t115 -42t136.5 -29t143 -28t136.5 -45t115 -73.5t79.5 -119.5t29.5 -177.5
q0 -91 -41 -173.5t-112.5 -143.5t-175 -97.5t-222.5 -36.5q-69 0 -123 17t-99 48.5t-93 95t-91.5 138.5t-107.5 197l-276 541q-78 152 -195 236.5t-247 84.5q-115 0 -211 -41q-97 -69 -97 -164q0 -68 29.5 -115t79.5 -72.5t115 -42t136.5 -29t143.5 -28t137 -45t115 -73.5
t79.5 -119.5t29.5 -177.5q0 -91 -41 -173.5t-112.5 -143.5t-175 -97.5t-222.5 -36.5q-281 0 -447 127l-63 408h51q221 -401 496 -401q160 0 229 43q106 91 106 190q0 75 -29 128t-78 82.5t-112.5 48.5t-134 32.5t-140.5 28.5t-133.5 42.5t-112.5 68t-78 111.5t-29 167
q0 117 67.5 210.5t183 145t254.5 51.5q110 0 197 -43.5t158.5 -130.5t144.5 -231l281 -543q48 -95 91.5 -161.5t98 -124t120 -86.5t142.5 -29q167 0 234 47q102 83 102 186q0 75 -29 128t-78 82.5t-112.5 48.5t-133.5 32.5t-140 28.5t-133.5 42.5t-112.5 68t-78 111.5
t-29 167q0 176 146 291.5t358 115.5q131 0 247 -36t187 -89v-321h-49q-73 144 -185 232.5t-237 88.5q-115 0 -211 -41q-96 -68 -96 -164z" />
    <glyph glyph-name="Scaron_T.liga" unicode="&#x160;T" horiz-adv-x="2179" 
d="M492 1552l-238 316l47 39l324 -178l311 178l47 -37l-240 -318h-251zM1905 1333h-297v-1227l164 -59v-47h-553v47l161 59v1227h-800q-115 0 -211 -41q-97 -69 -97 -164q0 -59 24 -101t65.5 -65t97 -40.5t118 -26.5t128 -24t128 -31t118 -49.5t97 -78t65.5 -118t24 -168.5
q0 -91 -41 -173.5t-112.5 -143.5t-175 -97.5t-222.5 -36.5q-281 0 -447 127l-63 408h51q221 -401 496 -401q160 0 229 43q106 91 106 190q0 79 -29 134.5t-78 86.5t-112.5 51.5t-134 34.5t-140.5 28.5t-133.5 40.5t-112.5 65t-78 107t-29 161q0 176 135.5 279.5t349.5 103.5
h1511l62 -400h-49z" />
    <glyph glyph-name="Scedilla_T.liga" unicode="&#x15e;T" horiz-adv-x="2179" 
d="M1905 1333h-297v-1227l164 -59v-47h-553v47l161 59v1227h-800q-115 0 -211 -41q-97 -69 -97 -164q0 -59 24 -101t65.5 -65t97 -40.5t118 -26.5t128 -24t128 -31t118 -49.5t97 -78t65.5 -118t24 -168.5q0 -178 -144 -308.5t-368 -142.5l-47 -71q95 -23 146.5 -73.5
t51.5 -119.5q0 -71 -57 -123.5t-142.5 -67.5t-185.5 5v59q89 -3 133.5 19t44.5 84q0 77 -80 92l-75 14l-2 4l114 180q-237 11 -387 125l-63 408h51q221 -401 496 -401q160 0 229 43q106 91 106 190q0 79 -29 134.5t-78 86.5t-112.5 51.5t-134 34.5t-140.5 28.5t-133.5 40.5
t-112.5 65t-78 107t-29 161q0 176 135.5 279.5t349.5 103.5h1511l62 -400h-49z" />
    <glyph glyph-name="Scircumflex_T.liga" unicode="&#x15c;T" horiz-adv-x="2179" 
d="M606 1710l-311 -178l-47 37l239 317h252l238 -315l-47 -39zM1905 1333h-297v-1227l164 -59v-47h-553v47l161 59v1227h-800q-115 0 -211 -41q-97 -69 -97 -164q0 -59 24 -101t65.5 -65t97 -40.5t118 -26.5t128 -24t128 -31t118 -49.5t97 -78t65.5 -118t24 -168.5
q0 -91 -41 -173.5t-112.5 -143.5t-175 -97.5t-222.5 -36.5q-281 0 -447 127l-63 408h51q221 -401 496 -401q160 0 229 43q106 91 106 190q0 79 -29 134.5t-78 86.5t-112.5 51.5t-134 34.5t-140.5 28.5t-133.5 40.5t-112.5 65t-78 107t-29 161q0 176 135.5 279.5t349.5 103.5
h1511l62 -400h-49z" />
    <glyph glyph-name="Scommaaccent_T.liga" unicode="&#x218;T" horiz-adv-x="2179" 
d="M1905 1333h-297v-1227l164 -59v-47h-553v47l161 59v1227h-800q-115 0 -211 -41q-97 -69 -97 -164q0 -59 24 -101t65.5 -65t97 -40.5t118 -26.5t128 -24t128 -31t118 -49.5t97 -78t65.5 -118t24 -168.5q0 -91 -41 -173.5t-112.5 -143.5t-175 -97.5t-222.5 -36.5
q-281 0 -447 127l-63 408h51q221 -401 496 -401q160 0 229 43q106 91 106 190q0 79 -29 134.5t-78 86.5t-112.5 51.5t-134 34.5t-140.5 28.5t-133.5 40.5t-112.5 65t-78 107t-29 161q0 176 135.5 279.5t349.5 103.5h1511l62 -400h-49zM645 -78q68 -66 78.5 -151
t-44.5 -161.5t-165 -113.5l-41 33q50 52 44.5 152.5t-64.5 162.5v2z" />
    <glyph glyph-name="T_H.liga" unicode="TH" horiz-adv-x="2629" 
d="M799 1333v-1227l162 -59v-47h-553v47l163 59v1227h-299l-213 -299h-49l62 400h1364l61 -400h-49l-215 299h-434zM2585 1386l-162 -59v-1221l162 -59v-47h-553v47l163 59v578h-682v-578l162 -59v-47h-551v47l162 59v680h909v541l-163 59v48h553v-48z" />
    <glyph glyph-name="T_H_E.liga" unicode="THE" horiz-adv-x="3313" 
d="M799 1333v-1227l162 -59v-47h-553v47l163 59v1227h-299l-213 -299h-49l62 400h1343l62 -400h-52l-215 299h-411zM3207 395h51l-57 -395h-1169v47l163 59v578h-682v-578l162 -59v-47h-551v47l162 59v680h909v541l-163 59v48h1153v-383h-52l-155 282h-555v-547h397l86 197
h51v-491h-51l-84 192h-399v-584h581z" />
    <glyph glyph-name="T_Hbar.liga" unicode="T&#x126;" horiz-adv-x="2629" 
d="M2619 967h-196v-861l162 -59v-47h-553v47l163 59v578h-682v-578l162 -59v-47h-551v47l162 59v680h909v181h-1122v102h350l-190 264h-434v-1227l162 -59v-47h-553v47l163 59v1227h-299l-213 -299h-49l62 400h1364l55 -365h704v258l-163 59v48h553v-48l-162 -59v-258h196
v-102z" />
    <glyph glyph-name="T_Hcircumflex.liga" unicode="T&#x124;" horiz-adv-x="2629" 
d="M1858 1710l-312 -178l-47 37l240 317h252l237 -315l-47 -39zM799 1333v-1227l162 -59v-47h-553v47l163 59v1227h-299l-213 -299h-49l62 400h1364l61 -400h-49l-215 299h-434zM2585 1386l-162 -59v-1221l162 -59v-47h-553v47l163 59v578h-682v-578l162 -59v-47h-551v47
l162 59v680h909v541l-163 59v48h553v-48z" />
    <glyph glyph-name="T_I.liga" unicode="TI" horiz-adv-x="1712" 
d="M799 1333v-1227l162 -59v-47h-553v47l163 59v1227h-299l-213 -299h-49l62 400h1343l62 -400h-52l-215 299h-411zM1675 743l-162 -59v-578l162 -59v-47h-551v47l162 59v578l-162 59v50h551v-50z" />
    <glyph glyph-name="T_Iogonek.liga" unicode="T&#x12e;" horiz-adv-x="1712" 
d="M799 1333v-1227l162 -59v-47h-553v47l163 59v1227h-299l-213 -299h-49l62 400h1343l62 -400h-52l-215 299h-411zM1675 743l-162 -59v-578l162 -59v-47h-162q-90 -149 -90 -270q0 -69 48 -102.5t112 -14.5v-57q-53 -32 -117.5 -40t-119.5 7.5t-92 59t-37 106.5
q0 44 17.5 86t53 83.5t67 71t81.5 70.5h-312v47l162 59v578l-162 59v50h551v-50z" />
    <glyph glyph-name="T_L.liga" unicode="TL" horiz-adv-x="2217" 
d="M799 1333v-1227l162 -59v-47h-553v47l163 59v1227h-299l-213 -299h-49l62 400h1343l62 -400h-52l-215 299h-411zM2130 395h49l-57 -395h-998v47l162 59v607l-162 59v47h551v-47l-162 -59v-613h410z" />
    <glyph glyph-name="T_L_A.liga" unicode="TLA" horiz-adv-x="3106" 
d="M799 1333v-1227l162 -59v-47h-553v47l163 59v1227h-299l-213 -299h-49l62 400h1343l62 -400h-52l-215 299h-411zM2959 100l138 -53v-47h-572v47l189 53l-174 418h-549l-168 -418h182l207 295h49l-57 -395h-1080v47l162 59v607l-162 59v47h551v-47l-162 -59v-613h197
l547 1334h151zM2032 621h465l-236 565z" />
    <glyph glyph-name="T_L_I.liga" unicode="TLI" horiz-adv-x="2428" 
d="M799 1333v-1227l162 -59v-47h-553v47l163 59v1227h-299l-213 -299h-49l62 400h1343l62 -400h-52l-215 299h-411zM2361 1386l-161 -59v-606l161 -59v-48h-551v48l162 59v606l-162 59v48h551v-48zM1944 100l206 295h52l-58 -395h-1020v47l162 59v607l-162 59v47h551v-47
l-162 -59v-613h431z" />
    <glyph glyph-name="T_Lcommaaccent.liga" unicode="T&#x13b;" horiz-adv-x="2217" 
d="M799 1333v-1227l162 -59v-47h-553v47l163 59v1227h-299l-213 -299h-49l62 400h1343l62 -400h-52l-215 299h-411zM2130 395h49l-57 -395h-998v47l162 59v607l-162 59v47h551v-47l-162 -59v-613h410zM1681 -78q68 -66 78.5 -151t-44.5 -161.5t-165 -113.5l-41 33
q50 52 44.5 152.5t-64.5 162.5v2z" />
    <glyph glyph-name="T_T.liga" unicode="TT" horiz-adv-x="2105" 
d="M1831 1333h-297v-1227l164 -59v-47h-553v47l162 59v1227h-508v-1227l162 -59v-47h-553v47l163 59v1227h-299l-213 -299h-49l62 400h1962l61 -400h-49z" />
    <glyph glyph-name="T_U.liga" unicode="TU" horiz-adv-x="2572" 
d="M799 1333v-1227l162 -59v-47h-553v47l163 59v1227h-299l-213 -299h-49l62 400h1331l61 -400h-49l-215 299h-401zM2523 1434v-48l-139 -75v-840q0 -122 -44 -218.5t-120.5 -156t-174 -90.5t-208.5 -31q-84 0 -161 15.5t-151 52.5t-128.5 92.5t-87.5 143t-33 196.5v311h227
v-270q0 -87 25.5 -156.5t66 -113.5t96 -73.5t112 -41.5t116.5 -12q71 0 135.5 25t115 71t80 118t29.5 161v813l-188 79v48h432z" />
    <glyph glyph-name="T_Uacute.liga" unicode="T&#xda;" horiz-adv-x="2572" 
d="M2279 1712l-575 -180l-41 47l375 328h4l237 -185v-10zM799 1333v-1227l162 -59v-47h-553v47l163 59v1227h-299l-213 -299h-49l62 400h1331l61 -400h-49l-215 299h-401zM2523 1434v-48l-139 -75v-840q0 -122 -44 -218.5t-120.5 -156t-174 -90.5t-208.5 -31
q-84 0 -161 15.5t-151 52.5t-128.5 92.5t-87.5 143t-33 196.5v311h227v-270q0 -87 25.5 -156.5t66 -113.5t96 -73.5t112 -41.5t116.5 -12q71 0 135.5 25t115 71t80 118t29.5 161v813l-188 79v48h432z" />
    <glyph glyph-name="T_Ubreve.liga" unicode="T&#x16c;" horiz-adv-x="2572" 
d="M1878 1542q-42 0 -82.5 10t-81.5 34t-71.5 61t-50 95.5t-19.5 131.5l69 2q25 -61 88 -104t148 -43q84 0 147.5 42.5t90.5 104.5l69 -2q0 -90 -29 -158t-76 -104t-98 -53t-104 -17zM799 1333v-1227l162 -59v-47h-553v47l163 59v1227h-299l-213 -299h-49l62 400h1331
l61 -400h-49l-215 299h-401zM2523 1434v-48l-139 -75v-840q0 -122 -44 -218.5t-120.5 -156t-174 -90.5t-208.5 -31q-84 0 -161 15.5t-151 52.5t-128.5 92.5t-87.5 143t-33 196.5v311h227v-270q0 -87 25.5 -156.5t66 -113.5t96 -73.5t112 -41.5t116.5 -12q71 0 135.5 25
t115 71t80 118t29.5 161v813l-188 79v48h432z" />
    <glyph glyph-name="T_Ucircumflex.liga" unicode="T&#xdb;" horiz-adv-x="2572" 
d="M1868 1710l-312 -178l-47 37l240 317h252l237 -315l-47 -39zM799 1333v-1227l162 -59v-47h-553v47l163 59v1227h-299l-213 -299h-49l62 400h1331l61 -400h-49l-215 299h-401zM2523 1434v-48l-139 -75v-840q0 -122 -44 -218.5t-120.5 -156t-174 -90.5t-208.5 -31
q-84 0 -161 15.5t-151 52.5t-128.5 92.5t-87.5 143t-33 196.5v311h227v-270q0 -87 25.5 -156.5t66 -113.5t96 -73.5t112 -41.5t116.5 -12q71 0 135.5 25t115 71t80 118t29.5 161v813l-188 79v48h432z" />
    <glyph glyph-name="T_Udieresis.liga" unicode="T&#xdc;" horiz-adv-x="2572" 
d="M1675 1597q-59 0 -100 41t-41 99q0 57 41 97t100 40q60 0 101 -40t41 -97q0 -59 -41 -99.5t-101 -40.5zM2081 1597q-60 0 -101 40.5t-41 99.5q0 57 41 97t101 40q59 0 100 -40t41 -97q0 -58 -41 -99t-100 -41zM799 1333v-1227l162 -59v-47h-553v47l163 59v1227h-299
l-213 -299h-49l62 400h1331l61 -400h-49l-215 299h-401zM2523 1434v-48l-139 -75v-840q0 -122 -44 -218.5t-120.5 -156t-174 -90.5t-208.5 -31q-84 0 -161 15.5t-151 52.5t-128.5 92.5t-87.5 143t-33 196.5v311h227v-270q0 -87 25.5 -156.5t66 -113.5t96 -73.5t112 -41.5
t116.5 -12q71 0 135.5 25t115 71t80 118t29.5 161v813l-188 79v48h432z" />
    <glyph glyph-name="T_Ugrave.liga" unicode="T&#xd9;" horiz-adv-x="2572" 
d="M2075 1585l-33 -53l-547 154v8l199 213h4zM799 1333v-1227l162 -59v-47h-553v47l163 59v1227h-299l-213 -299h-49l62 400h1331l61 -400h-49l-215 299h-401zM2523 1434v-48l-139 -75v-840q0 -122 -44 -218.5t-120.5 -156t-174 -90.5t-208.5 -31q-84 0 -161 15.5t-151 52.5
t-128.5 92.5t-87.5 143t-33 196.5v311h227v-270q0 -87 25.5 -156.5t66 -113.5t96 -73.5t112 -41.5t116.5 -12q71 0 135.5 25t115 71t80 118t29.5 161v813l-188 79v48h432z" />
    <glyph glyph-name="T_Uhungarumlaut.liga" unicode="T&#x170;" horiz-adv-x="2572" 
d="M2028 1821l-449 -289l-49 33l184 338h4l310 -70v-12zM1958 1534l-51 39l284 330h4l285 -103v-10zM799 1333v-1227l162 -59v-47h-553v47l163 59v1227h-299l-213 -299h-49l62 400h1331l61 -400h-49l-215 299h-401zM2523 1434v-48l-139 -75v-840q0 -122 -44 -218.5
t-120.5 -156t-174 -90.5t-208.5 -31q-84 0 -161 15.5t-151 52.5t-128.5 92.5t-87.5 143t-33 196.5v311h227v-270q0 -87 25.5 -156.5t66 -113.5t96 -73.5t112 -41.5t116.5 -12q71 0 135.5 25t115 71t80 118t29.5 161v813l-188 79v48h432z" />
    <glyph glyph-name="T_Umacron.liga" unicode="T&#x16a;" horiz-adv-x="2572" 
d="M2159 1784v-154h-560v154h560zM799 1333v-1227l162 -59v-47h-553v47l163 59v1227h-299l-213 -299h-49l62 400h1331l61 -400h-49l-215 299h-401zM2523 1434v-48l-139 -75v-840q0 -122 -44 -218.5t-120.5 -156t-174 -90.5t-208.5 -31q-84 0 -161 15.5t-151 52.5
t-128.5 92.5t-87.5 143t-33 196.5v311h227v-270q0 -87 25.5 -156.5t66 -113.5t96 -73.5t112 -41.5t116.5 -12q71 0 135.5 25t115 71t80 118t29.5 161v813l-188 79v48h432z" />
    <glyph glyph-name="T_Uogonek.liga" unicode="T&#x172;" horiz-adv-x="2572" 
d="M799 1333v-1227l162 -59v-47h-553v47l163 59v1227h-299l-213 -299h-49l62 400h1331l61 -400h-49l-215 299h-401zM2523 1434v-48l-139 -75v-840q0 -109 -35.5 -197.5t-98 -148t-143 -95.5t-176.5 -48q-80 -140 -80 -252q0 -69 49 -102.5t113 -14.5v-57q-53 -32 -117.5 -40
t-119.5 7.5t-92 59t-37 106.5q0 40 16 78.5t49.5 77t61 64.5t75.5 66h-12q-84 0 -161 15.5t-151 52.5t-128.5 92.5t-87.5 143t-33 196.5v311h227v-270q0 -87 25.5 -156.5t66 -113.5t96 -73.5t112 -41.5t116.5 -12q71 0 135.5 25t115 71t80 118t29.5 161v813l-188 79v48h432z
" />
    <glyph glyph-name="T_Uring.liga" unicode="T&#x16e;" horiz-adv-x="2572" 
d="M1878 1499q-104 0 -173 55t-69 148q0 91 62 159t178 68q106 0 175 -55t69 -148q0 -91 -62.5 -159t-179.5 -68zM1778 1788q-23 -27 -23 -66q0 -57 36.5 -86.5t98.5 -29.5q44 0 86 28q25 29 25 72q0 56 -36 85.5t-97 29.5q-51 0 -90 -33zM799 1333v-1227l162 -59v-47h-553
v47l163 59v1227h-299l-213 -299h-49l62 400h1331l61 -400h-49l-215 299h-401zM2523 1434v-48l-139 -75v-840q0 -122 -44 -218.5t-120.5 -156t-174 -90.5t-208.5 -31q-84 0 -161 15.5t-151 52.5t-128.5 92.5t-87.5 143t-33 196.5v311h227v-270q0 -87 25.5 -156.5t66 -113.5
t96 -73.5t112 -41.5t116.5 -12q71 0 135.5 25t115 71t80 118t29.5 161v813l-188 79v48h432z" />
    <glyph glyph-name="T_Utilde.liga" unicode="T&#x168;" horiz-adv-x="2572" 
d="M1710 1683q-11 0 -21.5 -2t-18.5 -4t-16.5 -8.5t-14 -9.5t-13.5 -13t-10.5 -13t-10.5 -16.5t-9.5 -15.5t-9.5 -17.5t-9 -16.5l-59 20q29 134 89.5 210.5t147.5 76.5q47 0 93 -20t75.5 -43.5t65 -43.5t63.5 -20q15 0 28 2.5t25.5 12t19 13.5t17.5 21t13.5 20t14.5 25
t13 23l60 -21q-28 -133 -90 -210t-148 -77q-47 0 -93 20t-76 43.5t-64.5 43.5t-61.5 20zM799 1333v-1227l162 -59v-47h-553v47l163 59v1227h-299l-213 -299h-49l62 400h1331l61 -400h-49l-215 299h-401zM2523 1434v-48l-139 -75v-840q0 -122 -44 -218.5t-120.5 -156
t-174 -90.5t-208.5 -31q-84 0 -161 15.5t-151 52.5t-128.5 92.5t-87.5 143t-33 196.5v311h227v-270q0 -87 25.5 -156.5t66 -113.5t96 -73.5t112 -41.5t116.5 -12q71 0 135.5 25t115 71t80 118t29.5 161v813l-188 79v48h432z" />
    <glyph glyph-name="T_V.liga" unicode="TV" horiz-adv-x="2551" 
d="M2552 1434v-48l-148 -75l-526 -1311h-152l-538 1327l-14 6h-375v-1227l162 -59v-47h-553v47l163 59v1227h-299l-213 -299h-49l62 400h1589v-48l-225 -59l436 -1077l418 1055l-250 81v48h512z" />
    <glyph glyph-name="T_W.liga" unicode="TW" horiz-adv-x="3203" 
d="M3193 1434v-48l-137 -71l-412 -1315h-158l-354 1006l-344 -1006h-156l-442 1331l-6 2h-385v-1227l162 -59v-47h-553v47l163 59v1227h-299l-213 -299h-49l62 400h1558v-48l-198 -61l346 -1042l301 876l-60 170l-133 57v48h570v-48l-195 -61l367 -1034l317 1012l-225 83v48
h473z" />
    <glyph glyph-name="T_Wacute.liga" unicode="T&#x1e82;" horiz-adv-x="3203" 
d="M2566 1712l-575 -180l-41 47l374 328h5l237 -185v-10zM3193 1434v-48l-137 -71l-412 -1315h-158l-354 1006l-344 -1006h-156l-442 1331l-6 2h-385v-1227l162 -59v-47h-553v47l163 59v1227h-299l-213 -299h-49l62 400h1558v-48l-198 -61l346 -1042l301 876l-60 170
l-133 57v48h570v-48l-195 -61l367 -1034l317 1012l-225 83v48h473z" />
    <glyph glyph-name="T_Wcircumflex.liga" unicode="T&#x174;" horiz-adv-x="3203" 
d="M2154 1710l-311 -178l-47 37l240 317h252l237 -315l-47 -39zM3193 1434v-48l-137 -71l-412 -1315h-158l-354 1006l-344 -1006h-156l-442 1331l-6 2h-385v-1227l162 -59v-47h-553v47l163 59v1227h-299l-213 -299h-49l62 400h1558v-48l-198 -61l346 -1042l301 876l-60 170
l-133 57v48h570v-48l-195 -61l367 -1034l317 1012l-225 83v48h473z" />
    <glyph glyph-name="T_Wdieresis.liga" unicode="T&#x1e84;" horiz-adv-x="3203" 
d="M1964 1597q-59 0 -100 41t-41 99q0 57 41 97t100 40q60 0 100.5 -40t40.5 -97q0 -59 -40.5 -99.5t-100.5 -40.5zM2370 1597q-60 0 -101 40.5t-41 99.5q0 57 41 97t101 40q59 0 100 -40t41 -97q0 -58 -41 -99t-100 -41zM3193 1434v-48l-137 -71l-412 -1315h-158l-354 1006
l-344 -1006h-156l-442 1331l-6 2h-385v-1227l162 -59v-47h-553v47l163 59v1227h-299l-213 -299h-49l62 400h1558v-48l-198 -61l346 -1042l301 876l-60 170l-133 57v48h570v-48l-195 -61l367 -1034l317 1012l-225 83v48h473z" />
    <glyph glyph-name="T_Wgrave.liga" unicode="T&#x1e80;" horiz-adv-x="3203" 
d="M2361 1585l-32 -53l-547 154v8l198 213h5zM3193 1434v-48l-137 -71l-412 -1315h-158l-354 1006l-344 -1006h-156l-442 1331l-6 2h-385v-1227l162 -59v-47h-553v47l163 59v1227h-299l-213 -299h-49l62 400h1558v-48l-198 -61l346 -1042l301 876l-60 170l-133 57v48h570
v-48l-195 -61l367 -1034l317 1012l-225 83v48h473z" />
    <glyph glyph-name="T_Y.liga" unicode="TY" horiz-adv-x="2437" 
d="M2298 1311l-440 -695v-510l161 -59v-47h-553v47l164 59v504l-479 723h-352v-1227l162 -59v-47h-553v47l163 59v1227h-299l-213 -299h-49l62 400h1519v-48l-170 -49l394 -604l362 580l-203 73v48h473v-48z" />
    <glyph glyph-name="T_Yacute.liga" unicode="T&#xdd;" horiz-adv-x="2437" 
d="M2173 1712l-576 -180l-41 47l375 328h4l238 -185v-10zM2298 1311l-440 -695v-510l161 -59v-47h-553v47l164 59v504l-479 723h-352v-1227l162 -59v-47h-553v47l163 59v1227h-299l-213 -299h-49l62 400h1519v-48l-170 -49l394 -604l362 580l-203 73v48h473v-48z" />
    <glyph glyph-name="T_Ycircumflex.liga" unicode="T&#x176;" horiz-adv-x="2437" 
d="M1761 1710l-311 -178l-47 37l239 317h252l238 -315l-47 -39zM2298 1311l-440 -695v-510l161 -59v-47h-553v47l164 59v504l-479 723h-352v-1227l162 -59v-47h-553v47l163 59v1227h-299l-213 -299h-49l62 400h1519v-48l-170 -49l394 -604l362 580l-203 73v48h473v-48z" />
    <glyph glyph-name="T_Ydieresis.liga" unicode="T&#x178;" horiz-adv-x="2437" 
d="M1569 1597q-59 0 -100.5 41t-41.5 99q0 57 41.5 97t100.5 40q60 0 100.5 -40t40.5 -97q0 -59 -40.5 -99.5t-100.5 -40.5zM1974 1597q-60 0 -100.5 40.5t-40.5 99.5q0 57 40.5 97t100.5 40q59 0 100.5 -40t41.5 -97q0 -58 -41.5 -99t-100.5 -41zM2298 1311l-440 -695v-510
l161 -59v-47h-553v47l164 59v504l-479 723h-352v-1227l162 -59v-47h-553v47l163 59v1227h-299l-213 -299h-49l62 400h1519v-48l-170 -49l394 -604l362 580l-203 73v48h473v-48z" />
    <glyph glyph-name="T_Ygrave.liga" unicode="T&#x1ef2;" horiz-adv-x="2437" 
d="M1968 1585l-33 -53l-546 154v8l198 213h4zM2298 1311l-440 -695v-510l161 -59v-47h-553v47l164 59v504l-479 723h-352v-1227l162 -59v-47h-553v47l163 59v1227h-299l-213 -299h-49l62 400h1519v-48l-170 -49l394 -604l362 580l-203 73v48h473v-48z" />
    <glyph glyph-name="T_b.liga" unicode="Tb" horiz-adv-x="2217" 
d="M1765 1014q170 0 268.5 -134.5t98.5 -344.5q0 -152 -55.5 -279t-161 -204t-238.5 -77q-227 0 -422 113v1245h-456v-1227l159 -59v-47h-550v47l161 59h2v1227h-299l-213 -299h-49l62 400h1147l241 92l10 -2v-699q53 80 130.5 134.5t164.5 54.5zM1630 90q59 0 108.5 20.5
t89 62t61.5 112t22 164.5q0 109 -20 189.5t-55 125.5t-76.5 66.5t-90.5 21.5q-48 0 -102 -39.5t-97 -101.5v-590q81 -31 160 -31z" />
    <glyph glyph-name="T_h.liga" unicode="Th" horiz-adv-x="2273" 
d="M2099 102l139 -55v-47h-491v47l139 55v539q0 97 -44.5 150t-121.5 53q-57 0 -123.5 -34.5t-126.5 -102.5v-605l138 -55v-47h-490v47l137 55v1231h-456v-1227l162 -59v-47h-553v47l163 59v1227h-299l-213 -299h-49l62 400h1147l241 92l10 -2v-719q81 105 171.5 157
t173.5 52q130 0 207 -89.5t77 -250.5v-572z" />
    <glyph glyph-name="T_hbar.liga" unicode="T&#x127;" horiz-adv-x="2273" 
d="M2099 102l139 -55v-47h-491v47l139 55v529q0 97 -44.5 150t-121.5 53q-57 0 -123 -35t-127 -103v-594l138 -55v-47h-490v47l137 55v1020h-141v97h141v114h-456v-1227l162 -59v-47h-553v47l163 59v1227h-299l-213 -299h-49l62 400h1147l241 92l10 -2v-305h281v-97h-281
v-327q81 105 171.5 157t173.5 52q130 0 207 -89.5t77 -250.5v-562z" />
    <glyph glyph-name="T_k.liga" unicode="Tk" horiz-adv-x="2250" 
d="M2095 96l133 -49v-47h-319l-326 492l-113 -93v-297l138 -55v-47h-490v47l137 55v1231h-456v-1227l162 -59v-47h-553v47l163 59v1227h-299l-213 -299h-49l62 400h1147l241 92l10 -2v-1004l426 357l-161 63v49h460v-49l-141 -55l-305 -254z" />
    <glyph glyph-name="T_l.liga" unicode="Tl" horiz-adv-x="1642" 
d="M1470 102l138 -55v-47h-490v47l137 55v1231h-456v-1227l162 -59v-47h-553v47l163 59v1227h-299l-213 -299h-49l62 400h1147l241 92l10 -2v-1422z" />
    <glyph glyph-name="T_lcaron.liga" unicode="T&#x13e;" horiz-adv-x="1642" 
d="M1726 1552q66 -81 79.5 -167.5t-35 -168.5t-158.5 -139l-41 25q22 36 33 71.5t13 81t-16.5 101.5t-56.5 119v4zM1470 1524v-1422l138 -55v-47h-490v47l137 55v1231h-456v-1227l162 -59v-47h-553v47l163 59v1227h-299l-213 -299h-49l62 400h1147l241 92z" />
    <glyph glyph-name="Tbar_H.liga" unicode="&#x166;H" horiz-adv-x="2629" 
d="M799 1333v-542h245v-103h-245v-582l162 -59v-47h-553v47l163 59v582h-247v103h247v542h-299l-213 -299h-49l62 400h1364l61 -400h-49l-215 299h-434zM2585 1386l-162 -59v-1221l162 -59v-47h-553v47l163 59v578h-682v-578l162 -59v-47h-551v47l162 59v680h909v541
l-163 59v48h553v-48z" />
    <glyph glyph-name="Tbar_I.liga" unicode="&#x166;I" horiz-adv-x="1712" 
d="M799 1333v-542h245v-103h-245v-582l162 -59v-47h-553v47l163 59v582h-247v103h247v542h-299l-213 -299h-49l62 400h1343l62 -400h-52l-215 299h-411zM1675 743l-162 -59v-578l162 -59v-47h-551v47l162 59v578l-162 59v50h551v-50z" />
    <glyph glyph-name="Tbar_L.liga" unicode="&#x166;L" horiz-adv-x="2217" 
d="M799 1333v-542h245v-103h-245v-582l162 -59v-47h-553v47l163 59v582h-247v103h247v542h-299l-213 -299h-49l62 400h1343l62 -400h-52l-215 299h-411zM2130 395h49l-57 -395h-998v47l162 59v607l-162 59v47h551v-47l-162 -59v-613h410z" />
    <glyph glyph-name="Tbar_U.liga" unicode="&#x166;U" horiz-adv-x="2572" 
d="M799 1333v-542h245v-103h-245v-582l162 -59v-47h-553v47l163 59v582h-247v103h247v542h-299l-213 -299h-49l62 400h1331l61 -400h-49l-215 299h-401zM2523 1434v-48l-139 -75v-840q0 -122 -44 -218.5t-120.5 -156t-174 -90.5t-208.5 -31q-84 0 -161 15.5t-151 52.5
t-128.5 92.5t-87.5 143t-33 196.5v311h227v-270q0 -87 25.5 -156.5t66 -113.5t96 -73.5t112 -41.5t116.5 -12q71 0 135.5 25t115 71t80 118t29.5 161v813l-188 79v48h432z" />
    <glyph glyph-name="Tbar_V.liga" unicode="&#x166;V" horiz-adv-x="2551" 
d="M2552 1434v-48l-148 -75l-526 -1311h-152l-538 1327l-14 6h-375v-542h245v-103h-245v-582l162 -59v-47h-553v47l163 59v582h-247v103h247v542h-299l-213 -299h-49l62 400h1589v-48l-225 -59l436 -1077l418 1055l-250 81v48h512z" />
    <glyph glyph-name="Tbar_W.liga" unicode="&#x166;W" horiz-adv-x="3203" 
d="M3193 1434v-48l-137 -71l-412 -1315h-158l-354 1006l-344 -1006h-156l-442 1331l-6 2h-385v-542h245v-103h-245v-582l162 -59v-47h-553v47l163 59v582h-247v103h247v542h-299l-213 -299h-49l62 400h1558v-48l-198 -61l346 -1042l301 876l-60 170l-133 57v48h570v-48
l-195 -61l367 -1034l317 1012l-225 83v48h473z" />
    <glyph glyph-name="Tbar_Y.liga" unicode="&#x166;Y" horiz-adv-x="2437" 
d="M2298 1311l-440 -695v-510l161 -59v-47h-553v47l164 59v504l-479 723h-352v-542h245v-103h-245v-582l162 -59v-47h-553v47l163 59v582h-247v103h247v542h-299l-213 -299h-49l62 400h1519v-48l-170 -49l394 -604l362 580l-203 73v48h473v-48z" />
    <glyph glyph-name="Tcaron_H.liga" unicode="&#x164;H" horiz-adv-x="2629" 
d="M557 1552l-238 316l48 39l323 -178l311 178l48 -37l-240 -318h-252zM799 1333v-1227l162 -59v-47h-553v47l163 59v1227h-299l-213 -299h-49l62 400h1364l61 -400h-49l-215 299h-434zM2585 1386l-162 -59v-1221l162 -59v-47h-553v47l163 59v578h-682v-578l162 -59v-47
h-551v47l162 59v680h909v541l-163 59v48h553v-48z" />
    <glyph glyph-name="Tcaron_I.liga" unicode="&#x164;I" horiz-adv-x="1712" 
d="M557 1552l-238 316l48 39l323 -178l311 178l48 -37l-240 -318h-252zM799 1333v-1227l162 -59v-47h-553v47l163 59v1227h-299l-213 -299h-49l62 400h1343l62 -400h-52l-215 299h-411zM1675 743l-162 -59v-578l162 -59v-47h-551v47l162 59v578l-162 59v50h551v-50z" />
    <glyph glyph-name="Tcaron_L.liga" unicode="&#x164;L" horiz-adv-x="2217" 
d="M557 1552l-238 316l48 39l323 -178l311 178l48 -37l-240 -318h-252zM799 1333v-1227l162 -59v-47h-553v47l163 59v1227h-299l-213 -299h-49l62 400h1343l62 -400h-52l-215 299h-411zM2130 395h49l-57 -395h-998v47l162 59v607l-162 59v47h551v-47l-162 -59v-613h410z" />
    <glyph glyph-name="Tcaron_T.liga" unicode="&#x164;T" horiz-adv-x="2105" 
d="M557 1552l-238 316l48 39l323 -178l311 178l48 -37l-240 -318h-252zM1831 1333h-297v-1227l164 -59v-47h-553v47l162 59v1227h-508v-1227l162 -59v-47h-553v47l163 59v1227h-299l-213 -299h-49l62 400h1962l61 -400h-49z" />
    <glyph glyph-name="Tcaron_U.liga" unicode="&#x164;U" horiz-adv-x="2572" 
d="M557 1552l-238 316l48 39l323 -178l311 178l48 -37l-240 -318h-252zM799 1333v-1227l162 -59v-47h-553v47l163 59v1227h-299l-213 -299h-49l62 400h1331l61 -400h-49l-215 299h-401zM2523 1434v-48l-139 -75v-840q0 -122 -44 -218.5t-120.5 -156t-174 -90.5t-208.5 -31
q-84 0 -161 15.5t-151 52.5t-128.5 92.5t-87.5 143t-33 196.5v311h227v-270q0 -87 25.5 -156.5t66 -113.5t96 -73.5t112 -41.5t116.5 -12q71 0 135.5 25t115 71t80 118t29.5 161v813l-188 79v48h432z" />
    <glyph glyph-name="Tcaron_V.liga" unicode="&#x164;V" horiz-adv-x="2551" 
d="M557 1552l-238 316l48 39l323 -178l311 178l48 -37l-240 -318h-252zM2552 1434v-48l-148 -75l-526 -1311h-152l-538 1327l-14 6h-375v-1227l162 -59v-47h-553v47l163 59v1227h-299l-213 -299h-49l62 400h1589v-48l-225 -59l436 -1077l418 1055l-250 81v48h512z" />
    <glyph glyph-name="Tcaron_W.liga" unicode="&#x164;W" horiz-adv-x="3203" 
d="M557 1552l-238 316l48 39l323 -178l311 178l48 -37l-240 -318h-252zM3193 1434v-48l-137 -71l-412 -1315h-158l-354 1006l-344 -1006h-156l-442 1331l-6 2h-385v-1227l162 -59v-47h-553v47l163 59v1227h-299l-213 -299h-49l62 400h1558v-48l-198 -61l346 -1042l301 876
l-60 170l-133 57v48h570v-48l-195 -61l367 -1034l317 1012l-225 83v48h473z" />
    <glyph glyph-name="Tcaron_Y.liga" unicode="&#x164;Y" horiz-adv-x="2437" 
d="M557 1552l-238 316l48 39l323 -178l311 178l48 -37l-240 -318h-252zM2298 1311l-440 -695v-510l161 -59v-47h-553v47l164 59v504l-479 723h-352v-1227l162 -59v-47h-553v47l163 59v1227h-299l-213 -299h-49l62 400h1519v-48l-170 -49l394 -604l362 580l-203 73v48h473
v-48z" />
    <glyph glyph-name="uni01620048.liga" unicode="&#x162;H" horiz-adv-x="2629" 
d="M799 1333v-1227l162 -59v-47h-224l-61 -96q95 -23 146.5 -73.5t51.5 -119.5q0 -71 -57 -123.5t-142.5 -67.5t-185.5 5v59q89 -3 134 19t45 84q0 77 -80 92l-76 14l-2 4l129 203h-231v47l163 59v1227h-299l-213 -299h-49l62 400h1364l61 -400h-49l-215 299h-434z
M2585 1386l-162 -59v-1221l162 -59v-47h-553v47l163 59v578h-682v-578l162 -59v-47h-551v47l162 59v680h909v541l-163 59v48h553v-48z" />
    <glyph glyph-name="uni01620049.liga" unicode="&#x162;I" horiz-adv-x="1712" 
d="M799 1333v-1227l162 -59v-47h-224l-61 -96q95 -23 146.5 -73.5t51.5 -119.5q0 -71 -57 -123.5t-142.5 -67.5t-185.5 5v59q89 -3 134 19t45 84q0 77 -80 92l-76 14l-2 4l129 203h-231v47l163 59v1227h-299l-213 -299h-49l62 400h1343l62 -400h-52l-215 299h-411zM1675 743
l-162 -59v-578l162 -59v-47h-551v47l162 59v578l-162 59v50h551v-50z" />
    <glyph glyph-name="uni0162004C.liga" unicode="&#x162;L" horiz-adv-x="2217" 
d="M799 1333v-1227l162 -59v-47h-224l-61 -96q95 -23 146.5 -73.5t51.5 -119.5q0 -71 -57 -123.5t-142.5 -67.5t-185.5 5v59q89 -3 134 19t45 84q0 77 -80 92l-76 14l-2 4l129 203h-231v47l163 59v1227h-299l-213 -299h-49l62 400h1343l62 -400h-52l-215 299h-411zM2130 395
h49l-57 -395h-998v47l162 59v607l-162 59v47h551v-47l-162 -59v-613h410z" />
    <glyph glyph-name="uni01620055.liga" unicode="&#x162;U" horiz-adv-x="2572" 
d="M799 1333v-1227l162 -59v-47h-224l-61 -96q95 -23 146.5 -73.5t51.5 -119.5q0 -71 -57 -123.5t-142.5 -67.5t-185.5 5v59q89 -3 134 19t45 84q0 77 -80 92l-76 14l-2 4l129 203h-231v47l163 59v1227h-299l-213 -299h-49l62 400h1331l61 -400h-49l-215 299h-401z
M2523 1434v-48l-139 -75v-840q0 -122 -44 -218.5t-120.5 -156t-174 -90.5t-208.5 -31q-84 0 -161 15.5t-151 52.5t-128.5 92.5t-87.5 143t-33 196.5v311h227v-270q0 -87 25.5 -156.5t66 -113.5t96 -73.5t112 -41.5t116.5 -12q71 0 135.5 25t115 71t80 118t29.5 161v813
l-188 79v48h432z" />
    <glyph glyph-name="uni01620056.liga" unicode="&#x162;V" horiz-adv-x="2551" 
d="M2552 1434v-48l-148 -75l-526 -1311h-152l-538 1327l-14 6h-375v-1227l162 -59v-47h-224l-61 -96q95 -23 146.5 -73.5t51.5 -119.5q0 -71 -57 -123.5t-142.5 -67.5t-185.5 5v59q89 -3 134 19t45 84q0 77 -80 92l-76 14l-2 4l129 203h-231v47l163 59v1227h-299l-213 -299
h-49l62 400h1589v-48l-225 -59l436 -1077l418 1055l-250 81v48h512z" />
    <glyph glyph-name="uni01620057.liga" unicode="&#x162;W" horiz-adv-x="3203" 
d="M3193 1434v-48l-137 -71l-412 -1315h-158l-354 1006l-344 -1006h-156l-442 1331l-6 2h-385v-1227l162 -59v-47h-224l-61 -96q95 -23 146.5 -73.5t51.5 -119.5q0 -71 -57 -123.5t-142.5 -67.5t-185.5 5v59q89 -3 134 19t45 84q0 77 -80 92l-76 14l-2 4l129 203h-231v47
l163 59v1227h-299l-213 -299h-49l62 400h1558v-48l-198 -61l346 -1042l301 876l-60 170l-133 57v48h570v-48l-195 -61l367 -1034l317 1012l-225 83v48h473z" />
    <glyph glyph-name="uni01620059.liga" unicode="&#x162;Y" horiz-adv-x="2437" 
d="M2298 1311l-440 -695v-510l161 -59v-47h-553v47l164 59v504l-479 723h-352v-1227l162 -59v-47h-224l-61 -96q95 -23 146.5 -73.5t51.5 -119.5q0 -71 -57 -123.5t-142.5 -67.5t-185.5 5v59q89 -3 134 19t45 84q0 77 -80 92l-76 14l-2 4l129 203h-231v47l163 59v1227h-299
l-213 -299h-49l62 400h1519v-48l-170 -49l394 -604l362 580l-203 73v48h473v-48z" />
    <glyph glyph-name="uni021A0048.liga" unicode="&#x21a;H" horiz-adv-x="2629" 
d="M799 1333v-1227l162 -59v-47h-553v47l163 59v1227h-299l-213 -299h-49l62 400h1364l61 -400h-49l-215 299h-434zM2585 1386l-162 -59v-1221l162 -59v-47h-553v47l163 59v578h-682v-578l162 -59v-47h-551v47l162 59v680h909v541l-163 59v48h553v-48zM743 -78
q68 -66 78.5 -151t-44.5 -161.5t-165 -113.5l-41 33q50 52 44.5 152.5t-64.5 162.5v2z" />
    <glyph glyph-name="uni021A0049.liga" unicode="&#x21a;I" horiz-adv-x="1712" 
d="M799 1333v-1227l162 -59v-47h-553v47l163 59v1227h-299l-213 -299h-49l62 400h1343l62 -400h-52l-215 299h-411zM1675 743l-162 -59v-578l162 -59v-47h-551v47l162 59v578l-162 59v50h551v-50zM743 -78q68 -66 78.5 -151t-44.5 -161.5t-165 -113.5l-41 33
q50 52 44.5 152.5t-64.5 162.5v2z" />
    <glyph glyph-name="uni021A004C.liga" unicode="&#x21a;L" horiz-adv-x="2217" 
d="M799 1333v-1227l162 -59v-47h-553v47l163 59v1227h-299l-213 -299h-49l62 400h1343l62 -400h-52l-215 299h-411zM2130 395h49l-57 -395h-998v47l162 59v607l-162 59v47h551v-47l-162 -59v-613h410zM743 -78q68 -66 78.5 -151t-44.5 -161.5t-165 -113.5l-41 33
q50 52 44.5 152.5t-64.5 162.5v2z" />
    <glyph glyph-name="uni021A0055.liga" unicode="&#x21a;U" horiz-adv-x="2572" 
d="M799 1333v-1227l162 -59v-47h-553v47l163 59v1227h-299l-213 -299h-49l62 400h1331l61 -400h-49l-215 299h-401zM2523 1434v-48l-139 -75v-840q0 -122 -44 -218.5t-120.5 -156t-174 -90.5t-208.5 -31q-84 0 -161 15.5t-151 52.5t-128.5 92.5t-87.5 143t-33 196.5v311h227
v-270q0 -87 25.5 -156.5t66 -113.5t96 -73.5t112 -41.5t116.5 -12q71 0 135.5 25t115 71t80 118t29.5 161v813l-188 79v48h432zM743 -78q68 -66 78.5 -151t-44.5 -161.5t-165 -113.5l-41 33q50 52 44.5 152.5t-64.5 162.5v2z" />
    <glyph glyph-name="uni021A0056.liga" unicode="&#x21a;V" horiz-adv-x="2551" 
d="M2552 1434v-48l-148 -75l-526 -1311h-152l-538 1327l-14 6h-375v-1227l162 -59v-47h-553v47l163 59v1227h-299l-213 -299h-49l62 400h1589v-48l-225 -59l436 -1077l418 1055l-250 81v48h512zM743 -78q68 -66 78.5 -151t-44.5 -161.5t-165 -113.5l-41 33q50 52 44.5 152.5
t-64.5 162.5v2z" />
    <glyph glyph-name="uni021A0057.liga" unicode="&#x21a;W" horiz-adv-x="3203" 
d="M3193 1434v-48l-137 -71l-412 -1315h-158l-354 1006l-344 -1006h-156l-442 1331l-6 2h-385v-1227l162 -59v-47h-553v47l163 59v1227h-299l-213 -299h-49l62 400h1558v-48l-198 -61l346 -1042l301 876l-60 170l-133 57v48h570v-48l-195 -61l367 -1034l317 1012l-225 83v48
h473zM743 -78q68 -66 78.5 -151t-44.5 -161.5t-165 -113.5l-41 33q50 52 44.5 152.5t-64.5 162.5v2z" />
    <glyph glyph-name="uni021A0059.liga" unicode="&#x21a;Y" horiz-adv-x="2437" 
d="M2298 1311l-440 -695v-510l161 -59v-47h-553v47l164 59v504l-479 723h-352v-1227l162 -59v-47h-553v47l163 59v1227h-299l-213 -299h-49l62 400h1519v-48l-170 -49l394 -604l362 580l-203 73v48h473v-48zM743 -78q68 -66 78.5 -151t-44.5 -161.5t-165 -113.5l-41 33
q50 52 44.5 152.5t-64.5 162.5v2z" />
    <glyph glyph-name="U_M.liga" unicode="UM" horiz-adv-x="2871" 
d="M2826 1386l-164 -59v-1221l164 -59v-47h-553v47l162 59v1194l-520 -1300h-49l-557 1284v-813q0 -122 -44 -218.5t-120.5 -156t-174 -90.5t-208.5 -31q-84 0 -161 15.5t-151 52.5t-128.5 92.5t-87.5 143t-33 196.5v852l-162 59v48h551v-48l-162 -59v-811
q0 -87 25.5 -156.5t66 -113.5t96 -73.5t112 -41.5t116.5 -12q97 0 178 42t132.5 129t51.5 204v813l-190 79v48h475l463 -1063l424 1063h448v-48z" />
    <glyph glyph-name="U_N.liga" unicode="UN" horiz-adv-x="2516" 
d="M2480 1434v-48l-162 -71v-1315h-69l-940 1235v-764q0 -122 -44 -218.5t-120.5 -156t-174 -90.5t-208.5 -31q-84 0 -161 15.5t-151 52.5t-128.5 92.5t-87.5 143t-33 196.5v852l-162 59v48h551v-48l-162 -59v-811q0 -87 25.5 -156.5t66 -113.5t96 -73.5t112 -41.5
t116.5 -12q97 0 178 42t132.5 129t51.5 204v813l-190 79v48h422l774 -1002v879l-207 75v48h475z" />
    <glyph glyph-name="U_Nacute.liga" unicode="U&#x143;" horiz-adv-x="2516" 
d="M2167 1712l-576 -180l-41 47l375 328h4l238 -185v-10zM2480 1434v-48l-162 -71v-1315h-69l-940 1235v-764q0 -122 -44 -218.5t-120.5 -156t-174 -90.5t-208.5 -31q-84 0 -161 15.5t-151 52.5t-128.5 92.5t-87.5 143t-33 196.5v852l-162 59v48h551v-48l-162 -59v-811
q0 -87 25.5 -156.5t66 -113.5t96 -73.5t112 -41.5t116.5 -12q97 0 178 42t132.5 129t51.5 204v813l-190 79v48h422l774 -1002v879l-207 75v48h475z" />
    <glyph glyph-name="U_Ncaron.liga" unicode="U&#x147;" horiz-adv-x="2516" 
d="M1638 1552l-237 316l47 39l324 -178l311 178l47 -37l-240 -318h-252zM2480 1434v-48l-162 -71v-1315h-69l-940 1235v-764q0 -122 -44 -218.5t-120.5 -156t-174 -90.5t-208.5 -31q-84 0 -161 15.5t-151 52.5t-128.5 92.5t-87.5 143t-33 196.5v852l-162 59v48h551v-48
l-162 -59v-811q0 -87 25.5 -156.5t66 -113.5t96 -73.5t112 -41.5t116.5 -12q97 0 178 42t132.5 129t51.5 204v813l-190 79v48h422l774 -1002v879l-207 75v48h475z" />
    <glyph glyph-name="U_Ncommaaccent.liga" unicode="U&#x145;" horiz-adv-x="2516" 
d="M2480 1434v-48l-162 -71v-1315h-69l-940 1235v-764q0 -122 -44 -218.5t-120.5 -156t-174 -90.5t-208.5 -31q-84 0 -161 15.5t-151 52.5t-128.5 92.5t-87.5 143t-33 196.5v852l-162 59v48h551v-48l-162 -59v-811q0 -87 25.5 -156.5t66 -113.5t96 -73.5t112 -41.5
t116.5 -12q97 0 178 42t132.5 129t51.5 204v813l-190 79v48h422l774 -1002v879l-207 75v48h475zM1819 -78q68 -66 78.5 -151t-44.5 -161.5t-165 -113.5l-41 33q50 52 44 152.5t-65 162.5v2z" />
    <glyph glyph-name="U_Eng.liga" unicode="U&#x14a;" horiz-adv-x="2516" 
d="M2480 1434v-48l-162 -71v-1352q0 -79 -32.5 -156.5t-88.5 -137.5t-136 -97.5t-169 -36.5v53q96 27 151.5 118.5t55.5 213.5v277l-790 1038v-764q0 -122 -44 -218.5t-120.5 -156t-174 -90.5t-208.5 -31q-84 0 -161 15.5t-151 52.5t-128.5 92.5t-87.5 143t-33 196.5v852
l-162 59v48h551v-48l-162 -59v-811q0 -87 25.5 -156.5t66 -113.5t96 -73.5t112 -41.5t116.5 -12q97 0 178 42t132.5 129t51.5 204v813l-190 79v48h422l774 -1002v879l-207 75v48h475z" />
    </font>
</defs>
</svg>
