<?xml version="1.0" standalone="no"?>
<!DOCTYPE svg PUBLIC "-//W3C//DTD SVG 1.1//EN" "http://www.w3.org/Graphics/SVG/1.1/DTD/svg11.dtd" >
<svg xmlns="http://www.w3.org/2000/svg" xmlns:xlink="http://www.w3.org/1999/xlink" version="1.1">
<metadata>
Created by FontForge 20201107 at Sun Jan 28 22:30:44 2024
 By 
Copyright (c) 2023 by Caron twice Fonts. All rights reserved.
</metadata>
<defs>
<font id="LigaturessSerifTrial-Light" horiz-adv-x="2516" >
  <font-face 
    font-family="Ligaturess Serif Trial Light"
    font-weight="300"
    font-stretch="normal"
    units-per-em="2048"
    panose-1="0 0 4 0 0 0 0 0 0 0"
    ascent="1638"
    descent="-410"
    x-height="979"
    cap-height="1434"
    bbox="-981 -504 5394 1933"
    underline-thickness="102"
    underline-position="-204"
    unicode-range="U+0020-FB02"
  />
<missing-glyph horiz-adv-x="1425" 
d="M1208 1434v-1434h-991v1434h991zM383 88h659v1258h-659v-1258z" />
    <glyph glyph-name="fi" unicode="fi" horiz-adv-x="1157" 
d="M979 100l147 -57v-43h-454v43l149 57v766l-159 27h-308v-793l148 -57v-43h-455v43l148 57v793h-150v86h150v125q0 96 26 172t66 121.5t92 75.5t100.5 41.5t95.5 11.5q76 0 161.5 -24t150.5 -73t65 -108q0 -42 -25 -71t-61 -29q-78 0 -110 110q-11 38 -69.5 72.5
t-115.5 34.5q-31 0 -61.5 -6t-66.5 -25t-61 -49.5t-39 -85t-7 -125.5l14 -168h531l98 25v-904z" />
    <glyph glyph-name="fl" unicode="fl" horiz-adv-x="1173" 
d="M979 100l147 -57v-43h-454v43l149 57v1045q-7 62 -28 106t-46 66.5t-63 35t-64.5 15t-64.5 2.5q-35 0 -71.5 -14t-71.5 -43.5t-55 -85t-15 -127.5l8 -121h287v-86h-283v-793l148 -57v-43h-455v43l148 57v793h-150v86h150v78q0 82 26 151.5t66.5 114.5t91.5 76.5t100.5 45
t93.5 13.5q94 0 193 -18l213 86v-1426z" />
    <glyph glyph-name="A_A.liga" unicode="AA" horiz-adv-x="2508" 
d="M2353 96l146 -53v-43h-525v43l197 55l-176 426h-565l-130 -321l48 -115l143 -45v-43h-526v43l120 33l72 33l-172 415h-563l-166 -411l225 -70v-43h-481v43l154 68l542 1323h95l460 -1110l455 1110h94zM1466 614h492l-248 600zM459 614h489l-248 596z" />
    <glyph glyph-name="A_V.liga" unicode="AV" horiz-adv-x="1984" 
d="M1985 1434v-43l-154 -68l-535 -1323h-94l-217 524h-563l-166 -411l225 -70v-43h-481v43l154 68l542 1323h95l501 -1215l437 1098l-267 74v43h523zM459 614h489l-248 596z" />
    <glyph glyph-name="A_W.liga" unicode="AW" horiz-adv-x="2652" 
d="M2642 1434v-43l-141 -62l-426 -1329h-88l-404 1073l-373 -1073h-90l-184 524h-514l-166 -411l225 -70v-43h-481v43l154 68l542 1323h95l417 -1172l326 942l-51 137l-140 50v43h527v-43l-207 -54l403 -1067l334 1043l-239 78v43h481zM459 614h446l-207 590z" />
    <glyph glyph-name="A_W_A.liga" unicode="AWA" horiz-adv-x="3280" 
d="M3125 96l146 -53v-43h-527v43l197 55l-176 426h-510l-180 -524h-88l-404 1073l-373 -1073h-90l-184 524h-514l-166 -411l225 -70v-43h-481v43l154 68l542 1323h95l417 -1172l326 942l-51 137l-140 50v43h527v-43l-207 -54l408 -1073l407 1170h94zM459 614h446l-207 590z
M2286 614h442l-242 582z" />
    <glyph glyph-name="A_Wacute.liga" unicode="A&#x1e82;" horiz-adv-x="2652" 
d="M1976 1712l-534 -170l-41 41l416 324h4l155 -185v-10zM2642 1434v-43l-141 -62l-426 -1329h-88l-404 1073l-373 -1073h-90l-184 524h-514l-166 -411l225 -70v-43h-481v43l154 68l542 1323h95l417 -1172l326 942l-51 137l-140 50v43h527v-43l-207 -54l403 -1067l334 1043
l-239 78v43h481zM459 614h446l-207 590z" />
    <glyph glyph-name="A_Wcircumflex.liga" unicode="A&#x174;" horiz-adv-x="2652" 
d="M1585 1720l-307 -178l-41 37l260 307h191l258 -305l-41 -39zM2642 1434v-43l-141 -62l-426 -1329h-88l-404 1073l-373 -1073h-90l-184 524h-514l-166 -411l225 -70v-43h-481v43l154 68l542 1323h95l417 -1172l326 942l-51 137l-140 50v43h527v-43l-207 -54l403 -1067
l334 1043l-239 78v43h481zM459 614h446l-207 590z" />
    <glyph glyph-name="A_Wdieresis.liga" unicode="A&#x1e84;" horiz-adv-x="2652" 
d="M1405 1624q-46 0 -80.5 35t-34.5 82t34.5 82t80.5 35t80.5 -35t34.5 -82t-34.5 -82t-80.5 -35zM1784 1624q-46 0 -79.5 35t-33.5 82t33.5 82t79.5 35t80 -35t34 -82t-34 -82t-80 -35zM2642 1434v-43l-141 -62l-426 -1329h-88l-404 1073l-373 -1073h-90l-184 524h-514
l-166 -411l225 -70v-43h-481v43l154 68l542 1323h95l417 -1172l326 942l-51 137l-140 50v43h527v-43l-207 -54l403 -1067l334 1043l-239 78v43h481zM459 614h446l-207 590z" />
    <glyph glyph-name="A_Wgrave.liga" unicode="A&#x1e80;" horiz-adv-x="2652" 
d="M1772 1589l-33 -47l-506 144v8l137 213h4zM2642 1434v-43l-141 -62l-426 -1329h-88l-404 1073l-373 -1073h-90l-184 524h-514l-166 -411l225 -70v-43h-481v43l154 68l542 1323h95l417 -1172l326 942l-51 137l-140 50v43h527v-43l-207 -54l403 -1067l334 1043l-239 78v43
h481zM459 614h446l-207 590z" />
    <glyph glyph-name="A_X.liga" unicode="AX" horiz-adv-x="2543" 
d="M2370 100l153 -57v-43h-520v43l172 47l-406 578l-374 -549l207 -76v-43h-637v43l196 55l-176 426h-563l-166 -411l225 -70v-43h-481v43l154 68l542 1323h95l524 -1268l401 577l-416 590l-153 58v43h520v-43l-172 -48l352 -501l330 473l-205 76v43h477v-43l-147 -58
l-401 -567zM459 614h489l-248 596z" />
    <glyph glyph-name="Aacute_V.liga" unicode="&#xc1;V" horiz-adv-x="1984" 
d="M1116 1712l-534 -170l-41 41l415 324h5l155 -185v-10zM1985 1434v-43l-154 -68l-535 -1323h-94l-217 524h-563l-166 -411l225 -70v-43h-481v43l154 68l542 1323h95l501 -1215l437 1098l-267 74v43h523zM459 614h489l-248 596z" />
    <glyph glyph-name="Aacute_W.liga" unicode="&#xc1;W" horiz-adv-x="2652" 
d="M1116 1712l-534 -170l-41 41l415 324h5l155 -185v-10zM2642 1434v-43l-141 -62l-426 -1329h-88l-404 1073l-373 -1073h-90l-184 524h-514l-166 -411l225 -70v-43h-481v43l154 68l542 1323h95l417 -1172l326 942l-51 137l-140 50v43h527v-43l-207 -54l403 -1067l334 1043
l-239 78v43h481zM459 614h446l-207 590z" />
    <glyph glyph-name="Aacute_X.liga" unicode="&#xc1;X" horiz-adv-x="2543" 
d="M1116 1712l-534 -170l-41 41l415 324h5l155 -185v-10zM2370 100l153 -57v-43h-520v43l172 47l-406 578l-374 -549l207 -76v-43h-637v43l196 55l-176 426h-563l-166 -411l225 -70v-43h-481v43l154 68l542 1323h95l524 -1268l401 577l-416 590l-153 58v43h520v-43l-172 -48
l352 -501l330 473l-205 76v43h477v-43l-147 -58l-401 -567zM459 614h489l-248 596z" />
    <glyph glyph-name="Abreve_V.liga" unicode="&#x102;V" horiz-adv-x="1984" 
d="M735 1552q-33 0 -69.5 8.5t-77.5 32t-73 58t-53.5 92.5t-21.5 131l64 2q25 -69 85.5 -113.5t145.5 -44.5t146.5 44.5t87.5 113.5l63 -2q0 -72 -21.5 -130.5t-54 -93t-74 -58t-78 -32t-69.5 -8.5zM1985 1434v-43l-154 -68l-535 -1323h-94l-217 524h-563l-166 -411l225 -70
v-43h-481v43l154 68l542 1323h95l501 -1215l437 1098l-267 74v43h523zM459 614h489l-248 596z" />
    <glyph glyph-name="Abreve_W.liga" unicode="&#x102;W" horiz-adv-x="2652" 
d="M735 1552q-33 0 -69.5 8.5t-77.5 32t-73 58t-53.5 92.5t-21.5 131l64 2q25 -69 85.5 -113.5t145.5 -44.5t146.5 44.5t87.5 113.5l63 -2q0 -72 -21.5 -130.5t-54 -93t-74 -58t-78 -32t-69.5 -8.5zM2642 1434v-43l-141 -62l-426 -1329h-88l-404 1073l-373 -1073h-90
l-184 524h-514l-166 -411l225 -70v-43h-481v43l154 68l542 1323h95l417 -1172l326 942l-51 137l-140 50v43h527v-43l-207 -54l403 -1067l334 1043l-239 78v43h481zM459 614h446l-207 590z" />
    <glyph glyph-name="Abreve_X.liga" unicode="&#x102;X" horiz-adv-x="2543" 
d="M735 1552q-33 0 -69.5 8.5t-77.5 32t-73 58t-53.5 92.5t-21.5 131l64 2q25 -69 85.5 -113.5t145.5 -44.5t146.5 44.5t87.5 113.5l63 -2q0 -72 -21.5 -130.5t-54 -93t-74 -58t-78 -32t-69.5 -8.5zM2370 100l153 -57v-43h-520v43l172 47l-406 578l-374 -549l207 -76v-43
h-637v43l196 55l-176 426h-563l-166 -411l225 -70v-43h-481v43l154 68l542 1323h95l524 -1268l401 577l-416 590l-153 58v43h520v-43l-172 -48l352 -501l330 473l-205 76v43h477v-43l-147 -58l-401 -567zM459 614h489l-248 596z" />
    <glyph glyph-name="Acircumflex_V.liga" unicode="&#xc2;V" horiz-adv-x="1984" 
d="M725 1720l-307 -178l-41 37l260 307h190l258 -305l-41 -39zM1985 1434v-43l-154 -68l-535 -1323h-94l-217 524h-563l-166 -411l225 -70v-43h-481v43l154 68l542 1323h95l501 -1215l437 1098l-267 74v43h523zM459 614h489l-248 596z" />
    <glyph glyph-name="Acircumflex_W.liga" unicode="&#xc2;W" horiz-adv-x="2652" 
d="M725 1720l-307 -178l-41 37l260 307h190l258 -305l-41 -39zM2642 1434v-43l-141 -62l-426 -1329h-88l-404 1073l-373 -1073h-90l-184 524h-514l-166 -411l225 -70v-43h-481v43l154 68l542 1323h95l417 -1172l326 942l-51 137l-140 50v43h527v-43l-207 -54l403 -1067
l334 1043l-239 78v43h481zM459 614h446l-207 590z" />
    <glyph glyph-name="Acircumflex_X.liga" unicode="&#xc2;X" horiz-adv-x="2543" 
d="M725 1720l-307 -178l-41 37l260 307h190l258 -305l-41 -39zM2370 100l153 -57v-43h-520v43l172 47l-406 578l-374 -549l207 -76v-43h-637v43l196 55l-176 426h-563l-166 -411l225 -70v-43h-481v43l154 68l542 1323h95l524 -1268l401 577l-416 590l-153 58v43h520v-43
l-172 -48l352 -501l330 473l-205 76v43h477v-43l-147 -58l-401 -567zM459 614h489l-248 596z" />
    <glyph glyph-name="Adieresis_V.liga" unicode="&#xc4;V" horiz-adv-x="1984" 
d="M545 1624q-46 0 -80.5 35t-34.5 82t34.5 82t80.5 35t80 -35t34 -82t-34 -82t-80 -35zM924 1624q-46 0 -79.5 35t-33.5 82t33.5 82t79.5 35t80 -35t34 -82t-34 -82t-80 -35zM1985 1434v-43l-154 -68l-535 -1323h-94l-217 524h-563l-166 -411l225 -70v-43h-481v43l154 68
l542 1323h95l501 -1215l437 1098l-267 74v43h523zM459 614h489l-248 596z" />
    <glyph glyph-name="Adieresis_W.liga" unicode="&#xc4;W" horiz-adv-x="2652" 
d="M545 1624q-46 0 -80.5 35t-34.5 82t34.5 82t80.5 35t80 -35t34 -82t-34 -82t-80 -35zM924 1624q-46 0 -79.5 35t-33.5 82t33.5 82t79.5 35t80 -35t34 -82t-34 -82t-80 -35zM2642 1434v-43l-141 -62l-426 -1329h-88l-404 1073l-373 -1073h-90l-184 524h-514l-166 -411
l225 -70v-43h-481v43l154 68l542 1323h95l417 -1172l326 942l-51 137l-140 50v43h527v-43l-207 -54l403 -1067l334 1043l-239 78v43h481zM459 614h446l-207 590z" />
    <glyph glyph-name="Adieresis_X.liga" unicode="&#xc4;X" horiz-adv-x="2543" 
d="M545 1624q-46 0 -80.5 35t-34.5 82t34.5 82t80.5 35t80 -35t34 -82t-34 -82t-80 -35zM924 1624q-46 0 -79.5 35t-33.5 82t33.5 82t79.5 35t80 -35t34 -82t-34 -82t-80 -35zM2370 100l153 -57v-43h-520v43l172 47l-406 578l-374 -549l207 -76v-43h-637v43l196 55l-176 426
h-563l-166 -411l225 -70v-43h-481v43l154 68l542 1323h95l524 -1268l401 577l-416 590l-153 58v43h520v-43l-172 -48l352 -501l330 473l-205 76v43h477v-43l-147 -58l-401 -567zM459 614h489l-248 596z" />
    <glyph glyph-name="Agrave_V.liga" unicode="&#xc0;V" horiz-adv-x="1984" 
d="M911 1589l-32 -47l-506 144v8l137 213h4zM1985 1434v-43l-154 -68l-535 -1323h-94l-217 524h-563l-166 -411l225 -70v-43h-481v43l154 68l542 1323h95l501 -1215l437 1098l-267 74v43h523zM459 614h489l-248 596z" />
    <glyph glyph-name="Agrave_W.liga" unicode="&#xc0;W" horiz-adv-x="2652" 
d="M911 1589l-32 -47l-506 144v8l137 213h4zM2642 1434v-43l-141 -62l-426 -1329h-88l-404 1073l-373 -1073h-90l-184 524h-514l-166 -411l225 -70v-43h-481v43l154 68l542 1323h95l417 -1172l326 942l-51 137l-140 50v43h527v-43l-207 -54l403 -1067l334 1043l-239 78v43
h481zM459 614h446l-207 590z" />
    <glyph glyph-name="Agrave_X.liga" unicode="&#xc0;X" horiz-adv-x="2543" 
d="M911 1589l-32 -47l-506 144v8l137 213h4zM2370 100l153 -57v-43h-520v43l172 47l-406 578l-374 -549l207 -76v-43h-637v43l196 55l-176 426h-563l-166 -411l225 -70v-43h-481v43l154 68l542 1323h95l524 -1268l401 577l-416 590l-153 58v43h520v-43l-172 -48l352 -501
l330 473l-205 76v43h477v-43l-147 -58l-401 -567zM459 614h489l-248 596z" />
    <glyph glyph-name="Amacron_V.liga" unicode="&#x100;V" horiz-adv-x="1984" 
d="M1006 1784v-142h-539v142h539zM1985 1434v-43l-154 -68l-535 -1323h-94l-217 524h-563l-166 -411l225 -70v-43h-481v43l154 68l542 1323h95l501 -1215l437 1098l-267 74v43h523zM459 614h489l-248 596z" />
    <glyph glyph-name="Amacron_W.liga" unicode="&#x100;W" horiz-adv-x="2652" 
d="M1006 1784v-142h-539v142h539zM2642 1434v-43l-141 -62l-426 -1329h-88l-404 1073l-373 -1073h-90l-184 524h-514l-166 -411l225 -70v-43h-481v43l154 68l542 1323h95l417 -1172l326 942l-51 137l-140 50v43h527v-43l-207 -54l403 -1067l334 1043l-239 78v43h481z
M459 614h446l-207 590z" />
    <glyph glyph-name="Amacron_X.liga" unicode="&#x100;X" horiz-adv-x="2543" 
d="M1006 1784v-142h-539v142h539zM2370 100l153 -57v-43h-520v43l172 47l-406 578l-374 -549l207 -76v-43h-637v43l196 55l-176 426h-563l-166 -411l225 -70v-43h-481v43l154 68l542 1323h95l524 -1268l401 577l-416 590l-153 58v43h520v-43l-172 -48l352 -501l330 473
l-205 76v43h477v-43l-147 -58l-401 -567zM459 614h489l-248 596z" />
    <glyph glyph-name="Aring_V.liga" unicode="&#xc5;V" horiz-adv-x="1984" 
d="M735 1503q-95 0 -161 55.5t-66 147.5q0 90 59 158.5t166 68.5q96 0 163 -55t67 -147q0 -90 -60 -159t-168 -69zM635 1806q-23 -34 -23 -80q0 -62 37 -93t99 -31q41 0 86 28q24 27 24 80q0 64 -36 95.5t-97 31.5q-48 0 -90 -31zM1985 1434v-43l-154 -68l-535 -1323h-94
l-217 524h-563l-166 -411l225 -70v-43h-481v43l154 68l542 1323h95l501 -1215l437 1098l-267 74v43h523zM459 614h489l-248 596z" />
    <glyph glyph-name="Aring_W.liga" unicode="&#xc5;W" horiz-adv-x="2652" 
d="M735 1503q-95 0 -161 55.5t-66 147.5q0 90 59 158.5t166 68.5q96 0 163 -55t67 -147q0 -90 -60 -159t-168 -69zM635 1806q-23 -34 -23 -80q0 -62 37 -93t99 -31q41 0 86 28q24 27 24 80q0 64 -36 95.5t-97 31.5q-48 0 -90 -31zM2642 1434v-43l-141 -62l-426 -1329h-88
l-404 1073l-373 -1073h-90l-184 524h-514l-166 -411l225 -70v-43h-481v43l154 68l542 1323h95l417 -1172l326 942l-51 137l-140 50v43h527v-43l-207 -54l403 -1067l334 1043l-239 78v43h481zM459 614h446l-207 590z" />
    <glyph glyph-name="Aring_X.liga" unicode="&#xc5;X" horiz-adv-x="2543" 
d="M735 1503q-95 0 -161 55.5t-66 147.5q0 90 59 158.5t166 68.5q96 0 163 -55t67 -147q0 -90 -60 -159t-168 -69zM635 1806q-23 -34 -23 -80q0 -62 37 -93t99 -31q41 0 86 28q24 27 24 80q0 64 -36 95.5t-97 31.5q-48 0 -90 -31zM2370 100l153 -57v-43h-520v43l172 47
l-406 578l-374 -549l207 -76v-43h-637v43l196 55l-176 426h-563l-166 -411l225 -70v-43h-481v43l154 68l542 1323h95l524 -1268l401 577l-416 590l-153 58v43h520v-43l-172 -48l352 -501l330 473l-205 76v43h477v-43l-147 -58l-401 -567zM459 614h489l-248 596z" />
    <glyph glyph-name="Atilde_V.liga" unicode="&#xc3;V" horiz-adv-x="1984" 
d="M584 1700q-52 0 -82 -31t-58 -92l-53 20q28 132 89 204.5t149 72.5q47 0 88 -20.5t65 -45t54.5 -45t58.5 -20.5q50 0 78 30t57 91l55 -21q-28 -132 -89 -204t-148 -72q-47 0 -88 21t-65.5 45.5t-54 45.5t-56.5 21zM1985 1434v-43l-154 -68l-535 -1323h-94l-217 524h-563
l-166 -411l225 -70v-43h-481v43l154 68l542 1323h95l501 -1215l437 1098l-267 74v43h523zM459 614h489l-248 596z" />
    <glyph glyph-name="Atilde_W.liga" unicode="&#xc3;W" horiz-adv-x="2652" 
d="M584 1700q-52 0 -82 -31t-58 -92l-53 20q28 132 89 204.5t149 72.5q47 0 88 -20.5t65 -45t54.5 -45t58.5 -20.5q50 0 78 30t57 91l55 -21q-28 -132 -89 -204t-148 -72q-47 0 -88 21t-65.5 45.5t-54 45.5t-56.5 21zM2642 1434v-43l-141 -62l-426 -1329h-88l-404 1073
l-373 -1073h-90l-184 524h-514l-166 -411l225 -70v-43h-481v43l154 68l542 1323h95l417 -1172l326 942l-51 137l-140 50v43h527v-43l-207 -54l403 -1067l334 1043l-239 78v43h481zM459 614h446l-207 590z" />
    <glyph glyph-name="Atilde_X.liga" unicode="&#xc3;X" horiz-adv-x="2543" 
d="M584 1700q-52 0 -82 -31t-58 -92l-53 20q28 132 89 204.5t149 72.5q47 0 88 -20.5t65 -45t54.5 -45t58.5 -20.5q50 0 78 30t57 91l55 -21q-28 -132 -89 -204t-148 -72q-47 0 -88 21t-65.5 45.5t-54 45.5t-56.5 21zM2370 100l153 -57v-43h-520v43l172 47l-406 578
l-374 -549l207 -76v-43h-637v43l196 55l-176 426h-563l-166 -411l225 -70v-43h-481v43l154 68l542 1323h95l524 -1268l401 577l-416 590l-153 58v43h520v-43l-172 -48l352 -501l330 473l-205 76v43h477v-43l-147 -58l-401 -567zM459 614h489l-248 596z" />
    <glyph glyph-name="C_A.liga" unicode="CA" 
d="M2361 96l146 -53v-43h-525v43l197 55l-176 426h-565l-72 -178q-72 -180 -218.5 -275.5t-350.5 -95.5q-171 0 -305 53t-220.5 149.5t-131 228.5t-44.5 292q0 107 32.5 215.5t96.5 206t150 173.5t201 120.5t241 44.5q115 0 237 -45.5t197 -112.5v-368h-65
q-121 401 -436 401q-217 0 -377 -178q-115 -186 -115 -360q0 -140 47 -267t128.5 -220.5t198.5 -148.5t251 -55q130 0 236.5 69t166.5 214l428 1047h94zM1475 614h491l-248 600z" />
    <glyph glyph-name="C_Aacute.liga" unicode="C&#xc1;" 
d="M2134 1712l-535 -170l-40 41l415 324h4l156 -185v-10zM2361 96l146 -53v-43h-525v43l197 55l-176 426h-565l-72 -178q-72 -180 -218.5 -275.5t-350.5 -95.5q-171 0 -305 53t-220.5 149.5t-131 228.5t-44.5 292q0 107 32.5 215.5t96.5 206t150 173.5t201 120.5t241 44.5
q115 0 237 -45.5t197 -112.5v-368h-65q-121 401 -436 401q-217 0 -377 -178q-115 -186 -115 -360q0 -140 47 -267t128.5 -220.5t198.5 -148.5t251 -55q130 0 236.5 69t166.5 214l428 1047h94zM1475 614h491l-248 600z" />
    <glyph glyph-name="C_Abreve.liga" unicode="C&#x102;" 
d="M1753 1552q-33 0 -69.5 8.5t-77.5 32t-73 58t-53.5 92.5t-21.5 131l64 2q25 -69 85.5 -113.5t145.5 -44.5t146.5 44.5t87.5 113.5l63 -2q0 -72 -21.5 -130.5t-54 -93t-74 -58t-78 -32t-69.5 -8.5zM2361 96l146 -53v-43h-525v43l197 55l-176 426h-565l-72 -178
q-72 -180 -218.5 -275.5t-350.5 -95.5q-171 0 -305 53t-220.5 149.5t-131 228.5t-44.5 292q0 107 32.5 215.5t96.5 206t150 173.5t201 120.5t241 44.5q115 0 237 -45.5t197 -112.5v-368h-65q-121 401 -436 401q-217 0 -377 -178q-115 -186 -115 -360q0 -140 47 -267
t128.5 -220.5t198.5 -148.5t251 -55q130 0 236.5 69t166.5 214l428 1047h94zM1475 614h491l-248 600z" />
    <glyph glyph-name="C_Acircumflex.liga" unicode="C&#xc2;" 
d="M1743 1720l-307 -178l-41 37l260 307h190l258 -305l-41 -39zM2361 96l146 -53v-43h-525v43l197 55l-176 426h-565l-72 -178q-72 -180 -218.5 -275.5t-350.5 -95.5q-171 0 -305 53t-220.5 149.5t-131 228.5t-44.5 292q0 107 32.5 215.5t96.5 206t150 173.5t201 120.5
t241 44.5q115 0 237 -45.5t197 -112.5v-368h-65q-121 401 -436 401q-217 0 -377 -178q-115 -186 -115 -360q0 -140 47 -267t128.5 -220.5t198.5 -148.5t251 -55q130 0 236.5 69t166.5 214l428 1047h94zM1475 614h491l-248 600z" />
    <glyph glyph-name="C_Adieresis.liga" unicode="C&#xc4;" 
d="M1563 1624q-46 0 -80.5 35t-34.5 82t34.5 82t80.5 35t80 -35t34 -82t-34 -82t-80 -35zM1942 1624q-46 0 -79.5 35t-33.5 82t33.5 82t79.5 35t80 -35t34 -82t-34 -82t-80 -35zM2361 96l146 -53v-43h-525v43l197 55l-176 426h-565l-72 -178q-72 -180 -218.5 -275.5
t-350.5 -95.5q-171 0 -305 53t-220.5 149.5t-131 228.5t-44.5 292q0 107 32.5 215.5t96.5 206t150 173.5t201 120.5t241 44.5q115 0 237 -45.5t197 -112.5v-368h-65q-121 401 -436 401q-217 0 -377 -178q-115 -186 -115 -360q0 -140 47 -267t128.5 -220.5t198.5 -148.5
t251 -55q130 0 236.5 69t166.5 214l428 1047h94zM1475 614h491l-248 600z" />
    <glyph glyph-name="C_Agrave.liga" unicode="C&#xc0;" 
d="M1929 1589l-33 -47l-505 144v8l137 213h4zM2361 96l146 -53v-43h-525v43l197 55l-176 426h-565l-72 -178q-72 -180 -218.5 -275.5t-350.5 -95.5q-171 0 -305 53t-220.5 149.5t-131 228.5t-44.5 292q0 107 32.5 215.5t96.5 206t150 173.5t201 120.5t241 44.5
q115 0 237 -45.5t197 -112.5v-368h-65q-121 401 -436 401q-217 0 -377 -178q-115 -186 -115 -360q0 -140 47 -267t128.5 -220.5t198.5 -148.5t251 -55q130 0 236.5 69t166.5 214l428 1047h94zM1475 614h491l-248 600z" />
    <glyph glyph-name="C_Amacron.liga" unicode="C&#x100;" 
d="M2023 1784v-142h-538v142h538zM2361 96l146 -53v-43h-525v43l197 55l-176 426h-565l-72 -178q-72 -180 -218.5 -275.5t-350.5 -95.5q-171 0 -305 53t-220.5 149.5t-131 228.5t-44.5 292q0 107 32.5 215.5t96.5 206t150 173.5t201 120.5t241 44.5q115 0 237 -45.5
t197 -112.5v-368h-65q-121 401 -436 401q-217 0 -377 -178q-115 -186 -115 -360q0 -140 47 -267t128.5 -220.5t198.5 -148.5t251 -55q130 0 236.5 69t166.5 214l428 1047h94zM1475 614h491l-248 600z" />
    <glyph glyph-name="C_Aogonek.liga" unicode="C&#x104;" 
d="M2361 96l146 -53v-43h-189q-94 -156 -94 -270q0 -73 52.5 -107.5t117.5 -15.5v-51q-53 -32 -113.5 -40t-110.5 7.5t-83 59t-33 106.5q0 118 197 311h-269v43l197 55l-176 426h-565l-72 -178q-72 -180 -218.5 -275.5t-350.5 -95.5q-171 0 -305 53t-220.5 149.5t-131 228.5
t-44.5 292q0 107 32.5 215.5t96.5 206t150 173.5t201 120.5t241 44.5q115 0 237 -45.5t197 -112.5v-368h-65q-121 401 -436 401q-217 0 -377 -178q-115 -186 -115 -360q0 -140 47 -267t128.5 -220.5t198.5 -148.5t251 -55q130 0 236.5 69t166.5 214l428 1047h94zM1475 614
h491l-248 600z" />
    <glyph glyph-name="C_Aring.liga" unicode="C&#xc5;" 
d="M1753 1503q-95 0 -161 55.5t-66 147.5q0 90 59 158.5t166 68.5q96 0 162.5 -55t66.5 -147q0 -90 -59.5 -159t-167.5 -69zM1653 1806q-23 -34 -23 -80q0 -62 37 -93t98 -31q41 0 86 28q25 29 25 80q0 64 -36 95.5t-97 31.5q-48 0 -90 -31zM2361 96l146 -53v-43h-525v43
l197 55l-176 426h-565l-72 -178q-72 -180 -218.5 -275.5t-350.5 -95.5q-171 0 -305 53t-220.5 149.5t-131 228.5t-44.5 292q0 107 32.5 215.5t96.5 206t150 173.5t201 120.5t241 44.5q115 0 237 -45.5t197 -112.5v-368h-65q-121 401 -436 401q-217 0 -377 -178
q-115 -186 -115 -360q0 -140 47 -267t128.5 -220.5t198.5 -148.5t251 -55q130 0 236.5 69t166.5 214l428 1047h94zM1475 614h491l-248 600z" />
    <glyph glyph-name="C_Atilde.liga" unicode="C&#xc3;" 
d="M1602 1700q-52 0 -82 -31t-58 -92l-53 20q28 132 89 204.5t149 72.5q47 0 88 -20.5t65 -45t54.5 -45t58.5 -20.5q50 0 78 30t57 91l55 -21q-28 -132 -89 -204t-148 -72q-47 0 -88 21t-65.5 45.5t-54 45.5t-56.5 21zM2361 96l146 -53v-43h-525v43l197 55l-176 426h-565
l-72 -178q-72 -180 -218.5 -275.5t-350.5 -95.5q-171 0 -305 53t-220.5 149.5t-131 228.5t-44.5 292q0 107 32.5 215.5t96.5 206t150 173.5t201 120.5t241 44.5q115 0 237 -45.5t197 -112.5v-368h-65q-121 401 -436 401q-217 0 -377 -178q-115 -186 -115 -360
q0 -140 47 -267t128.5 -220.5t198.5 -148.5t251 -55q130 0 236.5 69t166.5 214l428 1047h94zM1475 614h491l-248 600z" />
    <glyph glyph-name="Cacute_A.liga" unicode="&#x106;A" 
d="M1190 1712l-535 -170l-41 41l416 324h4l156 -185v-10zM2361 96l146 -53v-43h-525v43l197 55l-176 426h-565l-72 -178q-72 -180 -218.5 -275.5t-350.5 -95.5q-171 0 -305 53t-220.5 149.5t-131 228.5t-44.5 292q0 107 32.5 215.5t96.5 206t150 173.5t201 120.5t241 44.5
q115 0 237 -45.5t197 -112.5v-368h-65q-121 401 -436 401q-217 0 -377 -178q-115 -186 -115 -360q0 -140 47 -267t128.5 -220.5t198.5 -148.5t251 -55q130 0 236.5 69t166.5 214l428 1047h94zM1475 614h491l-248 600z" />
    <glyph glyph-name="Ccaron_A.liga" unicode="&#x10c;A" 
d="M715 1563l-258 305l41 39l319 -178l307 178l41 -37l-260 -307h-190zM2361 96l146 -53v-43h-525v43l197 55l-176 426h-565l-72 -178q-72 -180 -218.5 -275.5t-350.5 -95.5q-171 0 -305 53t-220.5 149.5t-131 228.5t-44.5 292q0 107 32.5 215.5t96.5 206t150 173.5
t201 120.5t241 44.5q115 0 237 -45.5t197 -112.5v-368h-65q-121 401 -436 401q-217 0 -377 -178q-115 -186 -115 -360q0 -140 47 -267t128.5 -220.5t198.5 -148.5t251 -55q130 0 236.5 69t166.5 214l428 1047h94zM1475 614h491l-248 600z" />
    <glyph glyph-name="Ccaron_Aacute.liga" unicode="&#x10c;&#xc1;" 
d="M715 1563l-258 305l41 39l319 -178l307 178l41 -37l-260 -307h-190zM2134 1712l-535 -170l-40 41l415 324h4l156 -185v-10zM2361 96l146 -53v-43h-525v43l197 55l-176 426h-565l-72 -178q-72 -180 -218.5 -275.5t-350.5 -95.5q-171 0 -305 53t-220.5 149.5t-131 228.5
t-44.5 292q0 107 32.5 215.5t96.5 206t150 173.5t201 120.5t241 44.5q115 0 237 -45.5t197 -112.5v-368h-65q-121 401 -436 401q-217 0 -377 -178q-115 -186 -115 -360q0 -140 47 -267t128.5 -220.5t198.5 -148.5t251 -55q130 0 236.5 69t166.5 214l428 1047h94zM1475 614
h491l-248 600z" />
    <glyph glyph-name="Ccedilla_A.liga" unicode="&#xc7;A" 
d="M2361 96l146 -53v-43h-525v43l197 55l-176 426h-565l-72 -178q-72 -180 -218.5 -275.5t-350.5 -95.5h-35l-60 -88l11 -2q91 -21 138.5 -70t47.5 -114q0 -101 -111 -156t-247 -20v53q91 -3 136.5 23t45.5 86q0 85 -86 104l-68 14l-2 5l111 172q-189 23 -321 120.5
t-196.5 248.5t-64.5 347q0 107 32.5 215.5t96.5 206t150 173.5t201 120.5t241 44.5q115 0 237 -45.5t197 -112.5v-368h-65q-121 401 -436 401q-217 0 -377 -178q-115 -186 -115 -360q0 -140 47 -267t128.5 -220.5t198.5 -148.5t251 -55q130 0 236.5 69t166.5 214l428 1047
h94zM1475 614h491l-248 600z" />
    <glyph glyph-name="Ccircumflex_A.liga" unicode="&#x108;A" 
d="M799 1720l-307 -178l-41 37l260 307h190l258 -305l-41 -39zM2361 96l146 -53v-43h-525v43l197 55l-176 426h-565l-72 -178q-72 -180 -218.5 -275.5t-350.5 -95.5q-171 0 -305 53t-220.5 149.5t-131 228.5t-44.5 292q0 107 32.5 215.5t96.5 206t150 173.5t201 120.5
t241 44.5q115 0 237 -45.5t197 -112.5v-368h-65q-121 401 -436 401q-217 0 -377 -178q-115 -186 -115 -360q0 -140 47 -267t128.5 -220.5t198.5 -148.5t251 -55q130 0 236.5 69t166.5 214l428 1047h94zM1475 614h491l-248 600z" />
    <glyph glyph-name="Cdotaccent_A.liga" unicode="&#x10a;A" 
d="M809 1622q-45 0 -81 35.5t-36 83.5t36 83.5t81 35.5q46 0 81.5 -35t35.5 -84t-35.5 -84t-81.5 -35zM2361 96l146 -53v-43h-525v43l197 55l-176 426h-565l-72 -178q-72 -180 -218.5 -275.5t-350.5 -95.5q-171 0 -305 53t-220.5 149.5t-131 228.5t-44.5 292
q0 107 32.5 215.5t96.5 206t150 173.5t201 120.5t241 44.5q115 0 237 -45.5t197 -112.5v-368h-65q-121 401 -436 401q-217 0 -377 -178q-115 -186 -115 -360q0 -140 47 -267t128.5 -220.5t198.5 -148.5t251 -55q130 0 236.5 69t166.5 214l428 1047h94zM1475 614h491
l-248 600z" />
    <glyph glyph-name="D_C.liga" unicode="DC" horiz-adv-x="2492" 
d="M2386 348l61 -43q-59 -148 -210.5 -239t-327.5 -91q-248 0 -410.5 109.5t-230.5 304.5q-62 -118 -157.5 -202.5t-241 -135.5t-326.5 -51h-488v43l174 59v1229l-174 60v43h615q237 0 404 -96.5t237 -274.5q93 176 253.5 285.5t364.5 109.5q114 0 235.5 -45.5t196.5 -112.5
v-368h-63q-121 401 -436 401q-217 0 -377 -178q-115 -186 -115 -360q0 -140 46.5 -266.5t128 -220.5t198.5 -149t252 -55q101 0 214 64t177 180zM547 86q137 2 247 35.5t184.5 89t124 132.5t71.5 165t22 188q0 95 -18 183t-63 175t-113.5 151t-177.5 103.5t-246 39.5h-183
v-1262h152z" />
    <glyph glyph-name="D_Cacute.liga" unicode="D&#x106;" horiz-adv-x="2492" 
d="M2302 1712l-535 -170l-41 41l416 324h4l156 -185v-10zM2386 348l61 -43q-59 -148 -210.5 -239t-327.5 -91q-248 0 -410.5 109.5t-230.5 304.5q-62 -118 -157.5 -202.5t-241 -135.5t-326.5 -51h-488v43l174 59v1229l-174 60v43h615q237 0 404 -96.5t237 -274.5
q93 176 253.5 285.5t364.5 109.5q114 0 235.5 -45.5t196.5 -112.5v-368h-63q-121 401 -436 401q-217 0 -377 -178q-115 -186 -115 -360q0 -140 46.5 -266.5t128 -220.5t198.5 -149t252 -55q101 0 214 64t177 180zM547 86q137 2 247 35.5t184.5 89t124 132.5t71.5 165t22 188
q0 95 -18 183t-63 175t-113.5 151t-177.5 103.5t-246 39.5h-183v-1262h152z" />
    <glyph glyph-name="D_Ccaron.liga" unicode="D&#x10c;" horiz-adv-x="2492" 
d="M1825 1563l-258 305l41 39l319 -178l307 178l41 -37l-260 -307h-190zM2386 348l61 -43q-59 -148 -210.5 -239t-327.5 -91q-248 0 -410.5 109.5t-230.5 304.5q-62 -118 -157.5 -202.5t-241 -135.5t-326.5 -51h-488v43l174 59v1229l-174 60v43h615q237 0 404 -96.5
t237 -274.5q93 176 253.5 285.5t364.5 109.5q114 0 235.5 -45.5t196.5 -112.5v-368h-63q-121 401 -436 401q-217 0 -377 -178q-115 -186 -115 -360q0 -140 46.5 -266.5t128 -220.5t198.5 -149t252 -55q101 0 214 64t177 180zM547 86q137 2 247 35.5t184.5 89t124 132.5
t71.5 165t22 188q0 95 -18 183t-63 175t-113.5 151t-177.5 103.5t-246 39.5h-183v-1262h152z" />
    <glyph glyph-name="D_Ccedilla.liga" unicode="D&#xc7;" horiz-adv-x="2492" 
d="M1909 -25h-35l-59 -88l10 -2q91 -21 138.5 -70t47.5 -114q0 -101 -111 -156t-247 -20v53q91 -3 136.5 23t45.5 86q0 85 -86 104l-68 14l-2 5l111 172q-200 26 -331 131t-191 276q-62 -118 -157.5 -202.5t-241 -135.5t-326.5 -51h-488v43l174 59v1229l-174 60v43h615
q237 0 404 -96.5t237 -274.5q93 176 253.5 285.5t364.5 109.5q114 0 235.5 -45.5t196.5 -112.5v-368h-63q-121 401 -436 401q-217 0 -377 -178q-115 -186 -115 -360q0 -140 46.5 -266.5t128 -220.5t198.5 -149t252 -55q101 0 214 64t177 180l61 -43q-59 -148 -210.5 -239
t-327.5 -91zM547 86q137 2 247 35.5t184.5 89t124 132.5t71.5 165t22 188q0 95 -18 183t-63 175t-113.5 151t-177.5 103.5t-246 39.5h-183v-1262h152z" />
    <glyph glyph-name="D_Ccircumflex.liga" unicode="D&#x108;" horiz-adv-x="2492" 
d="M1909 1720l-307 -178l-41 37l260 307h190l258 -305l-41 -39zM2386 348l61 -43q-59 -148 -210.5 -239t-327.5 -91q-248 0 -410.5 109.5t-230.5 304.5q-62 -118 -157.5 -202.5t-241 -135.5t-326.5 -51h-488v43l174 59v1229l-174 60v43h615q237 0 404 -96.5t237 -274.5
q93 176 253.5 285.5t364.5 109.5q114 0 235.5 -45.5t196.5 -112.5v-368h-63q-121 401 -436 401q-217 0 -377 -178q-115 -186 -115 -360q0 -140 46.5 -266.5t128 -220.5t198.5 -149t252 -55q101 0 214 64t177 180zM547 86q137 2 247 35.5t184.5 89t124 132.5t71.5 165t22 188
q0 95 -18 183t-63 175t-113.5 151t-177.5 103.5t-246 39.5h-183v-1262h152z" />
    <glyph glyph-name="D_Cdotaccent.liga" unicode="D&#x10a;" horiz-adv-x="2492" 
d="M1921 1622q-45 0 -81 35.5t-36 83.5t36 83.5t81 35.5q46 0 81.5 -35t35.5 -84t-35.5 -84t-81.5 -35zM2386 348l61 -43q-59 -148 -210.5 -239t-327.5 -91q-248 0 -410.5 109.5t-230.5 304.5q-62 -118 -157.5 -202.5t-241 -135.5t-326.5 -51h-488v43l174 59v1229l-174 60
v43h615q237 0 404 -96.5t237 -274.5q93 176 253.5 285.5t364.5 109.5q114 0 235.5 -45.5t196.5 -112.5v-368h-63q-121 401 -436 401q-217 0 -377 -178q-115 -186 -115 -360q0 -140 46.5 -266.5t128 -220.5t198.5 -149t252 -55q101 0 214 64t177 180zM547 86q137 2 247 35.5
t184.5 89t124 132.5t71.5 165t22 188q0 95 -18 183t-63 175t-113.5 151t-177.5 103.5t-246 39.5h-183v-1262h152z" />
    <glyph glyph-name="D_O.liga" unicode="DO" horiz-adv-x="2664" 
d="M1896 1458q96 0 190 -25t181.5 -79.5t154 -132.5t106.5 -194t40 -255q0 -160 -53 -306.5t-145 -254.5t-223.5 -172t-280.5 -64q-125 0 -241 40.5t-217 131.5t-153 222q-96 -171 -274.5 -270t-437.5 -99h-488v43l174 59v1229l-174 60v43h615q230 0 395 -92t240 -261
q90 173 244.5 275t346.5 102zM547 86q137 2 247 35.5t184.5 89t124 132.5t71.5 165t22 188q0 95 -18 183t-63 175t-113.5 151t-177.5 103.5t-246 39.5h-183v-1262h152zM2273 252q127 215 127 381q0 310 -161 502t-408 192q-96 0 -179 -32.5t-163 -112.5q-127 -215 -127 -381
q0 -310 161 -502.5t408 -192.5q96 0 179 33t163 113z" />
    <glyph glyph-name="Eth_C.liga" unicode="&#xd0;C" horiz-adv-x="2492" 
d="M2386 348l61 -43q-59 -148 -210.5 -239t-327.5 -91q-248 0 -410.5 109.5t-230.5 304.5q-62 -118 -157.5 -202.5t-241 -135.5t-326.5 -51h-488v43l174 59v592h-174v90h174v547l-174 60v43h615q237 0 404 -96.5t237 -274.5q93 176 253.5 285.5t364.5 109.5
q114 0 235.5 -45.5t196.5 -112.5v-368h-63q-121 401 -436 401q-217 0 -377 -178q-115 -186 -115 -360q0 -140 46.5 -266.5t128 -220.5t198.5 -149t252 -55q101 0 214 64t177 180zM547 86q137 2 247 35.5t184.5 89t124 132.5t71.5 165t22 188q0 95 -18 183t-63 175
t-113.5 151t-177.5 103.5t-246 39.5h-183v-564h342v-90h-342v-608h152z" />
    <glyph glyph-name="Dcaron_C.liga" unicode="&#x10e;C" horiz-adv-x="2492" 
d="M584 1563l-258 305l41 39l319 -178l307 178l41 -37l-260 -307h-190zM2386 348l61 -43q-59 -148 -210.5 -239t-327.5 -91q-248 0 -410.5 109.5t-230.5 304.5q-62 -118 -157.5 -202.5t-241 -135.5t-326.5 -51h-488v43l174 59v1229l-174 60v43h615q237 0 404 -96.5
t237 -274.5q93 176 253.5 285.5t364.5 109.5q114 0 235.5 -45.5t196.5 -112.5v-368h-63q-121 401 -436 401q-217 0 -377 -178q-115 -186 -115 -360q0 -140 46.5 -266.5t128 -220.5t198.5 -149t252 -55q101 0 214 64t177 180zM547 86q137 2 247 35.5t184.5 89t124 132.5
t71.5 165t22 188q0 95 -18 183t-63 175t-113.5 151t-177.5 103.5t-246 39.5h-183v-1262h152z" />
    <glyph glyph-name="Dcroat_C.liga" unicode="&#x110;C" horiz-adv-x="2492" 
d="M2386 348l61 -43q-59 -148 -210.5 -239t-327.5 -91q-248 0 -410.5 109.5t-230.5 304.5q-62 -118 -157.5 -202.5t-241 -135.5t-326.5 -51h-488v43l174 59v592h-174v90h174v547l-174 60v43h615q237 0 404 -96.5t237 -274.5q93 176 253.5 285.5t364.5 109.5
q114 0 235.5 -45.5t196.5 -112.5v-368h-63q-121 401 -436 401q-217 0 -377 -178q-115 -186 -115 -360q0 -140 46.5 -266.5t128 -220.5t198.5 -149t252 -55q101 0 214 64t177 180zM547 86q137 2 247 35.5t184.5 89t124 132.5t71.5 165t22 188q0 95 -18 183t-63 175
t-113.5 151t-177.5 103.5t-246 39.5h-183v-564h342v-90h-342v-608h152z" />
    <glyph glyph-name="E_A.liga" unicode="EA" horiz-adv-x="2486" 
d="M2331 96l145 -53v-43h-526v43l198 55l-176 426h-563l-35 -84q-92 -227 -223 -333.5t-320 -106.5h-776v43l174 59v1229l-174 60v43h1133v-383h-45l-148 295h-600v-566h449l71 213h46v-512h-46l-69 209h-451v-602h436q157 0 270 97t193 298l389 951h95zM1444 614h489
l-247 598z" />
    <glyph glyph-name="E_Aacute.liga" unicode="E&#xc1;" horiz-adv-x="2486" 
d="M2103 1712l-534 -170l-41 41l416 324h4l155 -185v-10zM2331 96l145 -53v-43h-526v43l198 55l-176 426h-563l-35 -84q-92 -227 -223 -333.5t-320 -106.5h-776v43l174 59v1229l-174 60v43h1133v-383h-45l-148 295h-600v-566h449l71 213h46v-512h-46l-69 209h-451v-602h436
q157 0 270 97t193 298l389 951h95zM1444 614h489l-247 598z" />
    <glyph glyph-name="E_Abreve.liga" unicode="E&#x102;" horiz-adv-x="2486" 
d="M1720 1552q-33 0 -69.5 8.5t-77.5 32t-73 58t-53.5 92.5t-21.5 131l64 2q25 -69 85.5 -113.5t145.5 -44.5t146.5 44.5t87.5 113.5l63 -2q0 -72 -21.5 -130.5t-54 -93t-74 -58t-78 -32t-69.5 -8.5zM2331 96l145 -53v-43h-526v43l198 55l-176 426h-563l-35 -84
q-92 -227 -223 -333.5t-320 -106.5h-776v43l174 59v1229l-174 60v43h1133v-383h-45l-148 295h-600v-566h449l71 213h46v-512h-46l-69 209h-451v-602h436q157 0 270 97t193 298l389 951h95zM1444 614h489l-247 598z" />
    <glyph glyph-name="E_Acircumflex.liga" unicode="E&#xc2;" horiz-adv-x="2486" 
d="M1710 1720l-307 -178l-41 37l260 307h190l259 -305l-41 -39zM2331 96l145 -53v-43h-526v43l198 55l-176 426h-563l-35 -84q-92 -227 -223 -333.5t-320 -106.5h-776v43l174 59v1229l-174 60v43h1133v-383h-45l-148 295h-600v-566h449l71 213h46v-512h-46l-69 209h-451
v-602h436q157 0 270 97t193 298l389 951h95zM1444 614h489l-247 598z" />
    <glyph glyph-name="E_Adieresis.liga" unicode="E&#xc4;" horiz-adv-x="2486" 
d="M1532 1624q-46 0 -80.5 35t-34.5 82t34.5 82t80.5 35t80.5 -35t34.5 -82t-34.5 -82t-80.5 -35zM1911 1624q-46 0 -79.5 35t-33.5 82t33.5 82t79.5 35t80 -35t34 -82t-34 -82t-80 -35zM2331 96l145 -53v-43h-526v43l198 55l-176 426h-563l-35 -84q-92 -227 -223 -333.5
t-320 -106.5h-776v43l174 59v1229l-174 60v43h1133v-383h-45l-148 295h-600v-566h449l71 213h46v-512h-46l-69 209h-451v-602h436q157 0 270 97t193 298l389 951h95zM1444 614h489l-247 598z" />
    <glyph glyph-name="E_Agrave.liga" unicode="E&#xc0;" horiz-adv-x="2486" 
d="M1898 1589l-32 -47l-506 144v8l137 213h4zM2331 96l145 -53v-43h-526v43l198 55l-176 426h-563l-35 -84q-92 -227 -223 -333.5t-320 -106.5h-776v43l174 59v1229l-174 60v43h1133v-383h-45l-148 295h-600v-566h449l71 213h46v-512h-46l-69 209h-451v-602h436
q157 0 270 97t193 298l389 951h95zM1444 614h489l-247 598z" />
    <glyph glyph-name="E_Amacron.liga" unicode="E&#x100;" horiz-adv-x="2486" 
d="M1991 1784v-142h-539v142h539zM2331 96l145 -53v-43h-526v43l198 55l-176 426h-563l-35 -84q-92 -227 -223 -333.5t-320 -106.5h-776v43l174 59v1229l-174 60v43h1133v-383h-45l-148 295h-600v-566h449l71 213h46v-512h-46l-69 209h-451v-602h436q157 0 270 97t193 298
l389 951h95zM1444 614h489l-247 598z" />
    <glyph glyph-name="E_Aogonek.liga" unicode="E&#x104;" horiz-adv-x="2486" 
d="M2331 96l145 -53v-43h-190q-95 -158 -95 -270q0 -73 52.5 -107.5t117.5 -15.5v-51q-53 -32 -113.5 -40t-110.5 7.5t-83 59t-33 106.5q0 118 197 311h-268v43l198 55l-176 426h-563l-35 -84q-92 -227 -223 -333.5t-320 -106.5h-776v43l174 59v1229l-174 60v43h1133v-383
h-45l-148 295h-600v-566h449l71 213h46v-512h-46l-69 209h-451v-602h436q157 0 270 97t193 298l389 951h95zM1444 614h489l-247 598z" />
    <glyph glyph-name="E_Aring.liga" unicode="E&#xc5;" horiz-adv-x="2486" 
d="M1720 1503q-95 0 -161 55.5t-66 147.5q0 90 59 158.5t166 68.5q96 0 163 -55t67 -147q0 -90 -60 -159t-168 -69zM1620 1806q-23 -34 -23 -80q0 -62 37 -93t99 -31q41 0 86 28q24 27 24 80q0 64 -36 95.5t-97 31.5q-48 0 -90 -31zM2331 96l145 -53v-43h-526v43l198 55
l-176 426h-563l-35 -84q-92 -227 -223 -333.5t-320 -106.5h-776v43l174 59v1229l-174 60v43h1133v-383h-45l-148 295h-600v-566h449l71 213h46v-512h-46l-69 209h-451v-602h436q157 0 270 97t193 298l389 951h95zM1444 614h489l-247 598z" />
    <glyph glyph-name="E_Atilde.liga" unicode="E&#xc3;" horiz-adv-x="2486" 
d="M1569 1700q-52 0 -81.5 -31t-57.5 -92l-54 20q28 132 89 204.5t149 72.5q47 0 88 -20.5t65 -45t54.5 -45t58.5 -20.5q50 0 78 30t57 91l56 -21q-28 -132 -89.5 -204t-148.5 -72q-47 0 -88 21t-65.5 45.5t-54 45.5t-56.5 21zM2331 96l145 -53v-43h-526v43l198 55l-176 426
h-563l-35 -84q-92 -227 -223 -333.5t-320 -106.5h-776v43l174 59v1229l-174 60v43h1133v-383h-45l-148 295h-600v-566h449l71 213h46v-512h-46l-69 209h-451v-602h436q157 0 270 97t193 298l389 951h95zM1444 614h489l-247 598z" />
    <glyph glyph-name="Eacute_A.liga" unicode="&#xc9;A" horiz-adv-x="2486" 
d="M1057 1712l-535 -170l-41 41l416 324h4l156 -185v-10zM2331 96l145 -53v-43h-526v43l198 55l-176 426h-563l-35 -84q-92 -227 -223 -333.5t-320 -106.5h-776v43l174 59v1229l-174 60v43h1133v-383h-45l-148 295h-600v-566h449l71 213h46v-512h-46l-69 209h-451v-602h436
q157 0 270 97t193 298l389 951h95zM1444 614h489l-247 598z" />
    <glyph glyph-name="Ebreve_A.liga" unicode="&#x114;A" horiz-adv-x="2486" 
d="M676 1552q-33 0 -69.5 8.5t-77.5 32t-73 58t-53.5 92.5t-21.5 131l63 2q25 -69 86 -113.5t146 -44.5t146 44.5t87 113.5l64 -2q0 -72 -21.5 -130.5t-54 -93t-74 -58t-78 -32t-69.5 -8.5zM2331 96l145 -53v-43h-526v43l198 55l-176 426h-563l-35 -84q-92 -227 -223 -333.5
t-320 -106.5h-776v43l174 59v1229l-174 60v43h1133v-383h-45l-148 295h-600v-566h449l71 213h46v-512h-46l-69 209h-451v-602h436q157 0 270 97t193 298l389 951h95zM1444 614h489l-247 598z" />
    <glyph glyph-name="Ecaron_A.liga" unicode="&#x11a;A" horiz-adv-x="2486" 
d="M582 1563l-258 305l41 39l319 -178l307 178l41 -37l-260 -307h-190zM2331 96l145 -53v-43h-526v43l198 55l-176 426h-563l-35 -84q-92 -227 -223 -333.5t-320 -106.5h-776v43l174 59v1229l-174 60v43h1133v-383h-45l-148 295h-600v-566h449l71 213h46v-512h-46l-69 209
h-451v-602h436q157 0 270 97t193 298l389 951h95zM1444 614h489l-247 598z" />
    <glyph glyph-name="Ecircumflex_A.liga" unicode="&#xca;A" horiz-adv-x="2486" 
d="M666 1720l-308 -178l-41 37l261 307h190l258 -305l-41 -39zM2331 96l145 -53v-43h-526v43l198 55l-176 426h-563l-35 -84q-92 -227 -223 -333.5t-320 -106.5h-776v43l174 59v1229l-174 60v43h1133v-383h-45l-148 295h-600v-566h449l71 213h46v-512h-46l-69 209h-451v-602
h436q157 0 270 97t193 298l389 951h95zM1444 614h489l-247 598z" />
    <glyph glyph-name="Edieresis_A.liga" unicode="&#xcb;A" horiz-adv-x="2486" 
d="M485 1624q-46 0 -80 35t-34 82t34 82t80 35t80.5 -35t34.5 -82t-34.5 -82t-80.5 -35zM864 1624q-46 0 -79 35t-33 82t33 82t79 35t80.5 -35t34.5 -82t-34.5 -82t-80.5 -35zM2331 96l145 -53v-43h-526v43l198 55l-176 426h-563l-35 -84q-92 -227 -223 -333.5t-320 -106.5
h-776v43l174 59v1229l-174 60v43h1133v-383h-45l-148 295h-600v-566h449l71 213h46v-512h-46l-69 209h-451v-602h436q157 0 270 97t193 298l389 951h95zM1444 614h489l-247 598z" />
    <glyph glyph-name="Edotaccent_A.liga" unicode="&#x116;A" horiz-adv-x="2486" 
d="M678 1622q-45 0 -81 35.5t-36 83.5t36 83.5t81 35.5q46 0 81.5 -35t35.5 -84t-35.5 -84t-81.5 -35zM2331 96l145 -53v-43h-526v43l198 55l-176 426h-563l-35 -84q-92 -227 -223 -333.5t-320 -106.5h-776v43l174 59v1229l-174 60v43h1133v-383h-45l-148 295h-600v-566h449
l71 213h46v-512h-46l-69 209h-451v-602h436q157 0 270 97t193 298l389 951h95zM1444 614h489l-247 598z" />
    <glyph glyph-name="Egrave_A.liga" unicode="&#xc8;A" horiz-adv-x="2486" 
d="M852 1589l-33 -47l-506 144v8l138 213h4zM2331 96l145 -53v-43h-526v43l198 55l-176 426h-563l-35 -84q-92 -227 -223 -333.5t-320 -106.5h-776v43l174 59v1229l-174 60v43h1133v-383h-45l-148 295h-600v-566h449l71 213h46v-512h-46l-69 209h-451v-602h436q157 0 270 97
t193 298l389 951h95zM1444 614h489l-247 598z" />
    <glyph glyph-name="Emacron_A.liga" unicode="&#x112;A" horiz-adv-x="2486" 
d="M946 1784v-142h-538v142h538zM2331 96l145 -53v-43h-526v43l198 55l-176 426h-563l-35 -84q-92 -227 -223 -333.5t-320 -106.5h-776v43l174 59v1229l-174 60v43h1133v-383h-45l-148 295h-600v-566h449l71 213h46v-512h-46l-69 209h-451v-602h436q157 0 270 97t193 298
l389 951h95zM1444 614h489l-247 598z" />
    <glyph glyph-name="F_E.liga" unicode="FE" horiz-adv-x="2322" 
d="M2212 395h43l-57 -395h-1147v43l172 59v1244h-828v-566h469l72 213h45v-512h-45l-70 209h-471v-588l172 -59v-43h-512v43l174 59v1229l-174 60v43h2126v-383h-43l-147 295h-602v-566h448l74 213h43v-512h-43l-72 209h-450v-602h626z" />
    <glyph glyph-name="F_Eacute.liga" unicode="F&#xc9;" horiz-adv-x="2322" 
d="M2052 1712l-534 -170l-41 41l415 324h4l156 -185v-10zM2212 395h43l-57 -395h-1147v43l172 59v1244h-828v-566h469l72 213h45v-512h-45l-70 209h-471v-588l172 -59v-43h-512v43l174 59v1229l-174 60v43h2126v-383h-43l-147 295h-602v-566h448l74 213h43v-512h-43l-72 209
h-450v-602h626z" />
    <glyph glyph-name="F_Ebreve.liga" unicode="F&#x114;" horiz-adv-x="2322" 
d="M1671 1552q-33 0 -69.5 8.5t-77.5 32t-73 58t-53.5 92.5t-21.5 131l64 2q25 -69 85.5 -113.5t145.5 -44.5t146.5 44.5t87.5 113.5l63 -2q0 -72 -21.5 -130.5t-54 -93t-74 -58t-78 -32t-69.5 -8.5zM2212 395h43l-57 -395h-1147v43l172 59v1244h-828v-566h469l72 213h45
v-512h-45l-70 209h-471v-588l172 -59v-43h-512v43l174 59v1229l-174 60v43h2126v-383h-43l-147 295h-602v-566h448l74 213h43v-512h-43l-72 209h-450v-602h626z" />
    <glyph glyph-name="F_Ecaron.liga" unicode="F&#x11a;" horiz-adv-x="2322" 
d="M1577 1563l-258 305l41 39l319 -178l308 178l41 -37l-261 -307h-190zM2212 395h43l-57 -395h-1147v43l172 59v1244h-828v-566h469l72 213h45v-512h-45l-70 209h-471v-588l172 -59v-43h-512v43l174 59v1229l-174 60v43h2126v-383h-43l-147 295h-602v-566h448l74 213h43
v-512h-43l-72 209h-450v-602h626z" />
    <glyph glyph-name="F_Ecircumflex.liga" unicode="F&#xca;" horiz-adv-x="2322" 
d="M1661 1720l-307 -178l-41 37l260 307h190l258 -305l-41 -39zM2212 395h43l-57 -395h-1147v43l172 59v1244h-828v-566h469l72 213h45v-512h-45l-70 209h-471v-588l172 -59v-43h-512v43l174 59v1229l-174 60v43h2126v-383h-43l-147 295h-602v-566h448l74 213h43v-512h-43
l-72 209h-450v-602h626z" />
    <glyph glyph-name="F_Edieresis.liga" unicode="F&#xcb;" horiz-adv-x="2322" 
d="M1481 1624q-46 0 -80.5 35t-34.5 82t34.5 82t80.5 35t80 -35t34 -82t-34 -82t-80 -35zM1860 1624q-46 0 -79.5 35t-33.5 82t33.5 82t79.5 35t80 -35t34 -82t-34 -82t-80 -35zM2212 395h43l-57 -395h-1147v43l172 59v1244h-828v-566h469l72 213h45v-512h-45l-70 209h-471
v-588l172 -59v-43h-512v43l174 59v1229l-174 60v43h2126v-383h-43l-147 295h-602v-566h448l74 213h43v-512h-43l-72 209h-450v-602h626z" />
    <glyph glyph-name="F_Edotaccent.liga" unicode="F&#x116;" horiz-adv-x="2322" 
d="M1671 1622q-45 0 -81 35.5t-36 83.5t36 83.5t81 35.5q46 0 81.5 -35t35.5 -84t-35.5 -84t-81.5 -35zM2212 395h43l-57 -395h-1147v43l172 59v1244h-828v-566h469l72 213h45v-512h-45l-70 209h-471v-588l172 -59v-43h-512v43l174 59v1229l-174 60v43h2126v-383h-43
l-147 295h-602v-566h448l74 213h43v-512h-43l-72 209h-450v-602h626z" />
    <glyph glyph-name="F_Egrave.liga" unicode="F&#xc8;" horiz-adv-x="2322" 
d="M1847 1589l-32 -47l-506 144v8l137 213h4zM2212 395h43l-57 -395h-1147v43l172 59v1244h-828v-566h469l72 213h45v-512h-45l-70 209h-471v-588l172 -59v-43h-512v43l174 59v1229l-174 60v43h2126v-383h-43l-147 295h-602v-566h448l74 213h43v-512h-43l-72 209h-450v-602
h626z" />
    <glyph glyph-name="F_Emacron.liga" unicode="F&#x112;" horiz-adv-x="2322" 
d="M1942 1784v-142h-539v142h539zM2212 395h43l-57 -395h-1147v43l172 59v1244h-828v-566h469l72 213h45v-512h-45l-70 209h-471v-588l172 -59v-43h-512v43l174 59v1229l-174 60v43h2126v-383h-43l-147 295h-602v-566h448l74 213h43v-512h-43l-72 209h-450v-602h626z" />
    <glyph glyph-name="F_Eogonek.liga" unicode="F&#x118;" horiz-adv-x="2322" 
d="M2105 -270q0 -73 52.5 -107.5t117.5 -15.5v-51q-53 -32 -113.5 -40t-110.5 7.5t-83 59t-33 106.5q0 118 197 311h-1081v43l172 59v1244h-828v-566h469l72 213h45v-512h-45l-70 209h-471v-588l172 -59v-43h-512v43l174 59v1229l-174 60v43h2126v-383h-43l-147 295h-602
v-566h448l74 213h43v-512h-43l-72 209h-450v-602h626l197 307h43l-57 -395h2q-95 -158 -95 -270z" />
    <glyph glyph-name="F_F.liga" unicode="FF" horiz-adv-x="2215" 
d="M2181 1434v-383h-43l-147 295h-602v-566h469l73 213h43v-512h-43l-71 209h-471v-588l174 -59v-43h-512v43l172 59v1244h-828v-566h469l72 213h45v-512h-45l-70 209h-471v-588l172 -59v-43h-512v43l174 59v1229l-174 60v43h2126z" />
    <glyph glyph-name="F_T.liga" unicode="FT" horiz-adv-x="2076" 
d="M1823 1346h-338v-1244l174 -59v-43h-512v43l172 59v1244h-924v-566h469l72 213h45v-512h-45l-70 209h-471v-588l172 -59v-43h-512v43l174 59v1229l-174 60v43h1950l61 -400h-45z" />
    <glyph glyph-name="F_Tbar.liga" unicode="F&#x166;" horiz-adv-x="2076" 
d="M1823 1346h-338v-562h268v-90h-268v-592l174 -59v-43h-512v43l172 59v592h-266v90h266v562h-924v-566h469l72 213h45v-512h-45l-70 209h-471v-588l172 -59v-43h-512v43l174 59v1229l-174 60v43h1950l61 -400h-45z" />
    <glyph glyph-name="F_Tcaron.liga" unicode="F&#x164;" horiz-adv-x="2076" 
d="M1305 1563l-258 305l40 39l320 -178l307 178l41 -37l-260 -307h-190zM1823 1346h-338v-1244l174 -59v-43h-512v43l172 59v1244h-924v-566h469l72 213h45v-512h-45l-70 209h-471v-588l172 -59v-43h-512v43l174 59v1229l-174 60v43h1950l61 -400h-45z" />
    <glyph glyph-name="uni00460162.liga" unicode="F&#x162;" horiz-adv-x="2076" 
d="M1823 1346h-338v-1244l174 -59v-43h-203l-74 -113l11 -2q91 -21 138.5 -70t47.5 -114q0 -101 -111 -156t-247 -20v53q91 -3 136.5 23t45.5 86q0 85 -86 104l-68 14l-2 5l123 190h-223v43l172 59v1244h-924v-566h469l72 213h45v-512h-45l-70 209h-471v-588l172 -59v-43
h-512v43l174 59v1229l-174 60v43h1950l61 -400h-45z" />
    <glyph glyph-name="uni0046021A.liga" unicode="F&#x21a;" horiz-adv-x="2076" 
d="M1823 1346h-338v-1244l174 -59v-43h-512v43l172 59v1244h-924v-566h469l72 213h45v-512h-45l-70 209h-471v-588l172 -59v-43h-512v43l174 59v1229l-174 60v43h1950l61 -400h-45zM1294 -158l152 70q64 -65 74 -147.5t-35.5 -156t-134.5 -112.5l-35 33q45 55 39.5 152
t-60.5 159v2z" />
    <glyph glyph-name="H_E.liga" unicode="HE" horiz-adv-x="2256" 
d="M2146 395h43l-57 -395h-1147v43l172 59v588h-762v-588l172 -59v-43h-512v43l174 59v1229l-174 60v43h512v-43l-172 -60v-551h762v551l-172 60v43h1131v-383h-43l-148 295h-602v-566h449l73 213h43v-512h-43l-71 209h-451v-602h627z" />
    <glyph glyph-name="H_Eacute.liga" unicode="H&#xc9;" horiz-adv-x="2256" 
d="M1987 1712l-535 -170l-41 41l416 324h4l156 -185v-10zM2146 395h43l-57 -395h-1147v43l172 59v588h-762v-588l172 -59v-43h-512v43l174 59v1229l-174 60v43h512v-43l-172 -60v-551h762v551l-172 60v43h1131v-383h-43l-148 295h-602v-566h449l73 213h43v-512h-43l-71 209
h-451v-602h627z" />
    <glyph glyph-name="H_Ebreve.liga" unicode="H&#x114;" horiz-adv-x="2256" 
d="M1606 1552q-33 0 -69.5 8.5t-77.5 32t-73 58t-53.5 92.5t-21.5 131l63 2q25 -69 86 -113.5t146 -44.5t146 44.5t87 113.5l64 -2q0 -72 -21.5 -130.5t-54 -93t-74 -58t-78 -32t-69.5 -8.5zM2146 395h43l-57 -395h-1147v43l172 59v588h-762v-588l172 -59v-43h-512v43
l174 59v1229l-174 60v43h512v-43l-172 -60v-551h762v551l-172 60v43h1131v-383h-43l-148 295h-602v-566h449l73 213h43v-512h-43l-71 209h-451v-602h627z" />
    <glyph glyph-name="H_Ecaron.liga" unicode="H&#x11a;" horiz-adv-x="2256" 
d="M1511 1563l-258 305l41 39l320 -178l307 178l41 -37l-260 -307h-191zM2146 395h43l-57 -395h-1147v43l172 59v588h-762v-588l172 -59v-43h-512v43l174 59v1229l-174 60v43h512v-43l-172 -60v-551h762v551l-172 60v43h1131v-383h-43l-148 295h-602v-566h449l73 213h43
v-512h-43l-71 209h-451v-602h627z" />
    <glyph glyph-name="H_Ecircumflex.liga" unicode="H&#xca;" horiz-adv-x="2256" 
d="M1595 1720l-307 -178l-41 37l260 307h191l258 -305l-41 -39zM2146 395h43l-57 -395h-1147v43l172 59v588h-762v-588l172 -59v-43h-512v43l174 59v1229l-174 60v43h512v-43l-172 -60v-551h762v551l-172 60v43h1131v-383h-43l-148 295h-602v-566h449l73 213h43v-512h-43
l-71 209h-451v-602h627z" />
    <glyph glyph-name="H_Edieresis.liga" unicode="H&#xcb;" horiz-adv-x="2256" 
d="M1415 1624q-46 0 -80.5 35t-34.5 82t34.5 82t80.5 35t80.5 -35t34.5 -82t-34.5 -82t-80.5 -35zM1794 1624q-46 0 -79.5 35t-33.5 82t33.5 82t79.5 35t80.5 -35t34.5 -82t-34.5 -82t-80.5 -35zM2146 395h43l-57 -395h-1147v43l172 59v588h-762v-588l172 -59v-43h-512v43
l174 59v1229l-174 60v43h512v-43l-172 -60v-551h762v551l-172 60v43h1131v-383h-43l-148 295h-602v-566h449l73 213h43v-512h-43l-71 209h-451v-602h627z" />
    <glyph glyph-name="H_Edotaccent.liga" unicode="H&#x116;" horiz-adv-x="2256" 
d="M1606 1622q-45 0 -81 35.5t-36 83.5t36 83.5t81 35.5q46 0 81 -35t35 -84t-35 -84t-81 -35zM2146 395h43l-57 -395h-1147v43l172 59v588h-762v-588l172 -59v-43h-512v43l174 59v1229l-174 60v43h512v-43l-172 -60v-551h762v551l-172 60v43h1131v-383h-43l-148 295h-602
v-566h449l73 213h43v-512h-43l-71 209h-451v-602h627z" />
    <glyph glyph-name="H_Egrave.liga" unicode="H&#xc8;" horiz-adv-x="2256" 
d="M1782 1589l-33 -47l-506 144v8l137 213h4zM2146 395h43l-57 -395h-1147v43l172 59v588h-762v-588l172 -59v-43h-512v43l174 59v1229l-174 60v43h512v-43l-172 -60v-551h762v551l-172 60v43h1131v-383h-43l-148 295h-602v-566h449l73 213h43v-512h-43l-71 209h-451v-602
h627z" />
    <glyph glyph-name="H_Emacron.liga" unicode="H&#x112;" horiz-adv-x="2256" 
d="M1876 1784v-142h-539v142h539zM2146 395h43l-57 -395h-1147v43l172 59v588h-762v-588l172 -59v-43h-512v43l174 59v1229l-174 60v43h512v-43l-172 -60v-551h762v551l-172 60v43h1131v-383h-43l-148 295h-602v-566h449l73 213h43v-512h-43l-71 209h-451v-602h627z" />
    <glyph glyph-name="H_Eogonek.liga" unicode="H&#x118;" horiz-adv-x="2256" 
d="M2040 -270q0 -73 52.5 -107.5t117.5 -15.5v-51q-53 -32 -113.5 -40t-110.5 7.5t-83 59t-33 106.5q0 119 196 311h-1081v43l172 59v588h-762v-588l172 -59v-43h-512v43l174 59v1229l-174 60v43h512v-43l-172 -60v-551h762v551l-172 60v43h1131v-383h-43l-148 295h-602
v-566h449l73 213h43v-512h-43l-71 209h-451v-602h627l196 307h43l-57 -395h2q-94 -156 -94 -270z" />
    <glyph glyph-name="H_H.liga" unicode="HH" horiz-adv-x="2482" 
d="M2425 1391l-172 -60v-1229l172 -59v-43h-510v43l172 59v588h-764v-588l174 -59v-43h-512v43l172 59v588h-762v-588l172 -59v-43h-512v43l174 59v1229l-174 60v43h512v-43l-172 -60v-551h762v551l-172 60v43h512v-43l-174 -60v-551h764v551l-172 60v43h510v-43z" />
    <glyph glyph-name="H_L.liga" unicode="HL" horiz-adv-x="2146" 
d="M2058 395h43l-57 -395h-1059v43l172 59v588h-762v-588l172 -59v-43h-512v43l174 59v1229l-174 60v43h512v-43l-172 -60v-551h762v551l-172 60v43h512v-43l-174 -60v-1243h535z" />
    <glyph glyph-name="H_Lacute.liga" unicode="H&#x139;" horiz-adv-x="2146" 
d="M1620 1712l-535 -170l-41 41l416 324h4l156 -185v-10zM2058 395h43l-57 -395h-1059v43l172 59v588h-762v-588l172 -59v-43h-512v43l174 59v1229l-174 60v43h512v-43l-172 -60v-551h762v551l-172 60v43h512v-43l-174 -60v-1243h535z" />
    <glyph glyph-name="H_Lcaron.liga" unicode="H&#x13d;" horiz-adv-x="2146" 
d="M1597 1012q33 49 45.5 97t-2.5 121.5t-69 158.5v4l151 69q65 -83 79.5 -165.5t-27 -162.5t-140.5 -147zM2058 395h43l-57 -395h-1059v43l172 59v588h-762v-588l172 -59v-43h-512v43l174 59v1229l-174 60v43h512v-43l-172 -60v-551h762v551l-172 60v43h512v-43l-174 -60
v-1243h535z" />
    <glyph glyph-name="H_Lcommaaccent.liga" unicode="H&#x13b;" horiz-adv-x="2146" 
d="M2058 395h43l-57 -395h-1059v43l172 59v588h-762v-588l172 -59v-43h-512v43l174 59v1229l-174 60v43h512v-43l-172 -60v-551h762v551l-172 60v43h512v-43l-174 -60v-1243h535zM1399 -158l151 70q64 -65 74 -147.5t-35.5 -156t-134.5 -112.5l-35 33q45 55 40 152t-60 159
v2z" />
    <glyph glyph-name="H_Ldot.liga" unicode="H&#x13f;" horiz-adv-x="2146" 
d="M2058 395h43l-57 -395h-1059v43l172 59v588h-762v-588l172 -59v-43h-512v43l174 59v1229l-174 60v43h512v-43l-172 -60v-551h762v551l-172 60v43h512v-43l-174 -60v-1243h535zM1851 627q-46 0 -81.5 33.5t-34.5 78.5q3 46 37 79.5t79 33.5q46 0 79.5 -33.5t33.5 -79.5
t-33.5 -79t-79.5 -33z" />
    <glyph glyph-name="H_R.liga" unicode="HR" horiz-adv-x="2279" 
d="M2116 94l153 -51v-43h-299l-475 668h-172v-566l174 -59v-43h-512v43l172 59v588h-762v-588l172 -59v-43h-512v43l174 59v1229l-174 60v43h512v-43l-172 -60v-551h762v551l-172 60v43h569q247 8 388 -82.5t141 -259.5q0 -136 -105.5 -252t-289.5 -154zM1323 756h113
q122 3 213.5 28.5t144.5 68t78.5 95t25.5 113.5q0 115 -104 200t-278 85h-193v-590z" />
    <glyph glyph-name="H_Racute.liga" unicode="H&#x154;" horiz-adv-x="2279" 
d="M1931 1712l-534 -170l-41 41l416 324h4l155 -185v-10zM2116 94l153 -51v-43h-299l-475 668h-172v-566l174 -59v-43h-512v43l172 59v588h-762v-588l172 -59v-43h-512v43l174 59v1229l-174 60v43h512v-43l-172 -60v-551h762v551l-172 60v43h569q247 8 388 -82.5t141 -259.5
q0 -136 -105.5 -252t-289.5 -154zM1323 756h113q122 3 213.5 28.5t144.5 68t78.5 95t25.5 113.5q0 115 -104 200t-278 85h-193v-590z" />
    <glyph glyph-name="H_Rcaron.liga" unicode="H&#x158;" horiz-adv-x="2279" 
d="M1454 1563l-258 305l41 39l319 -178l308 178l41 -37l-260 -307h-191zM2116 94l153 -51v-43h-299l-475 668h-172v-566l174 -59v-43h-512v43l172 59v588h-762v-588l172 -59v-43h-512v43l174 59v1229l-174 60v43h512v-43l-172 -60v-551h762v551l-172 60v43h569
q247 8 388 -82.5t141 -259.5q0 -136 -105.5 -252t-289.5 -154zM1323 756h113q122 3 213.5 28.5t144.5 68t78.5 95t25.5 113.5q0 115 -104 200t-278 85h-193v-590z" />
    <glyph glyph-name="H_Rcommaaccent.liga" unicode="H&#x156;" horiz-adv-x="2279" 
d="M2116 94l153 -51v-43h-299l-475 668h-172v-566l174 -59v-43h-512v43l172 59v588h-762v-588l172 -59v-43h-512v43l174 59v1229l-174 60v43h512v-43l-172 -60v-551h762v551l-172 60v43h569q247 8 388 -82.5t141 -259.5q0 -136 -105.5 -252t-289.5 -154zM1323 756h113
q122 3 213.5 28.5t144.5 68t78.5 95t25.5 113.5q0 115 -104 200t-278 85h-193v-590zM1524 -158l151 70q64 -65 74 -147.5t-35.5 -156t-134.5 -112.5l-35 33q45 55 40 152t-60 159v2z" />
    <glyph glyph-name="H_U.liga" unicode="HU" horiz-adv-x="2439" 
d="M2384 1434v-43l-150 -70v-850q0 -122 -44 -218.5t-120 -156t-172 -90.5t-206 -31q-76 0 -148 15.5t-143.5 52.5t-124.5 92.5t-86 143t-33 196.5v215h-762v-588l172 -59v-43h-512v43l174 59v1229l-174 60v43h512v-43l-172 -60v-551h762v551l-172 60v43h512v-43l-174 -60
v-815q0 -91 25.5 -162.5t68 -117.5t102 -75.5t122 -42t133.5 -12.5q102 0 184.5 42.5t134 132.5t51.5 213v825l-198 72v43h438z" />
    <glyph glyph-name="H_U_M.liga" unicode="HUM" horiz-adv-x="3790" 
d="M3734 1391l-173 -60v-1229l173 -59v-43h-510v43l172 59v1256l-555 -1358h-43l-564 1333v-862q0 -122 -44 -218.5t-120 -156t-172 -90.5t-206 -31q-76 0 -148 15.5t-143.5 52.5t-124.5 92.5t-86 143t-33 196.5v215h-762v-588l172 -59v-43h-512v43l174 59v1229l-174 60v43
h512v-43l-172 -60v-551h762v551l-172 60v43h512v-43l-174 -60v-815q0 -91 25.5 -162.5t68 -117.5t102 -75.5t122 -42t133.5 -12.5q102 0 184.5 42.5t134 132.5t51.5 213v825l-198 72v43h426l489 -1145l469 1145h404v-43z" />
    <glyph glyph-name="H_Uacute.liga" unicode="H&#xda;" horiz-adv-x="2439" 
d="M2114 1712l-535 -170l-41 41l416 324h4l156 -185v-10zM2384 1434v-43l-150 -70v-850q0 -122 -44 -218.5t-120 -156t-172 -90.5t-206 -31q-76 0 -148 15.5t-143.5 52.5t-124.5 92.5t-86 143t-33 196.5v215h-762v-588l172 -59v-43h-512v43l174 59v1229l-174 60v43h512v-43
l-172 -60v-551h762v551l-172 60v43h512v-43l-174 -60v-815q0 -91 25.5 -162.5t68 -117.5t102 -75.5t122 -42t133.5 -12.5q102 0 184.5 42.5t134 132.5t51.5 213v825l-198 72v43h438z" />
    <glyph glyph-name="H_Ubreve.liga" unicode="H&#x16c;" horiz-adv-x="2439" 
d="M1733 1552q-33 0 -69.5 8.5t-77.5 32t-73 58t-53.5 92.5t-21.5 131l63 2q25 -69 86 -113.5t146 -44.5t146 44.5t87 113.5l64 -2q0 -72 -21.5 -130.5t-54 -93t-74 -58t-78 -32t-69.5 -8.5zM2384 1434v-43l-150 -70v-850q0 -122 -44 -218.5t-120 -156t-172 -90.5t-206 -31
q-76 0 -148 15.5t-143.5 52.5t-124.5 92.5t-86 143t-33 196.5v215h-762v-588l172 -59v-43h-512v43l174 59v1229l-174 60v43h512v-43l-172 -60v-551h762v551l-172 60v43h512v-43l-174 -60v-815q0 -91 25.5 -162.5t68 -117.5t102 -75.5t122 -42t133.5 -12.5q102 0 184.5 42.5
t134 132.5t51.5 213v825l-198 72v43h438z" />
    <glyph glyph-name="H_Ucircumflex.liga" unicode="H&#xdb;" horiz-adv-x="2439" 
d="M1722 1720l-307 -178l-41 37l260 307h191l258 -305l-41 -39zM2384 1434v-43l-150 -70v-850q0 -122 -44 -218.5t-120 -156t-172 -90.5t-206 -31q-76 0 -148 15.5t-143.5 52.5t-124.5 92.5t-86 143t-33 196.5v215h-762v-588l172 -59v-43h-512v43l174 59v1229l-174 60v43
h512v-43l-172 -60v-551h762v551l-172 60v43h512v-43l-174 -60v-815q0 -91 25.5 -162.5t68 -117.5t102 -75.5t122 -42t133.5 -12.5q102 0 184.5 42.5t134 132.5t51.5 213v825l-198 72v43h438z" />
    <glyph glyph-name="H_Udieresis.liga" unicode="H&#xdc;" horiz-adv-x="2439" 
d="M1544 1624q-46 0 -80 35t-34 82t34 82t80 35t80.5 -35t34.5 -82t-34.5 -82t-80.5 -35zM1923 1624q-46 0 -79.5 35t-33.5 82t33.5 82t79.5 35t80.5 -35t34.5 -82t-34.5 -82t-80.5 -35zM2384 1434v-43l-150 -70v-850q0 -122 -44 -218.5t-120 -156t-172 -90.5t-206 -31
q-76 0 -148 15.5t-143.5 52.5t-124.5 92.5t-86 143t-33 196.5v215h-762v-588l172 -59v-43h-512v43l174 59v1229l-174 60v43h512v-43l-172 -60v-551h762v551l-172 60v43h512v-43l-174 -60v-815q0 -91 25.5 -162.5t68 -117.5t102 -75.5t122 -42t133.5 -12.5q102 0 184.5 42.5
t134 132.5t51.5 213v825l-198 72v43h438z" />
    <glyph glyph-name="H_Ugrave.liga" unicode="H&#xd9;" horiz-adv-x="2439" 
d="M1909 1589l-33 -47l-506 144v8l137 213h4zM2384 1434v-43l-150 -70v-850q0 -122 -44 -218.5t-120 -156t-172 -90.5t-206 -31q-76 0 -148 15.5t-143.5 52.5t-124.5 92.5t-86 143t-33 196.5v215h-762v-588l172 -59v-43h-512v43l174 59v1229l-174 60v43h512v-43l-172 -60
v-551h762v551l-172 60v43h512v-43l-174 -60v-815q0 -91 25.5 -162.5t68 -117.5t102 -75.5t122 -42t133.5 -12.5q102 0 184.5 42.5t134 132.5t51.5 213v825l-198 72v43h438z" />
    <glyph glyph-name="H_Uhungarumlaut.liga" unicode="H&#x170;" horiz-adv-x="2439" 
d="M1872 1821l-428 -279l-49 27l215 334h4l258 -70v-12zM1802 1544l-51 33l315 326h5l233 -103v-10zM2384 1434v-43l-150 -70v-850q0 -122 -44 -218.5t-120 -156t-172 -90.5t-206 -31q-76 0 -148 15.5t-143.5 52.5t-124.5 92.5t-86 143t-33 196.5v215h-762v-588l172 -59v-43
h-512v43l174 59v1229l-174 60v43h512v-43l-172 -60v-551h762v551l-172 60v43h512v-43l-174 -60v-815q0 -91 25.5 -162.5t68 -117.5t102 -75.5t122 -42t133.5 -12.5q102 0 184.5 42.5t134 132.5t51.5 213v825l-198 72v43h438z" />
    <glyph glyph-name="H_Umacron.liga" unicode="H&#x16a;" horiz-adv-x="2439" 
d="M2003 1784v-142h-539v142h539zM2384 1434v-43l-150 -70v-850q0 -122 -44 -218.5t-120 -156t-172 -90.5t-206 -31q-76 0 -148 15.5t-143.5 52.5t-124.5 92.5t-86 143t-33 196.5v215h-762v-588l172 -59v-43h-512v43l174 59v1229l-174 60v43h512v-43l-172 -60v-551h762v551
l-172 60v43h512v-43l-174 -60v-815q0 -91 25.5 -162.5t68 -117.5t102 -75.5t122 -42t133.5 -12.5q102 0 184.5 42.5t134 132.5t51.5 213v825l-198 72v43h438z" />
    <glyph glyph-name="H_Uogonek.liga" unicode="H&#x172;" horiz-adv-x="2439" 
d="M2384 1434v-43l-150 -70v-850q0 -90 -24.5 -166.5t-67.5 -132t-102.5 -97t-129 -64.5t-147.5 -31q-82 -143 -82 -250q0 -73 53 -108t119 -15v-51q-53 -32 -113.5 -40t-110.5 7.5t-83 59t-33 106.5t50 133t133 153h-4q-76 0 -148 15.5t-143.5 52.5t-124.5 92.5t-86 143
t-33 196.5v215h-762v-588l172 -59v-43h-512v43l174 59v1229l-174 60v43h512v-43l-172 -60v-551h762v551l-172 60v43h512v-43l-174 -60v-815q0 -91 25.5 -162.5t68 -117.5t102 -75.5t122 -42t133.5 -12.5q102 0 184.5 42.5t134 132.5t51.5 213v825l-198 72v43h438z" />
    <glyph glyph-name="H_Uring.liga" unicode="H&#x16e;" horiz-adv-x="2439" 
d="M1733 1503q-95 0 -161.5 55.5t-66.5 147.5q0 90 59.5 158.5t166.5 68.5q96 0 162.5 -55t66.5 -147q0 -90 -59.5 -159t-167.5 -69zM1632 1806q-22 -33 -22 -80q0 -62 37 -93t98 -31q41 0 86 28q24 27 24 80q0 64 -36 95.5t-97 31.5q-48 0 -90 -31zM2384 1434v-43l-150 -70
v-850q0 -122 -44 -218.5t-120 -156t-172 -90.5t-206 -31q-76 0 -148 15.5t-143.5 52.5t-124.5 92.5t-86 143t-33 196.5v215h-762v-588l172 -59v-43h-512v43l174 59v1229l-174 60v43h512v-43l-172 -60v-551h762v551l-172 60v43h512v-43l-174 -60v-815q0 -91 25.5 -162.5
t68 -117.5t102 -75.5t122 -42t133.5 -12.5q102 0 184.5 42.5t134 132.5t51.5 213v825l-198 72v43h438z" />
    <glyph glyph-name="H_Utilde.liga" unicode="H&#x168;" horiz-adv-x="2439" 
d="M1581 1700q-52 0 -81.5 -31t-57.5 -92l-53 20q28 133 88.5 205t148.5 72q47 0 88 -20.5t65 -45t54.5 -45t58.5 -20.5q50 0 79 30t57 91l55 -21q-28 -132 -89.5 -204t-148.5 -72q-47 0 -88 21t-65.5 45.5t-54 45.5t-56.5 21zM2384 1434v-43l-150 -70v-850
q0 -122 -44 -218.5t-120 -156t-172 -90.5t-206 -31q-76 0 -148 15.5t-143.5 52.5t-124.5 92.5t-86 143t-33 196.5v215h-762v-588l172 -59v-43h-512v43l174 59v1229l-174 60v43h512v-43l-172 -60v-551h762v551l-172 60v43h512v-43l-174 -60v-815q0 -91 25.5 -162.5t68 -117.5
t102 -75.5t122 -42t133.5 -12.5q102 0 184.5 42.5t134 132.5t51.5 213v825l-198 72v43h438z" />
    <glyph glyph-name="Hbar_E.liga" unicode="&#x126;E" horiz-adv-x="2256" 
d="M2146 395h43l-57 -395h-1147v43l172 59v588h-762v-588l172 -59v-43h-512v43l174 59v871h-225v90h225v268l-174 60v43h512v-43l-172 -60v-268h762v268l-172 60v43h1131v-383h-43l-148 295h-602v-283h209v-90h-209v-193h449l73 213h43v-512h-43l-71 209h-451v-602h627z
M395 780h762v193h-762v-193z" />
    <glyph glyph-name="Hbar_L.liga" unicode="&#x126;L" horiz-adv-x="2146" 
d="M2058 395h43l-57 -395h-1059v43l172 59v588h-762v-588l172 -59v-43h-512v43l174 59v871h-225v90h225v268l-174 60v43h512v-43l-172 -60v-268h762v268l-172 60v43h512v-43l-174 -60v-268h209v-90h-209v-885h535zM395 780h762v193h-762v-193z" />
    <glyph glyph-name="Hbar_R.liga" unicode="&#x126;R" horiz-adv-x="2279" 
d="M2116 94l153 -51v-43h-299l-475 668h-172v-566l174 -59v-43h-512v43l172 59v588h-762v-588l172 -59v-43h-512v43l174 59v871h-225v90h225v268l-174 60v43h512v-43l-172 -60v-268h762v268l-172 60v43h569q247 8 388 -82.5t141 -259.5q0 -136 -105.5 -252t-289.5 -154z
M1323 756h113q122 3 213.5 28.5t144.5 68t78.5 95t25.5 113.5q0 115 -104 200t-278 85h-193v-283h209v-90h-209v-217zM395 780h762v193h-762v-193z" />
    <glyph glyph-name="Hbar_U.liga" unicode="&#x126;U" horiz-adv-x="2439" 
d="M2384 1434v-43l-150 -70v-850q0 -122 -44 -218.5t-120 -156t-172 -90.5t-206 -31q-76 0 -148 15.5t-143.5 52.5t-124.5 92.5t-86 143t-33 196.5v215h-762v-588l172 -59v-43h-512v43l174 59v871h-225v90h225v268l-174 60v43h512v-43l-172 -60v-268h762v268l-172 60v43h512
v-43l-174 -60v-268h209v-90h-209v-457q0 -91 25.5 -162.5t68 -117.5t102 -75.5t122 -42t133.5 -12.5q102 0 184.5 42.5t134 132.5t51.5 213v825l-198 72v43h438zM395 780h762v193h-762v-193z" />
    <glyph glyph-name="Hcircumflex_E.liga" unicode="&#x124;E" horiz-adv-x="2256" 
d="M770 1720l-307 -178l-41 37l260 307h190l258 -305l-40 -39zM2146 395h43l-57 -395h-1147v43l172 59v588h-762v-588l172 -59v-43h-512v43l174 59v1229l-174 60v43h512v-43l-172 -60v-551h762v551l-172 60v43h1131v-383h-43l-148 295h-602v-566h449l73 213h43v-512h-43
l-71 209h-451v-602h627z" />
    <glyph glyph-name="Hcircumflex_L.liga" unicode="&#x124;L" horiz-adv-x="2146" 
d="M770 1720l-307 -178l-41 37l260 307h190l258 -305l-40 -39zM2058 395h43l-57 -395h-1059v43l172 59v588h-762v-588l172 -59v-43h-512v43l174 59v1229l-174 60v43h512v-43l-172 -60v-551h762v551l-172 60v43h512v-43l-174 -60v-1243h535z" />
    <glyph glyph-name="Hcircumflex_R.liga" unicode="&#x124;R" horiz-adv-x="2279" 
d="M770 1720l-307 -178l-41 37l260 307h190l258 -305l-40 -39zM2116 94l153 -51v-43h-299l-475 668h-172v-566l174 -59v-43h-512v43l172 59v588h-762v-588l172 -59v-43h-512v43l174 59v1229l-174 60v43h512v-43l-172 -60v-551h762v551l-172 60v43h569q247 8 388 -82.5
t141 -259.5q0 -136 -105.5 -252t-289.5 -154zM1323 756h113q122 3 213.5 28.5t144.5 68t78.5 95t25.5 113.5q0 115 -104 200t-278 85h-193v-590z" />
    <glyph glyph-name="Hcircumflex_U.liga" unicode="&#x124;U" horiz-adv-x="2439" 
d="M770 1720l-307 -178l-41 37l260 307h190l258 -305l-40 -39zM2384 1434v-43l-150 -70v-850q0 -122 -44 -218.5t-120 -156t-172 -90.5t-206 -31q-76 0 -148 15.5t-143.5 52.5t-124.5 92.5t-86 143t-33 196.5v215h-762v-588l172 -59v-43h-512v43l174 59v1229l-174 60v43h512
v-43l-172 -60v-551h762v551l-172 60v43h512v-43l-174 -60v-815q0 -91 25.5 -162.5t68 -117.5t102 -75.5t122 -42t133.5 -12.5q102 0 184.5 42.5t134 132.5t51.5 213v825l-198 72v43h438z" />
    <glyph glyph-name="I_T.liga" unicode="IT" horiz-adv-x="1671" 
d="M1417 1346h-338v-1244l172 -59v-43h-510v43l172 59v1244h-464l-199 -312h-45l61 400h1333l62 -400h-45zM45 731v43h512v-43l-172 -59v-570l172 -59v-43h-512v43l174 59v570z" />
    <glyph glyph-name="I_T_H.liga" unicode="ITH" horiz-adv-x="2930" 
d="M1077 1346v-1244l172 -59v-43h-510v43l172 59v1244h-465l-198 -312h-45l61 400h1444v-13l59 -387h-45l-198 312h-447zM2873 1391l-172 -60v-1229l172 -59v-43h-510v43l172 59v588h-763v-588l174 -59v-43h-512v43l172 59v678h929v551l-172 60v43h510v-43zM43 731v43h512
v-43l-172 -59v-570l172 -59v-43h-512v43l174 59v570z" />
    <glyph glyph-name="I_Tbar.liga" unicode="I&#x166;" horiz-adv-x="1671" 
d="M1417 1346h-338v-562h269v-90h-269v-592l172 -59v-43h-510v43l172 59v592h-268v90h268v562h-464l-199 -312h-45l61 400h1333l62 -400h-45zM45 731v43h512v-43l-172 -59v-570l172 -59v-43h-512v43l174 59v570z" />
    <glyph glyph-name="I_Tcaron.liga" unicode="I&#x164;" horiz-adv-x="1671" 
d="M899 1563l-258 305l41 39l319 -178l308 178l41 -37l-260 -307h-191zM1417 1346h-338v-1244l172 -59v-43h-510v43l172 59v1244h-464l-199 -312h-45l61 400h1333l62 -400h-45zM45 731v43h512v-43l-172 -59v-570l172 -59v-43h-512v43l174 59v570z" />
    <glyph glyph-name="uni00490162.liga" unicode="I&#x162;" horiz-adv-x="1671" 
d="M1417 1346h-338v-1244l172 -59v-43h-202l-74 -113l10 -2q91 -21 138.5 -70t47.5 -114q0 -101 -111 -156t-247 -20v53q91 -3 136.5 23t45.5 86q0 85 -86 104l-67 14l-2 5l123 190h-222v43l172 59v1244h-464l-199 -312h-45l61 400h1333l62 -400h-45zM45 731v43h512v-43
l-172 -59v-570l172 -59v-43h-512v43l174 59v570z" />
    <glyph glyph-name="uni0049021A.liga" unicode="I&#x21a;" horiz-adv-x="1671" 
d="M1417 1346h-338v-1244l172 -59v-43h-510v43l172 59v1244h-464l-199 -312h-45l61 400h1333l62 -400h-45zM45 731v43h512v-43l-172 -59v-570l172 -59v-43h-512v43l174 59v570zM889 -158l151 70q64 -65 74 -147.5t-35.5 -156t-134.5 -112.5l-35 33q45 55 40 152t-60 159v2z
" />
    <glyph glyph-name="Iogonek_T.liga" unicode="&#x12e;T" horiz-adv-x="1671" 
d="M1417 1346h-338v-1244l172 -59v-43h-510v43l172 59v1244h-464l-199 -312h-45l61 400h1333l62 -400h-45zM45 731v43h512v-43l-172 -59v-570l172 -59v-43h-162q-94 -156 -94 -270q0 -73 52.5 -107.5t117.5 -15.5v-51q-53 -32 -113.5 -40t-110.5 7.5t-83 59t-33 106.5
q0 118 197 311h-283v43l174 59v570z" />
    <glyph glyph-name="K_A.liga" unicode="KA" horiz-adv-x="2668" 
d="M2513 96l145 -53v-43h-524v43l197 55l-177 426h-565l-166 -411l228 -70v-43h-537l-534 719l-185 -174v-443l172 -59v-43h-512v43l174 59v1229l-174 60v43h512v-43l-172 -60v-667l692 657l-204 70v43h510v-43l-170 -68l-521 -487l555 -754l66 29l543 1323h94zM1626 614
h492l-248 600z" />
    <glyph glyph-name="K_Aacute.liga" unicode="K&#xc1;" horiz-adv-x="2668" 
d="M2286 1712l-535 -170l-41 41l416 324h4l156 -185v-10zM2513 96l145 -53v-43h-524v43l197 55l-177 426h-565l-166 -411l228 -70v-43h-537l-534 719l-185 -174v-443l172 -59v-43h-512v43l174 59v1229l-174 60v43h512v-43l-172 -60v-667l692 657l-204 70v43h510v-43
l-170 -68l-521 -487l555 -754l66 29l543 1323h94zM1626 614h492l-248 600z" />
    <glyph glyph-name="K_Abreve.liga" unicode="K&#x102;" horiz-adv-x="2668" 
d="M1905 1552q-33 0 -69.5 8.5t-77.5 32t-73 58t-53.5 92.5t-21.5 131l63 2q25 -69 86 -113.5t146 -44.5t146 44.5t87 113.5l64 -2q0 -72 -21.5 -130.5t-54 -93t-74 -58t-78 -32t-69.5 -8.5zM2513 96l145 -53v-43h-524v43l197 55l-177 426h-565l-166 -411l228 -70v-43h-537
l-534 719l-185 -174v-443l172 -59v-43h-512v43l174 59v1229l-174 60v43h512v-43l-172 -60v-667l692 657l-204 70v43h510v-43l-170 -68l-521 -487l555 -754l66 29l543 1323h94zM1626 614h492l-248 600z" />
    <glyph glyph-name="K_Acircumflex.liga" unicode="K&#xc2;" horiz-adv-x="2668" 
d="M1894 1720l-307 -178l-41 37l260 307h191l258 -305l-41 -39zM2513 96l145 -53v-43h-524v43l197 55l-177 426h-565l-166 -411l228 -70v-43h-537l-534 719l-185 -174v-443l172 -59v-43h-512v43l174 59v1229l-174 60v43h512v-43l-172 -60v-667l692 657l-204 70v43h510v-43
l-170 -68l-521 -487l555 -754l66 29l543 1323h94zM1626 614h492l-248 600z" />
    <glyph glyph-name="K_Adieresis.liga" unicode="K&#xc4;" horiz-adv-x="2668" 
d="M1714 1624q-46 0 -80.5 35t-34.5 82t34.5 82t80.5 35t80.5 -35t34.5 -82t-34.5 -82t-80.5 -35zM2093 1624q-46 0 -79.5 35t-33.5 82t33.5 82t79.5 35t80.5 -35t34.5 -82t-34.5 -82t-80.5 -35zM2513 96l145 -53v-43h-524v43l197 55l-177 426h-565l-166 -411l228 -70v-43
h-537l-534 719l-185 -174v-443l172 -59v-43h-512v43l174 59v1229l-174 60v43h512v-43l-172 -60v-667l692 657l-204 70v43h510v-43l-170 -68l-521 -487l555 -754l66 29l543 1323h94zM1626 614h492l-248 600z" />
    <glyph glyph-name="K_Agrave.liga" unicode="K&#xc0;" horiz-adv-x="2668" 
d="M2081 1589l-33 -47l-506 144v8l137 213h4zM2513 96l145 -53v-43h-524v43l197 55l-177 426h-565l-166 -411l228 -70v-43h-537l-534 719l-185 -174v-443l172 -59v-43h-512v43l174 59v1229l-174 60v43h512v-43l-172 -60v-667l692 657l-204 70v43h510v-43l-170 -68l-521 -487
l555 -754l66 29l543 1323h94zM1626 614h492l-248 600z" />
    <glyph glyph-name="K_Amacron.liga" unicode="K&#x100;" horiz-adv-x="2668" 
d="M2175 1784v-142h-539v142h539zM2513 96l145 -53v-43h-524v43l197 55l-177 426h-565l-166 -411l228 -70v-43h-537l-534 719l-185 -174v-443l172 -59v-43h-512v43l174 59v1229l-174 60v43h512v-43l-172 -60v-667l692 657l-204 70v43h510v-43l-170 -68l-521 -487l555 -754
l66 29l543 1323h94zM1626 614h492l-248 600z" />
    <glyph glyph-name="K_Aogonek.liga" unicode="K&#x104;" horiz-adv-x="2668" 
d="M2513 96l145 -53v-43h-188q-94 -156 -94 -270q0 -73 52.5 -107.5t117.5 -15.5v-51q-53 -32 -113.5 -40t-110.5 7.5t-83 59t-33 106.5q0 119 196 311h-268v43l197 55l-177 426h-565l-166 -411l228 -70v-43h-537l-534 719l-185 -174v-443l172 -59v-43h-512v43l174 59v1229
l-174 60v43h512v-43l-172 -60v-667l692 657l-204 70v43h510v-43l-170 -68l-521 -487l555 -754l66 29l543 1323h94zM1626 614h492l-248 600z" />
    <glyph glyph-name="K_Aring.liga" unicode="K&#xc5;" horiz-adv-x="2668" 
d="M1905 1503q-95 0 -161.5 55.5t-66.5 147.5q0 90 59.5 158.5t166.5 68.5q96 0 162.5 -55t66.5 -147q0 -90 -59.5 -159t-167.5 -69zM1804 1806q-22 -33 -22 -80q0 -62 37 -93t98 -31q41 0 86 28q25 29 25 80q0 64 -36.5 95.5t-97.5 31.5q-48 0 -90 -31zM2513 96l145 -53
v-43h-524v43l197 55l-177 426h-565l-166 -411l228 -70v-43h-537l-534 719l-185 -174v-443l172 -59v-43h-512v43l174 59v1229l-174 60v43h512v-43l-172 -60v-667l692 657l-204 70v43h510v-43l-170 -68l-521 -487l555 -754l66 29l543 1323h94zM1626 614h492l-248 600z" />
    <glyph glyph-name="K_Atilde.liga" unicode="K&#xc3;" horiz-adv-x="2668" 
d="M1753 1700q-52 0 -81.5 -31t-57.5 -92l-53 20q28 133 88.5 205t148.5 72q47 0 88 -20.5t65 -45t54.5 -45t58.5 -20.5q50 0 79 30t57 91l55 -21q-28 -132 -89.5 -204t-148.5 -72q-47 0 -88 21t-65.5 45.5t-54 45.5t-56.5 21zM2513 96l145 -53v-43h-524v43l197 55l-177 426
h-565l-166 -411l228 -70v-43h-537l-534 719l-185 -174v-443l172 -59v-43h-512v43l174 59v1229l-174 60v43h512v-43l-172 -60v-667l692 657l-204 70v43h510v-43l-170 -68l-521 -487l555 -754l66 29l543 1323h94zM1626 614h492l-248 600z" />
    <glyph glyph-name="K_I.liga" unicode="KI" horiz-adv-x="1882" 
d="M1806 1391l-172 -60v-614l172 -60v-43h-512v43l174 60v614l-120 41l-125 -49l-521 -487l226 -306q97 -133 175 -218.5t157 -141.5t152 -67t151.5 17t165.5 101l40 -31q-76 -109 -178 -163.5t-217 -49t-242.5 88.5t-244.5 239l-307 414l-185 -174v-443l172 -59v-43h-512
v43l174 59v1229l-174 60v43h512v-43l-172 -60v-667l692 657l-204 70v43h923v-43z" />
    <glyph glyph-name="K_Iacute.liga" unicode="K&#xcd;" horiz-adv-x="1882" 
d="M1774 1907l155 -185v-10l-534 -170l-41 41l415 324h5zM1806 1434v-43l-172 -60v-614l172 -60v-43h-512v43l174 60v614l-120 41l-125 -49l-521 -487l226 -306q97 -133 175 -218.5t157 -141.5t152 -67t151.5 17t165.5 101l40 -31q-76 -109 -178 -163.5t-217 -49
t-242.5 88.5t-244.5 239l-307 414l-185 -174v-443l172 -59v-43h-512v43l174 59v1229l-174 60v43h512v-43l-172 -60v-667l692 657l-204 70v43h923z" />
    <glyph glyph-name="K_Ibreve.liga" unicode="K&#x12c;" horiz-adv-x="1882" 
d="M1548 1552q-33 0 -69.5 8.5t-77.5 32t-73 58t-53.5 92.5t-21.5 131l64 2q25 -69 85.5 -113.5t145.5 -44.5t146.5 44.5t87.5 113.5l63 -2q0 -72 -21.5 -130.5t-54 -93t-74 -58t-78 -32t-69.5 -8.5zM1806 1434v-43l-172 -60v-614l172 -60v-43h-512v43l174 60v614l-120 41
l-125 -49l-521 -487l226 -306q97 -133 175 -218.5t157 -141.5t152 -67t151.5 17t165.5 101l40 -31q-76 -109 -178 -163.5t-217 -49t-242.5 88.5t-244.5 239l-307 414l-185 -174v-443l172 -59v-43h-512v43l174 59v1229l-174 60v43h512v-43l-172 -60v-667l692 657l-204 70v43
h923z" />
    <glyph glyph-name="K_Icircumflex.liga" unicode="K&#xce;" horiz-adv-x="1882" 
d="M1640 1886l258 -305l-40 -39l-320 178l-307 -178l-41 37l260 307h190zM1806 1434v-43l-172 -60v-614l172 -60v-43h-512v43l174 60v614l-120 41l-125 -49l-521 -487l226 -306q97 -133 175 -218.5t157 -141.5t152 -67t151.5 17t165.5 101l40 -31q-76 -109 -178 -163.5
t-217 -49t-242.5 88.5t-244.5 239l-307 414l-185 -174v-443l172 -59v-43h-512v43l174 59v1229l-174 60v43h512v-43l-172 -60v-667l692 657l-204 70v43h923z" />
    <glyph glyph-name="K_Idieresis.liga" unicode="K&#xcf;" horiz-adv-x="1882" 
d="M1358 1624q-46 0 -80.5 35t-34.5 82t34.5 82t80.5 35t80.5 -35t34.5 -82t-34.5 -82t-80.5 -35zM1737 1858q46 0 80 -35t34 -82t-34 -82t-80 -35t-79.5 35t-33.5 82t33.5 82t79.5 35zM1806 1434v-43l-172 -60v-614l172 -60v-43h-512v43l174 60v614l-120 41l-125 -49
l-521 -487l226 -306q97 -133 175 -218.5t157 -141.5t152 -67t151.5 17t165.5 101l40 -31q-76 -109 -178 -163.5t-217 -49t-242.5 88.5t-244.5 239l-307 414l-185 -174v-443l172 -59v-43h-512v43l174 59v1229l-174 60v43h512v-43l-172 -60v-667l692 657l-204 70v43h923z" />
    <glyph glyph-name="K_Idotaccent.liga" unicode="K&#x130;" horiz-adv-x="1882" 
d="M1548 1622q-45 0 -80.5 35t-35.5 84t35.5 84t80.5 35q46 0 81.5 -35t35.5 -84t-35.5 -84t-81.5 -35zM1806 1391l-172 -60v-614l172 -60v-43h-512v43l174 60v614l-120 41l-125 -49l-521 -487l226 -306q97 -133 175 -218.5t157 -141.5t152 -67t151.5 17t165.5 101l40 -31
q-76 -109 -178 -163.5t-217 -49t-242.5 88.5t-244.5 239l-307 414l-185 -174v-443l172 -59v-43h-512v43l174 59v1229l-174 60v43h512v-43l-172 -60v-667l692 657l-204 70v43h923v-43z" />
    <glyph glyph-name="K_Igrave.liga" unicode="K&#xcc;" horiz-adv-x="1882" 
d="M1724 1589l-32 -47l-506 144v8l137 213h4zM1806 1391l-172 -60v-614l172 -60v-43h-512v43l174 60v614l-120 41l-125 -49l-521 -487l226 -306q97 -133 175 -218.5t157 -141.5t152 -67t151.5 17t165.5 101l40 -31q-76 -109 -178 -163.5t-217 -49t-242.5 88.5t-244.5 239
l-307 414l-185 -174v-443l172 -59v-43h-512v43l174 59v1229l-174 60v43h512v-43l-172 -60v-667l692 657l-204 70v43h923v-43z" />
    <glyph glyph-name="K_Imacron.liga" unicode="K&#x12a;" horiz-adv-x="1882" 
d="M1280 1784h539v-142h-539v142zM1806 1434v-43l-172 -60v-614l172 -60v-43h-512v43l174 60v614l-120 41l-125 -49l-521 -487l226 -306q97 -133 175 -218.5t157 -141.5t152 -67t151.5 17t165.5 101l40 -31q-76 -109 -178 -163.5t-217 -49t-242.5 88.5t-244.5 239l-307 414
l-185 -174v-443l172 -59v-43h-512v43l174 59v1229l-174 60v43h512v-43l-172 -60v-667l692 657l-204 70v43h923z" />
    <glyph glyph-name="K_Itilde.liga" unicode="K&#x128;" horiz-adv-x="1882" 
d="M1397 1700q-52 0 -82 -31t-58 -92l-53 20q28 132 89 204.5t149 72.5q47 0 88 -20.5t65 -45t54.5 -45t58.5 -20.5q50 0 78 30t57 91l55 -21q-28 -132 -89 -204t-148 -72q-47 0 -88 21t-65.5 45.5t-54 45.5t-56.5 21zM1806 1434v-43l-172 -60v-614l172 -60v-43h-512v43
l174 60v614l-120 41l-125 -49l-521 -487l226 -306q97 -133 175 -218.5t157 -141.5t152 -67t151.5 17t165.5 101l40 -31q-76 -109 -178 -163.5t-217 -49t-242.5 88.5t-244.5 239l-307 414l-185 -174v-443l172 -59v-43h-512v43l174 59v1229l-174 60v43h512v-43l-172 -60v-667
l692 657l-204 70v43h923z" />
    <glyph glyph-name="K_T.liga" unicode="KT" horiz-adv-x="2490" 
d="M2236 1346h-338v-1244l173 -59v-43h-510v43l172 59v1244h-455l-55 -23l-521 -487l545 -742l180 -51v-43h-313l-534 719l-185 -174v-443l172 -59v-43h-512v43l174 59v1229l-174 60v43h512v-43l-172 -60v-667l692 657l-204 70v43h1536l61 -400h-45z" />
    <glyph glyph-name="K_Tbar.liga" unicode="K&#x166;" horiz-adv-x="2490" 
d="M2236 1346h-338v-562h269v-90h-269v-592l173 -59v-43h-510v43l172 59v592h-269v90h269v562h-455l-55 -23l-521 -487l545 -742l180 -51v-43h-313l-534 719l-185 -174v-443l172 -59v-43h-512v43l174 59v1229l-174 60v43h512v-43l-172 -60v-667l692 657l-204 70v43h1536
l61 -400h-45z" />
    <glyph glyph-name="K_Tcaron.liga" unicode="K&#x164;" horiz-adv-x="2490" 
d="M1718 1563l-258 305l41 39l320 -178l307 178l41 -37l-260 -307h-191zM2236 1346h-338v-1244l173 -59v-43h-510v43l172 59v1244h-455l-55 -23l-521 -487l545 -742l180 -51v-43h-313l-534 719l-185 -174v-443l172 -59v-43h-512v43l174 59v1229l-174 60v43h512v-43l-172 -60
v-667l692 657l-204 70v43h1536l61 -400h-45z" />
    <glyph glyph-name="uni004B0162.liga" unicode="K&#x162;" horiz-adv-x="2490" 
d="M2236 1346h-338v-1244l173 -59v-43h-203l-74 -113l10 -2q91 -21 139 -70t48 -114q0 -101 -111.5 -156t-247.5 -20v53q91 -3 137 23t46 86q0 85 -86 104l-68 14l-2 5l123 190h-221v43l172 59v1244h-455l-55 -23l-521 -487l545 -742l180 -51v-43h-313l-534 719l-185 -174
v-443l172 -59v-43h-512v43l174 59v1229l-174 60v43h512v-43l-172 -60v-667l692 657l-204 70v43h1536l61 -400h-45z" />
    <glyph glyph-name="uni004B021A.liga" unicode="K&#x21a;" horiz-adv-x="2490" 
d="M2236 1346h-338v-1244l173 -59v-43h-510v43l172 59v1244h-455l-55 -23l-521 -487l545 -742l180 -51v-43h-313l-534 719l-185 -174v-443l172 -59v-43h-512v43l174 59v1229l-174 60v43h512v-43l-172 -60v-667l692 657l-204 70v43h1536l61 -400h-45zM1708 -158l152 70
q64 -65 74 -147.5t-36 -156t-135 -112.5l-34 33q45 55 39.5 152t-60.5 159v2z" />
    <glyph glyph-name="K_V.liga" unicode="KV" horiz-adv-x="2713" 
d="M2714 1434v-43l-154 -68l-535 -1323h-94l-545 1339l-65 23l-98 -39l-521 -487l545 -742l180 -51v-43h-313l-534 719l-185 -174v-443l172 -59v-43h-512v43l174 59v1229l-174 60v43h512v-43l-172 -60v-667l692 657l-204 70v43h925v-43l-239 -54l454 -1112l435 1092l-267 74
v43h523z" />
    <glyph glyph-name="K_V_A.liga" unicode="KVA" horiz-adv-x="3315" 
d="M3160 96l145 -53v-43h-526v43l199 55l-176 426h-566l-211 -524h-94l-545 1339l-65 23l-98 -39l-521 -487l545 -742l180 -51v-43h-313l-534 719l-185 -174v-443l172 -59v-43h-512v43l174 59v1229l-174 60v43h512v-43l-172 -60v-667l692 657l-204 70v43h925v-43l-239 -54
l454 -1112l482 1209h102zM2273 614h490l-248 598z" />
    <glyph glyph-name="K_W.liga" unicode="KW" horiz-adv-x="3375" 
d="M3365 1434v-43l-143 -62l-426 -1329h-89l-401 1071l-375 -1071h-88l-454 1341l-64 23l-102 -41l-521 -487l545 -742l180 -51v-43h-313l-534 719l-185 -174v-443l172 -59v-43h-512v43l174 59v1229l-174 60v43h512v-43l-172 -60v-667l692 657l-204 70v43h897v-43l-213 -56
l362 -1069l328 936l-53 139l-140 50v43h527v-43l-207 -54l403 -1067l334 1043l-237 78v43h481z" />
    <glyph glyph-name="K_Wacute.liga" unicode="K&#x1e82;" horiz-adv-x="3375" 
d="M2697 1712l-534 -170l-41 41l415 324h5l155 -185v-10zM3365 1434v-43l-143 -62l-426 -1329h-89l-401 1071l-375 -1071h-88l-454 1341l-64 23l-102 -41l-521 -487l545 -742l180 -51v-43h-313l-534 719l-185 -174v-443l172 -59v-43h-512v43l174 59v1229l-174 60v43h512v-43
l-172 -60v-667l692 657l-204 70v43h897v-43l-213 -56l362 -1069l328 936l-53 139l-140 50v43h527v-43l-207 -54l403 -1067l334 1043l-237 78v43h481z" />
    <glyph glyph-name="K_Wcircumflex.liga" unicode="K&#x174;" horiz-adv-x="3375" 
d="M2306 1720l-307 -178l-41 37l260 307h190l258 -305l-40 -39zM3365 1434v-43l-143 -62l-426 -1329h-89l-401 1071l-375 -1071h-88l-454 1341l-64 23l-102 -41l-521 -487l545 -742l180 -51v-43h-313l-534 719l-185 -174v-443l172 -59v-43h-512v43l174 59v1229l-174 60v43
h512v-43l-172 -60v-667l692 657l-204 70v43h897v-43l-213 -56l362 -1069l328 936l-53 139l-140 50v43h527v-43l-207 -54l403 -1067l334 1043l-237 78v43h481z" />
    <glyph glyph-name="K_Wdieresis.liga" unicode="K&#x1e84;" horiz-adv-x="3375" 
d="M2128 1624q-46 0 -80.5 35t-34.5 82t34.5 82t80.5 35t80.5 -35t34.5 -82t-34.5 -82t-80.5 -35zM2507 1624q-46 0 -79.5 35t-33.5 82t33.5 82t79.5 35t80 -35t34 -82t-34 -82t-80 -35zM3365 1434v-43l-143 -62l-426 -1329h-89l-401 1071l-375 -1071h-88l-454 1341l-64 23
l-102 -41l-521 -487l545 -742l180 -51v-43h-313l-534 719l-185 -174v-443l172 -59v-43h-512v43l174 59v1229l-174 60v43h512v-43l-172 -60v-667l692 657l-204 70v43h897v-43l-213 -56l362 -1069l328 936l-53 139l-140 50v43h527v-43l-207 -54l403 -1067l334 1043l-237 78v43
h481z" />
    <glyph glyph-name="K_Wgrave.liga" unicode="K&#x1e80;" horiz-adv-x="3375" 
d="M2492 1589l-32 -47l-506 144v8l137 213h4zM3365 1434v-43l-143 -62l-426 -1329h-89l-401 1071l-375 -1071h-88l-454 1341l-64 23l-102 -41l-521 -487l545 -742l180 -51v-43h-313l-534 719l-185 -174v-443l172 -59v-43h-512v43l174 59v1229l-174 60v43h512v-43l-172 -60
v-667l692 657l-204 70v43h897v-43l-213 -56l362 -1069l328 936l-53 139l-140 50v43h527v-43l-207 -54l403 -1067l334 1043l-237 78v43h481z" />
    <glyph glyph-name="K_Y.liga" unicode="KY" horiz-adv-x="2650" 
d="M2507 1321l-457 -705v-514l172 -59v-43h-512v43l174 59v508l-489 727l-72 27l-100 -41l-521 -487l545 -742l180 -51v-43h-313l-534 719l-185 -174v-443l172 -59v-43h-512v43l174 59v1229l-174 60v43h512v-43l-172 -60v-667l692 657l-204 70v43h886v-43l-182 -50l422 -628
l387 606l-215 72v43h479v-43z" />
    <glyph glyph-name="K_Yacute.liga" unicode="K&#xdd;" horiz-adv-x="2650" 
d="M2376 1712l-535 -170l-41 41l416 324h4l156 -185v-10zM2507 1321l-457 -705v-514l172 -59v-43h-512v43l174 59v508l-489 727l-72 27l-100 -41l-521 -487l545 -742l180 -51v-43h-313l-534 719l-185 -174v-443l172 -59v-43h-512v43l174 59v1229l-174 60v43h512v-43
l-172 -60v-667l692 657l-204 70v43h886v-43l-182 -50l422 -628l387 606l-215 72v43h479v-43z" />
    <glyph glyph-name="K_Ycircumflex.liga" unicode="K&#x176;" horiz-adv-x="2650" 
d="M1985 1720l-308 -178l-41 37l260 307h191l258 -305l-41 -39zM2507 1321l-457 -705v-514l172 -59v-43h-512v43l174 59v508l-489 727l-72 27l-100 -41l-521 -487l545 -742l180 -51v-43h-313l-534 719l-185 -174v-443l172 -59v-43h-512v43l174 59v1229l-174 60v43h512v-43
l-172 -60v-667l692 657l-204 70v43h886v-43l-182 -50l422 -628l387 606l-215 72v43h479v-43z" />
    <glyph glyph-name="K_Ydieresis.liga" unicode="K&#x178;" horiz-adv-x="2650" 
d="M1804 1624q-46 0 -80 35t-34 82t34 82t80 35t80.5 -35t34.5 -82t-34.5 -82t-80.5 -35zM2183 1624q-46 0 -79 35t-33 82t33 82t79 35t80.5 -35t34.5 -82t-34.5 -82t-80.5 -35zM2507 1321l-457 -705v-514l172 -59v-43h-512v43l174 59v508l-489 727l-72 27l-100 -41
l-521 -487l545 -742l180 -51v-43h-313l-534 719l-185 -174v-443l172 -59v-43h-512v43l174 59v1229l-174 60v43h512v-43l-172 -60v-667l692 657l-204 70v43h886v-43l-182 -50l422 -628l387 606l-215 72v43h479v-43z" />
    <glyph glyph-name="K_Ygrave.liga" unicode="K&#x1ef2;" horiz-adv-x="2650" 
d="M2171 1589l-33 -47l-506 144v8l137 213h5zM2507 1321l-457 -705v-514l172 -59v-43h-512v43l174 59v508l-489 727l-72 27l-100 -41l-521 -487l545 -742l180 -51v-43h-313l-534 719l-185 -174v-443l172 -59v-43h-512v43l174 59v1229l-174 60v43h512v-43l-172 -60v-667
l692 657l-204 70v43h886v-43l-182 -50l422 -628l387 606l-215 72v43h479v-43z" />
    <glyph glyph-name="Kcommaaccent_A.liga" unicode="&#x136;A" horiz-adv-x="2668" 
d="M2513 96l145 -53v-43h-524v43l197 55l-177 426h-565l-166 -411l228 -70v-43h-537l-534 719l-185 -174v-443l172 -59v-43h-512v43l174 59v1229l-174 60v43h512v-43l-172 -60v-667l692 657l-204 70v43h510v-43l-170 -68l-521 -487l555 -754l66 29l543 1323h94zM1626 614
h492l-248 600zM641 -158l152 70q64 -65 74 -147.5t-36 -156t-135 -112.5l-34 33q45 55 39.5 152t-60.5 159v2z" />
    <glyph glyph-name="Kcommaaccent_I.liga" unicode="&#x136;I" horiz-adv-x="1882" 
d="M1806 1391l-172 -60v-614l172 -60v-43h-512v43l174 60v614l-120 41l-125 -49l-521 -487l226 -306q97 -133 175 -218.5t157 -141.5t152 -67t151.5 17t165.5 101l40 -31q-76 -109 -178 -163.5t-217 -49t-242.5 88.5t-244.5 239l-307 414l-185 -174v-443l172 -59v-43h-512
v43l174 59v1229l-174 60v43h512v-43l-172 -60v-667l692 657l-204 70v43h923v-43zM641 -158l152 70q64 -65 74 -147.5t-36 -156t-135 -112.5l-34 33q45 55 39.5 152t-60.5 159v2z" />
    <glyph glyph-name="Kcommaaccent_T.liga" unicode="&#x136;T" horiz-adv-x="2490" 
d="M2236 1346h-338v-1244l173 -59v-43h-510v43l172 59v1244h-455l-55 -23l-521 -487l545 -742l180 -51v-43h-313l-534 719l-185 -174v-443l172 -59v-43h-512v43l174 59v1229l-174 60v43h512v-43l-172 -60v-667l692 657l-204 70v43h1536l61 -400h-45zM641 -158l152 70
q64 -65 74 -147.5t-36 -156t-135 -112.5l-34 33q45 55 39.5 152t-60.5 159v2z" />
    <glyph glyph-name="Kcommaaccent_V.liga" unicode="&#x136;V" horiz-adv-x="2713" 
d="M2714 1434v-43l-154 -68l-535 -1323h-94l-545 1339l-65 23l-98 -39l-521 -487l545 -742l180 -51v-43h-313l-534 719l-185 -174v-443l172 -59v-43h-512v43l174 59v1229l-174 60v43h512v-43l-172 -60v-667l692 657l-204 70v43h925v-43l-239 -54l454 -1112l435 1092l-267 74
v43h523zM641 -158l152 70q64 -65 74 -147.5t-36 -156t-135 -112.5l-34 33q45 55 39.5 152t-60.5 159v2z" />
    <glyph glyph-name="Kcommaaccent_W.liga" unicode="&#x136;W" horiz-adv-x="3375" 
d="M3365 1434v-43l-143 -62l-426 -1329h-89l-401 1071l-375 -1071h-88l-454 1341l-64 23l-102 -41l-521 -487l545 -742l180 -51v-43h-313l-534 719l-185 -174v-443l172 -59v-43h-512v43l174 59v1229l-174 60v43h512v-43l-172 -60v-667l692 657l-204 70v43h897v-43l-213 -56
l362 -1069l328 936l-53 139l-140 50v43h527v-43l-207 -54l403 -1067l334 1043l-237 78v43h481zM641 -158l152 70q64 -65 74 -147.5t-36 -156t-135 -112.5l-34 33q45 55 39.5 152t-60.5 159v2z" />
    <glyph glyph-name="Kcommaaccent_Y.liga" unicode="&#x136;Y" horiz-adv-x="2650" 
d="M2507 1321l-457 -705v-514l172 -59v-43h-512v43l174 59v508l-489 727l-72 27l-100 -41l-521 -487l545 -742l180 -51v-43h-313l-534 719l-185 -174v-443l172 -59v-43h-512v43l174 59v1229l-174 60v43h512v-43l-172 -60v-667l692 657l-204 70v43h886v-43l-182 -50l422 -628
l387 606l-215 72v43h479v-43zM641 -158l152 70q64 -65 74 -147.5t-36 -156t-135 -112.5l-34 33q45 55 39.5 152t-60.5 159v2z" />
    <glyph glyph-name="L_A.liga" unicode="LA" horiz-adv-x="1992" 
d="M1835 96l147 -53v-43h-526v43l197 55l-176 426h-564l-176 -436h193l198 307h46l-58 -395h-1061v43l174 59v1229l-174 60v43h512v-43l-172 -60v-1243h242l551 1346h94zM950 614h490l-248 596z" />
    <glyph glyph-name="L_Aacute.liga" unicode="L&#xc1;" horiz-adv-x="1992" 
d="M1608 1712l-535 -170l-41 41l416 324h4l156 -185v-10zM1835 96l147 -53v-43h-526v43l197 55l-176 426h-564l-176 -436h193l198 307h46l-58 -395h-1061v43l174 59v1229l-174 60v43h512v-43l-172 -60v-1243h242l551 1346h94zM950 614h490l-248 596z" />
    <glyph glyph-name="L_Abreve.liga" unicode="L&#x102;" horiz-adv-x="1992" 
d="M1227 1552q-33 0 -69.5 8.5t-77.5 32t-73 58t-53.5 92.5t-21.5 131l63 2q25 -69 86 -113.5t146 -44.5t146 44.5t87 113.5l64 -2q0 -72 -21.5 -130.5t-54 -93t-74 -58t-78 -32t-69.5 -8.5zM1835 96l147 -53v-43h-526v43l197 55l-176 426h-564l-176 -436h193l198 307h46
l-58 -395h-1061v43l174 59v1229l-174 60v43h512v-43l-172 -60v-1243h242l551 1346h94zM950 614h490l-248 596z" />
    <glyph glyph-name="L_Acircumflex.liga" unicode="L&#xc2;" horiz-adv-x="1992" 
d="M1217 1720l-308 -178l-41 37l260 307h191l258 -305l-41 -39zM1835 96l147 -53v-43h-526v43l197 55l-176 426h-564l-176 -436h193l198 307h46l-58 -395h-1061v43l174 59v1229l-174 60v43h512v-43l-172 -60v-1243h242l551 1346h94zM950 614h490l-248 596z" />
    <glyph glyph-name="L_Adieresis.liga" unicode="L&#xc4;" horiz-adv-x="1992" 
d="M1036 1624q-46 0 -80 35t-34 82t34 82t80 35t80.5 -35t34.5 -82t-34.5 -82t-80.5 -35zM1415 1624q-46 0 -79 35t-33 82t33 82t79 35t80.5 -35t34.5 -82t-34.5 -82t-80.5 -35zM1835 96l147 -53v-43h-526v43l197 55l-176 426h-564l-176 -436h193l198 307h46l-58 -395h-1061
v43l174 59v1229l-174 60v43h512v-43l-172 -60v-1243h242l551 1346h94zM950 614h490l-248 596z" />
    <glyph glyph-name="L_Agrave.liga" unicode="L&#xc0;" horiz-adv-x="1992" 
d="M1403 1589l-33 -47l-506 144v8l137 213h5zM1835 96l147 -53v-43h-526v43l197 55l-176 426h-564l-176 -436h193l198 307h46l-58 -395h-1061v43l174 59v1229l-174 60v43h512v-43l-172 -60v-1243h242l551 1346h94zM950 614h490l-248 596z" />
    <glyph glyph-name="L_Amacron.liga" unicode="L&#x100;" horiz-adv-x="1992" 
d="M1497 1784v-142h-539v142h539zM1835 96l147 -53v-43h-526v43l197 55l-176 426h-564l-176 -436h193l198 307h46l-58 -395h-1061v43l174 59v1229l-174 60v43h512v-43l-172 -60v-1243h242l551 1346h94zM950 614h490l-248 596z" />
    <glyph glyph-name="L_Aogonek.liga" unicode="L&#x104;" horiz-adv-x="1992" 
d="M1835 96l147 -53v-43h-190q-94 -156 -94 -270q0 -73 52.5 -107.5t117.5 -15.5v-51q-53 -32 -113.5 -40t-110.5 7.5t-83 59t-33 106.5q0 119 196 311h-268v43l197 55l-176 426h-564l-176 -436h193l198 307h46l-58 -395h-1061v43l174 59v1229l-174 60v43h512v-43l-172 -60
v-1243h242l551 1346h94zM950 614h490l-248 596z" />
    <glyph glyph-name="L_Aring.liga" unicode="L&#xc5;" horiz-adv-x="1992" 
d="M1227 1503q-95 0 -161.5 55.5t-66.5 147.5q0 90 59.5 158.5t166.5 68.5q96 0 162.5 -55t66.5 -147q0 -90 -59.5 -159t-167.5 -69zM1126 1806q-22 -33 -22 -80q0 -62 37 -93t98 -31q41 0 86 28q25 29 25 80q0 64 -36 95.5t-97 31.5q-49 0 -91 -31zM1835 96l147 -53v-43
h-526v43l197 55l-176 426h-564l-176 -436h193l198 307h46l-58 -395h-1061v43l174 59v1229l-174 60v43h512v-43l-172 -60v-1243h242l551 1346h94zM950 614h490l-248 596z" />
    <glyph glyph-name="L_Atilde.liga" unicode="L&#xc3;" horiz-adv-x="1992" 
d="M1075 1700q-52 0 -81.5 -31t-57.5 -92l-53 20q28 133 88.5 205t148.5 72q47 0 88 -20.5t65 -45t54.5 -45t58.5 -20.5q50 0 79 30t57 91l55 -21q-28 -132 -89.5 -204t-148.5 -72q-47 0 -88 21t-65.5 45.5t-54 45.5t-56.5 21zM1835 96l147 -53v-43h-526v43l197 55l-176 426
h-564l-176 -436h193l198 307h46l-58 -395h-1061v43l174 59v1229l-174 60v43h512v-43l-172 -60v-1243h242l551 1346h94zM950 614h490l-248 596z" />
    <glyph glyph-name="L_I.liga" unicode="LI" horiz-adv-x="1396" 
d="M930 88l198 307h46l-58 -395h-1061v43l174 59v1229l-174 60v43h512v-43l-172 -60v-1243h535zM1319 1391l-172 -60v-614l172 -60v-43h-510v43l172 60v614l-172 60v43h510v-43z" />
    <glyph glyph-name="L_Iacute.liga" unicode="L&#xcd;" horiz-adv-x="1396" 
d="M1286 1907l156 -185v-10l-535 -170l-41 41l416 324h4zM930 88l198 307h46l-58 -395h-1061v43l174 59v1229l-174 60v43h512v-43l-172 -60v-1243h535zM809 1391v43h510v-43l-172 -60v-614l172 -60v-43h-510v43l172 60v614z" />
    <glyph glyph-name="L_Ibreve.liga" unicode="L&#x12c;" horiz-adv-x="1396" 
d="M1061 1552q-33 0 -69.5 8.5t-77.5 32t-73 58t-53.5 92.5t-21.5 131l63 2q25 -69 86 -113.5t146 -44.5t146 44.5t87 113.5l64 -2q0 -72 -21.5 -130.5t-54 -93t-74 -58t-78 -32t-69.5 -8.5zM930 88l198 307h46l-58 -395h-1061v43l174 59v1229l-174 60v43h512v-43l-172 -60
v-1243h535zM809 1391v43h510v-43l-172 -60v-614l172 -60v-43h-510v43l172 60v614z" />
    <glyph glyph-name="L_Icircumflex.liga" unicode="L&#xce;" horiz-adv-x="1396" 
d="M1153 1886l258 -305l-41 -39l-319 178l-308 -178l-41 37l261 307h190zM930 88l198 307h46l-58 -395h-1061v43l174 59v1229l-174 60v43h512v-43l-172 -60v-1243h535zM809 1391v43h510v-43l-172 -60v-614l172 -60v-43h-510v43l172 60v614z" />
    <glyph glyph-name="L_Idieresis.liga" unicode="L&#xcf;" horiz-adv-x="1396" 
d="M872 1624q-46 0 -80 35t-34 82t34 82t80 35t80.5 -35t34.5 -82t-34.5 -82t-80.5 -35zM1251 1858q46 0 80.5 -35t34.5 -82t-34.5 -82t-80.5 -35t-79 35t-33 82t33 82t79 35zM930 88l198 307h46l-58 -395h-1061v43l174 59v1229l-174 60v43h512v-43l-172 -60v-1243h535z
M809 1391v43h510v-43l-172 -60v-614l172 -60v-43h-510v43l172 60v614z" />
    <glyph glyph-name="L_Idotaccent.liga" unicode="L&#x130;" horiz-adv-x="1396" 
d="M1063 1622q-45 0 -81 35.5t-36 83.5t36 83.5t81 35.5q46 0 81.5 -35t35.5 -84t-35.5 -84t-81.5 -35zM930 88l198 307h46l-58 -395h-1061v43l174 59v1229l-174 60v43h512v-43l-172 -60v-1243h535zM1319 1391l-172 -60v-614l172 -60v-43h-510v43l172 60v614l-172 60v43h510
v-43z" />
    <glyph glyph-name="L_Igrave.liga" unicode="L&#xcc;" horiz-adv-x="1396" 
d="M1237 1589l-33 -47l-506 144v8l138 213h4zM930 88l198 307h46l-58 -395h-1061v43l174 59v1229l-174 60v43h512v-43l-172 -60v-1243h535zM1319 1391l-172 -60v-614l172 -60v-43h-510v43l172 60v614l-172 60v43h510v-43z" />
    <glyph glyph-name="L_Imacron.liga" unicode="L&#x12a;" horiz-adv-x="1396" 
d="M793 1784h538v-142h-538v142zM930 88l198 307h46l-58 -395h-1061v43l174 59v1229l-174 60v43h512v-43l-172 -60v-1243h535zM809 1391v43h510v-43l-172 -60v-614l172 -60v-43h-510v43l172 60v614z" />
    <glyph glyph-name="L_Itilde.liga" unicode="L&#x128;" horiz-adv-x="1396" 
d="M909 1700q-52 0 -81.5 -31t-57.5 -92l-53 20q28 133 88.5 205t148.5 72q47 0 88 -20.5t65.5 -45t55 -45t58.5 -20.5q50 0 78 30t57 91l55 -21q-28 -132 -89 -204t-148 -72q-47 0 -88.5 21t-65.5 45.5t-54 45.5t-57 21zM930 88l198 307h46l-58 -395h-1061v43l174 59v1229
l-174 60v43h512v-43l-172 -60v-1243h535zM809 1391v43h510v-43l-172 -60v-614l172 -60v-43h-510v43l172 60v614z" />
    <glyph glyph-name="L_L.liga" unicode="LL" horiz-adv-x="1865" 
d="M930 88l198 307h46l-58 -395h-1061v43l174 59v1229l-174 60v43h512v-43l-172 -60v-1243h535zM1798 1010h45l-57 -396h-977v43l172 60v614l-172 60v43h510v-43l-172 -60v-629h452z" />
    <glyph glyph-name="L_T.liga" unicode="LT" horiz-adv-x="1767" 
d="M895 88l201 307h43l-58 -395h-1026v43l174 59v1229l-174 60v43h512v-43l-172 -60v-1243h500zM1513 1346h-194v-629l174 -60v-43h-512v43l172 60v629h-195l-198 -312h-43l61 400h918l61 -400h-45z" />
    <glyph glyph-name="L_Tbar.liga" unicode="L&#x166;" horiz-adv-x="1767" 
d="M895 88l201 307h43l-58 -395h-1026v43l174 59v1229l-174 60v43h512v-43l-172 -60v-1243h500zM1513 1346h-194v-316h248v-90h-248v-223l174 -60v-43h-512v43l172 60v223h-246v90h246v316h-195l-198 -312h-43l61 400h918l61 -400h-45z" />
    <glyph glyph-name="L_Tcaron.liga" unicode="L&#x164;" horiz-adv-x="1767" 
d="M1139 1563l-258 305l41 39l319 -178l307 178l41 -37l-260 -307h-190zM895 88l201 307h43l-58 -395h-1026v43l174 59v1229l-174 60v43h512v-43l-172 -60v-1243h500zM1513 1346h-194v-629l174 -60v-43h-512v43l172 60v629h-195l-198 -312h-43l61 400h918l61 -400h-45z" />
    <glyph glyph-name="Lacute_A.liga" unicode="&#x139;A" horiz-adv-x="1992" 
d="M690 1712l-534 -170l-41 41l415 324h5l155 -185v-10zM1835 96l147 -53v-43h-526v43l197 55l-176 426h-564l-176 -436h193l198 307h46l-58 -395h-1061v43l174 59v1229l-174 60v43h512v-43l-172 -60v-1243h242l551 1346h94zM950 614h490l-248 596z" />
    <glyph glyph-name="Lacute_I.liga" unicode="&#x139;I" horiz-adv-x="1396" 
d="M690 1712l-534 -170l-41 41l415 324h5l155 -185v-10zM930 88l198 307h46l-58 -395h-1061v43l174 59v1229l-174 60v43h512v-43l-172 -60v-1243h535zM1319 1391l-172 -60v-614l172 -60v-43h-510v43l172 60v614l-172 60v43h510v-43z" />
    <glyph glyph-name="Lacute_T.liga" unicode="&#x139;T" horiz-adv-x="1767" 
d="M690 1712l-534 -170l-41 41l415 324h5l155 -185v-10zM895 88l201 307h43l-58 -395h-1026v43l174 59v1229l-174 60v43h512v-43l-172 -60v-1243h500zM1513 1346h-194v-629l174 -60v-43h-512v43l172 60v629h-195l-198 -312h-43l61 400h918l61 -400h-45z" />
    <glyph glyph-name="Lcaron_A.liga" unicode="&#x13d;A" horiz-adv-x="1992" 
d="M674 1012q51 76 51 164.5t-78 212.5v4l152 69q65 -83 79.5 -165.5t-27 -162.5t-140.5 -147zM1835 96l147 -53v-43h-526v43l197 55l-176 426h-564l-176 -436h193l198 307h46l-58 -395h-1061v43l174 59v1229l-174 60v43h512v-43l-172 -60v-1243h242l551 1346h94zM950 614
h490l-248 596z" />
    <glyph glyph-name="Lcommaaccent_A.liga" unicode="&#x13b;A" horiz-adv-x="1992" 
d="M1835 96l147 -53v-43h-526v43l197 55l-176 426h-564l-176 -436h193l198 307h46l-58 -395h-1061v43l174 59v1229l-174 60v43h512v-43l-172 -60v-1243h242l551 1346h94zM950 614h490l-248 596zM471 -158l152 70q64 -65 74 -147.5t-36 -156t-135 -112.5l-34 33
q45 55 39.5 152t-60.5 159v2z" />
    <glyph glyph-name="Lcommaaccent_I.liga" unicode="&#x13b;I" horiz-adv-x="1396" 
d="M930 88l198 307h46l-58 -395h-1061v43l174 59v1229l-174 60v43h512v-43l-172 -60v-1243h535zM1319 1391l-172 -60v-614l172 -60v-43h-510v43l172 60v614l-172 60v43h510v-43zM471 -158l152 70q64 -65 74 -147.5t-36 -156t-135 -112.5l-34 33q45 55 39.5 152t-60.5 159v2z
" />
    <glyph glyph-name="Lcommaaccent_T.liga" unicode="&#x13b;T" horiz-adv-x="1767" 
d="M895 88l201 307h43l-58 -395h-1026v43l174 59v1229l-174 60v43h512v-43l-172 -60v-1243h500zM1513 1346h-194v-629l174 -60v-43h-512v43l172 60v629h-195l-198 -312h-43l61 400h918l61 -400h-45zM471 -158l152 70q64 -65 74 -147.5t-36 -156t-135 -112.5l-34 33
q45 55 39.5 152t-60.5 159v2z" />
    <glyph glyph-name="Lslash_A.liga" unicode="&#x141;A" horiz-adv-x="1992" 
d="M1835 96l147 -53v-43h-526v43l197 55l-176 426h-564l-176 -436h193l198 307h46l-58 -395h-1061v43l174 59v560l-186 -76l-33 80l219 90v575l-174 60v43h512v-43l-172 -60v-508l346 144l31 -84l-377 -154v-641h242l551 1346h94zM950 614h490l-248 596z" />
    <glyph glyph-name="Lslash_I.liga" unicode="&#x141;I" horiz-adv-x="1396" 
d="M930 88l198 307h46l-58 -395h-1061v43l174 59v560l-186 -76l-33 80l219 90v575l-174 60v43h512v-43l-172 -60v-508l346 144l31 -84l-377 -154v-641h535zM1319 1391l-172 -60v-614l172 -60v-43h-510v43l172 60v614l-172 60v43h510v-43z" />
    <glyph glyph-name="Lslash_T.liga" unicode="&#x141;T" horiz-adv-x="1767" 
d="M895 88l201 307h43l-58 -395h-1026v43l174 59v560l-186 -76l-33 80l219 90v575l-174 60v43h512v-43l-172 -60v-508l346 144l31 -84l-377 -154v-641h500zM1513 1346h-194v-629l174 -60v-43h-512v43l172 60v629h-195l-198 -312h-43l61 400h918l61 -400h-45z" />
    <glyph glyph-name="M_E.liga" unicode="ME" horiz-adv-x="2574" 
d="M2464 395h45l-58 -395h-1146v43l172 59v1256l-555 -1358h-43l-560 1323v-1208l222 -72v-43h-486v43l170 68v1222l-170 58v43h398l489 -1147l469 1147h1024v-383h-45l-147 295h-601v-566h449l72 213h45v-512h-45l-70 209h-451v-602h625z" />
    <glyph glyph-name="M_Eacute.liga" unicode="M&#xc9;" horiz-adv-x="2574" 
d="M2306 1712l-534 -170l-41 41l415 324h4l156 -185v-10zM2464 395h45l-58 -395h-1146v43l172 59v1256l-555 -1358h-43l-560 1323v-1208l222 -72v-43h-486v43l170 68v1222l-170 58v43h398l489 -1147l469 1147h1024v-383h-45l-147 295h-601v-566h449l72 213h45v-512h-45
l-70 209h-451v-602h625z" />
    <glyph glyph-name="M_Ebreve.liga" unicode="M&#x114;" horiz-adv-x="2574" 
d="M1923 1552q-33 0 -69.5 8.5t-77.5 32t-73 58t-53.5 92.5t-21.5 131l64 2q25 -69 85.5 -113.5t145.5 -44.5t146.5 44.5t87.5 113.5l63 -2q0 -72 -21.5 -130.5t-54 -93t-74 -58t-78 -32t-69.5 -8.5zM2464 395h45l-58 -395h-1146v43l172 59v1256l-555 -1358h-43l-560 1323
v-1208l222 -72v-43h-486v43l170 68v1222l-170 58v43h398l489 -1147l469 1147h1024v-383h-45l-147 295h-601v-566h449l72 213h45v-512h-45l-70 209h-451v-602h625z" />
    <glyph glyph-name="M_Ecaron.liga" unicode="M&#x11a;" horiz-adv-x="2574" 
d="M1829 1563l-258 305l41 39l319 -178l307 178l41 -37l-260 -307h-190zM2464 395h45l-58 -395h-1146v43l172 59v1256l-555 -1358h-43l-560 1323v-1208l222 -72v-43h-486v43l170 68v1222l-170 58v43h398l489 -1147l469 1147h1024v-383h-45l-147 295h-601v-566h449l72 213h45
v-512h-45l-70 209h-451v-602h625z" />
    <glyph glyph-name="M_Ecircumflex.liga" unicode="M&#xca;" horiz-adv-x="2574" 
d="M1913 1720l-307 -178l-41 37l260 307h190l258 -305l-41 -39zM2464 395h45l-58 -395h-1146v43l172 59v1256l-555 -1358h-43l-560 1323v-1208l222 -72v-43h-486v43l170 68v1222l-170 58v43h398l489 -1147l469 1147h1024v-383h-45l-147 295h-601v-566h449l72 213h45v-512
h-45l-70 209h-451v-602h625z" />
    <glyph glyph-name="M_Edieresis.liga" unicode="M&#xcb;" horiz-adv-x="2574" 
d="M1735 1624q-46 0 -80.5 35t-34.5 82t34.5 82t80.5 35t80 -35t34 -82t-34 -82t-80 -35zM2114 1624q-46 0 -79.5 35t-33.5 82t33.5 82t79.5 35t80 -35t34 -82t-34 -82t-80 -35zM2464 395h45l-58 -395h-1146v43l172 59v1256l-555 -1358h-43l-560 1323v-1208l222 -72v-43
h-486v43l170 68v1222l-170 58v43h398l489 -1147l469 1147h1024v-383h-45l-147 295h-601v-566h449l72 213h45v-512h-45l-70 209h-451v-602h625z" />
    <glyph glyph-name="M_Edotaccent.liga" unicode="M&#x116;" horiz-adv-x="2574" 
d="M1925 1622q-45 0 -81 35.5t-36 83.5t36 83.5t81 35.5q46 0 81.5 -35t35.5 -84t-35.5 -84t-81.5 -35zM2464 395h45l-58 -395h-1146v43l172 59v1256l-555 -1358h-43l-560 1323v-1208l222 -72v-43h-486v43l170 68v1222l-170 58v43h398l489 -1147l469 1147h1024v-383h-45
l-147 295h-601v-566h449l72 213h45v-512h-45l-70 209h-451v-602h625z" />
    <glyph glyph-name="M_Egrave.liga" unicode="M&#xc8;" horiz-adv-x="2574" 
d="M2101 1589l-33 -47l-505 144v8l137 213h4zM2464 395h45l-58 -395h-1146v43l172 59v1256l-555 -1358h-43l-560 1323v-1208l222 -72v-43h-486v43l170 68v1222l-170 58v43h398l489 -1147l469 1147h1024v-383h-45l-147 295h-601v-566h449l72 213h45v-512h-45l-70 209h-451
v-602h625z" />
    <glyph glyph-name="M_Emacron.liga" unicode="M&#x112;" horiz-adv-x="2574" 
d="M2193 1784v-142h-538v142h538zM2464 395h45l-58 -395h-1146v43l172 59v1256l-555 -1358h-43l-560 1323v-1208l222 -72v-43h-486v43l170 68v1222l-170 58v43h398l489 -1147l469 1147h1024v-383h-45l-147 295h-601v-566h449l72 213h45v-512h-45l-70 209h-451v-602h625z" />
    <glyph glyph-name="M_Eogonek.liga" unicode="M&#x118;" horiz-adv-x="2574" 
d="M2359 -270q0 -73 52.5 -107.5t117.5 -15.5v-51q-53 -32 -113.5 -40t-110.5 7.5t-83 59t-33 106.5q0 118 197 311h-1081v43l172 59v1256l-555 -1358h-43l-560 1323v-1208l222 -72v-43h-486v43l170 68v1222l-170 58v43h398l489 -1147l469 1147h1024v-383h-45l-147 295h-601
v-566h449l72 213h45v-512h-45l-70 209h-451v-602h625l197 307h45l-58 -395h3q-95 -158 -95 -270z" />
    <glyph glyph-name="M_L.liga" unicode="ML" horiz-adv-x="2463" 
d="M2376 395h45l-58 -395h-1058v43l172 59v1256l-555 -1358h-43l-560 1323v-1208l222 -72v-43h-486v43l170 68v1222l-170 58v43h398l489 -1147l469 1147h404v-43l-173 -60v-1243h535z" />
    <glyph glyph-name="M_Lacute.liga" unicode="M&#x139;" horiz-adv-x="2463" 
d="M1937 1712l-534 -170l-41 41l416 324h4l155 -185v-10zM2376 395h45l-58 -395h-1058v43l172 59v1256l-555 -1358h-43l-560 1323v-1208l222 -72v-43h-486v43l170 68v1222l-170 58v43h398l489 -1147l469 1147h404v-43l-173 -60v-1243h535z" />
    <glyph glyph-name="M_Lcommaaccent.liga" unicode="M&#x13b;" horiz-adv-x="2463" 
d="M2376 395h45l-58 -395h-1058v43l172 59v1256l-555 -1358h-43l-560 1323v-1208l222 -72v-43h-486v43l170 68v1222l-170 58v43h398l489 -1147l469 1147h404v-43l-173 -60v-1243h535zM1718 -158l152 70q64 -65 74 -147.5t-35.5 -156t-134.5 -112.5l-35 33q45 55 39.5 152
t-60.5 159v2z" />
    <glyph glyph-name="M_Ldot.liga" unicode="M&#x13f;" horiz-adv-x="2463" 
d="M2376 395h45l-58 -395h-1058v43l172 59v1256l-555 -1358h-43l-560 1323v-1208l222 -72v-43h-486v43l170 68v1222l-170 58v43h398l489 -1147l469 1147h404v-43l-173 -60v-1243h535zM2171 627q-47 0 -82.5 33.5t-34.5 78.5q3 46 37.5 79.5t79.5 33.5q46 0 79.5 -33.5
t33.5 -79.5t-33.5 -79t-79.5 -33z" />
    <glyph glyph-name="M_Lslash.liga" unicode="M&#x141;" horiz-adv-x="2463" 
d="M2376 395h45l-58 -395h-1058v43l172 59v560l-187 -76l-33 80l220 90v602l-555 -1358h-43l-560 1323v-1208l222 -72v-43h-486v43l170 68v1222l-170 58v43h398l489 -1147l469 1147h404v-43l-173 -60v-508l347 144l32 -84l-379 -154v-641h535z" />
    <glyph glyph-name="M_R.liga" unicode="MR" horiz-adv-x="2598" 
d="M2433 94l156 -51v-43h-299l-475 668h-173v-566l173 -59v-43h-510v43l172 59v1256l-555 -1358h-43l-560 1323v-1208l222 -72v-43h-486v43l170 68v1222l-170 58v43h398l489 -1147l469 1147h463q246 8 386 -82.5t140 -259.5q0 -136 -105.5 -252t-289.5 -154zM1642 756h111
q238 6 350.5 90.5t112.5 214.5q0 115 -104 200t-279 85h-191v-590z" />
    <glyph glyph-name="M_Racute.liga" unicode="M&#x154;" horiz-adv-x="2598" 
d="M2249 1712l-535 -170l-41 41l416 324h4l156 -185v-10zM2433 94l156 -51v-43h-299l-475 668h-173v-566l173 -59v-43h-510v43l172 59v1256l-555 -1358h-43l-560 1323v-1208l222 -72v-43h-486v43l170 68v1222l-170 58v43h398l489 -1147l469 1147h463q246 8 386 -82.5
t140 -259.5q0 -136 -105.5 -252t-289.5 -154zM1642 756h111q238 6 350.5 90.5t112.5 214.5q0 115 -104 200t-279 85h-191v-590z" />
    <glyph glyph-name="M_Rcaron.liga" unicode="M&#x158;" horiz-adv-x="2598" 
d="M1774 1563l-258 305l40 39l320 -178l307 178l41 -37l-260 -307h-190zM2433 94l156 -51v-43h-299l-475 668h-173v-566l173 -59v-43h-510v43l172 59v1256l-555 -1358h-43l-560 1323v-1208l222 -72v-43h-486v43l170 68v1222l-170 58v43h398l489 -1147l469 1147h463
q246 8 386 -82.5t140 -259.5q0 -136 -105.5 -252t-289.5 -154zM1642 756h111q238 6 350.5 90.5t112.5 214.5q0 115 -104 200t-279 85h-191v-590z" />
    <glyph glyph-name="M_Rcommaaccent.liga" unicode="M&#x156;" horiz-adv-x="2598" 
d="M2433 94l156 -51v-43h-299l-475 668h-173v-566l173 -59v-43h-510v43l172 59v1256l-555 -1358h-43l-560 1323v-1208l222 -72v-43h-486v43l170 68v1222l-170 58v43h398l489 -1147l469 1147h463q246 8 386 -82.5t140 -259.5q0 -136 -105.5 -252t-289.5 -154zM1642 756h111
q238 6 350.5 90.5t112.5 214.5q0 115 -104 200t-279 85h-191v-590zM1843 -158l152 70q64 -65 74 -147.5t-36 -156t-135 -112.5l-34 33q45 55 39.5 152t-60.5 159v2z" />
    <glyph glyph-name="M_U.liga" unicode="MU" horiz-adv-x="2756" 
d="M2703 1434v-43l-149 -70v-850q0 -122 -44 -218.5t-120 -156t-172.5 -90.5t-206.5 -31q-76 0 -148 15.5t-143 52.5t-124 92.5t-86 143t-33 196.5v883l-555 -1358h-43l-560 1323v-1208l222 -72v-43h-486v43l170 68v1222l-170 58v43h398l489 -1147l469 1147h404v-43
l-173 -60v-815q0 -91 25.5 -162.5t68 -117.5t102 -75.5t122 -42t133.5 -12.5q102 0 184.5 42.5t134.5 132.5t52 213v825l-199 72v43h438z" />
    <glyph glyph-name="M_Uacute.liga" unicode="M&#xda;" horiz-adv-x="2756" 
d="M2433 1712l-535 -170l-40 41l415 324h4l156 -185v-10zM2703 1434v-43l-149 -70v-850q0 -122 -44 -218.5t-120 -156t-172.5 -90.5t-206.5 -31q-76 0 -148 15.5t-143 52.5t-124 92.5t-86 143t-33 196.5v883l-555 -1358h-43l-560 1323v-1208l222 -72v-43h-486v43l170 68
v1222l-170 58v43h398l489 -1147l469 1147h404v-43l-173 -60v-815q0 -91 25.5 -162.5t68 -117.5t102 -75.5t122 -42t133.5 -12.5q102 0 184.5 42.5t134.5 132.5t52 213v825l-199 72v43h438z" />
    <glyph glyph-name="M_Ubreve.liga" unicode="M&#x16c;" horiz-adv-x="2756" 
d="M2052 1552q-33 0 -69.5 8.5t-77.5 32t-73 58t-53.5 92.5t-21.5 131l64 2q25 -69 85.5 -113.5t145.5 -44.5t146.5 44.5t87.5 113.5l63 -2q0 -72 -21.5 -130.5t-54 -93t-74 -58t-78 -32t-69.5 -8.5zM2703 1434v-43l-149 -70v-850q0 -122 -44 -218.5t-120 -156t-172.5 -90.5
t-206.5 -31q-76 0 -148 15.5t-143 52.5t-124 92.5t-86 143t-33 196.5v883l-555 -1358h-43l-560 1323v-1208l222 -72v-43h-486v43l170 68v1222l-170 58v43h398l489 -1147l469 1147h404v-43l-173 -60v-815q0 -91 25.5 -162.5t68 -117.5t102 -75.5t122 -42t133.5 -12.5
q102 0 184.5 42.5t134.5 132.5t52 213v825l-199 72v43h438z" />
    <glyph glyph-name="M_Ucircumflex.liga" unicode="M&#xdb;" horiz-adv-x="2756" 
d="M2042 1720l-307 -178l-41 37l260 307h190l258 -305l-41 -39zM2703 1434v-43l-149 -70v-850q0 -122 -44 -218.5t-120 -156t-172.5 -90.5t-206.5 -31q-76 0 -148 15.5t-143 52.5t-124 92.5t-86 143t-33 196.5v883l-555 -1358h-43l-560 1323v-1208l222 -72v-43h-486v43
l170 68v1222l-170 58v43h398l489 -1147l469 1147h404v-43l-173 -60v-815q0 -91 25.5 -162.5t68 -117.5t102 -75.5t122 -42t133.5 -12.5q102 0 184.5 42.5t134.5 132.5t52 213v825l-199 72v43h438z" />
    <glyph glyph-name="M_Udieresis.liga" unicode="M&#xdc;" horiz-adv-x="2756" 
d="M1862 1624q-46 0 -80.5 35t-34.5 82t34.5 82t80.5 35t80 -35t34 -82t-34 -82t-80 -35zM2241 1624q-46 0 -79.5 35t-33.5 82t33.5 82t79.5 35t80 -35t34 -82t-34 -82t-80 -35zM2703 1434v-43l-149 -70v-850q0 -122 -44 -218.5t-120 -156t-172.5 -90.5t-206.5 -31
q-76 0 -148 15.5t-143 52.5t-124 92.5t-86 143t-33 196.5v883l-555 -1358h-43l-560 1323v-1208l222 -72v-43h-486v43l170 68v1222l-170 58v43h398l489 -1147l469 1147h404v-43l-173 -60v-815q0 -91 25.5 -162.5t68 -117.5t102 -75.5t122 -42t133.5 -12.5q102 0 184.5 42.5
t134.5 132.5t52 213v825l-199 72v43h438z" />
    <glyph glyph-name="M_Ugrave.liga" unicode="M&#xd9;" horiz-adv-x="2756" 
d="M2228 1589l-33 -47l-505 144v8l137 213h4zM2703 1434v-43l-149 -70v-850q0 -122 -44 -218.5t-120 -156t-172.5 -90.5t-206.5 -31q-76 0 -148 15.5t-143 52.5t-124 92.5t-86 143t-33 196.5v883l-555 -1358h-43l-560 1323v-1208l222 -72v-43h-486v43l170 68v1222l-170 58
v43h398l489 -1147l469 1147h404v-43l-173 -60v-815q0 -91 25.5 -162.5t68 -117.5t102 -75.5t122 -42t133.5 -12.5q102 0 184.5 42.5t134.5 132.5t52 213v825l-199 72v43h438z" />
    <glyph glyph-name="M_Uhungarumlaut.liga" unicode="M&#x170;" horiz-adv-x="2756" 
d="M2191 1821l-428 -279l-49 27l215 334h4l258 -70v-12zM2122 1544l-51 33l315 326h4l233 -103v-10zM2703 1434v-43l-149 -70v-850q0 -122 -44 -218.5t-120 -156t-172.5 -90.5t-206.5 -31q-76 0 -148 15.5t-143 52.5t-124 92.5t-86 143t-33 196.5v883l-555 -1358h-43
l-560 1323v-1208l222 -72v-43h-486v43l170 68v1222l-170 58v43h398l489 -1147l469 1147h404v-43l-173 -60v-815q0 -91 25.5 -162.5t68 -117.5t102 -75.5t122 -42t133.5 -12.5q102 0 184.5 42.5t134.5 132.5t52 213v825l-199 72v43h438z" />
    <glyph glyph-name="M_Umacron.liga" unicode="M&#x16a;" horiz-adv-x="2756" 
d="M2322 1784v-142h-538v142h538zM2703 1434v-43l-149 -70v-850q0 -122 -44 -218.5t-120 -156t-172.5 -90.5t-206.5 -31q-76 0 -148 15.5t-143 52.5t-124 92.5t-86 143t-33 196.5v883l-555 -1358h-43l-560 1323v-1208l222 -72v-43h-486v43l170 68v1222l-170 58v43h398
l489 -1147l469 1147h404v-43l-173 -60v-815q0 -91 25.5 -162.5t68 -117.5t102 -75.5t122 -42t133.5 -12.5q102 0 184.5 42.5t134.5 132.5t52 213v825l-199 72v43h438z" />
    <glyph glyph-name="M_Uogonek.liga" unicode="M&#x172;" horiz-adv-x="2756" 
d="M2703 1434v-43l-149 -70v-850q0 -90 -24.5 -166.5t-67.5 -132t-102.5 -97t-129 -64.5t-147.5 -31q-82 -143 -82 -250q0 -73 53 -108t119 -15v-51q-53 -32 -113.5 -40t-110.5 7.5t-83 59t-33 106.5q0 108 182 286h-4q-76 0 -148 15.5t-143 52.5t-124 92.5t-86 143
t-33 196.5v883l-555 -1358h-43l-560 1323v-1208l222 -72v-43h-486v43l170 68v1222l-170 58v43h398l489 -1147l469 1147h404v-43l-173 -60v-815q0 -91 25.5 -162.5t68 -117.5t102 -75.5t122 -42t133.5 -12.5q102 0 184.5 42.5t134.5 132.5t52 213v825l-199 72v43h438z" />
    <glyph glyph-name="M_Uring.liga" unicode="M&#x16e;" horiz-adv-x="2756" 
d="M2052 1503q-95 0 -161 55.5t-66 147.5q0 90 59 158.5t166 68.5q96 0 162.5 -55t66.5 -147q0 -90 -59.5 -159t-167.5 -69zM1952 1806q-23 -34 -23 -80q0 -62 37 -93t98 -31q41 0 86 28q25 29 25 80q0 64 -36 95.5t-97 31.5q-48 0 -90 -31zM2703 1434v-43l-149 -70v-850
q0 -122 -44 -218.5t-120 -156t-172.5 -90.5t-206.5 -31q-76 0 -148 15.5t-143 52.5t-124 92.5t-86 143t-33 196.5v883l-555 -1358h-43l-560 1323v-1208l222 -72v-43h-486v43l170 68v1222l-170 58v43h398l489 -1147l469 1147h404v-43l-173 -60v-815q0 -91 25.5 -162.5
t68 -117.5t102 -75.5t122 -42t133.5 -12.5q102 0 184.5 42.5t134.5 132.5t52 213v825l-199 72v43h438z" />
    <glyph glyph-name="M_Utilde.liga" unicode="M&#x168;" horiz-adv-x="2756" 
d="M1901 1700q-52 0 -82 -31t-58 -92l-53 20q28 132 89 204.5t149 72.5q47 0 88 -20.5t65 -45t54.5 -45t58.5 -20.5q50 0 78 30t57 91l55 -21q-28 -132 -89 -204t-148 -72q-47 0 -88 21t-65.5 45.5t-54 45.5t-56.5 21zM2703 1434v-43l-149 -70v-850q0 -122 -44 -218.5
t-120 -156t-172.5 -90.5t-206.5 -31q-76 0 -148 15.5t-143 52.5t-124 92.5t-86 143t-33 196.5v883l-555 -1358h-43l-560 1323v-1208l222 -72v-43h-486v43l170 68v1222l-170 58v43h398l489 -1147l469 1147h404v-43l-173 -60v-815q0 -91 25.5 -162.5t68 -117.5t102 -75.5
t122 -42t133.5 -12.5q102 0 184.5 42.5t134.5 132.5t52 213v825l-199 72v43h438z" />
    <glyph glyph-name="N_N.liga" unicode="NN" horiz-adv-x="2551" 
d="M2507 1434v-43l-174 -70v-1321h-62l-944 1272v-1272h-63l-942 1270v-1155l221 -72v-43h-488v43l174 68v1220l-174 60v43h348l830 -1106v1003l-170 60v43h346l829 -1106v993l-217 70v43h486z" />
    <glyph glyph-name="O_C.liga" unicode="OC" horiz-adv-x="2592" 
d="M2486 348l64 -43q-59 -148 -211.5 -239t-329.5 -91q-245 0 -405.5 105.5t-231.5 296.5q-89 -184 -247.5 -293t-356.5 -109q-96 0 -190 25t-181.5 79.5t-154 133t-106.5 194.5t-40 255q0 160 53.5 306t145.5 254t223.5 172t280.5 64q93 0 183 -24t172.5 -71t149.5 -125
t105 -177q93 177 254.5 287t366.5 110q115 0 237 -45.5t197 -112.5v-368h-66q-121 401 -436 401q-217 0 -377 -178q-115 -186 -115 -360q0 -140 47 -267t128.5 -220.5t198.5 -148.5t251 -55q101 0 214 64t177 180zM1176 252q127 215 127 381q0 205 -74.5 364t-204 244.5
t-291.5 85.5q-96 0 -179 -32.5t-163 -112.5q-127 -215 -127 -381q0 -154 43.5 -284.5t119 -220t181 -140t226.5 -50.5q96 0 179 33t163 113z" />
    <glyph glyph-name="O_C_A.liga" unicode="OCA" horiz-adv-x="3729" 
d="M3574 96l145 -53v-43h-524v43l196 55l-176 426h-565l-72 -178q-72 -180 -218.5 -275.5t-350.5 -95.5q-245 0 -405.5 105.5t-231.5 296.5q-89 -184 -247.5 -293t-356.5 -109q-96 0 -190 25t-181.5 79.5t-154 133t-106.5 194.5t-40 255q0 160 53.5 306t145.5 254t223.5 172
t280.5 64q93 0 183 -24t172.5 -71t149.5 -125t105 -177q93 177 254.5 287t366.5 110q115 0 237 -45.5t197 -112.5v-368h-66q-121 401 -436 401q-217 0 -377 -178q-115 -186 -115 -360q0 -140 47 -267t128.5 -220.5t198.5 -148.5t251 -55q130 0 237 69t167 214l428 1047h94z
M1176 252q127 215 127 381q0 205 -74.5 364t-204 244.5t-291.5 85.5q-96 0 -179 -32.5t-163 -112.5q-127 -215 -127 -381q0 -154 43.5 -284.5t119 -220t181 -140t226.5 -50.5q96 0 179 33t163 113zM2687 614h491l-247 600z" />
    <glyph glyph-name="O_Cacute.liga" unicode="O&#x106;" horiz-adv-x="2592" 
d="M2402 1712l-534 -170l-41 41l416 324h4l155 -185v-10zM2486 348l64 -43q-59 -148 -211.5 -239t-329.5 -91q-245 0 -405.5 105.5t-231.5 296.5q-89 -184 -247.5 -293t-356.5 -109q-96 0 -190 25t-181.5 79.5t-154 133t-106.5 194.5t-40 255q0 160 53.5 306t145.5 254
t223.5 172t280.5 64q93 0 183 -24t172.5 -71t149.5 -125t105 -177q93 177 254.5 287t366.5 110q115 0 237 -45.5t197 -112.5v-368h-66q-121 401 -436 401q-217 0 -377 -178q-115 -186 -115 -360q0 -140 47 -267t128.5 -220.5t198.5 -148.5t251 -55q101 0 214 64t177 180z
M1176 252q127 215 127 381q0 205 -74.5 364t-204 244.5t-291.5 85.5q-96 0 -179 -32.5t-163 -112.5q-127 -215 -127 -381q0 -154 43.5 -284.5t119 -220t181 -140t226.5 -50.5q96 0 179 33t163 113z" />
    <glyph glyph-name="O_Ccaron.liga" unicode="O&#x10c;" horiz-adv-x="2592" 
d="M1927 1563l-258 305l41 39l320 -178l307 178l41 -37l-260 -307h-191zM2486 348l64 -43q-59 -148 -211.5 -239t-329.5 -91q-245 0 -405.5 105.5t-231.5 296.5q-89 -184 -247.5 -293t-356.5 -109q-96 0 -190 25t-181.5 79.5t-154 133t-106.5 194.5t-40 255q0 160 53.5 306
t145.5 254t223.5 172t280.5 64q93 0 183 -24t172.5 -71t149.5 -125t105 -177q93 177 254.5 287t366.5 110q115 0 237 -45.5t197 -112.5v-368h-66q-121 401 -436 401q-217 0 -377 -178q-115 -186 -115 -360q0 -140 47 -267t128.5 -220.5t198.5 -148.5t251 -55q101 0 214 64
t177 180zM1176 252q127 215 127 381q0 205 -74.5 364t-204 244.5t-291.5 85.5q-96 0 -179 -32.5t-163 -112.5q-127 -215 -127 -381q0 -154 43.5 -284.5t119 -220t181 -140t226.5 -50.5q96 0 179 33t163 113z" />
    <glyph glyph-name="O_Ccedilla.liga" unicode="O&#xc7;" horiz-adv-x="2592" 
d="M2009 -25h-35l-59 -88l10 -2q91 -21 138.5 -70t47.5 -114q0 -101 -111 -156t-247 -20v53q91 -3 136.5 23t45.5 86q0 85 -86 104l-67 14l-2 5l110 172q-195 24 -325.5 127t-192.5 268q-89 -184 -247.5 -293t-356.5 -109q-96 0 -190 25t-181.5 79.5t-154 133t-106.5 194.5
t-40 255q0 160 53.5 306t145.5 254t223.5 172t280.5 64q93 0 183 -24t172.5 -71t149.5 -125t105 -177q93 177 254.5 287t366.5 110q115 0 237 -45.5t197 -112.5v-368h-66q-121 401 -436 401q-217 0 -377 -178q-115 -186 -115 -360q0 -140 47 -267t128.5 -220.5t198.5 -148.5
t251 -55q101 0 214 64t177 180l64 -43q-59 -148 -211.5 -239t-329.5 -91zM1176 252q127 215 127 381q0 205 -74.5 364t-204 244.5t-291.5 85.5q-96 0 -179 -32.5t-163 -112.5q-127 -215 -127 -381q0 -154 43.5 -284.5t119 -220t181 -140t226.5 -50.5q96 0 179 33t163 113z
" />
    <glyph glyph-name="O_Ccircumflex.liga" unicode="O&#x108;" horiz-adv-x="2592" 
d="M2011 1720l-307 -178l-41 37l260 307h191l258 -305l-41 -39zM2486 348l64 -43q-59 -148 -211.5 -239t-329.5 -91q-245 0 -405.5 105.5t-231.5 296.5q-89 -184 -247.5 -293t-356.5 -109q-96 0 -190 25t-181.5 79.5t-154 133t-106.5 194.5t-40 255q0 160 53.5 306
t145.5 254t223.5 172t280.5 64q93 0 183 -24t172.5 -71t149.5 -125t105 -177q93 177 254.5 287t366.5 110q115 0 237 -45.5t197 -112.5v-368h-66q-121 401 -436 401q-217 0 -377 -178q-115 -186 -115 -360q0 -140 47 -267t128.5 -220.5t198.5 -148.5t251 -55q101 0 214 64
t177 180zM1176 252q127 215 127 381q0 205 -74.5 364t-204 244.5t-291.5 85.5q-96 0 -179 -32.5t-163 -112.5q-127 -215 -127 -381q0 -154 43.5 -284.5t119 -220t181 -140t226.5 -50.5q96 0 179 33t163 113z" />
    <glyph glyph-name="O_Cdotaccent.liga" unicode="O&#x10a;" horiz-adv-x="2592" 
d="M2021 1622q-45 0 -80.5 35t-35.5 84t35.5 84t80.5 35q46 0 81.5 -35t35.5 -84t-35.5 -84t-81.5 -35zM2486 348l64 -43q-59 -148 -211.5 -239t-329.5 -91q-245 0 -405.5 105.5t-231.5 296.5q-89 -184 -247.5 -293t-356.5 -109q-96 0 -190 25t-181.5 79.5t-154 133
t-106.5 194.5t-40 255q0 160 53.5 306t145.5 254t223.5 172t280.5 64q93 0 183 -24t172.5 -71t149.5 -125t105 -177q93 177 254.5 287t366.5 110q115 0 237 -45.5t197 -112.5v-368h-66q-121 401 -436 401q-217 0 -377 -178q-115 -186 -115 -360q0 -140 47 -267t128.5 -220.5
t198.5 -148.5t251 -55q101 0 214 64t177 180zM1176 252q127 215 127 381q0 205 -74.5 364t-204 244.5t-291.5 85.5q-96 0 -179 -32.5t-163 -112.5q-127 -215 -127 -381q0 -154 43.5 -284.5t119 -220t181 -140t226.5 -50.5q96 0 179 33t163 113z" />
    <glyph glyph-name="O_G.liga" unicode="OG" horiz-adv-x="2729" 
d="M2710 739v-43l-150 -69v-627h-49l-76 197q-80 -103 -196.5 -162.5t-251.5 -59.5q-240 0 -395 106t-222 292q-89 -182 -246.5 -290t-355.5 -108q-96 0 -190 25t-181.5 79.5t-154 133t-106.5 194.5t-40 255q0 160 53.5 306t145.5 254t223.5 172t280.5 64q126 0 242 -41
t217 -133.5t153 -224.5q91 179 255.5 289t379.5 110q127 0 263 -41.5t208 -105.5v-348h-66q-63 188 -183 279t-286 91q-119 0 -214.5 -43.5t-157.5 -105.5q-140 -179 -140 -400q0 -137 43 -260.5t120.5 -217t192 -149t249.5 -55.5q194 0 329 179v333l-274 82v43h580z
M1176 252q127 215 127 381q0 205 -74.5 364t-204 244.5t-291.5 85.5q-96 0 -179 -32.5t-163 -112.5q-127 -215 -127 -381q0 -154 43.5 -284.5t119 -220t181 -140t226.5 -50.5q96 0 179 33t163 113z" />
    <glyph glyph-name="O_Gbreve.liga" unicode="O&#x11e;" horiz-adv-x="2729" 
d="M2028 1552q-33 0 -69.5 8.5t-77.5 32t-73 58t-53.5 92.5t-21.5 131l63 2q25 -69 86 -113.5t146 -44.5t146 44.5t87 113.5l63 -2q0 -73 -21.5 -131t-53.5 -92.5t-73.5 -58t-78 -32t-69.5 -8.5zM2710 739v-43l-150 -69v-627h-49l-76 197q-80 -103 -196.5 -162.5
t-251.5 -59.5q-240 0 -395 106t-222 292q-89 -182 -246.5 -290t-355.5 -108q-96 0 -190 25t-181.5 79.5t-154 133t-106.5 194.5t-40 255q0 160 53.5 306t145.5 254t223.5 172t280.5 64q126 0 242 -41t217 -133.5t153 -224.5q91 179 255.5 289t379.5 110q127 0 263 -41.5
t208 -105.5v-348h-66q-63 188 -183 279t-286 91q-119 0 -214.5 -43.5t-157.5 -105.5q-140 -179 -140 -400q0 -137 43 -260.5t120.5 -217t192 -149t249.5 -55.5q194 0 329 179v333l-274 82v43h580zM1176 252q127 215 127 381q0 205 -74.5 364t-204 244.5t-291.5 85.5
q-96 0 -179 -32.5t-163 -112.5q-127 -215 -127 -381q0 -154 43.5 -284.5t119 -220t181 -140t226.5 -50.5q96 0 179 33t163 113z" />
    <glyph glyph-name="O_Gcircumflex.liga" unicode="O&#x11c;" horiz-adv-x="2729" 
d="M2017 1720l-307 -178l-41 37l260 307h191l258 -305l-41 -39zM2710 739v-43l-150 -69v-627h-49l-76 197q-80 -103 -196.5 -162.5t-251.5 -59.5q-240 0 -395 106t-222 292q-89 -182 -246.5 -290t-355.5 -108q-96 0 -190 25t-181.5 79.5t-154 133t-106.5 194.5t-40 255
q0 160 53.5 306t145.5 254t223.5 172t280.5 64q126 0 242 -41t217 -133.5t153 -224.5q91 179 255.5 289t379.5 110q127 0 263 -41.5t208 -105.5v-348h-66q-63 188 -183 279t-286 91q-119 0 -214.5 -43.5t-157.5 -105.5q-140 -179 -140 -400q0 -137 43 -260.5t120.5 -217
t192 -149t249.5 -55.5q194 0 329 179v333l-274 82v43h580zM1176 252q127 215 127 381q0 205 -74.5 364t-204 244.5t-291.5 85.5q-96 0 -179 -32.5t-163 -112.5q-127 -215 -127 -381q0 -154 43.5 -284.5t119 -220t181 -140t226.5 -50.5q96 0 179 33t163 113z" />
    <glyph glyph-name="O_Gcommaaccent.liga" unicode="O&#x122;" horiz-adv-x="2729" 
d="M2710 739v-43l-150 -69v-627h-49l-76 197q-80 -103 -196.5 -162.5t-251.5 -59.5q-240 0 -395 106t-222 292q-89 -182 -246.5 -290t-355.5 -108q-96 0 -190 25t-181.5 79.5t-154 133t-106.5 194.5t-40 255q0 160 53.5 306t145.5 254t223.5 172t280.5 64q126 0 242 -41
t217 -133.5t153 -224.5q91 179 255.5 289t379.5 110q127 0 263 -41.5t208 -105.5v-348h-66q-63 188 -183 279t-286 91q-119 0 -214.5 -43.5t-157.5 -105.5q-140 -179 -140 -400q0 -137 43 -260.5t120.5 -217t192 -149t249.5 -55.5q194 0 329 179v333l-274 82v43h580z
M1176 252q127 215 127 381q0 205 -74.5 364t-204 244.5t-291.5 85.5q-96 0 -179 -32.5t-163 -112.5q-127 -215 -127 -381q0 -154 43.5 -284.5t119 -220t181 -140t226.5 -50.5q96 0 179 33t163 113zM1901 -158l151 70q64 -65 74 -147.5t-35.5 -156t-134.5 -112.5l-35 33
q45 55 40 152t-60 159v2z" />
    <glyph glyph-name="O_Gdotaccent.liga" unicode="O&#x120;" horiz-adv-x="2729" 
d="M2030 1622q-45 0 -81 35.5t-36 83.5t36 83.5t81 35.5q46 0 81 -35t35 -84t-35 -84t-81 -35zM2710 739v-43l-150 -69v-627h-49l-76 197q-80 -103 -196.5 -162.5t-251.5 -59.5q-240 0 -395 106t-222 292q-89 -182 -246.5 -290t-355.5 -108q-96 0 -190 25t-181.5 79.5
t-154 133t-106.5 194.5t-40 255q0 160 53.5 306t145.5 254t223.5 172t280.5 64q126 0 242 -41t217 -133.5t153 -224.5q91 179 255.5 289t379.5 110q127 0 263 -41.5t208 -105.5v-348h-66q-63 188 -183 279t-286 91q-119 0 -214.5 -43.5t-157.5 -105.5q-140 -179 -140 -400
q0 -137 43 -260.5t120.5 -217t192 -149t249.5 -55.5q194 0 329 179v333l-274 82v43h580zM1176 252q127 215 127 381q0 205 -74.5 364t-204 244.5t-291.5 85.5q-96 0 -179 -32.5t-163 -112.5q-127 -215 -127 -381q0 -154 43.5 -284.5t119 -220t181 -140t226.5 -50.5
q96 0 179 33t163 113z" />
    <glyph glyph-name="O_O.liga" unicode="OO" horiz-adv-x="2770" 
d="M2003 1458q96 0 190 -25t181.5 -79.5t154 -132.5t106.5 -194t40 -255q0 -160 -53.5 -306.5t-145.5 -254.5t-223.5 -172t-280.5 -64q-123 0 -238 40.5t-215 130.5t-153 219q-89 -178 -246 -284t-352 -106q-96 0 -190 25t-181.5 79.5t-154 133t-106.5 194.5t-40 255
q0 160 53.5 306t145.5 254t223.5 172t280.5 64q124 0 239 -40t215.5 -130t153.5 -219q89 178 245 283.5t351 105.5zM1176 252q127 215 127 381q0 205 -74.5 364t-204 244.5t-291.5 85.5q-96 0 -179 -32.5t-163 -112.5q-127 -215 -127 -381q0 -154 43.5 -284.5t119 -220
t181 -140t226.5 -50.5q96 0 179 33t163 113zM2380 252q127 209 127 381q0 310 -160.5 502t-409.5 192q-197 0 -342 -145q-125 -211 -125 -381q0 -310 160.5 -502.5t407.5 -192.5q96 0 179 33t163 113z" />
    <glyph glyph-name="O_Q.liga" unicode="OQ" horiz-adv-x="2770" 
d="M2099 -12q211 -285 559 -207l17 -47q-220 -109 -427.5 -49t-342.5 258l-27 39q-167 23 -305 120t-207 263q-89 -178 -246 -284t-352 -106q-96 0 -190 25t-181.5 79.5t-154 133t-106.5 194.5t-40 255q0 160 53.5 306t145.5 254t223.5 172t280.5 64q124 0 239 -40
t215.5 -130t153.5 -219q89 178 245 283.5t351 105.5q96 0 190 -25t181.5 -79.5t154 -132.5t106.5 -194t40 -255q0 -290 -162 -511.5t-414 -272.5zM1176 252q127 215 127 381q0 205 -74.5 364t-204 244.5t-291.5 85.5q-96 0 -179 -32.5t-163 -112.5q-127 -215 -127 -381
q0 -154 43.5 -284.5t119 -220t181 -140t226.5 -50.5q96 0 179 33t163 113zM1470 801q0 -310 160.5 -502.5t407.5 -192.5q96 0 179 33t163 113q127 209 127 381q0 310 -160.5 502t-409.5 192q-197 0 -342 -145q-125 -211 -125 -381z" />
    <glyph glyph-name="Oacute_C.liga" unicode="&#xd3;C" horiz-adv-x="2592" 
d="M1182 1712l-535 -170l-41 41l416 324h4l156 -185v-10zM2486 348l64 -43q-59 -148 -211.5 -239t-329.5 -91q-245 0 -405.5 105.5t-231.5 296.5q-89 -184 -247.5 -293t-356.5 -109q-96 0 -190 25t-181.5 79.5t-154 133t-106.5 194.5t-40 255q0 160 53.5 306t145.5 254
t223.5 172t280.5 64q93 0 183 -24t172.5 -71t149.5 -125t105 -177q93 177 254.5 287t366.5 110q115 0 237 -45.5t197 -112.5v-368h-66q-121 401 -436 401q-217 0 -377 -178q-115 -186 -115 -360q0 -140 47 -267t128.5 -220.5t198.5 -148.5t251 -55q101 0 214 64t177 180z
M1176 252q127 215 127 381q0 205 -74.5 364t-204 244.5t-291.5 85.5q-96 0 -179 -32.5t-163 -112.5q-127 -215 -127 -381q0 -154 43.5 -284.5t119 -220t181 -140t226.5 -50.5q96 0 179 33t163 113z" />
    <glyph glyph-name="Oacute_G.liga" unicode="&#xd3;G" horiz-adv-x="2729" 
d="M1182 1712l-535 -170l-41 41l416 324h4l156 -185v-10zM2710 739v-43l-150 -69v-627h-49l-76 197q-80 -103 -196.5 -162.5t-251.5 -59.5q-240 0 -395 106t-222 292q-89 -182 -246.5 -290t-355.5 -108q-96 0 -190 25t-181.5 79.5t-154 133t-106.5 194.5t-40 255
q0 160 53.5 306t145.5 254t223.5 172t280.5 64q126 0 242 -41t217 -133.5t153 -224.5q91 179 255.5 289t379.5 110q127 0 263 -41.5t208 -105.5v-348h-66q-63 188 -183 279t-286 91q-119 0 -214.5 -43.5t-157.5 -105.5q-140 -179 -140 -400q0 -137 43 -260.5t120.5 -217
t192 -149t249.5 -55.5q194 0 329 179v333l-274 82v43h580zM1176 252q127 215 127 381q0 205 -74.5 364t-204 244.5t-291.5 85.5q-96 0 -179 -32.5t-163 -112.5q-127 -215 -127 -381q0 -154 43.5 -284.5t119 -220t181 -140t226.5 -50.5q96 0 179 33t163 113z" />
    <glyph glyph-name="Obreve_C.liga" unicode="&#x14e;C" horiz-adv-x="2592" 
d="M801 1552q-33 0 -69.5 8.5t-77.5 32t-73 58t-53.5 92.5t-21.5 131l63 2q25 -69 86 -113.5t146 -44.5t146 44.5t87 113.5l64 -2q0 -72 -21.5 -130.5t-54 -93t-74 -58t-78 -32t-69.5 -8.5zM2486 348l64 -43q-59 -148 -211.5 -239t-329.5 -91q-245 0 -405.5 105.5
t-231.5 296.5q-89 -184 -247.5 -293t-356.5 -109q-96 0 -190 25t-181.5 79.5t-154 133t-106.5 194.5t-40 255q0 160 53.5 306t145.5 254t223.5 172t280.5 64q93 0 183 -24t172.5 -71t149.5 -125t105 -177q93 177 254.5 287t366.5 110q115 0 237 -45.5t197 -112.5v-368h-66
q-121 401 -436 401q-217 0 -377 -178q-115 -186 -115 -360q0 -140 47 -267t128.5 -220.5t198.5 -148.5t251 -55q101 0 214 64t177 180zM1176 252q127 215 127 381q0 205 -74.5 364t-204 244.5t-291.5 85.5q-96 0 -179 -32.5t-163 -112.5q-127 -215 -127 -381
q0 -154 43.5 -284.5t119 -220t181 -140t226.5 -50.5q96 0 179 33t163 113z" />
    <glyph glyph-name="Obreve_G.liga" unicode="&#x14e;G" horiz-adv-x="2729" 
d="M801 1552q-33 0 -69.5 8.5t-77.5 32t-73 58t-53.5 92.5t-21.5 131l63 2q25 -69 86 -113.5t146 -44.5t146 44.5t87 113.5l64 -2q0 -72 -21.5 -130.5t-54 -93t-74 -58t-78 -32t-69.5 -8.5zM2710 739v-43l-150 -69v-627h-49l-76 197q-80 -103 -196.5 -162.5t-251.5 -59.5
q-240 0 -395 106t-222 292q-89 -182 -246.5 -290t-355.5 -108q-96 0 -190 25t-181.5 79.5t-154 133t-106.5 194.5t-40 255q0 160 53.5 306t145.5 254t223.5 172t280.5 64q126 0 242 -41t217 -133.5t153 -224.5q91 179 255.5 289t379.5 110q127 0 263 -41.5t208 -105.5v-348
h-66q-63 188 -183 279t-286 91q-119 0 -214.5 -43.5t-157.5 -105.5q-140 -179 -140 -400q0 -137 43 -260.5t120.5 -217t192 -149t249.5 -55.5q194 0 329 179v333l-274 82v43h580zM1176 252q127 215 127 381q0 205 -74.5 364t-204 244.5t-291.5 85.5q-96 0 -179 -32.5
t-163 -112.5q-127 -215 -127 -381q0 -154 43.5 -284.5t119 -220t181 -140t226.5 -50.5q96 0 179 33t163 113z" />
    <glyph glyph-name="Ocircumflex_C.liga" unicode="&#xd4;C" horiz-adv-x="2592" 
d="M791 1720l-308 -178l-41 37l260 307h191l258 -305l-41 -39zM2486 348l64 -43q-59 -148 -211.5 -239t-329.5 -91q-245 0 -405.5 105.5t-231.5 296.5q-89 -184 -247.5 -293t-356.5 -109q-96 0 -190 25t-181.5 79.5t-154 133t-106.5 194.5t-40 255q0 160 53.5 306t145.5 254
t223.5 172t280.5 64q93 0 183 -24t172.5 -71t149.5 -125t105 -177q93 177 254.5 287t366.5 110q115 0 237 -45.5t197 -112.5v-368h-66q-121 401 -436 401q-217 0 -377 -178q-115 -186 -115 -360q0 -140 47 -267t128.5 -220.5t198.5 -148.5t251 -55q101 0 214 64t177 180z
M1176 252q127 215 127 381q0 205 -74.5 364t-204 244.5t-291.5 85.5q-96 0 -179 -32.5t-163 -112.5q-127 -215 -127 -381q0 -154 43.5 -284.5t119 -220t181 -140t226.5 -50.5q96 0 179 33t163 113z" />
    <glyph glyph-name="Ocircumflex_G.liga" unicode="&#xd4;G" horiz-adv-x="2729" 
d="M791 1720l-308 -178l-41 37l260 307h191l258 -305l-41 -39zM2710 739v-43l-150 -69v-627h-49l-76 197q-80 -103 -196.5 -162.5t-251.5 -59.5q-240 0 -395 106t-222 292q-89 -182 -246.5 -290t-355.5 -108q-96 0 -190 25t-181.5 79.5t-154 133t-106.5 194.5t-40 255
q0 160 53.5 306t145.5 254t223.5 172t280.5 64q126 0 242 -41t217 -133.5t153 -224.5q91 179 255.5 289t379.5 110q127 0 263 -41.5t208 -105.5v-348h-66q-63 188 -183 279t-286 91q-119 0 -214.5 -43.5t-157.5 -105.5q-140 -179 -140 -400q0 -137 43 -260.5t120.5 -217
t192 -149t249.5 -55.5q194 0 329 179v333l-274 82v43h580zM1176 252q127 215 127 381q0 205 -74.5 364t-204 244.5t-291.5 85.5q-96 0 -179 -32.5t-163 -112.5q-127 -215 -127 -381q0 -154 43.5 -284.5t119 -220t181 -140t226.5 -50.5q96 0 179 33t163 113z" />
    <glyph glyph-name="Odieresis_C.liga" unicode="&#xd6;C" horiz-adv-x="2592" 
d="M612 1624q-46 0 -80 35t-34 82t34 82t80 35t80.5 -35t34.5 -82t-34.5 -82t-80.5 -35zM991 1624q-46 0 -79 35t-33 82t33 82t79 35t80.5 -35t34.5 -82t-34.5 -82t-80.5 -35zM2486 348l64 -43q-59 -148 -211.5 -239t-329.5 -91q-245 0 -405.5 105.5t-231.5 296.5
q-89 -184 -247.5 -293t-356.5 -109q-96 0 -190 25t-181.5 79.5t-154 133t-106.5 194.5t-40 255q0 160 53.5 306t145.5 254t223.5 172t280.5 64q93 0 183 -24t172.5 -71t149.5 -125t105 -177q93 177 254.5 287t366.5 110q115 0 237 -45.5t197 -112.5v-368h-66
q-121 401 -436 401q-217 0 -377 -178q-115 -186 -115 -360q0 -140 47 -267t128.5 -220.5t198.5 -148.5t251 -55q101 0 214 64t177 180zM1176 252q127 215 127 381q0 205 -74.5 364t-204 244.5t-291.5 85.5q-96 0 -179 -32.5t-163 -112.5q-127 -215 -127 -381
q0 -154 43.5 -284.5t119 -220t181 -140t226.5 -50.5q96 0 179 33t163 113z" />
    <glyph glyph-name="Odieresis_G.liga" unicode="&#xd6;G" horiz-adv-x="2729" 
d="M612 1624q-46 0 -80 35t-34 82t34 82t80 35t80.5 -35t34.5 -82t-34.5 -82t-80.5 -35zM991 1624q-46 0 -79 35t-33 82t33 82t79 35t80.5 -35t34.5 -82t-34.5 -82t-80.5 -35zM2710 739v-43l-150 -69v-627h-49l-76 197q-80 -103 -196.5 -162.5t-251.5 -59.5q-240 0 -395 106
t-222 292q-89 -182 -246.5 -290t-355.5 -108q-96 0 -190 25t-181.5 79.5t-154 133t-106.5 194.5t-40 255q0 160 53.5 306t145.5 254t223.5 172t280.5 64q126 0 242 -41t217 -133.5t153 -224.5q91 179 255.5 289t379.5 110q127 0 263 -41.5t208 -105.5v-348h-66
q-63 188 -183 279t-286 91q-119 0 -214.5 -43.5t-157.5 -105.5q-140 -179 -140 -400q0 -137 43 -260.5t120.5 -217t192 -149t249.5 -55.5q194 0 329 179v333l-274 82v43h580zM1176 252q127 215 127 381q0 205 -74.5 364t-204 244.5t-291.5 85.5q-96 0 -179 -32.5
t-163 -112.5q-127 -215 -127 -381q0 -154 43.5 -284.5t119 -220t181 -140t226.5 -50.5q96 0 179 33t163 113z" />
    <glyph glyph-name="Ograve_C.liga" unicode="&#xd2;C" horiz-adv-x="2592" 
d="M977 1589l-33 -47l-506 144v8l137 213h5zM2486 348l64 -43q-59 -148 -211.5 -239t-329.5 -91q-245 0 -405.5 105.5t-231.5 296.5q-89 -184 -247.5 -293t-356.5 -109q-96 0 -190 25t-181.5 79.5t-154 133t-106.5 194.5t-40 255q0 160 53.5 306t145.5 254t223.5 172
t280.5 64q93 0 183 -24t172.5 -71t149.5 -125t105 -177q93 177 254.5 287t366.5 110q115 0 237 -45.5t197 -112.5v-368h-66q-121 401 -436 401q-217 0 -377 -178q-115 -186 -115 -360q0 -140 47 -267t128.5 -220.5t198.5 -148.5t251 -55q101 0 214 64t177 180zM1176 252
q127 215 127 381q0 205 -74.5 364t-204 244.5t-291.5 85.5q-96 0 -179 -32.5t-163 -112.5q-127 -215 -127 -381q0 -154 43.5 -284.5t119 -220t181 -140t226.5 -50.5q96 0 179 33t163 113z" />
    <glyph glyph-name="Ograve_G.liga" unicode="&#xd2;G" horiz-adv-x="2729" 
d="M977 1589l-33 -47l-506 144v8l137 213h5zM2710 739v-43l-150 -69v-627h-49l-76 197q-80 -103 -196.5 -162.5t-251.5 -59.5q-240 0 -395 106t-222 292q-89 -182 -246.5 -290t-355.5 -108q-96 0 -190 25t-181.5 79.5t-154 133t-106.5 194.5t-40 255q0 160 53.5 306
t145.5 254t223.5 172t280.5 64q126 0 242 -41t217 -133.5t153 -224.5q91 179 255.5 289t379.5 110q127 0 263 -41.5t208 -105.5v-348h-66q-63 188 -183 279t-286 91q-119 0 -214.5 -43.5t-157.5 -105.5q-140 -179 -140 -400q0 -137 43 -260.5t120.5 -217t192 -149
t249.5 -55.5q194 0 329 179v333l-274 82v43h580zM1176 252q127 215 127 381q0 205 -74.5 364t-204 244.5t-291.5 85.5q-96 0 -179 -32.5t-163 -112.5q-127 -215 -127 -381q0 -154 43.5 -284.5t119 -220t181 -140t226.5 -50.5q96 0 179 33t163 113z" />
    <glyph glyph-name="Ohungarumlaut_C.liga" unicode="&#x150;C" horiz-adv-x="2592" 
d="M940 1821l-428 -279l-49 27l215 334h4l258 -70v-12zM870 1544l-51 33l316 326h4l233 -103v-10zM2486 348l64 -43q-59 -148 -211.5 -239t-329.5 -91q-245 0 -405.5 105.5t-231.5 296.5q-89 -184 -247.5 -293t-356.5 -109q-96 0 -190 25t-181.5 79.5t-154 133t-106.5 194.5
t-40 255q0 160 53.5 306t145.5 254t223.5 172t280.5 64q93 0 183 -24t172.5 -71t149.5 -125t105 -177q93 177 254.5 287t366.5 110q115 0 237 -45.5t197 -112.5v-368h-66q-121 401 -436 401q-217 0 -377 -178q-115 -186 -115 -360q0 -140 47 -267t128.5 -220.5t198.5 -148.5
t251 -55q101 0 214 64t177 180zM1176 252q127 215 127 381q0 205 -74.5 364t-204 244.5t-291.5 85.5q-96 0 -179 -32.5t-163 -112.5q-127 -215 -127 -381q0 -154 43.5 -284.5t119 -220t181 -140t226.5 -50.5q96 0 179 33t163 113z" />
    <glyph glyph-name="Ohungarumlaut_G.liga" unicode="&#x150;G" horiz-adv-x="2729" 
d="M940 1821l-428 -279l-49 27l215 334h4l258 -70v-12zM870 1544l-51 33l316 326h4l233 -103v-10zM2710 739v-43l-150 -69v-627h-49l-76 197q-80 -103 -196.5 -162.5t-251.5 -59.5q-240 0 -395 106t-222 292q-89 -182 -246.5 -290t-355.5 -108q-96 0 -190 25t-181.5 79.5
t-154 133t-106.5 194.5t-40 255q0 160 53.5 306t145.5 254t223.5 172t280.5 64q126 0 242 -41t217 -133.5t153 -224.5q91 179 255.5 289t379.5 110q127 0 263 -41.5t208 -105.5v-348h-66q-63 188 -183 279t-286 91q-119 0 -214.5 -43.5t-157.5 -105.5q-140 -179 -140 -400
q0 -137 43 -260.5t120.5 -217t192 -149t249.5 -55.5q194 0 329 179v333l-274 82v43h580zM1176 252q127 215 127 381q0 205 -74.5 364t-204 244.5t-291.5 85.5q-96 0 -179 -32.5t-163 -112.5q-127 -215 -127 -381q0 -154 43.5 -284.5t119 -220t181 -140t226.5 -50.5
q96 0 179 33t163 113z" />
    <glyph glyph-name="Omacron_C.liga" unicode="&#x14c;C" horiz-adv-x="2592" 
d="M1071 1784v-142h-539v142h539zM2486 348l64 -43q-59 -148 -211.5 -239t-329.5 -91q-245 0 -405.5 105.5t-231.5 296.5q-89 -184 -247.5 -293t-356.5 -109q-96 0 -190 25t-181.5 79.5t-154 133t-106.5 194.5t-40 255q0 160 53.5 306t145.5 254t223.5 172t280.5 64
q93 0 183 -24t172.5 -71t149.5 -125t105 -177q93 177 254.5 287t366.5 110q115 0 237 -45.5t197 -112.5v-368h-66q-121 401 -436 401q-217 0 -377 -178q-115 -186 -115 -360q0 -140 47 -267t128.5 -220.5t198.5 -148.5t251 -55q101 0 214 64t177 180zM1176 252
q127 215 127 381q0 205 -74.5 364t-204 244.5t-291.5 85.5q-96 0 -179 -32.5t-163 -112.5q-127 -215 -127 -381q0 -154 43.5 -284.5t119 -220t181 -140t226.5 -50.5q96 0 179 33t163 113z" />
    <glyph glyph-name="Omacron_G.liga" unicode="&#x14c;G" horiz-adv-x="2729" 
d="M1071 1784v-142h-539v142h539zM2710 739v-43l-150 -69v-627h-49l-76 197q-80 -103 -196.5 -162.5t-251.5 -59.5q-240 0 -395 106t-222 292q-89 -182 -246.5 -290t-355.5 -108q-96 0 -190 25t-181.5 79.5t-154 133t-106.5 194.5t-40 255q0 160 53.5 306t145.5 254
t223.5 172t280.5 64q126 0 242 -41t217 -133.5t153 -224.5q91 179 255.5 289t379.5 110q127 0 263 -41.5t208 -105.5v-348h-66q-63 188 -183 279t-286 91q-119 0 -214.5 -43.5t-157.5 -105.5q-140 -179 -140 -400q0 -137 43 -260.5t120.5 -217t192 -149t249.5 -55.5
q194 0 329 179v333l-274 82v43h580zM1176 252q127 215 127 381q0 205 -74.5 364t-204 244.5t-291.5 85.5q-96 0 -179 -32.5t-163 -112.5q-127 -215 -127 -381q0 -154 43.5 -284.5t119 -220t181 -140t226.5 -50.5q96 0 179 33t163 113z" />
    <glyph glyph-name="Oslash_C.liga" unicode="&#xd8;C" horiz-adv-x="2592" 
d="M2486 348l64 -43q-59 -148 -211.5 -239t-329.5 -91q-245 0 -405.5 105.5t-231.5 296.5q-89 -184 -247.5 -293t-356.5 -109q-225 0 -399 123l-152 -198l-74 53l154 203q-201 187 -201 506q0 160 53.5 306t145.5 254t223.5 172t280.5 64q223 0 397 -123l150 197l73 -53
l-153 -201q95 -92 143 -217q93 177 254.5 287t366.5 110q115 0 237 -45.5t197 -112.5v-368h-66q-121 401 -436 401q-217 0 -377 -178q-115 -186 -115 -360q0 -140 47 -267t128.5 -220.5t198.5 -148.5t251 -55q101 0 214 64t177 180zM264 801q0 -294 152 -490l671 881
q-151 135 -354 135q-96 0 -179 -32.5t-163 -112.5q-127 -215 -127 -381zM1176 252q127 215 127 381q0 297 -154 491l-670 -880q147 -138 355 -138q96 0 179 33t163 113z" />
    <glyph glyph-name="Oslash_G.liga" unicode="&#xd8;G" horiz-adv-x="2729" 
d="M2710 739v-43l-150 -69v-627h-49l-76 197q-80 -103 -196.5 -162.5t-251.5 -59.5q-240 0 -395 106t-222 292q-89 -182 -246.5 -290t-355.5 -108q-225 0 -399 123l-152 -198l-74 53l154 203q-201 187 -201 506q0 160 53.5 306t145.5 254t223.5 172t280.5 64q223 0 397 -123
l150 197l73 -53l-153 -201q96 -96 145 -219q91 179 255.5 289t379.5 110q127 0 263 -41.5t208 -105.5v-348h-66q-63 188 -183 279t-286 91q-119 0 -214.5 -43.5t-157.5 -105.5q-140 -179 -140 -400q0 -137 43 -260.5t120.5 -217t192 -149t249.5 -55.5q194 0 329 179v333
l-274 82v43h580zM264 801q0 -294 152 -490l671 881q-151 135 -354 135q-96 0 -179 -32.5t-163 -112.5q-127 -215 -127 -381zM1176 252q127 215 127 381q0 297 -154 491l-670 -880q147 -138 355 -138q96 0 179 33t163 113z" />
    <glyph glyph-name="Otilde_C.liga" unicode="&#xd5;C" horiz-adv-x="2592" 
d="M649 1700q-52 0 -81.5 -31t-57.5 -92l-53 20q28 133 88.5 205t148.5 72q47 0 88 -20.5t65.5 -45t55 -45t58.5 -20.5q50 0 78 30t57 91l55 -21q-28 -132 -89.5 -204t-148.5 -72q-47 0 -88 21t-65.5 45.5t-54 45.5t-56.5 21zM2486 348l64 -43q-59 -148 -211.5 -239
t-329.5 -91q-245 0 -405.5 105.5t-231.5 296.5q-89 -184 -247.5 -293t-356.5 -109q-96 0 -190 25t-181.5 79.5t-154 133t-106.5 194.5t-40 255q0 160 53.5 306t145.5 254t223.5 172t280.5 64q93 0 183 -24t172.5 -71t149.5 -125t105 -177q93 177 254.5 287t366.5 110
q115 0 237 -45.5t197 -112.5v-368h-66q-121 401 -436 401q-217 0 -377 -178q-115 -186 -115 -360q0 -140 47 -267t128.5 -220.5t198.5 -148.5t251 -55q101 0 214 64t177 180zM1176 252q127 215 127 381q0 205 -74.5 364t-204 244.5t-291.5 85.5q-96 0 -179 -32.5
t-163 -112.5q-127 -215 -127 -381q0 -154 43.5 -284.5t119 -220t181 -140t226.5 -50.5q96 0 179 33t163 113z" />
    <glyph glyph-name="Otilde_G.liga" unicode="&#xd5;G" horiz-adv-x="2729" 
d="M649 1700q-52 0 -81.5 -31t-57.5 -92l-53 20q28 133 88.5 205t148.5 72q47 0 88 -20.5t65.5 -45t55 -45t58.5 -20.5q50 0 78 30t57 91l55 -21q-28 -132 -89.5 -204t-148.5 -72q-47 0 -88 21t-65.5 45.5t-54 45.5t-56.5 21zM2710 739v-43l-150 -69v-627h-49l-76 197
q-80 -103 -196.5 -162.5t-251.5 -59.5q-240 0 -395 106t-222 292q-89 -182 -246.5 -290t-355.5 -108q-96 0 -190 25t-181.5 79.5t-154 133t-106.5 194.5t-40 255q0 160 53.5 306t145.5 254t223.5 172t280.5 64q126 0 242 -41t217 -133.5t153 -224.5q91 179 255.5 289
t379.5 110q127 0 263 -41.5t208 -105.5v-348h-66q-63 188 -183 279t-286 91q-119 0 -214.5 -43.5t-157.5 -105.5q-140 -179 -140 -400q0 -137 43 -260.5t120.5 -217t192 -149t249.5 -55.5q194 0 329 179v333l-274 82v43h580zM1176 252q127 215 127 381q0 205 -74.5 364
t-204 244.5t-291.5 85.5q-96 0 -179 -32.5t-163 -112.5q-127 -215 -127 -381q0 -154 43.5 -284.5t119 -220t181 -140t226.5 -50.5q96 0 179 33t163 113z" />
    <glyph glyph-name="P_P.liga" unicode="PP" horiz-adv-x="1939" 
d="M1884 1077q0 -109 -45.5 -197t-135.5 -150t-238.5 -86t-340.5 -3v-539l174 -59v-43h-512v43l172 59v627q-189 -129 -563 -88v-539l172 -59v-43h-512v43l174 59v1229l-174 60v43h1311q244 0 381 -88t137 -269zM395 731q293 -15 433.5 56t140.5 243q0 143 -106 229.5
t-275 86.5h-193v-615zM1319 1346h-195v-615q294 -15 435 56t141 243q0 143 -106 229.5t-275 86.5z" />
    <glyph glyph-name="P_T.liga" unicode="PT" horiz-adv-x="2234" 
d="M1982 1346h-337v-1244l172 -59v-43h-512v43l174 59v1244h-478q152 -81 152 -269q0 -109 -45.5 -197t-135.5 -150t-237.5 -86t-339.5 -3v-539l172 -59v-43h-512v43l174 59v1229l-174 60v43h2114v-39l55 -361h-43zM395 731q293 -15 433.5 56t140.5 243q0 143 -106 229.5
t-275 86.5h-193v-615z" />
    <glyph glyph-name="P_Tbar.liga" unicode="P&#x166;" horiz-adv-x="2234" 
d="M1982 1346h-337v-562h266v-90h-266v-592l172 -59v-43h-512v43l174 59v592h-269v90h269v562h-478q152 -81 152 -269q0 -109 -45.5 -197t-135.5 -150t-237.5 -86t-339.5 -3v-539l172 -59v-43h-512v43l174 59v1229l-174 60v43h2114v-39l55 -361h-43zM395 731
q293 -15 433.5 56t140.5 243q0 143 -106 229.5t-275 86.5h-193v-615z" />
    <glyph glyph-name="P_Tcaron.liga" unicode="P&#x164;" horiz-adv-x="2234" 
d="M1464 1563l-258 305l41 39l320 -178l307 178l41 -37l-260 -307h-191zM1982 1346h-337v-1244l172 -59v-43h-512v43l174 59v1244h-478q152 -81 152 -269q0 -109 -45.5 -197t-135.5 -150t-237.5 -86t-339.5 -3v-539l172 -59v-43h-512v43l174 59v1229l-174 60v43h2114v-39
l55 -361h-43zM395 731q293 -15 433.5 56t140.5 243q0 143 -106 229.5t-275 86.5h-193v-615z" />
    <glyph glyph-name="uni00500162.liga" unicode="P&#x162;" horiz-adv-x="2234" 
d="M1982 1346h-337v-1244l172 -59v-43h-203l-74 -113l10 -2q91 -21 139 -70t48 -114q0 -101 -111.5 -156t-247.5 -20v53q91 -3 137 23t46 86q0 85 -86 104l-68 14l-2 5l123 190h-223v43l174 59v1244h-478q152 -81 152 -269q0 -109 -45.5 -197t-135.5 -150t-237.5 -86
t-339.5 -3v-539l172 -59v-43h-512v43l174 59v1229l-174 60v43h2114v-39l55 -361h-43zM395 731q293 -15 433.5 56t140.5 243q0 143 -106 229.5t-275 86.5h-193v-615z" />
    <glyph glyph-name="uni0050021A.liga" unicode="P&#x21a;" horiz-adv-x="2234" 
d="M1982 1346h-337v-1244l172 -59v-43h-512v43l174 59v1244h-478q152 -81 152 -269q0 -109 -45.5 -197t-135.5 -150t-237.5 -86t-339.5 -3v-539l172 -59v-43h-512v43l174 59v1229l-174 60v43h2114v-39l55 -361h-43zM395 731q293 -15 433.5 56t140.5 243q0 143 -106 229.5
t-275 86.5h-193v-615zM1454 -158l152 70q64 -65 74 -147.5t-36 -156t-135 -112.5l-34 33q45 55 39.5 152t-60.5 159v2z" />
    <glyph glyph-name="R_A.liga" unicode="RA" horiz-adv-x="2607" 
d="M2449 96l148 -53v-43h-526v43l196 55l-176 426h-563l-166 -411l225 -70v-43h-545l-477 668h-170v-566l172 -59v-43h-512v43l174 59v1229l-174 60v43h572q246 8 386 -82.5t140 -259.5q0 -136 -105.5 -252t-289.5 -154l436 -604l66 29l542 1323h94zM395 756h111
q237 6 350 91t113 214q0 115 -104.5 200t-278.5 85h-191v-590zM1565 614h489l-248 596z" />
    <glyph glyph-name="R_A_W.liga" unicode="RAW" horiz-adv-x="3758" 
d="M3748 1434v-43l-141 -62l-426 -1329h-89l-401 1071l-375 -1071h-90l-184 524h-514l-166 -411l225 -70v-43h-545l-477 668h-170v-566l172 -59v-43h-512v43l174 59v1229l-174 60v43h572q246 8 386 -82.5t140 -259.5q0 -136 -105.5 -252t-289.5 -154l436 -604l66 29
l542 1323h94l418 -1172l326 942l-51 137l-140 50v43h527v-43l-207 -54l403 -1067l334 1043l-237 78v43h479zM395 756h111q237 6 350 91t113 214q0 115 -104.5 200t-278.5 85h-191v-590zM1565 614h446l-207 590z" />
    <glyph glyph-name="R_Aacute.liga" unicode="R&#xc1;" horiz-adv-x="2607" 
d="M2222 1712l-534 -170l-41 41l415 324h4l156 -185v-10zM2449 96l148 -53v-43h-526v43l196 55l-176 426h-563l-166 -411l225 -70v-43h-545l-477 668h-170v-566l172 -59v-43h-512v43l174 59v1229l-174 60v43h572q246 8 386 -82.5t140 -259.5q0 -136 -105.5 -252t-289.5 -154
l436 -604l66 29l542 1323h94zM395 756h111q237 6 350 91t113 214q0 115 -104.5 200t-278.5 85h-191v-590zM1565 614h489l-248 596z" />
    <glyph glyph-name="R_Abreve.liga" unicode="R&#x102;" horiz-adv-x="2607" 
d="M1841 1552q-33 0 -69.5 8.5t-77.5 32t-73 58t-53.5 92.5t-21.5 131l64 2q25 -69 85.5 -113.5t145.5 -44.5t146.5 44.5t87.5 113.5l63 -2q0 -72 -21.5 -130.5t-54 -93t-74 -58t-78 -32t-69.5 -8.5zM2449 96l148 -53v-43h-526v43l196 55l-176 426h-563l-166 -411l225 -70
v-43h-545l-477 668h-170v-566l172 -59v-43h-512v43l174 59v1229l-174 60v43h572q246 8 386 -82.5t140 -259.5q0 -136 -105.5 -252t-289.5 -154l436 -604l66 29l542 1323h94zM395 756h111q237 6 350 91t113 214q0 115 -104.5 200t-278.5 85h-191v-590zM1565 614h489l-248 596
z" />
    <glyph glyph-name="R_Acircumflex.liga" unicode="R&#xc2;" horiz-adv-x="2607" 
d="M1831 1720l-307 -178l-41 37l260 307h190l258 -305l-41 -39zM2449 96l148 -53v-43h-526v43l196 55l-176 426h-563l-166 -411l225 -70v-43h-545l-477 668h-170v-566l172 -59v-43h-512v43l174 59v1229l-174 60v43h572q246 8 386 -82.5t140 -259.5q0 -136 -105.5 -252
t-289.5 -154l436 -604l66 29l542 1323h94zM395 756h111q237 6 350 91t113 214q0 115 -104.5 200t-278.5 85h-191v-590zM1565 614h489l-248 596z" />
    <glyph glyph-name="R_Adieresis.liga" unicode="R&#xc4;" horiz-adv-x="2607" 
d="M1651 1624q-46 0 -80.5 35t-34.5 82t34.5 82t80.5 35t80 -35t34 -82t-34 -82t-80 -35zM2030 1624q-46 0 -79.5 35t-33.5 82t33.5 82t79.5 35t80 -35t34 -82t-34 -82t-80 -35zM2449 96l148 -53v-43h-526v43l196 55l-176 426h-563l-166 -411l225 -70v-43h-545l-477 668
h-170v-566l172 -59v-43h-512v43l174 59v1229l-174 60v43h572q246 8 386 -82.5t140 -259.5q0 -136 -105.5 -252t-289.5 -154l436 -604l66 29l542 1323h94zM395 756h111q237 6 350 91t113 214q0 115 -104.5 200t-278.5 85h-191v-590zM1565 614h489l-248 596z" />
    <glyph glyph-name="R_Agrave.liga" unicode="R&#xc0;" horiz-adv-x="2607" 
d="M2017 1589l-32 -47l-506 144v8l137 213h4zM2449 96l148 -53v-43h-526v43l196 55l-176 426h-563l-166 -411l225 -70v-43h-545l-477 668h-170v-566l172 -59v-43h-512v43l174 59v1229l-174 60v43h572q246 8 386 -82.5t140 -259.5q0 -136 -105.5 -252t-289.5 -154l436 -604
l66 29l542 1323h94zM395 756h111q237 6 350 91t113 214q0 115 -104.5 200t-278.5 85h-191v-590zM1565 614h489l-248 596z" />
    <glyph glyph-name="R_Amacron.liga" unicode="R&#x100;" horiz-adv-x="2607" 
d="M2111 1784v-142h-538v142h538zM2449 96l148 -53v-43h-526v43l196 55l-176 426h-563l-166 -411l225 -70v-43h-545l-477 668h-170v-566l172 -59v-43h-512v43l174 59v1229l-174 60v43h572q246 8 386 -82.5t140 -259.5q0 -136 -105.5 -252t-289.5 -154l436 -604l66 29
l542 1323h94zM395 756h111q237 6 350 91t113 214q0 115 -104.5 200t-278.5 85h-191v-590zM1565 614h489l-248 596z" />
    <glyph glyph-name="R_Aogonek.liga" unicode="R&#x104;" horiz-adv-x="2607" 
d="M2449 96l148 -53v-43h-191q-94 -156 -94 -270q0 -73 52.5 -107.5t117.5 -15.5v-51q-53 -32 -113.5 -40t-110.5 7.5t-83 59t-33 106.5q0 118 197 311h-268v43l196 55l-176 426h-563l-166 -411l225 -70v-43h-545l-477 668h-170v-566l172 -59v-43h-512v43l174 59v1229
l-174 60v43h572q246 8 386 -82.5t140 -259.5q0 -136 -105.5 -252t-289.5 -154l436 -604l66 29l542 1323h94zM395 756h111q237 6 350 91t113 214q0 115 -104.5 200t-278.5 85h-191v-590zM1565 614h489l-248 596z" />
    <glyph glyph-name="R_Aring.liga" unicode="R&#xc5;" horiz-adv-x="2607" 
d="M1841 1503q-95 0 -161 55.5t-66 147.5q0 90 59 158.5t166 68.5q96 0 162.5 -55t66.5 -147q0 -90 -59.5 -159t-167.5 -69zM1741 1806q-23 -34 -23 -80q0 -62 37 -93t98 -31q41 0 86 28q25 29 25 80q0 64 -36 95.5t-97 31.5q-48 0 -90 -31zM2449 96l148 -53v-43h-526v43
l196 55l-176 426h-563l-166 -411l225 -70v-43h-545l-477 668h-170v-566l172 -59v-43h-512v43l174 59v1229l-174 60v43h572q246 8 386 -82.5t140 -259.5q0 -136 -105.5 -252t-289.5 -154l436 -604l66 29l542 1323h94zM395 756h111q237 6 350 91t113 214q0 115 -104.5 200
t-278.5 85h-191v-590zM1565 614h489l-248 596z" />
    <glyph glyph-name="R_Atilde.liga" unicode="R&#xc3;" horiz-adv-x="2607" 
d="M1690 1700q-52 0 -82 -31t-58 -92l-53 20q28 132 89 204.5t149 72.5q47 0 88 -20.5t65 -45t54.5 -45t58.5 -20.5q50 0 78 30t57 91l55 -21q-28 -132 -89 -204t-148 -72q-47 0 -88 21t-65.5 45.5t-54 45.5t-56.5 21zM2449 96l148 -53v-43h-526v43l196 55l-176 426h-563
l-166 -411l225 -70v-43h-545l-477 668h-170v-566l172 -59v-43h-512v43l174 59v1229l-174 60v43h572q246 8 386 -82.5t140 -259.5q0 -136 -105.5 -252t-289.5 -154l436 -604l66 29l542 1323h94zM395 756h111q237 6 350 91t113 214q0 115 -104.5 200t-278.5 85h-191v-590z
M1565 614h489l-248 596z" />
    <glyph glyph-name="R_I.liga" unicode="RI" horiz-adv-x="1857" 
d="M868 530q117 -164 217 -262t201 -141.5t201 -19.5t209 114l39 -31q-60 -87 -141 -141t-176.5 -68t-195 12t-204 106t-195.5 206l-258 363h-170v-566l172 -59v-43h-512v43l174 59v1229l-174 60v43h572q246 8 386 -82.5t140 -259.5q0 -136 -105.5 -252t-289.5 -154z
M1782 1391l-172 -60v-614l172 -60v-43h-512v43l174 60v614l-174 60v43h512v-43zM395 756h111q237 6 350 91t113 214q0 115 -104.5 200t-278.5 85h-191v-590z" />
    <glyph glyph-name="R_Iacute.liga" unicode="R&#xcd;" horiz-adv-x="1857" 
d="M1749 1907l156 -185v-10l-535 -170l-41 41l416 324h4zM868 530q117 -164 217 -262t201 -141.5t201 -19.5t209 114l39 -31q-60 -87 -141 -141t-176.5 -68t-195 12t-204 106t-195.5 206l-258 363h-170v-566l172 -59v-43h-512v43l174 59v1229l-174 60v43h572
q246 8 386 -82.5t140 -259.5q0 -136 -105.5 -252t-289.5 -154zM1270 1391v43h512v-43l-172 -60v-614l172 -60v-43h-512v43l174 60v614zM395 756h111q237 6 350 91t113 214q0 115 -104.5 200t-278.5 85h-191v-590z" />
    <glyph glyph-name="R_Ibreve.liga" unicode="R&#x12c;" horiz-adv-x="1857" 
d="M1524 1552q-33 0 -69.5 8.5t-77.5 32t-73 58t-53.5 92.5t-21.5 131l63 2q25 -69 86 -113.5t146 -44.5t146 44.5t87 113.5l64 -2q0 -72 -21.5 -130.5t-54 -93t-74 -58t-78 -32t-69.5 -8.5zM868 530q117 -164 217 -262t201 -141.5t201 -19.5t209 114l39 -31
q-60 -87 -141 -141t-176.5 -68t-195 12t-204 106t-195.5 206l-258 363h-170v-566l172 -59v-43h-512v43l174 59v1229l-174 60v43h572q246 8 386 -82.5t140 -259.5q0 -136 -105.5 -252t-289.5 -154zM1270 1391v43h512v-43l-172 -60v-614l172 -60v-43h-512v43l174 60v614z
M395 756h111q237 6 350 91t113 214q0 115 -104.5 200t-278.5 85h-191v-590z" />
    <glyph glyph-name="R_Icircumflex.liga" unicode="R&#xce;" horiz-adv-x="1857" 
d="M1616 1886l258 -305l-41 -39l-320 178l-307 -178l-41 37l260 307h191zM868 530q117 -164 217 -262t201 -141.5t201 -19.5t209 114l39 -31q-60 -87 -141 -141t-176.5 -68t-195 12t-204 106t-195.5 206l-258 363h-170v-566l172 -59v-43h-512v43l174 59v1229l-174 60v43h572
q246 8 386 -82.5t140 -259.5q0 -136 -105.5 -252t-289.5 -154zM1270 1391v43h512v-43l-172 -60v-614l172 -60v-43h-512v43l174 60v614zM395 756h111q237 6 350 91t113 214q0 115 -104.5 200t-278.5 85h-191v-590z" />
    <glyph glyph-name="R_Idieresis.liga" unicode="R&#xcf;" horiz-adv-x="1857" 
d="M1333 1624q-46 0 -80 35t-34 82t34 82t80 35t80.5 -35t34.5 -82t-34.5 -82t-80.5 -35zM1712 1858q46 0 80.5 -35t34.5 -82t-34.5 -82t-80.5 -35t-79.5 35t-33.5 82t33.5 82t79.5 35zM868 530q117 -164 217 -262t201 -141.5t201 -19.5t209 114l39 -31q-60 -87 -141 -141
t-176.5 -68t-195 12t-204 106t-195.5 206l-258 363h-170v-566l172 -59v-43h-512v43l174 59v1229l-174 60v43h572q246 8 386 -82.5t140 -259.5q0 -136 -105.5 -252t-289.5 -154zM1270 1391v43h512v-43l-172 -60v-614l172 -60v-43h-512v43l174 60v614zM395 756h111
q237 6 350 91t113 214q0 115 -104.5 200t-278.5 85h-191v-590z" />
    <glyph glyph-name="R_Idotaccent.liga" unicode="R&#x130;" horiz-adv-x="1857" 
d="M1524 1622q-45 0 -81 35.5t-36 83.5t36 83.5t81 35.5q46 0 81 -35t35 -84t-35 -84t-81 -35zM868 530q117 -164 217 -262t201 -141.5t201 -19.5t209 114l39 -31q-60 -87 -141 -141t-176.5 -68t-195 12t-204 106t-195.5 206l-258 363h-170v-566l172 -59v-43h-512v43l174 59
v1229l-174 60v43h572q246 8 386 -82.5t140 -259.5q0 -136 -105.5 -252t-289.5 -154zM1782 1391l-172 -60v-614l172 -60v-43h-512v43l174 60v614l-174 60v43h512v-43zM395 756h111q237 6 350 91t113 214q0 115 -104.5 200t-278.5 85h-191v-590z" />
    <glyph glyph-name="R_Igrave.liga" unicode="R&#xcc;" horiz-adv-x="1857" 
d="M1700 1589l-33 -47l-506 144v8l137 213h5zM868 530q117 -164 217 -262t201 -141.5t201 -19.5t209 114l39 -31q-60 -87 -141 -141t-176.5 -68t-195 12t-204 106t-195.5 206l-258 363h-170v-566l172 -59v-43h-512v43l174 59v1229l-174 60v43h572q246 8 386 -82.5
t140 -259.5q0 -136 -105.5 -252t-289.5 -154zM1782 1391l-172 -60v-614l172 -60v-43h-512v43l174 60v614l-174 60v43h512v-43zM395 756h111q237 6 350 91t113 214q0 115 -104.5 200t-278.5 85h-191v-590z" />
    <glyph glyph-name="R_Imacron.liga" unicode="R&#x12a;" horiz-adv-x="1857" 
d="M1255 1784h539v-142h-539v142zM868 530q117 -164 217 -262t201 -141.5t201 -19.5t209 114l39 -31q-60 -87 -141 -141t-176.5 -68t-195 12t-204 106t-195.5 206l-258 363h-170v-566l172 -59v-43h-512v43l174 59v1229l-174 60v43h572q246 8 386 -82.5t140 -259.5
q0 -136 -105.5 -252t-289.5 -154zM1270 1391v43h512v-43l-172 -60v-614l172 -60v-43h-512v43l174 60v614zM395 756h111q237 6 350 91t113 214q0 115 -104.5 200t-278.5 85h-191v-590z" />
    <glyph glyph-name="R_Itilde.liga" unicode="R&#x128;" horiz-adv-x="1857" 
d="M1372 1700q-52 0 -81.5 -31t-57.5 -92l-53 20q28 133 88.5 205t148.5 72q47 0 88 -20.5t65 -45t54.5 -45t58.5 -20.5q50 0 79 30t57 91l55 -21q-28 -132 -89.5 -204t-148.5 -72q-47 0 -88 21t-65.5 45.5t-54 45.5t-56.5 21zM868 530q117 -164 217 -262t201 -141.5
t201 -19.5t209 114l39 -31q-60 -87 -141 -141t-176.5 -68t-195 12t-204 106t-195.5 206l-258 363h-170v-566l172 -59v-43h-512v43l174 59v1229l-174 60v43h572q246 8 386 -82.5t140 -259.5q0 -136 -105.5 -252t-289.5 -154zM1270 1391v43h512v-43l-172 -60v-614l172 -60v-43
h-512v43l174 60v614zM395 756h111q237 6 350 91t113 214q0 115 -104.5 200t-278.5 85h-191v-590z" />
    <glyph glyph-name="R_T.liga" unicode="RT" horiz-adv-x="2422" 
d="M2169 1346h-338v-1244l174 -59v-43h-512v43l172 59v1244h-659q147 -83 147 -254q0 -136 -105.5 -252t-289.5 -154l428 -592l153 -51v-43h-297l-477 668h-170v-566l172 -59v-43h-512v43l174 59v1229l-174 60v43h2300v-27l58 -373h-46zM506 756q237 6 350 91t113 214
q0 115 -104.5 200t-278.5 85h-191v-590h111z" />
    <glyph glyph-name="R_T_H.liga" unicode="RTH" horiz-adv-x="3684" 
d="M1831 1346v-1244l174 -59v-43h-512v43l172 59v1244h-643q131 -89 131 -254q0 -136 -105.5 -252t-289.5 -154l428 -592l153 -51v-43h-297l-477 668h-170v-566l172 -59v-43h-512v43l174 59v1229l-174 60v43h572h71h1766v-27l57 -373h-45l-199 312h-446zM3629 1391l-174 -60
v-1229l174 -59v-43h-512v43l172 59v588h-762v-588l172 -59v-43h-512v43l174 59v678h928v551l-172 60v43h512v-43zM506 756q237 6 350 91t113 214q0 115 -104.5 200t-278.5 85h-191v-590h111z" />
    <glyph glyph-name="R_Tbar.liga" unicode="R&#x166;" horiz-adv-x="2422" 
d="M2169 1346h-338v-562h268v-90h-268v-592l174 -59v-43h-512v43l172 59v592h-266v90h266v562h-659q147 -83 147 -254q0 -136 -105.5 -252t-289.5 -154l428 -592l153 -51v-43h-297l-477 668h-170v-566l172 -59v-43h-512v43l174 59v1229l-174 60v43h2300v-27l58 -373h-46z
M506 756q237 6 350 91t113 214q0 115 -104.5 200t-278.5 85h-191v-590h111z" />
    <glyph glyph-name="R_Tcaron.liga" unicode="R&#x164;" horiz-adv-x="2422" 
d="M1651 1563l-258 305l41 39l319 -178l307 178l41 -37l-260 -307h-190zM2169 1346h-338v-1244l174 -59v-43h-512v43l172 59v1244h-659q147 -83 147 -254q0 -136 -105.5 -252t-289.5 -154l428 -592l153 -51v-43h-297l-477 668h-170v-566l172 -59v-43h-512v43l174 59v1229
l-174 60v43h2300v-27l58 -373h-46zM506 756q237 6 350 91t113 214q0 115 -104.5 200t-278.5 85h-191v-590h111z" />
    <glyph glyph-name="uni00520162.liga" unicode="R&#x162;" horiz-adv-x="2422" 
d="M2169 1346h-338v-1244l174 -59v-43h-203l-73 -113l10 -2q91 -21 138.5 -70t47.5 -114q0 -101 -111 -156t-247 -20v53q91 -3 136.5 23t45.5 86q0 85 -86 104l-68 14l-2 5l123 190h-223v43l172 59v1244h-659q147 -83 147 -254q0 -136 -105.5 -252t-289.5 -154l428 -592
l153 -51v-43h-297l-477 668h-170v-566l172 -59v-43h-512v43l174 59v1229l-174 60v43h2300v-27l58 -373h-46zM506 756q237 6 350 91t113 214q0 115 -104.5 200t-278.5 85h-191v-590h111z" />
    <glyph glyph-name="uni0052021A.liga" unicode="R&#x21a;" horiz-adv-x="2422" 
d="M2169 1346h-338v-1244l174 -59v-43h-512v43l172 59v1244h-659q147 -83 147 -254q0 -136 -105.5 -252t-289.5 -154l428 -592l153 -51v-43h-297l-477 668h-170v-566l172 -59v-43h-512v43l174 59v1229l-174 60v43h2300v-27l58 -373h-46zM506 756q237 6 350 91t113 214
q0 115 -104.5 200t-278.5 85h-191v-590h111zM1640 -158l152 70q64 -65 74 -147.5t-35.5 -156t-134.5 -112.5l-35 33q45 55 39.5 152t-60.5 159v2z" />
    <glyph glyph-name="Racute_A.liga" unicode="&#x154;A" horiz-adv-x="2607" 
d="M1001 1712l-534 -170l-41 41l416 324h4l155 -185v-10zM2449 96l148 -53v-43h-526v43l196 55l-176 426h-563l-166 -411l225 -70v-43h-545l-477 668h-170v-566l172 -59v-43h-512v43l174 59v1229l-174 60v43h572q246 8 386 -82.5t140 -259.5q0 -136 -105.5 -252t-289.5 -154
l436 -604l66 29l542 1323h94zM395 756h111q237 6 350 91t113 214q0 115 -104.5 200t-278.5 85h-191v-590zM1565 614h489l-248 596z" />
    <glyph glyph-name="Racute_I.liga" unicode="&#x154;I" horiz-adv-x="1857" 
d="M1001 1712l-534 -170l-41 41l416 324h4l155 -185v-10zM868 530q117 -164 217 -262t201 -141.5t201 -19.5t209 114l39 -31q-60 -87 -141 -141t-176.5 -68t-195 12t-204 106t-195.5 206l-258 363h-170v-566l172 -59v-43h-512v43l174 59v1229l-174 60v43h572
q246 8 386 -82.5t140 -259.5q0 -136 -105.5 -252t-289.5 -154zM1782 1391l-172 -60v-614l172 -60v-43h-512v43l174 60v614l-174 60v43h512v-43zM395 756h111q237 6 350 91t113 214q0 115 -104.5 200t-278.5 85h-191v-590z" />
    <glyph glyph-name="Racute_T.liga" unicode="&#x154;T" horiz-adv-x="2422" 
d="M1001 1712l-534 -170l-41 41l416 324h4l155 -185v-10zM2169 1346h-338v-1244l174 -59v-43h-512v43l172 59v1244h-659q147 -83 147 -254q0 -136 -105.5 -252t-289.5 -154l428 -592l153 -51v-43h-297l-477 668h-170v-566l172 -59v-43h-512v43l174 59v1229l-174 60v43h2300
v-27l58 -373h-46zM506 756q237 6 350 91t113 214q0 115 -104.5 200t-278.5 85h-191v-590h111z" />
    <glyph glyph-name="Rcaron_A.liga" unicode="&#x158;A" horiz-adv-x="2607" 
d="M526 1563l-258 305l41 39l320 -178l307 178l41 -37l-260 -307h-191zM2449 96l148 -53v-43h-526v43l196 55l-176 426h-563l-166 -411l225 -70v-43h-545l-477 668h-170v-566l172 -59v-43h-512v43l174 59v1229l-174 60v43h572q246 8 386 -82.5t140 -259.5
q0 -136 -105.5 -252t-289.5 -154l436 -604l66 29l542 1323h94zM395 756h111q237 6 350 91t113 214q0 115 -104.5 200t-278.5 85h-191v-590zM1565 614h489l-248 596z" />
    <glyph glyph-name="Rcaron_Aacute.liga" unicode="&#x158;&#xc1;" horiz-adv-x="2607" 
d="M526 1563l-258 305l41 39l320 -178l307 178l41 -37l-260 -307h-191zM2222 1712l-532 -170l-41 41l413 324h4l156 -185v-10zM2449 96l148 -53v-43h-526v43l196 55l-176 426h-563l-166 -411l225 -70v-43h-545l-477 668h-170v-566l172 -59v-43h-512v43l174 59v1229l-174 60
v43h572q246 8 386 -82.5t140 -259.5q0 -136 -105.5 -252t-289.5 -154l436 -604l66 29l542 1323h94zM395 756h111q237 6 350 91t113 214q0 115 -104.5 200t-278.5 85h-191v-590zM1565 614h489l-248 596z" />
    <glyph glyph-name="Rcaron_I.liga" unicode="&#x158;I" horiz-adv-x="1857" 
d="M526 1563l-258 305l41 39l320 -178l307 178l41 -37l-260 -307h-191zM868 530q117 -164 217 -262t201 -141.5t201 -19.5t209 114l39 -31q-60 -87 -141 -141t-176.5 -68t-195 12t-204 106t-195.5 206l-258 363h-170v-566l172 -59v-43h-512v43l174 59v1229l-174 60v43h572
q246 8 386 -82.5t140 -259.5q0 -136 -105.5 -252t-289.5 -154zM1782 1391l-172 -60v-614l172 -60v-43h-512v43l174 60v614l-174 60v43h512v-43zM395 756h111q237 6 350 91t113 214q0 115 -104.5 200t-278.5 85h-191v-590z" />
    <glyph glyph-name="Rcaron_Iacute.liga" unicode="&#x158;&#xcd;" horiz-adv-x="1857" 
d="M526 1563l-258 305l41 39l320 -178l307 178l41 -37l-260 -307h-191zM1749 1907l156 -185v-10l-535 -170l-41 41l416 324h4zM868 530q117 -164 217 -262t201 -141.5t201 -19.5t209 114l39 -31q-60 -87 -141 -141t-176.5 -68t-195 12t-204 106t-195.5 206l-258 363h-170
v-566l172 -59v-43h-512v43l174 59v1229l-174 60v43h572q246 8 386 -82.5t140 -259.5q0 -136 -105.5 -252t-289.5 -154zM1270 1391v43h512v-43l-172 -60v-614l172 -60v-43h-512v43l174 60v614zM395 756h111q237 6 350 91t113 214q0 115 -104.5 200t-278.5 85h-191v-590z" />
    <glyph glyph-name="Rcaron_T.liga" unicode="&#x158;T" horiz-adv-x="2422" 
d="M526 1563l-258 305l41 39l320 -178l307 178l41 -37l-260 -307h-191zM2169 1346h-338v-1244l174 -59v-43h-512v43l172 59v1244h-659q147 -83 147 -254q0 -136 -105.5 -252t-289.5 -154l428 -592l153 -51v-43h-297l-477 668h-170v-566l172 -59v-43h-512v43l174 59v1229
l-174 60v43h2300v-27l58 -373h-46zM506 756q237 6 350 91t113 214q0 115 -104.5 200t-278.5 85h-191v-590h111z" />
    <glyph glyph-name="Rcommaaccent_A.liga" unicode="&#x156;A" horiz-adv-x="2607" 
d="M2449 96l148 -53v-43h-526v43l196 55l-176 426h-563l-166 -411l225 -70v-43h-545l-477 668h-170v-566l172 -59v-43h-512v43l174 59v1229l-174 60v43h572q246 8 386 -82.5t140 -259.5q0 -136 -105.5 -252t-289.5 -154l436 -604l66 29l542 1323h94zM395 756h111
q237 6 350 91t113 214q0 115 -104.5 200t-278.5 85h-191v-590zM1565 614h489l-248 596zM596 -158l152 70q64 -65 74 -147.5t-36 -156t-135 -112.5l-35 33q45 55 40 152t-60 159v2z" />
    <glyph glyph-name="Rcommaaccent_I.liga" unicode="&#x156;I" horiz-adv-x="1857" 
d="M868 530q117 -164 217 -262t201 -141.5t201 -19.5t209 114l39 -31q-60 -87 -141 -141t-176.5 -68t-195 12t-204 106t-195.5 206l-258 363h-170v-566l172 -59v-43h-512v43l174 59v1229l-174 60v43h572q246 8 386 -82.5t140 -259.5q0 -136 -105.5 -252t-289.5 -154z
M1782 1391l-172 -60v-614l172 -60v-43h-512v43l174 60v614l-174 60v43h512v-43zM395 756h111q237 6 350 91t113 214q0 115 -104.5 200t-278.5 85h-191v-590zM596 -158l152 70q64 -65 74 -147.5t-36 -156t-135 -112.5l-35 33q45 55 40 152t-60 159v2z" />
    <glyph glyph-name="Rcommaaccent_T.liga" unicode="&#x156;T" horiz-adv-x="2422" 
d="M2169 1346h-338v-1244l174 -59v-43h-512v43l172 59v1244h-659q147 -83 147 -254q0 -136 -105.5 -252t-289.5 -154l428 -592l153 -51v-43h-297l-477 668h-170v-566l172 -59v-43h-512v43l174 59v1229l-174 60v43h2300v-27l58 -373h-46zM506 756q237 6 350 91t113 214
q0 115 -104.5 200t-278.5 85h-191v-590h111zM596 -158l152 70q64 -65 74 -147.5t-36 -156t-135 -112.5l-35 33q45 55 40 152t-60 159v2z" />
    <glyph glyph-name="S_S.liga" unicode="SS" horiz-adv-x="2402" 
d="M1438 1120q0 -73 29.5 -123.5t79.5 -78t115 -44.5t137 -29.5t144 -27t137 -42.5t115 -70t79.5 -115.5t29.5 -173.5q0 -184 -152 -312.5t-378 -128.5q-35 0 -66 5.5t-57.5 14t-53 28t-48 38t-47.5 53t-46.5 64.5t-50.5 82t-53.5 94.5t-61.5 112.5l-295 545
q-81 152 -189 243t-237 91q-123 0 -219 -41q-49 -33 -79.5 -81t-30.5 -104q0 -73 29.5 -123.5t79.5 -78t115 -44.5t137 -29.5t144 -27t137 -42.5t115 -70t79.5 -115.5t29.5 -173.5q0 -184 -152.5 -312.5t-378.5 -128.5q-259 0 -425 127l-64 408h45q51 -96 97 -164.5
t104.5 -128.5t128.5 -90.5t151 -30.5q177 0 250 49q109 94 109 203q0 80 -29 137t-78.5 88.5t-113 51.5t-134 33t-141 27.5t-134 40t-113 64.5t-78.5 107.5t-29 163.5q0 116 67 207.5t177.5 140.5t240.5 49q142 0 249.5 -97t221.5 -308l293 -543q98 -182 147 -248
q102 -137 230 -160q30 -6 63 -6q178 0 248 47q111 95 111 205q0 80 -29 137t-78 88.5t-112.5 51.5t-134 33t-141 27.5t-134 40t-112.5 64.5t-78 107.5t-29 163.5q0 116 67 207.5t177 140.5t239 49q117 0 230.5 -36t183.5 -89v-321h-43q-159 334 -408 334q-123 0 -219 -41
q-49 -33 -79.5 -81t-30.5 -104z" />
    <glyph glyph-name="S_Scaron.liga" unicode="S&#x160;" horiz-adv-x="2402" 
d="M1710 1563l-258 305l41 39l319 -178l308 178l41 -37l-260 -307h-191zM1438 1120q0 -73 29.5 -123.5t79.5 -78t115 -44.5t137 -29.5t144 -27t137 -42.5t115 -70t79.5 -115.5t29.5 -173.5q0 -184 -152 -312.5t-378 -128.5q-35 0 -66 5.5t-57.5 14t-53 28t-48 38t-47.5 53
t-46.5 64.5t-50.5 82t-53.5 94.5t-61.5 112.5l-295 545q-81 152 -189 243t-237 91q-123 0 -219 -41q-49 -33 -79.5 -81t-30.5 -104q0 -73 29.5 -123.5t79.5 -78t115 -44.5t137 -29.5t144 -27t137 -42.5t115 -70t79.5 -115.5t29.5 -173.5q0 -184 -152.5 -312.5t-378.5 -128.5
q-259 0 -425 127l-64 408h45q51 -96 97 -164.5t104.5 -128.5t128.5 -90.5t151 -30.5q177 0 250 49q109 94 109 203q0 80 -29 137t-78.5 88.5t-113 51.5t-134 33t-141 27.5t-134 40t-113 64.5t-78.5 107.5t-29 163.5q0 116 67 207.5t177.5 140.5t240.5 49q142 0 249.5 -97
t221.5 -308l293 -543q98 -182 147 -248q102 -137 230 -160q30 -6 63 -6q178 0 248 47q111 95 111 205q0 80 -29 137t-78 88.5t-112.5 51.5t-134 33t-141 27.5t-134 40t-112.5 64.5t-78 107.5t-29 163.5q0 116 67 207.5t177 140.5t239 49q117 0 230.5 -36t183.5 -89v-321h-43
q-159 334 -408 334q-123 0 -219 -41q-49 -33 -79.5 -81t-30.5 -104z" />
    <glyph glyph-name="S_T.liga" unicode="ST" horiz-adv-x="2117" 
d="M1864 1346h-338v-1244l174 -59v-43h-512v43l172 59v1244h-791q-123 0 -219 -41q-49 -33 -79.5 -81t-30.5 -104q0 -69 29.5 -117t79.5 -73.5t115 -41.5t137 -28t144 -27t137 -44t115 -73t79.5 -120t29.5 -180q0 -184 -152.5 -312.5t-378.5 -128.5q-259 0 -425 127l-64 408
h45q51 -96 97 -164.5t104.5 -128.5t128.5 -90.5t151 -30.5q177 0 250 49q109 94 109 203q0 84 -29 143.5t-78.5 92.5t-113 54.5t-134 35t-141 27.5t-134 38.5t-113 61.5t-78.5 103t-29 157q0 173 131.5 273t333.5 100h1460l61 -400h-45z" />
    <glyph glyph-name="S_T_Y.liga" unicode="STY" horiz-adv-x="3155" 
d="M3011 1321l-457 -705v-514l174 -59v-43h-512v43l172 59v508l-490 727l-22 9h-350v-1244l174 -59v-43h-512v43l172 59v1244h-791q-123 0 -219 -41q-49 -33 -79.5 -81t-30.5 -104q0 -69 29.5 -117t79.5 -73.5t115 -41.5t137 -28t144 -27t137 -44t115 -73t79.5 -120
t29.5 -180q0 -184 -152.5 -312.5t-378.5 -128.5q-259 0 -425 127l-64 408h45q51 -96 97 -164.5t104.5 -128.5t128.5 -90.5t151 -30.5q177 0 250 49q109 94 109 203q0 84 -29 143.5t-78.5 92.5t-113 54.5t-134 35t-141 27.5t-134 38.5t-113 61.5t-78.5 103t-29 157
q0 173 131.5 273t333.5 100h1689v-43l-182 -50l422 -628l387 606l-215 72v43h479v-43z" />
    <glyph glyph-name="S_Tbar.liga" unicode="S&#x166;" horiz-adv-x="2117" 
d="M1864 1346h-338v-562h268v-90h-268v-592l174 -59v-43h-512v43l172 59v592h-266v90h266v562h-791q-123 0 -219 -41q-49 -33 -79.5 -81t-30.5 -104q0 -69 29.5 -117t79.5 -73.5t115 -41.5t137 -28t144 -27t137 -44t115 -73t79.5 -120t29.5 -180q0 -184 -152.5 -312.5
t-378.5 -128.5q-259 0 -425 127l-64 408h45q51 -96 97 -164.5t104.5 -128.5t128.5 -90.5t151 -30.5q177 0 250 49q109 94 109 203q0 84 -29 143.5t-78.5 92.5t-113 54.5t-134 35t-141 27.5t-134 38.5t-113 61.5t-78.5 103t-29 157q0 173 131.5 273t333.5 100h1460l61 -400
h-45z" />
    <glyph glyph-name="S_Tcaron.liga" unicode="S&#x164;" horiz-adv-x="2117" 
d="M1346 1563l-259 305l41 39l320 -178l307 178l41 -37l-260 -307h-190zM1864 1346h-338v-1244l174 -59v-43h-512v43l172 59v1244h-791q-123 0 -219 -41q-49 -33 -79.5 -81t-30.5 -104q0 -69 29.5 -117t79.5 -73.5t115 -41.5t137 -28t144 -27t137 -44t115 -73t79.5 -120
t29.5 -180q0 -184 -152.5 -312.5t-378.5 -128.5q-259 0 -425 127l-64 408h45q51 -96 97 -164.5t104.5 -128.5t128.5 -90.5t151 -30.5q177 0 250 49q109 94 109 203q0 84 -29 143.5t-78.5 92.5t-113 54.5t-134 35t-141 27.5t-134 38.5t-113 61.5t-78.5 103t-29 157
q0 173 131.5 273t333.5 100h1460l61 -400h-45z" />
    <glyph glyph-name="uni00530162.liga" unicode="S&#x162;" horiz-adv-x="2117" 
d="M1864 1346h-338v-1244l174 -59v-43h-199l-74 -113l11 -2q91 -21 138.5 -70t47.5 -114q0 -101 -111 -156t-247 -20v53q91 -3 136.5 23t45.5 86q0 85 -86 104l-68 14l-2 5l123 190h-227v43l172 59v1244h-791q-123 0 -219 -41q-49 -33 -79.5 -81t-30.5 -104q0 -69 29.5 -117
t79.5 -73.5t115 -41.5t137 -28t144 -27t137 -44t115 -73t79.5 -120t29.5 -180q0 -184 -152.5 -312.5t-378.5 -128.5q-259 0 -425 127l-64 408h45q51 -96 97 -164.5t104.5 -128.5t128.5 -90.5t151 -30.5q177 0 250 49q109 94 109 203q0 84 -29 143.5t-78.5 92.5t-113 54.5
t-134 35t-141 27.5t-134 38.5t-113 61.5t-78.5 103t-29 157q0 173 131.5 273t333.5 100h1460l61 -400h-45z" />
    <glyph glyph-name="uni0053021A.liga" unicode="S&#x21a;" horiz-adv-x="2117" 
d="M1864 1346h-338v-1244l174 -59v-43h-512v43l172 59v1244h-791q-123 0 -219 -41q-49 -33 -79.5 -81t-30.5 -104q0 -69 29.5 -117t79.5 -73.5t115 -41.5t137 -28t144 -27t137 -44t115 -73t79.5 -120t29.5 -180q0 -184 -152.5 -312.5t-378.5 -128.5q-259 0 -425 127l-64 408
h45q51 -96 97 -164.5t104.5 -128.5t128.5 -90.5t151 -30.5q177 0 250 49q109 94 109 203q0 84 -29 143.5t-78.5 92.5t-113 54.5t-134 35t-141 27.5t-134 38.5t-113 61.5t-78.5 103t-29 157q0 173 131.5 273t333.5 100h1460l61 -400h-45zM1341 -158l152 70q64 -65 74 -147.5
t-35.5 -156t-134.5 -112.5l-35 33q45 55 39.5 152t-60.5 159v2z" />
    <glyph glyph-name="Sacute_T.liga" unicode="&#x15a;T" horiz-adv-x="2117" 
d="M987 1712l-534 -170l-41 41l415 324h4l156 -185v-10zM1864 1346h-338v-1244l174 -59v-43h-512v43l172 59v1244h-791q-123 0 -219 -41q-49 -33 -79.5 -81t-30.5 -104q0 -69 29.5 -117t79.5 -73.5t115 -41.5t137 -28t144 -27t137 -44t115 -73t79.5 -120t29.5 -180
q0 -184 -152.5 -312.5t-378.5 -128.5q-259 0 -425 127l-64 408h45q51 -96 97 -164.5t104.5 -128.5t128.5 -90.5t151 -30.5q177 0 250 49q109 94 109 203q0 84 -29 143.5t-78.5 92.5t-113 54.5t-134 35t-141 27.5t-134 38.5t-113 61.5t-78.5 103t-29 157q0 173 131.5 273
t333.5 100h1460l61 -400h-45z" />
    <glyph glyph-name="Scaron_S.liga" unicode="&#x160;S" horiz-adv-x="2402" 
d="M512 1563l-258 305l41 39l319 -178l308 178l41 -37l-261 -307h-190zM1438 1120q0 -73 29.5 -123.5t79.5 -78t115 -44.5t137 -29.5t144 -27t137 -42.5t115 -70t79.5 -115.5t29.5 -173.5q0 -184 -152 -312.5t-378 -128.5q-35 0 -66 5.5t-57.5 14t-53 28t-48 38t-47.5 53
t-46.5 64.5t-50.5 82t-53.5 94.5t-61.5 112.5l-295 545q-81 152 -189 243t-237 91q-123 0 -219 -41q-49 -33 -79.5 -81t-30.5 -104q0 -73 29.5 -123.5t79.5 -78t115 -44.5t137 -29.5t144 -27t137 -42.5t115 -70t79.5 -115.5t29.5 -173.5q0 -184 -152.5 -312.5t-378.5 -128.5
q-259 0 -425 127l-64 408h45q51 -96 97 -164.5t104.5 -128.5t128.5 -90.5t151 -30.5q177 0 250 49q109 94 109 203q0 80 -29 137t-78.5 88.5t-113 51.5t-134 33t-141 27.5t-134 40t-113 64.5t-78.5 107.5t-29 163.5q0 116 67 207.5t177.5 140.5t240.5 49q142 0 249.5 -97
t221.5 -308l293 -543q98 -182 147 -248q102 -137 230 -160q30 -6 63 -6q178 0 248 47q111 95 111 205q0 80 -29 137t-78 88.5t-112.5 51.5t-134 33t-141 27.5t-134 40t-112.5 64.5t-78 107.5t-29 163.5q0 116 67 207.5t177 140.5t239 49q117 0 230.5 -36t183.5 -89v-321h-43
q-159 334 -408 334q-123 0 -219 -41q-49 -33 -79.5 -81t-30.5 -104z" />
    <glyph glyph-name="Scaron_Scaron.liga" unicode="&#x160;&#x160;" horiz-adv-x="2402" 
d="M512 1563l-258 305l41 39l319 -178l308 178l41 -37l-261 -307h-190zM1710 1563l-258 305l41 39l319 -178l308 178l41 -37l-260 -307h-191zM1438 1120q0 -73 29.5 -123.5t79.5 -78t115 -44.5t137 -29.5t144 -27t137 -42.5t115 -70t79.5 -115.5t29.5 -173.5
q0 -184 -152 -312.5t-378 -128.5q-35 0 -66 5.5t-57.5 14t-53 28t-48 38t-47.5 53t-46.5 64.5t-50.5 82t-53.5 94.5t-61.5 112.5l-295 545q-81 152 -189 243t-237 91q-123 0 -219 -41q-49 -33 -79.5 -81t-30.5 -104q0 -73 29.5 -123.5t79.5 -78t115 -44.5t137 -29.5t144 -27
t137 -42.5t115 -70t79.5 -115.5t29.5 -173.5q0 -184 -152.5 -312.5t-378.5 -128.5q-259 0 -425 127l-64 408h45q51 -96 97 -164.5t104.5 -128.5t128.5 -90.5t151 -30.5q177 0 250 49q109 94 109 203q0 80 -29 137t-78.5 88.5t-113 51.5t-134 33t-141 27.5t-134 40t-113 64.5
t-78.5 107.5t-29 163.5q0 116 67 207.5t177.5 140.5t240.5 49q142 0 249.5 -97t221.5 -308l293 -543q98 -182 147 -248q102 -137 230 -160q30 -6 63 -6q178 0 248 47q111 95 111 205q0 80 -29 137t-78 88.5t-112.5 51.5t-134 33t-141 27.5t-134 40t-112.5 64.5t-78 107.5
t-29 163.5q0 116 67 207.5t177 140.5t239 49q117 0 230.5 -36t183.5 -89v-321h-43q-159 334 -408 334q-123 0 -219 -41q-49 -33 -79.5 -81t-30.5 -104z" />
    <glyph glyph-name="Scaron_T.liga" unicode="&#x160;T" horiz-adv-x="2117" 
d="M512 1563l-258 305l41 39l319 -178l308 178l41 -37l-261 -307h-190zM1864 1346h-338v-1244l174 -59v-43h-512v43l172 59v1244h-791q-123 0 -219 -41q-49 -33 -79.5 -81t-30.5 -104q0 -69 29.5 -117t79.5 -73.5t115 -41.5t137 -28t144 -27t137 -44t115 -73t79.5 -120
t29.5 -180q0 -184 -152.5 -312.5t-378.5 -128.5q-259 0 -425 127l-64 408h45q51 -96 97 -164.5t104.5 -128.5t128.5 -90.5t151 -30.5q177 0 250 49q109 94 109 203q0 84 -29 143.5t-78.5 92.5t-113 54.5t-134 35t-141 27.5t-134 38.5t-113 61.5t-78.5 103t-29 157
q0 173 131.5 273t333.5 100h1460l61 -400h-45z" />
    <glyph glyph-name="Scedilla_T.liga" unicode="&#x15e;T" horiz-adv-x="2117" 
d="M1864 1346h-338v-1244l174 -59v-43h-512v43l172 59v1244h-791q-123 0 -219 -41q-49 -33 -79.5 -81t-30.5 -104q0 -69 29.5 -117t79.5 -73.5t115 -41.5t137 -28t144 -27t137 -44t115 -73t79.5 -120t29.5 -180q0 -176 -140.5 -302.5t-351.5 -136.5l-59 -90l10 -2
q91 -21 139 -70t48 -114q0 -101 -111.5 -156t-247.5 -20v53q91 -3 136.5 23t45.5 86q0 85 -86 104l-67 14l-2 5l106 167q-227 9 -376 125l-64 408h45q51 -96 97 -164.5t104.5 -128.5t128.5 -90.5t151 -30.5q177 0 250 49q109 94 109 203q0 84 -29 143.5t-78.5 92.5
t-113 54.5t-134 35t-141 27.5t-134 38.5t-113 61.5t-78.5 103t-29 157q0 173 131.5 273t333.5 100h1460l61 -400h-45z" />
    <glyph glyph-name="Scircumflex_T.liga" unicode="&#x15c;T" horiz-adv-x="2117" 
d="M596 1720l-307 -178l-41 37l260 307h190l258 -305l-41 -39zM1864 1346h-338v-1244l174 -59v-43h-512v43l172 59v1244h-791q-123 0 -219 -41q-49 -33 -79.5 -81t-30.5 -104q0 -69 29.5 -117t79.5 -73.5t115 -41.5t137 -28t144 -27t137 -44t115 -73t79.5 -120t29.5 -180
q0 -184 -152.5 -312.5t-378.5 -128.5q-259 0 -425 127l-64 408h45q51 -96 97 -164.5t104.5 -128.5t128.5 -90.5t151 -30.5q177 0 250 49q109 94 109 203q0 84 -29 143.5t-78.5 92.5t-113 54.5t-134 35t-141 27.5t-134 38.5t-113 61.5t-78.5 103t-29 157q0 173 131.5 273
t333.5 100h1460l61 -400h-45z" />
    <glyph glyph-name="Scommaaccent_T.liga" unicode="&#x218;T" horiz-adv-x="2117" 
d="M1864 1346h-338v-1244l174 -59v-43h-512v43l172 59v1244h-791q-123 0 -219 -41q-49 -33 -79.5 -81t-30.5 -104q0 -69 29.5 -117t79.5 -73.5t115 -41.5t137 -28t144 -27t137 -44t115 -73t79.5 -120t29.5 -180q0 -184 -152.5 -312.5t-378.5 -128.5q-259 0 -425 127l-64 408
h45q51 -96 97 -164.5t104.5 -128.5t128.5 -90.5t151 -30.5q177 0 250 49q109 94 109 203q0 84 -29 143.5t-78.5 92.5t-113 54.5t-134 35t-141 27.5t-134 38.5t-113 61.5t-78.5 103t-29 157q0 173 131.5 273t333.5 100h1460l61 -400h-45zM469 -158l152 70q64 -65 74 -147.5
t-36 -156t-135 -112.5l-35 33q45 55 40 152t-60 159v2z" />
    <glyph glyph-name="T_H.liga" unicode="TH" horiz-adv-x="2609" 
d="M758 1346v-1244l172 -59v-43h-512v43l174 59v1244h-338l-199 -312h-45l62 400h1317v-27l57 -373h-43l-199 312h-446zM2554 1391l-172 -60v-1229l172 -59v-43h-512v43l174 59v588h-764v-588l172 -59v-43h-510v43l172 59v678h930v551l-174 60v43h512v-43z" />
    <glyph glyph-name="T_H_E.liga" unicode="THE" horiz-adv-x="3313" 
d="M758 1346v-1244l172 -59v-43h-512v43l174 59v1244h-338l-199 -312h-45l62 400h1337v-27l57 -373h-45l-198 312h-465zM3203 395h45l-57 -395h-1149v43l174 59v588h-764v-588l172 -59v-43h-510v43l172 59v678h930v551l-174 60v43h1132v-383h-45l-147 295h-600v-566h448
l72 213h45v-512h-45l-70 209h-450v-602h624z" />
    <glyph glyph-name="T_Hbar.liga" unicode="T&#x126;" horiz-adv-x="2609" 
d="M2589 973h-207v-871l172 -59v-43h-512v43l174 59v588h-764v-588l172 -59v-43h-510v43l172 59v678h930v193h-1153v90h321l-180 283h-446v-1244l172 -59v-43h-512v43l174 59v1244h-338l-199 -312h-45l62 400h1317v-27l53 -344h774v268l-174 60v43h512v-43l-172 -60v-268
h207v-90z" />
    <glyph glyph-name="T_Hcircumflex.liga" unicode="T&#x124;" horiz-adv-x="2609" 
d="M1827 1720l-307 -178l-41 37l260 307h190l258 -305l-41 -39zM758 1346v-1244l172 -59v-43h-512v43l174 59v1244h-338l-199 -312h-45l62 400h1317v-27l57 -373h-43l-199 312h-446zM2554 1391l-172 -60v-1229l172 -59v-43h-512v43l174 59v588h-764v-588l172 -59v-43h-510
v43l172 59v678h930v551l-174 60v43h512v-43z" />
    <glyph glyph-name="T_I.liga" unicode="TI" horiz-adv-x="1671" 
d="M758 1346v-1244l172 -59v-43h-512v43l174 59v1244h-338l-199 -312h-45l62 400h1333l61 -400h-45l-198 312h-465zM1624 731l-172 -59v-570l172 -59v-43h-510v43l172 59v570l-172 59v43h510v-43z" />
    <glyph glyph-name="T_Iogonek.liga" unicode="T&#x12e;" horiz-adv-x="1671" 
d="M758 1346v-1244l172 -59v-43h-512v43l174 59v1244h-338l-199 -312h-45l62 400h1333l61 -400h-45l-198 312h-465zM1624 731l-172 -59v-570l172 -59v-43h-172q-94 -156 -94 -270q0 -73 52.5 -107.5t117.5 -15.5v-51q-53 -32 -113.5 -40t-110.5 7.5t-83 59t-33 106.5
q0 119 196 311h-270v43l172 59v570l-172 59v43h510v-43z" />
    <glyph glyph-name="T_L.liga" unicode="TL" horiz-adv-x="2191" 
d="M758 1346v-1244l172 -59v-43h-512v43l174 59v1244h-338l-199 -312h-45l62 400h1333l61 -400h-45l-198 312h-465zM2103 395h45l-57 -395h-977v43l172 59v615l-172 59v43h510v-43l-172 -59v-629h453z" />
    <glyph glyph-name="T_L_A.liga" unicode="TLA" horiz-adv-x="3049" 
d="M758 1346v-1244l172 -59v-43h-512v43l174 59v1244h-338l-199 -312h-45l62 400h1333l61 -400h-45l-198 312h-465zM2894 96l145 -53v-43h-526v43l199 55l-177 426h-565l-176 -436h193l198 307h45l-57 -395h-1059v43l172 59v615l-172 59v43h510v-43l-172 -59v-629h244
l551 1346h94zM2007 614h490l-248 598z" />
    <glyph glyph-name="T_L_I.liga" unicode="TLI" horiz-adv-x="2353" 
d="M758 1346v-1244l172 -59v-43h-512v43l174 59v1244h-338l-199 -312h-45l62 400h1333l61 -400h-45l-198 312h-465zM2275 1391l-172 -60v-614l172 -60v-43h-510v43l172 60v614l-172 60v43h510v-43zM1886 88l199 307h45l-57 -395h-959v43l172 59v615l-172 59v43h510v-43
l-172 -59v-629h434z" />
    <glyph glyph-name="T_Lcommaaccent.liga" unicode="T&#x13b;" horiz-adv-x="2191" 
d="M758 1346v-1244l172 -59v-43h-512v43l174 59v1244h-338l-199 -312h-45l62 400h1333l61 -400h-45l-198 312h-465zM2103 395h45l-57 -395h-977v43l172 59v615l-172 59v43h510v-43l-172 -59v-629h453zM1485 -158l151 70q64 -65 74 -147.5t-35.5 -156t-134.5 -112.5l-35 33
q45 55 40 152t-60 159v2z" />
    <glyph glyph-name="T_T.liga" unicode="TT" horiz-adv-x="2043" 
d="M1790 1346h-338v-1244l174 -59v-43h-512v43l172 59v1244h-528v-1244l172 -59v-43h-512v43l174 59v1244h-338l-199 -312h-45l62 400h1900l62 -400h-45z" />
    <glyph glyph-name="T_U.liga" unicode="TU" horiz-adv-x="2576" 
d="M758 1346v-1244l172 -59v-43h-512v43l174 59v1244h-338l-199 -312h-45l62 400h1345v-27l58 -373h-43l-199 312h-475zM2523 1434v-43l-149 -70v-850q0 -122 -44 -218.5t-120.5 -156t-173 -90.5t-207.5 -31q-75 0 -147 15.5t-143 52.5t-124 92.5t-86 143t-33 196.5v305h166
v-264q0 -91 25.5 -162.5t68 -117.5t101.5 -75.5t121.5 -42t132.5 -12.5q102 0 184.5 42.5t134 132.5t51.5 213v825l-198 72v43h440z" />
    <glyph glyph-name="T_Uacute.liga" unicode="T&#xda;" horiz-adv-x="2576" 
d="M2253 1712l-535 -170l-41 41l416 324h4l156 -185v-10zM758 1346v-1244l172 -59v-43h-512v43l174 59v1244h-338l-199 -312h-45l62 400h1345v-27l58 -373h-43l-199 312h-475zM2523 1434v-43l-149 -70v-850q0 -122 -44 -218.5t-120.5 -156t-173 -90.5t-207.5 -31
q-75 0 -147 15.5t-143 52.5t-124 92.5t-86 143t-33 196.5v305h166v-264q0 -91 25.5 -162.5t68 -117.5t101.5 -75.5t121.5 -42t132.5 -12.5q102 0 184.5 42.5t134 132.5t51.5 213v825l-198 72v43h440z" />
    <glyph glyph-name="T_Ubreve.liga" unicode="T&#x16c;" horiz-adv-x="2576" 
d="M1870 1552q-33 0 -69.5 8.5t-77.5 32t-73 58t-53.5 92.5t-21.5 131l63 2q25 -69 86 -113.5t146 -44.5t146 44.5t87 113.5l64 -2q0 -72 -21.5 -130.5t-54 -93t-74 -58t-78 -32t-69.5 -8.5zM758 1346v-1244l172 -59v-43h-512v43l174 59v1244h-338l-199 -312h-45l62 400
h1345v-27l58 -373h-43l-199 312h-475zM2523 1434v-43l-149 -70v-850q0 -122 -44 -218.5t-120.5 -156t-173 -90.5t-207.5 -31q-75 0 -147 15.5t-143 52.5t-124 92.5t-86 143t-33 196.5v305h166v-264q0 -91 25.5 -162.5t68 -117.5t101.5 -75.5t121.5 -42t132.5 -12.5
q102 0 184.5 42.5t134 132.5t51.5 213v825l-198 72v43h440z" />
    <glyph glyph-name="T_Ucircumflex.liga" unicode="T&#xdb;" horiz-adv-x="2576" 
d="M1860 1720l-308 -178l-41 37l261 307h190l258 -305l-41 -39zM758 1346v-1244l172 -59v-43h-512v43l174 59v1244h-338l-199 -312h-45l62 400h1345v-27l58 -373h-43l-199 312h-475zM2523 1434v-43l-149 -70v-850q0 -122 -44 -218.5t-120.5 -156t-173 -90.5t-207.5 -31
q-75 0 -147 15.5t-143 52.5t-124 92.5t-86 143t-33 196.5v305h166v-264q0 -91 25.5 -162.5t68 -117.5t101.5 -75.5t121.5 -42t132.5 -12.5q102 0 184.5 42.5t134 132.5t51.5 213v825l-198 72v43h440z" />
    <glyph glyph-name="T_Udieresis.liga" unicode="T&#xdc;" horiz-adv-x="2576" 
d="M1681 1624q-46 0 -80 35t-34 82t34 82t80 35t80.5 -35t34.5 -82t-34.5 -82t-80.5 -35zM2060 1624q-46 0 -79 35t-33 82t33 82t79 35t80.5 -35t34.5 -82t-34.5 -82t-80.5 -35zM758 1346v-1244l172 -59v-43h-512v43l174 59v1244h-338l-199 -312h-45l62 400h1345v-27
l58 -373h-43l-199 312h-475zM2523 1434v-43l-149 -70v-850q0 -122 -44 -218.5t-120.5 -156t-173 -90.5t-207.5 -31q-75 0 -147 15.5t-143 52.5t-124 92.5t-86 143t-33 196.5v305h166v-264q0 -91 25.5 -162.5t68 -117.5t101.5 -75.5t121.5 -42t132.5 -12.5q102 0 184.5 42.5
t134 132.5t51.5 213v825l-198 72v43h440z" />
    <glyph glyph-name="T_Ugrave.liga" unicode="T&#xd9;" horiz-adv-x="2576" 
d="M2048 1589l-33 -47l-506 144v8l138 213h4zM758 1346v-1244l172 -59v-43h-512v43l174 59v1244h-338l-199 -312h-45l62 400h1345v-27l58 -373h-43l-199 312h-475zM2523 1434v-43l-149 -70v-850q0 -122 -44 -218.5t-120.5 -156t-173 -90.5t-207.5 -31q-75 0 -147 15.5
t-143 52.5t-124 92.5t-86 143t-33 196.5v305h166v-264q0 -91 25.5 -162.5t68 -117.5t101.5 -75.5t121.5 -42t132.5 -12.5q102 0 184.5 42.5t134 132.5t51.5 213v825l-198 72v43h440z" />
    <glyph glyph-name="T_Uhungarumlaut.liga" unicode="T&#x170;" horiz-adv-x="2576" 
d="M2011 1821l-428 -279l-49 27l215 334h4l258 -70v-12zM1942 1544l-52 33l316 326h4l233 -103v-10zM758 1346v-1244l172 -59v-43h-512v43l174 59v1244h-338l-199 -312h-45l62 400h1345v-27l58 -373h-43l-199 312h-475zM2523 1434v-43l-149 -70v-850q0 -122 -44 -218.5
t-120.5 -156t-173 -90.5t-207.5 -31q-75 0 -147 15.5t-143 52.5t-124 92.5t-86 143t-33 196.5v305h166v-264q0 -91 25.5 -162.5t68 -117.5t101.5 -75.5t121.5 -42t132.5 -12.5q102 0 184.5 42.5t134 132.5t51.5 213v825l-198 72v43h440z" />
    <glyph glyph-name="T_Umacron.liga" unicode="T&#x16a;" horiz-adv-x="2576" 
d="M2140 1784v-142h-538v142h538zM758 1346v-1244l172 -59v-43h-512v43l174 59v1244h-338l-199 -312h-45l62 400h1345v-27l58 -373h-43l-199 312h-475zM2523 1434v-43l-149 -70v-850q0 -122 -44 -218.5t-120.5 -156t-173 -90.5t-207.5 -31q-75 0 -147 15.5t-143 52.5
t-124 92.5t-86 143t-33 196.5v305h166v-264q0 -91 25.5 -162.5t68 -117.5t101.5 -75.5t121.5 -42t132.5 -12.5q102 0 184.5 42.5t134 132.5t51.5 213v825l-198 72v43h440z" />
    <glyph glyph-name="T_Uogonek.liga" unicode="T&#x172;" horiz-adv-x="2576" 
d="M758 1346v-1244l172 -59v-43h-512v43l174 59v1244h-338l-199 -312h-45l62 400h1345v-27l58 -373h-43l-199 312h-475zM2523 1434v-43l-149 -70v-850q0 -112 -37 -202t-102 -149.5t-149 -94.5t-183 -45q-82 -143 -82 -250q0 -73 52.5 -107.5t117.5 -15.5v-51
q-53 -32 -113.5 -40t-110.5 7.5t-83 59t-33 106.5t50 133.5t132 152.5h-4q-75 0 -147 15.5t-143 52.5t-124 92.5t-86 143t-33 196.5v305h166v-264q0 -91 25.5 -162.5t68 -117.5t101.5 -75.5t121.5 -42t132.5 -12.5q102 0 184.5 42.5t134 132.5t51.5 213v825l-198 72v43h440z
" />
    <glyph glyph-name="T_Uring.liga" unicode="T&#x16e;" horiz-adv-x="2576" 
d="M1870 1503q-95 0 -161.5 55.5t-66.5 147.5q0 90 59.5 158.5t166.5 68.5q96 0 162.5 -55t66.5 -147q0 -90 -59.5 -159t-167.5 -69zM1769 1806q-22 -33 -22 -80q0 -62 37 -93t98 -31q41 0 86 28q25 29 25 80q0 64 -36 95.5t-97 31.5q-49 0 -91 -31zM758 1346v-1244l172 -59
v-43h-512v43l174 59v1244h-338l-199 -312h-45l62 400h1345v-27l58 -373h-43l-199 312h-475zM2523 1434v-43l-149 -70v-850q0 -122 -44 -218.5t-120.5 -156t-173 -90.5t-207.5 -31q-75 0 -147 15.5t-143 52.5t-124 92.5t-86 143t-33 196.5v305h166v-264q0 -91 25.5 -162.5
t68 -117.5t101.5 -75.5t121.5 -42t132.5 -12.5q102 0 184.5 42.5t134 132.5t51.5 213v825l-198 72v43h440z" />
    <glyph glyph-name="T_Utilde.liga" unicode="T&#x168;" horiz-adv-x="2576" 
d="M1718 1700q-52 0 -81.5 -31t-57.5 -92l-53 20q28 133 88.5 205t148.5 72q47 0 88 -20.5t65.5 -45t55 -45t58.5 -20.5q50 0 78 30t57 91l55 -21q-28 -132 -89.5 -204t-148.5 -72q-47 0 -88 21t-65.5 45.5t-54 45.5t-56.5 21zM758 1346v-1244l172 -59v-43h-512v43l174 59
v1244h-338l-199 -312h-45l62 400h1345v-27l58 -373h-43l-199 312h-475zM2523 1434v-43l-149 -70v-850q0 -122 -44 -218.5t-120.5 -156t-173 -90.5t-207.5 -31q-75 0 -147 15.5t-143 52.5t-124 92.5t-86 143t-33 196.5v305h166v-264q0 -91 25.5 -162.5t68 -117.5t101.5 -75.5
t121.5 -42t132.5 -12.5q102 0 184.5 42.5t134 132.5t51.5 213v825l-198 72v43h440z" />
    <glyph glyph-name="T_V.liga" unicode="TV" horiz-adv-x="2492" 
d="M2492 1434v-43l-153 -68l-535 -1323h-92l-547 1339l-16 7h-391v-1244l172 -59v-43h-512v43l174 59v1244h-338l-199 -312h-45l62 400h1515v-43l-239 -54l454 -1112l434 1092l-264 74v43h520z" />
    <glyph glyph-name="T_W.liga" unicode="TW" horiz-adv-x="3153" 
d="M3144 1434v-43l-144 -62l-424 -1329h-90l-401 1073l-375 -1073h-88l-455 1341l-8 5h-401v-1244l172 -59v-43h-512v43l174 59v1244h-338l-199 -312h-45l62 400h1487v-43l-213 -56l362 -1069l328 938l-51 137l-142 50v43h527v-43l-207 -54l405 -1065l332 1041l-238 78v43
h482z" />
    <glyph glyph-name="T_Wacute.liga" unicode="T&#x1e82;" horiz-adv-x="3153" 
d="M2476 1712l-534 -170l-41 41l415 324h4l156 -185v-10zM3144 1434v-43l-144 -62l-424 -1329h-90l-401 1073l-375 -1073h-88l-455 1341l-8 5h-401v-1244l172 -59v-43h-512v43l174 59v1244h-338l-199 -312h-45l62 400h1487v-43l-213 -56l362 -1069l328 938l-51 137l-142 50
v43h527v-43l-207 -54l405 -1065l332 1041l-238 78v43h482z" />
    <glyph glyph-name="T_Wcircumflex.liga" unicode="T&#x174;" horiz-adv-x="3153" 
d="M2085 1720l-307 -178l-41 37l260 307h190l258 -305l-41 -39zM3144 1434v-43l-144 -62l-424 -1329h-90l-401 1073l-375 -1073h-88l-455 1341l-8 5h-401v-1244l172 -59v-43h-512v43l174 59v1244h-338l-199 -312h-45l62 400h1487v-43l-213 -56l362 -1069l328 938l-51 137
l-142 50v43h527v-43l-207 -54l405 -1065l332 1041l-238 78v43h482z" />
    <glyph glyph-name="T_Wdieresis.liga" unicode="T&#x1e84;" horiz-adv-x="3153" 
d="M1907 1624q-46 0 -80.5 35t-34.5 82t34.5 82t80.5 35t80 -35t34 -82t-34 -82t-80 -35zM2286 1624q-46 0 -79.5 35t-33.5 82t33.5 82t79.5 35t80 -35t34 -82t-34 -82t-80 -35zM3144 1434v-43l-144 -62l-424 -1329h-90l-401 1073l-375 -1073h-88l-455 1341l-8 5h-401v-1244
l172 -59v-43h-512v43l174 59v1244h-338l-199 -312h-45l62 400h1487v-43l-213 -56l362 -1069l328 938l-51 137l-142 50v43h527v-43l-207 -54l405 -1065l332 1041l-238 78v43h482z" />
    <glyph glyph-name="T_Wgrave.liga" unicode="T&#x1e80;" horiz-adv-x="3153" 
d="M2271 1589l-33 -47l-505 144v8l137 213h4zM3144 1434v-43l-144 -62l-424 -1329h-90l-401 1073l-375 -1073h-88l-455 1341l-8 5h-401v-1244l172 -59v-43h-512v43l174 59v1244h-338l-199 -312h-45l62 400h1487v-43l-213 -56l362 -1069l328 938l-51 137l-142 50v43h527v-43
l-207 -54l405 -1065l332 1041l-238 78v43h482z" />
    <glyph glyph-name="T_Y.liga" unicode="TY" horiz-adv-x="2385" 
d="M2243 1321l-457 -705v-514l172 -59v-43h-512v43l174 59v508l-490 727l-24 9h-348v-1244l172 -59v-43h-512v43l174 59v1244h-338l-199 -312h-45l62 400h1433v-43l-182 -50l422 -628l387 606l-215 72v43h479v-43z" />
    <glyph glyph-name="T_Yacute.liga" unicode="T&#xdd;" horiz-adv-x="2385" 
d="M2111 1712l-534 -170l-41 41l416 324h4l155 -185v-10zM2243 1321l-457 -705v-514l172 -59v-43h-512v43l174 59v508l-490 727l-24 9h-348v-1244l172 -59v-43h-512v43l174 59v1244h-338l-199 -312h-45l62 400h1433v-43l-182 -50l422 -628l387 606l-215 72v43h479v-43z" />
    <glyph glyph-name="T_Ycircumflex.liga" unicode="T&#x176;" horiz-adv-x="2385" 
d="M1720 1720l-307 -178l-41 37l260 307h191l258 -305l-41 -39zM2243 1321l-457 -705v-514l172 -59v-43h-512v43l174 59v508l-490 727l-24 9h-348v-1244l172 -59v-43h-512v43l174 59v1244h-338l-199 -312h-45l62 400h1433v-43l-182 -50l422 -628l387 606l-215 72v43h479v-43
z" />
    <glyph glyph-name="T_Ydieresis.liga" unicode="T&#x178;" horiz-adv-x="2385" 
d="M1540 1624q-46 0 -80.5 35t-34.5 82t34.5 82t80.5 35t80.5 -35t34.5 -82t-34.5 -82t-80.5 -35zM1919 1624q-46 0 -79.5 35t-33.5 82t33.5 82t79.5 35t80.5 -35t34.5 -82t-34.5 -82t-80.5 -35zM2243 1321l-457 -705v-514l172 -59v-43h-512v43l174 59v508l-490 727l-24 9
h-348v-1244l172 -59v-43h-512v43l174 59v1244h-338l-199 -312h-45l62 400h1433v-43l-182 -50l422 -628l387 606l-215 72v43h479v-43z" />
    <glyph glyph-name="T_Ygrave.liga" unicode="T&#x1ef2;" horiz-adv-x="2385" 
d="M1907 1589l-33 -47l-506 144v8l137 213h4zM2243 1321l-457 -705v-514l172 -59v-43h-512v43l174 59v508l-490 727l-24 9h-348v-1244l172 -59v-43h-512v43l174 59v1244h-338l-199 -312h-45l62 400h1433v-43l-182 -50l422 -628l387 606l-215 72v43h479v-43z" />
    <glyph glyph-name="T_b.liga" unicode="Tb" horiz-adv-x="2195" 
d="M1743 1004q112 0 194 -66t121 -171.5t39 -236.5q0 -149 -55 -275.5t-155 -203t-224 -76.5q-76 0 -152.5 16t-121.5 33t-111 46v1276h-520v-1244l170 -59v-43h-510v43l172 59h2v1244h-338l-199 -312h-45l62 400h1126l240 92l-2 -2v-717q144 197 307 197zM1626 72
q142 0 224.5 93.5t82.5 278.5q0 213 -71 319.5t-191 106.5q-61 0 -116 -47t-119 -129v-577q95 -45 190 -45z" />
    <glyph glyph-name="T_h.liga" unicode="Th" horiz-adv-x="2265" 
d="M2073 100l147 -57v-43h-455v43l148 57v564q0 100 -52 148t-132 48q-65 0 -146.5 -45t-146.5 -119v-596l149 -57v-43h-455v43l148 57v1246h-520v-1244l172 -59v-43h-512v43l174 59v1244h-338l-199 -312h-45l62 400h1126l240 92l-2 -2v-738q192 218 352 218
q115 0 200 -84.5t85 -229.5v-590z" />
    <glyph glyph-name="T_hbar.liga" unicode="T&#x127;" horiz-adv-x="2265" 
d="M2073 100l147 -57v-43h-455v43l148 57v553q0 100 -52 148.5t-132 48.5q-65 0 -146.5 -45t-146.5 -119v-586l149 -57v-43h-455v43l148 57v1035h-152v84h152v127h-520v-1244l172 -59v-43h-512v43l174 59v1244h-338l-199 -312h-45l62 400h1126l240 92l-2 -2v-305h307v-84
h-307v-359q191 217 352 217q115 0 200 -84t85 -229v-580z" />
    <glyph glyph-name="T_k.liga" unicode="Tk" horiz-adv-x="2232" 
d="M2046 92l147 -49v-43h-272l-367 494l-118 -97v-297l149 -57v-43h-455v43l148 57v1246h-520v-1244l172 -59v-43h-512v43l174 59v1244h-338l-199 -312h-45l62 400h1126l240 92l-2 -2v-1024l448 372l-174 64v43h457v-43l-139 -51l-353 -291z" />
    <glyph glyph-name="T_l.liga" unicode="Tl" horiz-adv-x="1630" 
d="M1436 100l149 -57v-43h-455v43l148 57v1246h-520v-1244l172 -59v-43h-512v43l174 59v1244h-338l-199 -312h-45l62 400h1126l240 92l-2 -2v-1424z" />
    <glyph glyph-name="T_lcaron.liga" unicode="T&#x13e;" horiz-adv-x="1630" 
d="M1675 1552q65 -83 79.5 -165.5t-27 -162.5t-140.5 -147l-37 25q33 49 45.5 97t-2.5 121.5t-69 158.5v4zM1436 1524v-1424l149 -57v-43h-455v43l148 57v1246h-520v-1244l172 -59v-43h-512v43l174 59v1244h-338l-199 -312h-45l62 400h1126l240 92z" />
    <glyph glyph-name="Tbar_H.liga" unicode="&#x166;H" horiz-adv-x="2609" 
d="M758 1346v-562h266v-90h-266v-592l172 -59v-43h-512v43l174 59v592h-268v90h268v562h-338l-199 -312h-45l62 400h1317v-27l57 -373h-43l-199 312h-446zM2554 1391l-172 -60v-1229l172 -59v-43h-512v43l174 59v588h-764v-588l172 -59v-43h-510v43l172 59v678h930v551
l-174 60v43h512v-43z" />
    <glyph glyph-name="Tbar_I.liga" unicode="&#x166;I" horiz-adv-x="1671" 
d="M758 1346v-562h266v-90h-266v-592l172 -59v-43h-512v43l174 59v592h-268v90h268v562h-338l-199 -312h-45l62 400h1333l61 -400h-45l-198 312h-465zM1624 731l-172 -59v-570l172 -59v-43h-510v43l172 59v570l-172 59v43h510v-43z" />
    <glyph glyph-name="Tbar_L.liga" unicode="&#x166;L" horiz-adv-x="2191" 
d="M758 1346v-562h266v-90h-266v-592l172 -59v-43h-512v43l174 59v592h-268v90h268v562h-338l-199 -312h-45l62 400h1333l61 -400h-45l-198 312h-465zM2103 395h45l-57 -395h-977v43l172 59v615l-172 59v43h510v-43l-172 -59v-629h453z" />
    <glyph glyph-name="Tbar_U.liga" unicode="&#x166;U" horiz-adv-x="2576" 
d="M758 1346v-562h266v-90h-266v-592l172 -59v-43h-512v43l174 59v592h-268v90h268v562h-338l-199 -312h-45l62 400h1345v-27l58 -373h-43l-199 312h-475zM2523 1434v-43l-149 -70v-850q0 -122 -44 -218.5t-120.5 -156t-173 -90.5t-207.5 -31q-75 0 -147 15.5t-143 52.5
t-124 92.5t-86 143t-33 196.5v305h166v-264q0 -91 25.5 -162.5t68 -117.5t101.5 -75.5t121.5 -42t132.5 -12.5q102 0 184.5 42.5t134 132.5t51.5 213v825l-198 72v43h440z" />
    <glyph glyph-name="Tbar_V.liga" unicode="&#x166;V" horiz-adv-x="2492" 
d="M2492 1434v-43l-153 -68l-535 -1323h-92l-547 1339l-16 7h-391v-562h266v-90h-266v-592l172 -59v-43h-512v43l174 59v592h-268v90h268v562h-338l-199 -312h-45l62 400h1515v-43l-239 -54l454 -1112l434 1092l-264 74v43h520z" />
    <glyph glyph-name="Tbar_W.liga" unicode="&#x166;W" horiz-adv-x="3153" 
d="M3144 1434v-43l-144 -62l-424 -1329h-90l-401 1073l-375 -1073h-88l-455 1341l-8 5h-401v-562h266v-90h-266v-592l172 -59v-43h-512v43l174 59v592h-268v90h268v562h-338l-199 -312h-45l62 400h1487v-43l-213 -56l362 -1069l328 938l-51 137l-142 50v43h527v-43l-207 -54
l405 -1065l332 1041l-238 78v43h482z" />
    <glyph glyph-name="Tbar_Y.liga" unicode="&#x166;Y" horiz-adv-x="2385" 
d="M2243 1321l-457 -705v-514l172 -59v-43h-512v43l174 59v508l-490 727l-24 9h-348v-562h266v-90h-266v-592l172 -59v-43h-512v43l174 59v592h-268v90h268v562h-338l-199 -312h-45l62 400h1433v-43l-182 -50l422 -628l387 606l-215 72v43h479v-43z" />
    <glyph glyph-name="Tcaron_H.liga" unicode="&#x164;H" horiz-adv-x="2609" 
d="M578 1563l-259 305l41 39l320 -178l307 178l41 -37l-260 -307h-190zM758 1346v-1244l172 -59v-43h-512v43l174 59v1244h-338l-199 -312h-45l62 400h1317v-27l57 -373h-43l-199 312h-446zM2554 1391l-172 -60v-1229l172 -59v-43h-512v43l174 59v588h-764v-588l172 -59v-43
h-510v43l172 59v678h930v551l-174 60v43h512v-43z" />
    <glyph glyph-name="Tcaron_I.liga" unicode="&#x164;I" horiz-adv-x="1671" 
d="M578 1563l-259 305l41 39l320 -178l307 178l41 -37l-260 -307h-190zM758 1346v-1244l172 -59v-43h-512v43l174 59v1244h-338l-199 -312h-45l62 400h1333l61 -400h-45l-198 312h-465zM1624 731l-172 -59v-570l172 -59v-43h-510v43l172 59v570l-172 59v43h510v-43z" />
    <glyph glyph-name="Tcaron_L.liga" unicode="&#x164;L" horiz-adv-x="2191" 
d="M578 1563l-259 305l41 39l320 -178l307 178l41 -37l-260 -307h-190zM758 1346v-1244l172 -59v-43h-512v43l174 59v1244h-338l-199 -312h-45l62 400h1333l61 -400h-45l-198 312h-465zM2103 395h45l-57 -395h-977v43l172 59v615l-172 59v43h510v-43l-172 -59v-629h453z" />
    <glyph glyph-name="Tcaron_T.liga" unicode="&#x164;T" horiz-adv-x="2043" 
d="M578 1563l-259 305l41 39l320 -178l307 178l41 -37l-260 -307h-190zM1790 1346h-338v-1244l174 -59v-43h-512v43l172 59v1244h-528v-1244l172 -59v-43h-512v43l174 59v1244h-338l-199 -312h-45l62 400h1900l62 -400h-45z" />
    <glyph glyph-name="Tcaron_U.liga" unicode="&#x164;U" horiz-adv-x="2576" 
d="M578 1563l-259 305l41 39l320 -178l307 178l41 -37l-260 -307h-190zM758 1346v-1244l172 -59v-43h-512v43l174 59v1244h-338l-199 -312h-45l62 400h1345v-27l58 -373h-43l-199 312h-475zM2523 1434v-43l-149 -70v-850q0 -122 -44 -218.5t-120.5 -156t-173 -90.5
t-207.5 -31q-75 0 -147 15.5t-143 52.5t-124 92.5t-86 143t-33 196.5v305h166v-264q0 -91 25.5 -162.5t68 -117.5t101.5 -75.5t121.5 -42t132.5 -12.5q102 0 184.5 42.5t134 132.5t51.5 213v825l-198 72v43h440z" />
    <glyph glyph-name="Tcaron_V.liga" unicode="&#x164;V" horiz-adv-x="2492" 
d="M578 1563l-259 305l41 39l320 -178l307 178l41 -37l-260 -307h-190zM2492 1434v-43l-153 -68l-535 -1323h-92l-547 1339l-16 7h-391v-1244l172 -59v-43h-512v43l174 59v1244h-338l-199 -312h-45l62 400h1515v-43l-239 -54l454 -1112l434 1092l-264 74v43h520z" />
    <glyph glyph-name="Tcaron_W.liga" unicode="&#x164;W" horiz-adv-x="3153" 
d="M578 1563l-259 305l41 39l320 -178l307 178l41 -37l-260 -307h-190zM3144 1434v-43l-144 -62l-424 -1329h-90l-401 1073l-375 -1073h-88l-455 1341l-8 5h-401v-1244l172 -59v-43h-512v43l174 59v1244h-338l-199 -312h-45l62 400h1487v-43l-213 -56l362 -1069l328 938
l-51 137l-142 50v43h527v-43l-207 -54l405 -1065l332 1041l-238 78v43h482z" />
    <glyph glyph-name="Tcaron_Y.liga" unicode="&#x164;Y" horiz-adv-x="2385" 
d="M578 1563l-259 305l41 39l320 -178l307 178l41 -37l-260 -307h-190zM2243 1321l-457 -705v-514l172 -59v-43h-512v43l174 59v508l-490 727l-24 9h-348v-1244l172 -59v-43h-512v43l174 59v1244h-338l-199 -312h-45l62 400h1433v-43l-182 -50l422 -628l387 606l-215 72v43
h479v-43z" />
    <glyph glyph-name="uni01620048.liga" unicode="&#x162;H" horiz-adv-x="2609" 
d="M758 1346v-1244l172 -59v-43h-203l-74 -113l11 -2q91 -21 138.5 -70t47.5 -114q0 -101 -111 -156t-247 -20v53q91 -3 136.5 23t45.5 86q0 85 -86 104l-68 14l-2 5l123 190h-223v43l174 59v1244h-338l-199 -312h-45l62 400h1317v-27l57 -373h-43l-199 312h-446zM2554 1391
l-172 -60v-1229l172 -59v-43h-512v43l174 59v588h-764v-588l172 -59v-43h-510v43l172 59v678h930v551l-174 60v43h512v-43z" />
    <glyph glyph-name="uni01620049.liga" unicode="&#x162;I" horiz-adv-x="1671" 
d="M758 1346v-1244l172 -59v-43h-203l-74 -113l11 -2q91 -21 138.5 -70t47.5 -114q0 -101 -111 -156t-247 -20v53q91 -3 136.5 23t45.5 86q0 85 -86 104l-68 14l-2 5l123 190h-223v43l174 59v1244h-338l-199 -312h-45l62 400h1333l61 -400h-45l-198 312h-465zM1624 731
l-172 -59v-570l172 -59v-43h-510v43l172 59v570l-172 59v43h510v-43z" />
    <glyph glyph-name="uni0162004C.liga" unicode="&#x162;L" horiz-adv-x="2191" 
d="M758 1346v-1244l172 -59v-43h-203l-74 -113l11 -2q91 -21 138.5 -70t47.5 -114q0 -101 -111 -156t-247 -20v53q91 -3 136.5 23t45.5 86q0 85 -86 104l-68 14l-2 5l123 190h-223v43l174 59v1244h-338l-199 -312h-45l62 400h1333l61 -400h-45l-198 312h-465zM2103 395h45
l-57 -395h-977v43l172 59v615l-172 59v43h510v-43l-172 -59v-629h453z" />
    <glyph glyph-name="uni01620055.liga" unicode="&#x162;U" horiz-adv-x="2576" 
d="M758 1346v-1244l172 -59v-43h-203l-74 -113l11 -2q91 -21 138.5 -70t47.5 -114q0 -101 -111 -156t-247 -20v53q91 -3 136.5 23t45.5 86q0 85 -86 104l-68 14l-2 5l123 190h-223v43l174 59v1244h-338l-199 -312h-45l62 400h1345v-27l58 -373h-43l-199 312h-475zM2523 1434
v-43l-149 -70v-850q0 -122 -44 -218.5t-120.5 -156t-173 -90.5t-207.5 -31q-75 0 -147 15.5t-143 52.5t-124 92.5t-86 143t-33 196.5v305h166v-264q0 -91 25.5 -162.5t68 -117.5t101.5 -75.5t121.5 -42t132.5 -12.5q102 0 184.5 42.5t134 132.5t51.5 213v825l-198 72v43h440
z" />
    <glyph glyph-name="uni01620056.liga" unicode="&#x162;V" horiz-adv-x="2492" 
d="M2492 1434v-43l-153 -68l-535 -1323h-92l-547 1339l-16 7h-391v-1244l172 -59v-43h-203l-74 -113l11 -2q91 -21 138.5 -70t47.5 -114q0 -101 -111 -156t-247 -20v53q91 -3 136.5 23t45.5 86q0 85 -86 104l-68 14l-2 5l123 190h-223v43l174 59v1244h-338l-199 -312h-45
l62 400h1515v-43l-239 -54l454 -1112l434 1092l-264 74v43h520z" />
    <glyph glyph-name="uni01620057.liga" unicode="&#x162;W" horiz-adv-x="3153" 
d="M3144 1434v-43l-144 -62l-424 -1329h-90l-401 1073l-375 -1073h-88l-455 1341l-8 5h-401v-1244l172 -59v-43h-203l-74 -113l11 -2q91 -21 138.5 -70t47.5 -114q0 -101 -111 -156t-247 -20v53q91 -3 136.5 23t45.5 86q0 85 -86 104l-68 14l-2 5l123 190h-223v43l174 59
v1244h-338l-199 -312h-45l62 400h1487v-43l-213 -56l362 -1069l328 938l-51 137l-142 50v43h527v-43l-207 -54l405 -1065l332 1041l-238 78v43h482z" />
    <glyph glyph-name="uni01620059.liga" unicode="&#x162;Y" horiz-adv-x="2385" 
d="M2243 1321l-457 -705v-514l172 -59v-43h-512v43l174 59v508l-490 727l-24 9h-348v-1244l172 -59v-43h-203l-74 -113l11 -2q91 -21 138.5 -70t47.5 -114q0 -101 -111 -156t-247 -20v53q91 -3 136.5 23t45.5 86q0 85 -86 104l-68 14l-2 5l123 190h-223v43l174 59v1244h-338
l-199 -312h-45l62 400h1433v-43l-182 -50l422 -628l387 606l-215 72v43h479v-43z" />
    <glyph glyph-name="uni021A0048.liga" unicode="&#x21a;H" horiz-adv-x="2609" 
d="M758 1346v-1244l172 -59v-43h-512v43l174 59v1244h-338l-199 -312h-45l62 400h1317v-27l57 -373h-43l-199 312h-446zM2554 1391l-172 -60v-1229l172 -59v-43h-512v43l174 59v588h-764v-588l172 -59v-43h-510v43l172 59v678h930v551l-174 60v43h512v-43zM567 -158l152 70
q64 -65 74 -147.5t-35.5 -156t-134.5 -112.5l-35 33q45 55 39.5 152t-60.5 159v2z" />
    <glyph glyph-name="uni021A0049.liga" unicode="&#x21a;I" horiz-adv-x="1671" 
d="M758 1346v-1244l172 -59v-43h-512v43l174 59v1244h-338l-199 -312h-45l62 400h1333l61 -400h-45l-198 312h-465zM1624 731l-172 -59v-570l172 -59v-43h-510v43l172 59v570l-172 59v43h510v-43zM567 -158l152 70q64 -65 74 -147.5t-35.5 -156t-134.5 -112.5l-35 33
q45 55 39.5 152t-60.5 159v2z" />
    <glyph glyph-name="uni021A004C.liga" unicode="&#x21a;L" horiz-adv-x="2191" 
d="M758 1346v-1244l172 -59v-43h-512v43l174 59v1244h-338l-199 -312h-45l62 400h1333l61 -400h-45l-198 312h-465zM2103 395h45l-57 -395h-977v43l172 59v615l-172 59v43h510v-43l-172 -59v-629h453zM567 -158l152 70q64 -65 74 -147.5t-35.5 -156t-134.5 -112.5l-35 33
q45 55 39.5 152t-60.5 159v2z" />
    <glyph glyph-name="uni021A0055.liga" unicode="&#x21a;U" horiz-adv-x="2576" 
d="M758 1346v-1244l172 -59v-43h-512v43l174 59v1244h-338l-199 -312h-45l62 400h1345v-27l58 -373h-43l-199 312h-475zM2523 1434v-43l-149 -70v-850q0 -122 -44 -218.5t-120.5 -156t-173 -90.5t-207.5 -31q-75 0 -147 15.5t-143 52.5t-124 92.5t-86 143t-33 196.5v305h166
v-264q0 -91 25.5 -162.5t68 -117.5t101.5 -75.5t121.5 -42t132.5 -12.5q102 0 184.5 42.5t134 132.5t51.5 213v825l-198 72v43h440zM567 -158l152 70q64 -65 74 -147.5t-35.5 -156t-134.5 -112.5l-35 33q45 55 39.5 152t-60.5 159v2z" />
    <glyph glyph-name="uni021A0056.liga" unicode="&#x21a;V" horiz-adv-x="2492" 
d="M2492 1434v-43l-153 -68l-535 -1323h-92l-547 1339l-16 7h-391v-1244l172 -59v-43h-512v43l174 59v1244h-338l-199 -312h-45l62 400h1515v-43l-239 -54l454 -1112l434 1092l-264 74v43h520zM567 -158l152 70q64 -65 74 -147.5t-35.5 -156t-134.5 -112.5l-35 33
q45 55 39.5 152t-60.5 159v2z" />
    <glyph glyph-name="uni021A0057.liga" unicode="&#x21a;W" horiz-adv-x="3153" 
d="M3144 1434v-43l-144 -62l-424 -1329h-90l-401 1073l-375 -1073h-88l-455 1341l-8 5h-401v-1244l172 -59v-43h-512v43l174 59v1244h-338l-199 -312h-45l62 400h1487v-43l-213 -56l362 -1069l328 938l-51 137l-142 50v43h527v-43l-207 -54l405 -1065l332 1041l-238 78v43
h482zM567 -158l152 70q64 -65 74 -147.5t-35.5 -156t-134.5 -112.5l-35 33q45 55 39.5 152t-60.5 159v2z" />
    <glyph glyph-name="uni021A0059.liga" unicode="&#x21a;Y" horiz-adv-x="2385" 
d="M2243 1321l-457 -705v-514l172 -59v-43h-512v43l174 59v508l-490 727l-24 9h-348v-1244l172 -59v-43h-512v43l174 59v1244h-338l-199 -312h-45l62 400h1433v-43l-182 -50l422 -628l387 606l-215 72v43h479v-43zM567 -158l152 70q64 -65 74 -147.5t-35.5 -156
t-134.5 -112.5l-35 33q45 55 39.5 152t-60.5 159v2z" />
    <glyph glyph-name="U_M.liga" unicode="UM" horiz-adv-x="2848" 
d="M2793 1391l-174 -60v-1229l174 -59v-43h-512v43l173 59v1252l-553 -1354h-46l-561 1327v-856q0 -122 -44 -218.5t-120 -156t-173 -90.5t-207 -31q-75 0 -147 15.5t-143 52.5t-124 92.5t-86 143t-33 196.5v856l-174 60v43h512v-43l-172 -60v-815q0 -113 38 -195.5
t103.5 -127.5t141.5 -66t165 -21q102 0 184.5 42.5t134.5 132.5t52 213v825l-198 72v43h426l489 -1147l469 1147h405v-43z" />
    <glyph glyph-name="U_N.liga" unicode="UN" 
d="M2472 1434v-43l-172 -68v-1323h-64l-942 1270v-799q0 -122 -44 -218.5t-120 -156t-173 -90.5t-207 -31q-75 0 -147 15.5t-143 52.5t-124 92.5t-86 143t-33 196.5v856l-174 60v43h512v-43l-172 -60v-815q0 -113 38 -195.5t103.5 -127.5t141.5 -66t165 -21
q102 0 184.5 42.5t134.5 132.5t52 213v825l-198 72v43h372l828 -1106v993l-217 70v43h485z" />
    <glyph glyph-name="U_Nacute.liga" unicode="U&#x143;" 
d="M2130 1712l-535 -170l-41 41l416 324h4l156 -185v-10zM2472 1434v-43l-172 -68v-1323h-64l-942 1270v-799q0 -122 -44 -218.5t-120 -156t-173 -90.5t-207 -31q-75 0 -147 15.5t-143 52.5t-124 92.5t-86 143t-33 196.5v856l-174 60v43h512v-43l-172 -60v-815
q0 -113 38 -195.5t103.5 -127.5t141.5 -66t165 -21q102 0 184.5 42.5t134.5 132.5t52 213v825l-198 72v43h372l828 -1106v993l-217 70v43h485z" />
    <glyph glyph-name="U_Ncaron.liga" unicode="U&#x147;" 
d="M1653 1563l-258 305l41 39l319 -178l307 178l41 -37l-260 -307h-190zM2472 1434v-43l-172 -68v-1323h-64l-942 1270v-799q0 -122 -44 -218.5t-120 -156t-173 -90.5t-207 -31q-75 0 -147 15.5t-143 52.5t-124 92.5t-86 143t-33 196.5v856l-174 60v43h512v-43l-172 -60
v-815q0 -113 38 -195.5t103.5 -127.5t141.5 -66t165 -21q102 0 184.5 42.5t134.5 132.5t52 213v825l-198 72v43h372l828 -1106v993l-217 70v43h485z" />
    <glyph glyph-name="U_Ncommaaccent.liga" unicode="U&#x145;" 
d="M2472 1434v-43l-172 -68v-1323h-64l-942 1270v-799q0 -122 -44 -218.5t-120 -156t-173 -90.5t-207 -31q-75 0 -147 15.5t-143 52.5t-124 92.5t-86 143t-33 196.5v856l-174 60v43h512v-43l-172 -60v-815q0 -113 38 -195.5t103.5 -127.5t141.5 -66t165 -21
q102 0 184.5 42.5t134.5 132.5t52 213v825l-198 72v43h372l828 -1106v993l-217 70v43h485zM1645 -158l151 70q64 -65 74 -147.5t-35.5 -156t-134.5 -112.5l-35 33q45 55 40 152t-60 159v2z" />
    <glyph glyph-name="U_Eng.liga" unicode="U&#x14a;" 
d="M2472 1434v-43l-172 -68v-1360q0 -104 -53 -203.5t-143.5 -162.5t-188.5 -62v49q92 28 155.5 123t63.5 213v217l-840 1133v-799q0 -122 -44 -218.5t-120 -156t-173 -90.5t-207 -31q-75 0 -147 15.5t-143 52.5t-124 92.5t-86 143t-33 196.5v856l-174 60v43h512v-43
l-172 -60v-815q0 -113 38 -195.5t103.5 -127.5t141.5 -66t165 -21q102 0 184.5 42.5t134.5 132.5t52 213v825l-198 72v43h372l828 -1106v993l-217 70v43h485z" />
    <glyph glyph-name="U_Ntilde.liga" unicode="U&#xd1;" 
d="M1595 1700q-52 0 -81.5 -31t-57.5 -92l-53 20q28 133 88.5 205t148.5 72q47 0 88 -20.5t65.5 -45t55 -45t58.5 -20.5q50 0 78 30t57 91l55 -21q-28 -132 -89 -204t-148 -72q-47 0 -88.5 21t-65.5 45.5t-54 45.5t-57 21zM2472 1434v-43l-172 -68v-1323h-64l-942 1270v-799
q0 -122 -44 -218.5t-120 -156t-173 -90.5t-207 -31q-75 0 -147 15.5t-143 52.5t-124 92.5t-86 143t-33 196.5v856l-174 60v43h512v-43l-172 -60v-815q0 -113 38 -195.5t103.5 -127.5t141.5 -66t165 -21q102 0 184.5 42.5t134.5 132.5t52 213v825l-198 72v43h372l828 -1106
v993l-217 70v43h485z" />
    <glyph glyph-name="Uacute_M.liga" unicode="&#xda;M" horiz-adv-x="2848" 
d="M1174 1712l-535 -170l-41 41l416 324h4l156 -185v-10zM2793 1391l-174 -60v-1229l174 -59v-43h-512v43l173 59v1252l-553 -1354h-46l-561 1327v-856q0 -122 -44 -218.5t-120 -156t-173 -90.5t-207 -31q-75 0 -147 15.5t-143 52.5t-124 92.5t-86 143t-33 196.5v856
l-174 60v43h512v-43l-172 -60v-815q0 -113 38 -195.5t103.5 -127.5t141.5 -66t165 -21q102 0 184.5 42.5t134.5 132.5t52 213v825l-198 72v43h426l489 -1147l469 1147h405v-43z" />
    <glyph glyph-name="Uacute_N.liga" unicode="&#xda;N" 
d="M1174 1712l-535 -170l-41 41l416 324h4l156 -185v-10zM2472 1434v-43l-172 -68v-1323h-64l-942 1270v-799q0 -122 -44 -218.5t-120 -156t-173 -90.5t-207 -31q-75 0 -147 15.5t-143 52.5t-124 92.5t-86 143t-33 196.5v856l-174 60v43h512v-43l-172 -60v-815
q0 -113 38 -195.5t103.5 -127.5t141.5 -66t165 -21q102 0 184.5 42.5t134.5 132.5t52 213v825l-198 72v43h372l828 -1106v993l-217 70v43h485z" />
    <glyph glyph-name="Ubreve_M.liga" unicode="&#x16c;M" horiz-adv-x="2848" 
d="M791 1552q-33 0 -69.5 8.5t-77.5 32t-73 58t-53.5 92.5t-21.5 131l63 2q25 -69 86 -113.5t146 -44.5t146 44.5t87 113.5l63 -2q0 -73 -21.5 -131t-53.5 -92.5t-73.5 -58t-78 -32t-69.5 -8.5zM2793 1391l-174 -60v-1229l174 -59v-43h-512v43l173 59v1252l-553 -1354h-46
l-561 1327v-856q0 -122 -44 -218.5t-120 -156t-173 -90.5t-207 -31q-75 0 -147 15.5t-143 52.5t-124 92.5t-86 143t-33 196.5v856l-174 60v43h512v-43l-172 -60v-815q0 -113 38 -195.5t103.5 -127.5t141.5 -66t165 -21q102 0 184.5 42.5t134.5 132.5t52 213v825l-198 72v43
h426l489 -1147l469 1147h405v-43z" />
    <glyph glyph-name="Ubreve_N.liga" unicode="&#x16c;N" 
d="M791 1552q-33 0 -69.5 8.5t-77.5 32t-73 58t-53.5 92.5t-21.5 131l63 2q25 -69 86 -113.5t146 -44.5t146 44.5t87 113.5l63 -2q0 -73 -21.5 -131t-53.5 -92.5t-73.5 -58t-78 -32t-69.5 -8.5zM2472 1434v-43l-172 -68v-1323h-64l-942 1270v-799q0 -122 -44 -218.5
t-120 -156t-173 -90.5t-207 -31q-75 0 -147 15.5t-143 52.5t-124 92.5t-86 143t-33 196.5v856l-174 60v43h512v-43l-172 -60v-815q0 -113 38 -195.5t103.5 -127.5t141.5 -66t165 -21q102 0 184.5 42.5t134.5 132.5t52 213v825l-198 72v43h372l828 -1106v993l-217 70v43h485z
" />
    <glyph glyph-name="Ucircumflex_M.liga" unicode="&#xdb;M" horiz-adv-x="2848" 
d="M780 1720l-307 -178l-41 37l260 307h191l258 -305l-41 -39zM2793 1391l-174 -60v-1229l174 -59v-43h-512v43l173 59v1252l-553 -1354h-46l-561 1327v-856q0 -122 -44 -218.5t-120 -156t-173 -90.5t-207 -31q-75 0 -147 15.5t-143 52.5t-124 92.5t-86 143t-33 196.5v856
l-174 60v43h512v-43l-172 -60v-815q0 -113 38 -195.5t103.5 -127.5t141.5 -66t165 -21q102 0 184.5 42.5t134.5 132.5t52 213v825l-198 72v43h426l489 -1147l469 1147h405v-43z" />
    </font>
</defs>
</svg>
