<?xml version="1.0" standalone="no"?>
<!DOCTYPE svg PUBLIC "-//W3C//DTD SVG 1.1//EN" "http://www.w3.org/Graphics/SVG/1.1/DTD/svg11.dtd" >
<svg xmlns="http://www.w3.org/2000/svg" xmlns:xlink="http://www.w3.org/1999/xlink" version="1.1">
<metadata>
Created by FontForge 20201107 at Sun Jan 28 22:30:44 2024
 By 
Copyright (c) 2023 by Caron twice Fonts. All rights reserved.
</metadata>
<defs>
<font id="LigaturessSerifTrial-Regular" horiz-adv-x="2574" >
  <font-face 
    font-family="Ligaturess Serif Trial"
    font-weight="400"
    font-stretch="normal"
    units-per-em="2048"
    panose-1="0 0 5 0 0 0 0 0 0 0"
    ascent="1638"
    descent="-410"
    x-height="983"
    cap-height="1434"
    bbox="-991 -504 5431 1931"
    underline-thickness="102"
    underline-position="-204"
    unicode-range="U+0020-FB02"
  />
<missing-glyph horiz-adv-x="1425" 
d="M1219 1434v-1434h-1012v1434h1012zM401 94h623v1245h-623v-1245z" />
    <glyph glyph-name="fi" unicode="fi" horiz-adv-x="1171" 
d="M997 100l144 -55v-45h-471v45l143 55v766l-154 27h-284v-793l143 -55v-45h-471v45l143 55v793h-149v90h149v117q0 94 26.5 169.5t67 122.5t94.5 78t105 43.5t101 12.5q84 0 171 -24.5t150.5 -74.5t63.5 -112q0 -47 -28.5 -78t-72.5 -31q-92 0 -123 115q-11 39 -62 75
t-108 36q-39 0 -75.5 -11.5t-74 -40t-57 -88.5t-12.5 -145l15 -164h526l96 25l4 -2v-906z" />
    <glyph glyph-name="fl" unicode="fl" horiz-adv-x="1181" 
d="M997 100l144 -55v-45h-471v45l143 55v1037q-21 227 -248 227q-36 0 -72 -15t-68 -45t-50 -83t-13 -121l9 -117h274v-90h-270v-793l143 -55v-45h-471v45l143 55v793h-149v90h149v70q0 80 26 148.5t67.5 115t94.5 79t105.5 47.5t100.5 15q102 0 192 -20l217 88l4 -2v-1424z
" />
    <glyph glyph-name="A_A.liga" unicode="AA" horiz-adv-x="2547" 
d="M2396 98l141 -53v-45h-546v45l192 53l-176 424h-555l-129 -319l47 -113l137 -45v-45h-546v45l186 53l6 2l-176 422h-555l-164 -405l219 -72v-45h-477v45l150 68l542 1321h121l457 -1104l452 1104h121zM461 616h477l-242 584zM1491 616h477l-242 584z" />
    <glyph glyph-name="A_V.liga" unicode="AV" horiz-adv-x="1996" 
d="M1997 1434v-45l-152 -72l-530 -1317h-121l-217 522h-555l-164 -405l219 -72v-45h-477v45l150 68l542 1321h121l496 -1201l430 1080l-260 76v45h518zM461 616h477l-242 584z" />
    <glyph glyph-name="A_W.liga" unicode="AW" horiz-adv-x="2662" 
d="M2652 1434v-45l-139 -66l-420 -1323h-121l-379 1042l-360 -1042h-121l-182 522h-508l-164 -405l219 -72v-45h-477v45l150 68l542 1321h121l414 -1162l315 912l-57 153l-135 52v45h546v-45l-202 -58l387 -1050l327 1028l-233 80v45h477zM461 616h436l-203 578z" />
    <glyph glyph-name="A_W_A.liga" unicode="AWA" horiz-adv-x="3319" 
d="M3168 98l142 -53v-45h-547v45l192 53l-176 424h-504l-182 -522h-121l-379 1042l-360 -1042h-121l-182 522h-508l-164 -405l219 -72v-45h-477v45l150 68l542 1321h121l414 -1162l315 912l-57 153l-135 52v45h546v-45l-202 -58l391 -1061l409 1164h121zM461 616h436
l-203 578zM2306 616h434l-235 570z" />
    <glyph glyph-name="A_Wacute.liga" unicode="A&#x1e82;" horiz-adv-x="2662" 
d="M2005 1712l-553 -174l-41 43l395 326h4l195 -185v-10zM2652 1434v-45l-139 -66l-420 -1323h-121l-379 1042l-360 -1042h-121l-182 522h-508l-164 -405l219 -72v-45h-477v45l150 68l542 1321h121l414 -1162l315 912l-57 153l-135 52v45h546v-45l-202 -58l387 -1050
l327 1028l-233 80v45h477zM461 616h436l-203 578z" />
    <glyph glyph-name="A_Wcircumflex.liga" unicode="A&#x174;" horiz-adv-x="2662" 
d="M1604 1716l-310 -178l-43 37l250 311h219l248 -309l-43 -39zM2652 1434v-45l-139 -66l-420 -1323h-121l-379 1042l-360 -1042h-121l-182 522h-508l-164 -405l219 -72v-45h-477v45l150 68l542 1321h121l414 -1162l315 912l-57 153l-135 52v45h546v-45l-202 -58l387 -1050
l327 1028l-233 80v45h477zM461 616h436l-203 578z" />
    <glyph glyph-name="A_Wdieresis.liga" unicode="A&#x1e84;" horiz-adv-x="2662" 
d="M1419 1612q-53 0 -90 37t-37 90t37 90t90 37t90 -37t37 -90t-37 -90t-90 -37zM1810 1612q-52 0 -89.5 37t-37.5 90t37.5 90t89.5 37t89.5 -37t37.5 -90t-37.5 -90t-89.5 -37zM2652 1434v-45l-139 -66l-420 -1323h-121l-379 1042l-360 -1042h-121l-182 522h-508l-164 -405
l219 -72v-45h-477v45l150 68l542 1321h121l414 -1162l315 912l-57 153l-135 52v45h546v-45l-202 -58l387 -1050l327 1028l-233 80v45h477zM461 616h436l-203 578z" />
    <glyph glyph-name="A_Wgrave.liga" unicode="A&#x1e80;" horiz-adv-x="2662" 
d="M1800 1587l-33 -49l-524 148v8l166 213h4zM2652 1434v-45l-139 -66l-420 -1323h-121l-379 1042l-360 -1042h-121l-182 522h-508l-164 -405l219 -72v-45h-477v45l150 68l542 1321h121l414 -1162l315 912l-57 153l-135 52v45h546v-45l-202 -58l387 -1050l327 1028l-233 80
v45h477zM461 616h436l-203 578z" />
    <glyph glyph-name="A_X.liga" unicode="AX" horiz-adv-x="2572" 
d="M2400 102l152 -57v-45h-547v45l168 47l-391 557l-371 -528l199 -76v-45h-649v45l192 53l-176 424h-555l-164 -405l219 -72v-45h-477v45l150 68l542 1321h121l518 -1254l393 551l-417 600l-152 58v45h547v-45l-168 -48l338 -483l326 455l-197 76v45h477v-45l-149 -62
l-400 -549zM461 616h477l-242 584z" />
    <glyph glyph-name="Aacute_V.liga" unicode="&#xc1;V" horiz-adv-x="1996" 
d="M1135 1712l-553 -174l-41 43l395 326h4l195 -185v-10zM1997 1434v-45l-152 -72l-530 -1317h-121l-217 522h-555l-164 -405l219 -72v-45h-477v45l150 68l542 1321h121l496 -1201l430 1080l-260 76v45h518zM461 616h477l-242 584z" />
    <glyph glyph-name="Aacute_W.liga" unicode="&#xc1;W" horiz-adv-x="2662" 
d="M1135 1712l-553 -174l-41 43l395 326h4l195 -185v-10zM2652 1434v-45l-139 -66l-420 -1323h-121l-379 1042l-360 -1042h-121l-182 522h-508l-164 -405l219 -72v-45h-477v45l150 68l542 1321h121l414 -1162l315 912l-57 153l-135 52v45h546v-45l-202 -58l387 -1050
l327 1028l-233 80v45h477zM461 616h436l-203 578z" />
    <glyph glyph-name="Aacute_X.liga" unicode="&#xc1;X" horiz-adv-x="2572" 
d="M1135 1712l-553 -174l-41 43l395 326h4l195 -185v-10zM2400 102l152 -57v-45h-547v45l168 47l-391 557l-371 -528l199 -76v-45h-649v45l192 53l-176 424h-555l-164 -405l219 -72v-45h-477v45l150 68l542 1321h121l518 -1254l393 551l-417 600l-152 58v45h547v-45
l-168 -48l338 -483l326 455l-197 76v45h477v-45l-149 -62l-400 -549zM461 616h477l-242 584z" />
    <glyph glyph-name="Abreve_V.liga" unicode="&#x102;V" horiz-adv-x="1996" 
d="M743 1548q-48 0 -96 16t-95.5 51t-77.5 102t-30 157l66 2q25 -66 86.5 -110t146.5 -44t147 44t89 110l65 -2q0 -73 -20.5 -131t-52 -93.5t-73 -59.5t-80 -33t-75.5 -9zM1997 1434v-45l-152 -72l-530 -1317h-121l-217 522h-555l-164 -405l219 -72v-45h-477v45l150 68
l542 1321h121l496 -1201l430 1080l-260 76v45h518zM461 616h477l-242 584z" />
    <glyph glyph-name="Abreve_W.liga" unicode="&#x102;W" horiz-adv-x="2662" 
d="M743 1548q-48 0 -96 16t-95.5 51t-77.5 102t-30 157l66 2q25 -66 86.5 -110t146.5 -44t147 44t89 110l65 -2q0 -73 -20.5 -131t-52 -93.5t-73 -59.5t-80 -33t-75.5 -9zM2652 1434v-45l-139 -66l-420 -1323h-121l-379 1042l-360 -1042h-121l-182 522h-508l-164 -405
l219 -72v-45h-477v45l150 68l542 1321h121l414 -1162l315 912l-57 153l-135 52v45h546v-45l-202 -58l387 -1050l327 1028l-233 80v45h477zM461 616h436l-203 578z" />
    <glyph glyph-name="Abreve_X.liga" unicode="&#x102;X" horiz-adv-x="2572" 
d="M743 1548q-48 0 -96 16t-95.5 51t-77.5 102t-30 157l66 2q25 -66 86.5 -110t146.5 -44t147 44t89 110l65 -2q0 -73 -20.5 -131t-52 -93.5t-73 -59.5t-80 -33t-75.5 -9zM2400 102l152 -57v-45h-547v45l168 47l-391 557l-371 -528l199 -76v-45h-649v45l192 53l-176 424
h-555l-164 -405l219 -72v-45h-477v45l150 68l542 1321h121l518 -1254l393 551l-417 600l-152 58v45h547v-45l-168 -48l338 -483l326 455l-197 76v45h477v-45l-149 -62l-400 -549zM461 616h477l-242 584z" />
    <glyph glyph-name="Acircumflex_V.liga" unicode="&#xc2;V" horiz-adv-x="1996" 
d="M733 1716l-309 -178l-43 37l250 311h219l248 -309l-43 -39zM1997 1434v-45l-152 -72l-530 -1317h-121l-217 522h-555l-164 -405l219 -72v-45h-477v45l150 68l542 1321h121l496 -1201l430 1080l-260 76v45h518zM461 616h477l-242 584z" />
    <glyph glyph-name="Acircumflex_W.liga" unicode="&#xc2;W" horiz-adv-x="2662" 
d="M733 1716l-309 -178l-43 37l250 311h219l248 -309l-43 -39zM2652 1434v-45l-139 -66l-420 -1323h-121l-379 1042l-360 -1042h-121l-182 522h-508l-164 -405l219 -72v-45h-477v45l150 68l542 1321h121l414 -1162l315 912l-57 153l-135 52v45h546v-45l-202 -58l387 -1050
l327 1028l-233 80v45h477zM461 616h436l-203 578z" />
    <glyph glyph-name="Acircumflex_X.liga" unicode="&#xc2;X" horiz-adv-x="2572" 
d="M733 1716l-309 -178l-43 37l250 311h219l248 -309l-43 -39zM2400 102l152 -57v-45h-547v45l168 47l-391 557l-371 -528l199 -76v-45h-649v45l192 53l-176 424h-555l-164 -405l219 -72v-45h-477v45l150 68l542 1321h121l518 -1254l393 551l-417 600l-152 58v45h547v-45
l-168 -48l338 -483l326 455l-197 76v45h477v-45l-149 -62l-400 -549zM461 616h477l-242 584z" />
    <glyph glyph-name="Adieresis_V.liga" unicode="&#xc4;V" horiz-adv-x="1996" 
d="M549 1612q-53 0 -90 37t-37 90t37 90t90 37t90 -37t37 -90t-37 -90t-90 -37zM940 1612q-52 0 -89.5 37t-37.5 90t37.5 90t89.5 37t89.5 -37t37.5 -90t-37.5 -90t-89.5 -37zM1997 1434v-45l-152 -72l-530 -1317h-121l-217 522h-555l-164 -405l219 -72v-45h-477v45l150 68
l542 1321h121l496 -1201l430 1080l-260 76v45h518zM461 616h477l-242 584z" />
    <glyph glyph-name="Adieresis_W.liga" unicode="&#xc4;W" horiz-adv-x="2662" 
d="M549 1612q-53 0 -90 37t-37 90t37 90t90 37t90 -37t37 -90t-37 -90t-90 -37zM940 1612q-52 0 -89.5 37t-37.5 90t37.5 90t89.5 37t89.5 -37t37.5 -90t-37.5 -90t-89.5 -37zM2652 1434v-45l-139 -66l-420 -1323h-121l-379 1042l-360 -1042h-121l-182 522h-508l-164 -405
l219 -72v-45h-477v45l150 68l542 1321h121l414 -1162l315 912l-57 153l-135 52v45h546v-45l-202 -58l387 -1050l327 1028l-233 80v45h477zM461 616h436l-203 578z" />
    <glyph glyph-name="Adieresis_X.liga" unicode="&#xc4;X" horiz-adv-x="2572" 
d="M549 1612q-53 0 -90 37t-37 90t37 90t90 37t90 -37t37 -90t-37 -90t-90 -37zM940 1612q-52 0 -89.5 37t-37.5 90t37.5 90t89.5 37t89.5 -37t37.5 -90t-37.5 -90t-89.5 -37zM2400 102l152 -57v-45h-547v45l168 47l-391 557l-371 -528l199 -76v-45h-649v45l192 53l-176 424
h-555l-164 -405l219 -72v-45h-477v45l150 68l542 1321h121l518 -1254l393 551l-417 600l-152 58v45h547v-45l-168 -48l338 -483l326 455l-197 76v45h477v-45l-149 -62l-400 -549zM461 616h477l-242 584z" />
    <glyph glyph-name="Agrave_V.liga" unicode="&#xc0;V" horiz-adv-x="1996" 
d="M930 1587l-33 -49l-524 148v8l166 213h4zM1997 1434v-45l-152 -72l-530 -1317h-121l-217 522h-555l-164 -405l219 -72v-45h-477v45l150 68l542 1321h121l496 -1201l430 1080l-260 76v45h518zM461 616h477l-242 584z" />
    <glyph glyph-name="Agrave_W.liga" unicode="&#xc0;W" horiz-adv-x="2662" 
d="M930 1587l-33 -49l-524 148v8l166 213h4zM2652 1434v-45l-139 -66l-420 -1323h-121l-379 1042l-360 -1042h-121l-182 522h-508l-164 -405l219 -72v-45h-477v45l150 68l542 1321h121l414 -1162l315 912l-57 153l-135 52v45h546v-45l-202 -58l387 -1050l327 1028l-233 80
v45h477zM461 616h436l-203 578z" />
    <glyph glyph-name="Agrave_X.liga" unicode="&#xc0;X" horiz-adv-x="2572" 
d="M930 1587l-33 -49l-524 148v8l166 213h4zM2400 102l152 -57v-45h-547v45l168 47l-391 557l-371 -528l199 -76v-45h-649v45l192 53l-176 424h-555l-164 -405l219 -72v-45h-477v45l150 68l542 1321h121l518 -1254l393 551l-417 600l-152 58v45h547v-45l-168 -48l338 -483
l326 455l-197 76v45h477v-45l-149 -62l-400 -549zM461 616h477l-242 584z" />
    <glyph glyph-name="Amacron_V.liga" unicode="&#x100;V" horiz-adv-x="1996" 
d="M1018 1784v-148h-547v148h547zM1997 1434v-45l-152 -72l-530 -1317h-121l-217 522h-555l-164 -405l219 -72v-45h-477v45l150 68l542 1321h121l496 -1201l430 1080l-260 76v45h518zM461 616h477l-242 584z" />
    <glyph glyph-name="Amacron_W.liga" unicode="&#x100;W" horiz-adv-x="2662" 
d="M1018 1784v-148h-547v148h547zM2652 1434v-45l-139 -66l-420 -1323h-121l-379 1042l-360 -1042h-121l-182 522h-508l-164 -405l219 -72v-45h-477v45l150 68l542 1321h121l414 -1162l315 912l-57 153l-135 52v45h546v-45l-202 -58l387 -1050l327 1028l-233 80v45h477z
M461 616h436l-203 578z" />
    <glyph glyph-name="Amacron_X.liga" unicode="&#x100;X" horiz-adv-x="2572" 
d="M1018 1784v-148h-547v148h547zM2400 102l152 -57v-45h-547v45l168 47l-391 557l-371 -528l199 -76v-45h-649v45l192 53l-176 424h-555l-164 -405l219 -72v-45h-477v45l150 68l542 1321h121l518 -1254l393 551l-417 600l-152 58v45h547v-45l-168 -48l338 -483l326 455
l-197 76v45h477v-45l-149 -62l-400 -549zM461 616h477l-242 584z" />
    <glyph glyph-name="Aring_V.liga" unicode="&#xc5;V" horiz-adv-x="1996" 
d="M743 1501q-99 0 -166 55.5t-67 147.5q0 91 60 159t171 68q100 0 168 -55t68 -147q0 -91 -61 -159.5t-173 -68.5zM643 1798q-22 -29 -22 -74q0 -59 37 -89.5t98 -30.5q44 0 86 28q24 27 24 76q0 60 -36 90.5t-97 30.5q-48 0 -90 -31zM1997 1434v-45l-152 -72l-530 -1317
h-121l-217 522h-555l-164 -405l219 -72v-45h-477v45l150 68l542 1321h121l496 -1201l430 1080l-260 76v45h518zM461 616h477l-242 584z" />
    <glyph glyph-name="Aring_W.liga" unicode="&#xc5;W" horiz-adv-x="2662" 
d="M743 1501q-99 0 -166 55.5t-67 147.5q0 91 60 159t171 68q100 0 168 -55t68 -147q0 -91 -61 -159.5t-173 -68.5zM643 1798q-22 -29 -22 -74q0 -59 37 -89.5t98 -30.5q44 0 86 28q24 27 24 76q0 60 -36 90.5t-97 30.5q-48 0 -90 -31zM2652 1434v-45l-139 -66l-420 -1323
h-121l-379 1042l-360 -1042h-121l-182 522h-508l-164 -405l219 -72v-45h-477v45l150 68l542 1321h121l414 -1162l315 912l-57 153l-135 52v45h546v-45l-202 -58l387 -1050l327 1028l-233 80v45h477zM461 616h436l-203 578z" />
    <glyph glyph-name="Aring_X.liga" unicode="&#xc5;X" horiz-adv-x="2572" 
d="M743 1501q-99 0 -166 55.5t-67 147.5q0 91 60 159t171 68q100 0 168 -55t68 -147q0 -91 -61 -159.5t-173 -68.5zM643 1798q-22 -29 -22 -74q0 -59 37 -89.5t98 -30.5q44 0 86 28q24 27 24 76q0 60 -36 90.5t-97 30.5q-48 0 -90 -31zM2400 102l152 -57v-45h-547v45l168 47
l-391 557l-371 -528l199 -76v-45h-649v45l192 53l-176 424h-555l-164 -405l219 -72v-45h-477v45l150 68l542 1321h121l518 -1254l393 551l-417 600l-152 58v45h547v-45l-168 -48l338 -483l326 455l-197 76v45h477v-45l-149 -62l-400 -549zM461 616h477l-242 584z" />
    <glyph glyph-name="Atilde_V.liga" unicode="&#xc3;V" horiz-adv-x="1996" 
d="M584 1692q-27 0 -48 -8.5t-37.5 -29.5t-25 -35t-24.5 -46l-58 20q28 133 89 207t149 74q47 0 90 -20t70 -44.5t59.5 -44.5t60.5 -20q26 0 46.5 8.5t37 29.5t25 35t24.5 46l58 -21q-28 -132 -89.5 -206t-148.5 -74q-47 0 -90.5 20t-70 44.5t-58.5 44.5t-59 20zM1997 1434
v-45l-152 -72l-530 -1317h-121l-217 522h-555l-164 -405l219 -72v-45h-477v45l150 68l542 1321h121l496 -1201l430 1080l-260 76v45h518zM461 616h477l-242 584z" />
    <glyph glyph-name="Atilde_W.liga" unicode="&#xc3;W" horiz-adv-x="2662" 
d="M584 1692q-27 0 -48 -8.5t-37.5 -29.5t-25 -35t-24.5 -46l-58 20q28 133 89 207t149 74q47 0 90 -20t70 -44.5t59.5 -44.5t60.5 -20q26 0 46.5 8.5t37 29.5t25 35t24.5 46l58 -21q-28 -132 -89.5 -206t-148.5 -74q-47 0 -90.5 20t-70 44.5t-58.5 44.5t-59 20zM2652 1434
v-45l-139 -66l-420 -1323h-121l-379 1042l-360 -1042h-121l-182 522h-508l-164 -405l219 -72v-45h-477v45l150 68l542 1321h121l414 -1162l315 912l-57 153l-135 52v45h546v-45l-202 -58l387 -1050l327 1028l-233 80v45h477zM461 616h436l-203 578z" />
    <glyph glyph-name="Atilde_X.liga" unicode="&#xc3;X" horiz-adv-x="2572" 
d="M584 1692q-27 0 -48 -8.5t-37.5 -29.5t-25 -35t-24.5 -46l-58 20q28 133 89 207t149 74q47 0 90 -20t70 -44.5t59.5 -44.5t60.5 -20q26 0 46.5 8.5t37 29.5t25 35t24.5 46l58 -21q-28 -132 -89.5 -206t-148.5 -74q-47 0 -90.5 20t-70 44.5t-58.5 44.5t-59 20zM2400 102
l152 -57v-45h-547v45l168 47l-391 557l-371 -528l199 -76v-45h-649v45l192 53l-176 424h-555l-164 -405l219 -72v-45h-477v45l150 68l542 1321h121l518 -1254l393 551l-417 600l-152 58v45h547v-45l-168 -48l338 -483l326 455l-197 76v45h477v-45l-149 -62l-400 -549z
M461 616h477l-242 584z" />
    <glyph glyph-name="C_A.liga" unicode="CA" horiz-adv-x="2537" 
d="M2386 98l141 -53v-45h-547v45l193 53l-176 424h-555l-70 -172q-75 -184 -221.5 -279.5t-351.5 -95.5q-171 0 -306 53t-222.5 149.5t-133 228.5t-45.5 292q0 107 33 215.5t97.5 206t151 173.5t202.5 120.5t243 44.5q117 0 239 -45t197 -113v-372h-67q-60 192 -170 295.5
t-266 103.5q-197 0 -353 -160q-116 -186 -116 -372q0 -184 77.5 -340.5t216.5 -250t308 -93.5q130 0 235.5 68t165.5 214l426 1041h121zM1481 616h477l-242 584z" />
    <glyph glyph-name="C_Aacute.liga" unicode="C&#xc1;" horiz-adv-x="2537" 
d="M2154 1712l-552 -174l-41 43l395 326h4l194 -185v-10zM2386 98l141 -53v-45h-547v45l193 53l-176 424h-555l-70 -172q-75 -184 -221.5 -279.5t-351.5 -95.5q-171 0 -306 53t-222.5 149.5t-133 228.5t-45.5 292q0 107 33 215.5t97.5 206t151 173.5t202.5 120.5t243 44.5
q117 0 239 -45t197 -113v-372h-67q-60 192 -170 295.5t-266 103.5q-197 0 -353 -160q-116 -186 -116 -372q0 -184 77.5 -340.5t216.5 -250t308 -93.5q130 0 235.5 68t165.5 214l426 1041h121zM1481 616h477l-242 584z" />
    <glyph glyph-name="C_Abreve.liga" unicode="C&#x102;" horiz-adv-x="2537" 
d="M1763 1548q-48 0 -96 16t-95.5 51t-77.5 102t-30 157l66 2q25 -66 86.5 -110t146.5 -44t147 44t89 110l65 -2q0 -73 -20.5 -131t-52 -93.5t-73 -59.5t-80 -33t-75.5 -9zM2386 98l141 -53v-45h-547v45l193 53l-176 424h-555l-70 -172q-75 -184 -221.5 -279.5t-351.5 -95.5
q-171 0 -306 53t-222.5 149.5t-133 228.5t-45.5 292q0 107 33 215.5t97.5 206t151 173.5t202.5 120.5t243 44.5q117 0 239 -45t197 -113v-372h-67q-60 192 -170 295.5t-266 103.5q-197 0 -353 -160q-116 -186 -116 -372q0 -184 77.5 -340.5t216.5 -250t308 -93.5
q130 0 235.5 68t165.5 214l426 1041h121zM1481 616h477l-242 584z" />
    <glyph glyph-name="C_Acircumflex.liga" unicode="C&#xc2;" horiz-adv-x="2537" 
d="M1753 1716l-309 -178l-43 37l250 311h219l248 -309l-43 -39zM2386 98l141 -53v-45h-547v45l193 53l-176 424h-555l-70 -172q-75 -184 -221.5 -279.5t-351.5 -95.5q-171 0 -306 53t-222.5 149.5t-133 228.5t-45.5 292q0 107 33 215.5t97.5 206t151 173.5t202.5 120.5
t243 44.5q117 0 239 -45t197 -113v-372h-67q-60 192 -170 295.5t-266 103.5q-197 0 -353 -160q-116 -186 -116 -372q0 -184 77.5 -340.5t216.5 -250t308 -93.5q130 0 235.5 68t165.5 214l426 1041h121zM1481 616h477l-242 584z" />
    <glyph glyph-name="C_Adieresis.liga" unicode="C&#xc4;" horiz-adv-x="2537" 
d="M1569 1612q-53 0 -90 37t-37 90t37 90t90 37t90 -37t37 -90t-37 -90t-90 -37zM1960 1612q-52 0 -89.5 37t-37.5 90t37.5 90t89.5 37t89.5 -37t37.5 -90t-37.5 -90t-89.5 -37zM2386 98l141 -53v-45h-547v45l193 53l-176 424h-555l-70 -172q-75 -184 -221.5 -279.5
t-351.5 -95.5q-171 0 -306 53t-222.5 149.5t-133 228.5t-45.5 292q0 107 33 215.5t97.5 206t151 173.5t202.5 120.5t243 44.5q117 0 239 -45t197 -113v-372h-67q-60 192 -170 295.5t-266 103.5q-197 0 -353 -160q-116 -186 -116 -372q0 -184 77.5 -340.5t216.5 -250
t308 -93.5q130 0 235.5 68t165.5 214l426 1041h121zM1481 616h477l-242 584z" />
    <glyph glyph-name="C_Agrave.liga" unicode="C&#xc0;" horiz-adv-x="2537" 
d="M1950 1587l-33 -49l-524 148v8l166 213h4zM2386 98l141 -53v-45h-547v45l193 53l-176 424h-555l-70 -172q-75 -184 -221.5 -279.5t-351.5 -95.5q-171 0 -306 53t-222.5 149.5t-133 228.5t-45.5 292q0 107 33 215.5t97.5 206t151 173.5t202.5 120.5t243 44.5
q117 0 239 -45t197 -113v-372h-67q-60 192 -170 295.5t-266 103.5q-197 0 -353 -160q-116 -186 -116 -372q0 -184 77.5 -340.5t216.5 -250t308 -93.5q130 0 235.5 68t165.5 214l426 1041h121zM1481 616h477l-242 584z" />
    <glyph glyph-name="C_Amacron.liga" unicode="C&#x100;" horiz-adv-x="2537" 
d="M2038 1784v-148h-547v148h547zM2386 98l141 -53v-45h-547v45l193 53l-176 424h-555l-70 -172q-75 -184 -221.5 -279.5t-351.5 -95.5q-171 0 -306 53t-222.5 149.5t-133 228.5t-45.5 292q0 107 33 215.5t97.5 206t151 173.5t202.5 120.5t243 44.5q117 0 239 -45t197 -113
v-372h-67q-60 192 -170 295.5t-266 103.5q-197 0 -353 -160q-116 -186 -116 -372q0 -184 77.5 -340.5t216.5 -250t308 -93.5q130 0 235.5 68t165.5 214l426 1041h121zM1481 616h477l-242 584z" />
    <glyph glyph-name="C_Aogonek.liga" unicode="C&#x104;" horiz-adv-x="2537" 
d="M2386 98l141 -53v-45h-192q-92 -153 -92 -270q0 -72 50 -106t115 -15v-53q-53 -32 -115 -40t-114.5 7.5t-87.5 59t-35 106.5q0 76 56 150.5t151 160.5h-283v45l193 53l-176 424h-555l-70 -172q-75 -184 -221.5 -279.5t-351.5 -95.5q-171 0 -306 53t-222.5 149.5
t-133 228.5t-45.5 292q0 107 33 215.5t97.5 206t151 173.5t202.5 120.5t243 44.5q117 0 239 -45t197 -113v-372h-67q-60 192 -170 295.5t-266 103.5q-197 0 -353 -160q-116 -186 -116 -372q0 -184 77.5 -340.5t216.5 -250t308 -93.5q130 0 235.5 68t165.5 214l426 1041h121z
M1481 616h477l-242 584z" />
    <glyph glyph-name="C_Aring.liga" unicode="C&#xc5;" horiz-adv-x="2537" 
d="M1763 1501q-99 0 -166 55.5t-67 147.5q0 91 60 159t171 68q100 0 168 -55t68 -147q0 -91 -61 -159.5t-173 -68.5zM1663 1798q-23 -31 -23 -74q0 -59 37.5 -89.5t98.5 -30.5q44 0 86 28q24 27 24 76q0 60 -36 90.5t-97 30.5q-48 0 -90 -31zM2386 98l141 -53v-45h-547v45
l193 53l-176 424h-555l-70 -172q-75 -184 -221.5 -279.5t-351.5 -95.5q-171 0 -306 53t-222.5 149.5t-133 228.5t-45.5 292q0 107 33 215.5t97.5 206t151 173.5t202.5 120.5t243 44.5q117 0 239 -45t197 -113v-372h-67q-60 192 -170 295.5t-266 103.5q-197 0 -353 -160
q-116 -186 -116 -372q0 -184 77.5 -340.5t216.5 -250t308 -93.5q130 0 235.5 68t165.5 214l426 1041h121zM1481 616h477l-242 584z" />
    <glyph glyph-name="C_Atilde.liga" unicode="C&#xc3;" horiz-adv-x="2537" 
d="M1604 1692q-27 0 -48 -8.5t-38 -29t-25.5 -35.5t-24.5 -46l-57 20q28 133 89 207t149 74q47 0 90 -20t70 -44.5t59.5 -44.5t60.5 -20q26 0 46.5 8.5t37 29.5t25 35t24.5 46l58 -21q-28 -132 -89.5 -206t-148.5 -74q-47 0 -90.5 20t-70 44.5t-58.5 44.5t-59 20zM2386 98
l141 -53v-45h-547v45l193 53l-176 424h-555l-70 -172q-75 -184 -221.5 -279.5t-351.5 -95.5q-171 0 -306 53t-222.5 149.5t-133 228.5t-45.5 292q0 107 33 215.5t97.5 206t151 173.5t202.5 120.5t243 44.5q117 0 239 -45t197 -113v-372h-67q-60 192 -170 295.5t-266 103.5
q-197 0 -353 -160q-116 -186 -116 -372q0 -184 77.5 -340.5t216.5 -250t308 -93.5q130 0 235.5 68t165.5 214l426 1041h121zM1481 616h477l-242 584z" />
    <glyph glyph-name="Cacute_A.liga" unicode="&#x106;A" horiz-adv-x="2537" 
d="M1204 1712l-553 -174l-41 43l396 326h4l194 -185v-10zM2386 98l141 -53v-45h-547v45l193 53l-176 424h-555l-70 -172q-75 -184 -221.5 -279.5t-351.5 -95.5q-171 0 -306 53t-222.5 149.5t-133 228.5t-45.5 292q0 107 33 215.5t97.5 206t151 173.5t202.5 120.5t243 44.5
q117 0 239 -45t197 -113v-372h-67q-60 192 -170 295.5t-266 103.5q-197 0 -353 -160q-116 -186 -116 -372q0 -184 77.5 -340.5t216.5 -250t308 -93.5q130 0 235.5 68t165.5 214l426 1041h121zM1481 616h477l-242 584z" />
    <glyph glyph-name="Ccaron_A.liga" unicode="&#x10c;A" horiz-adv-x="2537" 
d="M705 1559l-248 309l43 39l321 -178l309 178l44 -37l-250 -311h-219zM2386 98l141 -53v-45h-547v45l193 53l-176 424h-555l-70 -172q-75 -184 -221.5 -279.5t-351.5 -95.5q-171 0 -306 53t-222.5 149.5t-133 228.5t-45.5 292q0 107 33 215.5t97.5 206t151 173.5
t202.5 120.5t243 44.5q117 0 239 -45t197 -113v-372h-67q-60 192 -170 295.5t-266 103.5q-197 0 -353 -160q-116 -186 -116 -372q0 -184 77.5 -340.5t216.5 -250t308 -93.5q130 0 235.5 68t165.5 214l426 1041h121zM1481 616h477l-242 584z" />
    <glyph glyph-name="Ccaron_Aacute.liga" unicode="&#x10c;&#xc1;" horiz-adv-x="2537" 
d="M705 1559l-248 309l43 39l321 -178l309 178l44 -37l-250 -311h-219zM2154 1712l-552 -174l-41 43l395 326h4l194 -185v-10zM2386 98l141 -53v-45h-547v45l193 53l-176 424h-555l-70 -172q-75 -184 -221.5 -279.5t-351.5 -95.5q-171 0 -306 53t-222.5 149.5t-133 228.5
t-45.5 292q0 107 33 215.5t97.5 206t151 173.5t202.5 120.5t243 44.5q117 0 239 -45t197 -113v-372h-67q-60 192 -170 295.5t-266 103.5q-197 0 -353 -160q-116 -186 -116 -372q0 -184 77.5 -340.5t216.5 -250t308 -93.5q130 0 235.5 68t165.5 214l426 1041h121zM1481 616
h477l-242 584z" />
    <glyph glyph-name="Ccedilla_A.liga" unicode="&#xc7;A" horiz-adv-x="2537" 
d="M2386 98l141 -53v-45h-547v45l193 53l-176 424h-555l-70 -172q-75 -184 -221.5 -279.5t-351.5 -95.5h-33l-53 -79h2q96 -23 146 -73t50 -118t-54.5 -119t-137 -66t-178.5 5v55q89 -3 134.5 21.5t45.5 85.5q0 81 -84 98l-72 14l-2 4l115 179q-189 24 -322 121.5
t-198.5 249t-65.5 345.5q0 107 33 215.5t97.5 206t151 173.5t202.5 120.5t243 44.5q117 0 239 -45t197 -113v-372h-67q-60 192 -170 295.5t-266 103.5q-197 0 -353 -160q-116 -186 -116 -372q0 -184 77.5 -340.5t216.5 -250t308 -93.5q130 0 235.5 68t165.5 214l426 1041
h121zM1481 616h477l-242 584z" />
    <glyph glyph-name="Ccircumflex_A.liga" unicode="&#x108;A" horiz-adv-x="2537" 
d="M803 1716l-309 -178l-43 37l249 311h220l247 -309l-43 -39zM2386 98l141 -53v-45h-547v45l193 53l-176 424h-555l-70 -172q-75 -184 -221.5 -279.5t-351.5 -95.5q-171 0 -306 53t-222.5 149.5t-133 228.5t-45.5 292q0 107 33 215.5t97.5 206t151 173.5t202.5 120.5
t243 44.5q117 0 239 -45t197 -113v-372h-67q-60 192 -170 295.5t-266 103.5q-197 0 -353 -160q-116 -186 -116 -372q0 -184 77.5 -340.5t216.5 -250t308 -93.5q130 0 235.5 68t165.5 214l426 1041h121zM1481 616h477l-242 584z" />
    <glyph glyph-name="Cdotaccent_A.liga" unicode="&#x10a;A" horiz-adv-x="2537" 
d="M815 1608q-54 0 -92.5 38.5t-38.5 92.5t38.5 92.5t92.5 38.5t92.5 -38.5t38.5 -92.5t-38.5 -92.5t-92.5 -38.5zM2386 98l141 -53v-45h-547v45l193 53l-176 424h-555l-70 -172q-75 -184 -221.5 -279.5t-351.5 -95.5q-171 0 -306 53t-222.5 149.5t-133 228.5t-45.5 292
q0 107 33 215.5t97.5 206t151 173.5t202.5 120.5t243 44.5q117 0 239 -45t197 -113v-372h-67q-60 192 -170 295.5t-266 103.5q-197 0 -353 -160q-116 -186 -116 -372q0 -184 77.5 -340.5t216.5 -250t308 -93.5q130 0 235.5 68t165.5 214l426 1041h121zM1481 616h477
l-242 584z" />
    <glyph glyph-name="D_C.liga" unicode="DC" horiz-adv-x="2484" 
d="M2378 352l65 -43q-59 -151 -212 -242.5t-330 -91.5q-241 0 -401.5 101.5t-233.5 285.5q-96 -168 -273.5 -265t-435.5 -97h-506v45l168 59v1225l-168 60v45h633q227 0 390.5 -89.5t238.5 -254.5q95 165 252.5 266.5t355.5 101.5q117 0 239 -45t197 -113v-372h-67
q-59 192 -170 295.5t-267 103.5q-196 0 -352 -160q-57 -91 -87 -179t-30 -193q0 -184 77.5 -340.5t217 -250t308.5 -93.5q64 0 134.5 25t141.5 81.5t115 134.5zM557 92q161 3 284 52.5t196 133.5t109 189.5t36 228.5q0 93 -18 180t-62 173t-109.5 149.5t-170 103
t-234.5 39.5h-174v-1249h143z" />
    <glyph glyph-name="D_Cacute.liga" unicode="D&#x106;" horiz-adv-x="2484" 
d="M2306 1712l-553 -174l-41 43l395 326h4l195 -185v-10zM2378 352l65 -43q-59 -151 -212 -242.5t-330 -91.5q-241 0 -401.5 101.5t-233.5 285.5q-96 -168 -273.5 -265t-435.5 -97h-506v45l168 59v1225l-168 60v45h633q227 0 390.5 -89.5t238.5 -254.5q95 165 252.5 266.5
t355.5 101.5q117 0 239 -45t197 -113v-372h-67q-59 192 -170 295.5t-267 103.5q-196 0 -352 -160q-57 -91 -87 -179t-30 -193q0 -184 77.5 -340.5t217 -250t308.5 -93.5q64 0 134.5 25t141.5 81.5t115 134.5zM557 92q161 3 284 52.5t196 133.5t109 189.5t36 228.5
q0 93 -18 180t-62 173t-109.5 149.5t-170 103t-234.5 39.5h-174v-1249h143z" />
    <glyph glyph-name="D_Ccaron.liga" unicode="D&#x10c;" horiz-adv-x="2484" 
d="M1806 1559l-247 309l43 39l321 -178l309 178l43 -37l-250 -311h-219zM2378 352l65 -43q-59 -151 -212 -242.5t-330 -91.5q-241 0 -401.5 101.5t-233.5 285.5q-96 -168 -273.5 -265t-435.5 -97h-506v45l168 59v1225l-168 60v45h633q227 0 390.5 -89.5t238.5 -254.5
q95 165 252.5 266.5t355.5 101.5q117 0 239 -45t197 -113v-372h-67q-59 192 -170 295.5t-267 103.5q-196 0 -352 -160q-57 -91 -87 -179t-30 -193q0 -184 77.5 -340.5t217 -250t308.5 -93.5q64 0 134.5 25t141.5 81.5t115 134.5zM557 92q161 3 284 52.5t196 133.5t109 189.5
t36 228.5q0 93 -18 180t-62 173t-109.5 149.5t-170 103t-234.5 39.5h-174v-1249h143z" />
    <glyph glyph-name="D_Ccedilla.liga" unicode="D&#xc7;" horiz-adv-x="2484" 
d="M1901 -25h-33l-53 -79h2q96 -23 146 -73t50 -118t-55 -119t-137.5 -66t-178.5 5v55q89 -3 135 21.5t46 85.5q0 81 -84 98l-72 14l-2 4l115 181q-191 23 -321 121t-193 257q-96 -168 -273.5 -265t-435.5 -97h-506v45l168 59v1225l-168 60v45h633q227 0 390.5 -89.5
t238.5 -254.5q95 165 252.5 266.5t355.5 101.5q117 0 239 -45t197 -113v-372h-67q-59 192 -170 295.5t-267 103.5q-196 0 -352 -160q-57 -91 -87 -179t-30 -193q0 -184 77.5 -340.5t217 -250t308.5 -93.5q64 0 134.5 25t141.5 81.5t115 134.5l65 -43q-59 -151 -212 -242.5
t-330 -91.5zM557 92q161 3 284 52.5t196 133.5t109 189.5t36 228.5q0 93 -18 180t-62 173t-109.5 149.5t-170 103t-234.5 39.5h-174v-1249h143z" />
    <glyph glyph-name="D_Ccircumflex.liga" unicode="D&#x108;" horiz-adv-x="2484" 
d="M1905 1716l-310 -178l-43 37l250 311h219l248 -309l-43 -39zM2378 352l65 -43q-59 -151 -212 -242.5t-330 -91.5q-241 0 -401.5 101.5t-233.5 285.5q-96 -168 -273.5 -265t-435.5 -97h-506v45l168 59v1225l-168 60v45h633q227 0 390.5 -89.5t238.5 -254.5
q95 165 252.5 266.5t355.5 101.5q117 0 239 -45t197 -113v-372h-67q-59 192 -170 295.5t-267 103.5q-196 0 -352 -160q-57 -91 -87 -179t-30 -193q0 -184 77.5 -340.5t217 -250t308.5 -93.5q64 0 134.5 25t141.5 81.5t115 134.5zM557 92q161 3 284 52.5t196 133.5t109 189.5
t36 228.5q0 93 -18 180t-62 173t-109.5 149.5t-170 103t-234.5 39.5h-174v-1249h143z" />
    <glyph glyph-name="D_Cdotaccent.liga" unicode="D&#x10a;" horiz-adv-x="2484" 
d="M1917 1608q-54 0 -92.5 38.5t-38.5 92.5t38.5 92.5t92.5 38.5t92.5 -38.5t38.5 -92.5t-38.5 -92.5t-92.5 -38.5zM2378 352l65 -43q-59 -151 -212 -242.5t-330 -91.5q-241 0 -401.5 101.5t-233.5 285.5q-96 -168 -273.5 -265t-435.5 -97h-506v45l168 59v1225l-168 60v45
h633q227 0 390.5 -89.5t238.5 -254.5q95 165 252.5 266.5t355.5 101.5q117 0 239 -45t197 -113v-372h-67q-59 192 -170 295.5t-267 103.5q-196 0 -352 -160q-57 -91 -87 -179t-30 -193q0 -184 77.5 -340.5t217 -250t308.5 -93.5q64 0 134.5 25t141.5 81.5t115 134.5zM557 92
q161 3 284 52.5t196 133.5t109 189.5t36 228.5q0 93 -18 180t-62 173t-109.5 149.5t-170 103t-234.5 39.5h-174v-1249h143z" />
    <glyph glyph-name="D_O.liga" unicode="DO" horiz-adv-x="2656" 
d="M1888 1458q98 0 192.5 -25t182.5 -79.5t154.5 -132.5t106.5 -194t40 -255q0 -215 -90 -397t-253 -291t-363 -109q-122 0 -235.5 38t-213 124t-154.5 209q-97 -162 -272 -254t-426 -92h-506v45l168 59v1225l-168 60v45h633q222 0 383.5 -85.5t239.5 -244.5q92 164 243 259
t338 95zM557 92q161 3 284 52.5t196 133.5t109 189.5t36 228.5q0 93 -18 180t-62 173t-109.5 149.5t-170 103t-234.5 39.5h-174v-1249h143zM2241 242q126 211 126 391q0 308 -155 498t-389 190q-184 0 -318 -129q-127 -212 -127 -391q0 -204 72.5 -362t196 -242t276.5 -84
q184 0 318 129z" />
    <glyph glyph-name="Eth_C.liga" unicode="&#xd0;C" horiz-adv-x="2484" 
d="M2378 352l65 -43q-59 -151 -212 -242.5t-330 -91.5q-241 0 -401.5 101.5t-233.5 285.5q-96 -168 -273.5 -265t-435.5 -97h-506v45l168 59v588h-168v94h168v543l-168 60v45h633q227 0 390.5 -89.5t238.5 -254.5q95 165 252.5 266.5t355.5 101.5q117 0 239 -45t197 -113
v-372h-67q-59 192 -170 295.5t-267 103.5q-196 0 -352 -160q-57 -91 -87 -179t-30 -193q0 -184 77.5 -340.5t217 -250t308.5 -93.5q64 0 134.5 25t141.5 81.5t115 134.5zM557 92q161 3 284 52.5t196 133.5t109 189.5t36 228.5q0 93 -18 180t-62 173t-109.5 149.5t-170 103
t-234.5 39.5h-174v-555h327v-94h-327v-600h143z" />
    <glyph glyph-name="Dcaron_C.liga" unicode="&#x10e;C" horiz-adv-x="2484" 
d="M573 1559l-247 309l43 39l321 -178l309 178l43 -37l-249 -311h-220zM2378 352l65 -43q-59 -151 -212 -242.5t-330 -91.5q-241 0 -401.5 101.5t-233.5 285.5q-96 -168 -273.5 -265t-435.5 -97h-506v45l168 59v1225l-168 60v45h633q227 0 390.5 -89.5t238.5 -254.5
q95 165 252.5 266.5t355.5 101.5q117 0 239 -45t197 -113v-372h-67q-59 192 -170 295.5t-267 103.5q-196 0 -352 -160q-57 -91 -87 -179t-30 -193q0 -184 77.5 -340.5t217 -250t308.5 -93.5q64 0 134.5 25t141.5 81.5t115 134.5zM557 92q161 3 284 52.5t196 133.5t109 189.5
t36 228.5q0 93 -18 180t-62 173t-109.5 149.5t-170 103t-234.5 39.5h-174v-1249h143z" />
    <glyph glyph-name="Dcroat_C.liga" unicode="&#x110;C" horiz-adv-x="2484" 
d="M2378 352l65 -43q-59 -151 -212 -242.5t-330 -91.5q-241 0 -401.5 101.5t-233.5 285.5q-96 -168 -273.5 -265t-435.5 -97h-506v45l168 59v588h-168v94h168v543l-168 60v45h633q227 0 390.5 -89.5t238.5 -254.5q95 165 252.5 266.5t355.5 101.5q117 0 239 -45t197 -113
v-372h-67q-59 192 -170 295.5t-267 103.5q-196 0 -352 -160q-57 -91 -87 -179t-30 -193q0 -184 77.5 -340.5t217 -250t308.5 -93.5q64 0 134.5 25t141.5 81.5t115 134.5zM557 92q161 3 284 52.5t196 133.5t109 189.5t36 228.5q0 93 -18 180t-62 173t-109.5 149.5t-170 103
t-234.5 39.5h-174v-555h327v-94h-327v-600h143z" />
    <glyph glyph-name="E_A.liga" unicode="EA" horiz-adv-x="2508" 
d="M2357 98l142 -53v-45h-547v45l192 53l-176 424h-555l-33 -82q-92 -228 -222.5 -334t-319.5 -106h-787v45l168 59v1225l-168 60v45h1141v-383h-47l-152 288h-579v-557h424l80 207h47v-504h-47l-78 203h-426v-594h424q155 0 265.5 94.5t190.5 294.5l389 951h121zM1452 616
h477l-241 584z" />
    <glyph glyph-name="E_Aacute.liga" unicode="E&#xc1;" horiz-adv-x="2508" 
d="M2126 1712l-553 -174l-41 43l395 326h4l195 -185v-10zM2357 98l142 -53v-45h-547v45l192 53l-176 424h-555l-33 -82q-92 -228 -222.5 -334t-319.5 -106h-787v45l168 59v1225l-168 60v45h1141v-383h-47l-152 288h-579v-557h424l80 207h47v-504h-47l-78 203h-426v-594h424
q155 0 265.5 94.5t190.5 294.5l389 951h121zM1452 616h477l-241 584z" />
    <glyph glyph-name="E_Abreve.liga" unicode="E&#x102;" horiz-adv-x="2508" 
d="M1735 1548q-48 0 -96 16t-95.5 51t-77.5 102t-30 157l65 2q25 -66 87 -110t147 -44t146.5 44t88.5 110l66 -2q0 -73 -20.5 -131t-52 -93.5t-73 -59.5t-80 -33t-75.5 -9zM2357 98l142 -53v-45h-547v45l192 53l-176 424h-555l-33 -82q-92 -228 -222.5 -334t-319.5 -106
h-787v45l168 59v1225l-168 60v45h1141v-383h-47l-152 288h-579v-557h424l80 207h47v-504h-47l-78 203h-426v-594h424q155 0 265.5 94.5t190.5 294.5l389 951h121zM1452 616h477l-241 584z" />
    <glyph glyph-name="E_Acircumflex.liga" unicode="E&#xc2;" horiz-adv-x="2508" 
d="M1724 1716l-309 -178l-43 37l250 311h219l248 -309l-43 -39zM2357 98l142 -53v-45h-547v45l192 53l-176 424h-555l-33 -82q-92 -228 -222.5 -334t-319.5 -106h-787v45l168 59v1225l-168 60v45h1141v-383h-47l-152 288h-579v-557h424l80 207h47v-504h-47l-78 203h-426
v-594h424q155 0 265.5 94.5t190.5 294.5l389 951h121zM1452 616h477l-241 584z" />
    <glyph glyph-name="E_Adieresis.liga" unicode="E&#xc4;" horiz-adv-x="2508" 
d="M1540 1612q-52 0 -89.5 37t-37.5 90t37.5 90t89.5 37t89.5 -37t37.5 -90t-37.5 -90t-89.5 -37zM1931 1612q-53 0 -90 37t-37 90t37 90t90 37t90 -37t37 -90t-37 -90t-90 -37zM2357 98l142 -53v-45h-547v45l192 53l-176 424h-555l-33 -82q-92 -228 -222.5 -334
t-319.5 -106h-787v45l168 59v1225l-168 60v45h1141v-383h-47l-152 288h-579v-557h424l80 207h47v-504h-47l-78 203h-426v-594h424q155 0 265.5 94.5t190.5 294.5l389 951h121zM1452 616h477l-241 584z" />
    <glyph glyph-name="E_Agrave.liga" unicode="E&#xc0;" horiz-adv-x="2508" 
d="M1921 1587l-33 -49l-524 148v8l166 213h4zM2357 98l142 -53v-45h-547v45l192 53l-176 424h-555l-33 -82q-92 -228 -222.5 -334t-319.5 -106h-787v45l168 59v1225l-168 60v45h1141v-383h-47l-152 288h-579v-557h424l80 207h47v-504h-47l-78 203h-426v-594h424
q155 0 265.5 94.5t190.5 294.5l389 951h121zM1452 616h477l-241 584z" />
    <glyph glyph-name="E_Amacron.liga" unicode="E&#x100;" horiz-adv-x="2508" 
d="M2009 1784v-148h-547v148h547zM2357 98l142 -53v-45h-547v45l192 53l-176 424h-555l-33 -82q-92 -228 -222.5 -334t-319.5 -106h-787v45l168 59v1225l-168 60v45h1141v-383h-47l-152 288h-579v-557h424l80 207h47v-504h-47l-78 203h-426v-594h424q155 0 265.5 94.5
t190.5 294.5l389 951h121zM1452 616h477l-241 584z" />
    <glyph glyph-name="E_Aogonek.liga" unicode="E&#x104;" horiz-adv-x="2508" 
d="M2357 98l142 -53v-45h-193q-92 -153 -92 -270q0 -72 50.5 -106t115.5 -15v-53q-53 -32 -115 -40t-114.5 7.5t-87.5 59t-35 106.5q0 76 56 151t150 160h-282v45l192 53l-176 424h-555l-33 -82q-92 -228 -222.5 -334t-319.5 -106h-787v45l168 59v1225l-168 60v45h1141v-383
h-47l-152 288h-579v-557h424l80 207h47v-504h-47l-78 203h-426v-594h424q155 0 265.5 94.5t190.5 294.5l389 951h121zM1452 616h477l-241 584z" />
    <glyph glyph-name="E_Aring.liga" unicode="E&#xc5;" horiz-adv-x="2508" 
d="M1735 1501q-99 0 -166.5 55.5t-67.5 147.5q0 90 60.5 158.5t171.5 68.5q100 0 167.5 -55t67.5 -147q0 -91 -60.5 -159.5t-172.5 -68.5zM1634 1798q-22 -29 -22 -74q0 -59 37 -89.5t98 -30.5q44 0 86 28q25 29 25 76q0 59 -36.5 90t-97.5 31q-48 0 -90 -31zM2357 98
l142 -53v-45h-547v45l192 53l-176 424h-555l-33 -82q-92 -228 -222.5 -334t-319.5 -106h-787v45l168 59v1225l-168 60v45h1141v-383h-47l-152 288h-579v-557h424l80 207h47v-504h-47l-78 203h-426v-594h424q155 0 265.5 94.5t190.5 294.5l389 951h121zM1452 616h477
l-241 584z" />
    <glyph glyph-name="E_Atilde.liga" unicode="E&#xc3;" horiz-adv-x="2508" 
d="M1575 1692q-27 0 -48 -8.5t-37.5 -29.5t-25 -35t-24.5 -46l-58 20q28 133 89 207t149 74q38 0 73.5 -13.5t61.5 -32t49.5 -37.5t48.5 -32.5t48 -13.5q26 0 46.5 8.5t37 29.5t25 35t24.5 46l57 -21q-28 -132 -89.5 -206t-148.5 -74q-47 0 -90.5 20t-70 44.5t-58.5 44.5
t-59 20zM2357 98l142 -53v-45h-547v45l192 53l-176 424h-555l-33 -82q-92 -228 -222.5 -334t-319.5 -106h-787v45l168 59v1225l-168 60v45h1141v-383h-47l-152 288h-579v-557h424l80 207h47v-504h-47l-78 203h-426v-594h424q155 0 265.5 94.5t190.5 294.5l389 951h121z
M1452 616h477l-241 584z" />
    <glyph glyph-name="Eacute_A.liga" unicode="&#xc9;A" horiz-adv-x="2508" 
d="M1069 1712l-553 -174l-41 43l395 326h4l195 -185v-10zM2357 98l142 -53v-45h-547v45l192 53l-176 424h-555l-33 -82q-92 -228 -222.5 -334t-319.5 -106h-787v45l168 59v1225l-168 60v45h1141v-383h-47l-152 288h-579v-557h424l80 207h47v-504h-47l-78 203h-426v-594h424
q155 0 265.5 94.5t190.5 294.5l389 951h121zM1452 616h477l-241 584z" />
    <glyph glyph-name="Ebreve_A.liga" unicode="&#x114;A" horiz-adv-x="2508" 
d="M678 1548q-48 0 -96 16t-95.5 51t-77.5 102t-30 157l65 2q25 -66 87 -110t147 -44t146.5 44t88.5 110l66 -2q0 -73 -20.5 -131t-52 -93.5t-73 -59.5t-80 -33t-75.5 -9zM2357 98l142 -53v-45h-547v45l192 53l-176 424h-555l-33 -82q-92 -228 -222.5 -334t-319.5 -106h-787
v45l168 59v1225l-168 60v45h1141v-383h-47l-152 288h-579v-557h424l80 207h47v-504h-47l-78 203h-426v-594h424q155 0 265.5 94.5t190.5 294.5l389 951h121zM1452 616h477l-241 584z" />
    <glyph glyph-name="Ecaron_A.liga" unicode="&#x11a;A" horiz-adv-x="2508" 
d="M569 1559l-247 309l43 39l321 -178l309 178l43 -37l-250 -311h-219zM2357 98l142 -53v-45h-547v45l192 53l-176 424h-555l-33 -82q-92 -228 -222.5 -334t-319.5 -106h-787v45l168 59v1225l-168 60v45h1141v-383h-47l-152 288h-579v-557h424l80 207h47v-504h-47l-78 203
h-426v-594h424q155 0 265.5 94.5t190.5 294.5l389 951h121zM1452 616h477l-241 584z" />
    <glyph glyph-name="Ecircumflex_A.liga" unicode="&#xca;A" horiz-adv-x="2508" 
d="M668 1716l-310 -178l-43 37l250 311h219l248 -309l-43 -39zM2357 98l142 -53v-45h-547v45l192 53l-176 424h-555l-33 -82q-92 -228 -222.5 -334t-319.5 -106h-787v45l168 59v1225l-168 60v45h1141v-383h-47l-152 288h-579v-557h424l80 207h47v-504h-47l-78 203h-426v-594
h424q155 0 265.5 94.5t190.5 294.5l389 951h121zM1452 616h477l-241 584z" />
    <glyph glyph-name="Edieresis_A.liga" unicode="&#xcb;A" horiz-adv-x="2508" 
d="M483 1612q-53 0 -90 37t-37 90t37 90t90 37t90 -37t37 -90t-37 -90t-90 -37zM874 1612q-52 0 -89 37t-37 90t37 90t89 37t89.5 -37t37.5 -90t-37.5 -90t-89.5 -37zM2357 98l142 -53v-45h-547v45l192 53l-176 424h-555l-33 -82q-92 -228 -222.5 -334t-319.5 -106h-787v45
l168 59v1225l-168 60v45h1141v-383h-47l-152 288h-579v-557h424l80 207h47v-504h-47l-78 203h-426v-594h424q155 0 265.5 94.5t190.5 294.5l389 951h121zM1452 616h477l-241 584z" />
    <glyph glyph-name="Edotaccent_A.liga" unicode="&#x116;A" horiz-adv-x="2508" 
d="M680 1608q-54 0 -92.5 38.5t-38.5 92.5t38.5 92.5t92.5 38.5t92.5 -38.5t38.5 -92.5t-38.5 -92.5t-92.5 -38.5zM2357 98l142 -53v-45h-547v45l192 53l-176 424h-555l-33 -82q-92 -228 -222.5 -334t-319.5 -106h-787v45l168 59v1225l-168 60v45h1141v-383h-47l-152 288
h-579v-557h424l80 207h47v-504h-47l-78 203h-426v-594h424q155 0 265.5 94.5t190.5 294.5l389 951h121zM1452 616h477l-241 584z" />
    <glyph glyph-name="Egrave_A.liga" unicode="&#xc8;A" horiz-adv-x="2508" 
d="M864 1587l-33 -49l-524 148v8l166 213h4zM2357 98l142 -53v-45h-547v45l192 53l-176 424h-555l-33 -82q-92 -228 -222.5 -334t-319.5 -106h-787v45l168 59v1225l-168 60v45h1141v-383h-47l-152 288h-579v-557h424l80 207h47v-504h-47l-78 203h-426v-594h424
q155 0 265.5 94.5t190.5 294.5l389 951h121zM1452 616h477l-241 584z" />
    <glyph glyph-name="Emacron_A.liga" unicode="&#x112;A" horiz-adv-x="2508" 
d="M952 1784v-148h-546v148h546zM2357 98l142 -53v-45h-547v45l192 53l-176 424h-555l-33 -82q-92 -228 -222.5 -334t-319.5 -106h-787v45l168 59v1225l-168 60v45h1141v-383h-47l-152 288h-579v-557h424l80 207h47v-504h-47l-78 203h-426v-594h424q155 0 265.5 94.5
t190.5 294.5l389 951h121zM1452 616h477l-241 584z" />
    <glyph glyph-name="F_E.liga" unicode="FE" horiz-adv-x="2340" 
d="M2232 395h47l-57 -395h-1157v45l168 59v1235h-819v-557h444l80 207h47v-504h-47l-78 203h-446v-584l168 -59v-45h-531v45l168 59v1225l-168 60v45h2155v-383h-47l-152 288h-580v-557h424l80 207h47v-504h-47l-78 203h-426v-594h607z" />
    <glyph glyph-name="F_Eacute.liga" unicode="F&#xc9;" horiz-adv-x="2340" 
d="M2083 1712l-553 -174l-41 43l395 326h4l195 -185v-10zM2232 395h47l-57 -395h-1157v45l168 59v1235h-819v-557h444l80 207h47v-504h-47l-78 203h-446v-584l168 -59v-45h-531v45l168 59v1225l-168 60v45h2155v-383h-47l-152 288h-580v-557h424l80 207h47v-504h-47l-78 203
h-426v-594h607z" />
    <glyph glyph-name="F_Ebreve.liga" unicode="F&#x114;" horiz-adv-x="2340" 
d="M1692 1548q-48 0 -96 16t-95.5 51t-77.5 102t-30 157l65 2q25 -66 87 -110t147 -44t146.5 44t88.5 110l66 -2q0 -73 -20.5 -131t-52 -93.5t-73 -59.5t-80 -33t-75.5 -9zM2232 395h47l-57 -395h-1157v45l168 59v1235h-819v-557h444l80 207h47v-504h-47l-78 203h-446v-584
l168 -59v-45h-531v45l168 59v1225l-168 60v45h2155v-383h-47l-152 288h-580v-557h424l80 207h47v-504h-47l-78 203h-426v-594h607z" />
    <glyph glyph-name="F_Ecaron.liga" unicode="F&#x11a;" horiz-adv-x="2340" 
d="M1583 1559l-248 309l43 39l322 -178l309 178l43 -37l-250 -311h-219zM2232 395h47l-57 -395h-1157v45l168 59v1235h-819v-557h444l80 207h47v-504h-47l-78 203h-446v-584l168 -59v-45h-531v45l168 59v1225l-168 60v45h2155v-383h-47l-152 288h-580v-557h424l80 207h47
v-504h-47l-78 203h-426v-594h607z" />
    <glyph glyph-name="F_Ecircumflex.liga" unicode="F&#xca;" horiz-adv-x="2340" 
d="M1681 1716l-309 -178l-43 37l250 311h219l248 -309l-43 -39zM2232 395h47l-57 -395h-1157v45l168 59v1235h-819v-557h444l80 207h47v-504h-47l-78 203h-446v-584l168 -59v-45h-531v45l168 59v1225l-168 60v45h2155v-383h-47l-152 288h-580v-557h424l80 207h47v-504h-47
l-78 203h-426v-594h607z" />
    <glyph glyph-name="F_Edieresis.liga" unicode="F&#xcb;" horiz-adv-x="2340" 
d="M1497 1612q-53 0 -90 37t-37 90t37 90t90 37t90 -37t37 -90t-37 -90t-90 -37zM1888 1612q-52 0 -89.5 37t-37.5 90t37.5 90t89.5 37t89.5 -37t37.5 -90t-37.5 -90t-89.5 -37zM2232 395h47l-57 -395h-1157v45l168 59v1235h-819v-557h444l80 207h47v-504h-47l-78 203h-446
v-584l168 -59v-45h-531v45l168 59v1225l-168 60v45h2155v-383h-47l-152 288h-580v-557h424l80 207h47v-504h-47l-78 203h-426v-594h607z" />
    <glyph glyph-name="F_Edotaccent.liga" unicode="F&#x116;" horiz-adv-x="2340" 
d="M1694 1608q-54 0 -92.5 38.5t-38.5 92.5t38.5 92.5t92.5 38.5t92.5 -38.5t38.5 -92.5t-38.5 -92.5t-92.5 -38.5zM2232 395h47l-57 -395h-1157v45l168 59v1235h-819v-557h444l80 207h47v-504h-47l-78 203h-446v-584l168 -59v-45h-531v45l168 59v1225l-168 60v45h2155v-383
h-47l-152 288h-580v-557h424l80 207h47v-504h-47l-78 203h-426v-594h607z" />
    <glyph glyph-name="F_Egrave.liga" unicode="F&#xc8;" horiz-adv-x="2340" 
d="M1878 1587l-33 -49l-524 148v8l166 213h4zM2232 395h47l-57 -395h-1157v45l168 59v1235h-819v-557h444l80 207h47v-504h-47l-78 203h-446v-584l168 -59v-45h-531v45l168 59v1225l-168 60v45h2155v-383h-47l-152 288h-580v-557h424l80 207h47v-504h-47l-78 203h-426v-594
h607z" />
    <glyph glyph-name="F_Emacron.liga" unicode="F&#x112;" horiz-adv-x="2340" 
d="M1966 1784v-148h-547v148h547zM2232 395h47l-57 -395h-1157v45l168 59v1235h-819v-557h444l80 207h47v-504h-47l-78 203h-446v-584l168 -59v-45h-531v45l168 59v1225l-168 60v45h2155v-383h-47l-152 288h-580v-557h424l80 207h47v-504h-47l-78 203h-426v-594h607z" />
    <glyph glyph-name="F_Eogonek.liga" unicode="F&#x118;" horiz-adv-x="2340" 
d="M2130 -270q0 -72 50.5 -106t115.5 -15v-53q-53 -32 -115 -40t-114.5 7.5t-87.5 59t-35 106.5q0 76 56 151t150 160h-1085v45l168 59v1235h-819v-557h444l80 207h47v-504h-47l-78 203h-446v-584l168 -59v-45h-531v45l168 59v1225l-168 60v45h2155v-383h-47l-152 288h-580
v-557h424l80 207h47v-504h-47l-78 203h-426v-594h607l198 301h47l-57 -395q-92 -153 -92 -270z" />
    <glyph glyph-name="F_F.liga" unicode="FF" horiz-adv-x="2236" 
d="M2206 1434v-383h-47l-152 288h-580v-557h445l80 207h47v-504h-47l-78 203h-447v-584l168 -59v-45h-530v45l168 59v1235h-819v-557h444l80 207h47v-504h-47l-78 203h-446v-584l168 -59v-45h-531v45l168 59v1225l-168 60v45h2155z" />
    <glyph glyph-name="F_T.liga" unicode="FT" horiz-adv-x="2091" 
d="M1827 1339h-318v-1235l168 -59v-45h-530v45l168 59v1235h-901v-557h444l80 207h47v-504h-47l-78 203h-446v-584l168 -59v-45h-531v45l168 59v1225l-168 60v45h1968l62 -400h-47z" />
    <glyph glyph-name="F_Tbar.liga" unicode="F&#x166;" horiz-adv-x="2091" 
d="M1827 1339h-318v-553h258v-94h-258v-588l168 -59v-45h-530v45l168 59v588h-258v94h258v553h-901v-557h444l80 207h47v-504h-47l-78 203h-446v-584l168 -59v-45h-531v45l168 59v1225l-168 60v45h1968l62 -400h-47z" />
    <glyph glyph-name="F_Tcaron.liga" unicode="F&#x164;" horiz-adv-x="2091" 
d="M1300 1559l-247 309l43 39l321 -178l309 178l43 -37l-249 -311h-220zM1827 1339h-318v-1235l168 -59v-45h-530v45l168 59v1235h-901v-557h444l80 207h47v-504h-47l-78 203h-446v-584l168 -59v-45h-531v45l168 59v1225l-168 60v45h1968l62 -400h-47z" />
    <glyph glyph-name="uni00460162.liga" unicode="F&#x162;" horiz-adv-x="2091" 
d="M1827 1339h-318v-1235l168 -59v-45h-213l-67 -104h2q96 -23 146 -73t50 -118t-54.5 -119t-137 -66t-178.5 5v55q89 -3 134.5 21.5t45.5 85.5q0 81 -84 98l-72 14l-2 4l127 197h-227v45l168 59v1235h-901v-557h444l80 207h47v-504h-47l-78 203h-446v-584l168 -59v-45h-531
v45l168 59v1225l-168 60v45h1968l62 -400h-47z" />
    <glyph glyph-name="uni0046021A.liga" unicode="F&#x21a;" horiz-adv-x="2091" 
d="M1827 1339h-318v-1235l168 -59v-45h-530v45l168 59v1235h-901v-557h444l80 207h47v-504h-47l-78 203h-446v-584l168 -59v-45h-531v45l168 59v1225l-168 60v45h1968l62 -400h-47zM1462 -84q67 -66 77.5 -149.5t-40 -158t-149.5 -112.5l-37 33q47 53 41 152t-62 161v2z" />
    <glyph glyph-name="H_E.liga" unicode="HE" horiz-adv-x="2246" 
d="M2138 395h47l-57 -395h-1157v45l168 59v584h-725v-584l168 -59v-45h-531v45l168 59v1225l-168 60v45h531v-45l-168 -60v-547h725v547l-168 60v45h1140v-383h-47l-151 288h-580v-557h424l80 207h47v-504h-47l-78 203h-426v-594h606z" />
    <glyph glyph-name="H_Eacute.liga" unicode="H&#xc9;" horiz-adv-x="2246" 
d="M1989 1712l-553 -174l-41 43l395 326h4l195 -185v-10zM2138 395h47l-57 -395h-1157v45l168 59v584h-725v-584l168 -59v-45h-531v45l168 59v1225l-168 60v45h531v-45l-168 -60v-547h725v547l-168 60v45h1140v-383h-47l-151 288h-580v-557h424l80 207h47v-504h-47l-78 203
h-426v-594h606z" />
    <glyph glyph-name="H_Ebreve.liga" unicode="H&#x114;" horiz-adv-x="2246" 
d="M1597 1548q-48 0 -96 16t-95.5 51t-77.5 102t-30 157l66 2q25 -66 86.5 -110t146.5 -44t147 44t89 110l65 -2q0 -73 -20.5 -131t-52 -93.5t-73 -59.5t-80 -33t-75.5 -9zM2138 395h47l-57 -395h-1157v45l168 59v584h-725v-584l168 -59v-45h-531v45l168 59v1225l-168 60v45
h531v-45l-168 -60v-547h725v547l-168 60v45h1140v-383h-47l-151 288h-580v-557h424l80 207h47v-504h-47l-78 203h-426v-594h606z" />
    <glyph glyph-name="H_Ecaron.liga" unicode="H&#x11a;" horiz-adv-x="2246" 
d="M1489 1559l-248 309l43 39l322 -178l309 178l43 -37l-250 -311h-219zM2138 395h47l-57 -395h-1157v45l168 59v584h-725v-584l168 -59v-45h-531v45l168 59v1225l-168 60v45h531v-45l-168 -60v-547h725v547l-168 60v45h1140v-383h-47l-151 288h-580v-557h424l80 207h47
v-504h-47l-78 203h-426v-594h606z" />
    <glyph glyph-name="H_Ecircumflex.liga" unicode="H&#xca;" horiz-adv-x="2246" 
d="M1587 1716l-309 -178l-43 37l250 311h219l248 -309l-43 -39zM2138 395h47l-57 -395h-1157v45l168 59v584h-725v-584l168 -59v-45h-531v45l168 59v1225l-168 60v45h531v-45l-168 -60v-547h725v547l-168 60v45h1140v-383h-47l-151 288h-580v-557h424l80 207h47v-504h-47
l-78 203h-426v-594h606z" />
    <glyph glyph-name="H_Edieresis.liga" unicode="H&#xcb;" horiz-adv-x="2246" 
d="M1403 1612q-53 0 -90 37t-37 90t37 90t90 37t90 -37t37 -90t-37 -90t-90 -37zM1794 1612q-52 0 -89.5 37t-37.5 90t37.5 90t89.5 37t89.5 -37t37.5 -90t-37.5 -90t-89.5 -37zM2138 395h47l-57 -395h-1157v45l168 59v584h-725v-584l168 -59v-45h-531v45l168 59v1225
l-168 60v45h531v-45l-168 -60v-547h725v547l-168 60v45h1140v-383h-47l-151 288h-580v-557h424l80 207h47v-504h-47l-78 203h-426v-594h606z" />
    <glyph glyph-name="H_Edotaccent.liga" unicode="H&#x116;" horiz-adv-x="2246" 
d="M1599 1608q-54 0 -92.5 38.5t-38.5 92.5t38.5 92.5t92.5 38.5t93 -38.5t39 -92.5t-39 -92.5t-93 -38.5zM2138 395h47l-57 -395h-1157v45l168 59v584h-725v-584l168 -59v-45h-531v45l168 59v1225l-168 60v45h531v-45l-168 -60v-547h725v547l-168 60v45h1140v-383h-47
l-151 288h-580v-557h424l80 207h47v-504h-47l-78 203h-426v-594h606z" />
    <glyph glyph-name="H_Egrave.liga" unicode="H&#xc8;" horiz-adv-x="2246" 
d="M1784 1587l-33 -49l-524 148v8l166 213h4zM2138 395h47l-57 -395h-1157v45l168 59v584h-725v-584l168 -59v-45h-531v45l168 59v1225l-168 60v45h531v-45l-168 -60v-547h725v547l-168 60v45h1140v-383h-47l-151 288h-580v-557h424l80 207h47v-504h-47l-78 203h-426v-594
h606z" />
    <glyph glyph-name="H_Emacron.liga" unicode="H&#x112;" horiz-adv-x="2246" 
d="M1872 1784v-148h-547v148h547zM2138 395h47l-57 -395h-1157v45l168 59v584h-725v-584l168 -59v-45h-531v45l168 59v1225l-168 60v45h531v-45l-168 -60v-547h725v547l-168 60v45h1140v-383h-47l-151 288h-580v-557h424l80 207h47v-504h-47l-78 203h-426v-594h606z" />
    <glyph glyph-name="H_Eogonek.liga" unicode="H&#x118;" horiz-adv-x="2246" 
d="M2036 -270q0 -72 50.5 -106t115.5 -15v-53q-53 -32 -115.5 -40t-115 7.5t-87.5 59t-35 106.5q0 76 56 150.5t151 160.5h-1085v45l168 59v584h-725v-584l168 -59v-45h-531v45l168 59v1225l-168 60v45h531v-45l-168 -60v-547h725v547l-168 60v45h1140v-383h-47l-151 288
h-580v-557h424l80 207h47v-504h-47l-78 203h-426v-594h606l199 301h47l-57 -395q-92 -153 -92 -270z" />
    <glyph glyph-name="H_H.liga" unicode="HH" horiz-adv-x="2471" 
d="M2421 1389l-168 -60v-1225l168 -59v-45h-531v45l168 59v584h-725v-584l168 -59v-45h-530v45l168 59v584h-725v-584l168 -59v-45h-531v45l168 59v1225l-168 60v45h531v-45l-168 -60v-547h725v547l-168 60v45h530v-45l-168 -60v-547h725v547l-168 60v45h531v-45z" />
    <glyph glyph-name="H_L.liga" unicode="HL" horiz-adv-x="2138" 
d="M2050 395h47l-57 -395h-1069v45l168 59v584h-725v-584l168 -59v-45h-531v45l168 59v1225l-168 60v45h531v-45l-168 -60v-547h725v547l-168 60v45h530v-45l-168 -60v-1235h514z" />
    <glyph glyph-name="H_Lacute.liga" unicode="H&#x139;" horiz-adv-x="2138" 
d="M1624 1712l-553 -174l-41 43l395 326h5l194 -185v-10zM2050 395h47l-57 -395h-1069v45l168 59v584h-725v-584l168 -59v-45h-531v45l168 59v1225l-168 60v45h531v-45l-168 -60v-547h725v547l-168 60v45h530v-45l-168 -60v-1235h514z" />
    <glyph glyph-name="H_Lcaron.liga" unicode="H&#x13d;" horiz-adv-x="2138" 
d="M1597 1008q32 50 44.5 97t-2.5 120t-68 157v4l166 72q65 -82 79 -166.5t-31 -165.5t-149 -143zM2050 395h47l-57 -395h-1069v45l168 59v584h-725v-584l168 -59v-45h-531v45l168 59v1225l-168 60v45h531v-45l-168 -60v-547h725v547l-168 60v45h530v-45l-168 -60v-1235h514
z" />
    <glyph glyph-name="H_Lcommaaccent.liga" unicode="H&#x13b;" horiz-adv-x="2138" 
d="M2050 395h47l-57 -395h-1069v45l168 59v584h-725v-584l168 -59v-45h-531v45l168 59v1225l-168 60v45h531v-45l-168 -60v-547h725v547l-168 60v45h530v-45l-168 -60v-1235h514zM1552 -84q67 -66 77.5 -149.5t-40 -158t-149.5 -112.5l-37 33q47 53 41 152t-62 161v2z" />
    <glyph glyph-name="H_Ldot.liga" unicode="H&#x13f;" horiz-adv-x="2138" 
d="M2050 395h47l-57 -395h-1069v45l168 59v584h-725v-584l168 -59v-45h-531v45l168 59v1225l-168 60v45h531v-45l-168 -60v-547h725v547l-168 60v45h530v-45l-168 -60v-1235h514zM1847 608q-55 0 -94.5 39t-38.5 92q2 54 40.5 92.5t92.5 38.5t92.5 -38.5t38.5 -92.5
t-38.5 -92.5t-92.5 -38.5z" />
    <glyph glyph-name="H_R.liga" unicode="HR" horiz-adv-x="2279" 
d="M2120 96l149 -51v-45h-323l-463 668h-150v-564l168 -59v-45h-530v45l168 59v584h-725v-584l168 -59v-45h-531v45l168 59v1225l-168 60v45h531v-45l-168 -60v-547h725v547l-168 60v45h594q243 8 382.5 -82.5t139.5 -259.5q0 -134 -102 -248t-281 -154zM1333 1339v-577h107
q223 6 328.5 90t105.5 209q0 111 -97 194.5t-257 83.5h-187z" />
    <glyph glyph-name="H_Racute.liga" unicode="H&#x154;" horiz-adv-x="2279" 
d="M1935 1712l-553 -174l-41 43l396 326h4l194 -185v-10zM2120 96l149 -51v-45h-323l-463 668h-150v-564l168 -59v-45h-530v45l168 59v584h-725v-584l168 -59v-45h-531v45l168 59v1225l-168 60v45h531v-45l-168 -60v-547h725v547l-168 60v45h594q243 8 382.5 -82.5
t139.5 -259.5q0 -134 -102 -248t-281 -154zM1333 1339v-577h107q223 6 328.5 90t105.5 209q0 111 -97 194.5t-257 83.5h-187z" />
    <glyph glyph-name="H_Rcaron.liga" unicode="H&#x158;" horiz-adv-x="2279" 
d="M1436 1559l-248 309l43 39l321 -178l310 178l43 -37l-250 -311h-219zM2120 96l149 -51v-45h-323l-463 668h-150v-564l168 -59v-45h-530v45l168 59v584h-725v-584l168 -59v-45h-531v45l168 59v1225l-168 60v45h531v-45l-168 -60v-547h725v547l-168 60v45h594
q243 8 382.5 -82.5t139.5 -259.5q0 -134 -102 -248t-281 -154zM1333 1339v-577h107q223 6 328.5 90t105.5 209q0 111 -97 194.5t-257 83.5h-187z" />
    <glyph glyph-name="H_Rcommaaccent.liga" unicode="H&#x156;" horiz-adv-x="2279" 
d="M2120 96l149 -51v-45h-323l-463 668h-150v-564l168 -59v-45h-530v45l168 59v584h-725v-584l168 -59v-45h-531v45l168 59v1225l-168 60v45h531v-45l-168 -60v-547h725v547l-168 60v45h594q243 8 382.5 -82.5t139.5 -259.5q0 -134 -102 -248t-281 -154zM1333 1339v-577h107
q223 6 328.5 90t105.5 209q0 111 -97 194.5t-257 83.5h-187zM1677 -84q67 -66 77.5 -149.5t-40 -158t-149.5 -112.5l-37 33q47 53 41 152t-62 161v2z" />
    <glyph glyph-name="H_U.liga" unicode="HU" horiz-adv-x="2426" 
d="M2376 1434v-45l-146 -72v-846q0 -122 -44 -218.5t-120 -156t-173 -90.5t-207 -31q-79 0 -154 15.5t-147.5 52.5t-126 92.5t-86.5 143t-33 196.5v213h-725v-584l168 -59v-45h-531v45l168 59v1225l-168 60v45h531v-45l-168 -60v-547h725v547l-168 60v45h530v-45l-168 -60
v-813q0 -89 25.5 -159.5t67 -115.5t99 -74.5t117 -41.5t125.5 -12q155 0 261 101t106 280v821l-195 74v45h437z" />
    <glyph glyph-name="H_U_M.liga" unicode="HUM" horiz-adv-x="3788" 
d="M3738 1389l-168 -60v-1225l168 -59v-45h-531v45l168 59v1229l-539 -1333h-47l-559 1309v-838q0 -122 -44 -218.5t-120 -156t-173 -90.5t-207 -31q-79 0 -154 15.5t-147.5 52.5t-126 92.5t-86.5 143t-33 196.5v213h-725v-584l168 -59v-45h-531v45l168 59v1225l-168 60v45
h531v-45l-168 -60v-547h725v547l-168 60v45h530v-45l-168 -60v-813q0 -89 25.5 -159.5t67 -115.5t99 -74.5t117 -41.5t125.5 -12q155 0 261 101t106 280v821l-195 74v45h449l477 -1108l449 1108h424v-45z" />
    <glyph glyph-name="H_Uacute.liga" unicode="H&#xda;" horiz-adv-x="2426" 
d="M2118 1712l-553 -174l-41 43l395 326h4l195 -185v-10zM2376 1434v-45l-146 -72v-846q0 -122 -44 -218.5t-120 -156t-173 -90.5t-207 -31q-79 0 -154 15.5t-147.5 52.5t-126 92.5t-86.5 143t-33 196.5v213h-725v-584l168 -59v-45h-531v45l168 59v1225l-168 60v45h531v-45
l-168 -60v-547h725v547l-168 60v45h530v-45l-168 -60v-813q0 -89 25.5 -159.5t67 -115.5t99 -74.5t117 -41.5t125.5 -12q155 0 261 101t106 280v821l-195 74v45h437z" />
    <glyph glyph-name="H_Ubreve.liga" unicode="H&#x16c;" horiz-adv-x="2426" 
d="M1726 1548q-48 0 -96 16t-95.5 51t-77.5 102t-30 157l66 2q25 -66 86.5 -110t146.5 -44t147 44t89 110l66 -2q0 -73 -20.5 -131t-52.5 -93.5t-73.5 -59.5t-80 -33t-75.5 -9zM2376 1434v-45l-146 -72v-846q0 -122 -44 -218.5t-120 -156t-173 -90.5t-207 -31
q-79 0 -154 15.5t-147.5 52.5t-126 92.5t-86.5 143t-33 196.5v213h-725v-584l168 -59v-45h-531v45l168 59v1225l-168 60v45h531v-45l-168 -60v-547h725v547l-168 60v45h530v-45l-168 -60v-813q0 -89 25.5 -159.5t67 -115.5t99 -74.5t117 -41.5t125.5 -12q155 0 261 101
t106 280v821l-195 74v45h437z" />
    <glyph glyph-name="H_Ucircumflex.liga" unicode="H&#xdb;" horiz-adv-x="2426" 
d="M1716 1716l-309 -178l-43 37l250 311h219l248 -309l-43 -39zM2376 1434v-45l-146 -72v-846q0 -122 -44 -218.5t-120 -156t-173 -90.5t-207 -31q-79 0 -154 15.5t-147.5 52.5t-126 92.5t-86.5 143t-33 196.5v213h-725v-584l168 -59v-45h-531v45l168 59v1225l-168 60v45
h531v-45l-168 -60v-547h725v547l-168 60v45h530v-45l-168 -60v-813q0 -89 25.5 -159.5t67 -115.5t99 -74.5t117 -41.5t125.5 -12q155 0 261 101t106 280v821l-195 74v45h437z" />
    <glyph glyph-name="H_Udieresis.liga" unicode="H&#xdc;" horiz-adv-x="2426" 
d="M1532 1612q-52 0 -89.5 37t-37.5 90t37.5 90t89.5 37t89.5 -37t37.5 -90t-37.5 -90t-89.5 -37zM1923 1612q-53 0 -90 37t-37 90t37 90t90 37t90 -37t37 -90t-37 -90t-90 -37zM2376 1434v-45l-146 -72v-846q0 -122 -44 -218.5t-120 -156t-173 -90.5t-207 -31
q-79 0 -154 15.5t-147.5 52.5t-126 92.5t-86.5 143t-33 196.5v213h-725v-584l168 -59v-45h-531v45l168 59v1225l-168 60v45h531v-45l-168 -60v-547h725v547l-168 60v45h530v-45l-168 -60v-813q0 -89 25.5 -159.5t67 -115.5t99 -74.5t117 -41.5t125.5 -12q155 0 261 101
t106 280v821l-195 74v45h437z" />
    <glyph glyph-name="H_Ugrave.liga" unicode="H&#xd9;" horiz-adv-x="2426" 
d="M1913 1587l-33 -49l-524 148v8l166 213h4zM2376 1434v-45l-146 -72v-846q0 -122 -44 -218.5t-120 -156t-173 -90.5t-207 -31q-79 0 -154 15.5t-147.5 52.5t-126 92.5t-86.5 143t-33 196.5v213h-725v-584l168 -59v-45h-531v45l168 59v1225l-168 60v45h531v-45l-168 -60
v-547h725v547l-168 60v45h530v-45l-168 -60v-813q0 -89 25.5 -159.5t67 -115.5t99 -74.5t117 -41.5t125.5 -12q155 0 261 101t106 280v821l-195 74v45h437z" />
    <glyph glyph-name="H_Uhungarumlaut.liga" unicode="H&#x170;" horiz-adv-x="2426" 
d="M1872 1821l-438 -283l-50 29l201 336h4l283 -70v-12zM1802 1540l-51 35l301 328h4l256 -103v-10zM2376 1434v-45l-146 -72v-846q0 -122 -44 -218.5t-120 -156t-173 -90.5t-207 -31q-79 0 -154 15.5t-147.5 52.5t-126 92.5t-86.5 143t-33 196.5v213h-725v-584l168 -59v-45
h-531v45l168 59v1225l-168 60v45h531v-45l-168 -60v-547h725v547l-168 60v45h530v-45l-168 -60v-813q0 -89 25.5 -159.5t67 -115.5t99 -74.5t117 -41.5t125.5 -12q155 0 261 101t106 280v821l-195 74v45h437z" />
    <glyph glyph-name="H_Umacron.liga" unicode="H&#x16a;" horiz-adv-x="2426" 
d="M2001 1784v-148h-547v148h547zM2376 1434v-45l-146 -72v-846q0 -122 -44 -218.5t-120 -156t-173 -90.5t-207 -31q-79 0 -154 15.5t-147.5 52.5t-126 92.5t-86.5 143t-33 196.5v213h-725v-584l168 -59v-45h-531v45l168 59v1225l-168 60v45h531v-45l-168 -60v-547h725v547
l-168 60v45h530v-45l-168 -60v-813q0 -89 25.5 -159.5t67 -115.5t99 -74.5t117 -41.5t125.5 -12q155 0 261 101t106 280v821l-195 74v45h437z" />
    <glyph glyph-name="H_Uogonek.liga" unicode="H&#x172;" horiz-adv-x="2426" 
d="M2376 1434v-45l-146 -72v-846q0 -110 -36.5 -199.5t-100.5 -149t-146.5 -95.5t-179.5 -47q-79 -138 -79 -250q0 -72 50 -106t115 -15v-53q-53 -32 -115 -40t-114.5 7.5t-87.5 59t-35 106.5q0 69 52 138t141 148h-8q-79 0 -154 15.5t-147.5 52.5t-126 92.5t-86.5 143
t-33 196.5v213h-725v-584l168 -59v-45h-531v45l168 59v1225l-168 60v45h531v-45l-168 -60v-547h725v547l-168 60v45h530v-45l-168 -60v-813q0 -89 25.5 -159.5t67 -115.5t99 -74.5t117 -41.5t125.5 -12q155 0 261 101t106 280v821l-195 74v45h437z" />
    <glyph glyph-name="H_Uring.liga" unicode="H&#x16e;" horiz-adv-x="2426" 
d="M1726 1501q-99 0 -166 55.5t-67 147.5q0 91 60 159t171 68q100 0 168 -55t68 -147q0 -91 -61 -159.5t-173 -68.5zM1626 1798q-22 -29 -22 -74q0 -59 37 -89.5t98 -30.5q44 0 86 28q24 27 24 76q0 60 -36 90.5t-97 30.5q-48 0 -90 -31zM2376 1434v-45l-146 -72v-846
q0 -122 -44 -218.5t-120 -156t-173 -90.5t-207 -31q-79 0 -154 15.5t-147.5 52.5t-126 92.5t-86.5 143t-33 196.5v213h-725v-584l168 -59v-45h-531v45l168 59v1225l-168 60v45h531v-45l-168 -60v-547h725v547l-168 60v45h530v-45l-168 -60v-813q0 -89 25.5 -159.5t67 -115.5
t99 -74.5t117 -41.5t125.5 -12q155 0 261 101t106 280v821l-195 74v45h437z" />
    <glyph glyph-name="H_Utilde.liga" unicode="H&#x168;" horiz-adv-x="2426" 
d="M1567 1692q-27 0 -48 -8.5t-37.5 -29.5t-25 -35t-24.5 -46l-58 20q28 133 89 207t149 74q47 0 90 -20t70 -44.5t59.5 -44.5t60.5 -20q26 0 46.5 8.5t37 29.5t25 35t24.5 46l58 -21q-28 -132 -89.5 -206t-148.5 -74q-47 0 -90.5 20t-70 44.5t-58.5 44.5t-59 20zM2376 1434
v-45l-146 -72v-846q0 -122 -44 -218.5t-120 -156t-173 -90.5t-207 -31q-79 0 -154 15.5t-147.5 52.5t-126 92.5t-86.5 143t-33 196.5v213h-725v-584l168 -59v-45h-531v45l168 59v1225l-168 60v45h531v-45l-168 -60v-547h725v547l-168 60v45h530v-45l-168 -60v-813
q0 -89 25.5 -159.5t67 -115.5t99 -74.5t117 -41.5t125.5 -12q155 0 261 101t106 280v821l-195 74v45h437z" />
    <glyph glyph-name="Hbar_E.liga" unicode="&#x126;E" horiz-adv-x="2246" 
d="M2138 395h47l-57 -395h-1157v45l168 59v584h-725v-584l168 -59v-45h-531v45l168 59v867h-219v94h219v264l-168 60v45h531v-45l-168 -60v-264h725v264l-168 60v45h1140v-383h-47l-151 288h-580v-274h203v-94h-203v-189h424l80 207h47v-504h-47l-78 203h-426v-594h606z
M414 782h725v189h-725v-189z" />
    <glyph glyph-name="Hbar_L.liga" unicode="&#x126;L" horiz-adv-x="2138" 
d="M2050 395h47l-57 -395h-1069v45l168 59v584h-725v-584l168 -59v-45h-531v45l168 59v867h-219v94h219v264l-168 60v45h531v-45l-168 -60v-264h725v264l-168 60v45h530v-45l-168 -60v-264h203v-94h-203v-877h514zM414 782h725v189h-725v-189z" />
    <glyph glyph-name="Hbar_R.liga" unicode="&#x126;R" horiz-adv-x="2279" 
d="M2120 96l149 -51v-45h-323l-463 668h-150v-564l168 -59v-45h-530v45l168 59v584h-725v-584l168 -59v-45h-531v45l168 59v867h-219v94h219v264l-168 60v45h531v-45l-168 -60v-264h725v264l-168 60v45h594q243 8 382.5 -82.5t139.5 -259.5q0 -134 -102 -248t-281 -154z
M1333 971v-209h107q223 6 328.5 90t105.5 209q0 111 -97 194.5t-257 83.5h-187v-274h203v-94h-203zM414 782h725v189h-725v-189z" />
    <glyph glyph-name="Hbar_U.liga" unicode="&#x126;U" horiz-adv-x="2426" 
d="M2376 1434v-45l-146 -72v-846q0 -122 -44 -218.5t-120 -156t-173 -90.5t-207 -31q-79 0 -154 15.5t-147.5 52.5t-126 92.5t-86.5 143t-33 196.5v213h-725v-584l168 -59v-45h-531v45l168 59v867h-219v94h219v264l-168 60v45h531v-45l-168 -60v-264h725v264l-168 60v45h530
v-45l-168 -60v-264h203v-94h-203v-455q0 -89 25.5 -159.5t67 -115.5t99 -74.5t117 -41.5t125.5 -12q155 0 261 101t106 280v821l-195 74v45h437zM414 782h725v189h-725v-189z" />
    <glyph glyph-name="Hcircumflex_E.liga" unicode="&#x124;E" horiz-adv-x="2246" 
d="M774 1716l-309 -178l-43 37l250 311h219l248 -309l-43 -39zM2138 395h47l-57 -395h-1157v45l168 59v584h-725v-584l168 -59v-45h-531v45l168 59v1225l-168 60v45h531v-45l-168 -60v-547h725v547l-168 60v45h1140v-383h-47l-151 288h-580v-557h424l80 207h47v-504h-47
l-78 203h-426v-594h606z" />
    <glyph glyph-name="Hcircumflex_L.liga" unicode="&#x124;L" horiz-adv-x="2138" 
d="M774 1716l-309 -178l-43 37l250 311h219l248 -309l-43 -39zM2050 395h47l-57 -395h-1069v45l168 59v584h-725v-584l168 -59v-45h-531v45l168 59v1225l-168 60v45h531v-45l-168 -60v-547h725v547l-168 60v45h530v-45l-168 -60v-1235h514z" />
    <glyph glyph-name="Hcircumflex_R.liga" unicode="&#x124;R" horiz-adv-x="2279" 
d="M774 1716l-309 -178l-43 37l250 311h219l248 -309l-43 -39zM2120 96l149 -51v-45h-323l-463 668h-150v-564l168 -59v-45h-530v45l168 59v584h-725v-584l168 -59v-45h-531v45l168 59v1225l-168 60v45h531v-45l-168 -60v-547h725v547l-168 60v45h594q243 8 382.5 -82.5
t139.5 -259.5q0 -134 -102 -248t-281 -154zM1333 1339v-577h107q223 6 328.5 90t105.5 209q0 111 -97 194.5t-257 83.5h-187z" />
    <glyph glyph-name="Hcircumflex_U.liga" unicode="&#x124;U" horiz-adv-x="2426" 
d="M774 1716l-309 -178l-43 37l250 311h219l248 -309l-43 -39zM2376 1434v-45l-146 -72v-846q0 -122 -44 -218.5t-120 -156t-173 -90.5t-207 -31q-79 0 -154 15.5t-147.5 52.5t-126 92.5t-86.5 143t-33 196.5v213h-725v-584l168 -59v-45h-531v45l168 59v1225l-168 60v45h531
v-45l-168 -60v-547h725v547l-168 60v45h530v-45l-168 -60v-813q0 -89 25.5 -159.5t67 -115.5t99 -74.5t117 -41.5t125.5 -12q155 0 261 101t106 280v821l-195 74v45h437z" />
    <glyph glyph-name="I_T.liga" unicode="IT" horiz-adv-x="1689" 
d="M1425 1339h-317v-1235l168 -59v-45h-531v45l168 59v1235h-442l-205 -305h-47l62 400h1337l61 -400h-47zM41 737v45h530v-45l-168 -59v-574l168 -59v-45h-530v45l168 59v574z" />
    <glyph glyph-name="I_T_H.liga" unicode="ITH" horiz-adv-x="2951" 
d="M1108 1339v-1235l168 -59v-45h-531v45l168 59v1235h-442l-205 -305h-47l62 400h1460l61 -400h-47l-207 305h-440zM2900 1389l-168 -60v-1225l168 -59v-45h-530v45l167 59v584h-725v-584l168 -59v-45h-530v45l168 59v678h919v547l-167 60v45h530v-45zM41 737v45h530v-45
l-168 -59v-574l168 -59v-45h-530v45l168 59v574z" />
    <glyph glyph-name="I_Tbar.liga" unicode="I&#x166;" horiz-adv-x="1689" 
d="M1425 1339h-317v-553h258v-94h-258v-588l168 -59v-45h-531v45l168 59v588h-258v94h258v553h-442l-205 -305h-47l62 400h1337l61 -400h-47zM41 737v45h530v-45l-168 -59v-574l168 -59v-45h-530v45l168 59v574z" />
    <glyph glyph-name="I_Tcaron.liga" unicode="I&#x164;" horiz-adv-x="1689" 
d="M899 1559l-248 309l43 39l322 -178l309 178l43 -37l-250 -311h-219zM1425 1339h-317v-1235l168 -59v-45h-531v45l168 59v1235h-442l-205 -305h-47l62 400h1337l61 -400h-47zM41 737v45h530v-45l-168 -59v-574l168 -59v-45h-530v45l168 59v574z" />
    <glyph glyph-name="uni00490162.liga" unicode="I&#x162;" horiz-adv-x="1689" 
d="M1425 1339h-317v-1235l168 -59v-45h-213l-68 -104h2q96 -23 146.5 -73t50.5 -118t-55 -119t-137.5 -66t-178.5 5v55q89 -3 135 21.5t46 85.5q0 81 -84 98l-72 14l-2 4l127 197h-228v45l168 59v1235h-442l-205 -305h-47l62 400h1337l61 -400h-47zM41 737v45h530v-45
l-168 -59v-574l168 -59v-45h-530v45l168 59v574z" />
    <glyph glyph-name="uni0049021A.liga" unicode="I&#x21a;" horiz-adv-x="1689" 
d="M1425 1339h-317v-1235l168 -59v-45h-531v45l168 59v1235h-442l-205 -305h-47l62 400h1337l61 -400h-47zM41 737v45h530v-45l-168 -59v-574l168 -59v-45h-530v45l168 59v574zM1061 -84q67 -66 77 -149.5t-40.5 -158t-149.5 -112.5l-37 33q47 53 41.5 152t-61.5 161v2z" />
    <glyph glyph-name="Iogonek_T.liga" unicode="&#x12e;T" horiz-adv-x="1689" 
d="M1425 1339h-317v-1235l168 -59v-45h-531v45l168 59v1235h-442l-205 -305h-47l62 400h1337l61 -400h-47zM41 737v45h530v-45l-168 -59v-574l168 -59v-45h-157q-92 -153 -92 -270q0 -72 50 -106t115 -15v-53q-53 -32 -115 -40t-114.5 7.5t-87.5 59t-35 106.5q0 76 56 150.5
t151 160.5h-301v45l168 59v574z" />
    <glyph glyph-name="K_A.liga" unicode="KA" horiz-adv-x="2697" 
d="M2546 98l141 -53v-45h-547v45l193 53l-176 424h-555l-164 -405l219 -72v-45h-567l-512 711l-164 -154v-453l168 -59v-45h-531v45l168 59v1225l-168 60v45h531v-45l-168 -60v-645l673 637l-198 68v45h508v-45l-168 -68l-506 -475l545 -762l61 29l543 1321h121zM1640 616
h478l-242 584z" />
    <glyph glyph-name="K_Aacute.liga" unicode="K&#xc1;" horiz-adv-x="2697" 
d="M2314 1712l-553 -174l-41 43l396 326h4l194 -185v-10zM2546 98l141 -53v-45h-547v45l193 53l-176 424h-555l-164 -405l219 -72v-45h-567l-512 711l-164 -154v-453l168 -59v-45h-531v45l168 59v1225l-168 60v45h531v-45l-168 -60v-645l673 637l-198 68v45h508v-45
l-168 -68l-506 -475l545 -762l61 29l543 1321h121zM1640 616h478l-242 584z" />
    <glyph glyph-name="K_Abreve.liga" unicode="K&#x102;" horiz-adv-x="2697" 
d="M1923 1548q-48 0 -96 16t-95.5 51t-77.5 102t-30 157l66 2q25 -66 86.5 -110t146.5 -44t147 44t89 110l65 -2q0 -73 -20.5 -131t-52 -93.5t-73 -59.5t-80 -33t-75.5 -9zM2546 98l141 -53v-45h-547v45l193 53l-176 424h-555l-164 -405l219 -72v-45h-567l-512 711
l-164 -154v-453l168 -59v-45h-531v45l168 59v1225l-168 60v45h531v-45l-168 -60v-645l673 637l-198 68v45h508v-45l-168 -68l-506 -475l545 -762l61 29l543 1321h121zM1640 616h478l-242 584z" />
    <glyph glyph-name="K_Acircumflex.liga" unicode="K&#xc2;" horiz-adv-x="2697" 
d="M1913 1716l-309 -178l-43 37l249 311h220l247 -309l-43 -39zM2546 98l141 -53v-45h-547v45l193 53l-176 424h-555l-164 -405l219 -72v-45h-567l-512 711l-164 -154v-453l168 -59v-45h-531v45l168 59v1225l-168 60v45h531v-45l-168 -60v-645l673 637l-198 68v45h508v-45
l-168 -68l-506 -475l545 -762l61 29l543 1321h121zM1640 616h478l-242 584z" />
    <glyph glyph-name="K_Adieresis.liga" unicode="K&#xc4;" horiz-adv-x="2697" 
d="M1729 1612q-53 0 -90 37t-37 90t37 90t90 37q52 0 89 -37t37 -90t-37 -90t-89 -37zM2120 1612q-52 0 -89.5 37t-37.5 90t37.5 90t89.5 37t89.5 -37t37.5 -90t-37.5 -90t-89.5 -37zM2546 98l141 -53v-45h-547v45l193 53l-176 424h-555l-164 -405l219 -72v-45h-567
l-512 711l-164 -154v-453l168 -59v-45h-531v45l168 59v1225l-168 60v45h531v-45l-168 -60v-645l673 637l-198 68v45h508v-45l-168 -68l-506 -475l545 -762l61 29l543 1321h121zM1640 616h478l-242 584z" />
    <glyph glyph-name="K_Agrave.liga" unicode="K&#xc0;" horiz-adv-x="2697" 
d="M2109 1587l-32 -49l-525 148v8l166 213h4zM2546 98l141 -53v-45h-547v45l193 53l-176 424h-555l-164 -405l219 -72v-45h-567l-512 711l-164 -154v-453l168 -59v-45h-531v45l168 59v1225l-168 60v45h531v-45l-168 -60v-645l673 637l-198 68v45h508v-45l-168 -68l-506 -475
l545 -762l61 29l543 1321h121zM1640 616h478l-242 584z" />
    <glyph glyph-name="K_Amacron.liga" unicode="K&#x100;" horiz-adv-x="2697" 
d="M2198 1784v-148h-547v148h547zM2546 98l141 -53v-45h-547v45l193 53l-176 424h-555l-164 -405l219 -72v-45h-567l-512 711l-164 -154v-453l168 -59v-45h-531v45l168 59v1225l-168 60v45h531v-45l-168 -60v-645l673 637l-198 68v45h508v-45l-168 -68l-506 -475l545 -762
l61 29l543 1321h121zM1640 616h478l-242 584z" />
    <glyph glyph-name="K_Aogonek.liga" unicode="K&#x104;" horiz-adv-x="2697" 
d="M2546 98l141 -53v-45h-193q-92 -153 -92 -270q0 -72 50.5 -106t115.5 -15v-53q-53 -32 -115 -40t-114.5 7.5t-87.5 59t-35 106.5q0 76 56 150.5t151 160.5h-283v45l193 53l-176 424h-555l-164 -405l219 -72v-45h-567l-512 711l-164 -154v-453l168 -59v-45h-531v45l168 59
v1225l-168 60v45h531v-45l-168 -60v-645l673 637l-198 68v45h508v-45l-168 -68l-506 -475l545 -762l61 29l543 1321h121zM1640 616h478l-242 584z" />
    <glyph glyph-name="K_Aring.liga" unicode="K&#xc5;" horiz-adv-x="2697" 
d="M1923 1501q-99 0 -166 55.5t-67 147.5q0 91 60 159t171 68q100 0 168 -55t68 -147q0 -91 -61 -159.5t-173 -68.5zM1823 1798q-23 -31 -23 -74q0 -59 37 -89.5t98 -30.5q44 0 86 28q25 29 25 76q0 60 -36 90.5t-97 30.5q-48 0 -90 -31zM2546 98l141 -53v-45h-547v45
l193 53l-176 424h-555l-164 -405l219 -72v-45h-567l-512 711l-164 -154v-453l168 -59v-45h-531v45l168 59v1225l-168 60v45h531v-45l-168 -60v-645l673 637l-198 68v45h508v-45l-168 -68l-506 -475l545 -762l61 29l543 1321h121zM1640 616h478l-242 584z" />
    <glyph glyph-name="K_Atilde.liga" unicode="K&#xc3;" horiz-adv-x="2697" 
d="M1763 1692q-27 0 -48 -8.5t-37.5 -29.5t-25 -35t-24.5 -46l-57 20q28 133 88.5 207t148.5 74q38 0 73.5 -13.5t61.5 -32t49.5 -37.5t48.5 -32.5t48 -13.5q26 0 46.5 8.5t37 29.5t25 35t24.5 46l57 -21q-28 -132 -89 -206t-148 -74q-47 0 -90.5 20t-70.5 44.5t-59 44.5
t-59 20zM2546 98l141 -53v-45h-547v45l193 53l-176 424h-555l-164 -405l219 -72v-45h-567l-512 711l-164 -154v-453l168 -59v-45h-531v45l168 59v1225l-168 60v45h531v-45l-168 -60v-645l673 637l-198 68v45h508v-45l-168 -68l-506 -475l545 -762l61 29l543 1321h121z
M1640 616h478l-242 584z" />
    <glyph glyph-name="K_I.liga" unicode="KI" horiz-adv-x="1902" 
d="M1831 1389l-168 -60v-610l168 -60v-45h-531v45l168 60v610l-116 41l-123 -49l-506 -475l225 -316q115 -162 209 -256.5t191.5 -137t195 -18.5t207.5 113l41 -34q-62 -88 -144 -143t-179 -70.5t-197 10t-205 104.5t-197 207l-292 406l-164 -154v-453l168 -59v-45h-531v45
l168 59v1225l-168 60v45h531v-45l-168 -60v-645l673 637l-198 68v45h942v-45z" />
    <glyph glyph-name="K_Iacute.liga" unicode="K&#xcd;" horiz-adv-x="1902" 
d="M1759 1907l195 -185v-10l-553 -174l-41 43l395 326h4zM1831 1434v-45l-168 -60v-610l168 -60v-45h-531v45l168 60v610l-116 41l-123 -49l-506 -475l225 -316q115 -162 209 -256.5t191.5 -137t195 -18.5t207.5 113l41 -34q-62 -88 -144 -143t-179 -70.5t-197 10
t-205 104.5t-197 207l-292 406l-164 -154v-453l168 -59v-45h-531v45l168 59v1225l-168 60v45h531v-45l-168 -60v-645l673 637l-198 68v45h942z" />
    <glyph glyph-name="K_Ibreve.liga" unicode="K&#x12c;" horiz-adv-x="1902" 
d="M1563 1548q-48 0 -96 16t-95.5 51t-77.5 102t-30 157l65 2q25 -66 87 -110t147 -44t146.5 44t88.5 110l66 -2q0 -73 -20.5 -131t-52 -93.5t-73 -59.5t-80 -33t-75.5 -9zM1831 1434v-45l-168 -60v-610l168 -60v-45h-531v45l168 60v610l-116 41l-123 -49l-506 -475
l225 -316q115 -162 209 -256.5t191.5 -137t195 -18.5t207.5 113l41 -34q-62 -88 -144 -143t-179 -70.5t-197 10t-205 104.5t-197 207l-292 406l-164 -154v-453l168 -59v-45h-531v45l168 59v1225l-168 60v45h531v-45l-168 -60v-645l673 637l-198 68v45h942z" />
    <glyph glyph-name="K_Icircumflex.liga" unicode="K&#xce;" horiz-adv-x="1902" 
d="M1669 1886l248 -309l-43 -39l-322 178l-309 -178l-43 37l250 311h219zM1831 1434v-45l-168 -60v-610l168 -60v-45h-531v45l168 60v610l-116 41l-123 -49l-506 -475l225 -316q115 -162 209 -256.5t191.5 -137t195 -18.5t207.5 113l41 -34q-62 -88 -144 -143t-179 -70.5
t-197 10t-205 104.5t-197 207l-292 406l-164 -154v-453l168 -59v-45h-531v45l168 59v1225l-168 60v45h531v-45l-168 -60v-645l673 637l-198 68v45h942z" />
    <glyph glyph-name="K_Idieresis.liga" unicode="K&#xcf;" horiz-adv-x="1902" 
d="M1368 1612q-52 0 -89.5 37t-37.5 90t37.5 90t89.5 37t89.5 -37t37.5 -90t-37.5 -90t-89.5 -37zM1759 1866q53 0 90 -37t37 -90t-37 -90t-90 -37t-90 37t-37 90t37 90t90 37zM1831 1434v-45l-168 -60v-610l168 -60v-45h-531v45l168 60v610l-116 41l-123 -49l-506 -475
l225 -316q115 -162 209 -256.5t191.5 -137t195 -18.5t207.5 113l41 -34q-62 -88 -144 -143t-179 -70.5t-197 10t-205 104.5t-197 207l-292 406l-164 -154v-453l168 -59v-45h-531v45l168 59v1225l-168 60v45h531v-45l-168 -60v-645l673 637l-198 68v45h942z" />
    <glyph glyph-name="K_Idotaccent.liga" unicode="K&#x130;" horiz-adv-x="1902" 
d="M1565 1608q-54 0 -92.5 38.5t-38.5 92.5t38.5 92.5t92.5 38.5t92.5 -38.5t38.5 -92.5t-38.5 -92.5t-92.5 -38.5zM1831 1389l-168 -60v-610l168 -60v-45h-531v45l168 60v610l-116 41l-123 -49l-506 -475l225 -316q115 -162 209 -256.5t191.5 -137t195 -18.5t207.5 113
l41 -34q-62 -88 -144 -143t-179 -70.5t-197 10t-205 104.5t-197 207l-292 406l-164 -154v-453l168 -59v-45h-531v45l168 59v1225l-168 60v45h531v-45l-168 -60v-645l673 637l-198 68v45h942v-45z" />
    <glyph glyph-name="K_Igrave.liga" unicode="K&#xcc;" horiz-adv-x="1902" 
d="M1749 1587l-33 -49l-524 148v8l166 213h4zM1831 1389l-168 -60v-610l168 -60v-45h-531v45l168 60v610l-116 41l-123 -49l-506 -475l225 -316q115 -162 209 -256.5t191.5 -137t195 -18.5t207.5 113l41 -34q-62 -88 -144 -143t-179 -70.5t-197 10t-205 104.5t-197 207
l-292 406l-164 -154v-453l168 -59v-45h-531v45l168 59v1225l-168 60v45h531v-45l-168 -60v-645l673 637l-198 68v45h942v-45z" />
    <glyph glyph-name="K_Imacron.liga" unicode="K&#x12a;" horiz-adv-x="1902" 
d="M1290 1784h547v-148h-547v148zM1831 1434v-45l-168 -60v-610l168 -60v-45h-531v45l168 60v610l-116 41l-123 -49l-506 -475l225 -316q115 -162 209 -256.5t191.5 -137t195 -18.5t207.5 113l41 -34q-62 -88 -144 -143t-179 -70.5t-197 10t-205 104.5t-197 207l-292 406
l-164 -154v-453l168 -59v-45h-531v45l168 59v1225l-168 60v45h531v-45l-168 -60v-645l673 637l-198 68v45h942z" />
    <glyph glyph-name="K_Itilde.liga" unicode="K&#x128;" horiz-adv-x="1902" 
d="M1403 1692q-27 0 -48 -8.5t-37.5 -29.5t-25 -35t-24.5 -46l-58 20q28 133 89 207t149 74q38 0 73.5 -13.5t61.5 -32t49.5 -37.5t48.5 -32.5t48 -13.5q26 0 46.5 8.5t37 29.5t25 35t24.5 46l57 -21q-28 -132 -89.5 -206t-148.5 -74q-47 0 -90.5 20t-70 44.5t-58.5 44.5
t-59 20zM1831 1434v-45l-168 -60v-610l168 -60v-45h-531v45l168 60v610l-116 41l-123 -49l-506 -475l225 -316q115 -162 209 -256.5t191.5 -137t195 -18.5t207.5 113l41 -34q-62 -88 -144 -143t-179 -70.5t-197 10t-205 104.5t-197 207l-292 406l-164 -154v-453l168 -59v-45
h-531v45l168 59v1225l-168 60v45h531v-45l-168 -60v-645l673 637l-198 68v45h942z" />
    <glyph glyph-name="K_T.liga" unicode="KT" horiz-adv-x="2494" 
d="M2230 1339h-317v-1235l168 -59v-45h-531v45l168 59v1235h-442l-47 -18l-506 -475l534 -750l170 -51v-45h-337l-512 711l-164 -154v-453l168 -59v-45h-531v45l168 59v1225l-168 60v45h531v-45l-168 -60v-645l673 637l-198 68v45h1534l61 -400h-47z" />
    <glyph glyph-name="K_Tbar.liga" unicode="K&#x166;" horiz-adv-x="2494" 
d="M2230 1339h-317v-553h258v-94h-258v-588l168 -59v-45h-531v45l168 59v588h-258v94h258v553h-442l-47 -18l-506 -475l534 -750l170 -51v-45h-337l-512 711l-164 -154v-453l168 -59v-45h-531v45l168 59v1225l-168 60v45h531v-45l-168 -60v-645l673 637l-198 68v45h1534
l61 -400h-47z" />
    <glyph glyph-name="K_Tcaron.liga" unicode="K&#x164;" horiz-adv-x="2494" 
d="M1704 1559l-248 309l43 39l322 -178l309 178l43 -37l-250 -311h-219zM2230 1339h-317v-1235l168 -59v-45h-531v45l168 59v1235h-442l-47 -18l-506 -475l534 -750l170 -51v-45h-337l-512 711l-164 -154v-453l168 -59v-45h-531v45l168 59v1225l-168 60v45h531v-45l-168 -60
v-645l673 637l-198 68v45h1534l61 -400h-47z" />
    <glyph glyph-name="uni004B0162.liga" unicode="K&#x162;" horiz-adv-x="2494" 
d="M2230 1339h-317v-1235l168 -59v-45h-213l-68 -104h2q96 -23 146.5 -73t50.5 -118t-55 -119t-137.5 -66t-178.5 5v55q89 -3 134.5 21.5t45.5 85.5q0 81 -84 98l-71 14l-2 4l127 197h-228v45l168 59v1235h-442l-47 -18l-506 -475l534 -750l170 -51v-45h-337l-512 711
l-164 -154v-453l168 -59v-45h-531v45l168 59v1225l-168 60v45h531v-45l-168 -60v-645l673 637l-198 68v45h1534l61 -400h-47z" />
    <glyph glyph-name="uni004B021A.liga" unicode="K&#x21a;" horiz-adv-x="2494" 
d="M2230 1339h-317v-1235l168 -59v-45h-531v45l168 59v1235h-442l-47 -18l-506 -475l534 -750l170 -51v-45h-337l-512 711l-164 -154v-453l168 -59v-45h-531v45l168 59v1225l-168 60v45h531v-45l-168 -60v-645l673 637l-198 68v45h1534l61 -400h-47zM1866 -84
q67 -66 77 -149.5t-40.5 -158t-149.5 -112.5l-37 33q47 53 41.5 152t-61.5 161v2z" />
    <glyph glyph-name="K_V.liga" unicode="KV" horiz-adv-x="2744" 
d="M2744 1434v-45l-151 -72l-531 -1317h-120l-543 1335l-70 27l-100 -41l-506 -475l534 -750l170 -51v-45h-337l-512 711l-164 -154v-453l168 -59v-45h-531v45l168 59v1225l-168 60v45h531v-45l-168 -60v-645l673 637l-198 68v45h956v-45l-233 -56l446 -1097l428 1077
l-260 76v45h518z" />
    <glyph glyph-name="K_V_A.liga" unicode="KVA" horiz-adv-x="3366" 
d="M3215 98l142 -53v-45h-547v45l192 53l-176 424h-553l-211 -522h-120l-543 1335l-70 27l-100 -41l-506 -475l534 -750l170 -51v-45h-337l-512 711l-164 -154v-453l168 -59v-45h-531v45l168 59v1225l-168 60v45h531v-45l-168 -60v-645l673 637l-198 68v45h956v-45l-233 -56
l446 -1097l475 1198h129zM2310 616h477l-241 584z" />
    <glyph glyph-name="K_W.liga" unicode="KW" horiz-adv-x="3399" 
d="M3389 1434v-45l-139 -66l-420 -1323h-120l-379 1042l-361 -1042h-121l-448 1337l-68 27l-104 -43l-506 -475l534 -750l170 -51v-45h-337l-512 711l-164 -154v-453l168 -59v-45h-531v45l168 59v1225l-168 60v45h531v-45l-168 -60v-645l673 637l-198 68v45h926v-45
l-205 -58l354 -1057l315 910l-57 153l-135 52v45h547v-45l-203 -58l387 -1050l328 1028l-234 80v45h477z" />
    <glyph glyph-name="K_Wacute.liga" unicode="K&#x1e82;" horiz-adv-x="3399" 
d="M2742 1712l-553 -174l-41 43l396 326h4l194 -185v-10zM3389 1434v-45l-139 -66l-420 -1323h-120l-379 1042l-361 -1042h-121l-448 1337l-68 27l-104 -43l-506 -475l534 -750l170 -51v-45h-337l-512 711l-164 -154v-453l168 -59v-45h-531v45l168 59v1225l-168 60v45h531
v-45l-168 -60v-645l673 637l-198 68v45h926v-45l-205 -58l354 -1057l315 910l-57 153l-135 52v45h547v-45l-203 -58l387 -1050l328 1028l-234 80v45h477z" />
    <glyph glyph-name="K_Wcircumflex.liga" unicode="K&#x174;" horiz-adv-x="3399" 
d="M2341 1716l-309 -178l-43 37l249 311h220l247 -309l-43 -39zM3389 1434v-45l-139 -66l-420 -1323h-120l-379 1042l-361 -1042h-121l-448 1337l-68 27l-104 -43l-506 -475l534 -750l170 -51v-45h-337l-512 711l-164 -154v-453l168 -59v-45h-531v45l168 59v1225l-168 60v45
h531v-45l-168 -60v-645l673 637l-198 68v45h926v-45l-205 -58l354 -1057l315 910l-57 153l-135 52v45h547v-45l-203 -58l387 -1050l328 1028l-234 80v45h477z" />
    <glyph glyph-name="K_Wdieresis.liga" unicode="K&#x1e84;" horiz-adv-x="3399" 
d="M2157 1612q-53 0 -90 37t-37 90t37 90t90 37t90 -37t37 -90t-37 -90t-90 -37zM2548 1612q-52 0 -89.5 37t-37.5 90t37.5 90t89.5 37t89.5 -37t37.5 -90t-37.5 -90t-89.5 -37zM3389 1434v-45l-139 -66l-420 -1323h-120l-379 1042l-361 -1042h-121l-448 1337l-68 27
l-104 -43l-506 -475l534 -750l170 -51v-45h-337l-512 711l-164 -154v-453l168 -59v-45h-531v45l168 59v1225l-168 60v45h531v-45l-168 -60v-645l673 637l-198 68v45h926v-45l-205 -58l354 -1057l315 910l-57 153l-135 52v45h547v-45l-203 -58l387 -1050l328 1028l-234 80v45
h477z" />
    <glyph glyph-name="K_Wgrave.liga" unicode="K&#x1e80;" horiz-adv-x="3399" 
d="M2537 1587l-32 -49l-525 148v8l166 213h4zM3389 1434v-45l-139 -66l-420 -1323h-120l-379 1042l-361 -1042h-121l-448 1337l-68 27l-104 -43l-506 -475l534 -750l170 -51v-45h-337l-512 711l-164 -154v-453l168 -59v-45h-531v45l168 59v1225l-168 60v45h531v-45l-168 -60
v-645l673 637l-198 68v45h926v-45l-205 -58l354 -1057l315 910l-57 153l-135 52v45h547v-45l-203 -58l387 -1050l328 1028l-234 80v45h477z" />
    <glyph glyph-name="K_Y.liga" unicode="KY" horiz-adv-x="2660" 
d="M2519 1317l-451 -701v-512l168 -59v-45h-530v45l168 59v506l-483 725l-66 25l-96 -39l-506 -475l534 -750l170 -51v-45h-337l-512 711l-164 -154v-453l168 -59v-45h-531v45l168 59v1225l-168 60v45h531v-45l-168 -60v-645l673 637l-198 68v45h907v-45l-176 -50l408 -616
l376 594l-211 72v45h478v-45z" />
    <glyph glyph-name="K_Yacute.liga" unicode="K&#xdd;" horiz-adv-x="2660" 
d="M2390 1712l-553 -174l-41 43l395 326h4l195 -185v-10zM2519 1317l-451 -701v-512l168 -59v-45h-530v45l168 59v506l-483 725l-66 25l-96 -39l-506 -475l534 -750l170 -51v-45h-337l-512 711l-164 -154v-453l168 -59v-45h-531v45l168 59v1225l-168 60v45h531v-45l-168 -60
v-645l673 637l-198 68v45h907v-45l-176 -50l408 -616l376 594l-211 72v45h478v-45z" />
    <glyph glyph-name="K_Ycircumflex.liga" unicode="K&#x176;" horiz-adv-x="2660" 
d="M1989 1716l-310 -178l-43 37l250 311h219l248 -309l-43 -39zM2519 1317l-451 -701v-512l168 -59v-45h-530v45l168 59v506l-483 725l-66 25l-96 -39l-506 -475l534 -750l170 -51v-45h-337l-512 711l-164 -154v-453l168 -59v-45h-531v45l168 59v1225l-168 60v45h531v-45
l-168 -60v-645l673 637l-198 68v45h907v-45l-176 -50l408 -616l376 594l-211 72v45h478v-45z" />
    <glyph glyph-name="K_Ydieresis.liga" unicode="K&#x178;" horiz-adv-x="2660" 
d="M1804 1612q-52 0 -89.5 37t-37.5 90t37.5 90t89.5 37t89.5 -37t37.5 -90t-37.5 -90t-89.5 -37zM2195 1612q-53 0 -90 37t-37 90t37 90t90 37t90 -37t37 -90t-37 -90t-90 -37zM2519 1317l-451 -701v-512l168 -59v-45h-530v45l168 59v506l-483 725l-66 25l-96 -39
l-506 -475l534 -750l170 -51v-45h-337l-512 711l-164 -154v-453l168 -59v-45h-531v45l168 59v1225l-168 60v45h531v-45l-168 -60v-645l673 637l-198 68v45h907v-45l-176 -50l408 -616l376 594l-211 72v45h478v-45z" />
    <glyph glyph-name="K_Ygrave.liga" unicode="K&#x1ef2;" horiz-adv-x="2660" 
d="M2185 1587l-33 -49l-524 148v8l166 213h4zM2519 1317l-451 -701v-512l168 -59v-45h-530v45l168 59v506l-483 725l-66 25l-96 -39l-506 -475l534 -750l170 -51v-45h-337l-512 711l-164 -154v-453l168 -59v-45h-531v45l168 59v1225l-168 60v45h531v-45l-168 -60v-645
l673 637l-198 68v45h907v-45l-176 -50l408 -616l376 594l-211 72v45h478v-45z" />
    <glyph glyph-name="Kcommaaccent_A.liga" unicode="&#x136;A" horiz-adv-x="2697" 
d="M2546 98l141 -53v-45h-547v45l193 53l-176 424h-555l-164 -405l219 -72v-45h-567l-512 711l-164 -154v-453l168 -59v-45h-531v45l168 59v1225l-168 60v45h531v-45l-168 -60v-645l673 637l-198 68v45h508v-45l-168 -68l-506 -475l545 -762l61 29l543 1321h121zM1640 616
h478l-242 584zM803 -84q67 -66 77 -149.5t-40.5 -158t-149.5 -112.5l-37 33q47 53 41.5 152t-61.5 161v2z" />
    <glyph glyph-name="Kcommaaccent_I.liga" unicode="&#x136;I" horiz-adv-x="1902" 
d="M1831 1389l-168 -60v-610l168 -60v-45h-531v45l168 60v610l-116 41l-123 -49l-506 -475l225 -316q115 -162 209 -256.5t191.5 -137t195 -18.5t207.5 113l41 -34q-62 -88 -144 -143t-179 -70.5t-197 10t-205 104.5t-197 207l-292 406l-164 -154v-453l168 -59v-45h-531v45
l168 59v1225l-168 60v45h531v-45l-168 -60v-645l673 637l-198 68v45h942v-45zM803 -84q67 -66 77 -149.5t-40.5 -158t-149.5 -112.5l-37 33q47 53 41.5 152t-61.5 161v2z" />
    <glyph glyph-name="Kcommaaccent_T.liga" unicode="&#x136;T" horiz-adv-x="2494" 
d="M2230 1339h-317v-1235l168 -59v-45h-531v45l168 59v1235h-442l-47 -18l-506 -475l534 -750l170 -51v-45h-337l-512 711l-164 -154v-453l168 -59v-45h-531v45l168 59v1225l-168 60v45h531v-45l-168 -60v-645l673 637l-198 68v45h1534l61 -400h-47zM803 -84
q67 -66 77 -149.5t-40.5 -158t-149.5 -112.5l-37 33q47 53 41.5 152t-61.5 161v2z" />
    <glyph glyph-name="Kcommaaccent_V.liga" unicode="&#x136;V" horiz-adv-x="2744" 
d="M2744 1434v-45l-151 -72l-531 -1317h-120l-543 1335l-70 27l-100 -41l-506 -475l534 -750l170 -51v-45h-337l-512 711l-164 -154v-453l168 -59v-45h-531v45l168 59v1225l-168 60v45h531v-45l-168 -60v-645l673 637l-198 68v45h956v-45l-233 -56l446 -1097l428 1077
l-260 76v45h518zM803 -84q67 -66 77 -149.5t-40.5 -158t-149.5 -112.5l-37 33q47 53 41.5 152t-61.5 161v2z" />
    <glyph glyph-name="Kcommaaccent_W.liga" unicode="&#x136;W" horiz-adv-x="3399" 
d="M3389 1434v-45l-139 -66l-420 -1323h-120l-379 1042l-361 -1042h-121l-448 1337l-68 27l-104 -43l-506 -475l534 -750l170 -51v-45h-337l-512 711l-164 -154v-453l168 -59v-45h-531v45l168 59v1225l-168 60v45h531v-45l-168 -60v-645l673 637l-198 68v45h926v-45
l-205 -58l354 -1057l315 910l-57 153l-135 52v45h547v-45l-203 -58l387 -1050l328 1028l-234 80v45h477zM803 -84q67 -66 77 -149.5t-40.5 -158t-149.5 -112.5l-37 33q47 53 41.5 152t-61.5 161v2z" />
    <glyph glyph-name="Kcommaaccent_Y.liga" unicode="&#x136;Y" horiz-adv-x="2660" 
d="M2519 1317l-451 -701v-512l168 -59v-45h-530v45l168 59v506l-483 725l-66 25l-96 -39l-506 -475l534 -750l170 -51v-45h-337l-512 711l-164 -154v-453l168 -59v-45h-531v45l168 59v1225l-168 60v45h531v-45l-168 -60v-645l673 637l-198 68v45h907v-45l-176 -50l408 -616
l376 594l-211 72v45h478v-45zM803 -84q67 -66 77 -149.5t-40.5 -158t-149.5 -112.5l-37 33q47 53 41.5 152t-61.5 161v2z" />
    <glyph glyph-name="L_A.liga" unicode="LA" horiz-adv-x="2009" 
d="M1858 98l141 -53v-45h-547v45l193 53l-177 424h-555l-172 -428h187l202 301h48l-58 -395h-1069v45l168 59v1225l-168 60v45h531v-45l-168 -60v-1235h221l549 1340h121zM952 616h478l-242 584z" />
    <glyph glyph-name="L_Aacute.liga" unicode="L&#xc1;" horiz-adv-x="2009" 
d="M1626 1712l-553 -174l-41 43l395 326h5l194 -185v-10zM1858 98l141 -53v-45h-547v45l193 53l-177 424h-555l-172 -428h187l202 301h48l-58 -395h-1069v45l168 59v1225l-168 60v45h531v-45l-168 -60v-1235h221l549 1340h121zM952 616h478l-242 584z" />
    <glyph glyph-name="L_Abreve.liga" unicode="L&#x102;" horiz-adv-x="2009" 
d="M1235 1548q-48 0 -96 16t-95.5 51t-77.5 102t-30 157l65 2q25 -66 87 -110t147 -44t146.5 44t88.5 110l66 -2q0 -73 -20.5 -131t-52 -93.5t-73 -59.5t-80 -33t-75.5 -9zM1858 98l141 -53v-45h-547v45l193 53l-177 424h-555l-172 -428h187l202 301h48l-58 -395h-1069v45
l168 59v1225l-168 60v45h531v-45l-168 -60v-1235h221l549 1340h121zM952 616h478l-242 584z" />
    <glyph glyph-name="L_Acircumflex.liga" unicode="L&#xc2;" horiz-adv-x="2009" 
d="M1225 1716l-310 -178l-43 37l250 311h219l248 -309l-43 -39zM1858 98l141 -53v-45h-547v45l193 53l-177 424h-555l-172 -428h187l202 301h48l-58 -395h-1069v45l168 59v1225l-168 60v45h531v-45l-168 -60v-1235h221l549 1340h121zM952 616h478l-242 584z" />
    <glyph glyph-name="L_Adieresis.liga" unicode="L&#xc4;" horiz-adv-x="2009" 
d="M1040 1612q-52 0 -89.5 37t-37.5 90t37.5 90t89.5 37t89.5 -37t37.5 -90t-37.5 -90t-89.5 -37zM1432 1612q-52 0 -89.5 37t-37.5 90t37.5 90t89.5 37t89.5 -37t37.5 -90t-37.5 -90t-89.5 -37zM1858 98l141 -53v-45h-547v45l193 53l-177 424h-555l-172 -428h187l202 301
h48l-58 -395h-1069v45l168 59v1225l-168 60v45h531v-45l-168 -60v-1235h221l549 1340h121zM952 616h478l-242 584z" />
    <glyph glyph-name="L_Agrave.liga" unicode="L&#xc0;" horiz-adv-x="2009" 
d="M1421 1587l-32 -49l-525 148v8l166 213h4zM1858 98l141 -53v-45h-547v45l193 53l-177 424h-555l-172 -428h187l202 301h48l-58 -395h-1069v45l168 59v1225l-168 60v45h531v-45l-168 -60v-1235h221l549 1340h121zM952 616h478l-242 584z" />
    <glyph glyph-name="L_Amacron.liga" unicode="L&#x100;" horiz-adv-x="2009" 
d="M1509 1784v-148h-546v148h546zM1858 98l141 -53v-45h-547v45l193 53l-177 424h-555l-172 -428h187l202 301h48l-58 -395h-1069v45l168 59v1225l-168 60v45h531v-45l-168 -60v-1235h221l549 1340h121zM952 616h478l-242 584z" />
    <glyph glyph-name="L_Aogonek.liga" unicode="L&#x104;" horiz-adv-x="2009" 
d="M1858 98l141 -53v-45h-193q-92 -153 -92 -270q0 -72 50.5 -106t115.5 -15v-53q-53 -32 -115 -40t-114.5 7.5t-87.5 59t-35 106.5q0 76 56 150.5t151 160.5h-283v45l193 53l-177 424h-555l-172 -428h187l202 301h48l-58 -395h-1069v45l168 59v1225l-168 60v45h531v-45
l-168 -60v-1235h221l549 1340h121zM952 616h478l-242 584z" />
    <glyph glyph-name="L_Aring.liga" unicode="L&#xc5;" horiz-adv-x="2009" 
d="M1235 1501q-99 0 -166.5 55.5t-67.5 147.5q0 90 60.5 158.5t171.5 68.5q100 0 167.5 -55t67.5 -147q0 -91 -60.5 -159.5t-172.5 -68.5zM1135 1798q-23 -31 -23 -74q0 -59 37 -89.5t98 -30.5q44 0 86 28q25 29 25 76q0 60 -36 90.5t-97 30.5q-48 0 -90 -31zM1858 98
l141 -53v-45h-547v45l193 53l-177 424h-555l-172 -428h187l202 301h48l-58 -395h-1069v45l168 59v1225l-168 60v45h531v-45l-168 -60v-1235h221l549 1340h121zM952 616h478l-242 584z" />
    <glyph glyph-name="L_Atilde.liga" unicode="L&#xc3;" horiz-adv-x="2009" 
d="M1075 1692q-27 0 -48 -8.5t-37.5 -29.5t-25 -35t-24.5 -46l-57 20q28 133 88.5 207t148.5 74q38 0 73.5 -13.5t61.5 -32t49.5 -37.5t48.5 -32.5t48 -13.5q26 0 46.5 8.5t37 29.5t25 35t24.5 46l57 -21q-28 -132 -89 -206t-148 -74q-47 0 -90.5 20t-70.5 44.5t-59 44.5
t-59 20zM1858 98l141 -53v-45h-547v45l193 53l-177 424h-555l-172 -428h187l202 301h48l-58 -395h-1069v45l168 59v1225l-168 60v45h531v-45l-168 -60v-1235h221l549 1340h121zM952 616h478l-242 584z" />
    <glyph glyph-name="L_I.liga" unicode="LI" horiz-adv-x="1402" 
d="M928 94l202 301h48l-58 -395h-1069v45l168 59v1225l-168 60v45h531v-45l-168 -60v-1235h514zM1331 1389l-168 -60v-610l168 -60v-45h-530v45l168 60v610l-168 60v45h530v-45z" />
    <glyph glyph-name="L_Iacute.liga" unicode="L&#xcd;" horiz-adv-x="1402" 
d="M1260 1907l194 -185v-10l-553 -174l-41 43l395 326h5zM928 94l202 301h48l-58 -395h-1069v45l168 59v1225l-168 60v45h531v-45l-168 -60v-1235h514zM801 1389v45h530v-45l-168 -60v-610l168 -60v-45h-530v45l168 60v610z" />
    <glyph glyph-name="L_Ibreve.liga" unicode="L&#x12c;" horiz-adv-x="1402" 
d="M1063 1548q-48 0 -96 16t-95.5 51t-77.5 102t-30 157l65 2q25 -66 87 -110t147 -44t146.5 44t88.5 110l66 -2q0 -73 -20.5 -131t-52 -93.5t-73 -59.5t-80 -33t-75.5 -9zM928 94l202 301h48l-58 -395h-1069v45l168 59v1225l-168 60v45h531v-45l-168 -60v-1235h514z
M801 1389v45h530v-45l-168 -60v-610l168 -60v-45h-530v45l168 60v610z" />
    <glyph glyph-name="L_Icircumflex.liga" unicode="L&#xce;" horiz-adv-x="1402" 
d="M1169 1886l248 -309l-43 -39l-321 178l-310 -178l-43 37l250 311h219zM928 94l202 301h48l-58 -395h-1069v45l168 59v1225l-168 60v45h531v-45l-168 -60v-1235h514zM801 1389v45h530v-45l-168 -60v-610l168 -60v-45h-530v45l168 60v610z" />
    <glyph glyph-name="L_Idieresis.liga" unicode="L&#xcf;" horiz-adv-x="1402" 
d="M868 1612q-52 0 -89.5 37t-37.5 90t37.5 90t89.5 37t89.5 -37t37.5 -90t-37.5 -90t-89.5 -37zM1260 1866q52 0 89 -37t37 -90t-37 -90t-89 -37t-89.5 37t-37.5 90t37.5 90t89.5 37zM928 94l202 301h48l-58 -395h-1069v45l168 59v1225l-168 60v45h531v-45l-168 -60v-1235
h514zM801 1389v45h530v-45l-168 -60v-610l168 -60v-45h-530v45l168 60v610z" />
    <glyph glyph-name="L_Idotaccent.liga" unicode="L&#x130;" horiz-adv-x="1402" 
d="M1065 1608q-54 0 -92.5 38.5t-38.5 92.5t38.5 92.5t92.5 38.5t92.5 -38.5t38.5 -92.5t-38.5 -92.5t-92.5 -38.5zM928 94l202 301h48l-58 -395h-1069v45l168 59v1225l-168 60v45h531v-45l-168 -60v-1235h514zM1331 1389l-168 -60v-610l168 -60v-45h-530v45l168 60v610
l-168 60v45h530v-45z" />
    <glyph glyph-name="L_Igrave.liga" unicode="L&#xcc;" horiz-adv-x="1402" 
d="M1249 1587l-32 -49l-525 148v8l166 213h4zM928 94l202 301h48l-58 -395h-1069v45l168 59v1225l-168 60v45h531v-45l-168 -60v-1235h514zM1331 1389l-168 -60v-610l168 -60v-45h-530v45l168 60v610l-168 60v45h530v-45z" />
    <glyph glyph-name="L_Imacron.liga" unicode="L&#x12a;" horiz-adv-x="1402" 
d="M791 1784h546v-148h-546v148zM928 94l202 301h48l-58 -395h-1069v45l168 59v1225l-168 60v45h531v-45l-168 -60v-1235h514zM801 1389v45h530v-45l-168 -60v-610l168 -60v-45h-530v45l168 60v610z" />
    <glyph glyph-name="L_Itilde.liga" unicode="L&#x128;" horiz-adv-x="1402" 
d="M903 1692q-27 0 -48 -8.5t-37.5 -29.5t-25 -35t-24.5 -46l-57 20q28 133 88.5 207t148.5 74q38 0 73.5 -13.5t61.5 -32t49.5 -37.5t48.5 -32.5t48 -13.5q26 0 46.5 8.5t37 29.5t25 35t24.5 46l57 -21q-28 -132 -89 -206t-148 -74q-47 0 -90.5 20t-70.5 44.5t-59 44.5
t-59 20zM928 94l202 301h48l-58 -395h-1069v45l168 59v1225l-168 60v45h531v-45l-168 -60v-1235h514zM801 1389v45h530v-45l-168 -60v-610l168 -60v-45h-530v45l168 60v610z" />
    <glyph glyph-name="L_L.liga" unicode="LL" horiz-adv-x="1865" 
d="M928 94l202 301h48l-58 -395h-1069v45l168 59v1225l-168 60v45h531v-45l-168 -60v-1235h514zM1798 1010h47l-57 -396h-987v45l168 60v610l-168 60v45h530v-45l-168 -60v-620h432z" />
    <glyph glyph-name="L_T.liga" unicode="LT" horiz-adv-x="1787" 
d="M928 94l202 301h48l-58 -395h-1069v45l168 59v1225l-168 60v45h531v-45l-168 -60v-1235h514zM1524 1339h-174v-620l168 -60v-45h-531v45l168 60v620h-176l-205 -305h-47l61 400h928l62 -400h-47z" />
    <glyph glyph-name="L_Tbar.liga" unicode="L&#x166;" horiz-adv-x="1787" 
d="M928 94l202 301h48l-58 -395h-1069v45l168 59v1225l-168 60v45h531v-45l-168 -60v-1235h514zM1524 1339h-174v-307h237v-94h-237v-219l168 -60v-45h-531v45l168 60v219h-237v94h237v307h-176l-205 -305h-47l61 400h928l62 -400h-47z" />
    <glyph glyph-name="L_Tcaron.liga" unicode="L&#x164;" horiz-adv-x="1787" 
d="M1141 1559l-248 309l43 39l321 -178l310 178l43 -37l-250 -311h-219zM928 94l202 301h48l-58 -395h-1069v45l168 59v1225l-168 60v45h531v-45l-168 -60v-1235h514zM1524 1339h-174v-620l168 -60v-45h-531v45l168 60v620h-176l-205 -305h-47l61 400h928l62 -400h-47z" />
    <glyph glyph-name="Lacute_A.liga" unicode="&#x139;A" horiz-adv-x="2009" 
d="M705 1712l-553 -174l-41 43l395 326h4l195 -185v-10zM1858 98l141 -53v-45h-547v45l193 53l-177 424h-555l-172 -428h187l202 301h48l-58 -395h-1069v45l168 59v1225l-168 60v45h531v-45l-168 -60v-1235h221l549 1340h121zM952 616h478l-242 584z" />
    <glyph glyph-name="Lacute_I.liga" unicode="&#x139;I" horiz-adv-x="1402" 
d="M705 1712l-553 -174l-41 43l395 326h4l195 -185v-10zM928 94l202 301h48l-58 -395h-1069v45l168 59v1225l-168 60v45h531v-45l-168 -60v-1235h514zM1331 1389l-168 -60v-610l168 -60v-45h-530v45l168 60v610l-168 60v45h530v-45z" />
    <glyph glyph-name="Lacute_T.liga" unicode="&#x139;T" horiz-adv-x="1787" 
d="M705 1712l-553 -174l-41 43l395 326h4l195 -185v-10zM928 94l202 301h48l-58 -395h-1069v45l168 59v1225l-168 60v45h531v-45l-168 -60v-1235h514zM1524 1339h-174v-620l168 -60v-45h-531v45l168 60v620h-176l-205 -305h-47l61 400h928l62 -400h-47z" />
    <glyph glyph-name="Lcaron_A.liga" unicode="&#x13d;A" horiz-adv-x="2009" 
d="M678 1008q50 76 50 163.5t-77 210.5v4l166 72q65 -82 79 -166.5t-30.5 -165.5t-148.5 -143zM1858 98l141 -53v-45h-547v45l193 53l-177 424h-555l-172 -428h187l202 301h48l-58 -395h-1069v45l168 59v1225l-168 60v45h531v-45l-168 -60v-1235h221l549 1340h121zM952 616
h478l-242 584z" />
    <glyph glyph-name="Lcommaaccent_A.liga" unicode="&#x13b;A" horiz-adv-x="2009" 
d="M1858 98l141 -53v-45h-547v45l193 53l-177 424h-555l-172 -428h187l202 301h48l-58 -395h-1069v45l168 59v1225l-168 60v45h531v-45l-168 -60v-1235h221l549 1340h121zM952 616h478l-242 584zM633 -84q67 -66 77 -149.5t-40.5 -158t-149.5 -112.5l-37 33q47 53 41.5 152
t-61.5 161v2z" />
    <glyph glyph-name="Lcommaaccent_I.liga" unicode="&#x13b;I" horiz-adv-x="1402" 
d="M928 94l202 301h48l-58 -395h-1069v45l168 59v1225l-168 60v45h531v-45l-168 -60v-1235h514zM1331 1389l-168 -60v-610l168 -60v-45h-530v45l168 60v610l-168 60v45h530v-45zM633 -84q67 -66 77 -149.5t-40.5 -158t-149.5 -112.5l-37 33q47 53 41.5 152t-61.5 161v2z" />
    <glyph glyph-name="Lcommaaccent_T.liga" unicode="&#x13b;T" horiz-adv-x="1787" 
d="M928 94l202 301h48l-58 -395h-1069v45l168 59v1225l-168 60v45h531v-45l-168 -60v-1235h514zM1524 1339h-174v-620l168 -60v-45h-531v45l168 60v620h-176l-205 -305h-47l61 400h928l62 -400h-47zM633 -84q67 -66 77 -149.5t-40.5 -158t-149.5 -112.5l-37 33
q47 53 41.5 152t-61.5 161v2z" />
    <glyph glyph-name="Lslash_A.liga" unicode="&#x141;A" horiz-adv-x="2009" 
d="M1858 98l141 -53v-45h-547v45l193 53l-177 424h-555l-172 -428h187l202 301h48l-58 -395h-1069v45l168 59v551l-180 -73l-35 86l215 88v573l-168 60v45h531v-45l-168 -60v-493l329 135l35 -88l-364 -148v-641h221l549 1340h121zM952 616h478l-242 584z" />
    <glyph glyph-name="Lslash_I.liga" unicode="&#x141;I" horiz-adv-x="1402" 
d="M928 94l202 301h48l-58 -395h-1069v45l168 59v551l-180 -73l-35 86l215 88v573l-168 60v45h531v-45l-168 -60v-493l329 135l35 -88l-364 -148v-641h514zM1331 1389l-168 -60v-610l168 -60v-45h-530v45l168 60v610l-168 60v45h530v-45z" />
    <glyph glyph-name="Lslash_T.liga" unicode="&#x141;T" horiz-adv-x="1787" 
d="M928 94l202 301h48l-58 -395h-1069v45l168 59v551l-180 -73l-35 86l215 88v573l-168 60v45h531v-45l-168 -60v-493l329 135l35 -88l-364 -148v-641h514zM1524 1339h-174v-620l168 -60v-45h-531v45l168 60v620h-176l-205 -305h-47l61 400h928l62 -400h-47z" />
    <glyph glyph-name="M_E.liga" unicode="ME" horiz-adv-x="2566" 
d="M2458 395h47l-58 -395h-1157v45l168 59v1229l-538 -1333h-48l-557 1305v-1186l217 -74v-45h-481v45l166 70v1214l-166 60v45h420l477 -1108l449 1108h1034v-383h-47l-152 288h-579v-557h424l80 207h47v-504h-47l-78 203h-426v-594h606z" />
    <glyph glyph-name="M_Eacute.liga" unicode="M&#xc9;" horiz-adv-x="2566" 
d="M2308 1712l-553 -174l-41 43l395 326h5l194 -185v-10zM2458 395h47l-58 -395h-1157v45l168 59v1229l-538 -1333h-48l-557 1305v-1186l217 -74v-45h-481v45l166 70v1214l-166 60v45h420l477 -1108l449 1108h1034v-383h-47l-152 288h-579v-557h424l80 207h47v-504h-47
l-78 203h-426v-594h606z" />
    <glyph glyph-name="M_Ebreve.liga" unicode="M&#x114;" horiz-adv-x="2566" 
d="M1917 1548q-48 0 -96 16t-95.5 51t-77.5 102t-30 157l65 2q25 -66 87 -110t147 -44t146.5 44t88.5 110l66 -2q0 -73 -20.5 -131t-52 -93.5t-73 -59.5t-80 -33t-75.5 -9zM2458 395h47l-58 -395h-1157v45l168 59v1229l-538 -1333h-48l-557 1305v-1186l217 -74v-45h-481v45
l166 70v1214l-166 60v45h420l477 -1108l449 1108h1034v-383h-47l-152 288h-579v-557h424l80 207h47v-504h-47l-78 203h-426v-594h606z" />
    <glyph glyph-name="M_Ecaron.liga" unicode="M&#x11a;" horiz-adv-x="2566" 
d="M1808 1559l-247 309l43 39l321 -178l309 178l43 -37l-249 -311h-220zM2458 395h47l-58 -395h-1157v45l168 59v1229l-538 -1333h-48l-557 1305v-1186l217 -74v-45h-481v45l166 70v1214l-166 60v45h420l477 -1108l449 1108h1034v-383h-47l-152 288h-579v-557h424l80 207h47
v-504h-47l-78 203h-426v-594h606z" />
    <glyph glyph-name="M_Ecircumflex.liga" unicode="M&#xca;" horiz-adv-x="2566" 
d="M1907 1716l-310 -178l-43 37l250 311h219l248 -309l-43 -39zM2458 395h47l-58 -395h-1157v45l168 59v1229l-538 -1333h-48l-557 1305v-1186l217 -74v-45h-481v45l166 70v1214l-166 60v45h420l477 -1108l449 1108h1034v-383h-47l-152 288h-579v-557h424l80 207h47v-504
h-47l-78 203h-426v-594h606z" />
    <glyph glyph-name="M_Edieresis.liga" unicode="M&#xcb;" horiz-adv-x="2566" 
d="M1722 1612q-52 0 -89.5 37t-37.5 90t37.5 90t89.5 37t89.5 -37t37.5 -90t-37.5 -90t-89.5 -37zM2114 1612q-52 0 -89.5 37t-37.5 90t37.5 90t89.5 37t89.5 -37t37.5 -90t-37.5 -90t-89.5 -37zM2458 395h47l-58 -395h-1157v45l168 59v1229l-538 -1333h-48l-557 1305v-1186
l217 -74v-45h-481v45l166 70v1214l-166 60v45h420l477 -1108l449 1108h1034v-383h-47l-152 288h-579v-557h424l80 207h47v-504h-47l-78 203h-426v-594h606z" />
    <glyph glyph-name="M_Edotaccent.liga" unicode="M&#x116;" horiz-adv-x="2566" 
d="M1919 1608q-54 0 -92.5 38.5t-38.5 92.5t38.5 92.5t92.5 38.5t92.5 -38.5t38.5 -92.5t-38.5 -92.5t-92.5 -38.5zM2458 395h47l-58 -395h-1157v45l168 59v1229l-538 -1333h-48l-557 1305v-1186l217 -74v-45h-481v45l166 70v1214l-166 60v45h420l477 -1108l449 1108h1034
v-383h-47l-152 288h-579v-557h424l80 207h47v-504h-47l-78 203h-426v-594h606z" />
    <glyph glyph-name="M_Egrave.liga" unicode="M&#xc8;" horiz-adv-x="2566" 
d="M2103 1587l-32 -49l-525 148v8l166 213h4zM2458 395h47l-58 -395h-1157v45l168 59v1229l-538 -1333h-48l-557 1305v-1186l217 -74v-45h-481v45l166 70v1214l-166 60v45h420l477 -1108l449 1108h1034v-383h-47l-152 288h-579v-557h424l80 207h47v-504h-47l-78 203h-426
v-594h606z" />
    <glyph glyph-name="M_Emacron.liga" unicode="M&#x112;" horiz-adv-x="2566" 
d="M2191 1784v-148h-546v148h546zM2458 395h47l-58 -395h-1157v45l168 59v1229l-538 -1333h-48l-557 1305v-1186l217 -74v-45h-481v45l166 70v1214l-166 60v45h420l477 -1108l449 1108h1034v-383h-47l-152 288h-579v-557h424l80 207h47v-504h-47l-78 203h-426v-594h606z" />
    <glyph glyph-name="M_Eogonek.liga" unicode="M&#x118;" horiz-adv-x="2566" 
d="M2355 -270q0 -72 50.5 -106t115.5 -15v-53q-53 -32 -115 -40t-114.5 7.5t-87.5 59t-35 106.5q0 76 56 150.5t151 160.5h-1086v45l168 59v1229l-538 -1333h-48l-557 1305v-1186l217 -74v-45h-481v45l166 70v1214l-166 60v45h420l477 -1108l449 1108h1034v-383h-47
l-152 288h-579v-557h424l80 207h47v-504h-47l-78 203h-426v-594h606l199 301h47l-58 -395q-92 -153 -92 -270z" />
    <glyph glyph-name="M_L.liga" unicode="ML" horiz-adv-x="2457" 
d="M2370 395h47l-58 -395h-1069v45l168 59v1229l-538 -1333h-48l-557 1305v-1186l217 -74v-45h-481v45l166 70v1214l-166 60v45h420l477 -1108l449 1108h424v-45l-168 -60v-1235h514z" />
    <glyph glyph-name="M_Lacute.liga" unicode="M&#x139;" horiz-adv-x="2457" 
d="M1944 1712l-553 -174l-41 43l395 326h4l195 -185v-10zM2370 395h47l-58 -395h-1069v45l168 59v1229l-538 -1333h-48l-557 1305v-1186l217 -74v-45h-481v45l166 70v1214l-166 60v45h420l477 -1108l449 1108h424v-45l-168 -60v-1235h514z" />
    <glyph glyph-name="M_Lcommaaccent.liga" unicode="M&#x13b;" horiz-adv-x="2457" 
d="M2370 395h47l-58 -395h-1069v45l168 59v1229l-538 -1333h-48l-557 1305v-1186l217 -74v-45h-481v45l166 70v1214l-166 60v45h420l477 -1108l449 1108h424v-45l-168 -60v-1235h514zM1872 -84q67 -66 77 -149.5t-40.5 -158t-149.5 -112.5l-37 33q47 53 41.5 152t-61.5 161
v2z" />
    <glyph glyph-name="M_Ldot.liga" unicode="M&#x13f;" horiz-adv-x="2457" 
d="M2370 395h47l-58 -395h-1069v45l168 59v1229l-538 -1333h-48l-557 1305v-1186l217 -74v-45h-481v45l166 70v1214l-166 60v45h420l477 -1108l449 1108h424v-45l-168 -60v-1235h514zM2167 608q-55 0 -94.5 39t-38.5 92q2 54 40.5 92.5t92.5 38.5t92.5 -38.5t38.5 -92.5
t-38.5 -92.5t-92.5 -38.5z" />
    <glyph glyph-name="M_Lslash.liga" unicode="M&#x141;" horiz-adv-x="2457" 
d="M2370 395h47l-58 -395h-1069v45l168 59v551l-180 -73l-35 86l215 88v577l-538 -1333h-48l-557 1305v-1186l217 -74v-45h-481v45l166 70v1214l-166 60v45h420l477 -1108l449 1108h424v-45l-168 -60v-493l329 135l35 -88l-364 -148v-641h514z" />
    <glyph glyph-name="M_R.liga" unicode="MR" horiz-adv-x="2598" 
d="M2439 96l150 -51v-45h-324l-463 668h-149v-564l168 -59v-45h-531v45l168 59v1229l-538 -1333h-48l-557 1305v-1186l217 -74v-45h-481v45l166 70v1214l-166 60v45h420l477 -1108l449 1108h487q243 8 382.5 -82.5t139.5 -259.5q0 -134 -102 -248t-281 -154zM1653 1339v-577
h106q223 6 328.5 90t105.5 209q0 111 -97 194.5t-257 83.5h-186z" />
    <glyph glyph-name="M_Racute.liga" unicode="M&#x154;" horiz-adv-x="2598" 
d="M2255 1712l-553 -174l-41 43l395 326h4l195 -185v-10zM2439 96l150 -51v-45h-324l-463 668h-149v-564l168 -59v-45h-531v45l168 59v1229l-538 -1333h-48l-557 1305v-1186l217 -74v-45h-481v45l166 70v1214l-166 60v45h420l477 -1108l449 1108h487q243 8 382.5 -82.5
t139.5 -259.5q0 -134 -102 -248t-281 -154zM1653 1339v-577h106q223 6 328.5 90t105.5 209q0 111 -97 194.5t-257 83.5h-186z" />
    <glyph glyph-name="M_Rcaron.liga" unicode="M&#x158;" horiz-adv-x="2598" 
d="M1755 1559l-248 309l43 39l322 -178l309 178l43 -37l-250 -311h-219zM2439 96l150 -51v-45h-324l-463 668h-149v-564l168 -59v-45h-531v45l168 59v1229l-538 -1333h-48l-557 1305v-1186l217 -74v-45h-481v45l166 70v1214l-166 60v45h420l477 -1108l449 1108h487
q243 8 382.5 -82.5t139.5 -259.5q0 -134 -102 -248t-281 -154zM1653 1339v-577h106q223 6 328.5 90t105.5 209q0 111 -97 194.5t-257 83.5h-186z" />
    <glyph glyph-name="M_Rcommaaccent.liga" unicode="M&#x156;" horiz-adv-x="2598" 
d="M2439 96l150 -51v-45h-324l-463 668h-149v-564l168 -59v-45h-531v45l168 59v1229l-538 -1333h-48l-557 1305v-1186l217 -74v-45h-481v45l166 70v1214l-166 60v45h420l477 -1108l449 1108h487q243 8 382.5 -82.5t139.5 -259.5q0 -134 -102 -248t-281 -154zM1653 1339v-577
h106q223 6 328.5 90t105.5 209q0 111 -97 194.5t-257 83.5h-186zM1997 -84q67 -66 77 -149.5t-40.5 -158t-149.5 -112.5l-37 33q47 53 41.5 152t-61.5 161v2z" />
    <glyph glyph-name="M_U.liga" unicode="MU" horiz-adv-x="2746" 
d="M2695 1434v-45l-145 -72v-846q0 -122 -44 -218.5t-120.5 -156t-173 -90.5t-207.5 -31q-79 0 -154 15.5t-147.5 52.5t-126 92.5t-86.5 143t-33 196.5v858l-538 -1333h-48l-557 1305v-1186l217 -74v-45h-481v45l166 70v1214l-166 60v45h420l477 -1108l449 1108h424v-45
l-168 -60v-813q0 -89 25.5 -159.5t67 -115.5t99 -74.5t117 -41.5t125.5 -12q155 0 261 101t106 280v821l-195 74v45h436z" />
    <glyph glyph-name="M_Uacute.liga" unicode="M&#xda;" horiz-adv-x="2746" 
d="M2437 1712l-553 -174l-41 43l395 326h5l194 -185v-10zM2695 1434v-45l-145 -72v-846q0 -122 -44 -218.5t-120.5 -156t-173 -90.5t-207.5 -31q-79 0 -154 15.5t-147.5 52.5t-126 92.5t-86.5 143t-33 196.5v858l-538 -1333h-48l-557 1305v-1186l217 -74v-45h-481v45l166 70
v1214l-166 60v45h420l477 -1108l449 1108h424v-45l-168 -60v-813q0 -89 25.5 -159.5t67 -115.5t99 -74.5t117 -41.5t125.5 -12q155 0 261 101t106 280v821l-195 74v45h436z" />
    <glyph glyph-name="M_Ubreve.liga" unicode="M&#x16c;" horiz-adv-x="2746" 
d="M2046 1548q-48 0 -96 16t-95.5 51t-77.5 102t-30 157l65 2q25 -66 87 -110t147 -44t146.5 44t88.5 110l66 -2q0 -73 -20.5 -131t-52 -93.5t-73 -59.5t-80 -33t-75.5 -9zM2695 1434v-45l-145 -72v-846q0 -122 -44 -218.5t-120.5 -156t-173 -90.5t-207.5 -31
q-79 0 -154 15.5t-147.5 52.5t-126 92.5t-86.5 143t-33 196.5v858l-538 -1333h-48l-557 1305v-1186l217 -74v-45h-481v45l166 70v1214l-166 60v45h420l477 -1108l449 1108h424v-45l-168 -60v-813q0 -89 25.5 -159.5t67 -115.5t99 -74.5t117 -41.5t125.5 -12q155 0 261 101
t106 280v821l-195 74v45h436z" />
    <glyph glyph-name="M_Ucircumflex.liga" unicode="M&#xdb;" horiz-adv-x="2746" 
d="M2036 1716l-310 -178l-43 37l250 311h219l248 -309l-43 -39zM2695 1434v-45l-145 -72v-846q0 -122 -44 -218.5t-120.5 -156t-173 -90.5t-207.5 -31q-79 0 -154 15.5t-147.5 52.5t-126 92.5t-86.5 143t-33 196.5v858l-538 -1333h-48l-557 1305v-1186l217 -74v-45h-481v45
l166 70v1214l-166 60v45h420l477 -1108l449 1108h424v-45l-168 -60v-813q0 -89 25.5 -159.5t67 -115.5t99 -74.5t117 -41.5t125.5 -12q155 0 261 101t106 280v821l-195 74v45h436z" />
    <glyph glyph-name="M_Udieresis.liga" unicode="M&#xdc;" horiz-adv-x="2746" 
d="M1851 1612q-53 0 -90 37t-37 90t37 90t90 37t90 -37t37 -90t-37 -90t-90 -37zM2243 1612q-53 0 -90 37t-37 90t37 90t90 37t90 -37t37 -90t-37 -90t-90 -37zM2695 1434v-45l-145 -72v-846q0 -122 -44 -218.5t-120.5 -156t-173 -90.5t-207.5 -31q-79 0 -154 15.5
t-147.5 52.5t-126 92.5t-86.5 143t-33 196.5v858l-538 -1333h-48l-557 1305v-1186l217 -74v-45h-481v45l166 70v1214l-166 60v45h420l477 -1108l449 1108h424v-45l-168 -60v-813q0 -89 25.5 -159.5t67 -115.5t99 -74.5t117 -41.5t125.5 -12q155 0 261 101t106 280v821
l-195 74v45h436z" />
    <glyph glyph-name="M_Ugrave.liga" unicode="M&#xd9;" horiz-adv-x="2746" 
d="M2232 1587l-32 -49l-525 148v8l166 213h4zM2695 1434v-45l-145 -72v-846q0 -122 -44 -218.5t-120.5 -156t-173 -90.5t-207.5 -31q-79 0 -154 15.5t-147.5 52.5t-126 92.5t-86.5 143t-33 196.5v858l-538 -1333h-48l-557 1305v-1186l217 -74v-45h-481v45l166 70v1214
l-166 60v45h420l477 -1108l449 1108h424v-45l-168 -60v-813q0 -89 25.5 -159.5t67 -115.5t99 -74.5t117 -41.5t125.5 -12q155 0 261 101t106 280v821l-195 74v45h436z" />
    <glyph glyph-name="M_Uhungarumlaut.liga" unicode="M&#x170;" horiz-adv-x="2746" 
d="M2191 1821l-438 -283l-49 29l201 336h4l282 -70v-12zM2122 1540l-51 35l301 328h4l256 -103v-10zM2695 1434v-45l-145 -72v-846q0 -122 -44 -218.5t-120.5 -156t-173 -90.5t-207.5 -31q-79 0 -154 15.5t-147.5 52.5t-126 92.5t-86.5 143t-33 196.5v858l-538 -1333h-48
l-557 1305v-1186l217 -74v-45h-481v45l166 70v1214l-166 60v45h420l477 -1108l449 1108h424v-45l-168 -60v-813q0 -89 25.5 -159.5t67 -115.5t99 -74.5t117 -41.5t125.5 -12q155 0 261 101t106 280v821l-195 74v45h436z" />
    <glyph glyph-name="M_Umacron.liga" unicode="M&#x16a;" horiz-adv-x="2746" 
d="M2320 1784v-148h-546v148h546zM2695 1434v-45l-145 -72v-846q0 -122 -44 -218.5t-120.5 -156t-173 -90.5t-207.5 -31q-79 0 -154 15.5t-147.5 52.5t-126 92.5t-86.5 143t-33 196.5v858l-538 -1333h-48l-557 1305v-1186l217 -74v-45h-481v45l166 70v1214l-166 60v45h420
l477 -1108l449 1108h424v-45l-168 -60v-813q0 -89 25.5 -159.5t67 -115.5t99 -74.5t117 -41.5t125.5 -12q155 0 261 101t106 280v821l-195 74v45h436z" />
    <glyph glyph-name="M_Uogonek.liga" unicode="M&#x172;" horiz-adv-x="2746" 
d="M2695 1434v-45l-145 -72v-846q0 -110 -36.5 -199.5t-100.5 -149t-146.5 -95.5t-179.5 -47q-80 -140 -80 -250q0 -72 50.5 -106t115.5 -15v-53q-53 -32 -115 -40t-114.5 7.5t-87.5 59t-35 106.5q0 69 52 138t140 148h-8q-79 0 -154 15.5t-147.5 52.5t-126 92.5t-86.5 143
t-33 196.5v858l-538 -1333h-48l-557 1305v-1186l217 -74v-45h-481v45l166 70v1214l-166 60v45h420l477 -1108l449 1108h424v-45l-168 -60v-813q0 -89 25.5 -159.5t67 -115.5t99 -74.5t117 -41.5t125.5 -12q155 0 261 101t106 280v821l-195 74v45h436z" />
    <glyph glyph-name="M_Uring.liga" unicode="M&#x16e;" horiz-adv-x="2746" 
d="M2046 1501q-99 0 -166.5 55.5t-67.5 147.5q0 90 60.5 158.5t171.5 68.5q100 0 167.5 -55t67.5 -147q0 -91 -60.5 -159.5t-172.5 -68.5zM1946 1798q-23 -31 -23 -74q0 -59 37 -89.5t98 -30.5q44 0 86 28q25 29 25 76q0 60 -36 90.5t-97 30.5q-48 0 -90 -31zM2695 1434v-45
l-145 -72v-846q0 -122 -44 -218.5t-120.5 -156t-173 -90.5t-207.5 -31q-79 0 -154 15.5t-147.5 52.5t-126 92.5t-86.5 143t-33 196.5v858l-538 -1333h-48l-557 1305v-1186l217 -74v-45h-481v45l166 70v1214l-166 60v45h420l477 -1108l449 1108h424v-45l-168 -60v-813
q0 -89 25.5 -159.5t67 -115.5t99 -74.5t117 -41.5t125.5 -12q155 0 261 101t106 280v821l-195 74v45h436z" />
    <glyph glyph-name="M_Utilde.liga" unicode="M&#x168;" horiz-adv-x="2746" 
d="M1886 1692q-27 0 -48 -8.5t-37.5 -29.5t-25 -35t-24.5 -46l-57 20q28 133 88.5 207t148.5 74q38 0 73.5 -13.5t61.5 -32t49.5 -37.5t48.5 -32.5t48 -13.5q26 0 46.5 8.5t37 29.5t25 35t24.5 46l57 -21q-28 -132 -89 -206t-148 -74q-47 0 -90.5 20t-70.5 44.5t-59 44.5
t-59 20zM2695 1434v-45l-145 -72v-846q0 -122 -44 -218.5t-120.5 -156t-173 -90.5t-207.5 -31q-79 0 -154 15.5t-147.5 52.5t-126 92.5t-86.5 143t-33 196.5v858l-538 -1333h-48l-557 1305v-1186l217 -74v-45h-481v45l166 70v1214l-166 60v45h420l477 -1108l449 1108h424
v-45l-168 -60v-813q0 -89 25.5 -159.5t67 -115.5t99 -74.5t117 -41.5t125.5 -12q155 0 261 101t106 280v821l-195 74v45h436z" />
    <glyph glyph-name="N_N.liga" unicode="NN" horiz-adv-x="2541" 
d="M2501 1434v-45l-168 -70v-1319h-66l-942 1253v-1253h-65l-943 1253v-1134l218 -74v-45h-484v45l168 70v1214l-168 60v45h371l803 -1057v952l-166 60v45h371l802 -1057v940l-213 72v45h482z" />
    <glyph glyph-name="O_C.liga" unicode="OC" 
d="M2468 352l65 -43q-59 -151 -212 -242.5t-330 -91.5q-237 0 -396 98.5t-233 276.5q-92 -173 -246.5 -274t-347.5 -101q-98 0 -192.5 25t-182.5 79.5t-154.5 133t-106.5 194.5t-40 255q0 160 53.5 306t146 254t225 172t282.5 64q123 0 236.5 -38.5t212.5 -124.5t153 -210
q95 168 252.5 270.5t357.5 102.5q117 0 239 -45t197 -113v-372h-67q-60 192 -170 295.5t-266 103.5q-197 0 -353 -160q-116 -186 -116 -372q0 -184 77.5 -340.5t216.5 -250t308 -93.5q64 0 134.5 25t141.5 81.5t115 134.5zM1151 242q127 212 127 391q0 204 -72.5 362
t-196 242t-276.5 84q-183 0 -317 -129q-127 -212 -127 -391q0 -204 72.5 -362t196 -242t276.5 -84q183 0 317 129z" />
    <glyph glyph-name="O_C_A.liga" unicode="OCA" horiz-adv-x="3729" 
d="M3578 98l141 -53v-45h-547v45l193 53l-176 424h-555l-70 -172q-75 -184 -221.5 -279.5t-351.5 -95.5q-237 0 -396 98.5t-233 276.5q-92 -173 -246.5 -274t-347.5 -101q-98 0 -192.5 25t-182.5 79.5t-154.5 133t-106.5 194.5t-40 255q0 160 53.5 306t146 254t225 172
t282.5 64q123 0 236.5 -38.5t212.5 -124.5t153 -210q95 168 252.5 270.5t357.5 102.5q117 0 239 -45t197 -113v-372h-67q-60 192 -170 295.5t-266 103.5q-197 0 -353 -160q-116 -186 -116 -372q0 -184 77.5 -340.5t216.5 -250t308 -93.5q130 0 235.5 68t165.5 214l426 1041
h121zM1151 242q127 212 127 391q0 204 -72.5 362t-196 242t-276.5 84q-183 0 -317 -129q-127 -212 -127 -391q0 -204 72.5 -362t196 -242t276.5 -84q183 0 317 129zM2673 616h477l-242 584z" />
    <glyph glyph-name="O_Cacute.liga" unicode="O&#x106;" 
d="M2396 1712l-553 -174l-41 43l396 326h4l194 -185v-10zM2468 352l65 -43q-59 -151 -212 -242.5t-330 -91.5q-237 0 -396 98.5t-233 276.5q-92 -173 -246.5 -274t-347.5 -101q-98 0 -192.5 25t-182.5 79.5t-154.5 133t-106.5 194.5t-40 255q0 160 53.5 306t146 254t225 172
t282.5 64q123 0 236.5 -38.5t212.5 -124.5t153 -210q95 168 252.5 270.5t357.5 102.5q117 0 239 -45t197 -113v-372h-67q-60 192 -170 295.5t-266 103.5q-197 0 -353 -160q-116 -186 -116 -372q0 -184 77.5 -340.5t216.5 -250t308 -93.5q64 0 134.5 25t141.5 81.5t115 134.5
zM1151 242q127 212 127 391q0 204 -72.5 362t-196 242t-276.5 84q-183 0 -317 -129q-127 -212 -127 -391q0 -204 72.5 -362t196 -242t276.5 -84q183 0 317 129z" />
    <glyph glyph-name="O_Ccaron.liga" unicode="O&#x10c;" 
d="M1896 1559l-247 309l43 39l321 -178l309 178l43 -37l-249 -311h-220zM2468 352l65 -43q-59 -151 -212 -242.5t-330 -91.5q-237 0 -396 98.5t-233 276.5q-92 -173 -246.5 -274t-347.5 -101q-98 0 -192.5 25t-182.5 79.5t-154.5 133t-106.5 194.5t-40 255q0 160 53.5 306
t146 254t225 172t282.5 64q123 0 236.5 -38.5t212.5 -124.5t153 -210q95 168 252.5 270.5t357.5 102.5q117 0 239 -45t197 -113v-372h-67q-60 192 -170 295.5t-266 103.5q-197 0 -353 -160q-116 -186 -116 -372q0 -184 77.5 -340.5t216.5 -250t308 -93.5q64 0 134.5 25
t141.5 81.5t115 134.5zM1151 242q127 212 127 391q0 204 -72.5 362t-196 242t-276.5 84q-183 0 -317 -129q-127 -212 -127 -391q0 -204 72.5 -362t196 -242t276.5 -84q183 0 317 129z" />
    <glyph glyph-name="O_Ccedilla.liga" unicode="O&#xc7;" 
d="M1991 -25h-33l-53 -79h2q96 -23 146 -73t50 -118t-54.5 -119t-137 -66t-178.5 5v55q89 -3 134.5 21.5t45.5 85.5q0 81 -84 98l-72 14l-2 4l115 181q-187 23 -315.5 117.5t-192.5 248.5q-92 -173 -246.5 -274t-347.5 -101q-98 0 -192.5 25t-182.5 79.5t-154.5 133
t-106.5 194.5t-40 255q0 160 53.5 306t146 254t225 172t282.5 64q123 0 236.5 -38.5t212.5 -124.5t153 -210q95 168 252.5 270.5t357.5 102.5q117 0 239 -45t197 -113v-372h-67q-60 192 -170 295.5t-266 103.5q-197 0 -353 -160q-116 -186 -116 -372q0 -184 77.5 -340.5
t216.5 -250t308 -93.5q64 0 134.5 25t141.5 81.5t115 134.5l65 -43q-59 -151 -212 -242.5t-330 -91.5zM1151 242q127 212 127 391q0 204 -72.5 362t-196 242t-276.5 84q-183 0 -317 -129q-127 -212 -127 -391q0 -204 72.5 -362t196 -242t276.5 -84q183 0 317 129z" />
    <glyph glyph-name="O_Ccircumflex.liga" unicode="O&#x108;" 
d="M1995 1716l-309 -178l-44 37l250 311h219l248 -309l-43 -39zM2468 352l65 -43q-59 -151 -212 -242.5t-330 -91.5q-237 0 -396 98.5t-233 276.5q-92 -173 -246.5 -274t-347.5 -101q-98 0 -192.5 25t-182.5 79.5t-154.5 133t-106.5 194.5t-40 255q0 160 53.5 306t146 254
t225 172t282.5 64q123 0 236.5 -38.5t212.5 -124.5t153 -210q95 168 252.5 270.5t357.5 102.5q117 0 239 -45t197 -113v-372h-67q-60 192 -170 295.5t-266 103.5q-197 0 -353 -160q-116 -186 -116 -372q0 -184 77.5 -340.5t216.5 -250t308 -93.5q64 0 134.5 25t141.5 81.5
t115 134.5zM1151 242q127 212 127 391q0 204 -72.5 362t-196 242t-276.5 84q-183 0 -317 -129q-127 -212 -127 -391q0 -204 72.5 -362t196 -242t276.5 -84q183 0 317 129z" />
    <glyph glyph-name="O_Cdotaccent.liga" unicode="O&#x10a;" 
d="M2007 1608q-54 0 -92.5 38.5t-38.5 92.5t38.5 92.5t92.5 38.5t92.5 -38.5t38.5 -92.5t-38.5 -92.5t-92.5 -38.5zM2468 352l65 -43q-59 -151 -212 -242.5t-330 -91.5q-237 0 -396 98.5t-233 276.5q-92 -173 -246.5 -274t-347.5 -101q-98 0 -192.5 25t-182.5 79.5
t-154.5 133t-106.5 194.5t-40 255q0 160 53.5 306t146 254t225 172t282.5 64q123 0 236.5 -38.5t212.5 -124.5t153 -210q95 168 252.5 270.5t357.5 102.5q117 0 239 -45t197 -113v-372h-67q-60 192 -170 295.5t-266 103.5q-197 0 -353 -160q-116 -186 -116 -372
q0 -184 77.5 -340.5t216.5 -250t308 -93.5q64 0 134.5 25t141.5 81.5t115 134.5zM1151 242q127 212 127 391q0 204 -72.5 362t-196 242t-276.5 84q-183 0 -317 -129q-127 -212 -127 -391q0 -204 72.5 -362t196 -242t276.5 -84q183 0 317 129z" />
    <glyph glyph-name="O_G.liga" unicode="OG" horiz-adv-x="2711" 
d="M2691 739v-45l-145 -69v-625h-52l-92 182q-80 -96 -193 -151.5t-241 -55.5q-231 0 -383.5 98t-226.5 273q-90 -171 -244 -271t-346 -100q-98 0 -192.5 25t-182.5 79.5t-154.5 133t-106.5 194.5t-40 255q0 160 53.5 306t146 254t225 172t282.5 64q123 0 236.5 -38.5
t212.5 -124.5t153 -210q94 169 256 271t371 102q132 0 267.5 -41t207.5 -106v-353h-68q-63 185 -186 277t-289 92q-112 0 -202 -41.5t-152 -101.5q-131 -177 -131 -400q0 -134 42.5 -256.5t117.5 -215.5t185 -148t236 -55q176 0 305 141v362l-270 82v45h600zM1151 242
q127 212 127 391q0 204 -72.5 362t-196 242t-276.5 84q-183 0 -317 -129q-127 -212 -127 -391q0 -204 72.5 -362t196 -242t276.5 -84q183 0 317 129z" />
    <glyph glyph-name="O_Gbreve.liga" unicode="O&#x11e;" horiz-adv-x="2711" 
d="M2009 1548q-48 0 -96 16t-95.5 51t-77.5 102t-30 157l66 2q25 -66 86.5 -110t146.5 -44t147 44t89 110l65 -2q0 -73 -20.5 -131t-52 -93.5t-73 -59.5t-80 -33t-75.5 -9zM2691 739v-45l-145 -69v-625h-52l-92 182q-80 -96 -193 -151.5t-241 -55.5q-231 0 -383.5 98
t-226.5 273q-90 -171 -244 -271t-346 -100q-98 0 -192.5 25t-182.5 79.5t-154.5 133t-106.5 194.5t-40 255q0 160 53.5 306t146 254t225 172t282.5 64q123 0 236.5 -38.5t212.5 -124.5t153 -210q94 169 256 271t371 102q132 0 267.5 -41t207.5 -106v-353h-68
q-63 185 -186 277t-289 92q-112 0 -202 -41.5t-152 -101.5q-131 -177 -131 -400q0 -134 42.5 -256.5t117.5 -215.5t185 -148t236 -55q176 0 305 141v362l-270 82v45h600zM1151 242q127 212 127 391q0 204 -72.5 362t-196 242t-276.5 84q-183 0 -317 -129
q-127 -212 -127 -391q0 -204 72.5 -362t196 -242t276.5 -84q183 0 317 129z" />
    <glyph glyph-name="O_Gcircumflex.liga" unicode="O&#x11c;" horiz-adv-x="2711" 
d="M1999 1716l-309 -178l-43 37l249 311h220l247 -309l-43 -39zM2691 739v-45l-145 -69v-625h-52l-92 182q-80 -96 -193 -151.5t-241 -55.5q-231 0 -383.5 98t-226.5 273q-90 -171 -244 -271t-346 -100q-98 0 -192.5 25t-182.5 79.5t-154.5 133t-106.5 194.5t-40 255
q0 160 53.5 306t146 254t225 172t282.5 64q123 0 236.5 -38.5t212.5 -124.5t153 -210q94 169 256 271t371 102q132 0 267.5 -41t207.5 -106v-353h-68q-63 185 -186 277t-289 92q-112 0 -202 -41.5t-152 -101.5q-131 -177 -131 -400q0 -134 42.5 -256.5t117.5 -215.5
t185 -148t236 -55q176 0 305 141v362l-270 82v45h600zM1151 242q127 212 127 391q0 204 -72.5 362t-196 242t-276.5 84q-183 0 -317 -129q-127 -212 -127 -391q0 -204 72.5 -362t196 -242t276.5 -84q183 0 317 129z" />
    <glyph glyph-name="O_Gcommaaccent.liga" unicode="O&#x122;" horiz-adv-x="2711" 
d="M2691 739v-45l-145 -69v-625h-52l-92 182q-80 -96 -193 -151.5t-241 -55.5q-231 0 -383.5 98t-226.5 273q-90 -171 -244 -271t-346 -100q-98 0 -192.5 25t-182.5 79.5t-154.5 133t-106.5 194.5t-40 255q0 160 53.5 306t146 254t225 172t282.5 64q123 0 236.5 -38.5
t212.5 -124.5t153 -210q94 169 256 271t371 102q132 0 267.5 -41t207.5 -106v-353h-68q-63 185 -186 277t-289 92q-112 0 -202 -41.5t-152 -101.5q-131 -177 -131 -400q0 -134 42.5 -256.5t117.5 -215.5t185 -148t236 -55q176 0 305 141v362l-270 82v45h600zM1151 242
q127 212 127 391q0 204 -72.5 362t-196 242t-276.5 84q-183 0 -317 -129q-127 -212 -127 -391q0 -204 72.5 -362t196 -242t276.5 -84q183 0 317 129zM2040 -84q67 -66 77 -149.5t-40.5 -158t-149.5 -112.5l-37 33q47 53 41.5 152t-61.5 161v2z" />
    <glyph glyph-name="O_Gdotaccent.liga" unicode="O&#x120;" horiz-adv-x="2711" 
d="M2011 1608q-54 0 -92.5 38.5t-38.5 92.5t38.5 92.5t92.5 38.5t92.5 -38.5t38.5 -92.5t-38.5 -92.5t-92.5 -38.5zM2691 739v-45l-145 -69v-625h-52l-92 182q-80 -96 -193 -151.5t-241 -55.5q-231 0 -383.5 98t-226.5 273q-90 -171 -244 -271t-346 -100q-98 0 -192.5 25
t-182.5 79.5t-154.5 133t-106.5 194.5t-40 255q0 160 53.5 306t146 254t225 172t282.5 64q123 0 236.5 -38.5t212.5 -124.5t153 -210q94 169 256 271t371 102q132 0 267.5 -41t207.5 -106v-353h-68q-63 185 -186 277t-289 92q-112 0 -202 -41.5t-152 -101.5
q-131 -177 -131 -400q0 -134 42.5 -256.5t117.5 -215.5t185 -148t236 -55q176 0 305 141v362l-270 82v45h600zM1151 242q127 212 127 391q0 204 -72.5 362t-196 242t-276.5 84q-183 0 -317 -129q-127 -212 -127 -391q0 -204 72.5 -362t196 -242t276.5 -84q183 0 317 129z
" />
    <glyph glyph-name="O_O.liga" unicode="OO" horiz-adv-x="2752" 
d="M1985 1458q98 0 192 -25t182 -79.5t154.5 -132.5t106.5 -194t40 -255q0 -215 -90 -397t-253 -291t-363 -109q-121 0 -233 37.5t-211 121.5t-154 204q-92 -168 -245 -265.5t-343 -97.5q-98 0 -192.5 25t-182.5 79.5t-154.5 133t-106.5 194.5t-40 255q0 160 53.5 306
t146 254t225 172t282.5 64q121 0 233 -37t211 -121t154 -204q92 167 245 264.5t343 97.5zM1151 242q127 212 127 391q0 204 -72.5 362t-196 242t-276.5 84q-183 0 -317 -129q-127 -212 -127 -391q0 -204 72.5 -362t196 -242t276.5 -84q183 0 317 129zM2337 242
q127 212 127 391q0 204 -72.5 362t-196 242t-276.5 84q-183 0 -317 -129q-127 -212 -127 -391q0 -308 155 -498t389 -190q184 0 318 129z" />
    <glyph glyph-name="O_Q.liga" unicode="OQ" horiz-adv-x="2752" 
d="M2099 -8q212 -289 545 -209l16 -49q-152 -75 -297.5 -70t-271.5 77.5t-217 201.5l-29 41q-159 25 -289.5 114t-199.5 240q-92 -168 -245 -265.5t-343 -97.5q-98 0 -192.5 25t-182.5 79.5t-154.5 133t-106.5 194.5t-40 255q0 160 53.5 306t146 254t225 172t282.5 64
q121 0 233 -37t211 -121t154 -204q92 167 245 264.5t343 97.5q98 0 192 -25t182 -79.5t154.5 -132.5t106.5 -194t40 -255q0 -188 -70.5 -353t-199 -278t-291.5 -149zM1151 242q127 212 127 391q0 204 -72.5 362t-196 242t-276.5 84q-183 0 -317 -129q-127 -212 -127 -391
q0 -204 72.5 -362t196 -242t276.5 -84q183 0 317 129zM1475 801q0 -308 155 -498t389 -190q184 0 318 129q127 212 127 391q0 204 -72.5 362t-196 242t-276.5 84q-183 0 -317 -129q-127 -212 -127 -391z" />
    <glyph glyph-name="Oacute_C.liga" unicode="&#xd3;C" 
d="M1192 1712l-553 -174l-41 43l395 326h4l195 -185v-10zM2468 352l65 -43q-59 -151 -212 -242.5t-330 -91.5q-237 0 -396 98.5t-233 276.5q-92 -173 -246.5 -274t-347.5 -101q-98 0 -192.5 25t-182.5 79.5t-154.5 133t-106.5 194.5t-40 255q0 160 53.5 306t146 254t225 172
t282.5 64q123 0 236.5 -38.5t212.5 -124.5t153 -210q95 168 252.5 270.5t357.5 102.5q117 0 239 -45t197 -113v-372h-67q-60 192 -170 295.5t-266 103.5q-197 0 -353 -160q-116 -186 -116 -372q0 -184 77.5 -340.5t216.5 -250t308 -93.5q64 0 134.5 25t141.5 81.5t115 134.5
zM1151 242q127 212 127 391q0 204 -72.5 362t-196 242t-276.5 84q-183 0 -317 -129q-127 -212 -127 -391q0 -204 72.5 -362t196 -242t276.5 -84q183 0 317 129z" />
    <glyph glyph-name="Oacute_G.liga" unicode="&#xd3;G" horiz-adv-x="2711" 
d="M1192 1712l-553 -174l-41 43l395 326h4l195 -185v-10zM2691 739v-45l-145 -69v-625h-52l-92 182q-80 -96 -193 -151.5t-241 -55.5q-231 0 -383.5 98t-226.5 273q-90 -171 -244 -271t-346 -100q-98 0 -192.5 25t-182.5 79.5t-154.5 133t-106.5 194.5t-40 255
q0 160 53.5 306t146 254t225 172t282.5 64q123 0 236.5 -38.5t212.5 -124.5t153 -210q94 169 256 271t371 102q132 0 267.5 -41t207.5 -106v-353h-68q-63 185 -186 277t-289 92q-112 0 -202 -41.5t-152 -101.5q-131 -177 -131 -400q0 -134 42.5 -256.5t117.5 -215.5
t185 -148t236 -55q176 0 305 141v362l-270 82v45h600zM1151 242q127 212 127 391q0 204 -72.5 362t-196 242t-276.5 84q-183 0 -317 -129q-127 -212 -127 -391q0 -204 72.5 -362t196 -242t276.5 -84q183 0 317 129z" />
    <glyph glyph-name="Obreve_C.liga" unicode="&#x14e;C" 
d="M801 1548q-48 0 -96 16t-95.5 51t-77.5 102t-30 157l65 2q25 -66 87 -110t147 -44t146.5 44t88.5 110l66 -2q0 -73 -20.5 -131t-52 -93.5t-73 -59.5t-80 -33t-75.5 -9zM2468 352l65 -43q-59 -151 -212 -242.5t-330 -91.5q-237 0 -396 98.5t-233 276.5
q-92 -173 -246.5 -274t-347.5 -101q-98 0 -192.5 25t-182.5 79.5t-154.5 133t-106.5 194.5t-40 255q0 160 53.5 306t146 254t225 172t282.5 64q123 0 236.5 -38.5t212.5 -124.5t153 -210q95 168 252.5 270.5t357.5 102.5q117 0 239 -45t197 -113v-372h-67
q-60 192 -170 295.5t-266 103.5q-197 0 -353 -160q-116 -186 -116 -372q0 -184 77.5 -340.5t216.5 -250t308 -93.5q64 0 134.5 25t141.5 81.5t115 134.5zM1151 242q127 212 127 391q0 204 -72.5 362t-196 242t-276.5 84q-183 0 -317 -129q-127 -212 -127 -391
q0 -204 72.5 -362t196 -242t276.5 -84q183 0 317 129z" />
    <glyph glyph-name="Obreve_G.liga" unicode="&#x14e;G" horiz-adv-x="2711" 
d="M801 1548q-48 0 -96 16t-95.5 51t-77.5 102t-30 157l65 2q25 -66 87 -110t147 -44t146.5 44t88.5 110l66 -2q0 -73 -20.5 -131t-52 -93.5t-73 -59.5t-80 -33t-75.5 -9zM2691 739v-45l-145 -69v-625h-52l-92 182q-80 -96 -193 -151.5t-241 -55.5q-231 0 -383.5 98
t-226.5 273q-90 -171 -244 -271t-346 -100q-98 0 -192.5 25t-182.5 79.5t-154.5 133t-106.5 194.5t-40 255q0 160 53.5 306t146 254t225 172t282.5 64q123 0 236.5 -38.5t212.5 -124.5t153 -210q94 169 256 271t371 102q132 0 267.5 -41t207.5 -106v-353h-68
q-63 185 -186 277t-289 92q-112 0 -202 -41.5t-152 -101.5q-131 -177 -131 -400q0 -134 42.5 -256.5t117.5 -215.5t185 -148t236 -55q176 0 305 141v362l-270 82v45h600zM1151 242q127 212 127 391q0 204 -72.5 362t-196 242t-276.5 84q-183 0 -317 -129
q-127 -212 -127 -391q0 -204 72.5 -362t196 -242t276.5 -84q183 0 317 129z" />
    <glyph glyph-name="Ocircumflex_C.liga" unicode="&#xd4;C" 
d="M791 1716l-310 -178l-43 37l250 311h219l248 -309l-43 -39zM2468 352l65 -43q-59 -151 -212 -242.5t-330 -91.5q-237 0 -396 98.5t-233 276.5q-92 -173 -246.5 -274t-347.5 -101q-98 0 -192.5 25t-182.5 79.5t-154.5 133t-106.5 194.5t-40 255q0 160 53.5 306t146 254
t225 172t282.5 64q123 0 236.5 -38.5t212.5 -124.5t153 -210q95 168 252.5 270.5t357.5 102.5q117 0 239 -45t197 -113v-372h-67q-60 192 -170 295.5t-266 103.5q-197 0 -353 -160q-116 -186 -116 -372q0 -184 77.5 -340.5t216.5 -250t308 -93.5q64 0 134.5 25t141.5 81.5
t115 134.5zM1151 242q127 212 127 391q0 204 -72.5 362t-196 242t-276.5 84q-183 0 -317 -129q-127 -212 -127 -391q0 -204 72.5 -362t196 -242t276.5 -84q183 0 317 129z" />
    <glyph glyph-name="Ocircumflex_G.liga" unicode="&#xd4;G" horiz-adv-x="2711" 
d="M791 1716l-310 -178l-43 37l250 311h219l248 -309l-43 -39zM2691 739v-45l-145 -69v-625h-52l-92 182q-80 -96 -193 -151.5t-241 -55.5q-231 0 -383.5 98t-226.5 273q-90 -171 -244 -271t-346 -100q-98 0 -192.5 25t-182.5 79.5t-154.5 133t-106.5 194.5t-40 255
q0 160 53.5 306t146 254t225 172t282.5 64q123 0 236.5 -38.5t212.5 -124.5t153 -210q94 169 256 271t371 102q132 0 267.5 -41t207.5 -106v-353h-68q-63 185 -186 277t-289 92q-112 0 -202 -41.5t-152 -101.5q-131 -177 -131 -400q0 -134 42.5 -256.5t117.5 -215.5
t185 -148t236 -55q176 0 305 141v362l-270 82v45h600zM1151 242q127 212 127 391q0 204 -72.5 362t-196 242t-276.5 84q-183 0 -317 -129q-127 -212 -127 -391q0 -204 72.5 -362t196 -242t276.5 -84q183 0 317 129z" />
    <glyph glyph-name="Odieresis_C.liga" unicode="&#xd6;C" 
d="M606 1612q-52 0 -89.5 37t-37.5 90t37.5 90t89.5 37t89.5 -37t37.5 -90t-37.5 -90t-89.5 -37zM997 1612q-53 0 -90 37t-37 90t37 90t90 37t90 -37t37 -90t-37 -90t-90 -37zM2468 352l65 -43q-59 -151 -212 -242.5t-330 -91.5q-237 0 -396 98.5t-233 276.5
q-92 -173 -246.5 -274t-347.5 -101q-98 0 -192.5 25t-182.5 79.5t-154.5 133t-106.5 194.5t-40 255q0 160 53.5 306t146 254t225 172t282.5 64q123 0 236.5 -38.5t212.5 -124.5t153 -210q95 168 252.5 270.5t357.5 102.5q117 0 239 -45t197 -113v-372h-67
q-60 192 -170 295.5t-266 103.5q-197 0 -353 -160q-116 -186 -116 -372q0 -184 77.5 -340.5t216.5 -250t308 -93.5q64 0 134.5 25t141.5 81.5t115 134.5zM1151 242q127 212 127 391q0 204 -72.5 362t-196 242t-276.5 84q-183 0 -317 -129q-127 -212 -127 -391
q0 -204 72.5 -362t196 -242t276.5 -84q183 0 317 129z" />
    <glyph glyph-name="Odieresis_G.liga" unicode="&#xd6;G" horiz-adv-x="2711" 
d="M606 1612q-52 0 -89.5 37t-37.5 90t37.5 90t89.5 37t89.5 -37t37.5 -90t-37.5 -90t-89.5 -37zM997 1612q-53 0 -90 37t-37 90t37 90t90 37t90 -37t37 -90t-37 -90t-90 -37zM2691 739v-45l-145 -69v-625h-52l-92 182q-80 -96 -193 -151.5t-241 -55.5q-231 0 -383.5 98
t-226.5 273q-90 -171 -244 -271t-346 -100q-98 0 -192.5 25t-182.5 79.5t-154.5 133t-106.5 194.5t-40 255q0 160 53.5 306t146 254t225 172t282.5 64q123 0 236.5 -38.5t212.5 -124.5t153 -210q94 169 256 271t371 102q132 0 267.5 -41t207.5 -106v-353h-68
q-63 185 -186 277t-289 92q-112 0 -202 -41.5t-152 -101.5q-131 -177 -131 -400q0 -134 42.5 -256.5t117.5 -215.5t185 -148t236 -55q176 0 305 141v362l-270 82v45h600zM1151 242q127 212 127 391q0 204 -72.5 362t-196 242t-276.5 84q-183 0 -317 -129
q-127 -212 -127 -391q0 -204 72.5 -362t196 -242t276.5 -84q183 0 317 129z" />
    <glyph glyph-name="Ograve_C.liga" unicode="&#xd2;C" 
d="M987 1587l-33 -49l-524 148v8l166 213h4zM2468 352l65 -43q-59 -151 -212 -242.5t-330 -91.5q-237 0 -396 98.5t-233 276.5q-92 -173 -246.5 -274t-347.5 -101q-98 0 -192.5 25t-182.5 79.5t-154.5 133t-106.5 194.5t-40 255q0 160 53.5 306t146 254t225 172t282.5 64
q123 0 236.5 -38.5t212.5 -124.5t153 -210q95 168 252.5 270.5t357.5 102.5q117 0 239 -45t197 -113v-372h-67q-60 192 -170 295.5t-266 103.5q-197 0 -353 -160q-116 -186 -116 -372q0 -184 77.5 -340.5t216.5 -250t308 -93.5q64 0 134.5 25t141.5 81.5t115 134.5z
M1151 242q127 212 127 391q0 204 -72.5 362t-196 242t-276.5 84q-183 0 -317 -129q-127 -212 -127 -391q0 -204 72.5 -362t196 -242t276.5 -84q183 0 317 129z" />
    <glyph glyph-name="Ograve_G.liga" unicode="&#xd2;G" horiz-adv-x="2711" 
d="M987 1587l-33 -49l-524 148v8l166 213h4zM2691 739v-45l-145 -69v-625h-52l-92 182q-80 -96 -193 -151.5t-241 -55.5q-231 0 -383.5 98t-226.5 273q-90 -171 -244 -271t-346 -100q-98 0 -192.5 25t-182.5 79.5t-154.5 133t-106.5 194.5t-40 255q0 160 53.5 306t146 254
t225 172t282.5 64q123 0 236.5 -38.5t212.5 -124.5t153 -210q94 169 256 271t371 102q132 0 267.5 -41t207.5 -106v-353h-68q-63 185 -186 277t-289 92q-112 0 -202 -41.5t-152 -101.5q-131 -177 -131 -400q0 -134 42.5 -256.5t117.5 -215.5t185 -148t236 -55q176 0 305 141
v362l-270 82v45h600zM1151 242q127 212 127 391q0 204 -72.5 362t-196 242t-276.5 84q-183 0 -317 -129q-127 -212 -127 -391q0 -204 72.5 -362t196 -242t276.5 -84q183 0 317 129z" />
    <glyph glyph-name="Ohungarumlaut_C.liga" unicode="&#x150;C" 
d="M946 1821l-438 -283l-49 29l200 336h5l282 -70v-12zM877 1540l-52 35l301 328h4l256 -103v-10zM2468 352l65 -43q-59 -151 -212 -242.5t-330 -91.5q-237 0 -396 98.5t-233 276.5q-92 -173 -246.5 -274t-347.5 -101q-98 0 -192.5 25t-182.5 79.5t-154.5 133t-106.5 194.5
t-40 255q0 160 53.5 306t146 254t225 172t282.5 64q123 0 236.5 -38.5t212.5 -124.5t153 -210q95 168 252.5 270.5t357.5 102.5q117 0 239 -45t197 -113v-372h-67q-60 192 -170 295.5t-266 103.5q-197 0 -353 -160q-116 -186 -116 -372q0 -184 77.5 -340.5t216.5 -250
t308 -93.5q64 0 134.5 25t141.5 81.5t115 134.5zM1151 242q127 212 127 391q0 204 -72.5 362t-196 242t-276.5 84q-183 0 -317 -129q-127 -212 -127 -391q0 -204 72.5 -362t196 -242t276.5 -84q183 0 317 129z" />
    <glyph glyph-name="Ohungarumlaut_G.liga" unicode="&#x150;G" horiz-adv-x="2711" 
d="M946 1821l-438 -283l-49 29l200 336h5l282 -70v-12zM877 1540l-52 35l301 328h4l256 -103v-10zM2691 739v-45l-145 -69v-625h-52l-92 182q-80 -96 -193 -151.5t-241 -55.5q-231 0 -383.5 98t-226.5 273q-90 -171 -244 -271t-346 -100q-98 0 -192.5 25t-182.5 79.5
t-154.5 133t-106.5 194.5t-40 255q0 160 53.5 306t146 254t225 172t282.5 64q123 0 236.5 -38.5t212.5 -124.5t153 -210q94 169 256 271t371 102q132 0 267.5 -41t207.5 -106v-353h-68q-63 185 -186 277t-289 92q-112 0 -202 -41.5t-152 -101.5q-131 -177 -131 -400
q0 -134 42.5 -256.5t117.5 -215.5t185 -148t236 -55q176 0 305 141v362l-270 82v45h600zM1151 242q127 212 127 391q0 204 -72.5 362t-196 242t-276.5 84q-183 0 -317 -129q-127 -212 -127 -391q0 -204 72.5 -362t196 -242t276.5 -84q183 0 317 129z" />
    <glyph glyph-name="Omacron_C.liga" unicode="&#x14c;C" 
d="M1075 1784v-148h-547v148h547zM2468 352l65 -43q-59 -151 -212 -242.5t-330 -91.5q-237 0 -396 98.5t-233 276.5q-92 -173 -246.5 -274t-347.5 -101q-98 0 -192.5 25t-182.5 79.5t-154.5 133t-106.5 194.5t-40 255q0 160 53.5 306t146 254t225 172t282.5 64
q123 0 236.5 -38.5t212.5 -124.5t153 -210q95 168 252.5 270.5t357.5 102.5q117 0 239 -45t197 -113v-372h-67q-60 192 -170 295.5t-266 103.5q-197 0 -353 -160q-116 -186 -116 -372q0 -184 77.5 -340.5t216.5 -250t308 -93.5q64 0 134.5 25t141.5 81.5t115 134.5z
M1151 242q127 212 127 391q0 204 -72.5 362t-196 242t-276.5 84q-183 0 -317 -129q-127 -212 -127 -391q0 -204 72.5 -362t196 -242t276.5 -84q183 0 317 129z" />
    <glyph glyph-name="Omacron_G.liga" unicode="&#x14c;G" horiz-adv-x="2711" 
d="M1075 1784v-148h-547v148h547zM2691 739v-45l-145 -69v-625h-52l-92 182q-80 -96 -193 -151.5t-241 -55.5q-231 0 -383.5 98t-226.5 273q-90 -171 -244 -271t-346 -100q-98 0 -192.5 25t-182.5 79.5t-154.5 133t-106.5 194.5t-40 255q0 160 53.5 306t146 254t225 172
t282.5 64q123 0 236.5 -38.5t212.5 -124.5t153 -210q94 169 256 271t371 102q132 0 267.5 -41t207.5 -106v-353h-68q-63 185 -186 277t-289 92q-112 0 -202 -41.5t-152 -101.5q-131 -177 -131 -400q0 -134 42.5 -256.5t117.5 -215.5t185 -148t236 -55q176 0 305 141v362
l-270 82v45h600zM1151 242q127 212 127 391q0 204 -72.5 362t-196 242t-276.5 84q-183 0 -317 -129q-127 -212 -127 -391q0 -204 72.5 -362t196 -242t276.5 -84q183 0 317 129z" />
    <glyph glyph-name="Oslash_C.liga" unicode="&#xd8;C" 
d="M2468 352l65 -43q-59 -151 -212 -242.5t-330 -91.5q-237 0 -396 98.5t-233 276.5q-92 -173 -246.5 -274t-347.5 -101q-219 0 -399 119l-148 -194l-78 55l152 199q-203 190 -203 508q0 160 53.5 306t146 254t225 172t282.5 64q222 0 395 -121l147 195l78 -55l-151 -199
q85 -82 133 -193q95 168 252.5 270.5t357.5 102.5q117 0 239 -45t197 -113v-372h-67q-60 192 -170 295.5t-266 103.5q-197 0 -353 -160q-116 -186 -116 -372q0 -184 77.5 -340.5t216.5 -250t308 -93.5q64 0 134.5 25t141.5 81.5t115 134.5zM289 801q0 -285 137 -475l649 856
q-142 139 -342 139q-183 0 -317 -129q-127 -212 -127 -391zM1151 242q127 212 127 391q0 289 -137 475l-652 -856q142 -139 345 -139q183 0 317 129z" />
    <glyph glyph-name="Oslash_G.liga" unicode="&#xd8;G" horiz-adv-x="2711" 
d="M2691 739v-45l-145 -69v-625h-52l-92 182q-80 -96 -193 -151.5t-241 -55.5q-231 0 -383.5 98t-226.5 273q-90 -171 -244 -271t-346 -100q-219 0 -399 119l-148 -194l-78 55l152 199q-203 190 -203 508q0 160 53.5 306t146 254t225 172t282.5 64q222 0 395 -121l147 195
l78 -55l-151 -199q85 -82 133 -193q94 169 256 271t371 102q132 0 267.5 -41t207.5 -106v-353h-68q-63 185 -186 277t-289 92q-112 0 -202 -41.5t-152 -101.5q-131 -177 -131 -400q0 -134 42.5 -256.5t117.5 -215.5t185 -148t236 -55q176 0 305 141v362l-270 82v45h600z
M289 801q0 -285 137 -475l649 856q-142 139 -342 139q-183 0 -317 -129q-127 -212 -127 -391zM1151 242q127 212 127 391q0 289 -137 475l-652 -856q142 -139 345 -139q183 0 317 129z" />
    <glyph glyph-name="Otilde_C.liga" unicode="&#xd5;C" 
d="M641 1692q-27 0 -48 -8.5t-37.5 -29.5t-25 -35t-24.5 -46l-57 20q28 133 88.5 207t148.5 74q38 0 73.5 -13.5t61.5 -32t49.5 -37.5t48.5 -32.5t48 -13.5q26 0 46.5 8.5t37 29.5t25 35t24.5 46l57 -21q-28 -132 -89 -206t-148 -74q-47 0 -90.5 20t-70.5 44.5t-59 44.5
t-59 20zM2468 352l65 -43q-59 -151 -212 -242.5t-330 -91.5q-237 0 -396 98.5t-233 276.5q-92 -173 -246.5 -274t-347.5 -101q-98 0 -192.5 25t-182.5 79.5t-154.5 133t-106.5 194.5t-40 255q0 160 53.5 306t146 254t225 172t282.5 64q123 0 236.5 -38.5t212.5 -124.5
t153 -210q95 168 252.5 270.5t357.5 102.5q117 0 239 -45t197 -113v-372h-67q-60 192 -170 295.5t-266 103.5q-197 0 -353 -160q-116 -186 -116 -372q0 -184 77.5 -340.5t216.5 -250t308 -93.5q64 0 134.5 25t141.5 81.5t115 134.5zM1151 242q127 212 127 391
q0 204 -72.5 362t-196 242t-276.5 84q-183 0 -317 -129q-127 -212 -127 -391q0 -204 72.5 -362t196 -242t276.5 -84q183 0 317 129z" />
    <glyph glyph-name="Otilde_G.liga" unicode="&#xd5;G" horiz-adv-x="2711" 
d="M641 1692q-27 0 -48 -8.5t-37.5 -29.5t-25 -35t-24.5 -46l-57 20q28 133 88.5 207t148.5 74q38 0 73.5 -13.5t61.5 -32t49.5 -37.5t48.5 -32.5t48 -13.5q26 0 46.5 8.5t37 29.5t25 35t24.5 46l57 -21q-28 -132 -89 -206t-148 -74q-47 0 -90.5 20t-70.5 44.5t-59 44.5
t-59 20zM2691 739v-45l-145 -69v-625h-52l-92 182q-80 -96 -193 -151.5t-241 -55.5q-231 0 -383.5 98t-226.5 273q-90 -171 -244 -271t-346 -100q-98 0 -192.5 25t-182.5 79.5t-154.5 133t-106.5 194.5t-40 255q0 160 53.5 306t146 254t225 172t282.5 64q123 0 236.5 -38.5
t212.5 -124.5t153 -210q94 169 256 271t371 102q132 0 267.5 -41t207.5 -106v-353h-68q-63 185 -186 277t-289 92q-112 0 -202 -41.5t-152 -101.5q-131 -177 -131 -400q0 -134 42.5 -256.5t117.5 -215.5t185 -148t236 -55q176 0 305 141v362l-270 82v45h600zM1151 242
q127 212 127 391q0 204 -72.5 362t-196 242t-276.5 84q-183 0 -317 -129q-127 -212 -127 -391q0 -204 72.5 -362t196 -242t276.5 -84q183 0 317 129z" />
    <glyph glyph-name="P_P.liga" unicode="PP" horiz-adv-x="1941" 
d="M1372 1434q244 0 381 -88t137 -269q0 -109 -45 -197t-134.5 -150t-236.5 -86t-337 -3v-537l168 -59v-45h-531v45l168 59v607q-187 -108 -528 -70v-537l168 -59v-45h-531v45l168 59v1225l-168 60v45h1321zM414 737q275 -15 407.5 55t132.5 238q0 139 -99 224t-257 85h-184
v-602zM1137 737q275 -15 407.5 55t132.5 238q0 139 -99 224t-257 85h-184v-602z" />
    <glyph glyph-name="P_T.liga" unicode="PT" horiz-adv-x="2258" 
d="M1995 1339h-318v-1235l168 -59v-45h-530v45l168 59v1235h-459q143 -82 143 -262q0 -109 -45 -197t-134.5 -150t-236.5 -86t-337 -3v-537l168 -59v-45h-531v45l168 59v1225l-168 60v45h2136l62 -400h-47zM414 737q275 -15 407.5 55t132.5 238q0 139 -99 224t-257 85h-184
v-602z" />
    <glyph glyph-name="P_Tbar.liga" unicode="P&#x166;" horiz-adv-x="2258" 
d="M1995 1339h-318v-553h258v-94h-258v-588l168 -59v-45h-530v45l168 59v588h-258v94h258v553h-459q143 -82 143 -262q0 -109 -45 -197t-134.5 -150t-236.5 -86t-337 -3v-537l168 -59v-45h-531v45l168 59v1225l-168 60v45h2136l62 -400h-47zM414 737q275 -15 407.5 55
t132.5 238q0 139 -99 224t-257 85h-184v-602z" />
    <glyph glyph-name="P_Tcaron.liga" unicode="P&#x164;" horiz-adv-x="2258" 
d="M1468 1559l-247 309l43 39l321 -178l309 178l43 -37l-249 -311h-220zM1995 1339h-318v-1235l168 -59v-45h-530v45l168 59v1235h-459q143 -82 143 -262q0 -109 -45 -197t-134.5 -150t-236.5 -86t-337 -3v-537l168 -59v-45h-531v45l168 59v1225l-168 60v45h2136l62 -400
h-47zM414 737q275 -15 407.5 55t132.5 238q0 139 -99 224t-257 85h-184v-602z" />
    <glyph glyph-name="uni00500162.liga" unicode="P&#x162;" horiz-adv-x="2258" 
d="M1995 1339h-318v-1235l168 -59v-45h-213l-67 -104h2q96 -23 146 -73t50 -118t-54.5 -119t-137 -66t-178.5 5v55q89 -3 134.5 21.5t45.5 85.5q0 81 -84 98l-72 14l-2 4l127 197h-227v45l168 59v1235h-459q143 -82 143 -262q0 -109 -45 -197t-134.5 -150t-236.5 -86
t-337 -3v-537l168 -59v-45h-531v45l168 59v1225l-168 60v45h2136l62 -400h-47zM414 737q275 -15 407.5 55t132.5 238q0 139 -99 224t-257 85h-184v-602z" />
    <glyph glyph-name="uni0050021A.liga" unicode="P&#x21a;" horiz-adv-x="2258" 
d="M1995 1339h-318v-1235l168 -59v-45h-530v45l168 59v1235h-459q143 -82 143 -262q0 -109 -45 -197t-134.5 -150t-236.5 -86t-337 -3v-537l168 -59v-45h-531v45l168 59v1225l-168 60v45h2136l62 -400h-47zM414 737q275 -15 407.5 55t132.5 238q0 139 -99 224t-257 85h-184
v-602zM1630 -84q67 -66 77.5 -149.5t-40 -158t-149.5 -112.5l-37 33q47 53 41 152t-62 161v2z" />
    <glyph glyph-name="R_A.liga" unicode="RA" horiz-adv-x="2639" 
d="M2488 98l142 -53v-45h-547v45l192 53l-176 424h-555l-164 -405l219 -72v-45h-573l-463 668h-149v-564l168 -59v-45h-531v45l168 59v1225l-168 60v45h594q243 8 382.5 -82.5t139.5 -259.5q0 -134 -102 -248t-281 -154l424 -606l64 29l543 1321h120zM414 1339v-577h106
q223 6 328.5 90t105.5 209q0 111 -97 194.5t-257 83.5h-186zM1583 616h477l-241 584z" />
    <glyph glyph-name="R_A_W.liga" unicode="RAW" horiz-adv-x="3784" 
d="M3774 1434v-45l-139 -66l-420 -1323h-120l-379 1042l-361 -1042h-121l-182 522h-508l-164 -405l219 -72v-45h-573l-463 668h-149v-564l168 -59v-45h-531v45l168 59v1225l-168 60v45h594q243 8 382.5 -82.5t139.5 -259.5q0 -134 -102 -248t-281 -154l424 -606l64 29
l543 1321h120l414 -1162l315 912l-57 153l-135 52v45h547v-45l-203 -58l387 -1050l328 1028l-234 80v45h477zM414 1339v-577h106q223 6 328.5 90t105.5 209q0 111 -97 194.5t-257 83.5h-186zM1583 616h436l-202 578z" />
    <glyph glyph-name="R_Aacute.liga" unicode="R&#xc1;" horiz-adv-x="2639" 
d="M2257 1712l-553 -174l-41 43l395 326h4l195 -185v-10zM2488 98l142 -53v-45h-547v45l192 53l-176 424h-555l-164 -405l219 -72v-45h-573l-463 668h-149v-564l168 -59v-45h-531v45l168 59v1225l-168 60v45h594q243 8 382.5 -82.5t139.5 -259.5q0 -134 -102 -248t-281 -154
l424 -606l64 29l543 1321h120zM414 1339v-577h106q223 6 328.5 90t105.5 209q0 111 -97 194.5t-257 83.5h-186zM1583 616h477l-241 584z" />
    <glyph glyph-name="R_Abreve.liga" unicode="R&#x102;" horiz-adv-x="2639" 
d="M1866 1548q-48 0 -96 16t-95.5 51t-77.5 102t-30 157l65 2q25 -66 87 -110t147 -44t146.5 44t88.5 110l66 -2q0 -73 -20.5 -131t-52 -93.5t-73 -59.5t-80 -33t-75.5 -9zM2488 98l142 -53v-45h-547v45l192 53l-176 424h-555l-164 -405l219 -72v-45h-573l-463 668h-149
v-564l168 -59v-45h-531v45l168 59v1225l-168 60v45h594q243 8 382.5 -82.5t139.5 -259.5q0 -134 -102 -248t-281 -154l424 -606l64 29l543 1321h120zM414 1339v-577h106q223 6 328.5 90t105.5 209q0 111 -97 194.5t-257 83.5h-186zM1583 616h477l-241 584z" />
    <glyph glyph-name="R_Acircumflex.liga" unicode="R&#xc2;" horiz-adv-x="2639" 
d="M1855 1716l-309 -178l-43 37l250 311h219l248 -309l-43 -39zM2488 98l142 -53v-45h-547v45l192 53l-176 424h-555l-164 -405l219 -72v-45h-573l-463 668h-149v-564l168 -59v-45h-531v45l168 59v1225l-168 60v45h594q243 8 382.5 -82.5t139.5 -259.5q0 -134 -102 -248
t-281 -154l424 -606l64 29l543 1321h120zM414 1339v-577h106q223 6 328.5 90t105.5 209q0 111 -97 194.5t-257 83.5h-186zM1583 616h477l-241 584z" />
    <glyph glyph-name="R_Adieresis.liga" unicode="R&#xc4;" horiz-adv-x="2639" 
d="M1671 1612q-53 0 -90 37t-37 90t37 90t90 37t90 -37t37 -90t-37 -90t-90 -37zM2062 1612q-52 0 -89.5 37t-37.5 90t37.5 90t89.5 37t89.5 -37t37.5 -90t-37.5 -90t-89.5 -37zM2488 98l142 -53v-45h-547v45l192 53l-176 424h-555l-164 -405l219 -72v-45h-573l-463 668
h-149v-564l168 -59v-45h-531v45l168 59v1225l-168 60v45h594q243 8 382.5 -82.5t139.5 -259.5q0 -134 -102 -248t-281 -154l424 -606l64 29l543 1321h120zM414 1339v-577h106q223 6 328.5 90t105.5 209q0 111 -97 194.5t-257 83.5h-186zM1583 616h477l-241 584z" />
    <glyph glyph-name="R_Agrave.liga" unicode="R&#xc0;" horiz-adv-x="2639" 
d="M2052 1587l-33 -49l-524 148v8l166 213h4zM2488 98l142 -53v-45h-547v45l192 53l-176 424h-555l-164 -405l219 -72v-45h-573l-463 668h-149v-564l168 -59v-45h-531v45l168 59v1225l-168 60v45h594q243 8 382.5 -82.5t139.5 -259.5q0 -134 -102 -248t-281 -154l424 -606
l64 29l543 1321h120zM414 1339v-577h106q223 6 328.5 90t105.5 209q0 111 -97 194.5t-257 83.5h-186zM1583 616h477l-241 584z" />
    <glyph glyph-name="R_Amacron.liga" unicode="R&#x100;" horiz-adv-x="2639" 
d="M2140 1784v-148h-547v148h547zM2488 98l142 -53v-45h-547v45l192 53l-176 424h-555l-164 -405l219 -72v-45h-573l-463 668h-149v-564l168 -59v-45h-531v45l168 59v1225l-168 60v45h594q243 8 382.5 -82.5t139.5 -259.5q0 -134 -102 -248t-281 -154l424 -606l64 29
l543 1321h120zM414 1339v-577h106q223 6 328.5 90t105.5 209q0 111 -97 194.5t-257 83.5h-186zM1583 616h477l-241 584z" />
    <glyph glyph-name="R_Aogonek.liga" unicode="R&#x104;" horiz-adv-x="2639" 
d="M2488 98l142 -53v-45h-193q-92 -153 -92 -270q0 -72 50.5 -106t115.5 -15v-53q-53 -32 -115 -40t-114.5 7.5t-87.5 59t-35 106.5q0 76 56 151t150 160h-282v45l192 53l-176 424h-555l-164 -405l219 -72v-45h-573l-463 668h-149v-564l168 -59v-45h-531v45l168 59v1225
l-168 60v45h594q243 8 382.5 -82.5t139.5 -259.5q0 -134 -102 -248t-281 -154l424 -606l64 29l543 1321h120zM414 1339v-577h106q223 6 328.5 90t105.5 209q0 111 -97 194.5t-257 83.5h-186zM1583 616h477l-241 584z" />
    <glyph glyph-name="R_Aring.liga" unicode="R&#xc5;" horiz-adv-x="2639" 
d="M1866 1501q-99 0 -166.5 55.5t-67.5 147.5q0 90 60.5 158.5t171.5 68.5q100 0 167.5 -55t67.5 -147q0 -91 -60.5 -159.5t-172.5 -68.5zM1765 1798q-22 -29 -22 -74q0 -59 37 -89.5t98 -30.5q44 0 86 28q25 29 25 76q0 59 -36.5 90t-97.5 31q-48 0 -90 -31zM2488 98
l142 -53v-45h-547v45l192 53l-176 424h-555l-164 -405l219 -72v-45h-573l-463 668h-149v-564l168 -59v-45h-531v45l168 59v1225l-168 60v45h594q243 8 382.5 -82.5t139.5 -259.5q0 -134 -102 -248t-281 -154l424 -606l64 29l543 1321h120zM414 1339v-577h106q223 6 328.5 90
t105.5 209q0 111 -97 194.5t-257 83.5h-186zM1583 616h477l-241 584z" />
    <glyph glyph-name="R_Atilde.liga" unicode="R&#xc3;" horiz-adv-x="2639" 
d="M1706 1692q-27 0 -48 -8.5t-37.5 -29.5t-25 -35t-24.5 -46l-58 20q28 133 89 207t149 74q38 0 73.5 -13.5t61.5 -32t49.5 -37.5t48.5 -32.5t48 -13.5q26 0 46.5 8.5t37 29.5t25 35t24.5 46l57 -21q-28 -132 -89 -206t-148 -74q-47 0 -90.5 20t-70.5 44.5t-59 44.5t-59 20
zM2488 98l142 -53v-45h-547v45l192 53l-176 424h-555l-164 -405l219 -72v-45h-573l-463 668h-149v-564l168 -59v-45h-531v45l168 59v1225l-168 60v45h594q243 8 382.5 -82.5t139.5 -259.5q0 -134 -102 -248t-281 -154l424 -606l64 29l543 1321h120zM414 1339v-577h106
q223 6 328.5 90t105.5 209q0 111 -97 194.5t-257 83.5h-186zM1583 616h477l-241 584z" />
    <glyph glyph-name="R_I.liga" unicode="RI" horiz-adv-x="1882" 
d="M895 530q112 -161 210.5 -257t199 -137.5t202 -17.5t211.5 113l41 -34q-62 -87 -147 -143t-186 -71t-205 9.5t-210.5 104.5t-195.5 208l-252 363h-149v-564l168 -59v-45h-531v45l168 59v1225l-168 60v45h594q243 8 382.5 -82.5t139.5 -259.5q0 -134 -102 -248t-281 -154z
M1810 1389l-168 -60v-610l168 -60v-45h-530v45l168 60v610l-168 60v45h530v-45zM414 1339v-577h106q223 6 328.5 90t105.5 209q0 111 -97 194.5t-257 83.5h-186z" />
    <glyph glyph-name="R_Iacute.liga" unicode="R&#xcd;" horiz-adv-x="1882" 
d="M1739 1907l194 -185v-10l-553 -174l-41 43l396 326h4zM895 530q112 -161 210.5 -257t199 -137.5t202 -17.5t211.5 113l41 -34q-62 -87 -147 -143t-186 -71t-205 9.5t-210.5 104.5t-195.5 208l-252 363h-149v-564l168 -59v-45h-531v45l168 59v1225l-168 60v45h594
q243 8 382.5 -82.5t139.5 -259.5q0 -134 -102 -248t-281 -154zM1280 1389v45h530v-45l-168 -60v-610l168 -60v-45h-530v45l168 60v610zM414 1339v-577h106q223 6 328.5 90t105.5 209q0 111 -97 194.5t-257 83.5h-186z" />
    <glyph glyph-name="R_Ibreve.liga" unicode="R&#x12c;" horiz-adv-x="1882" 
d="M1542 1548q-48 0 -96 16t-95.5 51t-77.5 102t-30 157l66 2q25 -66 86.5 -110t146.5 -44t147 44t89 110l65 -2q0 -73 -20.5 -131t-52 -93.5t-73 -59.5t-80 -33t-75.5 -9zM895 530q112 -161 210.5 -257t199 -137.5t202 -17.5t211.5 113l41 -34q-62 -87 -147 -143t-186 -71
t-205 9.5t-210.5 104.5t-195.5 208l-252 363h-149v-564l168 -59v-45h-531v45l168 59v1225l-168 60v45h594q243 8 382.5 -82.5t139.5 -259.5q0 -134 -102 -248t-281 -154zM1280 1389v45h530v-45l-168 -60v-610l168 -60v-45h-530v45l168 60v610zM414 1339v-577h106
q223 6 328.5 90t105.5 209q0 111 -97 194.5t-257 83.5h-186z" />
    <glyph glyph-name="R_Icircumflex.liga" unicode="R&#xce;" horiz-adv-x="1882" 
d="M1649 1886l247 -309l-43 -39l-321 178l-309 -178l-43 37l250 311h219zM895 530q112 -161 210.5 -257t199 -137.5t202 -17.5t211.5 113l41 -34q-62 -87 -147 -143t-186 -71t-205 9.5t-210.5 104.5t-195.5 208l-252 363h-149v-564l168 -59v-45h-531v45l168 59v1225l-168 60
v45h594q243 8 382.5 -82.5t139.5 -259.5q0 -134 -102 -248t-281 -154zM1280 1389v45h530v-45l-168 -60v-610l168 -60v-45h-530v45l168 60v610zM414 1339v-577h106q223 6 328.5 90t105.5 209q0 111 -97 194.5t-257 83.5h-186z" />
    <glyph glyph-name="R_Idieresis.liga" unicode="R&#xcf;" horiz-adv-x="1882" 
d="M1348 1612q-52 0 -89.5 37t-37.5 90t37.5 90t89.5 37t89.5 -37t37.5 -90t-37.5 -90t-89.5 -37zM1739 1866q53 0 90 -37t37 -90t-37 -90t-90 -37t-90 37t-37 90t37 90t90 37zM895 530q112 -161 210.5 -257t199 -137.5t202 -17.5t211.5 113l41 -34q-62 -87 -147 -143
t-186 -71t-205 9.5t-210.5 104.5t-195.5 208l-252 363h-149v-564l168 -59v-45h-531v45l168 59v1225l-168 60v45h594q243 8 382.5 -82.5t139.5 -259.5q0 -134 -102 -248t-281 -154zM1280 1389v45h530v-45l-168 -60v-610l168 -60v-45h-530v45l168 60v610zM414 1339v-577h106
q223 6 328.5 90t105.5 209q0 111 -97 194.5t-257 83.5h-186z" />
    <glyph glyph-name="R_Idotaccent.liga" unicode="R&#x130;" horiz-adv-x="1882" 
d="M1544 1608q-54 0 -92.5 38.5t-38.5 92.5t38.5 92.5t92.5 38.5t92.5 -38.5t38.5 -92.5t-38.5 -92.5t-92.5 -38.5zM895 530q112 -161 210.5 -257t199 -137.5t202 -17.5t211.5 113l41 -34q-62 -87 -147 -143t-186 -71t-205 9.5t-210.5 104.5t-195.5 208l-252 363h-149v-564
l168 -59v-45h-531v45l168 59v1225l-168 60v45h594q243 8 382.5 -82.5t139.5 -259.5q0 -134 -102 -248t-281 -154zM1810 1389l-168 -60v-610l168 -60v-45h-530v45l168 60v610l-168 60v45h530v-45zM414 1339v-577h106q223 6 328.5 90t105.5 209q0 111 -97 194.5t-257 83.5
h-186z" />
    <glyph glyph-name="R_Igrave.liga" unicode="R&#xcc;" horiz-adv-x="1882" 
d="M1729 1587l-33 -49l-525 148v8l166 213h4zM895 530q112 -161 210.5 -257t199 -137.5t202 -17.5t211.5 113l41 -34q-62 -87 -147 -143t-186 -71t-205 9.5t-210.5 104.5t-195.5 208l-252 363h-149v-564l168 -59v-45h-531v45l168 59v1225l-168 60v45h594q243 8 382.5 -82.5
t139.5 -259.5q0 -134 -102 -248t-281 -154zM1810 1389l-168 -60v-610l168 -60v-45h-530v45l168 60v610l-168 60v45h530v-45zM414 1339v-577h106q223 6 328.5 90t105.5 209q0 111 -97 194.5t-257 83.5h-186z" />
    <glyph glyph-name="R_Imacron.liga" unicode="R&#x12a;" horiz-adv-x="1882" 
d="M1270 1784h547v-148h-547v148zM895 530q112 -161 210.5 -257t199 -137.5t202 -17.5t211.5 113l41 -34q-62 -87 -147 -143t-186 -71t-205 9.5t-210.5 104.5t-195.5 208l-252 363h-149v-564l168 -59v-45h-531v45l168 59v1225l-168 60v45h594q243 8 382.5 -82.5
t139.5 -259.5q0 -134 -102 -248t-281 -154zM1280 1389v45h530v-45l-168 -60v-610l168 -60v-45h-530v45l168 60v610zM414 1339v-577h106q223 6 328.5 90t105.5 209q0 111 -97 194.5t-257 83.5h-186z" />
    <glyph glyph-name="R_Itilde.liga" unicode="R&#x128;" horiz-adv-x="1882" 
d="M1382 1692q-27 0 -48 -8.5t-37.5 -29.5t-25 -35t-24.5 -46l-57 20q28 133 88.5 207t148.5 74q38 0 73.5 -13.5t61.5 -32t49.5 -37.5t48.5 -32.5t48 -13.5q26 0 46.5 8.5t37 29.5t25 35t24.5 46l57 -21q-28 -132 -89 -206t-148 -74q-47 0 -90.5 20t-70.5 44.5t-59 44.5
t-59 20zM895 530q112 -161 210.5 -257t199 -137.5t202 -17.5t211.5 113l41 -34q-62 -87 -147 -143t-186 -71t-205 9.5t-210.5 104.5t-195.5 208l-252 363h-149v-564l168 -59v-45h-531v45l168 59v1225l-168 60v45h594q243 8 382.5 -82.5t139.5 -259.5q0 -134 -102 -248
t-281 -154zM1280 1389v45h530v-45l-168 -60v-610l168 -60v-45h-530v45l168 60v610zM414 1339v-577h106q223 6 328.5 90t105.5 209q0 111 -97 194.5t-257 83.5h-186z" />
    <glyph glyph-name="R_T.liga" unicode="RT" horiz-adv-x="2437" 
d="M2173 1339h-318v-1235l168 -59v-45h-530v45l168 59v1235h-631q137 -83 137 -247q0 -134 -102 -248t-281 -154l416 -594l150 -51v-45h-324l-463 668h-149v-564l168 -59v-45h-531v45l168 59v1225l-168 60v45h2314l62 -400h-47zM520 762q223 6 328.5 90t105.5 209
q0 111 -97 194.5t-257 83.5h-186v-577h106z" />
    <glyph glyph-name="R_T_H.liga" unicode="RTH" horiz-adv-x="3698" 
d="M1855 1339v-1235l168 -59v-45h-530v45l168 59v1235h-617q123 -88 123 -247q0 -134 -102 -248t-281 -154l416 -594l150 -51v-45h-324l-463 668h-149v-564l168 -59v-45h-531v45l168 59v1225l-168 60v45h594h72h1771l62 -400h-47l-207 305h-441zM3647 1389l-167 -60v-1225
l167 -59v-45h-530v45l168 59v584h-725v-584l168 -59v-45h-530v45l167 59v678h920v547l-168 60v45h530v-45zM520 762q223 6 328.5 90t105.5 209q0 111 -97 194.5t-257 83.5h-186v-577h106z" />
    <glyph glyph-name="R_Tbar.liga" unicode="R&#x166;" horiz-adv-x="2437" 
d="M2173 1339h-318v-553h259v-94h-259v-588l168 -59v-45h-530v45l168 59v588h-258v94h258v553h-631q137 -83 137 -247q0 -134 -102 -248t-281 -154l416 -594l150 -51v-45h-324l-463 668h-149v-564l168 -59v-45h-531v45l168 59v1225l-168 60v45h2314l62 -400h-47zM520 762
q223 6 328.5 90t105.5 209q0 111 -97 194.5t-257 83.5h-186v-577h106z" />
    <glyph glyph-name="R_Tcaron.liga" unicode="R&#x164;" horiz-adv-x="2437" 
d="M1647 1559l-248 309l43 39l321 -178l310 178l43 -37l-250 -311h-219zM2173 1339h-318v-1235l168 -59v-45h-530v45l168 59v1235h-631q137 -83 137 -247q0 -134 -102 -248t-281 -154l416 -594l150 -51v-45h-324l-463 668h-149v-564l168 -59v-45h-531v45l168 59v1225
l-168 60v45h2314l62 -400h-47zM520 762q223 6 328.5 90t105.5 209q0 111 -97 194.5t-257 83.5h-186v-577h106z" />
    <glyph glyph-name="uni00520162.liga" unicode="R&#x162;" horiz-adv-x="2437" 
d="M2173 1339h-318v-1235l168 -59v-45h-213l-67 -104h2q96 -23 146.5 -73t50.5 -118t-55 -119t-137.5 -66t-178.5 5v55q89 -3 134.5 21.5t45.5 85.5q0 81 -84 98l-72 14l-2 4l127 197h-227v45l168 59v1235h-631q137 -83 137 -247q0 -134 -102 -248t-281 -154l416 -594
l150 -51v-45h-324l-463 668h-149v-564l168 -59v-45h-531v45l168 59v1225l-168 60v45h2314l62 -400h-47zM520 762q223 6 328.5 90t105.5 209q0 111 -97 194.5t-257 83.5h-186v-577h106z" />
    <glyph glyph-name="uni0052021A.liga" unicode="R&#x21a;" horiz-adv-x="2437" 
d="M2173 1339h-318v-1235l168 -59v-45h-530v45l168 59v1235h-631q137 -83 137 -247q0 -134 -102 -248t-281 -154l416 -594l150 -51v-45h-324l-463 668h-149v-564l168 -59v-45h-531v45l168 59v1225l-168 60v45h2314l62 -400h-47zM520 762q223 6 328.5 90t105.5 209
q0 111 -97 194.5t-257 83.5h-186v-577h106zM1808 -84q67 -66 77.5 -149.5t-40 -158t-149.5 -112.5l-37 33q47 53 41 152t-62 161v2z" />
    <glyph glyph-name="Racute_A.liga" unicode="&#x154;A" horiz-adv-x="2639" 
d="M1016 1712l-553 -174l-41 43l395 326h4l195 -185v-10zM2488 98l142 -53v-45h-547v45l192 53l-176 424h-555l-164 -405l219 -72v-45h-573l-463 668h-149v-564l168 -59v-45h-531v45l168 59v1225l-168 60v45h594q243 8 382.5 -82.5t139.5 -259.5q0 -134 -102 -248t-281 -154
l424 -606l64 29l543 1321h120zM414 1339v-577h106q223 6 328.5 90t105.5 209q0 111 -97 194.5t-257 83.5h-186zM1583 616h477l-241 584z" />
    <glyph glyph-name="Racute_I.liga" unicode="&#x154;I" horiz-adv-x="1882" 
d="M1016 1712l-553 -174l-41 43l395 326h4l195 -185v-10zM895 530q112 -161 210.5 -257t199 -137.5t202 -17.5t211.5 113l41 -34q-62 -87 -147 -143t-186 -71t-205 9.5t-210.5 104.5t-195.5 208l-252 363h-149v-564l168 -59v-45h-531v45l168 59v1225l-168 60v45h594
q243 8 382.5 -82.5t139.5 -259.5q0 -134 -102 -248t-281 -154zM1810 1389l-168 -60v-610l168 -60v-45h-530v45l168 60v610l-168 60v45h530v-45zM414 1339v-577h106q223 6 328.5 90t105.5 209q0 111 -97 194.5t-257 83.5h-186z" />
    <glyph glyph-name="Racute_T.liga" unicode="&#x154;T" horiz-adv-x="2437" 
d="M1016 1712l-553 -174l-41 43l395 326h4l195 -185v-10zM2173 1339h-318v-1235l168 -59v-45h-530v45l168 59v1235h-631q137 -83 137 -247q0 -134 -102 -248t-281 -154l416 -594l150 -51v-45h-324l-463 668h-149v-564l168 -59v-45h-531v45l168 59v1225l-168 60v45h2314
l62 -400h-47zM520 762q223 6 328.5 90t105.5 209q0 111 -97 194.5t-257 83.5h-186v-577h106z" />
    <glyph glyph-name="Rcaron_A.liga" unicode="&#x158;A" horiz-adv-x="2639" 
d="M516 1559l-248 309l43 39l322 -178l309 178l43 -37l-250 -311h-219zM2488 98l142 -53v-45h-547v45l192 53l-176 424h-555l-164 -405l219 -72v-45h-573l-463 668h-149v-564l168 -59v-45h-531v45l168 59v1225l-168 60v45h594q243 8 382.5 -82.5t139.5 -259.5
q0 -134 -102 -248t-281 -154l424 -606l64 29l543 1321h120zM414 1339v-577h106q223 6 328.5 90t105.5 209q0 111 -97 194.5t-257 83.5h-186zM1583 616h477l-241 584z" />
    <glyph glyph-name="Rcaron_Aacute.liga" unicode="&#x158;&#xc1;" horiz-adv-x="2639" 
d="M516 1559l-248 309l43 39l322 -178l309 178l43 -37l-250 -311h-219zM2257 1712l-553 -174l-41 43l395 326h4l195 -185v-10zM2488 98l142 -53v-45h-547v45l192 53l-176 424h-555l-164 -405l219 -72v-45h-573l-463 668h-149v-564l168 -59v-45h-531v45l168 59v1225l-168 60
v45h594q243 8 382.5 -82.5t139.5 -259.5q0 -134 -102 -248t-281 -154l424 -606l64 29l543 1321h120zM414 1339v-577h106q223 6 328.5 90t105.5 209q0 111 -97 194.5t-257 83.5h-186zM1583 616h477l-241 584z" />
    <glyph glyph-name="Rcaron_I.liga" unicode="&#x158;I" horiz-adv-x="1882" 
d="M516 1559l-248 309l43 39l322 -178l309 178l43 -37l-250 -311h-219zM895 530q112 -161 210.5 -257t199 -137.5t202 -17.5t211.5 113l41 -34q-62 -87 -147 -143t-186 -71t-205 9.5t-210.5 104.5t-195.5 208l-252 363h-149v-564l168 -59v-45h-531v45l168 59v1225l-168 60
v45h594q243 8 382.5 -82.5t139.5 -259.5q0 -134 -102 -248t-281 -154zM1810 1389l-168 -60v-610l168 -60v-45h-530v45l168 60v610l-168 60v45h530v-45zM414 1339v-577h106q223 6 328.5 90t105.5 209q0 111 -97 194.5t-257 83.5h-186z" />
    <glyph glyph-name="Rcaron_Iacute.liga" unicode="&#x158;&#xcd;" horiz-adv-x="1882" 
d="M516 1559l-248 309l43 39l322 -178l309 178l43 -37l-250 -311h-219zM1739 1907l194 -185v-10l-553 -174l-41 43l396 326h4zM895 530q112 -161 210.5 -257t199 -137.5t202 -17.5t211.5 113l41 -34q-62 -87 -147 -143t-186 -71t-205 9.5t-210.5 104.5t-195.5 208l-252 363
h-149v-564l168 -59v-45h-531v45l168 59v1225l-168 60v45h594q243 8 382.5 -82.5t139.5 -259.5q0 -134 -102 -248t-281 -154zM1280 1389v45h530v-45l-168 -60v-610l168 -60v-45h-530v45l168 60v610zM414 1339v-577h106q223 6 328.5 90t105.5 209q0 111 -97 194.5t-257 83.5
h-186z" />
    <glyph glyph-name="Rcaron_T.liga" unicode="&#x158;T" horiz-adv-x="2437" 
d="M516 1559l-248 309l43 39l322 -178l309 178l43 -37l-250 -311h-219zM2173 1339h-318v-1235l168 -59v-45h-530v45l168 59v1235h-631q137 -83 137 -247q0 -134 -102 -248t-281 -154l416 -594l150 -51v-45h-324l-463 668h-149v-564l168 -59v-45h-531v45l168 59v1225l-168 60
v45h2314l62 -400h-47zM520 762q223 6 328.5 90t105.5 209q0 111 -97 194.5t-257 83.5h-186v-577h106z" />
    <glyph glyph-name="Rcommaaccent_A.liga" unicode="&#x156;A" horiz-adv-x="2639" 
d="M2488 98l142 -53v-45h-547v45l192 53l-176 424h-555l-164 -405l219 -72v-45h-573l-463 668h-149v-564l168 -59v-45h-531v45l168 59v1225l-168 60v45h594q243 8 382.5 -82.5t139.5 -259.5q0 -134 -102 -248t-281 -154l424 -606l64 29l543 1321h120zM414 1339v-577h106
q223 6 328.5 90t105.5 209q0 111 -97 194.5t-257 83.5h-186zM1583 616h477l-241 584zM758 -84q67 -66 77 -149.5t-40.5 -158t-149.5 -112.5l-37 33q47 53 41.5 152t-61.5 161v2z" />
    <glyph glyph-name="Rcommaaccent_I.liga" unicode="&#x156;I" horiz-adv-x="1882" 
d="M895 530q112 -161 210.5 -257t199 -137.5t202 -17.5t211.5 113l41 -34q-62 -87 -147 -143t-186 -71t-205 9.5t-210.5 104.5t-195.5 208l-252 363h-149v-564l168 -59v-45h-531v45l168 59v1225l-168 60v45h594q243 8 382.5 -82.5t139.5 -259.5q0 -134 -102 -248t-281 -154z
M1810 1389l-168 -60v-610l168 -60v-45h-530v45l168 60v610l-168 60v45h530v-45zM414 1339v-577h106q223 6 328.5 90t105.5 209q0 111 -97 194.5t-257 83.5h-186zM758 -84q67 -66 77 -149.5t-40.5 -158t-149.5 -112.5l-37 33q47 53 41.5 152t-61.5 161v2z" />
    <glyph glyph-name="Rcommaaccent_T.liga" unicode="&#x156;T" horiz-adv-x="2437" 
d="M2173 1339h-318v-1235l168 -59v-45h-530v45l168 59v1235h-631q137 -83 137 -247q0 -134 -102 -248t-281 -154l416 -594l150 -51v-45h-324l-463 668h-149v-564l168 -59v-45h-531v45l168 59v1225l-168 60v45h2314l62 -400h-47zM520 762q223 6 328.5 90t105.5 209
q0 111 -97 194.5t-257 83.5h-186v-577h106zM758 -84q67 -66 77 -149.5t-40.5 -158t-149.5 -112.5l-37 33q47 53 41.5 152t-61.5 161v2z" />
    <glyph glyph-name="S_S.liga" unicode="SS" horiz-adv-x="2424" 
d="M1466 1124q0 -58 21 -101.5t53.5 -70t85 -46t101 -30t114.5 -22.5q68 -12 103 -19t96 -24.5t94.5 -36.5t77.5 -52t66 -73t38.5 -98.5t16.5 -130.5q0 -185 -154.5 -315t-386.5 -130q-47 0 -86.5 9t-73.5 24t-67 46t-61.5 65t-64.5 91.5t-67.5 114t-77.5 144.5l-286 543
q-79 151 -192 239t-243 88q-119 0 -215 -41q-104 -72 -104 -174q0 -64 24 -110t66 -72t97 -45.5t117.5 -29t128.5 -24t128.5 -29.5t117.5 -46.5t97 -73.5t66 -112t24 -162q0 -185 -154 -315t-386 -130q-269 0 -435 127l-63 408h47q50 -92 98.5 -161.5t108.5 -127.5
t130.5 -88.5t149.5 -30.5q172 0 244 50q105 90 105 194q0 78 -29 132.5t-78 85t-112.5 50t-134 33t-141 28t-134 41t-112.5 66.5t-78 109.5t-29 165.5q0 116 67.5 208.5t179.5 142.5t246 50q152 0 262.5 -96t223.5 -309l286 -543q30 -57 52 -95.5t51.5 -85t55 -77t59 -61.5
t67.5 -49t75 -29t87 -11q172 0 244 50q104 89 104 194q0 78 -29 132.5t-78 85t-112.5 50t-134 33t-141 28t-134 41t-112.5 66.5t-78 109.5t-29 165.5q0 116 67.5 208.5t180 142.5t246.5 50q124 0 238.5 -36t185.5 -89v-321h-47q-74 152 -179.5 239.5t-234.5 87.5
q-119 0 -215 -41q-105 -73 -105 -174z" />
    <glyph glyph-name="S_Scaron.liga" unicode="S&#x160;" horiz-adv-x="2424" 
d="M1714 1559l-248 309l43 39l322 -178l309 178l43 -37l-250 -311h-219zM1466 1124q0 -58 21 -101.5t53.5 -70t85 -46t101 -30t114.5 -22.5q68 -12 103 -19t96 -24.5t94.5 -36.5t77.5 -52t66 -73t38.5 -98.5t16.5 -130.5q0 -185 -154.5 -315t-386.5 -130q-47 0 -86.5 9
t-73.5 24t-67 46t-61.5 65t-64.5 91.5t-67.5 114t-77.5 144.5l-286 543q-79 151 -192 239t-243 88q-119 0 -215 -41q-104 -72 -104 -174q0 -64 24 -110t66 -72t97 -45.5t117.5 -29t128.5 -24t128.5 -29.5t117.5 -46.5t97 -73.5t66 -112t24 -162q0 -185 -154 -315t-386 -130
q-269 0 -435 127l-63 408h47q50 -92 98.5 -161.5t108.5 -127.5t130.5 -88.5t149.5 -30.5q172 0 244 50q105 90 105 194q0 78 -29 132.5t-78 85t-112.5 50t-134 33t-141 28t-134 41t-112.5 66.5t-78 109.5t-29 165.5q0 116 67.5 208.5t179.5 142.5t246 50q152 0 262.5 -96
t223.5 -309l286 -543q30 -57 52 -95.5t51.5 -85t55 -77t59 -61.5t67.5 -49t75 -29t87 -11q172 0 244 50q104 89 104 194q0 78 -29 132.5t-78 85t-112.5 50t-134 33t-141 28t-134 41t-112.5 66.5t-78 109.5t-29 165.5q0 116 67.5 208.5t180 142.5t246.5 50q124 0 238.5 -36
t185.5 -89v-321h-47q-74 152 -179.5 239.5t-234.5 87.5q-119 0 -215 -41q-105 -73 -105 -174z" />
    <glyph glyph-name="S_T.liga" unicode="ST" horiz-adv-x="2146" 
d="M1882 1339h-317v-1235l168 -59v-45h-531v45l168 59v1235h-797q-119 0 -215 -41q-104 -72 -104 -174q0 -67 29.5 -113.5t79.5 -71t115 -40t137 -28t144 -28t137 -45t115 -74.5t79.5 -122.5t29.5 -181.5q0 -185 -154 -315t-386 -130q-269 0 -435 127l-63 408h47
q50 -92 98.5 -161.5t108.5 -127.5t130.5 -88.5t149.5 -30.5q172 0 244 50q105 90 105 194q0 73 -23.5 127.5t-64.5 86t-95 55t-115.5 35t-125.5 26t-125.5 28t-115.5 41t-95 65t-64.5 100.5t-23.5 147q0 174 133 275.5t340 101.5h1485l61 -400h-47z" />
    <glyph glyph-name="S_T_Y.liga" unicode="STY" horiz-adv-x="3198" 
d="M3058 1317l-451 -701v-512l168 -59v-45h-530v45l168 59v506l-484 725l-12 4h-352v-1235l168 -59v-45h-531v45l168 59v1235h-797q-119 0 -215 -41q-104 -72 -104 -174q0 -67 29.5 -113.5t79.5 -71t115 -40t137 -28t144 -28t137 -45t115 -74.5t79.5 -122.5t29.5 -181.5
q0 -185 -154 -315t-386 -130q-269 0 -435 127l-63 408h47q50 -92 98.5 -161.5t108.5 -127.5t130.5 -88.5t149.5 -30.5q172 0 244 50q105 90 105 194q0 73 -23.5 127.5t-64.5 86t-95 55t-115.5 35t-125.5 26t-125.5 28t-115.5 41t-95 65t-64.5 100.5t-23.5 147
q0 174 133 275.5t340 101.5h1745v-45l-176 -50l407 -616l377 594l-211 72v45h477v-45z" />
    <glyph glyph-name="S_Tbar.liga" unicode="S&#x166;" horiz-adv-x="2146" 
d="M1882 1339h-317v-553h258v-94h-258v-588l168 -59v-45h-531v45l168 59v588h-258v94h258v553h-797q-119 0 -215 -41q-104 -72 -104 -174q0 -67 29.5 -113.5t79.5 -71t115 -40t137 -28t144 -28t137 -45t115 -74.5t79.5 -122.5t29.5 -181.5q0 -185 -154 -315t-386 -130
q-269 0 -435 127l-63 408h47q50 -92 98.5 -161.5t108.5 -127.5t130.5 -88.5t149.5 -30.5q172 0 244 50q105 90 105 194q0 73 -23.5 127.5t-64.5 86t-95 55t-115.5 35t-125.5 26t-125.5 28t-115.5 41t-95 65t-64.5 100.5t-23.5 147q0 174 133 275.5t340 101.5h1485l61 -400
h-47z" />
    <glyph glyph-name="S_Tcaron.liga" unicode="S&#x164;" horiz-adv-x="2146" 
d="M1356 1559l-248 309l43 39l322 -178l309 178l43 -37l-250 -311h-219zM1882 1339h-317v-1235l168 -59v-45h-531v45l168 59v1235h-797q-119 0 -215 -41q-104 -72 -104 -174q0 -67 29.5 -113.5t79.5 -71t115 -40t137 -28t144 -28t137 -45t115 -74.5t79.5 -122.5t29.5 -181.5
q0 -185 -154 -315t-386 -130q-269 0 -435 127l-63 408h47q50 -92 98.5 -161.5t108.5 -127.5t130.5 -88.5t149.5 -30.5q172 0 244 50q105 90 105 194q0 73 -23.5 127.5t-64.5 86t-95 55t-115.5 35t-125.5 26t-125.5 28t-115.5 41t-95 65t-64.5 100.5t-23.5 147
q0 174 133 275.5t340 101.5h1485l61 -400h-47z" />
    <glyph glyph-name="uni00530162.liga" unicode="S&#x162;" horiz-adv-x="2146" 
d="M1882 1339h-317v-1235l168 -59v-45h-209l-68 -104h2q96 -23 146.5 -73t50.5 -118t-55 -119t-137.5 -66t-178.5 5v55q89 -3 134.5 21.5t45.5 85.5q0 81 -84 98l-71 14l-2 4l127 197h-232v45l168 59v1235h-797q-119 0 -215 -41q-104 -72 -104 -174q0 -67 29.5 -113.5
t79.5 -71t115 -40t137 -28t144 -28t137 -45t115 -74.5t79.5 -122.5t29.5 -181.5q0 -185 -154 -315t-386 -130q-269 0 -435 127l-63 408h47q50 -92 98.5 -161.5t108.5 -127.5t130.5 -88.5t149.5 -30.5q172 0 244 50q105 90 105 194q0 73 -23.5 127.5t-64.5 86t-95 55
t-115.5 35t-125.5 26t-125.5 28t-115.5 41t-95 65t-64.5 100.5t-23.5 147q0 174 133 275.5t340 101.5h1485l61 -400h-47z" />
    <glyph glyph-name="uni0053021A.liga" unicode="S&#x21a;" horiz-adv-x="2146" 
d="M1882 1339h-317v-1235l168 -59v-45h-531v45l168 59v1235h-797q-119 0 -215 -41q-104 -72 -104 -174q0 -67 29.5 -113.5t79.5 -71t115 -40t137 -28t144 -28t137 -45t115 -74.5t79.5 -122.5t29.5 -181.5q0 -185 -154 -315t-386 -130q-269 0 -435 127l-63 408h47
q50 -92 98.5 -161.5t108.5 -127.5t130.5 -88.5t149.5 -30.5q172 0 244 50q105 90 105 194q0 73 -23.5 127.5t-64.5 86t-95 55t-115.5 35t-125.5 26t-125.5 28t-115.5 41t-95 65t-64.5 100.5t-23.5 147q0 174 133 275.5t340 101.5h1485l61 -400h-47zM1522 -84
q67 -66 77 -149.5t-40.5 -158t-149.5 -112.5l-37 33q47 53 41.5 152t-61.5 161v2z" />
    <glyph glyph-name="Sacute_T.liga" unicode="&#x15a;T" horiz-adv-x="2146" 
d="M1001 1712l-552 -174l-41 43l395 326h4l194 -185v-10zM1882 1339h-317v-1235l168 -59v-45h-531v45l168 59v1235h-797q-119 0 -215 -41q-104 -72 -104 -174q0 -67 29.5 -113.5t79.5 -71t115 -40t137 -28t144 -28t137 -45t115 -74.5t79.5 -122.5t29.5 -181.5
q0 -185 -154 -315t-386 -130q-269 0 -435 127l-63 408h47q50 -92 98.5 -161.5t108.5 -127.5t130.5 -88.5t149.5 -30.5q172 0 244 50q105 90 105 194q0 73 -23.5 127.5t-64.5 86t-95 55t-115.5 35t-125.5 26t-125.5 28t-115.5 41t-95 65t-64.5 100.5t-23.5 147
q0 174 133 275.5t340 101.5h1485l61 -400h-47z" />
    <glyph glyph-name="Scaron_S.liga" unicode="&#x160;S" horiz-adv-x="2424" 
d="M502 1559l-248 309l43 39l321 -178l310 178l43 -37l-250 -311h-219zM1466 1124q0 -58 21 -101.5t53.5 -70t85 -46t101 -30t114.5 -22.5q68 -12 103 -19t96 -24.5t94.5 -36.5t77.5 -52t66 -73t38.5 -98.5t16.5 -130.5q0 -185 -154.5 -315t-386.5 -130q-47 0 -86.5 9
t-73.5 24t-67 46t-61.5 65t-64.5 91.5t-67.5 114t-77.5 144.5l-286 543q-79 151 -192 239t-243 88q-119 0 -215 -41q-104 -72 -104 -174q0 -64 24 -110t66 -72t97 -45.5t117.5 -29t128.5 -24t128.5 -29.5t117.5 -46.5t97 -73.5t66 -112t24 -162q0 -185 -154 -315t-386 -130
q-269 0 -435 127l-63 408h47q50 -92 98.5 -161.5t108.5 -127.5t130.5 -88.5t149.5 -30.5q172 0 244 50q105 90 105 194q0 78 -29 132.5t-78 85t-112.5 50t-134 33t-141 28t-134 41t-112.5 66.5t-78 109.5t-29 165.5q0 116 67.5 208.5t179.5 142.5t246 50q152 0 262.5 -96
t223.5 -309l286 -543q30 -57 52 -95.5t51.5 -85t55 -77t59 -61.5t67.5 -49t75 -29t87 -11q172 0 244 50q104 89 104 194q0 78 -29 132.5t-78 85t-112.5 50t-134 33t-141 28t-134 41t-112.5 66.5t-78 109.5t-29 165.5q0 116 67.5 208.5t180 142.5t246.5 50q124 0 238.5 -36
t185.5 -89v-321h-47q-74 152 -179.5 239.5t-234.5 87.5q-119 0 -215 -41q-105 -73 -105 -174z" />
    <glyph glyph-name="Scaron_Scaron.liga" unicode="&#x160;&#x160;" horiz-adv-x="2424" 
d="M502 1559l-248 309l43 39l321 -178l310 178l43 -37l-250 -311h-219zM1714 1559l-248 309l43 39l322 -178l309 178l43 -37l-250 -311h-219zM1466 1124q0 -58 21 -101.5t53.5 -70t85 -46t101 -30t114.5 -22.5q68 -12 103 -19t96 -24.5t94.5 -36.5t77.5 -52t66 -73
t38.5 -98.5t16.5 -130.5q0 -185 -154.5 -315t-386.5 -130q-47 0 -86.5 9t-73.5 24t-67 46t-61.5 65t-64.5 91.5t-67.5 114t-77.5 144.5l-286 543q-79 151 -192 239t-243 88q-119 0 -215 -41q-104 -72 -104 -174q0 -64 24 -110t66 -72t97 -45.5t117.5 -29t128.5 -24
t128.5 -29.5t117.5 -46.5t97 -73.5t66 -112t24 -162q0 -185 -154 -315t-386 -130q-269 0 -435 127l-63 408h47q50 -92 98.5 -161.5t108.5 -127.5t130.5 -88.5t149.5 -30.5q172 0 244 50q105 90 105 194q0 78 -29 132.5t-78 85t-112.5 50t-134 33t-141 28t-134 41
t-112.5 66.5t-78 109.5t-29 165.5q0 116 67.5 208.5t179.5 142.5t246 50q152 0 262.5 -96t223.5 -309l286 -543q30 -57 52 -95.5t51.5 -85t55 -77t59 -61.5t67.5 -49t75 -29t87 -11q172 0 244 50q104 89 104 194q0 78 -29 132.5t-78 85t-112.5 50t-134 33t-141 28t-134 41
t-112.5 66.5t-78 109.5t-29 165.5q0 116 67.5 208.5t180 142.5t246.5 50q124 0 238.5 -36t185.5 -89v-321h-47q-74 152 -179.5 239.5t-234.5 87.5q-119 0 -215 -41q-105 -73 -105 -174z" />
    <glyph glyph-name="Scaron_T.liga" unicode="&#x160;T" horiz-adv-x="2146" 
d="M502 1559l-248 309l43 39l321 -178l310 178l43 -37l-250 -311h-219zM1882 1339h-317v-1235l168 -59v-45h-531v45l168 59v1235h-797q-119 0 -215 -41q-104 -72 -104 -174q0 -67 29.5 -113.5t79.5 -71t115 -40t137 -28t144 -28t137 -45t115 -74.5t79.5 -122.5t29.5 -181.5
q0 -185 -154 -315t-386 -130q-269 0 -435 127l-63 408h47q50 -92 98.5 -161.5t108.5 -127.5t130.5 -88.5t149.5 -30.5q172 0 244 50q105 90 105 194q0 73 -23.5 127.5t-64.5 86t-95 55t-115.5 35t-125.5 26t-125.5 28t-115.5 41t-95 65t-64.5 100.5t-23.5 147
q0 174 133 275.5t340 101.5h1485l61 -400h-47z" />
    <glyph glyph-name="Scedilla_T.liga" unicode="&#x15e;T" horiz-adv-x="2146" 
d="M1882 1339h-317v-1235l168 -59v-45h-531v45l168 59v1235h-797q-119 0 -215 -41q-104 -72 -104 -174q0 -67 29.5 -113.5t79.5 -71t115 -40t137 -28t144 -28t137 -45t115 -74.5t79.5 -122.5t29.5 -181.5q0 -177 -142.5 -305t-359.5 -138l-53 -81h2q96 -23 146.5 -73
t50.5 -118t-55 -119t-137.5 -66t-178.5 5v55q89 -3 134.5 21.5t45.5 85.5q0 81 -84 98l-71 14l-2 4l110 174q-232 11 -381 125l-63 408h47q50 -92 98.5 -161.5t108.5 -127.5t130.5 -88.5t149.5 -30.5q172 0 244 50q105 90 105 194q0 73 -23.5 127.5t-64.5 86t-95 55
t-115.5 35t-125.5 26t-125.5 28t-115.5 41t-95 65t-64.5 100.5t-23.5 147q0 174 133 275.5t340 101.5h1485l61 -400h-47z" />
    <glyph glyph-name="Scircumflex_T.liga" unicode="&#x15c;T" horiz-adv-x="2146" 
d="M600 1716l-309 -178l-43 37l250 311h219l248 -309l-43 -39zM1882 1339h-317v-1235l168 -59v-45h-531v45l168 59v1235h-797q-119 0 -215 -41q-104 -72 -104 -174q0 -67 29.5 -113.5t79.5 -71t115 -40t137 -28t144 -28t137 -45t115 -74.5t79.5 -122.5t29.5 -181.5
q0 -185 -154 -315t-386 -130q-269 0 -435 127l-63 408h47q50 -92 98.5 -161.5t108.5 -127.5t130.5 -88.5t149.5 -30.5q172 0 244 50q105 90 105 194q0 73 -23.5 127.5t-64.5 86t-95 55t-115.5 35t-125.5 26t-125.5 28t-115.5 41t-95 65t-64.5 100.5t-23.5 147
q0 174 133 275.5t340 101.5h1485l61 -400h-47z" />
    <glyph glyph-name="Scommaaccent_T.liga" unicode="&#x218;T" horiz-adv-x="2146" 
d="M1882 1339h-317v-1235l168 -59v-45h-531v45l168 59v1235h-797q-119 0 -215 -41q-104 -72 -104 -174q0 -67 29.5 -113.5t79.5 -71t115 -40t137 -28t144 -28t137 -45t115 -74.5t79.5 -122.5t29.5 -181.5q0 -185 -154 -315t-386 -130q-269 0 -435 127l-63 408h47
q50 -92 98.5 -161.5t108.5 -127.5t130.5 -88.5t149.5 -30.5q172 0 244 50q105 90 105 194q0 73 -23.5 127.5t-64.5 86t-95 55t-115.5 35t-125.5 26t-125.5 28t-115.5 41t-95 65t-64.5 100.5t-23.5 147q0 174 133 275.5t340 101.5h1485l61 -400h-47zM631 -84
q67 -66 77 -149.5t-40.5 -158t-149.5 -112.5l-37 33q47 53 41.5 152t-61.5 161v2z" />
    <glyph glyph-name="T_H.liga" unicode="TH" horiz-adv-x="2619" 
d="M776 1339v-1235l168 -59v-45h-530v45l168 59v1235h-320l-205 -305h-47l62 400h1337l61 -400h-47l-206 305h-441zM2568 1389l-168 -60v-1225l168 -59v-45h-530v45l168 59v584h-725v-584l168 -59v-45h-531v45l168 59v678h920v547l-168 60v45h530v-45z" />
    <glyph glyph-name="T_H_E.liga" unicode="THE" horiz-adv-x="3313" 
d="M776 1339v-1235l168 -59v-45h-530v45l168 59v1235h-320l-205 -305h-47l62 400h1337l61 -400h-47l-206 305h-441zM3205 395h47l-57 -395h-1157v45l168 59v584h-725v-584l168 -59v-45h-531v45l168 59v678h920v547l-168 60v45h1140v-383h-47l-151 288h-580v-557h424l80 207
h47v-504h-47l-78 203h-426v-594h606z" />
    <glyph glyph-name="T_Hbar.liga" unicode="T&#x126;" horiz-adv-x="2619" 
d="M2603 971h-203v-867l168 -59v-45h-530v45l168 59v584h-725v-584l168 -59v-45h-531v45l168 59v678h920v189h-1139v94h336l-186 274h-441v-1235l168 -59v-45h-530v45l168 59v1235h-320l-205 -305h-47l62 400h1337l57 -369h740v264l-168 60v45h530v-45l-168 -60v-264h203
v-94z" />
    <glyph glyph-name="T_Hcircumflex.liga" unicode="T&#x124;" horiz-adv-x="2619" 
d="M1841 1716l-309 -178l-43 37l250 311h219l248 -309l-43 -39zM776 1339v-1235l168 -59v-45h-530v45l168 59v1235h-320l-205 -305h-47l62 400h1337l61 -400h-47l-206 305h-441zM2568 1389l-168 -60v-1225l168 -59v-45h-530v45l168 59v584h-725v-584l168 -59v-45h-531v45
l168 59v678h920v547l-168 60v45h530v-45z" />
    <glyph glyph-name="T_I.liga" unicode="TI" horiz-adv-x="1689" 
d="M776 1339v-1235l168 -59v-45h-530v45l168 59v1235h-320l-205 -305h-47l62 400h1337l61 -400h-47l-206 305h-441zM1649 737l-168 -59v-574l168 -59v-45h-531v45l168 59v574l-168 59v45h531v-45z" />
    <glyph glyph-name="T_Iogonek.liga" unicode="T&#x12e;" horiz-adv-x="1689" 
d="M776 1339v-1235l168 -59v-45h-530v45l168 59v1235h-320l-205 -305h-47l62 400h1337l61 -400h-47l-206 305h-441zM1649 737l-168 -59v-574l168 -59v-45h-168q-92 -153 -92 -270q0 -72 50 -106t115 -15v-53q-53 -32 -115 -40t-114.5 7.5t-87.5 59t-35 106.5q0 76 56 150.5
t151 160.5h-291v45l168 59v574l-168 59v45h531v-45z" />
    <glyph glyph-name="T_L.liga" unicode="TL" horiz-adv-x="2203" 
d="M776 1339v-1235l168 -59v-45h-530v45l168 59v1235h-320l-205 -305h-47l62 400h1337l61 -400h-47l-206 305h-441zM2116 395h47l-58 -395h-987v45l168 59v611l-168 59v45h531v-45l-168 -59v-621h432z" />
    <glyph glyph-name="T_L_A.liga" unicode="TLA" horiz-adv-x="3076" 
d="M776 1339v-1235l168 -59v-45h-530v45l168 59v1235h-320l-205 -305h-47l62 400h1337l61 -400h-47l-206 305h-441zM2925 98l141 -53v-45h-547v45l193 53l-177 424h-555l-172 -428h187l203 301h47l-58 -395h-1069v45l168 59v611l-168 59v45h531v-45l-168 -59v-621h221
l549 1340h121zM2019 616h478l-242 584z" />
    <glyph glyph-name="T_L_I.liga" unicode="TLI" horiz-adv-x="2387" 
d="M776 1339v-1235l168 -59v-45h-530v45l168 59v1235h-320l-205 -305h-47l62 400h1337l61 -400h-47l-206 305h-441zM2316 1389l-168 -60v-610l168 -60v-45h-530v45l168 60v610l-168 60v45h530v-45zM1913 94l203 301h47l-58 -395h-987v45l168 59v611l-168 59v45h531v-45
l-168 -59v-621h432z" />
    <glyph glyph-name="T_Lcommaaccent.liga" unicode="T&#x13b;" horiz-adv-x="2203" 
d="M776 1339v-1235l168 -59v-45h-530v45l168 59v1235h-320l-205 -305h-47l62 400h1337l61 -400h-47l-206 305h-441zM2116 395h47l-58 -395h-987v45l168 59v611l-168 59v45h531v-45l-168 -59v-621h432zM1657 -84q67 -66 77 -149.5t-40.5 -158t-149.5 -112.5l-37 33
q47 53 41.5 152t-61.5 161v2z" />
    <glyph glyph-name="T_T.liga" unicode="TT" horiz-adv-x="2072" 
d="M1808 1339h-317v-1235l168 -59v-45h-531v45l168 59v1235h-520v-1235l168 -59v-45h-530v45l168 59v1235h-320l-205 -305h-47l62 400h1929l61 -400h-47z" />
    <glyph glyph-name="T_U.liga" unicode="TU" 
d="M776 1339v-1235l168 -59v-45h-530v45l168 59v1235h-320l-205 -305h-47l62 400h1337l61 -400h-47l-206 305h-441zM2523 1434v-45l-145 -72v-846q0 -122 -44 -218.5t-120.5 -156t-173 -90.5t-207.5 -31q-79 0 -154 15.5t-147.5 52.5t-126 92.5t-86.5 143t-33 196.5v307h195
v-266q0 -89 25.5 -159.5t67 -115.5t99 -74.5t117 -41.5t125.5 -12q155 0 260.5 101t105.5 280v821l-194 74v45h436z" />
    <glyph glyph-name="T_Uacute.liga" unicode="T&#xda;" 
d="M2265 1712l-553 -174l-41 43l395 326h5l194 -185v-10zM776 1339v-1235l168 -59v-45h-530v45l168 59v1235h-320l-205 -305h-47l62 400h1337l61 -400h-47l-206 305h-441zM2523 1434v-45l-145 -72v-846q0 -122 -44 -218.5t-120.5 -156t-173 -90.5t-207.5 -31
q-79 0 -154 15.5t-147.5 52.5t-126 92.5t-86.5 143t-33 196.5v307h195v-266q0 -89 25.5 -159.5t67 -115.5t99 -74.5t117 -41.5t125.5 -12q155 0 260.5 101t105.5 280v821l-194 74v45h436z" />
    <glyph glyph-name="T_Ubreve.liga" unicode="T&#x16c;" 
d="M1874 1548q-48 0 -96 16t-95.5 51t-77.5 102t-30 157l65 2q25 -66 87 -110t147 -44t146.5 44t88.5 110l66 -2q0 -73 -20.5 -131t-52 -93.5t-73 -59.5t-80 -33t-75.5 -9zM776 1339v-1235l168 -59v-45h-530v45l168 59v1235h-320l-205 -305h-47l62 400h1337l61 -400h-47
l-206 305h-441zM2523 1434v-45l-145 -72v-846q0 -122 -44 -218.5t-120.5 -156t-173 -90.5t-207.5 -31q-79 0 -154 15.5t-147.5 52.5t-126 92.5t-86.5 143t-33 196.5v307h195v-266q0 -89 25.5 -159.5t67 -115.5t99 -74.5t117 -41.5t125.5 -12q155 0 260.5 101t105.5 280v821
l-194 74v45h436z" />
    <glyph glyph-name="T_Ucircumflex.liga" unicode="T&#xdb;" 
d="M1864 1716l-310 -178l-43 37l250 311h219l248 -309l-43 -39zM776 1339v-1235l168 -59v-45h-530v45l168 59v1235h-320l-205 -305h-47l62 400h1337l61 -400h-47l-206 305h-441zM2523 1434v-45l-145 -72v-846q0 -122 -44 -218.5t-120.5 -156t-173 -90.5t-207.5 -31
q-79 0 -154 15.5t-147.5 52.5t-126 92.5t-86.5 143t-33 196.5v307h195v-266q0 -89 25.5 -159.5t67 -115.5t99 -74.5t117 -41.5t125.5 -12q155 0 260.5 101t105.5 280v821l-194 74v45h436z" />
    <glyph glyph-name="T_Udieresis.liga" unicode="T&#xdc;" 
d="M1679 1612q-53 0 -90 37t-37 90t37 90t90 37t90 -37t37 -90t-37 -90t-90 -37zM2071 1612q-53 0 -90 37t-37 90t37 90t90 37t90 -37t37 -90t-37 -90t-90 -37zM776 1339v-1235l168 -59v-45h-530v45l168 59v1235h-320l-205 -305h-47l62 400h1337l61 -400h-47l-206 305h-441z
M2523 1434v-45l-145 -72v-846q0 -122 -44 -218.5t-120.5 -156t-173 -90.5t-207.5 -31q-79 0 -154 15.5t-147.5 52.5t-126 92.5t-86.5 143t-33 196.5v307h195v-266q0 -89 25.5 -159.5t67 -115.5t99 -74.5t117 -41.5t125.5 -12q155 0 260.5 101t105.5 280v821l-194 74v45h436z
" />
    <glyph glyph-name="T_Ugrave.liga" unicode="T&#xd9;" 
d="M2060 1587l-32 -49l-525 148v8l166 213h4zM776 1339v-1235l168 -59v-45h-530v45l168 59v1235h-320l-205 -305h-47l62 400h1337l61 -400h-47l-206 305h-441zM2523 1434v-45l-145 -72v-846q0 -122 -44 -218.5t-120.5 -156t-173 -90.5t-207.5 -31q-79 0 -154 15.5
t-147.5 52.5t-126 92.5t-86.5 143t-33 196.5v307h195v-266q0 -89 25.5 -159.5t67 -115.5t99 -74.5t117 -41.5t125.5 -12q155 0 260.5 101t105.5 280v821l-194 74v45h436z" />
    <glyph glyph-name="T_Uhungarumlaut.liga" unicode="T&#x170;" 
d="M2019 1821l-438 -283l-49 29l201 336h4l282 -70v-12zM1950 1540l-52 35l302 328h4l256 -103v-10zM776 1339v-1235l168 -59v-45h-530v45l168 59v1235h-320l-205 -305h-47l62 400h1337l61 -400h-47l-206 305h-441zM2523 1434v-45l-145 -72v-846q0 -122 -44 -218.5
t-120.5 -156t-173 -90.5t-207.5 -31q-79 0 -154 15.5t-147.5 52.5t-126 92.5t-86.5 143t-33 196.5v307h195v-266q0 -89 25.5 -159.5t67 -115.5t99 -74.5t117 -41.5t125.5 -12q155 0 260.5 101t105.5 280v821l-194 74v45h436z" />
    <glyph glyph-name="T_Umacron.liga" unicode="T&#x16a;" 
d="M2148 1784v-148h-546v148h546zM776 1339v-1235l168 -59v-45h-530v45l168 59v1235h-320l-205 -305h-47l62 400h1337l61 -400h-47l-206 305h-441zM2523 1434v-45l-145 -72v-846q0 -122 -44 -218.5t-120.5 -156t-173 -90.5t-207.5 -31q-79 0 -154 15.5t-147.5 52.5
t-126 92.5t-86.5 143t-33 196.5v307h195v-266q0 -89 25.5 -159.5t67 -115.5t99 -74.5t117 -41.5t125.5 -12q155 0 260.5 101t105.5 280v821l-194 74v45h436z" />
    <glyph glyph-name="T_Uogonek.liga" unicode="T&#x172;" 
d="M776 1339v-1235l168 -59v-45h-530v45l168 59v1235h-320l-205 -305h-47l62 400h1337l61 -400h-47l-206 305h-441zM2523 1434v-45l-145 -72v-846q0 -110 -36.5 -199.5t-100.5 -149t-146.5 -95.5t-179.5 -47q-80 -140 -80 -250q0 -72 50.5 -106t115.5 -15v-53
q-53 -32 -115 -40t-114.5 7.5t-87.5 59t-35 106.5q0 69 52 138t140 148h-8q-79 0 -154 15.5t-147.5 52.5t-126 92.5t-86.5 143t-33 196.5v307h195v-266q0 -89 25.5 -159.5t67 -115.5t99 -74.5t117 -41.5t125.5 -12q155 0 260.5 101t105.5 280v821l-194 74v45h436z" />
    <glyph glyph-name="T_Uring.liga" unicode="T&#x16e;" 
d="M1874 1501q-99 0 -166.5 55.5t-67.5 147.5q0 90 60.5 158.5t171.5 68.5q100 0 167.5 -55t67.5 -147q0 -91 -60.5 -159.5t-172.5 -68.5zM1774 1798q-23 -31 -23 -74q0 -59 37 -89.5t98 -30.5q44 0 86 28q25 29 25 76q0 60 -36 90.5t-97 30.5q-48 0 -90 -31zM776 1339
v-1235l168 -59v-45h-530v45l168 59v1235h-320l-205 -305h-47l62 400h1337l61 -400h-47l-206 305h-441zM2523 1434v-45l-145 -72v-846q0 -122 -44 -218.5t-120.5 -156t-173 -90.5t-207.5 -31q-79 0 -154 15.5t-147.5 52.5t-126 92.5t-86.5 143t-33 196.5v307h195v-266
q0 -89 25.5 -159.5t67 -115.5t99 -74.5t117 -41.5t125.5 -12q155 0 260.5 101t105.5 280v821l-194 74v45h436z" />
    <glyph glyph-name="T_Utilde.liga" unicode="T&#x168;" 
d="M1714 1692q-27 0 -48 -8.5t-37.5 -29.5t-25 -35t-24.5 -46l-57 20q28 133 88.5 207t148.5 74q38 0 73.5 -13.5t61.5 -32t49.5 -37.5t48.5 -32.5t48 -13.5q26 0 46.5 8.5t37 29.5t25 35t24.5 46l57 -21q-28 -132 -89 -206t-148 -74q-47 0 -90.5 20t-70.5 44.5t-59 44.5
t-59 20zM776 1339v-1235l168 -59v-45h-530v45l168 59v1235h-320l-205 -305h-47l62 400h1337l61 -400h-47l-206 305h-441zM2523 1434v-45l-145 -72v-846q0 -122 -44 -218.5t-120.5 -156t-173 -90.5t-207.5 -31q-79 0 -154 15.5t-147.5 52.5t-126 92.5t-86.5 143t-33 196.5
v307h195v-266q0 -89 25.5 -159.5t67 -115.5t99 -74.5t117 -41.5t125.5 -12q155 0 260.5 101t105.5 280v821l-194 74v45h436z" />
    <glyph glyph-name="T_V.liga" unicode="TV" horiz-adv-x="2521" 
d="M2521 1434v-45l-151 -72l-531 -1317h-121l-542 1335l-13 4h-387v-1235l168 -59v-45h-530v45l168 59v1235h-320l-205 -305h-47l62 400h1550v-45l-233 -56l446 -1097l428 1077l-260 76v45h518z" />
    <glyph glyph-name="T_W.liga" unicode="TW" horiz-adv-x="3176" 
d="M3166 1434v-45l-139 -66l-420 -1323h-121l-379 1042l-360 -1042h-121l-448 1337l-4 2h-398v-1235l168 -59v-45h-530v45l168 59v1235h-320l-205 -305h-47l62 400h1519v-45l-205 -58l355 -1057l315 910l-57 153l-135 52v45h546v-45l-202 -58l387 -1050l327 1028l-233 80v45
h477z" />
    <glyph glyph-name="T_Wacute.liga" unicode="T&#x1e82;" horiz-adv-x="3176" 
d="M2519 1712l-553 -174l-41 43l395 326h4l195 -185v-10zM3166 1434v-45l-139 -66l-420 -1323h-121l-379 1042l-360 -1042h-121l-448 1337l-4 2h-398v-1235l168 -59v-45h-530v45l168 59v1235h-320l-205 -305h-47l62 400h1519v-45l-205 -58l355 -1057l315 910l-57 153
l-135 52v45h546v-45l-202 -58l387 -1050l327 1028l-233 80v45h477z" />
    <glyph glyph-name="T_Wcircumflex.liga" unicode="T&#x174;" horiz-adv-x="3176" 
d="M2118 1716l-310 -178l-43 37l250 311h219l248 -309l-43 -39zM3166 1434v-45l-139 -66l-420 -1323h-121l-379 1042l-360 -1042h-121l-448 1337l-4 2h-398v-1235l168 -59v-45h-530v45l168 59v1235h-320l-205 -305h-47l62 400h1519v-45l-205 -58l355 -1057l315 910l-57 153
l-135 52v45h546v-45l-202 -58l387 -1050l327 1028l-233 80v45h477z" />
    <glyph glyph-name="T_Wdieresis.liga" unicode="T&#x1e84;" horiz-adv-x="3176" 
d="M1933 1612q-53 0 -90 37t-37 90t37 90t90 37t90 -37t37 -90t-37 -90t-90 -37zM2324 1612q-52 0 -89 37t-37 90t37 90t89 37t89.5 -37t37.5 -90t-37.5 -90t-89.5 -37zM3166 1434v-45l-139 -66l-420 -1323h-121l-379 1042l-360 -1042h-121l-448 1337l-4 2h-398v-1235
l168 -59v-45h-530v45l168 59v1235h-320l-205 -305h-47l62 400h1519v-45l-205 -58l355 -1057l315 910l-57 153l-135 52v45h546v-45l-202 -58l387 -1050l327 1028l-233 80v45h477z" />
    <glyph glyph-name="T_Wgrave.liga" unicode="T&#x1e80;" horiz-adv-x="3176" 
d="M2314 1587l-33 -49l-524 148v8l166 213h4zM3166 1434v-45l-139 -66l-420 -1323h-121l-379 1042l-360 -1042h-121l-448 1337l-4 2h-398v-1235l168 -59v-45h-530v45l168 59v1235h-320l-205 -305h-47l62 400h1519v-45l-205 -58l355 -1057l315 910l-57 153l-135 52v45h546
v-45l-202 -58l387 -1050l327 1028l-233 80v45h477z" />
    <glyph glyph-name="T_Y.liga" unicode="TY" horiz-adv-x="2410" 
d="M2269 1317l-450 -701v-512l168 -59v-45h-531v45l168 59v506l-483 725l-13 4h-352v-1235l168 -59v-45h-530v45l168 59v1235h-320l-205 -305h-47l62 400h1474v-45l-176 -50l408 -616l376 594l-210 72v45h477v-45z" />
    <glyph glyph-name="T_Yacute.liga" unicode="T&#xdd;" horiz-adv-x="2410" 
d="M2140 1712l-553 -174l-41 43l396 326h4l194 -185v-10zM2269 1317l-450 -701v-512l168 -59v-45h-531v45l168 59v506l-483 725l-13 4h-352v-1235l168 -59v-45h-530v45l168 59v1235h-320l-205 -305h-47l62 400h1474v-45l-176 -50l408 -616l376 594l-210 72v45h477v-45z" />
    <glyph glyph-name="T_Ycircumflex.liga" unicode="T&#x176;" horiz-adv-x="2410" 
d="M1739 1716l-309 -178l-44 37l250 311h219l248 -309l-43 -39zM2269 1317l-450 -701v-512l168 -59v-45h-531v45l168 59v506l-483 725l-13 4h-352v-1235l168 -59v-45h-530v45l168 59v1235h-320l-205 -305h-47l62 400h1474v-45l-176 -50l408 -616l376 594l-210 72v45h477v-45
z" />
    <glyph glyph-name="T_Ydieresis.liga" unicode="T&#x178;" horiz-adv-x="2410" 
d="M1554 1612q-52 0 -89.5 37t-37.5 90t37.5 90t89.5 37t89.5 -37t37.5 -90t-37.5 -90t-89.5 -37zM1946 1612q-52 0 -89.5 37t-37.5 90t37.5 90t89.5 37t89.5 -37t37.5 -90t-37.5 -90t-89.5 -37zM2269 1317l-450 -701v-512l168 -59v-45h-531v45l168 59v506l-483 725l-13 4
h-352v-1235l168 -59v-45h-530v45l168 59v1235h-320l-205 -305h-47l62 400h1474v-45l-176 -50l408 -616l376 594l-210 72v45h477v-45z" />
    <glyph glyph-name="T_Ygrave.liga" unicode="T&#x1ef2;" horiz-adv-x="2410" 
d="M1935 1587l-32 -49l-525 148v8l166 213h4zM2269 1317l-450 -701v-512l168 -59v-45h-531v45l168 59v506l-483 725l-13 4h-352v-1235l168 -59v-45h-530v45l168 59v1235h-320l-205 -305h-47l62 400h1474v-45l-176 -50l408 -616l376 594l-210 72v45h477v-45z" />
    <glyph glyph-name="T_b.liga" unicode="Tb" horiz-adv-x="2205" 
d="M1753 1008q113 0 196 -64.5t124 -171t41 -240.5q0 -150 -55.5 -277t-158 -203.5t-231.5 -76.5q-195 0 -401 103v1261h-492v-1235l166 -59v-45h-530v45l168 59h2v1235h-320l-205 -305h-47l62 400h1136l240 92l4 -2v-709q58 85 135.5 139t165.5 54zM1628 80q133 0 214 91
t81 275q0 211 -70.5 313.5t-181.5 102.5q-103 0 -219 -160v-585q94 -37 176 -37z" />
    <glyph glyph-name="T_h.liga" unicode="Th" horiz-adv-x="2269" 
d="M2085 100l143 -55v-45h-471v45l144 55v553q0 98 -49 148.5t-128 50.5q-60 0 -134.5 -40.5t-137.5 -109.5v-602l143 -55v-45h-471v45l144 55v1239h-492v-1235l168 -59v-45h-530v45l168 59v1235h-320l-205 -305h-47l62 400h1136l240 92l4 -2v-729q177 213 348 213
q122 0 203.5 -86.5t81.5 -239.5v-582z" />
    <glyph glyph-name="T_hbar.liga" unicode="T&#x127;" horiz-adv-x="2269" 
d="M2085 100l143 -55v-45h-471v45l144 55v543q0 98 -49 148.5t-128 50.5q-60 0 -134.5 -40.5t-137.5 -109.5v-592l143 -55v-45h-471v45l144 55v1028h-148v91h148v120h-492v-1235l168 -59v-45h-530v45l168 59v1235h-320l-205 -305h-47l62 400h1136l240 92l4 -2v-305h295v-91
h-295v-344q177 213 348 213q122 0 203.5 -86t81.5 -239v-572z" />
    <glyph glyph-name="T_k.liga" unicode="Tk" horiz-adv-x="2240" 
d="M2071 96l139 -51v-45h-295l-346 494l-117 -97v-297l143 -55v-45h-471v45l144 55v1239h-492v-1235l168 -59v-45h-530v45l168 59v1235h-320l-205 -305h-47l62 400h1136l240 92l4 -2v-1014l438 364l-168 64v45h459v-45l-141 -55l-328 -273z" />
    <glyph glyph-name="T_l.liga" unicode="Tl" horiz-adv-x="1636" 
d="M1452 100l143 -55v-45h-471v45l144 55v1239h-492v-1235l168 -59v-45h-530v45l168 59v1235h-320l-205 -305h-47l62 400h1136l240 92l4 -2v-1424z" />
    <glyph glyph-name="T_lcaron.liga" unicode="T&#x13e;" horiz-adv-x="1636" 
d="M1700 1552q65 -82 79 -166.5t-31 -165.5t-149 -143l-38 25q32 49 44 97t-3 121t-68 157v4zM1452 1524v-1424l143 -55v-45h-471v45l144 55v1239h-492v-1235l168 -59v-45h-530v45l168 59v1235h-320l-205 -305h-47l62 400h1136l240 92z" />
    <glyph glyph-name="Tbar_H.liga" unicode="&#x166;H" horiz-adv-x="2619" 
d="M776 1339v-553h258v-94h-258v-588l168 -59v-45h-530v45l168 59v588h-258v94h258v553h-320l-205 -305h-47l62 400h1337l61 -400h-47l-206 305h-441zM2568 1389l-168 -60v-1225l168 -59v-45h-530v45l168 59v584h-725v-584l168 -59v-45h-531v45l168 59v678h920v547l-168 60
v45h530v-45z" />
    <glyph glyph-name="Tbar_I.liga" unicode="&#x166;I" horiz-adv-x="1689" 
d="M776 1339v-553h258v-94h-258v-588l168 -59v-45h-530v45l168 59v588h-258v94h258v553h-320l-205 -305h-47l62 400h1337l61 -400h-47l-206 305h-441zM1649 737l-168 -59v-574l168 -59v-45h-531v45l168 59v574l-168 59v45h531v-45z" />
    <glyph glyph-name="Tbar_L.liga" unicode="&#x166;L" horiz-adv-x="2203" 
d="M776 1339v-553h258v-94h-258v-588l168 -59v-45h-530v45l168 59v588h-258v94h258v553h-320l-205 -305h-47l62 400h1337l61 -400h-47l-206 305h-441zM2116 395h47l-58 -395h-987v45l168 59v611l-168 59v45h531v-45l-168 -59v-621h432z" />
    <glyph glyph-name="Tbar_U.liga" unicode="&#x166;U" 
d="M776 1339v-553h258v-94h-258v-588l168 -59v-45h-530v45l168 59v588h-258v94h258v553h-320l-205 -305h-47l62 400h1337l61 -400h-47l-206 305h-441zM2523 1434v-45l-145 -72v-846q0 -122 -44 -218.5t-120.5 -156t-173 -90.5t-207.5 -31q-79 0 -154 15.5t-147.5 52.5
t-126 92.5t-86.5 143t-33 196.5v307h195v-266q0 -89 25.5 -159.5t67 -115.5t99 -74.5t117 -41.5t125.5 -12q155 0 260.5 101t105.5 280v821l-194 74v45h436z" />
    <glyph glyph-name="Tbar_V.liga" unicode="&#x166;V" horiz-adv-x="2521" 
d="M2521 1434v-45l-151 -72l-531 -1317h-121l-542 1335l-13 4h-387v-553h258v-94h-258v-588l168 -59v-45h-530v45l168 59v588h-258v94h258v553h-320l-205 -305h-47l62 400h1550v-45l-233 -56l446 -1097l428 1077l-260 76v45h518z" />
    <glyph glyph-name="Tbar_W.liga" unicode="&#x166;W" horiz-adv-x="3176" 
d="M3166 1434v-45l-139 -66l-420 -1323h-121l-379 1042l-360 -1042h-121l-448 1337l-4 2h-398v-553h258v-94h-258v-588l168 -59v-45h-530v45l168 59v588h-258v94h258v553h-320l-205 -305h-47l62 400h1519v-45l-205 -58l355 -1057l315 910l-57 153l-135 52v45h546v-45
l-202 -58l387 -1050l327 1028l-233 80v45h477z" />
    <glyph glyph-name="Tbar_Y.liga" unicode="&#x166;Y" horiz-adv-x="2410" 
d="M2269 1317l-450 -701v-512l168 -59v-45h-531v45l168 59v506l-483 725l-13 4h-352v-553h258v-94h-258v-588l168 -59v-45h-530v45l168 59v588h-258v94h258v553h-320l-205 -305h-47l62 400h1474v-45l-176 -50l408 -616l376 594l-210 72v45h477v-45z" />
    <glyph glyph-name="Tcaron_H.liga" unicode="&#x164;H" horiz-adv-x="2619" 
d="M567 1559l-248 309l43 39l322 -178l309 178l43 -37l-250 -311h-219zM776 1339v-1235l168 -59v-45h-530v45l168 59v1235h-320l-205 -305h-47l62 400h1337l61 -400h-47l-206 305h-441zM2568 1389l-168 -60v-1225l168 -59v-45h-530v45l168 59v584h-725v-584l168 -59v-45
h-531v45l168 59v678h920v547l-168 60v45h530v-45z" />
    <glyph glyph-name="Tcaron_I.liga" unicode="&#x164;I" horiz-adv-x="1689" 
d="M567 1559l-248 309l43 39l322 -178l309 178l43 -37l-250 -311h-219zM776 1339v-1235l168 -59v-45h-530v45l168 59v1235h-320l-205 -305h-47l62 400h1337l61 -400h-47l-206 305h-441zM1649 737l-168 -59v-574l168 -59v-45h-531v45l168 59v574l-168 59v45h531v-45z" />
    <glyph glyph-name="Tcaron_L.liga" unicode="&#x164;L" horiz-adv-x="2203" 
d="M567 1559l-248 309l43 39l322 -178l309 178l43 -37l-250 -311h-219zM776 1339v-1235l168 -59v-45h-530v45l168 59v1235h-320l-205 -305h-47l62 400h1337l61 -400h-47l-206 305h-441zM2116 395h47l-58 -395h-987v45l168 59v611l-168 59v45h531v-45l-168 -59v-621h432z" />
    <glyph glyph-name="Tcaron_T.liga" unicode="&#x164;T" horiz-adv-x="2072" 
d="M567 1559l-248 309l43 39l322 -178l309 178l43 -37l-250 -311h-219zM1808 1339h-317v-1235l168 -59v-45h-531v45l168 59v1235h-520v-1235l168 -59v-45h-530v45l168 59v1235h-320l-205 -305h-47l62 400h1929l61 -400h-47z" />
    <glyph glyph-name="Tcaron_U.liga" unicode="&#x164;U" 
d="M567 1559l-248 309l43 39l322 -178l309 178l43 -37l-250 -311h-219zM776 1339v-1235l168 -59v-45h-530v45l168 59v1235h-320l-205 -305h-47l62 400h1337l61 -400h-47l-206 305h-441zM2523 1434v-45l-145 -72v-846q0 -122 -44 -218.5t-120.5 -156t-173 -90.5t-207.5 -31
q-79 0 -154 15.5t-147.5 52.5t-126 92.5t-86.5 143t-33 196.5v307h195v-266q0 -89 25.5 -159.5t67 -115.5t99 -74.5t117 -41.5t125.5 -12q155 0 260.5 101t105.5 280v821l-194 74v45h436z" />
    <glyph glyph-name="Tcaron_V.liga" unicode="&#x164;V" horiz-adv-x="2521" 
d="M567 1559l-248 309l43 39l322 -178l309 178l43 -37l-250 -311h-219zM2521 1434v-45l-151 -72l-531 -1317h-121l-542 1335l-13 4h-387v-1235l168 -59v-45h-530v45l168 59v1235h-320l-205 -305h-47l62 400h1550v-45l-233 -56l446 -1097l428 1077l-260 76v45h518z" />
    <glyph glyph-name="Tcaron_W.liga" unicode="&#x164;W" horiz-adv-x="3176" 
d="M567 1559l-248 309l43 39l322 -178l309 178l43 -37l-250 -311h-219zM3166 1434v-45l-139 -66l-420 -1323h-121l-379 1042l-360 -1042h-121l-448 1337l-4 2h-398v-1235l168 -59v-45h-530v45l168 59v1235h-320l-205 -305h-47l62 400h1519v-45l-205 -58l355 -1057l315 910
l-57 153l-135 52v45h546v-45l-202 -58l387 -1050l327 1028l-233 80v45h477z" />
    <glyph glyph-name="Tcaron_Y.liga" unicode="&#x164;Y" horiz-adv-x="2410" 
d="M567 1559l-248 309l43 39l322 -178l309 178l43 -37l-250 -311h-219zM2269 1317l-450 -701v-512l168 -59v-45h-531v45l168 59v506l-483 725l-13 4h-352v-1235l168 -59v-45h-530v45l168 59v1235h-320l-205 -305h-47l62 400h1474v-45l-176 -50l408 -616l376 594l-210 72v45
h477v-45z" />
    <glyph glyph-name="uni01620048.liga" unicode="&#x162;H" horiz-adv-x="2619" 
d="M776 1339v-1235l168 -59v-45h-213l-67 -104h2q96 -23 146 -73t50 -118t-54.5 -119t-137 -66t-178.5 5v55q89 -3 134.5 21.5t45.5 85.5q0 81 -84 98l-72 14l-2 4l127 197h-227v45l168 59v1235h-320l-205 -305h-47l62 400h1337l61 -400h-47l-206 305h-441zM2568 1389
l-168 -60v-1225l168 -59v-45h-530v45l168 59v584h-725v-584l168 -59v-45h-531v45l168 59v678h920v547l-168 60v45h530v-45z" />
    <glyph glyph-name="uni01620049.liga" unicode="&#x162;I" horiz-adv-x="1689" 
d="M776 1339v-1235l168 -59v-45h-213l-67 -104h2q96 -23 146 -73t50 -118t-54.5 -119t-137 -66t-178.5 5v55q89 -3 134.5 21.5t45.5 85.5q0 81 -84 98l-72 14l-2 4l127 197h-227v45l168 59v1235h-320l-205 -305h-47l62 400h1337l61 -400h-47l-206 305h-441zM1649 737
l-168 -59v-574l168 -59v-45h-531v45l168 59v574l-168 59v45h531v-45z" />
    <glyph glyph-name="uni0162004C.liga" unicode="&#x162;L" horiz-adv-x="2203" 
d="M776 1339v-1235l168 -59v-45h-213l-67 -104h2q96 -23 146 -73t50 -118t-54.5 -119t-137 -66t-178.5 5v55q89 -3 134.5 21.5t45.5 85.5q0 81 -84 98l-72 14l-2 4l127 197h-227v45l168 59v1235h-320l-205 -305h-47l62 400h1337l61 -400h-47l-206 305h-441zM2116 395h47
l-58 -395h-987v45l168 59v611l-168 59v45h531v-45l-168 -59v-621h432z" />
    <glyph glyph-name="uni01620055.liga" unicode="&#x162;U" 
d="M776 1339v-1235l168 -59v-45h-213l-67 -104h2q96 -23 146 -73t50 -118t-54.5 -119t-137 -66t-178.5 5v55q89 -3 134.5 21.5t45.5 85.5q0 81 -84 98l-72 14l-2 4l127 197h-227v45l168 59v1235h-320l-205 -305h-47l62 400h1337l61 -400h-47l-206 305h-441zM2523 1434v-45
l-145 -72v-846q0 -122 -44 -218.5t-120.5 -156t-173 -90.5t-207.5 -31q-79 0 -154 15.5t-147.5 52.5t-126 92.5t-86.5 143t-33 196.5v307h195v-266q0 -89 25.5 -159.5t67 -115.5t99 -74.5t117 -41.5t125.5 -12q155 0 260.5 101t105.5 280v821l-194 74v45h436z" />
    <glyph glyph-name="uni01620056.liga" unicode="&#x162;V" horiz-adv-x="2521" 
d="M2521 1434v-45l-151 -72l-531 -1317h-121l-542 1335l-13 4h-387v-1235l168 -59v-45h-213l-67 -104h2q96 -23 146 -73t50 -118t-54.5 -119t-137 -66t-178.5 5v55q89 -3 134.5 21.5t45.5 85.5q0 81 -84 98l-72 14l-2 4l127 197h-227v45l168 59v1235h-320l-205 -305h-47
l62 400h1550v-45l-233 -56l446 -1097l428 1077l-260 76v45h518z" />
    <glyph glyph-name="uni01620057.liga" unicode="&#x162;W" horiz-adv-x="3176" 
d="M3166 1434v-45l-139 -66l-420 -1323h-121l-379 1042l-360 -1042h-121l-448 1337l-4 2h-398v-1235l168 -59v-45h-213l-67 -104h2q96 -23 146 -73t50 -118t-54.5 -119t-137 -66t-178.5 5v55q89 -3 134.5 21.5t45.5 85.5q0 81 -84 98l-72 14l-2 4l127 197h-227v45l168 59
v1235h-320l-205 -305h-47l62 400h1519v-45l-205 -58l355 -1057l315 910l-57 153l-135 52v45h546v-45l-202 -58l387 -1050l327 1028l-233 80v45h477z" />
    <glyph glyph-name="uni01620059.liga" unicode="&#x162;Y" horiz-adv-x="2410" 
d="M2269 1317l-450 -701v-512l168 -59v-45h-531v45l168 59v506l-483 725l-13 4h-352v-1235l168 -59v-45h-213l-67 -104h2q96 -23 146 -73t50 -118t-54.5 -119t-137 -66t-178.5 5v55q89 -3 134.5 21.5t45.5 85.5q0 81 -84 98l-72 14l-2 4l127 197h-227v45l168 59v1235h-320
l-205 -305h-47l62 400h1474v-45l-176 -50l408 -616l376 594l-210 72v45h477v-45z" />
    <glyph glyph-name="uni021A0048.liga" unicode="&#x21a;H" horiz-adv-x="2619" 
d="M776 1339v-1235l168 -59v-45h-530v45l168 59v1235h-320l-205 -305h-47l62 400h1337l61 -400h-47l-206 305h-441zM2568 1389l-168 -60v-1225l168 -59v-45h-530v45l168 59v584h-725v-584l168 -59v-45h-531v45l168 59v678h920v547l-168 60v45h530v-45zM729 -84
q67 -66 77 -149.5t-40.5 -158t-149.5 -112.5l-36 33q47 53 41 152t-62 161v2z" />
    <glyph glyph-name="uni021A0049.liga" unicode="&#x21a;I" horiz-adv-x="1689" 
d="M776 1339v-1235l168 -59v-45h-530v45l168 59v1235h-320l-205 -305h-47l62 400h1337l61 -400h-47l-206 305h-441zM1649 737l-168 -59v-574l168 -59v-45h-531v45l168 59v574l-168 59v45h531v-45zM729 -84q67 -66 77 -149.5t-40.5 -158t-149.5 -112.5l-36 33q47 53 41 152
t-62 161v2z" />
    <glyph glyph-name="uni021A004C.liga" unicode="&#x21a;L" horiz-adv-x="2203" 
d="M776 1339v-1235l168 -59v-45h-530v45l168 59v1235h-320l-205 -305h-47l62 400h1337l61 -400h-47l-206 305h-441zM2116 395h47l-58 -395h-987v45l168 59v611l-168 59v45h531v-45l-168 -59v-621h432zM729 -84q67 -66 77 -149.5t-40.5 -158t-149.5 -112.5l-36 33
q47 53 41 152t-62 161v2z" />
    <glyph glyph-name="uni021A0055.liga" unicode="&#x21a;U" 
d="M776 1339v-1235l168 -59v-45h-530v45l168 59v1235h-320l-205 -305h-47l62 400h1337l61 -400h-47l-206 305h-441zM2523 1434v-45l-145 -72v-846q0 -122 -44 -218.5t-120.5 -156t-173 -90.5t-207.5 -31q-79 0 -154 15.5t-147.5 52.5t-126 92.5t-86.5 143t-33 196.5v307h195
v-266q0 -89 25.5 -159.5t67 -115.5t99 -74.5t117 -41.5t125.5 -12q155 0 260.5 101t105.5 280v821l-194 74v45h436zM729 -84q67 -66 77 -149.5t-40.5 -158t-149.5 -112.5l-36 33q47 53 41 152t-62 161v2z" />
    <glyph glyph-name="uni021A0056.liga" unicode="&#x21a;V" horiz-adv-x="2521" 
d="M2521 1434v-45l-151 -72l-531 -1317h-121l-542 1335l-13 4h-387v-1235l168 -59v-45h-530v45l168 59v1235h-320l-205 -305h-47l62 400h1550v-45l-233 -56l446 -1097l428 1077l-260 76v45h518zM729 -84q67 -66 77 -149.5t-40.5 -158t-149.5 -112.5l-36 33q47 53 41 152
t-62 161v2z" />
    <glyph glyph-name="uni021A0057.liga" unicode="&#x21a;W" horiz-adv-x="3176" 
d="M3166 1434v-45l-139 -66l-420 -1323h-121l-379 1042l-360 -1042h-121l-448 1337l-4 2h-398v-1235l168 -59v-45h-530v45l168 59v1235h-320l-205 -305h-47l62 400h1519v-45l-205 -58l355 -1057l315 910l-57 153l-135 52v45h546v-45l-202 -58l387 -1050l327 1028l-233 80v45
h477zM729 -84q67 -66 77 -149.5t-40.5 -158t-149.5 -112.5l-36 33q47 53 41 152t-62 161v2z" />
    <glyph glyph-name="uni021A0059.liga" unicode="&#x21a;Y" horiz-adv-x="2410" 
d="M2269 1317l-450 -701v-512l168 -59v-45h-531v45l168 59v506l-483 725l-13 4h-352v-1235l168 -59v-45h-530v45l168 59v1235h-320l-205 -305h-47l62 400h1474v-45l-176 -50l408 -616l376 594l-210 72v45h477v-45zM729 -84q67 -66 77 -149.5t-40.5 -158t-149.5 -112.5
l-36 33q47 53 41 152t-62 161v2z" />
    <glyph glyph-name="U_M.liga" unicode="UM" horiz-adv-x="2859" 
d="M2808 1389l-168 -60v-1225l168 -59v-45h-531v45l168 59v1229l-538 -1333h-47l-560 1309v-838q0 -122 -44 -218.5t-120 -156t-173 -90.5t-207 -31q-79 0 -154 15.5t-147.5 52.5t-126 92.5t-86.5 143t-33 196.5v854l-168 60v45h530v-45l-168 -60v-813q0 -89 25.5 -159.5
t67 -115.5t99 -74.5t117.5 -41.5t126 -12q155 0 260.5 101t105.5 280v821l-194 74v45h448l477 -1108l449 1108h424v-45z" />
    <glyph glyph-name="U_N.liga" unicode="UN" horiz-adv-x="2516" 
d="M2476 1434v-45l-168 -70v-1319h-65l-943 1253v-782q0 -122 -44 -218.5t-120 -156t-173 -90.5t-207 -31q-79 0 -154 15.5t-147.5 52.5t-126 92.5t-86.5 143t-33 196.5v854l-168 60v45h530v-45l-168 -60v-813q0 -89 25.5 -159.5t67 -115.5t99 -74.5t117.5 -41.5t126 -12
q155 0 260.5 101t105.5 280v821l-194 74v45h395l803 -1057v940l-213 72v45h481z" />
    <glyph glyph-name="U_Nacute.liga" unicode="U&#x143;" horiz-adv-x="2516" 
d="M2146 1712l-553 -174l-41 43l396 326h4l194 -185v-10zM2476 1434v-45l-168 -70v-1319h-65l-943 1253v-782q0 -122 -44 -218.5t-120 -156t-173 -90.5t-207 -31q-79 0 -154 15.5t-147.5 52.5t-126 92.5t-86.5 143t-33 196.5v854l-168 60v45h530v-45l-168 -60v-813
q0 -89 25.5 -159.5t67 -115.5t99 -74.5t117.5 -41.5t126 -12q155 0 260.5 101t105.5 280v821l-194 74v45h395l803 -1057v940l-213 72v45h481z" />
    <glyph glyph-name="U_Ncaron.liga" unicode="U&#x147;" horiz-adv-x="2516" 
d="M1647 1559l-248 309l43 39l321 -178l310 178l43 -37l-250 -311h-219zM2476 1434v-45l-168 -70v-1319h-65l-943 1253v-782q0 -122 -44 -218.5t-120 -156t-173 -90.5t-207 -31q-79 0 -154 15.5t-147.5 52.5t-126 92.5t-86.5 143t-33 196.5v854l-168 60v45h530v-45l-168 -60
v-813q0 -89 25.5 -159.5t67 -115.5t99 -74.5t117.5 -41.5t126 -12q155 0 260.5 101t105.5 280v821l-194 74v45h395l803 -1057v940l-213 72v45h481z" />
    <glyph glyph-name="U_Ncommaaccent.liga" unicode="U&#x145;" horiz-adv-x="2516" 
d="M2476 1434v-45l-168 -70v-1319h-65l-943 1253v-782q0 -122 -44 -218.5t-120 -156t-173 -90.5t-207 -31q-79 0 -154 15.5t-147.5 52.5t-126 92.5t-86.5 143t-33 196.5v854l-168 60v45h530v-45l-168 -60v-813q0 -89 25.5 -159.5t67 -115.5t99 -74.5t117.5 -41.5t126 -12
q155 0 260.5 101t105.5 280v821l-194 74v45h395l803 -1057v940l-213 72v45h481zM1806 -84q67 -66 77.5 -149.5t-40 -158t-149.5 -112.5l-37 33q47 53 41 152t-62 161v2z" />
    <glyph glyph-name="U_Eng.liga" unicode="U&#x14a;" horiz-adv-x="2516" 
d="M2476 1434v-45l-168 -70v-1356q0 -105 -54 -204t-148 -162t-201 -62v51q94 28 153.5 121t59.5 213v246l-818 1087v-782q0 -122 -44 -218.5t-120 -156t-173 -90.5t-207 -31q-79 0 -154 15.5t-147.5 52.5t-126 92.5t-86.5 143t-33 196.5v854l-168 60v45h530v-45l-168 -60
v-813q0 -89 25.5 -159.5t67 -115.5t99 -74.5t117.5 -41.5t126 -12q155 0 260.5 101t105.5 280v821l-194 74v45h395l803 -1057v940l-213 72v45h481z" />
    <glyph glyph-name="U_Ntilde.liga" unicode="U&#xd1;" horiz-adv-x="2516" 
d="M1595 1692q-27 0 -48 -8.5t-37.5 -29.5t-25 -35t-24.5 -46l-57 20q28 133 88.5 207t148.5 74q38 0 73.5 -13.5t61.5 -32t49.5 -37.5t48.5 -32.5t48 -13.5q26 0 46.5 8.5t37 29.5t25 35t24.5 46l57 -21q-28 -132 -89 -206t-148 -74q-47 0 -90.5 20t-70.5 44.5t-59 44.5
t-59 20zM2476 1434v-45l-168 -70v-1319h-65l-943 1253v-782q0 -122 -44 -218.5t-120 -156t-173 -90.5t-207 -31q-79 0 -154 15.5t-147.5 52.5t-126 92.5t-86.5 143t-33 196.5v854l-168 60v45h530v-45l-168 -60v-813q0 -89 25.5 -159.5t67 -115.5t99 -74.5t117.5 -41.5
t126 -12q155 0 260.5 101t105.5 280v821l-194 74v45h395l803 -1057v940l-213 72v45h481z" />
    <glyph glyph-name="Uacute_M.liga" unicode="&#xda;M" horiz-adv-x="2859" 
d="M1188 1712l-553 -174l-41 43l395 326h4l195 -185v-10zM2808 1389l-168 -60v-1225l168 -59v-45h-531v45l168 59v1229l-538 -1333h-47l-560 1309v-838q0 -122 -44 -218.5t-120 -156t-173 -90.5t-207 -31q-79 0 -154 15.5t-147.5 52.5t-126 92.5t-86.5 143t-33 196.5v854
l-168 60v45h530v-45l-168 -60v-813q0 -89 25.5 -159.5t67 -115.5t99 -74.5t117.5 -41.5t126 -12q155 0 260.5 101t105.5 280v821l-194 74v45h448l477 -1108l449 1108h424v-45z" />
    <glyph glyph-name="Uacute_N.liga" unicode="&#xda;N" horiz-adv-x="2516" 
d="M1188 1712l-553 -174l-41 43l395 326h4l195 -185v-10zM2476 1434v-45l-168 -70v-1319h-65l-943 1253v-782q0 -122 -44 -218.5t-120 -156t-173 -90.5t-207 -31q-79 0 -154 15.5t-147.5 52.5t-126 92.5t-86.5 143t-33 196.5v854l-168 60v45h530v-45l-168 -60v-813
q0 -89 25.5 -159.5t67 -115.5t99 -74.5t117.5 -41.5t126 -12q155 0 260.5 101t105.5 280v821l-194 74v45h395l803 -1057v940l-213 72v45h481z" />
    <glyph glyph-name="Ubreve_M.liga" unicode="&#x16c;M" horiz-adv-x="2859" 
d="M797 1548q-48 0 -96 16t-95.5 51t-77.5 102t-30 157l65 2q25 -66 87 -110t147 -44t146.5 44t88.5 110l66 -2q0 -73 -20.5 -131t-52 -93.5t-73 -59.5t-80 -33t-75.5 -9zM2808 1389l-168 -60v-1225l168 -59v-45h-531v45l168 59v1229l-538 -1333h-47l-560 1309v-838
q0 -122 -44 -218.5t-120 -156t-173 -90.5t-207 -31q-79 0 -154 15.5t-147.5 52.5t-126 92.5t-86.5 143t-33 196.5v854l-168 60v45h530v-45l-168 -60v-813q0 -89 25.5 -159.5t67 -115.5t99 -74.5t117.5 -41.5t126 -12q155 0 260.5 101t105.5 280v821l-194 74v45h448
l477 -1108l449 1108h424v-45z" />
    <glyph glyph-name="Ubreve_N.liga" unicode="&#x16c;N" horiz-adv-x="2516" 
d="M797 1548q-48 0 -96 16t-95.5 51t-77.5 102t-30 157l65 2q25 -66 87 -110t147 -44t146.5 44t88.5 110l66 -2q0 -73 -20.5 -131t-52 -93.5t-73 -59.5t-80 -33t-75.5 -9zM2476 1434v-45l-168 -70v-1319h-65l-943 1253v-782q0 -122 -44 -218.5t-120 -156t-173 -90.5
t-207 -31q-79 0 -154 15.5t-147.5 52.5t-126 92.5t-86.5 143t-33 196.5v854l-168 60v45h530v-45l-168 -60v-813q0 -89 25.5 -159.5t67 -115.5t99 -74.5t117.5 -41.5t126 -12q155 0 260.5 101t105.5 280v821l-194 74v45h395l803 -1057v940l-213 72v45h481z" />
    <glyph glyph-name="Ucircumflex_M.liga" unicode="&#xdb;M" horiz-adv-x="2859" 
d="M786 1716l-309 -178l-43 37l250 311h219l248 -309l-43 -39zM2808 1389l-168 -60v-1225l168 -59v-45h-531v45l168 59v1229l-538 -1333h-47l-560 1309v-838q0 -122 -44 -218.5t-120 -156t-173 -90.5t-207 -31q-79 0 -154 15.5t-147.5 52.5t-126 92.5t-86.5 143t-33 196.5
v854l-168 60v45h530v-45l-168 -60v-813q0 -89 25.5 -159.5t67 -115.5t99 -74.5t117.5 -41.5t126 -12q155 0 260.5 101t105.5 280v821l-194 74v45h448l477 -1108l449 1108h424v-45z" />
    <glyph glyph-name="Ucircumflex_N.liga" unicode="&#xdb;N" horiz-adv-x="2516" 
d="M786 1716l-309 -178l-43 37l250 311h219l248 -309l-43 -39zM2476 1434v-45l-168 -70v-1319h-65l-943 1253v-782q0 -122 -44 -218.5t-120 -156t-173 -90.5t-207 -31q-79 0 -154 15.5t-147.5 52.5t-126 92.5t-86.5 143t-33 196.5v854l-168 60v45h530v-45l-168 -60v-813
q0 -89 25.5 -159.5t67 -115.5t99 -74.5t117.5 -41.5t126 -12q155 0 260.5 101t105.5 280v821l-194 74v45h395l803 -1057v940l-213 72v45h481z" />
    <glyph glyph-name="Udieresis_M.liga" unicode="&#xdc;M" horiz-adv-x="2859" 
d="M602 1612q-52 0 -89.5 37t-37.5 90t37.5 90t89.5 37t89.5 -37t37.5 -90t-37.5 -90t-89.5 -37zM993 1612q-53 0 -90 37t-37 90t37 90t90 37t90 -37t37 -90t-37 -90t-90 -37zM2808 1389l-168 -60v-1225l168 -59v-45h-531v45l168 59v1229l-538 -1333h-47l-560 1309v-838
q0 -122 -44 -218.5t-120 -156t-173 -90.5t-207 -31q-79 0 -154 15.5t-147.5 52.5t-126 92.5t-86.5 143t-33 196.5v854l-168 60v45h530v-45l-168 -60v-813q0 -89 25.5 -159.5t67 -115.5t99 -74.5t117.5 -41.5t126 -12q155 0 260.5 101t105.5 280v821l-194 74v45h448
l477 -1108l449 1108h424v-45z" />
    </font>
</defs>
</svg>
